<svg width="60" height="42" viewBox="0 0 60 42" fill="none" xmlns="http://www.w3.org/2000/svg">
<path d="M22.5412 19.9297C21.1485 19.9297 20.0168 21.0586 20.0168 22.448C20.0168 23.8374 21.1485 24.9663 22.5412 24.9663C23.934 24.9663 25.0656 23.8374 25.0656 22.448C25.0656 21.0586 23.934 19.9297 22.5412 19.9297ZM22.0625 22.9256C21.4531 22.9256 20.9744 22.448 20.9744 21.8401C20.9744 21.2323 21.4531 20.7546 22.0625 20.7546C22.6718 20.7546 23.1506 21.2323 23.1506 21.8401C23.1506 22.4046 22.6718 22.9256 22.0625 22.9256Z" fill="black"/>
<path d="M37.383 25.0097C38.7758 25.0097 39.9074 23.8808 39.9074 22.4914C39.9074 21.102 38.7758 19.9731 37.383 19.9731C35.9903 19.9731 34.8586 21.102 34.8586 22.4914C34.8586 23.8808 35.9903 25.0097 37.383 25.0097ZM36.9043 20.7112C37.5136 20.7112 37.9924 21.1888 37.9924 21.7967C37.9924 22.4045 37.5136 22.8822 36.9043 22.8822C36.2949 22.8822 35.8162 22.4045 35.8162 21.7967C35.7726 21.1888 36.2949 20.7112 36.9043 20.7112Z" fill="black"/>
<path d="M57.3171 7.1211C54.7491 5.64485 51.6589 5.81853 48.9169 4.81989C47.7418 4.3857 46.7407 3.73442 45.6961 3.08313C44.9562 2.60552 44.1728 2.08449 43.2588 1.91082C42.0401 1.73714 40.9085 2.30159 39.951 3.08313C33.814 -0.6509 26.0668 -0.867995 20.0169 3.08313C19.4946 2.64894 18.8853 2.25817 18.2759 2.04108C16.2303 1.30295 14.5329 2.99629 12.879 3.95151C11.5297 4.73305 10.0934 5.16724 8.57007 5.42775C7.13377 5.68827 5.65395 5.90537 4.30471 6.38297C3.2166 6.73033 2.17202 7.25136 1.38859 8.07632C0.605155 8.90128 0.256964 9.98675 0.126391 11.0722C-0.00418112 12.288 0.169915 13.4603 1.0404 14.4155C1.30154 14.7194 1.64973 14.9799 1.78031 15.3273C1.99793 15.8483 1.9544 16.4128 1.91088 16.9772C1.82383 18.9311 1.82383 20.9718 2.52022 22.7953C3.3907 25.0097 5.26224 26.3123 7.69959 26.3123C9.65817 26.2689 11.2686 25.3571 12.4872 24.0111C13.7059 29.3516 16.1433 35.9513 21.4097 38.2091C22.3237 38.5999 23.2812 38.817 24.1952 38.817C24.2387 38.8604 24.2823 38.9038 24.3258 38.9472C26.1973 40.2064 27.9818 41.5523 30.3321 41.4655C32.5083 41.3787 34.2493 40.0327 36.0338 38.9472C36.1208 38.9038 36.1644 38.8604 36.2079 38.817C36.9478 38.7301 37.6877 38.5564 38.4276 38.2525C43.7375 35.9947 46.1749 29.3516 47.3936 24.0111C48.2205 24.9663 49.2216 25.7044 50.4403 26.0952C52.7035 26.8333 55.315 26.2254 56.7077 24.2282C57.8829 22.5348 58.1005 20.2771 58.057 18.2798C58.057 17.368 57.7958 16.2391 58.1876 15.3707C58.3616 15.0234 58.6663 14.7628 58.9275 14.5023C59.2757 14.1116 59.5368 13.6774 59.7109 13.1998C60.4508 10.8551 59.4062 8.29341 57.3171 7.1211ZM26.3279 38.5564C27.9383 38.0354 29.244 36.8631 29.9839 35.2566C30.7674 36.9499 32.2037 38.1657 33.9446 38.6433C32.9 39.2946 31.8119 39.9024 30.6368 40.0327C28.9394 40.1629 27.5901 39.4248 26.3279 38.5564ZM58.3181 13.3734C58.1005 13.6774 57.7958 13.8945 57.5782 14.1984C56.8818 15.0668 56.8383 16.0654 56.8818 17.1509C56.9689 18.9311 56.9689 20.7981 56.316 22.4914C55.5326 24.4887 53.661 25.4439 51.5284 25.0966C49.2651 24.7058 47.7853 22.7953 46.8713 20.8415C45.9138 18.7574 45.435 16.4996 45.1303 14.2852C44.7821 11.8538 43.1717 9.59598 41.4308 7.90264C41.3002 7.77238 41.2132 7.68554 41.0826 7.55529C40.4732 7.03426 39.6463 7.90264 40.2121 8.42367C41.779 9.76965 43.1717 11.6801 43.7376 13.7208C44.0422 14.8931 44.1293 16.1088 44.3904 17.3246C44.6951 18.5837 45.0433 19.7994 45.5656 21.0152C45.7832 21.4928 46.0008 21.9704 46.2619 22.4046C46.2619 22.448 46.2619 22.448 46.2184 22.4914C45.3044 27.1807 43.607 32.5212 39.8204 35.7342C36.4255 38.5999 30.985 37.7749 30.7674 32.6515C30.7674 32.4778 30.7238 32.3475 30.6368 32.2607C31.3767 31.7831 32.5083 30.7844 32.726 29.3516C32.9436 27.9622 32.2037 27.3109 31.1591 27.3109C30.5062 27.3109 30.158 27.7017 30.0275 27.9622C29.9839 28.0056 29.8969 28.0056 29.8969 27.9622C29.7663 27.7017 29.4616 27.3543 28.7653 27.3543C27.7642 27.3543 26.8937 27.9188 27.1549 29.3082C27.416 30.7844 28.5041 31.7397 29.244 32.2607C29.157 32.3475 29.1134 32.5212 29.1134 32.6515C28.8958 37.7749 23.4553 38.5999 20.0604 35.7342C16.2738 32.4778 14.6199 27.1372 13.6624 22.448C14.8811 20.3639 15.5339 17.889 15.9256 15.501C16.1433 14.0681 16.4479 12.809 17.1878 11.5064C17.7972 10.5078 18.5371 9.59598 19.364 8.77102C19.4946 8.64076 19.6252 8.5105 19.7993 8.38025C20.4086 7.85922 19.5381 6.99084 18.9288 7.51187C17.4925 8.7276 16.2738 10.3775 15.5339 12.1143C15.0116 13.2866 14.8811 14.5023 14.6634 15.7181C14.4458 16.8469 14.1847 18.0193 13.793 19.1047C13.4448 20.1034 13.0095 21.1888 12.4002 22.1441C12.3567 22.2309 12.2696 22.2743 12.2696 22.3612C11.6603 23.2295 10.9639 24.0111 10.0064 24.5321C8.22188 25.5307 5.61043 25.3571 4.30471 23.6203C3.2166 22.1441 3.04251 20.06 3.08603 18.2798C3.08603 17.3246 3.26013 16.3259 3.04251 15.4141C2.82488 14.5023 2.17202 14.0681 1.69326 13.3734C1.08392 12.5051 1.21449 11.1591 1.51916 10.2038C1.82383 9.29204 2.47669 8.64076 3.26013 8.16315C5.65395 6.81716 8.52654 6.94742 11.0509 6.07904C12.2261 5.68827 13.3142 5.12382 14.3588 4.42912C15.0552 3.99493 15.7515 3.38706 16.5785 3.16997C18.5371 2.60552 20.2781 4.99357 21.1921 6.38297C21.2791 6.55665 21.4097 6.68691 21.4967 6.86058C21.8884 7.55529 22.933 6.904 22.5413 6.25272C22.1496 5.55801 21.6273 4.81989 21.0615 4.16861C26.5455 0.781926 33.3353 0.955601 38.8628 4.21203C38.4276 4.73305 38.0359 5.25408 37.7312 5.73169C37.6007 5.90537 37.5136 6.07904 37.383 6.25272C36.9913 6.94742 38.0359 7.55529 38.4276 6.86058C38.7758 6.29614 39.1675 5.77511 39.5592 5.25408C39.7769 5.03699 39.951 4.77647 40.2121 4.51596C40.2991 4.47254 40.3427 4.3857 40.4297 4.29886C40.952 3.77783 41.5613 3.30023 42.2577 3.12655C42.9976 2.90946 43.694 3.25681 44.3469 3.64758C45.2174 4.16861 46.0879 4.77647 47.0019 5.25408C48.3076 5.94878 49.7004 6.33956 51.1367 6.60007C52.4859 6.81716 53.8351 7.07768 55.1409 7.46845C56.0984 7.77238 57.0994 8.20657 57.7958 8.98811C58.4922 9.76966 58.6663 10.8117 58.6663 11.8538C58.7098 12.4182 58.6228 12.9392 58.3181 13.3734Z" fill="black"/>
<path d="M41.4744 18.4535C41.8226 18.6706 42.1708 18.714 42.3013 18.5403C42.4319 18.3666 42.2578 18.0627 41.9096 17.8456C41.5614 17.6285 41.2132 17.5851 41.0827 17.7588C40.9521 17.889 41.1262 18.2364 41.4744 18.4535Z" fill="black"/>
<path d="M40.6038 24.5755C40.6473 24.6624 40.7344 24.7058 40.865 24.7926C40.9955 24.9229 40.9955 25.0531 41.1261 25.0531C41.2567 25.0531 41.2567 24.9229 41.3437 24.8795C41.4308 24.8361 41.4743 24.7926 41.4308 24.619C41.4308 24.4887 41.2567 24.4019 41.0391 24.3584C40.7779 24.315 40.6038 24.3584 40.5603 24.4887C40.6038 24.5321 40.6038 24.5321 40.6038 24.5755Z" fill="black"/>
<path d="M41.1261 22.7954C41.2566 23.0993 41.5178 23.273 41.7789 23.2295C42.0836 23.1861 42.3012 22.8388 42.2577 22.448C42.2577 22.4046 42.2577 22.4046 42.2577 22.3612C42.2142 21.9704 41.953 21.7099 41.7354 21.5362C41.5178 21.3625 41.5178 21.0586 41.1696 21.0586C40.8649 21.0586 41.039 21.7099 41.039 22.2309C41.039 22.1875 41.039 22.6217 41.1261 22.7954Z" fill="black"/>
<path d="M37.8617 18.7574C38.384 18.7574 38.8627 18.5403 38.8627 18.2797C38.8627 18.0192 38.4275 17.8021 37.8617 17.8021H37.8182C37.0782 17.7587 36.8171 18.0626 36.7301 18.1495C36.643 18.2363 36.2078 18.1495 36.2078 18.41C36.2078 18.6705 36.6865 18.8008 37.8617 18.7574Z" fill="black"/>
<path d="M33.2484 18.6271C33.2484 18.714 33.2484 18.7574 33.2484 18.8008C33.2048 19.0179 33.2484 19.235 33.4225 19.4087C33.466 19.4521 33.553 19.4955 33.6401 19.5389C33.7707 19.5824 33.8142 19.4521 33.8142 19.3218C33.8142 19.1482 33.8577 19.0179 33.9012 18.8442C33.9448 18.714 34.0318 18.4969 34.0318 18.2798C34.0318 18.0193 33.9448 17.8022 33.8142 17.7588C33.6401 17.7153 33.553 18.0627 33.3354 18.3666C33.2484 18.4535 33.2484 18.5837 33.2484 18.6271Z" fill="black"/>
<path d="M39.5592 26.0084C39.4722 25.9649 39.2981 25.9215 39.124 25.9649H39.0804C39.0369 25.9649 38.9934 25.9649 38.9934 26.0084C38.8193 26.1386 38.7323 26.3557 38.8193 26.486C38.9064 26.6162 39.1675 26.6597 39.3416 26.5294C39.3416 26.5294 39.3416 26.5294 39.3851 26.486C39.5157 26.3991 39.6463 26.486 39.7768 26.3991C39.9074 26.3123 39.8639 26.0952 39.7768 26.0518C39.6463 26.0084 39.6463 26.0518 39.5592 26.0084Z" fill="black"/>
<path d="M38.036 16.543C38.3407 16.8904 38.8194 16.6299 39.0806 16.543C39.2982 16.4996 39.4288 16.0654 39.2111 16.0654C38.9935 16.0654 38.9065 16.022 38.5148 15.8917C38.0795 15.7181 37.6878 15.8049 37.6443 16.1088C37.6443 16.3259 37.9054 16.3693 38.036 16.543Z" fill="black"/>
<path d="M33.1611 21.4928C33.0305 21.3625 32.9435 21.2323 32.5518 21.3625C32.2906 21.4494 32.2036 21.927 32.3777 22.4046C32.5083 22.9256 32.8564 23.273 33.1176 23.1861C33.2482 23.1427 33.5093 22.8822 33.4658 22.5783C33.4223 22.2743 33.5093 22.1875 33.5093 21.927C33.5093 21.6665 33.2482 21.6231 33.1611 21.4928Z" fill="black"/>
<path d="M30.8543 21.0586C30.8108 22.1441 31.0284 23.1427 31.4637 24.0979C31.5943 24.4018 31.9424 24.5755 32.2906 24.5755C32.7259 24.5321 33.1611 24.8795 33.1611 25.3571C33.1611 25.4005 33.1611 25.4873 33.0741 25.7044C32.987 25.9215 33.0741 26.1386 33.2046 26.2689L33.5093 26.486L33.7705 26.3123C34.1186 26.0952 34.3798 26.0083 34.4668 26.0083C34.8586 26.0083 35.4679 26.2689 35.4679 26.9201C35.4679 27.007 35.4679 27.0938 35.4244 27.2241C35.3808 27.4412 35.5114 27.6583 35.729 27.7451L36.0772 27.8754L36.2949 27.6148C36.5995 27.2241 36.8607 27.007 36.9912 27.007C37.3394 27.007 37.6441 27.2241 37.7312 27.5714C37.8182 27.9188 38.1664 28.1793 38.5146 28.1793C38.5581 28.1793 38.5581 28.1793 38.6016 28.1793C41.953 27.7885 44.3468 24.8795 44.3468 21.3191C44.3468 19.4521 43.6069 17.7153 42.2577 16.4562C40.9084 15.1536 39.1239 14.5023 37.2959 14.5457C33.8575 14.5892 30.9414 17.4548 30.8543 21.0586ZM41.7354 17.0206C42.9105 18.1495 43.5199 19.6258 43.5199 21.2323C43.5199 24.315 41.4742 26.7899 38.6887 27.1807C38.4711 26.486 37.8182 26.0083 37.0783 26.0083C36.8171 26.0083 36.556 26.1386 36.3384 26.2689C36.0772 25.4873 35.2503 25.0531 34.5104 25.0531C34.3798 25.0531 34.2057 25.0965 34.0751 25.14C33.9881 24.2716 33.1611 23.5769 32.2906 23.6203C31.9424 22.7953 31.7683 21.927 31.7683 21.0586C31.8554 17.9758 34.3363 15.4575 37.4265 15.3707C39.0804 15.2839 40.6037 15.8917 41.7354 17.0206Z" fill="black"/>
</svg>
