<svg width="28" height="27" viewBox="0 0 28 27" fill="none" xmlns="http://www.w3.org/2000/svg">
<g clip-path="url(#clip0)">
<path d="M24.0101 0.99353H3.76013C1.89882 0.99353 0.385132 2.45116 0.385132 4.24353V23.7435C0.385132 25.5359 1.89882 26.9935 3.76013 26.9935H13.8851V18.056H10.5101V13.9935H13.8851V10.7435C13.8851 8.05091 16.1514 5.86853 18.9476 5.86853H22.3226V9.93103H20.6351C19.7036 9.93103 18.9476 9.84653 18.9476 10.7435V13.9935H23.1664L21.4789 18.056H18.9476V26.9935H24.0101C25.8714 26.9935 27.3851 25.5359 27.3851 23.7435V4.24353C27.3851 2.45116 25.8714 0.99353 24.0101 0.99353Z" fill="black"/>
</g>
<defs>
<clipPath id="clip0">
<rect x="0.385132" y="0.99353" width="27" height="26" rx="5" fill="white"/>
</clipPath>
</defs>
</svg>
