<svg width="27" height="27" viewBox="0 0 27 27" fill="none" xmlns="http://www.w3.org/2000/svg">
<g clip-path="url(#clip0)">
<path d="M19.8851 0.99353H6.88513C3.31045 0.99353 0.385132 3.91758 0.385132 7.49353V20.4935C0.385132 24.0682 3.31045 26.9935 6.88513 26.9935H19.8851C23.4598 26.9935 26.3851 24.0682 26.3851 20.4935V7.49353C26.3851 3.91758 23.4598 0.99353 19.8851 0.99353ZM13.3851 19.41C10.3932 19.41 7.96836 16.9842 7.96836 13.9935C7.96836 11.0016 10.3932 8.57676 13.3851 8.57676C16.3758 8.57676 18.8019 11.0016 18.8019 13.9935C18.8019 16.9842 16.3758 19.41 13.3851 19.41ZM20.4269 8.57676C19.5286 8.57676 18.8019 7.84906 18.8019 6.95176C18.8019 6.05445 19.5286 5.32676 20.4269 5.32676C21.3252 5.32676 22.0519 6.05445 22.0519 6.95176C22.0519 7.84906 21.3252 8.57676 20.4269 8.57676Z" fill="black"/>
</g>
<defs>
<clipPath id="clip0">
<rect width="26" height="26" fill="white" transform="translate(0.385132 0.99353)"/>
</clipPath>
</defs>
</svg>
