<svg width="42" height="42" viewBox="0 0 42 42" fill="none" xmlns="http://www.w3.org/2000/svg">
<path d="M38.8396 12.2519C36.7362 11.0104 33.9158 11.6312 31.6213 13.6845C31.8603 12.9204 32.0037 12.0609 32.0993 11.2014C32.5295 6.23536 30.0915 2.1288 26.5541 1.79455C23.4947 1.5558 20.7221 4.32533 19.8138 8.33639C18.1885 4.51634 14.9379 2.31981 11.974 3.13157C10.2531 3.60907 8.91463 5.04159 8.24538 7.14262C7.67174 9.00489 7.67174 11.2014 8.29318 13.398C8.5322 14.2097 8.81902 15.0215 9.20145 15.7855C6.57226 14.2097 3.65625 14.0665 1.83972 15.69C-0.69386 17.9343 -0.215826 22.5183 2.9392 26.0996C4.3733 27.7231 6.14203 28.8692 7.91076 29.3944C8.96243 29.6809 10.0141 29.7287 10.9224 29.5377C8.58 32.6415 7.71954 35.6975 8.58 38.1328C9.20145 39.9473 10.6834 41.1411 12.6433 41.5231C15.0813 41.9528 17.0412 40.7113 18.7621 39.5653C20.0528 38.7535 21.2479 37.9418 22.5386 37.8463H22.6342C23.9249 37.703 25.2634 38.2283 26.6497 38.8013C28.514 39.5653 30.6174 40.4248 32.8641 39.6608C32.9119 39.6608 32.9598 39.6131 33.0076 39.6131C34.8719 38.8968 36.067 37.4165 36.3538 35.5542C36.7362 32.9757 35.3021 30.1107 32.4339 27.5321C33.1032 27.5321 33.7724 27.4366 34.4895 27.1979C36.4016 26.5294 38.3137 24.9536 39.6522 22.6616C42.138 18.555 41.7556 14.0187 38.8396 12.2519Z" fill="#FFBB32"/>
<path d="M39.4133 11.1059C37.3099 9.86441 34.4895 10.4852 32.195 12.5384C32.434 11.7744 32.5774 10.9149 32.673 10.0554C33.1032 5.08935 30.6653 0.982795 27.1278 0.64854C24.0684 0.409787 21.2958 3.17932 20.3875 7.19038C18.7622 3.37033 15.5116 1.1738 12.5478 1.98556C10.8269 2.46306 9.48836 3.89558 8.81911 5.99661C8.24547 7.85889 8.24547 10.0554 8.86691 12.2519C9.10593 13.0637 9.39275 13.8755 9.77518 14.6395C7.14599 13.0637 4.22998 12.9205 2.41345 14.544C-0.120129 16.7883 0.357905 21.3246 3.51293 24.9059C4.94703 26.5294 6.71576 27.6754 8.48449 28.2007C9.53616 28.4872 10.5878 28.5349 11.4961 28.3439C9.15373 31.4477 8.29327 34.5037 9.15373 36.939C9.77518 38.7535 11.2571 39.9473 13.217 40.3293C15.655 40.7591 17.6149 39.5176 19.3359 38.3715C20.6266 37.5598 21.8216 36.748 23.1123 36.6525H23.2079C24.4986 36.5093 25.8371 37.0345 27.2234 37.6075C29.0878 38.3715 31.1911 39.2311 33.4379 38.467C33.4857 38.467 33.5335 38.4193 33.5813 38.4193C35.4456 37.703 36.6407 36.2228 36.9275 34.3605C37.3099 31.782 35.8758 28.9169 33.0076 26.3384C33.6769 26.3384 34.3461 26.2429 35.0632 26.0041C36.9753 25.3356 38.8875 23.7598 40.226 21.4678C42.6639 17.409 42.3293 12.825 39.4133 11.1059Z" fill="#3B3B3B"/>
<path d="M21.5826 20.0831C17.5193 20.5606 16.8979 24.4761 13.5516 28.2962C8.62788 33.9307 10.062 38.2283 13.456 38.8491C16.8501 39.4698 19.3359 35.4588 22.9689 35.1723C22.9689 35.1723 22.9689 35.1723 23.0167 35.1723C23.0167 35.1723 23.0167 35.1723 23.0645 35.1723C26.6498 34.7425 29.8526 38.2283 33.1032 37.0345C36.3539 35.793 36.9753 31.2567 31.0477 26.6726C26.9844 23.5688 25.6937 19.7966 21.5826 20.0831Z" fill="white"/>
<path d="M12.6501 26.1671C14.5126 24.5287 13.9574 20.858 11.4099 17.9684C8.86241 15.0787 5.2874 14.0644 3.42488 15.7027C1.56236 17.341 2.11763 21.0117 4.66511 23.9014C7.21259 26.791 10.7876 27.8054 12.6501 26.1671Z" fill="white"/>
<path d="M31.191 16.1197C29.231 19.4623 29.3745 23.1391 31.4778 24.4284C33.629 25.7176 36.9752 24.0464 38.9351 20.7038C40.8951 17.3613 40.7517 13.6845 38.6483 12.3952C36.4972 11.1537 33.1509 12.825 31.191 16.1197Z" fill="white"/>
<path d="M16.9009 17.7102C19.4457 17.0085 20.6316 13.2661 19.5497 9.35143C18.4678 5.43677 15.5278 2.83219 12.983 3.53395C10.4382 4.2357 9.2523 7.97806 10.3342 11.8927C11.4161 15.8074 14.3561 18.412 16.9009 17.7102Z" fill="white"/>
<path d="M31.1231 9.93822C31.4605 5.89115 29.6013 2.43292 26.9704 2.21405C24.3396 1.99518 21.9333 5.09854 21.5959 9.1456C21.2584 13.1927 23.1176 16.6509 25.7485 16.8698C28.3793 17.0886 30.7856 13.9853 31.1231 9.93822Z" fill="white"/>
</svg>
