<svg width="28" height="27" viewBox="0 0 28 27" fill="none" xmlns="http://www.w3.org/2000/svg">
<g clip-path="url(#clip0)">
<path d="M23.7033 0.99353H4.06695C3.09047 0.99353 2.15399 1.36707 1.46351 2.03197C0.773037 2.69687 0.385132 3.59867 0.385132 4.53898L0.385132 23.4481C0.385132 24.3884 0.773037 25.2902 1.46351 25.9551C2.15399 26.62 3.09047 26.9935 4.06695 26.9935H23.7033C24.6798 26.9935 25.6163 26.62 26.3068 25.9551C26.9972 25.2902 27.3851 24.3884 27.3851 23.4481V4.53898C27.3851 3.59867 26.9972 2.69687 26.3068 2.03197C25.6163 1.36707 24.6798 0.99353 23.7033 0.99353V0.99353ZM22.2904 9.07569C21.8899 9.65184 21.4023 10.1672 20.8438 10.6047C20.7715 10.6607 20.7132 10.7315 20.6732 10.812C20.6331 10.8926 20.6122 10.9807 20.6121 11.07V11.1232C20.6059 12.2842 20.3846 13.4348 19.9586 14.5209C19.5199 15.6594 18.8685 16.7108 18.0364 17.6232C17.1664 18.5798 16.0983 19.3506 14.9007 19.8864C14.5702 20.0307 14.2311 20.156 13.8851 20.2616C12.828 20.592 11.7228 20.7575 10.6114 20.7521C8.85124 20.7503 7.12282 20.3008 5.60104 19.4491C5.54655 19.4193 5.5037 19.3731 5.47904 19.3176C5.45439 19.2621 5.44928 19.2004 5.46451 19.1418C5.47994 19.0839 5.51506 19.0327 5.56428 18.9963C5.6135 18.9598 5.67397 18.9404 5.73604 18.9409H6.15638C7.49597 18.9437 8.80588 18.561 9.91797 17.8418C9.25493 17.738 8.63447 17.46 8.12483 17.0386C7.61519 16.6171 7.23611 16.0685 7.02928 15.4531C7.01912 15.4228 7.01731 15.3906 7.02403 15.3595C7.03074 15.3283 7.04574 15.2994 7.06756 15.2756C7.08938 15.2518 7.11727 15.2338 7.14848 15.2235C7.17969 15.2131 7.21316 15.2108 7.24559 15.2167C7.44788 15.2538 7.65331 15.2725 7.85922 15.2728H7.93593C7.2953 14.9894 6.75369 14.5333 6.37662 13.9596C5.99954 13.386 5.80315 12.7194 5.81121 12.0406C5.81147 12.0087 5.82036 11.9774 5.83702 11.9498C5.85368 11.9223 5.87752 11.8994 5.90619 11.8834C5.93486 11.8675 5.96736 11.859 6.00048 11.8588C6.0336 11.8586 6.06618 11.8668 6.09502 11.8825C6.35503 12.0218 6.63381 12.1257 6.92343 12.1913C6.34976 11.6451 5.98053 10.9311 5.87364 10.1611C5.76675 9.39114 5.92825 8.60878 6.3328 7.93671C6.34845 7.91204 6.36995 7.89129 6.39552 7.87616C6.4211 7.86102 6.45003 7.85193 6.47996 7.84962C6.50988 7.84732 6.53995 7.85186 6.5677 7.86289C6.59545 7.87392 6.62009 7.89112 6.63962 7.91308C7.4431 8.86936 8.43794 9.66041 9.56507 10.2393C10.6922 10.8181 11.9286 11.173 13.2009 11.2827H13.2147C13.2337 11.2825 13.2523 11.2784 13.2695 11.2708C13.2867 11.2631 13.302 11.2521 13.3145 11.2384C13.3265 11.2252 13.3357 11.2097 13.3412 11.1929C13.3467 11.1761 13.3486 11.1584 13.3467 11.1409C13.2989 10.7114 13.328 10.2772 13.4326 9.85717C13.5242 9.4899 13.6798 9.14025 13.8928 8.82308C14.3401 8.14652 15.0216 7.64416 15.8166 7.40489C16.1895 7.29231 16.5779 7.23454 16.9687 7.23353C17.8549 7.23269 18.7109 7.5437 19.3756 8.10808C19.4603 8.18056 19.5692 8.22144 19.6825 8.2233C19.7198 8.22271 19.7569 8.21775 19.7929 8.20853C20.4176 8.05608 21.0163 7.81829 21.5709 7.50239C21.6041 7.48321 21.6425 7.47421 21.6811 7.4766C21.7197 7.47898 21.7566 7.49264 21.787 7.51575C21.8173 7.53885 21.8396 7.57032 21.8509 7.60594C21.8622 7.64156 21.8619 7.67964 21.8501 7.71512C21.6646 8.27443 21.3353 8.77953 20.8929 9.18353C21.2918 9.09249 21.6811 8.96588 22.0557 8.80535C22.0935 8.78913 22.1357 8.78522 22.1761 8.79422C22.2164 8.80321 22.2525 8.82461 22.2791 8.85518C22.3056 8.88574 22.3211 8.92381 22.3231 8.9636C22.3252 9.00339 22.3137 9.04274 22.2904 9.07569Z" fill="black"/>
</g>
<defs>
<clipPath id="clip0">
<rect x="0.385132" y="0.99353" width="27" height="26" rx="5" fill="white"/>
</clipPath>
</defs>
</svg>
