<svg width="308" height="465" viewBox="0 0 308 465" fill="none" xmlns="http://www.w3.org/2000/svg">
<path d="M293.073 465H14.8429C6.71286 465 0.0928497 458.12 0.0928497 449.67L0.0728607 393.63L0.5 391.5C0.5 390.5 0.500006 388.75 0.5 387C0.499994 385.25 1.08289 377.5 1.08289 376.5L1.08287 360.69L0.102859 116.34C0.102859 107.88 6.72287 101 14.8529 101H293.083C301.213 101 307.833 107.88 307.833 116.33V449.66C307.823 458.12 301.203 465 293.073 465Z" fill="#FBB41E"/>
<path d="M263.94 112.9C263.86 112.69 267.66 123.86 267.66 123.86C267.66 123.86 269.69 127.08 267.66 133.32C265.63 139.56 257 156.24 257 156.24L254.06 147.97L247.47 143.83L249.92 129.81L263.94 112.9Z" fill="#E8B3A6"/>
<path d="M236.18 145.37L215.88 155.07C215.88 155.07 213.31 152.28 215.88 149.72C218.45 147.16 225.46 139.79 225.46 139.79C225.46 139.79 227.7 132.91 230.94 128.99C230.94 128.99 225.03 108.92 226.93 101.33H235.52L245.33 130.65L236.18 145.37Z" fill="#D8AAA4"/>
<path d="M255.85 129.6C258.68 135.34 257.24 143.73 254.23 148.68L247.08 147.52L255.85 129.6Z" fill="#CEA39B"/>
<path d="M214.14 161.12L229.34 203.43L228.39 203.77C227.91 203.94 227.66 204.48 227.83 204.96L232.4 217.68C232.57 218.16 233.11 218.41 233.59 218.24L234.54 217.9L237.22 225.37C238.52 228.99 242.55 230.89 246.18 229.59L272.29 220.21C275.91 218.91 277.81 214.88 276.51 211.25L274.02 204.32L274.65 204.09C275.13 203.92 275.38 203.38 275.21 202.9L272.11 194.28C271.94 193.8 271.4 193.55 270.92 193.72L270.29 193.95L269.84 192.7L270.47 192.47C270.95 192.3 271.2 191.76 271.03 191.28L267.93 182.66C267.76 182.18 267.22 181.93 266.74 182.1L266.11 182.33L253.43 147C252.13 143.38 248.1 141.48 244.47 142.78L218.36 152.16C214.73 153.46 212.83 157.49 214.14 161.12Z" fill="#898989"/>
<path d="M215.45 160.75L230.65 203.06L229.7 203.4C229.22 203.57 228.97 204.11 229.14 204.59L233.71 217.31C233.88 217.79 234.42 218.04 234.9 217.87L235.85 217.53L238.53 225C239.83 228.62 243.86 230.52 247.49 229.22L273.6 219.84C277.22 218.54 279.12 214.51 277.82 210.88L275.33 203.95L275.96 203.72C276.44 203.55 276.69 203.01 276.52 202.53L273.42 193.91C273.25 193.43 272.71 193.18 272.23 193.35L271.6 193.58L271.15 192.33L271.78 192.1C272.26 191.93 272.51 191.39 272.34 190.91L269.24 182.29C269.07 181.81 268.53 181.56 268.05 181.73L267.42 181.96L254.73 146.63C253.43 143.01 249.4 141.11 245.77 142.41L219.66 151.79C216.04 153.09 214.14 157.12 215.45 160.75Z" fill="#D8D8D8"/>
<path d="M239.957 223.306L275.559 210.515L254.195 151.047L218.593 163.838L239.957 223.306Z" fill="white"/>
<path d="M259.7 101.33H228.4C228.4 101.33 231.52 117.71 242.42 131.31L235.81 144.86C234.35 147.84 233.25 154.58 237.02 156.23C241.75 158.31 245.81 153.7 247.12 150.95L264.5 114.39L259.7 101.33Z" fill="#E8B3A6"/>
<path d="M244.24 149.38L237.43 146.46C237.43 146.46 235.43 151.54 238.94 153.05C242.46 154.57 244.24 149.38 244.24 149.38Z" fill="white"/>
<path d="M254.36 221.62L264 218.16C264.15 218.1 264.32 218.19 264.38 218.34L264.5 218.68C264.56 218.83 264.47 219 264.32 219.06L254.68 222.52C254.53 222.58 254.36 222.49 254.3 222.34L254.18 222C254.13 221.85 254.21 221.68 254.36 221.62Z" fill="#898989"/>
<path d="M267.63 218.07C268.022 218.07 268.34 217.752 268.34 217.36C268.34 216.968 268.022 216.65 267.63 216.65C267.238 216.65 266.92 216.968 266.92 217.36C266.92 217.752 267.238 218.07 267.63 218.07Z" fill="#898989"/>
<path d="M262.96 204.2L257.57 189.2L238.61 196.01L244 211.01L262.96 204.2ZM246.5 208.12L250.25 198.61L259.19 203.56L246.5 208.12ZM241 197.14L256.43 191.6L260.15 201.95L249.27 195.93L244.71 207.5L241 197.14Z" fill="#FFBB36"/>
<path d="M245.99 185.26C250.87 183.51 253.42 178.1 251.67 173.22C251.13 171.73 250.22 170.39 249.02 169.34L248.58 164.08L244.22 167.1C242.67 166.86 241.09 167.01 239.62 167.54C234.74 169.29 232.19 174.7 233.94 179.58C235.71 184.47 241.11 187.01 245.99 185.26ZM240.23 169.22C241.51 168.76 242.91 168.65 244.26 168.92L244.63 168.99L247.06 167.3L247.3 170.24L247.6 170.48C248.69 171.36 249.52 172.52 249.99 173.83C251.41 177.79 249.35 182.17 245.39 183.59C241.43 185.01 237.05 182.95 235.63 178.99C234.2 175.02 236.27 170.64 240.23 169.22Z" fill="#00D954"/>
<path fill-rule="evenodd" clip-rule="evenodd" d="M239.07 176.35C239.51 176.44 240.07 176.51 240.44 176.18C240.72 175.93 240.75 175.34 240.86 175C240.92 174.83 241.04 174.76 241.24 174.76C242.65 174.81 243.9 175.29 244.99 176.19C245.17 176.33 245.2 176.47 245.12 176.69C245 177.01 244.84 177.38 244.9 177.72C244.96 178.07 245.25 178.39 245.49 178.64C245.8 178.95 246.18 179.41 246.63 179.49C247.04 179.56 247.46 179.29 247.67 178.93C248.04 178.31 248.06 177.55 247.81 176.88C247.74 176.69 247.65 176.51 247.54 176.34C247.28 175.94 246.92 175.6 246.56 175.29C246.28 175.06 245.99 174.84 245.69 174.64C244.71 173.98 243.6 173.49 242.44 173.25C241.86 173.13 241.25 173.06 240.66 173.07C239.99 173.09 239.39 173.07 238.79 173.43C238.16 173.8 237.65 174.46 237.61 175.2C237.6 175.42 237.64 175.65 237.75 175.84C238 176.23 238.66 176.27 239.07 176.35Z" fill="#00D954"/>
<path d="M1.02005 405.03V436.88C1.02005 436.88 20.82 433.37 32.75 435.05C35.9 435.93 40.95 435.71 48.12 441.2C55.29 446.69 60.8601 451.38 66.4201 451.67C71.9801 451.96 72.2 454.31 77.69 454.67C83.18 455.03 85.23 454.82 89.11 455.77C92.99 456.72 94.6701 454.67 90.1301 449.4C90.1301 449.4 98.3301 442.74 90.7901 438.13C90.7901 438.13 95.18 434.44 89.91 428.85C89.91 428.85 94.9601 424.88 87.2001 418.07C87.2001 418.07 89.54 415.36 84.56 409.47C79.58 403.58 81.4101 402.92 74.3801 402.48C67.3501 402.04 30.2301 405.12 30.2301 405.12C30.2301 405.12 7.14005 406.43 1.02005 405.03Z" fill="#E8B3A6"/>
<path d="M32.4201 403.11H24.3C23.15 403.11 22.2 404.05 22.2 405.21V422.63V424.06V435.07C22.2 436.22 23.14 437.17 24.3 437.17H32.4201C33.5701 437.17 34.52 436.23 34.52 435.07V424.06V422.63V405.21C34.51 404.05 33.5701 403.11 32.4201 403.11Z" fill="#282828"/>
<path d="M28.33 430.93C34.2561 430.93 39.06 426.126 39.06 420.2C39.06 414.274 34.2561 409.47 28.33 409.47C22.404 409.47 17.6001 414.274 17.6001 420.2C17.6001 426.126 22.404 430.93 28.33 430.93Z" fill="#282828"/>
<path d="M28.33 429.29C33.3835 429.29 37.4801 425.193 37.4801 420.14C37.4801 415.087 33.3835 410.99 28.33 410.99C23.2766 410.99 19.18 415.087 19.18 420.14C19.18 425.193 23.2766 429.29 28.33 429.29Z" fill="#898989"/>
<path d="M28.33 428.67C33.041 428.67 36.86 424.851 36.86 420.14C36.86 415.429 33.041 411.61 28.33 411.61C23.6191 411.61 19.8 415.429 19.8 420.14C19.8 424.851 23.6191 428.67 28.33 428.67Z" fill="white"/>
<path d="M28.62 419.9C28.77 420.03 28.79 420.26 28.66 420.41L23.76 426.05C23.63 426.2 23.4 426.22 23.25 426.09C23.1 425.96 23.08 425.73 23.21 425.58L28.11 419.94C28.25 419.79 28.47 419.77 28.62 419.9Z" fill="#E22B60"/>
<path d="M28.33 420.87C28.7332 420.87 29.06 420.543 29.06 420.14C29.06 419.737 28.7332 419.41 28.33 419.41C27.9269 419.41 27.6001 419.737 27.6001 420.14C27.6001 420.543 27.9269 420.87 28.33 420.87Z" fill="#282828"/>
<path d="M28.41 412.68C28.3 412.68 28.2101 412.59 28.2101 412.48V411.27C28.2101 411.16 28.3 411.07 28.41 411.07C28.52 411.07 28.61 411.16 28.61 411.27V412.48C28.61 412.59 28.52 412.68 28.41 412.68Z" fill="#898989"/>
<path d="M28.41 429.21C28.3 429.21 28.2101 429.12 28.2101 429.01V427.8C28.2101 427.69 28.3 427.6 28.41 427.6C28.52 427.6 28.61 427.69 28.61 427.8V429.01C28.61 429.12 28.52 429.21 28.41 429.21Z" fill="#898989"/>
<path d="M37.4801 420.14C37.4801 420.25 37.39 420.34 37.28 420.34H36.0701C35.9601 420.34 35.87 420.25 35.87 420.14C35.87 420.03 35.9601 419.94 36.0701 419.94H37.28C37.39 419.94 37.4801 420.03 37.4801 420.14Z" fill="#898989"/>
<path d="M20.79 420.14C20.79 420.25 20.7 420.34 20.59 420.34H19.3801C19.2701 420.34 19.18 420.25 19.18 420.14C19.18 420.03 19.2701 419.94 19.3801 419.94H20.59C20.7 419.94 20.79 420.03 20.79 420.14Z" fill="#898989"/>
<path d="M28.31 420.16C28.11 420.19 27.93 420.06 27.9 419.86L27 414.22C26.97 414.02 27.1 413.84 27.3 413.81C27.5 413.78 27.68 413.91 27.71 414.11L28.61 419.75C28.64 419.94 28.5 420.12 28.31 420.16Z" fill="#282828"/>
<path d="M28.2401 420.03C28.3901 419.9 28.62 419.92 28.75 420.07L30.47 422.1C30.6 422.25 30.58 422.48 30.43 422.61C30.28 422.74 30.0501 422.72 29.9201 422.57L28.2 420.54C28.07 420.38 28.0901 420.15 28.2401 420.03Z" fill="#282828"/>
<path d="M87.22 418.07C87.22 418.07 82.17 415.8 76.61 409.56C76.4 409.33 77.44 409.33 78 410.01C78.82 411 79.25 412.53 87.22 418.07Z" fill="#D8AAA4"/>
<path d="M90.81 438.13C90.81 438.13 83.83 437.18 82 436C81.4 435.61 81.43 436.18 81.55 436.28C82.5 437.05 86.23 438.13 90.81 438.13Z" fill="#D8AAA4"/>
<path d="M89.93 428.85C89.93 428.85 81.0001 425 80.6001 421.98C80.5301 421.46 80.9401 421.46 81.0401 421.63C83.0001 425 89.93 428.85 89.93 428.85Z" fill="#D8AAA4"/>
<path d="M90.15 449.4C90.15 449.4 80.37 447.89 78.2 446.85C76.03 445.81 71.17 442.08 70.83 442.43C70.49 442.78 74 447 77 448C77.61 448.2 86.65 449.87 90.15 449.4Z" fill="#D8AAA4"/>
<path d="M14.84 188.23C14.61 188.31 27.01 184.1 27.01 184.1C27.01 184.1 30.59 181.84 37.52 184.1C44.45 186.36 62.9701 195.93 62.9701 195.93L53.78 199.2L49.1901 206.52L33.62 203.8L14.84 188.23Z" fill="#E8B3A6"/>
<path d="M50.91 219.06L61.68 241.6C61.68 241.6 58.58 244.45 55.74 241.6C52.89 238.75 44.72 230.96 44.72 230.96C44.72 230.96 37.0801 228.47 32.7301 224.88C32.7301 224.88 10.44 231.44 2.01004 229.34V219.8L34.5701 208.9L50.91 219.06Z" fill="#D8AAA4"/>
<path d="M33.4 197.22C39.77 194.08 49.09 195.67 54.59 199.02L53.31 206.96L33.4 197.22Z" fill="#CEA39B"/>
<path d="M68.4 243.54L139.75 217.91C143.78 216.46 145.89 211.99 144.44 207.96L134.02 178.96C132.57 174.93 128.1 172.82 124.07 174.27L52.72 199.9C48.69 201.35 46.58 205.82 48.03 209.85L58.45 238.85C59.9 242.88 64.38 244.99 68.4 243.54Z" fill="#777777"/>
<path d="M67.99 242.09L139.34 216.46C143.37 215.01 145.48 210.54 144.03 206.51L133.61 177.51C132.16 173.48 127.69 171.37 123.66 172.82L52.31 198.45C48.28 199.9 46.17 204.37 47.62 208.4L58.04 237.4C59.49 241.43 63.96 243.54 67.99 242.09Z" fill="white"/>
<path d="M2.00005 192.95V227.71C2.00005 227.71 20.19 224.24 35.3 212.14L50.3501 219.48C53.6601 221.1 61.1401 222.32 62.9801 218.14C65.2901 212.89 60.17 208.38 57.12 206.92L16.5201 187.62L2.00005 192.95Z" fill="#E8B3A6"/>
<path d="M55.36 210.11L52.12 217.67C52.12 217.67 57.76 219.89 59.44 215.99C61.12 212.09 55.36 210.11 55.36 210.11Z" fill="white"/>
<path d="M75.5401 222.79C75.5501 223.06 75.56 223.32 75.56 223.59C75.56 223.86 75.57 224.13 75.58 224.4C75.59 224.67 75.6101 224.94 75.6301 225.21C75.6501 225.48 75.7 225.75 75.75 226.01C75.87 226.22 76.01 226.43 76.16 226.64C76.31 226.85 76.47 227.05 76.62 227.26C76.78 227.46 76.93 227.67 77.09 227.87C77.25 228.07 77.39 228.27 77.53 228.47C77.49 228.48 77.4501 228.49 77.4201 228.5C77.3901 228.51 77.3501 228.53 77.3201 228.54C77.2301 228.57 77.1501 228.61 77.0701 228.64C76.9901 228.68 76.9 228.71 76.81 228.75C76.68 228.8 76.55 228.83 76.44 228.85L76.43 228.84C76.32 228.73 76.22 228.61 76.12 228.47C76.02 228.33 75.9201 228.19 75.8201 228.04C75.7201 227.89 75.62 227.75 75.52 227.61C75.42 227.47 75.3101 227.35 75.2001 227.24L75.19 227.23C75.18 227.41 75.18 227.59 75.19 227.77C75.2 227.95 75.22 228.12 75.24 228.3C75.26 228.48 75.27 228.65 75.28 228.82C75.29 228.99 75.29 229.16 75.28 229.31C75.22 229.34 75.1601 229.37 75.1001 229.39C75.0401 229.42 74.97 229.44 74.91 229.47C74.79 229.52 74.66 229.56 74.53 229.6C74.4 229.64 74.28 229.66 74.16 229.66C74.14 229.44 74.12 229.2 74.11 228.95C74.1 228.7 74.09 228.44 74.08 228.17C74.07 227.91 74.0601 227.64 74.0401 227.38C74.0301 227.11 74 226.86 73.96 226.61C73.69 226.17 73.3801 225.76 73.0401 225.36C72.7001 224.97 72.35 224.58 72 224.19C72.17 224.11 72.3201 224.05 72.4501 223.99C72.5801 223.93 72.7001 223.89 72.7901 223.85C72.9401 223.8 73.0401 223.76 73.1001 223.73C73.1601 223.71 73.2001 223.71 73.2301 223.73C73.3101 223.83 73.4001 223.95 73.5101 224.1C73.6201 224.24 73.73 224.39 73.84 224.54C73.95 224.69 74.0601 224.83 74.1701 224.98C74.2801 225.12 74.37 225.24 74.44 225.32C74.45 225.19 74.45 225.04 74.44 224.86C74.43 224.68 74.42 224.49 74.4 224.3C74.38 224.11 74.3701 223.92 74.3501 223.74C74.3301 223.56 74.32 223.4 74.31 223.27V223.26C74.45 223.2 74.6101 223.13 74.7901 223.05C74.9801 222.97 75.22 222.88 75.53 222.76H75.5401C75.5501 222.77 75.5501 222.77 75.5401 222.79C75.5401 222.78 75.5401 222.78 75.5401 222.79Z" fill="#DBDBDB"/>
<path d="M79.0701 221.46C79.0801 221.73 79.09 221.99 79.09 222.26C79.09 222.53 79.1 222.8 79.11 223.07C79.12 223.34 79.14 223.61 79.16 223.88C79.18 224.15 79.23 224.42 79.28 224.68C79.4 224.89 79.54 225.1 79.69 225.31C79.84 225.52 80 225.72 80.15 225.93C80.31 226.13 80.46 226.34 80.62 226.54C80.78 226.74 80.92 226.94 81.06 227.14C81.02 227.15 80.9801 227.16 80.9501 227.17C80.9201 227.18 80.8801 227.2 80.8501 227.21C80.7601 227.24 80.6801 227.28 80.6001 227.31C80.5201 227.35 80.43 227.38 80.34 227.42C80.21 227.47 80.08 227.5 79.97 227.52L79.96 227.51C79.85 227.4 79.75 227.28 79.65 227.14C79.55 227 79.4501 226.86 79.3501 226.71C79.2501 226.56 79.15 226.42 79.05 226.28C78.95 226.14 78.8401 226.02 78.7301 225.91L78.72 225.9C78.71 226.08 78.71 226.26 78.72 226.44C78.73 226.62 78.75 226.79 78.77 226.97C78.79 227.15 78.8 227.32 78.81 227.49C78.82 227.66 78.82 227.83 78.81 227.98C78.75 228.01 78.6901 228.04 78.6301 228.06C78.5701 228.08 78.5 228.11 78.44 228.14C78.32 228.19 78.19 228.23 78.06 228.27C77.93 228.31 77.81 228.33 77.69 228.33C77.67 228.11 77.6501 227.87 77.6401 227.62C77.6301 227.37 77.62 227.11 77.61 226.84C77.6 226.58 77.5901 226.31 77.5701 226.05C77.5601 225.78 77.53 225.53 77.49 225.28C77.22 224.84 76.9101 224.43 76.5701 224.03C76.2301 223.64 75.88 223.25 75.53 222.86C75.7 222.78 75.8501 222.72 75.9801 222.66C76.1101 222.6 76.2301 222.56 76.3201 222.52C76.4701 222.47 76.5701 222.43 76.6301 222.4C76.6901 222.38 76.7301 222.38 76.7601 222.4C76.8401 222.5 76.9301 222.62 77.0401 222.77C77.1501 222.91 77.26 223.06 77.37 223.21C77.48 223.36 77.5901 223.5 77.7001 223.65C77.8101 223.79 77.9 223.91 77.97 223.99C77.98 223.86 77.98 223.71 77.97 223.53C77.96 223.35 77.95 223.16 77.93 222.97C77.91 222.78 77.9001 222.59 77.8801 222.41C77.8601 222.23 77.85 222.07 77.84 221.94V221.93C77.98 221.87 78.1401 221.8 78.3201 221.72C78.5001 221.64 78.75 221.55 79.06 221.43H79.0701C79.0701 221.44 79.0701 221.45 79.0701 221.46C79.0701 221.45 79.0701 221.45 79.0701 221.46Z" fill="#DBDBDB"/>
<path d="M82.59 220.13C82.6 220.4 82.61 220.66 82.61 220.93C82.61 221.2 82.6201 221.47 82.6301 221.74C82.6401 222.01 82.66 222.28 82.68 222.55C82.7 222.82 82.75 223.09 82.8 223.35C82.92 223.56 83.06 223.77 83.21 223.98C83.36 224.19 83.5201 224.39 83.6701 224.6C83.8301 224.8 83.9801 225.01 84.1401 225.21C84.3001 225.41 84.44 225.61 84.58 225.81C84.54 225.82 84.5 225.83 84.47 225.84C84.44 225.85 84.4 225.87 84.37 225.88C84.28 225.91 84.2 225.95 84.12 225.98C84.04 226.02 83.95 226.05 83.86 226.09C83.73 226.14 83.6 226.17 83.49 226.19L83.4801 226.18C83.3701 226.07 83.2701 225.95 83.1701 225.81C83.0701 225.67 82.97 225.53 82.87 225.38C82.77 225.23 82.6701 225.09 82.5701 224.95C82.4701 224.81 82.36 224.69 82.25 224.58L82.24 224.57C82.23 224.75 82.23 224.93 82.24 225.11C82.25 225.29 82.2701 225.46 82.2901 225.64C82.3101 225.82 82.32 225.99 82.33 226.16C82.34 226.33 82.34 226.5 82.33 226.65C82.27 226.68 82.21 226.71 82.15 226.73C82.09 226.75 82.02 226.78 81.96 226.81C81.84 226.86 81.71 226.9 81.58 226.94C81.45 226.98 81.33 227 81.21 227C81.19 226.78 81.17 226.54 81.16 226.29C81.15 226.04 81.1401 225.78 81.1301 225.51C81.1201 225.25 81.11 224.98 81.09 224.72C81.08 224.45 81.0501 224.2 81.0101 223.95C80.7401 223.51 80.43 223.1 80.09 222.7C79.75 222.31 79.4 221.92 79.05 221.53C79.22 221.45 79.37 221.39 79.5 221.33C79.63 221.27 79.75 221.23 79.84 221.19C79.99 221.14 80.09 221.1 80.15 221.07C80.21 221.05 80.25 221.05 80.28 221.07C80.36 221.17 80.45 221.29 80.56 221.44C80.67 221.58 80.7801 221.73 80.8901 221.88C81.0001 222.03 81.11 222.17 81.22 222.32C81.33 222.46 81.42 222.58 81.49 222.66C81.5 222.53 81.5 222.38 81.49 222.2C81.48 222.02 81.4701 221.83 81.4501 221.64C81.4301 221.45 81.42 221.26 81.4 221.08C81.38 220.9 81.37 220.74 81.36 220.61V220.6C81.5 220.54 81.66 220.47 81.84 220.39C82.02 220.31 82.27 220.22 82.58 220.1H82.59C82.6 220.12 82.6 220.12 82.59 220.13C82.59 220.12 82.59 220.12 82.59 220.13Z" fill="#DBDBDB"/>
<path d="M86.12 218.8C86.13 219.07 86.1401 219.33 86.1401 219.6C86.1401 219.87 86.15 220.14 86.16 220.41C86.17 220.68 86.19 220.95 86.21 221.22C86.23 221.49 86.28 221.76 86.33 222.02C86.45 222.23 86.59 222.44 86.74 222.65C86.89 222.86 87.0501 223.06 87.2001 223.27C87.3601 223.47 87.5101 223.68 87.6701 223.88C87.8301 224.08 87.97 224.28 88.11 224.48C88.07 224.49 88.03 224.5 88 224.51C87.97 224.52 87.93 224.54 87.9 224.55C87.81 224.58 87.73 224.62 87.65 224.65C87.57 224.69 87.4801 224.72 87.3901 224.76C87.2601 224.81 87.13 224.84 87.02 224.86L87.0101 224.85C86.9001 224.74 86.8001 224.62 86.7001 224.48C86.6001 224.34 86.5 224.2 86.4 224.05C86.3 223.9 86.2001 223.76 86.1001 223.62C86.0001 223.48 85.89 223.36 85.78 223.25L85.77 223.24C85.76 223.42 85.76 223.6 85.77 223.78C85.78 223.96 85.8001 224.13 85.8201 224.31C85.8401 224.49 85.85 224.66 85.86 224.83C85.87 225 85.87 225.17 85.86 225.32C85.8 225.35 85.74 225.38 85.68 225.4C85.62 225.43 85.55 225.45 85.49 225.48C85.37 225.53 85.24 225.57 85.11 225.61C84.98 225.65 84.86 225.67 84.74 225.67C84.72 225.45 84.7 225.21 84.69 224.96C84.68 224.71 84.67 224.45 84.66 224.18C84.65 223.92 84.64 223.65 84.62 223.39C84.61 223.12 84.5801 222.87 84.5401 222.62C84.2701 222.18 83.96 221.77 83.62 221.37C83.28 220.98 82.93 220.59 82.58 220.2C82.75 220.12 82.9 220.06 83.03 220C83.16 219.94 83.28 219.9 83.37 219.86C83.52 219.81 83.62 219.77 83.68 219.74C83.74 219.72 83.78 219.72 83.81 219.74C83.89 219.84 83.98 219.96 84.09 220.11C84.2 220.25 84.3101 220.4 84.4201 220.55C84.5301 220.7 84.64 220.84 84.75 220.99C84.86 221.13 84.95 221.25 85.02 221.33C85.03 221.2 85.03 221.05 85.02 220.87C85.01 220.69 85.0001 220.5 84.9801 220.31C84.9601 220.12 84.95 219.93 84.93 219.75C84.91 219.57 84.9001 219.41 84.8901 219.28V219.27C85.0301 219.21 85.19 219.14 85.37 219.06C85.56 218.98 85.8 218.89 86.11 218.77H86.12C86.12 218.79 86.12 218.79 86.12 218.8C86.11 218.8 86.11 218.79 86.12 218.8Z" fill="#DBDBDB"/>
<path d="M91.2601 216.87C91.2701 217.14 91.28 217.4 91.28 217.67C91.28 217.94 91.29 218.21 91.3 218.48C91.31 218.75 91.3301 219.02 91.3501 219.29C91.3701 219.56 91.42 219.83 91.47 220.09C91.59 220.3 91.7301 220.51 91.8801 220.72C92.0301 220.93 92.19 221.13 92.34 221.34C92.5 221.54 92.65 221.75 92.81 221.95C92.97 222.15 93.11 222.35 93.25 222.55C93.21 222.56 93.1701 222.57 93.1401 222.58C93.1101 222.59 93.0701 222.61 93.0401 222.62C92.9501 222.65 92.8701 222.69 92.7901 222.72C92.7101 222.76 92.62 222.79 92.53 222.83C92.4 222.88 92.27 222.91 92.16 222.93L92.15 222.92C92.04 222.81 91.94 222.69 91.84 222.55C91.74 222.41 91.6401 222.27 91.5401 222.12C91.4401 221.97 91.34 221.83 91.24 221.69C91.14 221.55 91.0301 221.43 90.9201 221.32L90.91 221.31C90.9 221.49 90.9 221.67 90.91 221.85C90.92 222.03 90.94 222.2 90.96 222.38C90.98 222.56 90.99 222.73 91 222.9C91.01 223.07 91.01 223.24 91 223.39C90.94 223.42 90.8801 223.45 90.8201 223.47C90.7601 223.49 90.6901 223.52 90.6301 223.55C90.5101 223.6 90.38 223.64 90.25 223.68C90.12 223.72 90.0001 223.74 89.8801 223.74C89.8601 223.52 89.84 223.28 89.83 223.03C89.82 222.78 89.81 222.52 89.8 222.25C89.79 221.99 89.7801 221.72 89.7601 221.46C89.7501 221.19 89.72 220.94 89.68 220.69C89.41 220.25 89.1001 219.84 88.7601 219.44C88.4201 219.05 88.07 218.66 87.72 218.27C87.89 218.19 88.0401 218.13 88.1701 218.07C88.3001 218.01 88.4201 217.97 88.5101 217.93C88.6601 217.88 88.7601 217.84 88.8201 217.81C88.8801 217.79 88.9201 217.79 88.9501 217.81C89.0301 217.91 89.1201 218.03 89.2301 218.18C89.3401 218.32 89.45 218.47 89.56 218.62C89.67 218.77 89.7801 218.91 89.8901 219.06C90.0001 219.2 90.09 219.32 90.16 219.4C90.17 219.27 90.17 219.12 90.16 218.94C90.15 218.76 90.14 218.57 90.12 218.38C90.1 218.19 90.0901 218 90.0701 217.82C90.0501 217.64 90.04 217.48 90.03 217.35V217.34C90.17 217.28 90.3301 217.21 90.5101 217.13C90.7001 217.05 90.94 216.96 91.25 216.84H91.2601C91.2601 216.85 91.2601 216.86 91.2601 216.87C91.2501 216.86 91.2501 216.86 91.2601 216.87Z" fill="#DBDBDB"/>
<path d="M94.78 215.54C94.79 215.81 94.8 216.07 94.8 216.34C94.8 216.61 94.8101 216.88 94.8201 217.15C94.8301 217.42 94.85 217.69 94.87 217.96C94.89 218.23 94.94 218.5 94.99 218.76C95.11 218.97 95.25 219.18 95.4 219.39C95.55 219.6 95.71 219.8 95.86 220.01C96.02 220.21 96.17 220.42 96.33 220.62C96.49 220.82 96.63 221.02 96.77 221.22C96.73 221.23 96.69 221.24 96.66 221.25C96.63 221.26 96.59 221.28 96.56 221.29C96.47 221.32 96.39 221.36 96.31 221.39C96.23 221.43 96.14 221.46 96.05 221.5C95.92 221.55 95.79 221.58 95.68 221.6L95.6701 221.59C95.5601 221.48 95.46 221.36 95.36 221.22C95.26 221.08 95.16 220.94 95.06 220.79C94.96 220.64 94.8601 220.5 94.7601 220.36C94.6601 220.22 94.55 220.1 94.44 219.99L94.43 219.98C94.42 220.16 94.42 220.34 94.43 220.52C94.44 220.7 94.4601 220.87 94.4801 221.05C94.5001 221.23 94.51 221.4 94.52 221.57C94.53 221.74 94.53 221.91 94.52 222.06C94.46 222.09 94.4 222.12 94.34 222.14C94.28 222.17 94.21 222.19 94.15 222.22C94.03 222.27 93.9 222.31 93.77 222.35C93.64 222.39 93.52 222.41 93.4 222.41C93.38 222.19 93.3601 221.95 93.3501 221.7C93.3401 221.45 93.3301 221.19 93.3201 220.92C93.3101 220.66 93.3 220.39 93.28 220.13C93.27 219.86 93.2401 219.61 93.2001 219.36C92.9301 218.92 92.62 218.51 92.28 218.11C91.94 217.72 91.59 217.33 91.24 216.94C91.41 216.86 91.56 216.8 91.69 216.74C91.82 216.68 91.94 216.64 92.03 216.6C92.18 216.55 92.28 216.51 92.34 216.48C92.4 216.46 92.44 216.46 92.47 216.48C92.55 216.58 92.64 216.7 92.75 216.85C92.86 216.99 92.97 217.14 93.08 217.29C93.19 217.44 93.3 217.58 93.41 217.73C93.52 217.87 93.61 217.99 93.68 218.07C93.69 217.94 93.69 217.79 93.68 217.61C93.67 217.43 93.6601 217.24 93.6401 217.05C93.6201 216.86 93.61 216.67 93.59 216.49C93.57 216.31 93.56 216.15 93.55 216.02V216.01C93.69 215.95 93.85 215.88 94.03 215.8C94.21 215.72 94.46 215.63 94.77 215.51H94.78C94.78 215.52 94.78 215.53 94.78 215.54C94.78 215.53 94.78 215.53 94.78 215.54Z" fill="#DBDBDB"/>
<path d="M98.3 214.21C98.31 214.48 98.3201 214.74 98.3201 215.01C98.3201 215.28 98.33 215.55 98.34 215.82C98.35 216.09 98.3701 216.36 98.3901 216.63C98.4101 216.9 98.4601 217.17 98.5101 217.43C98.6301 217.64 98.7701 217.85 98.9201 218.06C99.0701 218.27 99.2301 218.47 99.3801 218.68C99.5401 218.88 99.6901 219.09 99.8501 219.29C100.01 219.49 100.15 219.69 100.29 219.89C100.25 219.9 100.21 219.91 100.18 219.92C100.15 219.93 100.11 219.95 100.08 219.96C99.99 219.99 99.91 220.03 99.83 220.06C99.75 220.1 99.6601 220.13 99.5701 220.17C99.4401 220.22 99.3101 220.25 99.2001 220.27L99.19 220.26C99.08 220.15 98.9801 220.03 98.8801 219.89C98.7801 219.75 98.68 219.61 98.58 219.46C98.48 219.31 98.38 219.17 98.28 219.03C98.18 218.89 98.07 218.77 97.96 218.66L97.9501 218.65C97.9401 218.83 97.9401 219.01 97.9501 219.19C97.9601 219.37 97.98 219.54 98 219.72C98.02 219.9 98.0301 220.07 98.0401 220.24C98.0501 220.41 98.0501 220.58 98.0401 220.73C97.9801 220.76 97.92 220.79 97.86 220.81C97.8 220.84 97.7301 220.86 97.6701 220.89C97.5501 220.94 97.4201 220.98 97.2901 221.02C97.1601 221.06 97.0401 221.08 96.9201 221.08C96.9001 220.86 96.88 220.62 96.87 220.37C96.86 220.12 96.85 219.86 96.84 219.59C96.83 219.33 96.82 219.06 96.8 218.8C96.79 218.53 96.76 218.28 96.72 218.03C96.45 217.59 96.14 217.18 95.8 216.78C95.46 216.39 95.1101 216 94.7601 215.61C94.9301 215.53 95.08 215.47 95.21 215.41C95.34 215.35 95.46 215.31 95.55 215.27C95.7 215.22 95.8 215.18 95.86 215.15C95.92 215.13 95.96 215.13 95.99 215.15C96.07 215.25 96.16 215.37 96.27 215.52C96.38 215.66 96.4901 215.81 96.6001 215.96C96.7101 216.11 96.82 216.25 96.93 216.4C97.04 216.54 97.1301 216.66 97.2001 216.74C97.2101 216.61 97.2101 216.46 97.2001 216.28C97.1901 216.1 97.18 215.91 97.16 215.72C97.14 215.53 97.13 215.34 97.11 215.16C97.09 214.98 97.0801 214.82 97.0701 214.69V214.68C97.2101 214.62 97.37 214.55 97.55 214.47C97.73 214.39 97.9801 214.3 98.2901 214.18H98.3C98.31 214.2 98.31 214.2 98.3 214.21C98.3 214.21 98.3 214.2 98.3 214.21Z" fill="#DBDBDB"/>
<path d="M101.83 212.88C101.84 213.15 101.85 213.41 101.85 213.68C101.85 213.95 101.86 214.22 101.87 214.49C101.88 214.76 101.9 215.03 101.92 215.3C101.94 215.57 101.99 215.84 102.04 216.1C102.16 216.31 102.3 216.52 102.45 216.73C102.6 216.94 102.76 217.14 102.91 217.35C103.07 217.55 103.22 217.76 103.38 217.96C103.54 218.16 103.68 218.36 103.82 218.56C103.78 218.57 103.74 218.58 103.71 218.59C103.68 218.6 103.64 218.62 103.61 218.63C103.52 218.66 103.44 218.7 103.36 218.73C103.28 218.77 103.19 218.8 103.1 218.84C102.97 218.89 102.84 218.92 102.73 218.94L102.72 218.93C102.61 218.82 102.51 218.7 102.41 218.56C102.31 218.42 102.21 218.28 102.11 218.13C102.01 217.98 101.91 217.84 101.81 217.7C101.71 217.56 101.6 217.44 101.49 217.33L101.48 217.32C101.47 217.5 101.47 217.68 101.48 217.86C101.49 218.04 101.51 218.21 101.53 218.39C101.55 218.57 101.56 218.74 101.57 218.91C101.58 219.08 101.58 219.25 101.57 219.4C101.51 219.43 101.45 219.46 101.39 219.48C101.33 219.5 101.26 219.53 101.2 219.56C101.08 219.61 100.95 219.65 100.82 219.69C100.69 219.73 100.57 219.75 100.45 219.75C100.43 219.53 100.41 219.29 100.4 219.04C100.39 218.79 100.38 218.53 100.37 218.26C100.36 218 100.35 217.73 100.33 217.47C100.32 217.2 100.29 216.95 100.25 216.7C99.98 216.26 99.67 215.85 99.33 215.45C98.99 215.06 98.6401 214.67 98.2901 214.28C98.4601 214.2 98.61 214.14 98.74 214.08C98.87 214.02 98.99 213.98 99.08 213.94C99.23 213.89 99.3301 213.85 99.3901 213.82C99.4501 213.8 99.49 213.8 99.52 213.82C99.6 213.92 99.69 214.04 99.8 214.19C99.91 214.33 100.02 214.48 100.13 214.63C100.24 214.78 100.35 214.92 100.46 215.07C100.57 215.21 100.66 215.33 100.73 215.41C100.74 215.28 100.74 215.13 100.73 214.95C100.72 214.77 100.71 214.58 100.69 214.39C100.67 214.2 100.66 214.01 100.64 213.83C100.62 213.65 100.61 213.49 100.6 213.36V213.35C100.74 213.29 100.9 213.22 101.08 213.14C101.26 213.06 101.51 212.97 101.82 212.85H101.83C101.83 212.87 101.83 212.87 101.83 212.88C101.82 212.88 101.82 212.87 101.83 212.88Z" fill="#DBDBDB"/>
<path d="M106.97 210.95C106.98 211.22 106.99 211.48 106.99 211.75C106.99 212.02 107 212.29 107.01 212.56C107.02 212.83 107.04 213.1 107.06 213.37C107.08 213.64 107.13 213.91 107.18 214.17C107.3 214.38 107.44 214.59 107.59 214.8C107.74 215.01 107.9 215.21 108.05 215.42C108.21 215.62 108.36 215.83 108.52 216.03C108.68 216.23 108.82 216.43 108.96 216.63C108.92 216.64 108.88 216.65 108.85 216.66C108.82 216.67 108.78 216.69 108.75 216.7C108.66 216.73 108.58 216.77 108.5 216.8C108.42 216.84 108.33 216.87 108.24 216.91C108.11 216.96 107.98 216.99 107.87 217.01L107.86 217C107.75 216.89 107.65 216.77 107.55 216.63C107.45 216.49 107.35 216.35 107.25 216.2C107.15 216.05 107.05 215.91 106.95 215.77C106.85 215.63 106.74 215.51 106.63 215.4L106.62 215.39C106.61 215.57 106.61 215.75 106.62 215.93C106.63 216.11 106.65 216.28 106.67 216.46C106.69 216.64 106.7 216.81 106.71 216.98C106.72 217.15 106.72 217.32 106.71 217.47C106.65 217.5 106.59 217.53 106.53 217.55C106.47 217.58 106.4 217.6 106.34 217.63C106.22 217.68 106.09 217.72 105.96 217.76C105.83 217.8 105.71 217.82 105.59 217.82C105.57 217.6 105.55 217.36 105.54 217.11C105.53 216.86 105.52 216.6 105.51 216.33C105.5 216.07 105.49 215.8 105.47 215.54C105.46 215.27 105.43 215.02 105.39 214.77C105.12 214.33 104.81 213.92 104.47 213.52C104.13 213.13 103.78 212.74 103.43 212.35C103.6 212.27 103.75 212.21 103.88 212.15C104.01 212.09 104.13 212.05 104.22 212.01C104.37 211.96 104.47 211.92 104.53 211.89C104.59 211.87 104.63 211.87 104.66 211.89C104.74 211.99 104.83 212.11 104.94 212.26C105.05 212.4 105.16 212.55 105.27 212.7C105.38 212.85 105.49 212.99 105.6 213.14C105.71 213.28 105.8 213.4 105.87 213.48C105.88 213.35 105.88 213.2 105.87 213.02C105.86 212.84 105.85 212.65 105.83 212.46C105.81 212.27 105.8 212.08 105.78 211.9C105.76 211.72 105.75 211.56 105.74 211.43V211.42C105.88 211.36 106.04 211.29 106.22 211.21C106.41 211.13 106.65 211.04 106.96 210.92H106.97C106.97 210.93 106.97 210.94 106.97 210.95C106.96 210.94 106.97 210.94 106.97 210.95Z" fill="#DBDBDB"/>
<path d="M110.49 209.62C110.5 209.89 110.51 210.15 110.51 210.42C110.51 210.69 110.52 210.96 110.53 211.23C110.54 211.5 110.56 211.77 110.58 212.04C110.6 212.31 110.65 212.58 110.7 212.84C110.82 213.05 110.96 213.26 111.11 213.47C111.26 213.68 111.42 213.88 111.57 214.09C111.73 214.29 111.88 214.5 112.04 214.7C112.2 214.9 112.34 215.1 112.48 215.3C112.44 215.31 112.4 215.32 112.37 215.33C112.34 215.34 112.3 215.36 112.27 215.37C112.18 215.4 112.1 215.44 112.02 215.47C111.94 215.51 111.85 215.54 111.76 215.58C111.63 215.63 111.5 215.66 111.39 215.68L111.38 215.67C111.27 215.56 111.17 215.44 111.07 215.3C110.97 215.16 110.87 215.02 110.77 214.87C110.67 214.72 110.57 214.58 110.47 214.44C110.37 214.3 110.26 214.18 110.15 214.07L110.14 214.06C110.13 214.24 110.13 214.42 110.14 214.6C110.15 214.78 110.17 214.95 110.19 215.13C110.21 215.31 110.22 215.48 110.23 215.65C110.24 215.82 110.24 215.99 110.23 216.14C110.17 216.17 110.11 216.2 110.05 216.22C109.99 216.24 109.92 216.27 109.86 216.3C109.74 216.35 109.61 216.39 109.48 216.43C109.35 216.47 109.23 216.49 109.11 216.49C109.09 216.27 109.07 216.03 109.06 215.78C109.05 215.53 109.04 215.27 109.03 215C109.02 214.74 109.01 214.47 108.99 214.21C108.98 213.94 108.95 213.69 108.91 213.44C108.64 213 108.33 212.59 107.99 212.19C107.65 211.8 107.3 211.41 106.95 211.02C107.12 210.94 107.27 210.88 107.4 210.82C107.53 210.76 107.65 210.72 107.74 210.68C107.89 210.63 107.99 210.59 108.05 210.56C108.11 210.54 108.15 210.54 108.18 210.56C108.26 210.66 108.35 210.78 108.46 210.93C108.57 211.07 108.68 211.22 108.79 211.37C108.9 211.52 109.01 211.66 109.12 211.81C109.23 211.95 109.32 212.07 109.39 212.15C109.4 212.02 109.4 211.87 109.39 211.69C109.38 211.51 109.37 211.32 109.35 211.13C109.33 210.94 109.32 210.75 109.3 210.57C109.28 210.39 109.27 210.23 109.26 210.1V210.09C109.4 210.03 109.56 209.96 109.74 209.88C109.92 209.8 110.17 209.71 110.48 209.59H110.49C110.5 209.6 110.49 209.61 110.49 209.62C110.49 209.61 110.49 209.61 110.49 209.62Z" fill="#DBDBDB"/>
<path d="M114.01 208.29C114.02 208.56 114.03 208.82 114.03 209.09C114.03 209.36 114.04 209.63 114.05 209.9C114.06 210.17 114.08 210.44 114.1 210.71C114.12 210.98 114.17 211.25 114.22 211.51C114.34 211.72 114.48 211.93 114.63 212.14C114.78 212.35 114.94 212.55 115.09 212.76C115.25 212.96 115.4 213.17 115.56 213.37C115.72 213.57 115.86 213.77 116 213.97C115.96 213.98 115.92 213.99 115.89 214C115.86 214.01 115.82 214.03 115.79 214.04C115.7 214.07 115.62 214.11 115.54 214.14C115.46 214.18 115.37 214.21 115.28 214.25C115.15 214.3 115.02 214.33 114.91 214.35L114.9 214.34C114.79 214.23 114.69 214.11 114.59 213.97C114.49 213.83 114.39 213.69 114.29 213.54C114.19 213.39 114.09 213.25 113.99 213.11C113.89 212.97 113.78 212.85 113.67 212.74L113.66 212.73C113.65 212.91 113.65 213.09 113.66 213.27C113.67 213.45 113.69 213.62 113.71 213.8C113.73 213.98 113.74 214.15 113.75 214.32C113.76 214.49 113.76 214.66 113.75 214.81C113.69 214.84 113.63 214.87 113.57 214.89C113.51 214.91 113.44 214.94 113.38 214.97C113.26 215.02 113.13 215.06 113 215.1C112.87 215.14 112.75 215.16 112.63 215.16C112.61 214.94 112.59 214.7 112.58 214.45C112.57 214.2 112.56 213.94 112.55 213.67C112.54 213.41 112.53 213.14 112.51 212.88C112.5 212.61 112.47 212.36 112.43 212.11C112.16 211.67 111.85 211.26 111.51 210.86C111.17 210.47 110.82 210.08 110.47 209.69C110.64 209.61 110.79 209.55 110.92 209.49C111.05 209.43 111.17 209.39 111.26 209.35C111.41 209.3 111.51 209.26 111.57 209.23C111.63 209.21 111.67 209.21 111.7 209.23C111.78 209.33 111.87 209.45 111.98 209.6C112.09 209.74 112.2 209.89 112.31 210.04C112.42 210.19 112.53 210.33 112.64 210.48C112.75 210.62 112.84 210.74 112.91 210.82C112.92 210.69 112.92 210.54 112.91 210.36C112.9 210.18 112.89 209.99 112.87 209.8C112.85 209.61 112.84 209.42 112.82 209.24C112.8 209.06 112.79 208.9 112.78 208.77V208.76C112.92 208.7 113.08 208.63 113.26 208.55C113.44 208.47 113.69 208.38 114 208.26H114.01C114.02 208.28 114.02 208.28 114.01 208.29C114.01 208.29 114.01 208.28 114.01 208.29Z" fill="#DBDBDB"/>
<path d="M117.54 206.96C117.55 207.23 117.56 207.49 117.56 207.76C117.56 208.03 117.57 208.3 117.58 208.57C117.59 208.84 117.61 209.11 117.63 209.38C117.65 209.65 117.7 209.92 117.75 210.18C117.87 210.39 118.01 210.6 118.16 210.81C118.31 211.02 118.47 211.22 118.62 211.43C118.78 211.63 118.93 211.84 119.09 212.04C119.25 212.24 119.39 212.44 119.53 212.64C119.49 212.65 119.45 212.66 119.42 212.67C119.39 212.68 119.35 212.7 119.32 212.71C119.23 212.74 119.15 212.78 119.07 212.81C118.99 212.85 118.9 212.88 118.81 212.92C118.68 212.97 118.55 213 118.44 213.02L118.43 213.01C118.32 212.9 118.22 212.78 118.12 212.64C118.02 212.5 117.92 212.36 117.82 212.21C117.72 212.06 117.62 211.92 117.52 211.78C117.42 211.64 117.31 211.52 117.2 211.41L117.19 211.4C117.18 211.58 117.18 211.76 117.19 211.94C117.2 212.12 117.22 212.29 117.24 212.47C117.26 212.65 117.27 212.82 117.28 212.99C117.29 213.16 117.29 213.33 117.28 213.48C117.22 213.51 117.16 213.54 117.1 213.56C117.04 213.59 116.97 213.61 116.91 213.64C116.79 213.69 116.66 213.73 116.53 213.77C116.4 213.81 116.28 213.83 116.16 213.83C116.14 213.61 116.12 213.37 116.11 213.12C116.1 212.87 116.09 212.61 116.08 212.34C116.07 212.08 116.06 211.81 116.04 211.55C116.03 211.28 116 211.03 115.96 210.78C115.69 210.34 115.38 209.93 115.04 209.53C114.7 209.14 114.35 208.75 114 208.36C114.17 208.28 114.32 208.22 114.45 208.16C114.58 208.1 114.7 208.06 114.79 208.02C114.94 207.97 115.04 207.93 115.1 207.9C115.16 207.88 115.2 207.88 115.23 207.9C115.31 208 115.4 208.12 115.51 208.27C115.62 208.41 115.73 208.56 115.84 208.71C115.95 208.86 116.06 209 116.17 209.15C116.28 209.29 116.37 209.41 116.44 209.49C116.45 209.36 116.45 209.21 116.44 209.03C116.43 208.85 116.42 208.66 116.4 208.47C116.38 208.28 116.37 208.09 116.35 207.91C116.33 207.73 116.32 207.57 116.31 207.44V207.43C116.45 207.37 116.61 207.3 116.79 207.22C116.97 207.14 117.22 207.05 117.53 206.93H117.54C117.54 206.95 117.54 206.95 117.54 206.96Z" fill="#DBDBDB"/>
<path d="M122.68 205.03C122.69 205.3 122.7 205.56 122.7 205.83C122.7 206.1 122.71 206.37 122.72 206.64C122.73 206.91 122.75 207.18 122.77 207.45C122.79 207.72 122.84 207.99 122.89 208.25C123.01 208.46 123.15 208.67 123.3 208.88C123.45 209.09 123.61 209.29 123.76 209.5C123.92 209.7 124.07 209.91 124.23 210.11C124.39 210.31 124.53 210.51 124.67 210.71C124.63 210.72 124.59 210.73 124.56 210.74C124.53 210.75 124.49 210.77 124.46 210.78C124.37 210.81 124.29 210.85 124.21 210.88C124.13 210.92 124.04 210.95 123.95 210.99C123.82 211.04 123.69 211.07 123.58 211.09L123.57 211.08C123.46 210.97 123.36 210.85 123.26 210.71C123.16 210.57 123.06 210.43 122.96 210.28C122.86 210.13 122.76 209.99 122.66 209.85C122.56 209.71 122.45 209.59 122.34 209.48L122.33 209.47C122.32 209.65 122.32 209.83 122.33 210.01C122.34 210.19 122.36 210.36 122.38 210.54C122.4 210.72 122.41 210.89 122.42 211.06C122.43 211.23 122.43 211.4 122.42 211.55C122.36 211.58 122.3 211.61 122.24 211.63C122.18 211.65 122.11 211.68 122.05 211.71C121.93 211.76 121.8 211.8 121.67 211.84C121.54 211.88 121.42 211.9 121.3 211.9C121.28 211.68 121.26 211.44 121.25 211.19C121.24 210.94 121.23 210.68 121.22 210.41C121.21 210.15 121.2 209.88 121.18 209.62C121.17 209.35 121.14 209.1 121.1 208.85C120.83 208.41 120.52 208 120.18 207.6C119.84 207.21 119.49 206.82 119.14 206.43C119.31 206.35 119.46 206.29 119.59 206.23C119.72 206.17 119.84 206.13 119.93 206.09C120.08 206.04 120.18 206 120.24 205.97C120.3 205.95 120.34 205.95 120.37 205.97C120.45 206.07 120.54 206.19 120.65 206.34C120.76 206.48 120.87 206.63 120.98 206.78C121.09 206.93 121.2 207.07 121.31 207.22C121.42 207.36 121.51 207.48 121.58 207.56C121.59 207.43 121.59 207.28 121.58 207.1C121.57 206.92 121.56 206.73 121.54 206.54C121.52 206.35 121.51 206.16 121.49 205.98C121.47 205.8 121.46 205.64 121.45 205.51V205.5C121.59 205.44 121.75 205.37 121.93 205.29C122.11 205.21 122.36 205.12 122.67 205H122.68C122.68 205.01 122.68 205.02 122.68 205.03C122.68 205.02 122.68 205.02 122.68 205.03Z" fill="#DBDBDB"/>
<path d="M126.2 203.7C126.21 203.97 126.22 204.23 126.22 204.5C126.22 204.77 126.23 205.04 126.24 205.31C126.25 205.58 126.27 205.85 126.29 206.12C126.31 206.39 126.36 206.66 126.41 206.92C126.53 207.13 126.67 207.34 126.82 207.55C126.97 207.76 127.13 207.96 127.28 208.17C127.44 208.37 127.59 208.58 127.75 208.78C127.91 208.98 128.05 209.18 128.19 209.38C128.15 209.39 128.11 209.4 128.08 209.41C128.05 209.42 128.01 209.44 127.98 209.45C127.89 209.48 127.81 209.52 127.73 209.55C127.65 209.59 127.56 209.62 127.47 209.66C127.34 209.71 127.21 209.74 127.1 209.76L127.09 209.75C126.98 209.64 126.88 209.52 126.78 209.38C126.68 209.24 126.58 209.1 126.48 208.95C126.38 208.8 126.28 208.66 126.18 208.52C126.08 208.38 125.97 208.26 125.86 208.15L125.85 208.14C125.84 208.32 125.84 208.5 125.85 208.68C125.86 208.86 125.88 209.03 125.9 209.21C125.92 209.39 125.93 209.56 125.94 209.73C125.95 209.9 125.95 210.07 125.94 210.22C125.88 210.25 125.82 210.28 125.76 210.3C125.7 210.33 125.63 210.35 125.57 210.38C125.45 210.43 125.32 210.47 125.19 210.51C125.06 210.55 124.94 210.57 124.82 210.57C124.8 210.35 124.78 210.11 124.77 209.86C124.76 209.61 124.75 209.35 124.74 209.08C124.73 208.82 124.72 208.55 124.7 208.29C124.69 208.02 124.66 207.77 124.62 207.52C124.35 207.08 124.04 206.67 123.7 206.27C123.36 205.88 123.01 205.49 122.66 205.1C122.83 205.02 122.98 204.96 123.11 204.9C123.24 204.84 123.36 204.8 123.45 204.76C123.6 204.71 123.7 204.67 123.76 204.64C123.82 204.62 123.86 204.62 123.89 204.64C123.97 204.74 124.06 204.86 124.17 205.01C124.28 205.15 124.39 205.3 124.5 205.45C124.61 205.6 124.72 205.74 124.83 205.89C124.94 206.03 125.03 206.15 125.1 206.23C125.11 206.1 125.11 205.95 125.1 205.77C125.09 205.59 125.08 205.4 125.06 205.21C125.04 205.02 125.03 204.83 125.01 204.65C124.99 204.47 124.98 204.31 124.97 204.18V204.17C125.11 204.11 125.27 204.04 125.45 203.96C125.64 203.88 125.88 203.79 126.19 203.67H126.2C126.21 203.69 126.21 203.69 126.2 203.7C126.2 203.69 126.2 203.69 126.2 203.7Z" fill="#DBDBDB"/>
<path d="M129.73 202.37C129.74 202.64 129.75 202.9 129.75 203.17C129.75 203.44 129.76 203.71 129.77 203.98C129.78 204.25 129.8 204.52 129.82 204.79C129.84 205.06 129.89 205.33 129.94 205.59C130.06 205.8 130.2 206.01 130.35 206.22C130.5 206.43 130.66 206.63 130.81 206.84C130.97 207.04 131.12 207.25 131.28 207.45C131.44 207.65 131.58 207.85 131.72 208.05C131.68 208.06 131.64 208.07 131.61 208.08C131.58 208.09 131.54 208.11 131.51 208.12C131.42 208.15 131.34 208.19 131.26 208.22C131.18 208.26 131.09 208.29 131 208.33C130.87 208.38 130.74 208.41 130.63 208.43L130.62 208.42C130.51 208.31 130.41 208.19 130.31 208.05C130.21 207.91 130.11 207.77 130.01 207.62C129.91 207.47 129.81 207.33 129.71 207.19C129.61 207.05 129.5 206.93 129.39 206.82L129.38 206.81C129.37 206.99 129.37 207.17 129.38 207.35C129.39 207.53 129.41 207.7 129.43 207.88C129.45 208.06 129.46 208.23 129.47 208.4C129.48 208.57 129.48 208.74 129.47 208.89C129.41 208.92 129.35 208.95 129.29 208.97C129.23 208.99 129.16 209.02 129.1 209.05C128.98 209.1 128.85 209.14 128.72 209.18C128.59 209.22 128.47 209.24 128.35 209.24C128.33 209.02 128.31 208.78 128.3 208.53C128.29 208.28 128.28 208.02 128.27 207.75C128.26 207.49 128.25 207.22 128.23 206.96C128.22 206.69 128.19 206.44 128.15 206.19C127.88 205.75 127.57 205.34 127.23 204.94C126.89 204.55 126.54 204.16 126.19 203.77C126.36 203.69 126.51 203.63 126.64 203.57C126.77 203.51 126.89 203.47 126.98 203.43C127.13 203.38 127.23 203.34 127.29 203.31C127.35 203.29 127.39 203.29 127.42 203.31C127.5 203.41 127.59 203.53 127.7 203.68C127.81 203.82 127.92 203.97 128.03 204.12C128.14 204.27 128.25 204.41 128.36 204.56C128.47 204.7 128.56 204.82 128.63 204.9C128.64 204.77 128.64 204.62 128.63 204.44C128.62 204.26 128.61 204.07 128.59 203.88C128.57 203.69 128.56 203.5 128.54 203.32C128.52 203.14 128.51 202.98 128.5 202.85V202.84C128.64 202.78 128.8 202.71 128.98 202.63C129.16 202.55 129.41 202.46 129.72 202.34H129.73C129.73 202.36 129.73 202.36 129.73 202.37C129.72 202.37 129.72 202.36 129.73 202.37Z" fill="#DBDBDB"/>
<path d="M63.9901 205.55C63.6801 204.76 64.0601 203.87 64.8401 203.57L85.5901 195.42C86.3701 195.11 87.2601 195.5 87.5601 196.29L91.1001 205.32C91.4101 206.11 91.0301 207 90.2501 207.3L69.5001 215.45C68.7201 215.76 67.8401 215.37 67.5301 214.58L63.9901 205.55Z" fill="white"/>
<path d="M63.95 205.4C63.67 204.68 64.02 203.86 64.74 203.58L85.7 195.35C86.42 195.07 87.23 195.43 87.52 196.15L87.5401 196.19L63.9801 205.44L63.95 205.4Z" fill="#FBB110"/>
<path d="M91.16 205.44L91.1701 205.47C91.4501 206.19 91.1001 207.01 90.3901 207.29L69.43 215.52C68.71 215.8 67.9 215.44 67.61 214.72L67.6001 214.69L91.16 205.44Z" fill="#FBB110"/>
<path d="M82.0801 203.64C82.8001 205.47 84.86 206.38 86.68 205.67C88.5 204.96 89.3901 202.89 88.6701 201.06C87.9501 199.22 85.8901 198.32 84.0701 199.03C82.2501 199.74 81.3601 201.81 82.0801 203.64ZM66.3901 209.81C67.1101 211.64 69.17 212.55 70.99 211.84C72.81 211.13 73.7001 209.06 72.9801 207.23C72.2601 205.39 70.2001 204.49 68.3801 205.2C66.5601 205.9 65.6701 207.97 66.3901 209.81ZM90.91 204.81L74.68 211.18C74.89 210.86 75.0501 210.47 75.2001 209.97L76.0201 207.19L77.1001 207.83L77.4801 206.44L76.4201 205.81L77.25 202.98C77.51 202.08 76.1801 201.68 75.9101 202.57L75.18 205.07L72.9101 203.72C72.1101 203.24 71.4001 204.45 72.2101 204.93L74.7801 206.45L73.87 209.56C73.55 210.66 73.1901 211.7 71.9201 212.27L67.36 214.06L64.2201 206.07L80.36 199.73C80.16 200.04 80.01 200.42 79.87 200.9L79.05 203.68L77.9701 203.04L77.5901 204.43L78.6501 205.06L77.8201 207.89C77.5601 208.79 78.9001 209.19 79.1601 208.3L79.9001 205.8L82.1701 207.15C82.9701 207.63 83.68 206.42 82.87 205.94L80.3 204.42L81.2101 201.31C81.5101 200.29 81.83 199.34 82.87 198.75L87.7801 196.82L90.91 204.81ZM83.4001 203.12C82.9701 202.02 83.5001 200.78 84.5901 200.36C85.6801 199.94 86.9101 200.48 87.3401 201.58C87.7701 202.68 87.2401 203.91 86.1501 204.34C85.0701 204.77 83.8401 204.22 83.4001 203.12ZM67.7101 209.29C67.2801 208.19 67.8101 206.95 68.9001 206.53C69.9901 206.1 71.2201 206.65 71.6501 207.75C72.0801 208.85 71.5501 210.08 70.4601 210.51C69.3801 210.93 68.1401 210.38 67.7101 209.29Z" fill="#E70020"/>
<path d="M92.33 192.42C96.63 190.84 100.94 189.26 105.24 187.68C106.77 191.86 108.3 196.04 109.84 200.21C109.82 200.22 109.8 200.23 109.78 200.24C105.52 201.8 101.26 203.37 97 204.93C96.98 204.94 96.95 204.94 96.93 204.95C96.92 204.93 96.92 204.91 96.91 204.89C95.39 200.76 93.88 196.62 92.36 192.49C92.35 192.47 92.34 192.45 92.33 192.42ZM98.97 190.8C97.41 191.37 95.85 191.94 94.3 192.51C94.27 192.52 94.25 192.53 94.22 192.54C93.92 192.66 93.81 193 93.93 193.27C93.97 193.36 94.01 193.44 94.05 193.53C94.16 193.75 94.26 193.97 94.37 194.19C94.47 194.41 94.58 194.62 94.68 194.84C94.79 195.06 94.89 195.28 95 195.5C95.1 195.72 95.21 195.93 95.31 196.15C95.42 196.38 95.5301 196.6 95.6401 196.83C95.7401 197.04 95.8501 197.26 95.9501 197.47C96.0601 197.7 96.17 197.92 96.28 198.15C96.36 198.32 96.45 198.5 96.53 198.67C96.64 198.89 96.7401 199.11 96.8501 199.33C96.9501 199.55 97.06 199.76 97.16 199.98C97.27 200.21 97.38 200.43 97.49 200.66C97.57 200.83 97.66 201.01 97.74 201.18C97.85 201.4 97.95 201.62 98.06 201.84C98.15 202.02 98.2401 202.2 98.3201 202.39C98.3901 202.54 98.4701 202.7 98.5401 202.86C98.5901 202.96 98.6401 203.05 98.7301 203.12C98.8701 203.23 99.02 203.27 99.19 203.2C99.6 203.05 100.01 202.9 100.43 202.75C100.76 202.63 101.09 202.51 101.42 202.39C101.5 202.36 101.49 202.36 101.52 202.43C101.56 202.55 101.61 202.67 101.65 202.79C101.68 202.87 101.67 202.86 101.75 202.83C102.73 202.47 103.72 202.11 104.7 201.75C104.71 201.75 104.72 201.74 104.74 201.74C104.77 201.73 104.78 201.71 104.76 201.69C104.75 201.68 104.75 201.67 104.75 201.65C104.7 201.52 104.66 201.4 104.61 201.27C104.59 201.22 104.59 201.22 104.64 201.21C104.71 201.18 104.79 201.16 104.86 201.13C105.52 200.89 106.17 200.65 106.83 200.41C106.95 200.37 107.03 200.29 107.08 200.18C107.13 200.07 107.14 199.96 107.11 199.84C107.09 199.73 107.06 199.63 107.03 199.52C106.97 199.28 106.9 199.04 106.84 198.79C106.79 198.6 106.74 198.41 106.69 198.22C106.63 197.98 106.56 197.74 106.5 197.49C106.44 197.26 106.38 197.02 106.32 196.79C106.26 196.55 106.19 196.31 106.13 196.06C106.08 195.87 106.03 195.68 105.98 195.49C105.92 195.25 105.85 195.01 105.79 194.76C105.73 194.53 105.67 194.29 105.61 194.06C105.55 193.82 105.48 193.58 105.42 193.33C105.36 193.1 105.3 192.86 105.24 192.63C105.18 192.39 105.12 192.15 105.05 191.91C104.99 191.67 104.93 191.44 104.87 191.2C104.81 190.95 104.74 190.71 104.68 190.46C104.63 190.27 104.58 190.07 104.53 189.88C104.49 189.73 104.46 189.58 104.41 189.44C104.34 189.2 104.12 189.03 103.88 189.03C103.8 189.03 103.73 189.05 103.66 189.07C102.11 189.65 100.54 190.22 98.97 190.8Z" fill="#008061"/>
<path d="M96.93 204.96C96.95 204.95 96.98 204.95 97 204.94C101.26 203.38 105.52 201.81 109.78 200.25C109.8 200.24 109.82 200.23 109.84 200.22H109.85C109.85 200.23 109.87 200.24 109.85 200.25C109.84 200.25 109.82 200.26 109.81 200.27C105.53 201.84 101.26 203.41 96.9801 204.97C96.9701 204.98 96.95 204.98 96.94 204.99C96.92 205 96.9301 204.98 96.9201 204.97C96.9201 204.96 96.93 204.96 96.93 204.96Z" fill="#FEFEFE"/>
<path d="M96.93 204.96C96.93 204.96 96.9201 204.96 96.9201 204.97C95.3901 200.81 93.8701 196.65 92.3401 192.49C92.3301 192.47 92.31 192.45 92.33 192.43C92.34 192.45 92.35 192.48 92.36 192.5C93.88 196.63 95.3901 200.77 96.9101 204.9C96.9201 204.92 96.92 204.94 96.93 204.96Z" fill="#AAD5CA"/>
<path d="M109.85 200.22H109.84C108.31 196.04 106.78 191.86 105.24 187.69C105.24 187.69 105.25 187.68 105.25 187.69C105.26 187.71 105.26 187.72 105.27 187.74C106.8 191.9 108.33 196.06 109.85 200.22Z" fill="#038162"/>
<path d="M98.97 190.8C100.54 190.22 102.11 189.65 103.67 189.07C103.74 189.04 103.81 189.03 103.89 189.03C104.13 189.03 104.35 189.2 104.42 189.44C104.46 189.59 104.5 189.73 104.54 189.88C104.59 190.07 104.64 190.27 104.69 190.46C104.75 190.71 104.82 190.95 104.88 191.2C104.94 191.44 105 191.67 105.06 191.91C105.12 192.15 105.18 192.39 105.25 192.63C105.31 192.86 105.37 193.1 105.43 193.33C105.49 193.57 105.56 193.81 105.62 194.06C105.68 194.29 105.74 194.53 105.8 194.76C105.86 195 105.93 195.24 105.99 195.49C106.04 195.68 106.09 195.87 106.14 196.06C106.2 196.3 106.27 196.54 106.33 196.79C106.39 197.02 106.45 197.26 106.51 197.49C106.57 197.73 106.64 197.97 106.7 198.22C106.75 198.41 106.8 198.6 106.85 198.79C106.91 199.03 106.98 199.27 107.04 199.52C107.07 199.63 107.1 199.73 107.12 199.84C107.14 199.96 107.13 200.07 107.09 200.18C107.04 200.29 106.96 200.37 106.84 200.41C106.18 200.65 105.53 200.89 104.87 201.13C104.8 201.16 104.72 201.18 104.65 201.21C104.6 201.23 104.6 201.23 104.62 201.27C104.67 201.4 104.71 201.52 104.76 201.65C104.76 201.66 104.77 201.67 104.77 201.69C104.78 201.72 104.78 201.74 104.75 201.74C104.74 201.74 104.73 201.75 104.71 201.75C103.73 202.11 102.74 202.47 101.76 202.83C101.68 202.86 101.69 202.87 101.66 202.79C101.62 202.67 101.57 202.55 101.53 202.43C101.5 202.35 101.51 202.36 101.43 202.39C101.1 202.51 100.77 202.63 100.44 202.75C100.03 202.9 99.6101 203.05 99.2001 203.2C99.0301 203.27 98.88 203.23 98.74 203.12C98.66 203.05 98.6 202.96 98.55 202.86C98.48 202.7 98.4 202.55 98.33 202.39C98.24 202.21 98.15 202.03 98.07 201.84C97.96 201.62 97.86 201.4 97.75 201.18C97.67 201.01 97.58 200.83 97.5 200.66C97.39 200.43 97.2801 200.21 97.1701 199.98C97.0701 199.76 96.96 199.55 96.86 199.33C96.75 199.11 96.65 198.89 96.54 198.67C96.46 198.5 96.37 198.32 96.29 198.15C96.18 197.92 96.07 197.7 95.96 197.47C95.86 197.26 95.75 197.04 95.65 196.83C95.54 196.6 95.43 196.38 95.32 196.15C95.22 195.93 95.1101 195.72 95.0101 195.5C94.9001 195.28 94.8 195.06 94.69 194.84C94.59 194.62 94.48 194.41 94.38 194.19C94.27 193.97 94.17 193.75 94.06 193.53C94.02 193.44 93.97 193.36 93.94 193.27C93.83 193 93.9401 192.66 94.2301 192.54C94.2601 192.53 94.28 192.52 94.31 192.51C95.86 191.94 97.41 191.37 98.97 190.8ZM104.31 196.11C104.31 196.11 104.3 196.11 104.3 196.12C104.28 196.09 104.28 196.06 104.25 196.03C104.24 196.03 104.24 196.03 104.23 196.03C104.07 196.09 103.9 196.15 103.74 196.21C103.73 196.21 103.72 196.22 103.72 196.24C103.77 196.37 103.81 196.5 103.86 196.63C104.03 197.09 104.2 197.55 104.36 198.01C104.38 198.04 104.41 198.02 104.43 198.01C104.57 197.96 104.71 197.91 104.85 197.86C104.87 197.85 104.89 197.85 104.9 197.83C104.9 197.8 104.89 197.78 104.88 197.76C104.74 197.38 104.6 197 104.46 196.62C104.45 196.59 104.44 196.56 104.44 196.53C104.45 196.52 104.45 196.51 104.44 196.5C104.46 196.41 104.52 196.37 104.61 196.36C104.69 196.36 104.72 196.38 104.76 196.48C104.76 196.49 104.76 196.49 104.77 196.5C104.91 196.89 105.05 197.27 105.19 197.66C105.21 197.71 105.21 197.71 105.26 197.69C105.4 197.64 105.55 197.58 105.69 197.53C105.75 197.51 105.75 197.51 105.73 197.45C105.55 196.97 105.38 196.48 105.2 196C105.15 195.87 105.05 195.79 104.91 195.78C104.77 195.77 104.64 195.81 104.52 195.9C104.51 195.9 104.5 195.91 104.49 195.92L104.48 195.93C104.47 195.93 104.46 195.94 104.46 195.95C104.44 195.95 104.43 195.97 104.43 195.98C104.42 195.98 104.41 195.99 104.41 196C104.37 196.03 104.34 196.06 104.32 196.1C104.32 196.09 104.32 196.1 104.31 196.11C104.32 196.11 104.32 196.11 104.31 196.11ZM100.41 197.13C100.44 197.13 100.47 197.12 100.49 197.11C101.12 196.88 101.76 196.65 102.39 196.42C102.57 196.35 102.75 196.29 102.94 196.22C102.97 196.21 102.99 196.2 102.98 196.17C102.94 196.03 102.94 195.88 102.95 195.73C102.97 195.41 103.05 195.1 103.17 194.81C103.32 194.41 103.53 194.04 103.81 193.71C103.89 193.61 103.98 193.52 104.08 193.45C104.11 193.43 104.12 193.41 104.1 193.37C104.1 193.36 104.1 193.36 104.09 193.35C103.78 192.51 103.48 191.68 103.17 190.84C103.16 190.82 103.16 190.8 103.14 190.78C103.12 190.78 103.11 190.8 103.1 190.81C102.48 191.42 101.93 192.08 101.46 192.81C101.08 193.41 100.78 194.04 100.58 194.72C100.39 195.37 100.3 196.02 100.35 196.7C100.36 196.84 100.38 196.99 100.41 197.13ZM102.29 191.23C102.25 191.23 102.23 191.25 102.2 191.26C100.16 192.01 98.11 192.76 96.07 193.51C96.06 193.52 96.04 193.52 96.03 193.53C95.98 193.55 95.98 193.55 96 193.6C96 193.61 96.0001 193.61 96.0101 193.62C96.2901 194.37 96.56 195.11 96.84 195.86C96.87 195.95 96.8601 195.94 96.9501 195.91C98.0101 195.52 99.07 195.13 100.13 194.74C100.14 194.74 100.15 194.73 100.16 194.73C100.2 194.72 100.21 194.7 100.21 194.67C100.23 194.56 100.26 194.45 100.3 194.34C100.38 194.1 100.49 193.88 100.6 193.65C100.88 193.11 101.21 192.6 101.57 192.11C101.79 191.81 102.02 191.53 102.28 191.27C102.28 191.25 102.28 191.25 102.29 191.23ZM100.84 199.53C100.87 199.64 100.9 199.75 100.92 199.86C101.03 200.25 101.14 200.64 101.27 201.03C101.43 201.54 101.6 202.04 101.79 202.54C101.82 202.62 101.81 202.61 101.88 202.58C102.75 202.26 103.62 201.94 104.49 201.62C104.57 201.59 104.56 201.6 104.53 201.52C104.3 200.88 104.07 200.25 103.85 199.6C103.77 199.34 103.69 199.09 103.62 198.83C103.59 198.73 103.57 198.64 103.54 198.54C102.64 198.86 101.74 199.19 100.84 199.53ZM102.15 198.12C102.15 198.12 102.14 198.12 102.14 198.13C102.13 198.12 102.12 198.1 102.11 198.09C102.01 197.91 101.9 197.74 101.8 197.56C101.71 197.4 101.62 197.24 101.53 197.09C101.5 197.04 101.5 197.04 101.45 197.06C101.37 197.09 101.3 197.12 101.22 197.14C101.16 197.16 101.11 197.18 101.05 197.2C101 197.22 101 197.22 101.03 197.26C101.03 197.26 101.03 197.27 101.04 197.27C101.2 197.55 101.35 197.83 101.51 198.11C101.65 198.36 101.79 198.61 101.92 198.86C101.94 198.89 101.95 198.89 101.98 198.88C102.2 198.8 102.41 198.72 102.63 198.64H102.64C102.66 198.63 102.66 198.62 102.66 198.61C102.66 198.6 102.66 198.58 102.65 198.57C102.59 198.21 102.53 197.85 102.47 197.49C102.43 197.25 102.39 197.01 102.35 196.77C102.34 196.72 102.34 196.72 102.3 196.74C102.19 196.78 102.08 196.82 101.97 196.86C101.93 196.88 101.93 196.88 101.94 196.93C101.99 197.24 102.05 197.55 102.1 197.86C102.12 197.94 102.13 198.03 102.15 198.12ZM97.8901 199.37C97.9901 199.65 98.1001 199.93 98.2001 200.21C98.2201 200.26 98.22 200.26 98.27 200.24C98.39 200.2 98.51 200.15 98.63 200.11C98.81 200.04 98.99 199.98 99.18 199.91C99.24 199.89 99.24 199.89 99.22 199.84C99.19 199.75 99.15 199.65 99.12 199.56C99.1 199.51 99.1 199.51 99.05 199.53C98.93 199.57 98.8201 199.61 98.7001 199.66C98.6701 199.67 98.66 199.66 98.65 199.64C98.62 199.56 98.59 199.47 98.56 199.39C98.54 199.34 98.54 199.34 98.59 199.33C98.7 199.29 98.82 199.25 98.93 199.2C98.98 199.18 98.98 199.18 98.96 199.13C98.93 199.05 98.9 198.97 98.87 198.89C98.85 198.84 98.85 198.84 98.8 198.86C98.68 198.9 98.5701 198.94 98.4501 198.99C98.4201 199 98.41 199 98.4 198.97C98.37 198.89 98.34 198.81 98.31 198.72C98.29 198.67 98.29 198.67 98.34 198.65C98.45 198.61 98.57 198.57 98.68 198.52C98.72 198.5 98.73 198.5 98.71 198.46C98.67 198.36 98.63 198.25 98.6 198.15C98.58 198.11 98.58 198.11 98.54 198.12C98.23 198.23 97.93 198.34 97.62 198.46C97.59 198.47 97.58 198.49 97.59 198.52C97.6 198.53 97.6 198.55 97.61 198.56C97.69 198.83 97.7901 199.1 97.8901 199.37ZM102.8 197.57C102.83 197.66 102.87 197.76 102.9 197.85C102.97 198.04 103.04 198.23 103.11 198.41C103.13 198.46 103.13 198.46 103.18 198.44C103.48 198.33 103.78 198.22 104.08 198.11C104.13 198.09 104.13 198.09 104.12 198.04C104.09 197.95 104.05 197.86 104.02 197.76C104 197.71 104 197.71 103.94 197.73C103.83 197.77 103.71 197.81 103.6 197.86C103.57 197.87 103.56 197.87 103.55 197.84C103.52 197.76 103.49 197.67 103.46 197.59C103.44 197.54 103.44 197.54 103.49 197.53C103.6 197.49 103.72 197.45 103.83 197.4C103.88 197.38 103.88 197.38 103.86 197.34C103.83 197.26 103.8 197.18 103.77 197.1C103.75 197.05 103.75 197.05 103.7 197.07C103.58 197.11 103.47 197.15 103.35 197.2C103.32 197.21 103.3 197.2 103.29 197.17C103.26 197.09 103.23 197.01 103.2 196.93C103.18 196.87 103.18 196.88 103.23 196.86C103.34 196.82 103.45 196.78 103.57 196.74C103.62 196.72 103.62 196.72 103.6 196.67C103.56 196.57 103.52 196.47 103.49 196.36C103.48 196.33 103.46 196.32 103.43 196.33C103.42 196.33 103.41 196.34 103.41 196.34C103.12 196.45 102.83 196.55 102.53 196.66C102.52 196.66 102.51 196.67 102.49 196.67C102.47 196.68 102.47 196.69 102.47 196.71C102.48 196.72 102.48 196.74 102.49 196.75C102.6 197.02 102.7 197.29 102.8 197.57ZM100.23 198.52C100.33 198.8 100.43 199.08 100.54 199.36C100.56 199.41 100.56 199.41 100.6 199.39C100.91 199.28 101.21 199.17 101.52 199.05C101.55 199.04 101.56 199.03 101.55 198.99C101.51 198.89 101.48 198.8 101.44 198.7C101.42 198.65 101.42 198.65 101.36 198.67C101.25 198.71 101.14 198.75 101.02 198.79C100.99 198.8 100.97 198.79 100.96 198.76C100.93 198.68 100.9 198.6 100.87 198.52C100.85 198.46 100.85 198.47 100.91 198.44C101.02 198.4 101.13 198.36 101.25 198.32C101.28 198.31 101.29 198.29 101.28 198.26C101.25 198.18 101.22 198.1 101.19 198.02C101.17 197.97 101.17 197.97 101.12 197.99C101.01 198.03 100.9 198.07 100.78 198.11C100.73 198.13 100.73 198.13 100.72 198.08C100.69 198 100.66 197.92 100.63 197.84C100.61 197.79 100.61 197.79 100.66 197.77C100.77 197.73 100.89 197.69 101 197.64C101.03 197.63 101.04 197.61 101.03 197.58C100.99 197.48 100.95 197.37 100.91 197.27C100.89 197.22 100.89 197.22 100.84 197.24C100.54 197.35 100.24 197.46 99.93 197.57C99.88 197.59 99.88 197.59 99.9 197.63C99.9 197.64 99.91 197.65 99.91 197.67C100.03 197.97 100.13 198.25 100.23 198.52ZM99.08 198.93C99.18 199.21 99.2801 199.49 99.3901 199.77C99.4101 199.83 99.41 199.83 99.47 199.8C99.63 199.74 99.7901 199.68 99.9501 199.62C100.09 199.57 100.23 199.52 100.37 199.47C100.42 199.45 100.42 199.45 100.4 199.41C100.36 199.31 100.33 199.21 100.29 199.12C100.27 199.08 100.27 199.08 100.23 199.09C100.12 199.13 100.02 199.17 99.91 199.21C99.82 199.24 99.84 199.25 99.8 199.16C99.64 198.74 99.49 198.32 99.34 197.89C99.32 197.83 99.3201 197.83 99.2601 197.85C99.1301 197.9 99 197.94 98.87 197.99C98.84 198 98.81 198.01 98.78 198.02C98.76 198.03 98.7501 198.04 98.7601 198.06C98.7701 198.07 98.77 198.09 98.78 198.1C98.88 198.39 98.98 198.66 99.08 198.93Z" fill="#FEFEFE"/>
<path d="M100.41 197.13C100.38 196.99 100.37 196.84 100.36 196.7C100.31 196.03 100.4 195.37 100.59 194.72C100.79 194.04 101.1 193.41 101.47 192.81C101.93 192.08 102.49 191.42 103.11 190.81C103.12 190.8 103.13 190.78 103.15 190.78C103.17 190.79 103.17 190.82 103.18 190.84C103.49 191.68 103.79 192.51 104.1 193.35C104.1 193.36 104.1 193.36 104.11 193.37C104.13 193.4 104.12 193.42 104.09 193.45C103.99 193.53 103.9 193.62 103.82 193.71C103.54 194.04 103.33 194.41 103.18 194.81C103.07 195.11 102.98 195.41 102.96 195.73C102.95 195.88 102.95 196.03 102.99 196.17C103 196.21 102.98 196.22 102.95 196.22C102.77 196.29 102.59 196.35 102.4 196.42C101.77 196.65 101.13 196.88 100.5 197.11C100.46 197.12 100.44 197.13 100.41 197.13Z" fill="#ED1C2E"/>
<path d="M102.29 191.23C102.28 191.24 102.28 191.25 102.28 191.25C102.02 191.51 101.79 191.8 101.57 192.09C101.21 192.58 100.88 193.09 100.6 193.63C100.49 193.85 100.38 194.08 100.3 194.32C100.26 194.43 100.23 194.54 100.21 194.65C100.2 194.68 100.19 194.71 100.16 194.71C100.15 194.71 100.14 194.72 100.13 194.72C99.0701 195.11 98.0101 195.5 96.9501 195.89C96.8701 195.92 96.8701 195.93 96.8401 195.84C96.5601 195.09 96.2901 194.35 96.0101 193.6C96.0101 193.59 96.0101 193.59 96.0001 193.58C95.9801 193.53 95.9801 193.53 96.0301 193.51C96.0401 193.5 96.0601 193.5 96.0701 193.49C98.1101 192.74 100.16 191.99 102.2 191.24C102.23 191.25 102.25 191.24 102.29 191.23Z" fill="#F5821F"/>
<path d="M100.84 199.53C101.74 199.2 102.64 198.87 103.55 198.54C103.58 198.64 103.6 198.73 103.63 198.83C103.7 199.09 103.78 199.35 103.86 199.6C104.07 200.24 104.3 200.88 104.54 201.52C104.57 201.6 104.57 201.59 104.5 201.62C103.63 201.94 102.76 202.26 101.89 202.58C101.82 202.61 101.82 202.62 101.8 202.54C101.62 202.04 101.44 201.54 101.28 201.03C101.16 200.64 101.04 200.25 100.93 199.86C100.89 199.75 100.87 199.64 100.84 199.53Z" fill="#ED1C2E"/>
<path d="M102.15 198.12C102.14 198.03 102.12 197.95 102.11 197.86C102.06 197.55 102 197.24 101.95 196.93C101.94 196.88 101.94 196.88 101.98 196.86C102.09 196.82 102.2 196.78 102.31 196.74C102.35 196.72 102.35 196.73 102.36 196.77C102.4 197.01 102.44 197.25 102.48 197.49C102.54 197.85 102.6 198.21 102.66 198.57C102.66 198.58 102.66 198.6 102.67 198.61C102.67 198.63 102.67 198.64 102.65 198.64H102.64C102.42 198.72 102.21 198.8 101.99 198.88C101.96 198.89 101.94 198.89 101.93 198.86C101.79 198.61 101.65 198.36 101.52 198.11C101.36 197.83 101.21 197.55 101.05 197.27C101.05 197.27 101.05 197.26 101.04 197.26C101.01 197.21 101.01 197.21 101.06 197.2C101.12 197.18 101.17 197.16 101.23 197.14C101.31 197.11 101.38 197.08 101.46 197.06C101.51 197.04 101.51 197.04 101.54 197.09C101.63 197.25 101.72 197.41 101.81 197.56C101.91 197.74 102.02 197.91 102.12 198.09C102.13 198.1 102.14 198.12 102.15 198.13C102.14 198.12 102.14 198.12 102.15 198.12Z" fill="#038162"/>
<path d="M97.8901 199.37C97.7901 199.1 97.69 198.83 97.59 198.56C97.58 198.55 97.58 198.53 97.57 198.52C97.55 198.49 97.57 198.47 97.6 198.46C97.91 198.35 98.21 198.24 98.52 198.12C98.56 198.1 98.56 198.1 98.58 198.15C98.62 198.25 98.66 198.36 98.69 198.46C98.71 198.5 98.7 198.5 98.66 198.52C98.55 198.56 98.43 198.6 98.32 198.65C98.27 198.67 98.27 198.67 98.29 198.72C98.32 198.8 98.35 198.88 98.38 198.97C98.39 199 98.4 199 98.43 198.99C98.55 198.95 98.66 198.9 98.78 198.86C98.83 198.84 98.83 198.84 98.85 198.89C98.88 198.97 98.91 199.05 98.94 199.13C98.96 199.18 98.96 199.18 98.91 199.2C98.8 199.24 98.68 199.28 98.57 199.33C98.52 199.35 98.52 199.35 98.54 199.39C98.57 199.47 98.6 199.56 98.63 199.64C98.64 199.67 98.65 199.68 98.68 199.66C98.8 199.62 98.91 199.57 99.03 199.53C99.08 199.51 99.08 199.51 99.1 199.56C99.13 199.65 99.1701 199.75 99.2001 199.84C99.2201 199.89 99.22 199.89 99.16 199.91C98.98 199.98 98.8 200.04 98.61 200.11C98.49 200.15 98.37 200.2 98.25 200.24C98.2 200.26 98.2 200.26 98.18 200.21C98.09 199.93 97.9901 199.65 97.8901 199.37Z" fill="#038162"/>
<path d="M102.8 197.57C102.7 197.3 102.6 197.02 102.5 196.75C102.49 196.74 102.49 196.72 102.48 196.71C102.47 196.69 102.48 196.68 102.5 196.67C102.51 196.67 102.52 196.66 102.54 196.66C102.83 196.55 103.12 196.45 103.42 196.34C103.43 196.34 103.44 196.33 103.44 196.33C103.47 196.31 103.49 196.33 103.5 196.36C103.54 196.46 103.57 196.56 103.61 196.67C103.63 196.72 103.63 196.72 103.58 196.74C103.47 196.78 103.36 196.82 103.24 196.86C103.18 196.88 103.19 196.88 103.21 196.93C103.24 197.01 103.27 197.09 103.3 197.17C103.31 197.2 103.32 197.21 103.36 197.2C103.48 197.16 103.59 197.11 103.71 197.07C103.76 197.05 103.76 197.05 103.78 197.1C103.81 197.18 103.84 197.26 103.87 197.34C103.89 197.39 103.89 197.39 103.84 197.4C103.73 197.44 103.61 197.48 103.5 197.53C103.45 197.55 103.45 197.55 103.47 197.59C103.5 197.67 103.53 197.76 103.56 197.84C103.57 197.87 103.58 197.88 103.61 197.86C103.72 197.82 103.84 197.78 103.95 197.73C104.01 197.71 104.01 197.71 104.03 197.76C104.06 197.85 104.1 197.94 104.13 198.04C104.15 198.09 104.15 198.09 104.09 198.11C103.79 198.22 103.49 198.33 103.19 198.44C103.14 198.46 103.14 198.46 103.12 198.41C103.05 198.22 102.98 198.03 102.91 197.85C102.87 197.76 102.84 197.66 102.8 197.57Z" fill="#038162"/>
<path d="M100.23 198.52C100.13 198.25 100.03 197.98 99.9301 197.71C99.9301 197.7 99.9201 197.69 99.9201 197.67C99.9001 197.62 99.9001 197.62 99.9501 197.61C100.25 197.5 100.55 197.39 100.86 197.28C100.91 197.26 100.91 197.26 100.93 197.31C100.97 197.41 101.01 197.52 101.05 197.62C101.06 197.65 101.06 197.67 101.02 197.68C100.91 197.72 100.79 197.76 100.68 197.81C100.63 197.83 100.63 197.83 100.65 197.88C100.68 197.96 100.71 198.04 100.74 198.12C100.76 198.16 100.76 198.17 100.8 198.15C100.91 198.11 101.02 198.07 101.14 198.03C101.19 198.01 101.19 198.01 101.21 198.06C101.24 198.14 101.27 198.22 101.3 198.3C101.31 198.33 101.31 198.35 101.27 198.36C101.16 198.4 101.05 198.44 100.93 198.48C100.87 198.5 100.87 198.5 100.89 198.56C100.92 198.64 100.95 198.72 100.98 198.8C100.99 198.83 101 198.84 101.04 198.83C101.15 198.79 101.26 198.75 101.38 198.71C101.44 198.69 101.44 198.69 101.46 198.74C101.5 198.84 101.53 198.93 101.57 199.03C101.58 199.06 101.57 199.07 101.54 199.09C101.23 199.2 100.93 199.31 100.62 199.43C100.58 199.45 100.58 199.44 100.56 199.4C100.43 199.08 100.33 198.8 100.23 198.52Z" fill="#038162"/>
<path d="M99.08 198.93C98.98 198.66 98.88 198.38 98.78 198.11C98.77 198.1 98.77 198.08 98.76 198.07C98.75 198.05 98.76 198.03 98.78 198.03C98.81 198.02 98.84 198.01 98.87 198C99 197.95 99.13 197.91 99.26 197.86C99.32 197.84 99.32 197.83 99.34 197.9C99.49 198.32 99.65 198.74 99.8 199.17C99.83 199.26 99.82 199.25 99.91 199.22C100.02 199.18 100.12 199.14 100.23 199.1C100.27 199.08 100.27 199.08 100.29 199.13C100.33 199.23 100.36 199.33 100.4 199.42C100.42 199.46 100.42 199.47 100.37 199.48C100.23 199.53 100.09 199.58 99.95 199.63C99.79 199.69 99.63 199.75 99.47 199.81C99.41 199.83 99.41 199.83 99.39 199.78C99.29 199.49 99.18 199.21 99.08 198.93Z" fill="#008061"/>
<path d="M104.54 195.89C104.66 195.8 104.78 195.76 104.93 195.77C105.07 195.78 105.17 195.85 105.22 195.99C105.4 196.47 105.57 196.96 105.75 197.44C105.77 197.5 105.78 197.49 105.71 197.52C105.57 197.57 105.42 197.63 105.28 197.68C105.23 197.7 105.23 197.7 105.21 197.65C105.07 197.26 104.93 196.88 104.79 196.49C104.79 196.48 104.79 196.48 104.78 196.47C104.74 196.37 104.72 196.35 104.63 196.35C104.54 196.35 104.48 196.4 104.46 196.49C104.42 196.5 104.42 196.47 104.41 196.45C104.39 196.38 104.36 196.31 104.34 196.24C104.33 196.2 104.31 196.17 104.31 196.13C104.31 196.12 104.31 196.12 104.32 196.11C104.32 196.11 104.32 196.11 104.33 196.11C104.33 196.1 104.34 196.1 104.34 196.09C104.36 196.05 104.39 196.01 104.43 195.99C104.44 195.98 104.44 195.98 104.45 195.97C104.46 195.96 104.47 195.95 104.48 195.94C104.49 195.93 104.49 195.93 104.5 195.92L104.51 195.91C104.52 195.91 104.53 195.9 104.54 195.89Z" fill="#008061"/>
<path d="M104.45 196.52C104.45 196.55 104.46 196.58 104.47 196.61C104.61 196.99 104.75 197.37 104.89 197.75C104.9 197.77 104.91 197.79 104.91 197.82C104.75 197.88 104.59 197.94 104.43 197.99C104.41 198 104.39 198.01 104.36 198C104.19 197.54 104.02 197.08 103.86 196.62C103.81 196.49 103.77 196.36 103.72 196.23C103.74 196.21 103.77 196.21 103.79 196.2C103.94 196.14 104.1 196.09 104.25 196.03C104.27 196.06 104.27 196.09 104.3 196.12C104.3 196.12 104.3 196.13 104.31 196.13C104.33 196.2 104.36 196.27 104.39 196.34C104.41 196.39 104.44 196.45 104.45 196.52Z" fill="#038162"/>
<path d="M104.37 197.99C104.4 198 104.42 197.99 104.44 197.98C104.6 197.92 104.76 197.87 104.92 197.81C104.91 197.83 104.88 197.83 104.87 197.84C104.73 197.89 104.59 197.94 104.45 197.99C104.41 198 104.39 198.02 104.37 197.99Z" fill="#AAD5CA"/>
<path d="M104.26 196.02C104.11 196.08 103.95 196.13 103.8 196.19C103.78 196.2 103.75 196.2 103.73 196.22C103.73 196.2 103.74 196.2 103.75 196.19C103.91 196.13 104.08 196.07 104.24 196.01C104.24 196.02 104.25 196.02 104.26 196.02Z" fill="#AAD5CA"/>
<path d="M104.45 196.52C104.44 196.46 104.41 196.4 104.39 196.34C104.36 196.27 104.33 196.2 104.31 196.13C104.31 196.17 104.33 196.21 104.34 196.24C104.36 196.31 104.38 196.38 104.41 196.45C104.42 196.47 104.42 196.5 104.46 196.49C104.46 196.5 104.46 196.51 104.45 196.52Z" fill="#AAD5CA"/>
<path d="M104.54 195.89C104.53 195.9 104.52 195.91 104.51 195.91C104.52 195.9 104.53 195.89 104.54 195.89Z" fill="#038162"/>
<path d="M104.49 195.92C104.48 195.93 104.48 195.93 104.47 195.94C104.48 195.93 104.48 195.92 104.49 195.92Z" fill="#038162"/>
<path d="M104.44 195.97C104.43 195.98 104.43 195.98 104.42 195.99C104.43 195.97 104.43 195.97 104.44 195.97Z" fill="#038162"/>
<path d="M104.33 196.09C104.33 196.1 104.32 196.1 104.32 196.11C104.32 196.1 104.32 196.09 104.33 196.09Z" fill="#038162"/>
<path d="M104.31 196.12C104.31 196.12 104.31 196.11 104.3 196.11C104.3 196.11 104.31 196.11 104.31 196.1C104.31 196.11 104.31 196.12 104.31 196.12Z" fill="#AAD5CA"/>
<path d="M114.52 192.8L113.26 189.48C113.01 188.82 113.34 188.09 114 187.84L116.78 186.79L115.73 184.01C115.48 183.35 115.81 182.62 116.47 182.37L119.79 181.11C120.45 180.86 121.18 181.19 121.43 181.85L122.48 184.63L125.26 183.58C125.92 183.33 126.65 183.66 126.9 184.32L128.16 187.64C128.41 188.3 128.08 189.03 127.42 189.28L124.64 190.33L125.69 193.11C125.94 193.77 125.61 194.5 124.95 194.75L121.63 196.01C120.97 196.26 120.24 195.93 119.99 195.27L118.94 192.49L116.16 193.54C115.5 193.79 114.76 193.46 114.52 192.8ZM120.89 182.06C120.75 181.7 120.35 181.51 119.98 181.65L116.66 182.91C116.3 183.05 116.11 183.45 116.25 183.82L117.4 186.86C117.46 187.01 117.38 187.17 117.23 187.23L114.19 188.38C113.83 188.52 113.64 188.92 113.78 189.29L115.04 192.61C115.18 192.97 115.58 193.16 115.95 193.02L118.99 191.87C119.14 191.81 119.3 191.89 119.36 192.04L120.51 195.08C120.65 195.44 121.05 195.63 121.42 195.49L124.74 194.23C125.1 194.09 125.29 193.69 125.15 193.32L124 190.28C123.94 190.13 124.02 189.97 124.17 189.91L127.21 188.76C127.57 188.62 127.76 188.22 127.62 187.85L126.36 184.53C126.22 184.17 125.82 183.98 125.45 184.12L122.41 185.27C122.26 185.33 122.1 185.25 122.04 185.1L120.89 182.06Z" fill="#020288"/>
<path d="M114.86 189.22L118.83 187.72L117.33 183.75L120.05 182.72L121.55 186.69L125.52 185.19L126.55 187.91L122.58 189.41L124.08 193.38L121.36 194.41L119.86 190.44L115.89 191.94L114.86 189.22Z" fill="#A4FCC4"/>
<path d="M139.97 101.916C139.97 101.916 140.722 111.935 134.462 112.894C128.202 113.84 123.691 117.676 119.479 116.289C115.267 114.902 111.172 115.991 107.439 113.542C103.706 111.092 98.9888 105.947 98.9888 105.947L98.1464 98.7278L102.255 94.1398L108.178 89.9406L119.466 87.5559L123.238 87.8022L131.455 93.1678L137.235 97.2244L139.97 101.916Z" fill="white"/>
<path d="M176.376 101.061L179.357 109.42C179.357 109.42 186.472 117.054 195.868 116.03C205.265 114.993 213.507 113.425 214.441 110.716C215.374 108.007 217.629 100.633 217.629 100.633L214.039 94.1268L207.105 90.9515L201.35 87.8929H195.104L191.825 87.9706L189.919 88.8779L184.23 94.9693L176.376 101.061Z" fill="white"/>
<path d="M93.7399 48.8041C93.7399 48.8041 90.9923 37.1267 91.6532 34.6124C92.3272 32.0981 93.8954 26.1752 93.8954 26.1752L94.362 20.7447L91.8606 14.3811L98.6259 4.7256H119.103L138.116 3.07962L143.495 3.80541L146.696 7.42137L160.707 4.42751L174.483 5.85316L188.857 14.109L194.002 19.8375L204.189 18.1915L214.907 29.0265L234.024 39.8096L237.627 43.8662L238.703 48.4671L238.275 52.6663L235.553 57.4617L232.002 60.0667L228.736 72.3273L222.308 80.2591L212.769 83.6807L204.954 77.2523L198.966 72.1459L195.894 81.0497L181.249 96.9911L166.267 103.173L158.672 104.249L146.813 105.921L137.935 100.464L131.481 93.1418L124.78 89.7851L118.909 79.3519L115.85 64.914L115.565 48.4801C115.565 48.4801 107.763 54.4808 104.821 53.8716C101.866 53.2755 97.7706 53.094 93.7399 48.8041Z" fill="white"/>
<path d="M193.976 64.0456C194.339 61.5442 193.574 58.7837 192.861 56.3989C192.187 54.1568 191.125 52.109 189.492 50.4112C186.057 46.8601 180.912 45.5381 176.129 46.5101C173.81 46.9897 171.619 48.0524 169.584 49.2448C167.666 50.3723 165.67 51.6943 164.582 53.7161C163.869 55.0511 163.571 56.5934 163.286 58.0708C163.026 59.3669 162.702 60.7537 162.78 62.0756C162.845 63.255 163.312 64.2789 164.05 65.1991C164.348 65.562 166.539 67.4931 166.305 67.7264C165.269 68.7891 166.5 70.3314 167.64 69.9945C169.273 70.5129 169.87 71.5497 170.777 72.8976C171.723 74.2973 173.46 73.6104 174.82 74.2325C175.481 74.5306 176.052 75.0361 176.324 75.723C176.557 76.3321 176.492 76.9802 176.803 77.5763C177.464 78.8076 178.929 79.0149 180.199 78.8205C182.35 78.5095 184.398 77.1746 186.148 75.723C186.29 75.7359 186.446 75.7359 186.614 75.6841C190.334 74.6862 192.239 69.826 193.302 66.5211C193.341 66.3915 193.341 66.2619 193.341 66.1323C193.626 65.4842 193.872 64.7844 193.976 64.0456ZM180.082 63.7086C179.383 65.1473 178.553 66.6118 176.855 66.9358C175.054 67.2598 172.98 66.1841 172.721 64.2659C172.695 64.0327 172.682 63.8123 172.695 63.579C172.63 63.4754 172.565 63.3587 172.539 63.2291C172.462 62.8403 172.552 62.4774 172.708 62.1275C172.928 61.6091 173.317 61.1554 173.706 60.7537C174.03 60.4167 174.393 60.1056 174.82 59.9112C175.818 59.4706 177.413 59.2373 178.294 60.0408C179.382 60.3908 180.134 61.1684 180.497 62.1793C180.536 62.2571 180.562 62.3348 180.575 62.4126C180.627 62.62 180.679 62.8144 180.704 63.0347C180.73 63.3846 180.393 63.6698 180.082 63.7086Z" fill="#C19569"/>
<path d="M141.642 48.6875C138.155 47.7543 134.578 49.828 133.645 53.3143C132.712 56.8007 134.786 60.3778 138.272 61.3109C141.758 62.2441 145.335 60.1704 146.269 56.6841C147.215 53.1977 145.128 49.6206 141.642 48.6875ZM138.466 55.7768C136.95 55.3751 136.043 53.8068 136.445 52.2905C136.846 50.7741 138.415 49.8669 139.931 50.2686C141.447 50.6704 142.355 52.2386 141.953 53.755C141.551 55.2714 139.996 56.1786 138.466 55.7768Z" fill="black"/>
<path d="M175.17 71.135C178.657 72.0682 182.234 69.9945 183.167 66.5081C184.1 63.0218 182.026 59.4447 178.54 58.5115C175.054 57.5784 171.477 59.652 170.544 63.1384C169.61 66.6377 171.684 70.2148 175.17 71.135ZM176.829 60.0797C178.346 60.4815 179.253 62.0497 178.851 63.5661C178.449 65.0825 176.881 65.9897 175.365 65.5879C173.848 65.1862 172.941 63.6179 173.343 62.1016C173.745 60.5852 175.313 59.678 176.829 60.0797Z" fill="black"/>
<path d="M236.603 39.7966C231.16 34.4439 223.396 32.8239 217.279 28.534C214.687 26.7065 212.535 24.3996 210.436 22.0537C208.894 20.317 207.273 18.5026 205.096 17.5565C202.141 16.2863 199.031 16.9344 196.14 18.3471C183.413 4.98482 164.284 -0.691858 146.618 5.11443C145.582 3.64989 144.376 2.35385 142.964 1.38181C138.363 -1.78054 132.997 1.30405 128.318 2.54826C124.482 3.57213 120.62 3.7795 116.68 3.41661C112.947 3.06667 109.163 2.71674 105.404 2.97595C102.514 3.17036 99.5073 3.7147 97.0188 5.29587C94.5434 6.86409 92.8974 9.23585 91.8865 11.9575C90.7849 14.9125 90.4479 17.9842 91.9254 20.8484C92.4049 21.7686 93.0141 22.624 93.1826 23.6738C93.4029 25.0865 92.8974 26.5121 92.4568 27.8341C90.9145 32.5776 89.5796 37.71 90.1239 42.7386C90.7849 48.856 94.6082 53.3532 100.622 54.8826C105.456 56.1009 110.096 54.8955 114.049 52.3164C113.621 63.1125 114.554 76.2155 120.231 85.8581C119.985 85.8581 119.751 85.8321 119.505 85.8321C107.258 85.8321 97.304 93.0511 97.304 101.916C97.304 109.213 104.056 115.395 113.271 117.352C113.323 117.365 113.388 117.378 113.44 117.391C115.371 117.793 117.406 118 119.505 118C120.866 118 122.188 117.909 123.484 117.741C123.523 117.741 123.575 117.728 123.614 117.728C132.505 116.523 139.542 111.455 141.292 105.027C142.925 106.18 144.739 107.087 146.891 107.58C152.386 108.837 157.583 106.634 162.754 105.04C162.949 104.975 163.104 104.897 163.26 104.793C165.126 105.104 167.122 105.143 169.209 104.832C171.127 104.547 172.967 104.042 174.743 103.368C175.637 110.574 183.102 116.419 192.758 117.728C192.797 117.741 192.848 117.741 192.887 117.741C194.183 117.909 195.505 118 196.866 118C198.966 118 201.001 117.78 202.932 117.391C202.984 117.378 203.048 117.378 203.1 117.352C212.315 115.395 219.067 109.213 219.067 101.916C219.067 93.0511 209.101 85.8321 196.866 85.8321C196.089 85.8321 195.311 85.871 194.559 85.9358C196.996 82.4106 199.121 78.7298 200.923 75.2435C202.323 78.1207 204.293 80.6739 207.079 82.4624C212.211 85.7544 219.145 86.0136 223.915 82.0088C227.984 78.5872 229.98 73.092 231.25 68.0893C231.834 65.7953 231.924 62.7625 233.492 60.9221C234.14 60.1445 235.074 59.7298 235.903 59.1984C237.031 58.4726 237.977 57.5913 238.69 56.4378C241.865 51.1111 240.958 44.0736 236.603 39.7966ZM126.387 113.658C127.035 111.001 126.698 108.163 126.633 107.709C126.504 106.763 125.636 106.102 124.689 106.232C123.743 106.362 123.082 107.23 123.212 108.176C123.419 109.666 123.445 112.958 122.395 114.397C121.436 114.501 120.464 114.553 119.466 114.553C117.678 114.553 115.954 114.384 114.308 114.06C109.603 111.377 112.61 101.242 112.649 101.151C112.934 100.244 112.429 99.2851 111.522 99C110.614 98.7148 109.655 99.2203 109.37 100.128C109.254 100.516 107.206 107.191 108.904 112.349C103.966 110.068 100.726 106.245 100.726 101.916C100.726 94.9433 109.137 89.2667 119.492 89.2667C120.594 89.2667 121.67 89.3315 122.719 89.4611C123.938 90.9645 125.299 92.3383 126.841 93.5566C128.902 95.1766 131.092 96.2783 133.321 96.9004C133.386 97.03 133.477 97.1466 133.58 97.2633C135.123 99.0259 136.613 100.814 138.233 102.422C137.909 107.528 133.101 111.87 126.387 113.658ZM148.407 103.99C144.143 103.251 141.344 100.516 138.713 97.4966C143.041 97.2373 147.085 95.2285 149.975 91.7291C150.792 96.4727 153.565 100.426 157.557 102.758C154.563 103.718 151.466 104.521 148.407 103.99ZM196.814 89.2667C207.157 89.2667 215.581 94.9433 215.581 101.916C215.581 106.245 212.341 110.068 207.403 112.349C209.101 107.191 207.053 100.503 206.936 100.128C206.651 99.2203 205.679 98.7148 204.785 99C203.878 99.2851 203.372 100.244 203.657 101.151C203.683 101.255 206.69 111.39 201.999 114.06C200.366 114.371 198.629 114.553 196.84 114.553C195.842 114.553 194.87 114.501 193.911 114.397C192.874 112.958 192.9 109.666 193.095 108.163C193.224 107.217 192.563 106.362 191.617 106.232C190.671 106.102 189.803 106.763 189.673 107.709C189.608 108.163 189.271 111.001 189.919 113.671C182.986 111.818 178.074 107.243 178.074 101.916C178.074 101.877 178.086 101.851 178.086 101.812C183.297 99.0129 187.82 94.6712 191.695 89.7721C193.315 89.4481 195.026 89.2667 196.814 89.2667ZM236.836 52.6275C236.473 53.9105 235.942 55.1547 234.892 56.0231C234.166 56.6193 233.285 57.0211 232.52 57.5654C230.188 59.2373 229.397 61.7516 228.827 64.4604C227.881 68.9447 226.623 73.5975 223.902 77.356C220.662 81.8403 215.335 82.942 210.332 80.6739C204.915 78.2244 202.543 72.4699 201.558 66.9617C200.521 61.1684 200.897 55.2325 201.571 49.4262C202.31 43.0886 199.834 36.4787 196.633 31.1131C196.413 30.7502 196.192 30.3873 195.959 30.0374C194.831 28.3784 192.11 29.9337 193.25 31.6056C196.27 36.051 198.486 41.7148 198.564 47.1193C198.603 50.2298 197.955 53.3662 197.838 56.4897C197.722 59.8075 197.838 63.1384 198.318 66.4303C198.512 67.7523 198.771 69.0872 199.121 70.3962C199.082 70.461 199.031 70.5258 198.992 70.6036C193.574 81.6978 185.902 93.8547 174.315 99.311C163.947 104.184 150.96 98.5075 153.837 85.6118C153.928 85.1971 153.889 84.8342 153.76 84.5102C155.95 83.7714 159.333 82.1125 160.888 78.6521C162.404 75.2953 160.888 73.2475 158.361 72.5736C156.779 72.1459 155.6 72.8847 155.082 73.3901C154.952 73.5068 154.745 73.4549 154.706 73.2864C154.55 72.5866 154.032 71.459 152.334 71.0054C149.807 70.3314 147.37 71.148 147.02 74.8158C146.657 78.6132 148.77 81.8014 150.273 83.5641C150.001 83.7844 149.781 84.0825 149.651 84.4843C145.737 97.1207 131.662 95.5525 125.078 86.1821C117.73 75.723 117.133 61.3369 117.937 49.0504C122.395 44.6179 125.636 38.9801 128.189 33.2775C129.718 29.8559 131.273 26.8621 133.995 24.1922C136.159 22.0797 138.622 20.2782 141.253 18.7747C141.681 18.5285 142.095 18.2952 142.536 18.0878C144.35 17.2065 142.769 14.4978 140.968 15.3791C136.613 17.5046 132.453 20.7836 129.446 24.5681C127.398 27.1472 126.271 30.0503 124.884 32.9924C123.601 35.7141 122.162 38.371 120.503 40.8853C118.987 43.1922 117.185 45.551 115.073 47.521C114.878 47.6377 114.697 47.7932 114.554 47.9876C112.507 49.7891 110.174 51.2148 107.517 51.8758C102.41 53.1459 96.0339 51.0204 93.9861 45.8751C92.2235 41.4426 93.2474 36.2195 94.4656 31.787C95.1137 29.4282 96.1894 27.0824 96.2931 24.607C96.3968 22.1963 95.0618 20.6799 94.2712 18.5674C93.3251 16.0401 94.5823 12.7222 95.9691 10.5578C97.291 8.4971 99.3647 7.26586 101.698 6.64376C108.502 4.85522 115.552 7.09737 122.421 6.65672C125.597 6.44935 128.681 5.73653 131.701 4.76449C133.749 4.10351 135.9 3.13148 138.078 3.06667C143.301 2.91115 146.022 10.0394 147.396 14.096C147.552 14.5496 147.694 15.0033 147.824 15.4698C148.368 17.4139 151.388 16.5844 150.844 14.6404C150.286 12.6315 149.535 10.4671 148.537 8.40638C164.426 3.61101 181.171 8.57487 192.784 20.2911C191.371 21.2761 190.075 22.3518 188.934 23.3368C188.52 23.6997 188.105 24.0626 187.716 24.4514C186.278 25.8771 188.494 28.0933 189.919 26.6806C191.112 25.5012 192.434 24.4125 193.808 23.4405C194.456 22.9739 195.142 22.5074 195.868 22.0537C196.102 21.963 196.322 21.8334 196.503 21.6649C198.175 20.7059 199.99 19.9671 201.843 19.9671C203.865 19.9671 205.381 21.2502 206.716 22.637C208.57 24.5551 210.241 26.6417 212.211 28.4432C215.011 30.9965 218.173 32.9405 221.608 34.5087C224.796 35.9603 228.023 37.4508 230.978 39.356C233.181 40.7686 235.359 42.5183 236.525 44.9289C237.743 47.3655 237.549 50.1261 236.836 52.6275Z" fill="black"/>
<path d="M189.686 57.4617C190.36 58.2393 191.228 58.6022 191.63 58.2523C192.019 57.9153 191.799 56.9951 191.112 56.2175C190.438 55.4399 189.569 55.077 189.168 55.4269C188.779 55.7769 189.012 56.6841 189.686 57.4617Z" fill="black"/>
<path d="M183.504 72.1589C183.543 72.4181 183.763 72.5347 184.009 72.8976C184.256 73.2605 184.178 73.6752 184.528 73.766C184.878 73.8437 184.904 73.5327 185.15 73.4549C185.409 73.3771 185.513 73.2994 185.578 72.9106C185.694 72.6514 185.331 72.2107 184.761 71.9515C184.191 71.6793 183.621 71.6793 183.504 71.9515C183.478 72.0033 183.478 72.0811 183.504 72.1589Z" fill="black"/>
<path d="M185.953 68.0374C186.083 68.8539 186.576 69.489 187.25 69.5668C188.04 69.6575 188.766 68.9447 188.96 67.9467C188.986 67.8689 188.999 67.7782 188.999 67.7005V67.6875V67.6745C189.129 66.6895 188.636 65.886 188.248 65.2509C187.82 64.6677 187.988 63.916 187.185 63.7086C186.381 63.4883 186.407 65.2768 186.07 66.547C186.083 66.534 185.798 67.6097 185.953 68.0374Z" fill="black"/>
<path d="M180.523 55.8416C181.871 56.2045 183.115 55.9324 183.297 55.2584C183.478 54.5715 182.532 53.7291 181.184 53.3792C181.145 53.3662 181.106 53.3662 181.067 53.3532C181.054 53.3532 181.054 53.3403 181.041 53.3403C179.24 52.783 178.423 53.3532 178.086 53.5347C177.75 53.7161 176.842 53.2236 176.674 53.8587C176.505 54.4808 177.555 55.1936 180.523 55.8416Z" fill="black"/>
<path d="M169.17 52.5238C169.144 52.6923 169.079 52.8478 168.988 52.9903C168.716 53.4828 168.716 54.1049 169.04 54.5845C169.157 54.7659 169.299 54.9085 169.481 54.9992C169.779 55.1547 169.96 54.8955 170.051 54.6104C170.181 54.2216 170.375 53.8457 170.621 53.5217C170.868 53.1848 171.153 52.7182 171.308 52.1998C171.308 52.1868 171.308 52.1868 171.308 52.1868C171.503 51.5388 171.451 50.9685 171.101 50.7871C170.66 50.5538 170.245 51.3184 169.494 51.9276C169.286 52.0702 169.209 52.3423 169.17 52.5238Z" fill="black"/>
<path d="M179.888 74.9972C179.668 74.8158 179.24 74.6214 178.773 74.6343C178.747 74.6343 178.709 74.6473 178.683 74.6473C178.592 74.6602 178.501 74.6602 178.411 74.6862C178.398 74.6862 178.385 74.6991 178.372 74.7121C178.359 74.7121 178.359 74.7121 178.346 74.7121C177.788 74.9065 177.451 75.4119 177.607 75.8396C177.762 76.2673 178.333 76.4488 178.89 76.2414C178.916 76.2284 178.942 76.2155 178.981 76.1896C178.994 76.1896 178.994 76.1896 179.007 76.1896C179.37 76.0859 179.655 76.4099 180.069 76.2803C180.484 76.1507 180.523 75.6323 180.355 75.386C180.186 75.1398 180.147 75.2175 179.888 74.9972Z" fill="black"/>
<path d="M182.454 50.4631C182.96 51.474 184.398 51.1888 184.994 51.1888C185.591 51.1888 186.187 50.2427 185.617 50.1131C185.046 49.9706 184.839 49.828 183.984 49.2318C183.037 48.5708 181.949 48.506 181.715 49.2059C181.547 49.6984 182.182 49.9576 182.454 50.4631Z" fill="black"/>
<path d="M166.992 59.5094C166.785 59.0558 166.591 58.7188 165.619 58.7577C164.932 58.7836 164.413 59.8982 164.452 61.2591C164.491 62.6199 165.087 63.6957 165.774 63.6697C166.163 63.6827 166.94 63.1902 166.992 62.3737C167.044 61.5572 167.368 61.4535 167.511 60.8184C167.653 60.1704 167.2 59.963 166.992 59.5094Z" fill="black"/>
<path d="M161.601 56.9174C160.823 59.5483 160.668 62.2441 161.134 64.9399C161.29 65.8082 161.964 66.4822 162.845 66.6248C163.998 66.8192 164.776 68.0115 164.478 69.152C164.465 69.2168 164.335 69.502 163.986 69.9945C163.662 70.4351 163.674 71.0313 163.986 71.472L164.582 72.1977L165.385 71.9385C166.37 71.6275 167.096 71.5627 167.355 71.6275C168.314 71.8867 169.675 72.9106 169.286 74.5825C169.235 74.7769 169.131 75.0361 169.04 75.2823C168.833 75.8137 169.014 76.4229 169.481 76.7598L170.323 77.2912L171.023 76.7339C171.995 75.9433 172.85 75.6193 173.162 75.6971C174.043 75.9304 174.652 76.7209 174.665 77.6282C174.678 78.5743 175.3 79.3778 176.181 79.6111C176.259 79.6371 176.337 79.65 176.428 79.663C184.968 80.8683 192.887 75.2953 195.259 66.4044C196.49 61.7775 195.803 56.9692 193.328 52.8608C190.853 48.7652 186.9 45.9269 182.234 44.8512C173.291 42.8034 164.219 48.1043 161.601 56.9174ZM191.332 54.079C193.471 57.6302 194.067 61.7905 193.004 65.7953C190.969 73.429 184.282 78.2503 177.024 77.356C176.907 75.4897 175.598 73.8956 173.784 73.4031C173.097 73.2216 172.384 73.3383 171.71 73.5975C171.516 71.4849 169.857 69.8519 167.99 69.3465C167.653 69.2557 167.265 69.2298 166.863 69.2557C167.2 67.0136 165.67 64.7844 163.428 64.3308C163.052 62.0627 163.208 59.7946 163.856 57.5784C166.124 49.9446 173.965 45.3566 181.728 47.1322C185.811 48.0654 189.194 50.5279 191.332 54.079Z" fill="black"/>
</svg>
