<svg width="594" height="375" viewBox="0 0 594 375" fill="none" xmlns="http://www.w3.org/2000/svg">
<g clip-path="url(#clip0_74_1744)">
<path d="M534.694 92.1582H397.152C395.057 67.038 383.598 43.6222 365.048 26.5526C346.497 9.48296 322.21 0.00584543 297 0C271.788 0.00377723 247.499 9.47994 228.947 26.5497C210.395 43.6196 198.935 67.0366 196.84 92.1582H59.2976C43.5701 92.1604 28.4876 98.409 17.3673 109.53C6.2471 120.65 -1.52115e-07 135.732 0 151.458V254.709C-1.52115e-07 270.435 6.2471 285.517 17.3673 296.638C28.4876 307.758 43.5701 314.007 59.2976 314.009H98.8899V332.979C98.8899 344.134 103.322 354.833 111.211 362.721C119.1 370.61 129.8 375.041 140.957 375.041H453.018C464.175 375.041 474.875 370.61 482.764 362.721C490.653 354.833 495.085 344.134 495.085 332.979V314.009H534.677C550.406 314.009 565.491 307.762 576.613 296.641C587.735 285.52 593.983 270.437 593.983 254.709V151.491C593.988 143.702 592.457 135.989 589.48 128.792C586.503 121.594 582.136 115.054 576.631 109.544C571.125 104.034 564.587 99.6632 557.392 96.68C550.196 93.6969 542.484 92.1604 534.694 92.1582Z" fill="#0099D1"/>
<path d="M189.012 165.058C188.99 165.567 188.843 166.063 188.583 166.502C185.492 171.148 181.283 174.942 176.342 177.537C171.184 180.305 165.41 181.724 159.557 181.661C153.652 181.709 147.828 180.292 142.606 177.537C137.593 174.956 133.342 171.109 130.275 166.378C127.304 161.869 125.726 156.586 125.738 151.186C125.725 145.784 127.303 140.497 130.275 135.986C133.35 131.251 137.598 127.392 142.606 124.786C147.825 122.021 153.651 120.604 159.557 120.662C162.007 120.589 164.452 120.926 166.791 121.66C168.486 122.255 170.139 122.963 171.74 123.779C172.355 124.172 173.064 124.394 173.794 124.423C174.071 124.457 174.351 124.393 174.586 124.243C174.821 124.092 174.996 123.864 175.08 123.598C175.298 123.165 175.604 122.783 175.979 122.476C176.443 122.096 177.029 121.896 177.629 121.915C178.28 121.901 178.916 122.114 179.427 122.517C179.93 122.897 180.27 123.455 180.376 124.076L183.032 137.594C183.09 137.973 183.062 138.36 182.951 138.727C182.839 139.094 182.647 139.431 182.388 139.714C182.127 140.013 181.804 140.251 181.44 140.411C181.076 140.57 180.682 140.648 180.285 140.637C179.786 140.638 179.297 140.498 178.874 140.233C178.458 139.984 178.118 139.624 177.893 139.194C175.55 134.548 172.993 131.15 170.222 129C167.45 126.85 163.84 125.77 159.392 125.759C156.259 125.697 153.187 126.62 150.607 128.398C148.096 130.164 146.114 132.583 144.875 135.392C143.503 138.462 142.816 141.795 142.862 145.157C142.885 147.201 143.114 149.238 143.547 151.235C144.337 155.147 146.032 158.818 148.496 161.957C150.719 164.804 153.578 167.092 156.843 168.638C160.004 170.122 163.455 170.885 166.947 170.873C170.167 170.878 173.355 170.241 176.326 169.001C179.316 167.749 181.99 165.847 184.154 163.434C184.42 163.127 184.749 162.883 185.12 162.718C185.49 162.552 185.892 162.47 186.298 162.477C186.921 162.517 187.518 162.741 188.014 163.12C188.333 163.33 188.592 163.619 188.767 163.958C188.942 164.298 189.026 164.677 189.012 165.058Z" fill="white"/>
<path d="M234.394 174.098C234.601 174.09 234.806 174.126 234.998 174.203C235.19 174.28 235.363 174.395 235.508 174.543C235.66 174.709 235.777 174.904 235.85 175.117C235.924 175.33 235.954 175.556 235.937 175.78C235.894 176.223 235.752 176.651 235.522 177.032C235.292 177.413 234.98 177.737 234.609 177.982C233.571 178.779 232.393 179.374 231.136 179.739C229.641 180.202 228.083 180.43 226.517 180.415C224.159 180.502 221.844 179.767 219.968 178.337C219.114 177.666 218.432 176.801 217.977 175.815C217.523 174.828 217.309 173.748 217.353 172.663V154.584C215.708 156.109 213.933 157.489 212.049 158.708C208.2 161.215 206.276 164.654 206.276 169.025C206.225 170.687 206.624 172.331 207.43 173.784C207.694 174.352 208.109 174.835 208.63 175.181C209.152 175.528 209.758 175.723 210.383 175.747C211.195 175.718 211.976 175.429 212.611 174.922C212.844 174.776 213.111 174.694 213.386 174.683C213.691 174.686 213.984 174.8 214.211 175.005C214.336 175.102 214.436 175.228 214.503 175.371C214.571 175.514 214.603 175.671 214.598 175.83C214.625 176.23 214.504 176.625 214.26 176.943C211.863 180.094 208.178 181.666 203.207 181.661C200.114 181.802 197.088 180.727 194.777 178.667C193.711 177.659 192.873 176.435 192.319 175.076C191.766 173.718 191.51 172.256 191.569 170.79C191.547 169.186 191.91 167.6 192.628 166.165C193.345 164.73 194.396 163.488 195.693 162.543C198.974 160.086 202.556 158.057 206.35 156.506C208.984 155.508 211.432 154.075 213.592 152.266C214.343 151.654 214.954 150.887 215.381 150.017C215.808 149.148 216.042 148.196 216.067 147.227C216.065 146.645 215.929 146.071 215.669 145.55C215.408 145.029 215.03 144.575 214.565 144.225C213.453 143.363 212.07 142.924 210.664 142.988C209.735 142.927 208.803 143.051 207.922 143.352C207.042 143.654 206.23 144.127 205.533 144.745C204.928 145.352 204.456 146.078 204.146 146.877C203.837 147.677 203.697 148.532 203.735 149.388C203.791 149.949 203.702 150.515 203.477 151.032C203.251 151.549 202.897 151.999 202.448 152.341C201.509 152.955 200.403 153.263 199.281 153.223C198.185 153.24 197.12 152.856 196.287 152.143C195.863 151.787 195.526 151.339 195.303 150.833C195.08 150.327 194.976 149.776 195 149.223C195.089 147.466 195.82 145.802 197.054 144.547C198.606 142.847 200.524 141.521 202.663 140.67C205.194 139.615 207.914 139.087 210.656 139.12C214.53 139.037 218.376 139.803 221.923 141.363C224.962 142.706 227.558 144.883 229.412 147.64C231.204 150.414 232.128 153.658 232.068 156.959V171.995C232.021 172.608 232.156 173.222 232.456 173.76C232.626 173.957 232.851 174.099 233.102 174.17C233.353 174.24 233.618 174.235 233.866 174.155L234.394 174.098Z" fill="white"/>
<path d="M257.26 174.502C257.51 175.342 257.916 176.129 258.456 176.819C258.873 177.27 259.116 177.855 259.141 178.469C259.142 178.728 259.084 178.984 258.973 179.218C258.861 179.452 258.699 179.659 258.497 179.822C258.037 180.208 257.448 180.408 256.848 180.382H242.001C241.421 180.402 240.855 180.201 240.417 179.822C240.215 179.659 240.053 179.452 239.941 179.218C239.83 178.984 239.773 178.728 239.773 178.469C239.795 177.854 240.038 177.268 240.458 176.819C240.998 176.129 241.404 175.342 241.654 174.502C242 173.061 242.145 171.579 242.083 170.098V155.384C242.145 153.906 242.001 152.426 241.654 150.988C241.404 150.145 240.998 149.356 240.458 148.662C240.032 148.217 239.788 147.629 239.773 147.013C239.771 146.752 239.828 146.494 239.94 146.259C240.051 146.023 240.214 145.816 240.417 145.652C240.857 145.275 241.421 145.075 242.001 145.091C243.188 145.126 244.369 144.907 245.465 144.448C246.662 143.885 247.822 143.246 248.937 142.534C250.076 141.842 251 141.314 251.717 140.967C252.492 140.609 253.338 140.431 254.192 140.448C254.89 140.433 255.565 140.694 256.072 141.173C256.321 141.393 256.519 141.663 256.653 141.967C256.787 142.27 256.853 142.599 256.848 142.93V145.009C258.359 143.211 260.223 141.743 262.324 140.695C264.262 139.709 266.403 139.186 268.577 139.169C271.531 139.09 274.416 140.07 276.71 141.932C277.813 142.848 278.688 144.006 279.268 145.317C279.848 146.628 280.115 148.055 280.05 149.487C280.114 150.556 279.957 151.626 279.588 152.631C279.219 153.635 278.646 154.553 277.906 155.326C277.233 155.999 276.433 156.529 275.551 156.886C274.67 157.243 273.726 157.419 272.775 157.405C270.942 157.458 269.162 156.781 267.826 155.524C267.186 154.961 266.675 154.267 266.328 153.488C265.981 152.709 265.805 151.865 265.814 151.013C265.822 150.019 265.921 149.028 266.111 148.052C266.252 147.391 266.352 146.722 266.408 146.048C266.416 145.897 266.395 145.747 266.344 145.605C266.293 145.463 266.213 145.333 266.111 145.223C265.798 145.004 265.418 144.905 265.038 144.943C263.885 145.069 262.781 145.483 261.83 146.147C260.489 146.945 259.3 147.972 258.316 149.182C257.393 150.222 256.864 151.553 256.823 152.943V170.139C256.768 171.606 256.915 173.075 257.26 174.502Z" fill="white"/>
<path d="M328.501 174.502C328.752 175.342 329.157 176.129 329.697 176.819C330.115 177.27 330.357 177.855 330.382 178.469C330.383 178.728 330.326 178.984 330.214 179.218C330.103 179.452 329.94 179.659 329.739 179.821C329.3 180.201 328.735 180.402 328.155 180.382H313.308C312.707 180.408 312.119 180.208 311.658 179.821C311.456 179.659 311.294 179.452 311.183 179.218C311.071 178.984 311.014 178.728 311.015 178.469C311.039 177.855 311.282 177.27 311.699 176.819C312.24 176.129 312.645 175.342 312.895 174.502C313.242 173.061 313.386 171.578 313.324 170.098V152.901C313.382 152.069 313.259 151.234 312.962 150.453C312.666 149.673 312.204 148.966 311.609 148.382C310.466 147.34 308.964 146.781 307.419 146.823C305.676 146.804 303.981 147.387 302.618 148.473C301.936 148.981 301.387 149.646 301.015 150.411C300.643 151.176 300.46 152.018 300.482 152.868V170.065C300.42 171.545 300.564 173.028 300.91 174.469C301.16 175.309 301.566 176.096 302.107 176.786C302.527 177.235 302.77 177.821 302.791 178.436C302.792 178.695 302.735 178.951 302.623 179.185C302.512 179.419 302.349 179.626 302.148 179.789C301.687 180.175 301.099 180.376 300.498 180.349H285.651C285.071 180.369 284.506 180.168 284.067 179.789C283.866 179.626 283.703 179.419 283.592 179.185C283.48 178.951 283.423 178.695 283.424 178.436C283.449 177.822 283.691 177.237 284.109 176.786C284.649 176.096 285.055 175.309 285.305 174.469C285.655 173.028 285.802 171.546 285.742 170.065V155.384C285.802 153.905 285.655 152.426 285.305 150.988C285.055 150.145 284.649 149.356 284.109 148.662C283.689 148.213 283.446 147.627 283.424 147.013C283.422 146.752 283.479 146.494 283.59 146.259C283.701 146.023 283.865 145.816 284.067 145.652C284.507 145.275 285.072 145.075 285.651 145.091C286.841 145.125 288.025 144.906 289.123 144.448C290.318 143.885 291.475 143.246 292.588 142.534C293.726 141.842 294.658 141.314 295.368 140.967C296.143 140.61 296.989 140.433 297.842 140.448C298.542 140.434 299.22 140.695 299.731 141.173C299.977 141.394 300.173 141.665 300.306 141.968C300.438 142.272 300.503 142.6 300.498 142.93V145.404C302.335 143.476 304.532 141.927 306.965 140.844C309.314 139.764 311.869 139.201 314.454 139.194C316.279 139.132 318.096 139.456 319.786 140.146C321.476 140.835 323.001 141.874 324.262 143.194C326.802 145.866 328.073 149.974 328.073 155.516V170.147C328.015 171.611 328.16 173.077 328.501 174.502Z" fill="white"/>
<path d="M377.052 174.098C377.258 174.09 377.464 174.126 377.655 174.203C377.847 174.28 378.021 174.396 378.165 174.543C378.315 174.711 378.429 174.907 378.503 175.119C378.577 175.331 378.608 175.556 378.594 175.78C378.551 176.223 378.409 176.651 378.179 177.032C377.95 177.413 377.638 177.737 377.266 177.982C376.227 178.777 375.049 179.373 373.794 179.739C372.298 180.201 370.74 180.429 369.174 180.415C366.816 180.503 364.501 179.768 362.625 178.337C361.77 177.667 361.086 176.803 360.632 175.816C360.177 174.829 359.964 173.748 360.01 172.663V154.584C358.364 156.111 356.586 157.491 354.698 158.708C350.877 161.215 348.952 164.654 348.924 169.025C348.87 170.687 349.269 172.332 350.079 173.784C350.342 174.353 350.757 174.837 351.278 175.184C351.799 175.53 352.407 175.725 353.032 175.747C353.844 175.718 354.625 175.429 355.259 174.922C355.49 174.777 355.754 174.695 356.026 174.683C356.331 174.687 356.625 174.801 356.851 175.005C356.976 175.102 357.077 175.228 357.144 175.371C357.211 175.514 357.244 175.671 357.239 175.83C357.263 176.231 357.14 176.627 356.893 176.943C354.501 180.094 350.819 181.666 345.848 181.661C342.755 181.802 339.729 180.727 337.418 178.667C336.35 177.66 335.511 176.436 334.956 175.077C334.401 173.719 334.144 172.257 334.201 170.79C334.18 169.186 334.543 167.6 335.261 166.166C335.978 164.731 337.029 163.488 338.325 162.543C341.607 160.086 345.188 158.057 348.982 156.506C351.615 155.51 354.061 154.077 356.216 152.266C356.969 151.656 357.58 150.889 358.007 150.019C358.434 149.149 358.667 148.196 358.691 147.227C358.691 146.645 358.556 146.071 358.297 145.551C358.038 145.03 357.662 144.576 357.198 144.225C356.085 143.364 354.702 142.926 353.296 142.988C352.366 142.927 351.433 143.051 350.551 143.353C349.669 143.654 348.856 144.127 348.157 144.745C347.554 145.353 347.082 146.079 346.773 146.878C346.463 147.677 346.322 148.532 346.359 149.388C346.415 149.942 346.328 150.501 346.109 151.013C345.89 151.525 345.545 151.973 345.106 152.316C344.164 152.932 343.054 153.24 341.93 153.198C340.834 153.212 339.77 152.829 338.936 152.118C338.513 151.762 338.178 151.313 337.956 150.807C337.735 150.301 337.632 149.75 337.657 149.198C337.747 147.441 338.477 145.777 339.711 144.522C341.262 142.82 343.18 141.495 345.32 140.646C347.865 139.592 350.6 139.073 353.354 139.12C357.226 139.038 361.068 139.803 364.613 141.363C367.656 142.704 370.256 144.88 372.111 147.64C373.9 150.414 374.821 153.659 374.759 156.959V171.995C374.715 172.608 374.85 173.221 375.146 173.76C375.317 173.957 375.541 174.099 375.792 174.17C376.043 174.24 376.309 174.235 376.557 174.155L377.052 174.098Z" fill="white"/>
<path d="M417.163 180.061C416.821 180.289 416.419 180.413 416.008 180.415H384.499C384.058 180.431 383.619 180.358 383.206 180.201C382.794 180.044 382.417 179.805 382.099 179.5C381.797 179.219 381.558 178.877 381.396 178.498C381.234 178.119 381.153 177.71 381.158 177.298C381.159 176.823 381.275 176.356 381.497 175.937L403.594 144.266H398.2C397.149 144.244 396.111 144.506 395.197 145.025C394.104 145.713 393.075 146.497 392.121 147.367L386.207 153.446C385.996 153.689 385.733 153.88 385.437 154.004C385.141 154.129 384.82 154.183 384.499 154.163C384.197 154.194 383.892 154.157 383.607 154.054C383.321 153.951 383.062 153.786 382.849 153.57C382.498 153.156 382.313 152.627 382.33 152.085C382.323 151.87 382.354 151.655 382.42 151.45L386.099 141.685C386.282 141.308 386.568 140.99 386.924 140.769C387.265 140.537 387.667 140.411 388.079 140.406H417.361C417.817 140.39 418.272 140.467 418.698 140.633C419.123 140.799 419.51 141.05 419.835 141.371C420.146 141.654 420.394 142 420.563 142.385C420.733 142.77 420.819 143.186 420.817 143.606C420.823 144.108 420.707 144.603 420.478 145.05L398.389 176.564H405.92C407.916 176.564 409.943 175.525 411.999 173.446L417.905 167.368C418.123 167.132 418.389 166.945 418.685 166.82C418.98 166.695 419.3 166.634 419.621 166.642C419.922 166.624 420.224 166.669 420.508 166.772C420.792 166.876 421.051 167.036 421.271 167.244C421.627 167.624 421.825 168.125 421.823 168.646C421.803 168.893 421.744 169.135 421.65 169.364L417.971 179.12C417.798 179.505 417.517 179.832 417.163 180.061Z" fill="white"/>
<path d="M467.18 174.098C467.387 174.09 467.592 174.126 467.784 174.203C467.976 174.28 468.149 174.395 468.294 174.543C468.443 174.711 468.558 174.907 468.632 175.119C468.705 175.331 468.736 175.556 468.723 175.78C468.68 176.223 468.538 176.651 468.308 177.032C468.078 177.413 467.766 177.737 467.395 177.982C466.355 178.777 465.178 179.373 463.922 179.739C462.427 180.202 460.868 180.43 459.303 180.415C456.945 180.503 454.63 179.768 452.754 178.337C451.898 177.667 451.215 176.803 450.76 175.816C450.306 174.829 450.093 173.748 450.139 172.663V154.584C448.492 156.111 446.715 157.491 444.827 158.708C441.005 161.215 439.081 164.654 439.053 169.025C439.002 170.687 439.401 172.331 440.208 173.784C440.472 174.352 440.887 174.835 441.408 175.181C441.929 175.528 442.536 175.724 443.161 175.747C443.972 175.718 444.753 175.429 445.388 174.922C445.619 174.777 445.883 174.695 446.155 174.683C446.46 174.687 446.753 174.801 446.98 175.005C447.105 175.102 447.205 175.228 447.273 175.371C447.34 175.514 447.372 175.671 447.368 175.83C447.392 176.231 447.268 176.626 447.021 176.943C444.629 180.094 440.948 181.666 435.976 181.661C432.903 181.802 429.895 180.744 427.588 178.708C426.52 177.701 425.681 176.477 425.126 175.118C424.571 173.76 424.314 172.298 424.371 170.832C424.35 169.228 424.713 167.642 425.431 166.207C426.148 164.772 427.199 163.53 428.495 162.584C431.777 160.127 435.358 158.098 439.152 156.547C441.785 155.551 444.231 154.118 446.386 152.308C447.139 151.697 447.75 150.93 448.177 150.06C448.604 149.19 448.837 148.237 448.861 147.268C448.861 146.687 448.726 146.113 448.467 145.592C448.208 145.071 447.832 144.617 447.368 144.266C446.255 143.404 444.872 142.966 443.466 143.029C442.537 142.968 441.605 143.091 440.725 143.393C439.844 143.694 439.032 144.168 438.336 144.786C437.729 145.392 437.255 146.118 436.944 146.918C436.633 147.717 436.492 148.572 436.529 149.429C436.586 149.99 436.498 150.555 436.274 151.072C436.051 151.589 435.698 152.04 435.251 152.382C434.312 152.996 433.205 153.305 432.083 153.264C430.985 153.28 429.918 152.896 429.081 152.184C428.658 151.828 428.323 151.379 428.101 150.873C427.88 150.367 427.777 149.816 427.802 149.264C427.892 147.507 428.622 145.843 429.856 144.588C431.408 142.888 433.326 141.563 435.465 140.712C438 139.663 440.723 139.144 443.466 139.186C447.338 139.104 451.181 139.869 454.725 141.429C457.768 142.77 460.368 144.946 462.223 147.705C464.014 150.479 464.939 153.724 464.879 157.025V172.061C464.834 172.673 464.965 173.286 465.258 173.826C465.431 174.022 465.657 174.165 465.909 174.235C466.161 174.305 466.428 174.301 466.677 174.221L467.18 174.098Z" fill="white"/>
<path d="M154.311 192.465C154.781 192.843 155.16 193.323 155.417 193.869C155.675 194.415 155.804 195.012 155.795 195.616C155.834 196.326 155.695 197.034 155.391 197.677C155.043 198.303 154.637 198.894 154.179 199.442C152.995 201.147 152.064 203.014 151.415 204.985C150.739 207.008 150.401 210.247 150.401 214.7V279.328C150.402 279.866 150.287 280.397 150.065 280.886C149.843 281.376 149.519 281.812 149.114 282.165C148.3 282.95 147.209 283.38 146.079 283.361C144.832 283.401 143.62 282.947 142.705 282.099L76.2891 209.719V259.905C76.2891 264.37 76.6273 267.606 77.3036 269.613C77.9541 271.586 78.8846 273.455 80.0667 275.163C80.5249 275.714 80.9334 276.305 81.2875 276.928C81.5813 277.56 81.7199 278.253 81.6916 278.949C81.7001 279.552 81.5709 280.15 81.3136 280.696C81.0564 281.242 80.6779 281.722 80.2071 282.099C79.0968 282.98 77.7048 283.429 76.2891 283.361H67.6528C66.237 283.43 64.8444 282.982 63.7349 282.099C63.264 281.722 62.8856 281.242 62.6283 280.696C62.371 280.15 62.2418 279.552 62.2503 278.949C62.2181 278.253 62.3569 277.559 62.6545 276.928C62.9996 276.322 63.394 275.746 63.8339 275.205C65.0187 273.496 65.9521 271.627 66.6055 269.654C67.2818 267.642 67.62 264.406 67.62 259.947V214.659C67.62 210.206 67.2818 206.967 66.6055 204.944C65.9503 202.974 65.017 201.107 63.8339 199.401C63.3807 198.848 62.9751 198.258 62.6214 197.636C62.3245 197.006 62.1858 196.312 62.2173 195.616C62.2088 195.012 62.338 194.415 62.5953 193.869C62.8525 193.323 63.2312 192.843 63.702 192.465C64.8116 191.583 66.2041 191.134 67.62 191.203H89.0658C90.5058 191.205 91.9296 191.506 93.2476 192.086C94.5868 192.664 95.7853 193.525 96.7615 194.609L141.707 244.037V214.659C141.707 210.206 141.372 206.967 140.701 204.944C140.046 202.974 139.112 201.107 137.929 199.401C137.476 198.848 137.071 198.258 136.717 197.636C136.42 197.006 136.281 196.312 136.313 195.616C136.304 195.012 136.433 194.415 136.691 193.869C136.948 193.323 137.326 192.843 137.797 192.465C138.904 191.584 140.294 191.136 141.707 191.203H150.442C151.841 191.146 153.214 191.594 154.311 192.465Z" fill="white"/>
<path d="M226.666 273.415C226.991 273.402 227.315 273.457 227.617 273.576C227.92 273.696 228.194 273.877 228.423 274.108C228.898 274.644 229.142 275.347 229.099 276.062C229.099 277.239 228.401 278.396 227.004 279.534C225.37 280.792 223.515 281.732 221.535 282.306C219.178 283.038 216.721 283.4 214.252 283.378C210.531 283.513 206.879 282.347 203.925 280.079C202.577 279.021 201.5 277.658 200.783 276.102C200.066 274.546 199.73 272.842 199.801 271.13V242.635C198.454 244.064 195.666 246.264 191.437 249.233C185.388 253.181 182.364 258.602 182.364 265.497C182.284 268.117 182.914 270.71 184.187 273.002C185.407 275.053 186.961 276.081 188.847 276.087C190.12 276.051 191.349 275.609 192.353 274.825C192.722 274.602 193.142 274.474 193.573 274.454C194.046 274.462 194.5 274.641 194.852 274.957C195.045 275.105 195.201 275.296 195.307 275.516C195.413 275.735 195.466 275.976 195.462 276.219C195.5 276.854 195.307 277.481 194.918 277.984C191.14 282.932 185.336 285.407 177.505 285.407C172.007 285.407 167.574 283.829 164.209 280.673C160.844 277.517 159.156 273.376 159.145 268.252C159.145 262.957 161.328 258.608 165.694 255.204C170.872 251.333 176.521 248.135 182.504 245.687C187.547 243.581 191.349 241.351 193.911 238.998C196.474 236.644 197.755 233.997 197.755 231.055C197.754 230.139 197.54 229.235 197.131 228.415C196.722 227.595 196.128 226.881 195.396 226.329C193.645 224.969 191.467 224.276 189.251 224.375C185.748 224.375 183.048 225.299 181.151 227.146C180.201 228.104 179.459 229.249 178.972 230.508C178.485 231.767 178.264 233.113 178.322 234.462C178.322 236.661 177.646 238.217 176.293 239.13C174.808 240.092 173.063 240.575 171.294 240.515C169.566 240.541 167.888 239.933 166.576 238.808C165.908 238.248 165.377 237.542 165.025 236.744C164.673 235.946 164.51 235.077 164.547 234.206C164.547 231.776 165.628 229.318 167.789 226.833C170.236 224.153 173.259 222.063 176.631 220.721C180.63 219.07 184.925 218.253 189.251 218.321C195.354 218.192 201.412 219.396 207.002 221.851C211.796 223.966 215.892 227.398 218.813 231.748C221.64 236.119 223.099 241.233 223.004 246.437V270.149C222.93 271.111 223.139 272.075 223.606 272.92C224.01 273.505 224.752 273.745 225.833 273.547L226.666 273.415Z" fill="white"/>
<path d="M275.941 279.724C273.824 281.499 271.397 282.866 268.782 283.757C266.023 284.812 263.099 285.371 260.145 285.407C254.895 285.555 249.774 283.758 245.769 280.359C241.853 276.994 239.896 272.046 239.896 265.514V226.379H234.493C233.6 226.418 232.727 226.1 232.068 225.496C231.765 225.23 231.523 224.901 231.359 224.533C231.195 224.164 231.114 223.764 231.119 223.36C231.117 222.95 231.207 222.544 231.382 222.173C231.558 221.801 231.815 221.474 232.134 221.216C232.781 220.636 233.624 220.32 234.493 220.333C237.11 220.33 239.635 219.364 241.587 217.62C244.324 215.142 246.831 212.42 249.076 209.488C250.719 207.298 252.522 205.234 254.471 203.311C255.638 202.086 257.235 201.362 258.925 201.29C260.028 201.263 261.098 201.672 261.902 202.428C262.291 202.776 262.601 203.204 262.81 203.682C263.019 204.16 263.123 204.677 263.115 205.199V220.333H271.487C272.338 220.314 273.162 220.632 273.78 221.216C274.081 221.486 274.32 221.816 274.483 222.186C274.645 222.556 274.726 222.957 274.72 223.36C274.726 223.763 274.645 224.162 274.482 224.531C274.32 224.899 274.081 225.228 273.78 225.496C273.162 226.081 272.338 226.398 271.487 226.379H263.115V265.349C263.115 268.796 263.676 271.27 264.765 272.772C265.214 273.458 265.825 274.024 266.544 274.419C267.263 274.815 268.068 275.028 268.889 275.04C269.804 275.021 270.712 274.874 271.586 274.602C272.242 274.374 272.923 274.224 273.615 274.157C274.496 274.151 275.343 274.492 275.974 275.106C276.301 275.397 276.56 275.756 276.736 276.158C276.911 276.559 276.997 276.993 276.989 277.431C277.022 277.871 276.944 278.312 276.761 278.713C276.577 279.114 276.295 279.462 275.941 279.724Z" fill="white"/>
<path d="M282.012 236.977C281.613 235.651 280.972 234.41 280.124 233.315C279.447 232.598 279.061 231.654 279.043 230.668C279.042 230.257 279.133 229.852 279.308 229.481C279.484 229.11 279.74 228.783 280.058 228.523C280.745 227.934 281.627 227.62 282.532 227.641C284.403 227.698 286.265 227.355 287.993 226.635C289.878 225.744 291.705 224.733 293.461 223.608C295.259 222.519 296.761 221.694 297.849 221.134C299.054 220.569 300.371 220.287 301.701 220.309C302.8 220.285 303.865 220.691 304.671 221.439C305.06 221.789 305.369 222.218 305.578 222.697C305.788 223.176 305.891 223.695 305.883 224.218V263.683C305.883 266.789 306.782 269.165 308.581 270.809C310.378 272.454 312.743 273.34 315.179 273.283C317.93 273.296 320.601 272.361 322.743 270.635C323.818 269.832 324.685 268.783 325.272 267.577C325.859 266.37 326.148 265.041 326.117 263.699V243.905C326.209 241.573 325.981 239.239 325.44 236.969C325.04 235.643 324.4 234.402 323.551 233.307C322.875 232.589 322.489 231.646 322.471 230.659C322.47 230.249 322.561 229.844 322.736 229.473C322.912 229.102 323.168 228.775 323.485 228.515C324.172 227.924 325.054 227.61 325.96 227.633C327.834 227.689 329.698 227.346 331.429 226.626C333.314 225.735 335.141 224.724 336.897 223.6C338.695 222.511 340.197 221.686 341.286 221.125C342.487 220.561 343.802 220.279 345.129 220.301C346.229 220.275 347.294 220.68 348.099 221.43C348.488 221.78 348.799 222.209 349.01 222.688C349.22 223.167 349.326 223.686 349.319 224.21V267.097C349.226 269.429 349.451 271.762 349.987 274.033C350.386 275.358 351.026 276.597 351.876 277.687C352.55 278.406 352.935 279.349 352.957 280.335C352.961 280.745 352.873 281.15 352.699 281.521C352.524 281.893 352.269 282.22 351.951 282.479C351.213 283.088 350.275 283.402 349.319 283.361H328.929C328.554 283.371 328.18 283.302 327.833 283.16C327.485 283.018 327.17 282.806 326.908 282.537C326.655 282.303 326.451 282.02 326.309 281.705C326.168 281.391 326.091 281.051 326.084 280.706V275.534C323.186 278.573 319.723 281.016 315.889 282.726C312.187 284.445 308.158 285.347 304.077 285.374C297.775 285.374 292.623 283.271 288.619 279.064C284.616 274.858 282.615 268.387 282.615 259.65V243.889C282.734 241.568 282.531 239.242 282.012 236.977Z" fill="white"/>
<path d="M391.354 274.05C391.752 275.374 392.392 276.613 393.242 277.704C393.917 278.423 394.301 279.366 394.323 280.351C394.325 280.762 394.235 281.167 394.06 281.539C393.884 281.91 393.627 282.237 393.308 282.495C392.571 283.105 391.633 283.42 390.677 283.378H367.326C366.421 283.397 365.54 283.083 364.851 282.495C364.535 282.235 364.28 281.908 364.106 281.537C363.932 281.166 363.843 280.761 363.845 280.351C363.854 279.36 364.23 278.408 364.901 277.679C365.751 276.588 366.392 275.349 366.79 274.025C367.327 271.754 367.551 269.421 367.458 267.089V243.889C367.553 241.557 367.328 239.223 366.79 236.952C366.39 235.626 365.75 234.385 364.901 233.29C364.224 232.573 363.839 231.629 363.82 230.643C363.82 230.233 363.91 229.829 364.084 229.458C364.258 229.088 364.511 228.76 364.827 228.499C365.515 227.911 366.396 227.596 367.301 227.616C369.175 227.673 371.039 227.33 372.77 226.61C374.656 225.719 376.482 224.708 378.238 223.583C380.037 222.494 381.538 221.67 382.627 221.109C383.828 220.544 385.143 220.262 386.47 220.284C387.57 220.258 388.636 220.664 389.44 221.414C389.829 221.764 390.138 222.193 390.347 222.672C390.556 223.152 390.661 223.67 390.652 224.193V227.492C393.039 224.658 395.981 222.343 399.297 220.688C402.348 219.134 405.72 218.312 409.145 218.288C413.804 218.157 418.356 219.702 421.972 222.643C425.485 225.535 427.242 229.505 427.242 234.552C427.242 238.511 426.112 241.571 423.86 243.757C422.8 244.821 421.537 245.661 420.145 246.228C418.754 246.795 417.263 247.076 415.76 247.056C412.885 247.125 410.097 246.062 407.999 244.095C406.993 243.202 406.19 242.104 405.644 240.875C405.097 239.646 404.82 238.314 404.831 236.969C404.851 235.407 405.014 233.85 405.318 232.317C405.542 231.278 405.699 230.226 405.788 229.167C405.806 228.925 405.774 228.682 405.693 228.453C405.612 228.225 405.484 228.015 405.318 227.839C404.842 227.49 404.257 227.324 403.668 227.369C402.415 227.369 400.724 227.995 398.612 229.257C396.498 230.514 394.624 232.137 393.077 234.049C391.616 235.687 390.778 237.786 390.71 239.979V267.089C390.606 269.428 390.822 271.77 391.354 274.05Z" fill="white"/>
<path d="M492.75 273.415C493.075 273.403 493.399 273.458 493.701 273.577C494.004 273.696 494.278 273.877 494.507 274.108C494.98 274.645 495.22 275.348 495.175 276.062C495.175 277.239 494.48 278.396 493.088 279.535C491.453 280.789 489.599 281.729 487.62 282.306C485.259 283.039 482.799 283.4 480.328 283.378C476.607 283.513 472.955 282.346 470.001 280.079C468.653 279.022 467.576 277.658 466.859 276.102C466.141 274.546 465.805 272.842 465.877 271.13V242.635C464.524 244.065 461.734 246.264 457.505 249.233C451.456 253.181 448.432 258.602 448.432 265.497C448.349 268.118 448.979 270.712 450.254 273.002C451.464 275.053 453.015 276.082 454.907 276.087C456.182 276.051 457.413 275.609 458.42 274.825C458.787 274.601 459.204 274.473 459.633 274.454C460.109 274.461 460.565 274.64 460.92 274.957C461.112 275.106 461.267 275.297 461.371 275.516C461.476 275.736 461.527 275.976 461.522 276.219C461.558 276.852 461.368 277.478 460.986 277.984C457.208 282.933 451.404 285.407 443.573 285.407C438.074 285.407 433.642 283.829 430.277 280.673C426.912 277.517 425.223 273.376 425.212 268.252C425.177 265.711 425.754 263.199 426.894 260.928C428.033 258.657 429.703 256.694 431.762 255.204C436.938 251.335 442.583 248.137 448.564 245.687C453.601 243.581 457.403 241.351 459.971 238.998C462.539 236.644 463.82 233.997 463.815 231.055C463.814 230.139 463.6 229.235 463.191 228.415C462.781 227.595 462.188 226.881 461.456 226.33C459.705 224.968 457.527 224.275 455.311 224.375C451.808 224.375 449.108 225.299 447.211 227.146C446.26 228.105 445.518 229.249 445.032 230.508C444.545 231.767 444.323 233.113 444.382 234.462C444.382 236.661 443.705 238.217 442.352 239.13C440.882 240.085 439.156 240.568 437.403 240.515C435.673 240.541 433.992 239.934 432.677 238.808C432.009 238.248 431.48 237.541 431.129 236.743C430.779 235.945 430.617 235.077 430.656 234.206C430.656 231.776 431.734 229.318 433.89 226.833C436.336 224.153 439.36 222.063 442.732 220.721C446.731 219.07 451.026 218.253 455.352 218.321C461.458 218.191 467.519 219.396 473.111 221.851C477.904 223.968 481.999 227.4 484.923 231.748C487.746 236.12 489.202 241.234 489.105 246.437V270.149C489.033 271.112 489.245 272.076 489.715 272.92C490.119 273.506 490.861 273.745 491.934 273.547L492.75 273.415Z" fill="white"/>
<path d="M528.772 274.05C529.169 275.376 529.813 276.615 530.669 277.704C531.338 278.425 531.72 279.367 531.741 280.351C531.744 280.761 531.654 281.166 531.48 281.537C531.306 281.908 531.052 282.235 530.735 282.495C530.047 283.083 529.166 283.398 528.261 283.378H504.909C503.951 283.419 503.011 283.105 502.27 282.495C501.953 282.235 501.698 281.908 501.524 281.537C501.35 281.166 501.261 280.761 501.264 280.351C501.285 279.366 501.67 278.423 502.344 277.704C503.194 276.613 503.835 275.374 504.233 274.05C504.773 271.779 505.001 269.446 504.909 267.114V213.777C504.998 211.423 504.77 209.068 504.233 206.775C503.844 205.427 503.203 204.165 502.344 203.055C501.67 202.336 501.285 201.393 501.264 200.407C501.248 199.987 501.331 199.569 501.506 199.187C501.68 198.805 501.942 198.469 502.27 198.205C503.025 197.629 503.96 197.337 504.909 197.381C506.852 197.424 508.783 197.059 510.576 196.308C512.379 195.492 514.098 194.501 515.707 193.348C517.505 192.248 518.967 191.423 520.095 190.873C521.295 190.305 522.611 190.023 523.938 190.049C525.04 190.021 526.107 190.43 526.908 191.187C527.296 191.536 527.604 191.963 527.813 192.441C528.023 192.919 528.127 193.436 528.12 193.958V267.097C528.019 269.434 528.238 271.773 528.772 274.05Z" fill="white"/>
</g>
<defs>
<clipPath id="clip0_74_1744">
<rect width="594" height="375" fill="white"/>
</clipPath>
</defs>
</svg>
