<svg width="469" height="453" viewBox="0 0 469 453" fill="none" xmlns="http://www.w3.org/2000/svg">
<path d="M464.155 226.304C464.155 348.641 361.476 448.048 234.524 448.048C107.572 448.048 4.89355 348.641 4.89355 226.304C4.89355 103.967 107.572 4.56006 234.524 4.56006C361.476 4.56006 464.155 103.967 464.155 226.304Z" fill="#6CBBD8" stroke="black" stroke-width="8"/>
<g clip-path="url(#clip0)">
<path d="M232.569 444.625C200.441 444.625 166.839 434.052 132.943 413.493C84.0147 384.124 54.8345 335.665 54.8345 283.974C54.8345 271.052 56.603 257.248 60.4347 243.445C55.1292 241.095 50.1185 238.158 45.992 234.34C27.4227 218.774 23.8857 193.811 21.5277 179.126C20.6435 173.546 19.7592 167.965 18.875 164.441C7.37973 127.436 7.37973 105.115 19.1697 89.2556C24.77 81.6195 35.6757 72.515 55.1292 72.515C69.2772 72.515 82.8357 73.9835 95.5099 76.6267C96.9837 74.2772 98.4575 71.9276 100.521 69.8718C107.3 62.2357 116.437 57.8303 127.932 56.3619C131.764 55.4808 135.891 55.1871 140.312 55.1871C144.733 55.1871 149.154 55.4808 154.165 56.3619C156.228 56.6556 158.586 56.9492 160.65 57.5366C161.239 54.0123 161.829 50.488 162.713 46.67L163.302 43.4393C163.597 41.0898 164.187 38.4465 164.481 36.097C165.366 30.8105 167.429 26.1114 170.376 21.706C175.977 9.07718 188.356 0.853752 202.209 0.853752C210.168 0.853752 217.831 3.497 224.021 8.48979L229.326 12.8952L236.695 7.31501C242.59 2.90961 249.664 0.560059 257.328 0.560059C271.181 0.560059 283.56 8.48979 289.161 21.1186C293.877 28.461 295.056 35.5096 295.645 38.4465L298.887 57.5366C305.667 56.0682 311.856 55.1871 318.046 55.1871C319.815 55.1871 321.288 55.1871 323.057 55.4808C325.71 55.7745 328.362 56.0682 330.72 56.3619C342.216 57.8303 351.353 62.2357 358.132 69.8718C360.49 72.515 362.553 75.1583 364.027 78.3889C378.765 74.5709 394.386 72.8087 410.892 72.8087C430.641 72.8087 441.252 81.9132 447.147 89.5492C458.937 105.115 458.937 127.729 447.441 164.441C446.262 167.965 445.673 173.252 444.789 179.126C442.136 196.454 437.125 231.11 404.997 243.445C408.534 257.248 410.598 271.052 410.598 283.974C410.598 338.308 377.586 389.704 324.531 418.193C291.224 436.108 261.159 444.625 232.569 444.625Z" fill="black"/>
<path d="M440.368 94.2488C435.947 88.0812 427.104 81.0326 410.893 81.0326C393.797 81.0326 378.765 83.0884 365.796 86.6128C363.438 87.2002 361.08 87.4939 358.722 88.0812C357.543 83.6758 355.48 79.2704 351.943 75.4524C345.753 68.6975 337.795 65.4668 329.247 64.5857C326.889 63.9984 324.531 63.7047 322.173 63.7047C320.699 63.7047 319.226 63.411 317.752 63.411C308.615 63.411 300.067 65.4668 292.109 67.8164L287.393 39.6218C287.098 36.9785 285.919 31.1047 281.792 24.9371C277.666 15.2452 268.234 8.78394 257.328 8.78394C251.728 8.78394 246.128 10.5461 241.412 14.0704L233.748 19.9443C231.98 21.1191 230.211 21.4128 229.032 21.4128C227.853 21.4128 226.085 21.1191 224.316 19.6506L218.716 15.2452C214 11.4272 208.105 9.37132 202.21 9.37132C191.304 9.37132 181.872 16.1263 177.746 25.8182C175.388 29.3425 173.619 33.4542 172.735 37.8596C172.145 40.2092 171.851 42.5587 171.556 45.202L170.966 48.4326C169.787 54.8938 168.608 61.3551 167.429 68.1101C162.419 66.6416 157.703 65.4668 152.987 64.8794C148.565 64.2921 144.439 63.9984 140.607 63.9984C136.481 63.9984 132.944 64.2921 129.701 64.8794C121.154 65.7605 113.195 68.9912 107.3 75.7461C104.353 78.9767 102.29 82.7948 101.111 86.6128C88.1417 83.3821 73.1094 81.3263 56.0139 81.0326C39.8027 81.0326 31.2549 88.3749 26.5389 94.2488C16.5174 107.465 16.8122 127.73 27.4232 161.798C28.6022 165.91 29.4864 171.784 30.3707 177.658C32.4339 192.049 35.9709 214.37 51.8874 227.879C56.6034 232.285 62.7932 235.809 71.0462 237.865C66.3302 253.431 63.6774 268.997 63.6774 283.975C63.6774 332.728 91.3839 378.544 137.66 406.445C170.377 426.123 202.505 436.402 233.159 436.402C260.276 436.402 289.161 428.179 320.699 411.144C371.102 383.831 402.345 335.371 402.345 284.269C402.345 269.29 399.692 253.725 394.976 238.159C429.167 230.229 433.883 197.042 436.831 178.245C437.715 172.371 438.599 166.497 439.778 162.386C449.8 128.024 450.095 107.759 440.368 94.2488Z" fill="white"/>
<path d="M142.965 152.988C142.965 152.988 119.975 117.745 58.0773 117.745C38.6238 117.745 37.7395 135.366 47.4663 167.379C53.656 187.35 48.0558 222.594 84.8995 222.3" fill="#F1A494"/>
<path d="M310.383 135.366C310.383 135.366 333.373 100.122 395.271 100.122C414.724 100.122 415.608 117.744 405.882 149.757C399.692 169.728 405.292 204.971 368.449 204.677" fill="#F1A494"/>
<path d="M376.112 292.198C376.112 334.784 349.29 373.551 309.204 394.991C287.982 406.445 262.928 416.43 236.106 416.43C206.631 416.43 179.219 404.976 156.818 391.467C120.269 369.439 96.3943 332.728 96.3943 292.198C96.3943 226.998 158.881 140.946 236.106 140.946C313.33 140.946 376.112 226.998 376.112 292.198Z" fill="#F1A494"/>
<path d="M378.765 283.681C378.765 313.932 365.501 342.42 344.279 363.86C333.079 375.314 319.815 384.712 305.667 392.054C289.456 400.571 272.36 407.326 254.38 410.851C218.126 417.899 181.872 406.151 150.923 387.649C124.396 371.789 101.995 348 91.9732 318.631C74.2882 266.353 100.521 207.908 137.07 170.022C155.934 150.344 179.809 134.485 206.631 128.024C233.158 121.562 261.16 125.674 285.624 138.009C310.383 150.638 331.605 170.315 347.227 193.224C362.554 215.251 373.754 240.215 377.881 266.647C378.47 272.227 378.765 278.101 378.765 283.681C378.765 291.905 391.439 291.905 391.439 283.681C391.439 255.487 382.007 227.879 368.449 203.503C353.711 177.07 333.079 153.869 308.025 136.834C283.561 120.094 253.791 110.402 223.726 112.751C193.367 115.101 165.661 128.611 142.375 147.995C119.385 167.085 100.816 192.049 88.7309 219.362C76.9409 245.501 70.4564 274.283 74.8777 302.771C79.8884 335.665 99.6367 365.328 125.28 385.887C154.46 408.795 192.188 425.242 229.621 426.123C249.664 426.416 269.707 422.011 288.277 414.669C305.077 407.914 321.583 399.69 336.026 388.53C362.259 368.559 382.597 340.364 389.081 307.764C390.555 299.834 391.439 291.905 391.439 283.975C391.734 275.458 378.765 275.458 378.765 283.681Z" fill="black"/>
<path d="M314.509 142.708C314.804 142.121 315.099 141.827 315.394 141.533C316.278 140.358 314.51 142.414 315.099 141.827C315.394 141.533 315.394 141.239 315.688 141.239C316.278 140.358 316.867 139.771 317.457 138.89C318.931 137.128 320.699 135.366 322.468 133.897C323.647 133.016 324.531 131.841 325.71 130.96C326.299 130.373 326.889 129.785 327.478 129.492C327.773 129.198 328.068 128.904 328.363 128.904C329.247 128.023 328.657 128.611 328.952 128.611C344.869 116.569 363.733 109.521 383.186 105.996C389.671 104.821 396.45 104.234 402.935 103.94C408.535 103.647 412.956 103.353 417.672 104.821C418.851 105.115 416.493 104.234 417.967 104.821C418.262 105.115 418.556 105.115 418.851 105.409C419.146 105.703 419.44 105.703 419.735 105.996C418.851 105.409 419.44 105.703 419.735 105.996C421.504 107.465 421.209 107.171 422.388 109.521C422.388 109.814 422.978 110.695 422.388 109.521C422.388 109.814 422.683 110.402 422.683 110.695C422.977 111.576 423.272 112.457 423.272 113.339C423.567 114.513 423.567 114.513 423.567 115.394C423.567 116.569 423.862 117.744 423.862 119.212C423.862 131.548 420.03 143.883 416.493 155.63C414.135 163.56 413.546 171.784 412.072 179.713C410.598 189.112 408.829 197.922 403.524 205.558C401.461 208.495 398.219 211.432 394.387 213.194C389.671 215.544 383.481 216.131 377.881 216.131C369.628 216.131 369.628 228.76 377.881 228.76C389.671 228.76 401.461 225.823 410.009 217.6C417.083 210.845 420.619 201.153 422.683 192.048C424.746 182.944 425.336 173.839 427.399 165.029C428.578 159.155 430.641 153.281 432.115 147.407C433.883 140.652 435.357 133.897 435.947 126.848C437.126 117.157 436.536 105.996 429.462 98.3602C421.504 89.8431 408.24 90.7241 397.629 91.6052C373.165 93.3674 348.701 99.8287 328.068 113.339C318.636 119.506 308.909 127.142 302.719 136.834C299.182 143.295 310.088 149.757 314.509 142.708Z" fill="black"/>
<path d="M346.342 187.937C346.342 187.643 346.342 187.349 346.342 187.056C346.637 185.587 346.342 188.818 346.342 187.937C346.342 187.349 346.342 186.762 346.637 186.468C347.227 183.531 348.111 180.888 349.29 177.951C349.585 177.657 349.585 177.07 349.879 176.776C349.585 177.657 349.585 177.364 349.879 176.776C350.469 175.602 350.764 174.72 351.353 173.839C352.532 171.49 353.711 169.434 355.185 167.378C358.427 162.385 361.964 158.274 366.68 153.575C373.459 147.113 380.828 141.533 388.786 136.834C395.86 132.722 389.376 121.562 382.302 125.967C361.375 138.596 339.858 157.686 334.552 182.357C334.258 184.119 333.668 186.175 333.668 188.23C333.373 196.16 346.048 196.16 346.342 187.937Z" fill="black"/>
<path d="M162.418 136.247C157.113 128.317 149.449 121.856 142.081 116.276C123.806 102.766 101.405 95.4235 79.0041 92.4865C71.0459 91.6055 63.3824 91.0181 55.4241 91.0181C50.4134 91.0181 45.4026 91.8991 40.9814 94.2487C32.1389 98.9478 29.1914 108.933 29.1914 118.332C28.6019 132.135 33.0231 145.645 36.8549 158.861C39.2129 167.378 40.0971 176.483 41.5709 185.294C43.3394 195.867 46.2869 206.733 53.3609 215.25C61.9086 225.53 74.8776 229.054 87.8466 229.054C96.0996 229.054 96.0996 216.425 87.8466 216.425C78.1199 216.425 69.5721 214.076 63.3824 207.321C61.9086 205.559 59.2559 200.86 58.3716 198.804C56.8979 194.692 55.7189 190.58 54.8346 186.469C53.0661 178.245 52.4766 169.728 50.7081 161.505C48.3501 150.05 43.9289 138.89 42.4551 127.142C42.1604 124.793 42.1604 122.443 41.8656 120.094C41.8656 117.744 41.8656 115.688 42.1604 114.22C42.4551 113.339 42.4551 112.458 42.7499 111.577C43.0446 110.989 43.0446 110.696 43.3394 110.108C43.3394 110.402 42.7499 110.989 43.3394 110.108C43.6341 109.521 43.9289 108.933 44.5184 108.052C45.4026 106.584 43.9289 108.64 44.8131 107.759C45.1079 107.465 45.4026 106.878 45.9921 106.584C46.8764 105.703 45.6974 106.584 47.1711 105.703C47.4659 105.409 49.2344 104.822 48.0554 105.115C50.1186 104.234 51.8871 103.941 53.3609 103.941C60.1401 103.647 66.9194 104.234 73.6986 104.822C94.6259 106.878 115.258 113.339 132.649 125.38C136.48 128.023 137.659 128.905 141.196 131.841C143.554 133.897 145.618 135.953 147.681 138.009C148.565 138.89 149.155 139.771 150.039 140.652C150.628 141.24 152.397 143.589 150.628 141.533C150.923 142.121 151.513 142.708 151.807 143.296C155.934 149.463 167.134 143.296 162.418 136.247Z" fill="black"/>
<path d="M132.354 187.643C132.059 182.944 130.585 178.245 129.112 173.84C124.69 162.386 117.322 152.694 108.774 144.177C101.405 136.834 92.8575 130.667 84.015 125.38C76.941 121.268 70.4565 132.135 77.5305 136.247C84.6045 140.652 91.6785 145.351 97.5735 150.931C100.226 153.281 102.584 155.924 104.942 158.274C107.005 160.623 108.184 162.092 109.953 164.735C111.427 166.791 112.606 168.847 113.785 171.196C114.374 172.077 114.964 173.252 115.258 174.133C115.553 174.721 115.848 175.014 115.848 175.602C115.848 175.895 116.732 177.364 116.143 176.483C115.848 175.602 116.437 177.07 116.437 177.364C116.732 177.658 116.732 178.245 116.732 178.539C117.027 179.42 117.322 180.301 117.616 180.888C117.911 182.063 118.501 183.531 118.795 185C118.795 185.587 119.09 186.175 119.09 186.762C119.09 187.056 119.09 187.056 119.09 187.349C119.385 187.937 119.09 185.881 119.09 186.468C119.09 186.762 119.09 187.35 119.09 187.643C119.974 195.867 132.649 195.867 132.354 187.643Z" fill="black"/>
<path d="M215.473 325.092C215.473 335.371 212.82 343.888 209.873 343.888C206.631 343.888 204.273 335.371 204.273 325.092C204.273 314.813 206.925 306.295 209.873 306.295C212.82 306.295 215.473 314.813 215.473 325.092Z" fill="black"/>
<path d="M257.917 325.092C257.917 335.371 255.265 343.888 252.317 343.888C249.075 343.888 246.717 335.371 246.717 325.092C246.717 314.813 249.37 306.295 252.317 306.295C255.559 306.295 257.917 314.813 257.917 325.092Z" fill="black"/>
<path d="M180.693 351.524C180.988 329.204 193.072 304.533 211.936 291.904C220.779 286.031 231.095 283.094 241.706 285.737C252.612 288.38 261.454 295.722 268.234 304.24C275.897 313.344 281.203 324.504 284.15 335.958C286.803 345.944 287.392 357.398 283.266 367.09C274.423 387.355 247.896 390.292 228.442 389.704C216.652 389.117 204.273 387.061 194.251 380.013C184.819 373.551 180.693 362.685 180.693 351.524C180.693 343.301 167.724 343.301 168.019 351.524C168.019 364.447 172.145 377.369 182.167 386.474C191.304 394.991 203.683 399.396 215.768 401.158C240.232 404.683 272.655 402.921 289.161 381.775C306.551 359.454 298.298 326.267 284.15 304.533C269.413 281.625 242.59 264.591 215.179 275.751C186.588 287.499 168.313 321.567 168.019 351.524C167.724 359.748 180.693 359.748 180.693 351.524Z" fill="black"/>
<path d="M193.072 100.416C198.378 100.71 203.978 102.766 208.105 106.29C212.526 110.108 215.474 115.395 216.358 121.269C216.653 123.031 218.716 123.912 220.19 123.619C221.959 123.031 222.843 121.269 222.548 119.801C220.19 105.409 207.516 94.8359 193.072 94.2485C191.304 94.2485 189.83 95.717 189.83 97.4793C189.83 98.9478 191.304 100.123 193.072 100.416Z" fill="black"/>
<path d="M212.821 91.3116C223.432 95.4233 229.916 106.584 228.148 117.744C227.853 119.506 228.443 121.268 230.506 121.562C231.98 121.856 234.043 120.975 234.338 119.213C235.517 111.576 234.043 103.647 229.916 97.1855C226.085 91.6053 220.779 87.4936 214.589 85.144C213.116 84.5566 211.052 85.7314 210.758 87.4936C210.168 89.2557 211.052 90.7242 212.821 91.3116Z" fill="black"/>
<path d="M297.709 251.375C297.709 261.654 292.108 270.171 285.034 270.171C277.96 270.171 272.36 261.654 272.36 251.375C272.36 241.096 277.96 232.578 285.034 232.578C292.108 232.285 297.709 240.802 297.709 251.375Z" fill="black"/>
<path d="M194.546 251.375C194.546 261.654 188.946 270.171 181.872 270.171C174.798 270.171 169.198 261.654 169.198 251.375C169.198 241.096 174.798 232.578 181.872 232.578C188.651 232.285 194.546 240.802 194.546 251.375Z" fill="black"/>
<path d="M336.91 85.4379C332.489 81.6199 326.889 80.1514 321.289 79.8577C308.32 78.9767 295.94 83.6758 283.855 87.7875C282.087 88.3749 280.613 88.9622 278.845 89.2559C277.96 83.9694 277.076 78.9766 276.192 73.6902C274.423 63.1172 272.655 52.2505 270.886 41.6775C270.002 37.2721 268.823 33.1604 264.697 30.5172C260.865 27.8739 255.854 26.9928 251.433 28.4613C248.485 29.3424 246.127 31.3983 243.769 33.4541C240.822 35.51 238.169 37.8595 234.632 38.7406C229.916 40.2091 224.611 39.6217 220.484 37.2721C214.884 34.0415 210.463 27.5802 202.504 28.1676C195.43 28.4613 190.42 33.7478 188.946 40.2091C188.356 43.7334 187.767 47.2577 187.177 50.4884C184.819 63.4109 182.461 76.3334 180.103 89.5496C176.272 88.3748 172.44 86.6127 168.903 85.4379C163.008 83.3821 156.818 81.6199 150.334 80.4451C139.428 78.683 124.985 78.683 118.501 89.2559C114.964 94.8361 115.258 101.591 116.437 107.465C118.206 117.451 123.217 126.849 128.522 135.66C138.838 153.281 154.46 166.497 173.914 174.133C189.241 180.301 206.041 182.063 222.547 182.357C237.58 182.651 252.907 182.944 267.939 180.301C286.508 177.07 303.309 168.553 316.278 155.043C324.531 146.526 331.015 136.247 336.026 125.674C339.858 118.038 343.395 109.521 343.395 100.71C343.1 95.1298 341.332 89.2559 336.91 85.4379ZM332.489 98.3604C332.489 98.3604 332.489 98.0667 332.489 98.3604V98.3604Z" fill="white"/>
<path d="M327.774 96.3051C323.942 93.0745 319.226 91.8997 314.216 91.606C303.015 90.725 292.699 94.8367 282.383 98.361C280.909 98.9484 279.435 99.2421 277.961 99.8295C277.372 95.4241 276.488 91.0187 275.898 86.6132C274.424 77.5087 272.951 68.4042 271.477 59.2997C270.887 55.4817 269.708 51.9574 266.171 49.6079C262.929 47.2583 258.803 46.6709 254.971 47.8457C252.318 48.7268 250.55 50.4889 248.192 51.9574C245.834 53.7196 243.476 55.7754 240.528 56.6565C236.402 57.8313 231.98 57.5376 228.443 55.4817C223.727 52.8385 219.896 47.2583 213.116 47.8457C207.221 48.1394 202.8 52.5448 201.621 58.125C201.032 61.0619 200.442 63.9988 200.147 66.9358C198.084 78.0961 196.021 88.9628 194.252 100.123C191.01 98.9484 187.768 97.7736 184.526 96.5988C179.515 94.8367 174.209 93.3682 168.609 92.4871C159.177 91.0187 147.092 91.0187 141.492 99.8295C138.545 104.529 138.545 110.109 139.724 115.395C141.197 123.912 145.619 132.136 150.04 139.478C158.882 154.456 172.146 165.617 188.652 172.078C201.916 177.365 216.064 178.833 230.212 179.127C243.181 179.42 256.15 179.42 268.824 177.365C284.741 174.721 299.183 167.379 310.089 155.631C317.163 148.289 322.469 139.772 326.89 130.667C330.132 124.206 333.08 116.864 333.08 109.228C333.08 104.529 331.606 99.5358 327.774 96.3051ZM323.942 107.466C323.942 107.172 323.942 106.878 323.942 107.466V107.466Z" fill="#C0996D"/>
<path d="M182.167 86.9063C183.051 86.9063 183.64 87.2 182.167 86.9063C180.988 86.3189 179.514 86.0252 178.04 85.7315C173.914 84.2631 170.082 82.7946 165.955 81.3261C159.766 78.9766 153.281 77.2144 146.502 76.0396C135.007 74.2775 119.974 74.2775 113.195 85.4378C109.658 91.3117 109.658 98.3603 110.837 105.115C112.9 115.688 118.206 125.968 123.511 135.072C134.417 153.868 150.923 167.966 170.966 175.896C187.177 182.357 204.862 184.413 221.958 184.706C237.874 185 253.791 185.294 269.413 182.65C288.866 179.126 306.551 170.022 320.11 155.631C328.657 146.526 335.437 135.659 341.037 124.499C344.869 116.276 348.7 107.171 348.7 97.773C348.7 91.6054 346.637 85.4378 341.921 81.3261C337.205 77.2144 331.31 75.7459 325.415 75.4522C311.562 74.5712 298.888 79.564 286.213 83.9694C282.676 85.4378 278.845 86.3189 275.013 87.2C268.234 88.9622 270.886 99.5351 277.96 97.773C290.929 94.5423 302.13 88.6685 315.688 86.6126C317.162 86.3189 320.994 86.0252 323.352 86.3189C324.531 86.3189 326.005 86.3189 327.184 86.6126C328.068 86.6126 326.299 86.6126 327.184 86.6126C327.478 86.6126 327.773 86.6126 328.068 86.6126C328.657 86.6126 329.247 86.9063 330.131 86.9063C330.721 87.2 331.31 87.2 331.9 87.4937C332.784 87.7874 331.31 87.2 332.194 87.7874C332.784 88.0811 333.373 88.3748 333.668 88.6685C333.963 88.9622 335.142 89.8432 334.258 88.9622C334.552 89.2558 334.847 89.5495 335.437 90.1369C335.731 90.4306 336.321 91.3117 335.731 90.4306C336.026 90.7243 336.321 91.3117 336.616 91.6054C337.205 92.7802 336.616 91.3117 336.91 92.4865C337.205 93.0739 337.205 93.6613 337.5 94.2486C337.5 94.5423 337.5 94.836 337.795 95.1297C337.795 95.1297 337.795 94.2486 337.795 95.1297C338.089 96.5982 338.089 98.0667 337.795 99.5351C337.5 102.766 336.616 106.584 335.437 109.814C331.9 120.094 326.299 130.079 319.815 138.89C308.909 154.162 293.877 165.323 275.602 170.022C261.16 173.84 246.127 173.84 231.39 173.84C216.652 173.84 201.915 173.252 187.767 169.728C170.377 165.323 154.755 156.805 142.965 143.296C135.596 135.072 129.996 125.086 125.575 115.101C122.922 108.64 120.269 101.591 121.153 94.5423C121.153 95.4234 121.153 93.955 121.448 93.6613C121.743 93.0739 121.743 92.4865 122.038 91.8991C121.743 92.1928 122.922 90.1369 122.922 90.1369C122.627 90.4306 124.69 88.3748 124.396 88.6685C123.806 88.9622 124.985 88.0811 125.28 88.0811C125.869 87.7874 126.459 87.4937 127.048 87.2C127.048 87.2 126.459 87.2 127.638 86.9063C128.227 86.6126 128.817 86.6126 129.112 86.3189C129.701 86.3189 130.291 86.0252 130.88 86.0252C131.175 86.0252 131.47 86.0252 131.764 86.0252C132.354 86.0252 130.88 86.0252 132.059 86.0252C134.712 85.7315 137.365 85.7315 140.017 86.0252C152.692 86.9063 165.071 93.3676 177.451 96.8919C178.924 97.1856 180.693 97.773 182.167 97.773C189.241 98.0667 189.241 87.2 182.167 86.9063Z" fill="#010001"/>
<path d="M265.876 128.317C261.16 129.492 256.444 130.373 251.728 131.548C240.232 134.191 228.737 134.778 216.947 133.31C209.873 132.429 202.799 130.666 195.725 128.904C189.535 127.436 183.64 124.793 183.346 117.157C183.346 114.807 183.935 112.751 184.23 110.402C185.114 105.703 185.998 100.71 186.883 96.0106C189.241 83.0881 191.304 70.1656 193.662 57.5368C194.841 50.1944 195.725 42.2647 197.494 34.9223C198.083 32.5728 199.557 30.8106 201.915 31.1043C202.504 31.1043 203.094 31.398 203.683 31.6917C204.568 32.2791 203.389 31.398 203.978 31.9854C205.157 32.8665 206.336 33.7476 207.515 34.9223C214.884 40.7962 223.137 44.3205 232.569 43.1458C240.527 41.971 246.422 37.5656 252.612 32.8665C256.149 30.2232 259.981 30.5169 260.865 35.5097C262.339 43.7331 263.518 52.2503 264.991 60.4737C267.055 73.3962 269.118 86.025 271.181 98.9476C271.771 103.353 272.655 108.052 273.244 112.457C273.834 115.982 274.423 117.45 273.539 120.681C273.244 124.205 270.002 127.142 265.876 128.317C259.096 130.079 262.044 140.652 268.823 138.89C279.729 135.953 287.098 125.674 285.624 114.513C285.329 111.87 284.74 109.227 284.445 106.584C282.382 93.9548 280.318 81.3259 278.255 68.9908C276.487 57.5368 274.423 46.0827 272.655 34.9223C271.771 30.2232 270.297 25.8178 266.17 22.8809C262.339 19.944 257.033 19.0629 252.317 20.825C249.075 21.9998 246.717 24.0557 244.064 26.1115C241.117 28.4611 238.169 30.8106 234.632 31.6917C229.621 33.1602 224.316 32.5728 219.6 30.2232C213.705 26.9926 208.989 19.944 200.736 20.5313C193.367 21.1187 188.062 26.4052 186.588 33.4539C185.998 37.2719 185.409 40.7962 184.525 44.6142C180.398 67.5223 176.272 90.1368 172.44 113.045C170.966 121.562 173.619 130.079 180.693 135.366C186.293 139.477 193.957 140.358 200.736 142.121C211.642 144.764 222.842 146.232 234.043 145.351C243.18 144.764 252.317 143.002 261.16 140.946C263.518 140.358 265.876 139.771 267.939 139.477C275.897 137.128 272.95 126.555 265.876 128.317Z" fill="#010001"/>
<path d="M272.95 101.003C268.823 105.409 262.339 105.996 256.738 107.171C247.896 109.227 239.348 110.695 230.211 110.695C221.074 110.695 212.231 109.227 203.094 107.171C197.788 105.996 189.83 105.409 186.293 100.71C184.525 98.3601 181.577 97.1853 178.63 98.6538C176.272 100.122 174.798 103.94 176.566 106.29C180.103 110.695 184.23 113.926 189.83 115.394C192.483 115.982 195.43 116.569 198.083 117.45C208.105 119.8 218.126 121.562 228.442 121.856C238.759 121.856 249.075 120.093 259.096 117.744C266.76 115.982 274.423 114.807 280.318 108.639C285.624 103.647 277.666 95.7168 272.95 101.003Z" fill="#010001"/>
<path d="M210.757 61.942C223.137 69.5781 239.643 69.5781 252.317 61.942C254.97 60.4736 255.854 56.9492 254.38 54.306C252.906 51.6627 249.369 50.7817 246.717 52.2501C244.064 54.0123 242.295 54.5997 239.348 55.4808C236.106 56.3619 234.632 56.6555 231.39 56.6555C228.148 56.6555 226.674 56.3619 223.432 55.4808C220.484 54.5997 219.01 54.0123 216.063 52.2501C213.41 50.7817 209.873 51.6627 208.399 54.306C207.22 57.2429 208.399 60.4736 210.757 61.942Z" fill="black"/>
</g>
<defs>
<clipPath id="clip0">
<rect width="445.367" height="444.065" fill="white" transform="translate(10.3276 0.560059)"/>
</clipPath>
</defs>
</svg>
