<svg width="265" height="256" viewBox="0 0 265 256" fill="none" xmlns="http://www.w3.org/2000/svg">
<path d="M260.133 128.266C260.133 196.28 203.031 251.648 132.3 251.648C61.5695 251.648 4.46753 196.28 4.46753 128.266C4.46753 60.2521 61.5695 4.88367 132.3 4.88367C203.031 4.88367 260.133 60.2521 260.133 128.266Z" fill="#6CBBD8" stroke="black" stroke-width="8"/>
<g clip-path="url(#clip0)">
<path d="M131.196 251.46C113.067 251.46 94.1068 245.493 74.9799 233.893C47.3707 217.32 30.9049 189.976 30.9049 160.808C30.9049 153.516 31.9029 145.727 34.065 137.938C31.0713 136.612 28.2438 134.955 25.9153 132.801C15.4371 124.017 13.4413 109.931 12.1107 101.644C11.6117 98.4956 11.1128 95.3468 10.6138 93.3581C4.12731 72.4768 4.12731 59.8817 10.7801 50.9326C13.9402 46.6238 20.0941 41.4863 31.0713 41.4863C39.0547 41.4863 46.7054 42.3149 53.8572 43.8064C54.6888 42.4806 55.5204 41.1548 56.6847 39.9948C60.51 35.6859 65.666 33.2 72.1525 32.3714C74.3146 31.8743 76.6431 31.7085 79.1379 31.7085C81.6328 31.7085 84.1276 31.8743 86.955 32.3714C88.1193 32.5371 89.4498 32.7029 90.6141 33.0343C90.9467 31.0456 91.2794 29.0569 91.7783 26.9025L92.111 25.0795C92.2773 23.7537 92.6099 22.2622 92.7762 20.9364C93.2752 17.9534 94.4394 15.3018 96.1027 12.8159C99.2627 5.68974 106.248 1.04945 114.065 1.04945C118.556 1.04945 122.88 2.54098 126.373 5.3583L129.367 7.84417L133.525 4.6954C136.851 2.20953 140.843 0.883728 145.167 0.883728C152.984 0.883728 159.97 5.35829 163.13 12.4845C165.791 16.6276 166.456 20.605 166.789 22.2622L168.618 33.0343C172.444 32.2057 175.937 31.7085 179.429 31.7085C180.427 31.7085 181.259 31.7085 182.257 31.8743C183.754 32.04 185.251 32.2057 186.581 32.3714C193.068 33.2 198.224 35.6859 202.049 39.9948C203.38 41.4863 204.544 42.9778 205.375 44.8008C213.691 42.6464 222.506 41.652 231.82 41.652C242.964 41.652 248.951 46.7895 252.278 51.0983C258.931 59.8817 258.931 72.6425 252.444 93.3581C251.779 95.3468 251.446 98.3299 250.947 101.644C249.45 111.422 246.623 130.978 228.494 137.938C230.49 145.727 231.654 153.516 231.654 160.808C231.654 191.467 213.026 220.469 183.088 236.544C164.294 246.653 147.329 251.46 131.196 251.46Z" fill="black"/>
<path d="M248.453 53.75C245.958 50.2698 240.968 46.2924 231.821 46.2924C222.174 46.2924 213.692 47.4525 206.373 49.4412C205.043 49.7726 203.712 49.9383 202.382 50.2698C201.716 47.7839 200.552 45.298 198.556 43.1436C195.064 39.332 190.573 37.509 185.75 37.0118C184.419 36.6804 183.089 36.5146 181.758 36.5146C180.926 36.5146 180.095 36.3489 179.263 36.3489C174.107 36.3489 169.284 37.509 164.793 38.8348L162.132 22.9252C161.966 21.4337 161.301 18.1192 158.972 14.639C156.644 9.17005 151.321 5.52411 145.167 5.52411C142.007 5.52411 138.847 6.51846 136.186 8.50715L131.862 11.8216C130.864 12.4845 129.866 12.6503 129.201 12.6503C128.535 12.6503 127.537 12.4845 126.539 11.6559L123.379 9.17005C120.718 7.01563 117.392 5.85556 114.065 5.85556C107.912 5.85556 102.589 9.66723 100.261 15.1361C98.9303 17.1248 97.9323 19.445 97.4334 21.9309C97.1007 23.2567 96.9344 24.5825 96.7681 26.074L96.4354 27.8969C95.7702 31.5429 95.1049 35.1888 94.4396 39.0005C91.6122 38.1719 88.951 37.509 86.2899 37.1775C83.7951 36.8461 81.4666 36.6804 79.3044 36.6804C76.9759 36.6804 74.9801 36.8461 73.1506 37.1775C68.3272 37.6747 63.8366 39.4977 60.5102 43.3093C58.847 45.1323 57.6827 47.2867 57.0174 49.4412C49.6993 47.6182 41.217 46.4581 31.5704 46.2924C22.4227 46.2924 17.5994 50.4355 14.9383 53.75C9.2834 61.2076 9.44972 72.6426 15.4373 91.8667C16.1025 94.1868 16.6015 97.5013 17.1005 100.816C18.2647 108.936 20.2606 121.531 29.2419 129.155C31.903 131.641 35.3957 133.629 40.0527 134.789C37.3916 143.573 35.8947 152.356 35.8947 160.808C35.8947 188.318 51.5289 214.172 77.6412 229.915C96.1028 241.019 114.232 246.819 131.529 246.819C146.831 246.819 163.13 242.179 180.926 232.567C209.367 217.155 226.997 189.81 226.997 160.974C226.997 152.522 225.5 143.739 222.839 134.955C242.132 130.481 244.794 111.754 246.457 101.147C246.956 97.8328 247.455 94.5183 248.12 92.1981C253.775 72.8083 253.941 61.3733 248.453 53.75Z" fill="white"/>
<path d="M80.635 86.8949C80.635 86.8949 67.662 67.0079 32.7347 67.0079C21.7575 67.0079 21.2585 76.9514 26.7471 95.0154C30.2399 106.285 27.0798 126.172 47.8698 126.006" fill="#F1A494"/>
<path d="M175.105 76.9514C175.105 76.9514 188.078 57.0645 223.006 57.0645C233.983 57.0645 234.482 67.0079 228.993 85.0719C225.5 96.3412 228.66 116.228 207.87 116.062" fill="#F1A494"/>
<path d="M212.195 165.448C212.195 189.478 197.059 211.354 174.44 223.452C162.465 229.915 148.328 235.55 133.192 235.55C116.56 235.55 101.092 229.087 88.4521 221.463C67.8283 209.034 54.3563 188.318 54.3563 165.448C54.3563 128.658 89.6163 80.1002 133.192 80.1002C176.768 80.1002 212.195 128.658 212.195 165.448Z" fill="#F1A494"/>
<path d="M213.692 160.642C213.692 177.712 206.207 193.787 194.232 205.885C187.912 212.349 180.427 217.652 172.444 221.795C163.296 226.601 153.65 230.413 143.504 232.401C123.047 236.379 102.589 229.75 85.1257 219.309C70.1568 210.36 57.5165 196.936 51.8616 180.364C41.8823 150.865 56.6849 117.885 77.3086 96.507C87.9532 85.4034 101.425 76.4543 116.56 72.8084C131.529 69.1624 147.33 71.4826 161.134 78.443C175.105 85.5692 187.08 96.6727 195.895 109.599C204.544 122.029 210.864 136.115 213.193 151.03C213.525 154.179 213.692 157.494 213.692 160.642C213.692 165.283 220.843 165.283 220.843 160.642C220.843 144.733 215.521 129.155 207.87 115.4C199.554 100.484 187.912 87.3921 173.775 77.7801C159.97 68.3338 143.172 62.8649 126.207 64.1907C109.076 65.5165 93.4417 73.1398 80.3024 84.0776C67.3294 94.8498 56.8512 108.936 50.032 124.349C43.3792 139.098 39.7202 155.339 42.215 171.415C45.0424 189.976 56.1859 206.714 70.6558 218.315C87.1216 231.241 108.411 240.522 129.533 241.019C140.843 241.185 152.153 238.699 162.631 234.556C172.111 230.744 181.425 226.104 189.575 219.806C204.378 208.537 215.854 192.627 219.513 174.232C220.344 169.757 220.843 165.283 220.843 160.808C221.01 156.002 213.692 156.002 213.692 160.642Z" fill="black"/>
<path d="M177.434 81.0946C177.6 80.7631 177.766 80.5974 177.933 80.4317C178.432 79.7688 177.434 80.9289 177.766 80.5974C177.933 80.4317 177.933 80.266 178.099 80.266C178.432 79.7688 178.764 79.4373 179.097 78.9402C179.928 77.9458 180.926 76.9515 181.924 76.1229C182.59 75.6257 183.089 74.9628 183.754 74.4656C184.087 74.1342 184.419 73.8027 184.752 73.637C184.918 73.4713 185.084 73.3055 185.251 73.3055C185.75 72.8084 185.417 73.1398 185.583 73.1398C194.565 66.3451 205.209 62.3677 216.186 60.379C219.845 59.7161 223.671 59.3847 227.33 59.2189C230.49 59.0532 232.985 58.8875 235.646 59.7161C236.311 59.8818 234.981 59.3847 235.812 59.7161C235.979 59.8818 236.145 59.8818 236.311 60.0476C236.478 60.2133 236.644 60.2133 236.81 60.379C236.311 60.0476 236.644 60.2133 236.81 60.379C237.808 61.2076 237.642 61.0419 238.307 62.3677C238.307 62.5334 238.64 63.0306 238.307 62.3677C238.307 62.5334 238.473 62.8649 238.473 63.0306C238.64 63.5278 238.806 64.025 238.806 64.5221C238.972 65.185 238.972 65.185 238.972 65.6822C238.972 66.3451 239.139 67.008 239.139 67.8366C239.139 74.7971 236.977 81.7575 234.981 88.3865C233.65 92.861 233.317 97.5013 232.486 101.976C231.654 107.279 230.656 112.251 227.663 116.56C226.498 118.217 224.669 119.874 222.507 120.869C219.845 122.194 216.353 122.526 213.193 122.526C208.536 122.526 208.536 129.652 213.193 129.652C219.845 129.652 226.498 127.995 231.322 123.354C235.313 119.543 237.309 114.074 238.473 108.936C239.638 103.799 239.97 98.6614 241.135 93.6897C241.8 90.3752 242.964 87.0607 243.796 83.7462C244.794 79.9345 245.625 76.1229 245.958 72.1455C246.623 66.6765 246.29 60.379 242.299 56.0702C237.808 51.2641 230.324 51.7613 224.336 52.2585C210.532 53.2528 196.727 56.8988 185.084 64.5221C179.762 68.0023 174.274 72.3112 170.781 77.7801C168.785 81.426 174.939 85.072 177.434 81.0946Z" fill="black"/>
<path d="M195.396 106.616C195.396 106.45 195.396 106.285 195.396 106.119C195.563 105.29 195.396 107.113 195.396 106.616C195.396 106.285 195.396 105.953 195.563 105.788C195.895 104.13 196.394 102.639 197.059 100.982C197.226 100.816 197.226 100.484 197.392 100.319C197.226 100.816 197.226 100.65 197.392 100.319C197.725 99.6557 197.891 99.1586 198.224 98.6614C198.889 97.3356 199.554 96.1755 200.386 95.0154C202.215 92.1981 204.211 89.878 206.872 87.2264C210.698 83.5804 214.856 80.4317 219.346 77.7801C223.338 75.4599 219.679 69.1624 215.687 71.6483C203.879 78.7744 191.737 89.5465 188.743 103.467C188.577 104.462 188.244 105.622 188.244 106.782C188.078 111.256 195.23 111.256 195.396 106.616Z" fill="black"/>
<path d="M91.6122 77.4486C88.6184 72.974 84.2941 69.3281 80.1361 66.1793C69.8242 58.556 57.1838 54.4129 44.5434 52.7556C40.0528 52.2585 35.7284 51.927 31.2378 51.927C28.4103 51.927 25.5829 52.4242 23.0881 53.75C18.0984 56.4016 16.4352 62.0362 16.4352 67.3394C16.1026 75.1285 18.5974 82.7518 20.7596 90.2094C22.0901 95.0154 22.5891 100.153 23.4207 105.125C24.4186 111.091 26.0818 117.223 30.0735 122.029C34.8968 127.829 42.2149 129.818 49.5331 129.818C54.19 129.818 54.19 122.691 49.5331 122.691C44.0445 122.691 39.2212 121.366 35.7284 117.554C34.8968 116.56 33.4 113.908 32.901 112.748C32.0694 110.428 31.4041 108.108 30.9051 105.788C29.9072 101.147 29.5746 96.3412 28.5767 91.7009C27.2461 85.2377 24.7513 78.9401 23.9197 72.3111C23.7534 70.9853 23.7534 69.6595 23.587 68.3337C23.587 67.008 23.587 65.8479 23.7534 65.0193C23.9197 64.5221 23.9197 64.0249 24.086 63.5277C24.2523 63.1963 24.2523 63.0306 24.4186 62.6991C24.4186 62.8648 24.086 63.1963 24.4186 62.6991C24.585 62.3677 24.7513 62.0362 25.0839 61.539C25.5829 60.7104 24.7513 61.8705 25.2502 61.3733C25.4166 61.2076 25.5829 60.8761 25.9155 60.7104C26.4145 60.2132 25.7492 60.7104 26.5808 60.2132C26.7471 60.0475 27.745 59.7161 27.0798 59.8818C28.244 59.3846 29.2419 59.2189 30.0735 59.2189C33.8989 59.0532 37.7243 59.3846 41.5497 59.7161C53.3584 60.8761 65.0009 64.5221 74.8138 71.3168C76.976 72.8083 77.6413 73.3055 79.6371 74.9627C80.9677 76.1228 82.1319 77.2829 83.2962 78.443C83.7951 78.9401 84.1278 79.4373 84.6267 79.9345C84.9594 80.2659 85.9573 81.5917 84.9594 80.4317C85.1257 80.7631 85.4583 81.0945 85.6246 81.426C87.9531 84.9062 94.2733 81.426 91.6122 77.4486Z" fill="black"/>
<path d="M74.6475 106.45C74.4812 103.799 73.6496 101.147 72.818 98.6614C70.3232 92.1981 66.1651 86.7292 61.3418 81.9232C57.1838 77.7801 52.3605 74.2999 47.3709 71.3168C43.3792 68.9967 39.7201 75.1285 43.7118 77.4486C47.7035 79.9345 51.6952 82.5861 55.0217 85.7349C56.5185 87.0607 57.8491 88.5522 59.1797 89.878C60.3439 91.2038 61.0092 92.0324 62.0071 93.5239C62.8387 94.684 63.504 95.8441 64.1693 97.1699C64.5019 97.667 64.8346 98.3299 65.0009 98.8271C65.1672 99.1586 65.3335 99.3243 65.3335 99.6557C65.3335 99.8215 65.8325 100.65 65.4999 100.153C65.3335 99.6558 65.6662 100.484 65.6662 100.65C65.8325 100.816 65.8325 101.147 65.8325 101.313C65.9988 101.81 66.1651 102.307 66.3315 102.639C66.4978 103.302 66.8304 104.13 66.9967 104.959C66.9967 105.29 67.1631 105.622 67.1631 105.953C67.1631 106.119 67.1631 106.119 67.1631 106.285C67.3294 106.616 67.1631 105.456 67.1631 105.788C67.1631 105.953 67.1631 106.285 67.1631 106.45C67.662 111.091 74.8138 111.091 74.6475 106.45Z" fill="black"/>
<path d="M121.55 184.01C121.55 189.81 120.053 194.616 118.39 194.616C116.56 194.616 115.23 189.81 115.23 184.01C115.23 178.209 116.727 173.403 118.39 173.403C120.053 173.403 121.55 178.209 121.55 184.01Z" fill="black"/>
<path d="M145.5 184.01C145.5 189.81 144.003 194.616 142.34 194.616C140.51 194.616 139.18 189.81 139.18 184.01C139.18 178.209 140.677 173.403 142.34 173.403C144.17 173.403 145.5 178.209 145.5 184.01Z" fill="black"/>
<path d="M101.924 198.925C102.09 186.33 108.91 172.409 119.554 165.283C124.544 161.968 130.365 160.311 136.352 161.803C142.506 163.294 147.496 167.437 151.321 172.243C155.646 177.381 158.639 183.678 160.303 190.141C161.8 195.776 162.132 202.239 159.804 207.708C154.814 219.143 139.845 220.801 128.868 220.469C122.215 220.138 115.23 218.978 109.575 215C104.253 211.354 101.924 205.222 101.924 198.925C101.924 194.285 94.6059 194.285 94.7723 198.925C94.7723 206.217 97.1008 213.509 102.756 218.646C107.912 223.452 114.897 225.938 121.716 226.932C135.521 228.921 153.816 227.927 163.13 215.995C172.943 203.399 168.286 184.673 160.303 172.409C151.987 159.482 136.851 149.87 121.384 156.168C105.25 162.797 94.9386 182.021 94.7723 198.925C94.6059 203.565 101.924 203.565 101.924 198.925Z" fill="black"/>
<path d="M108.91 57.2302C111.903 57.3959 115.063 58.556 117.392 60.5447C119.887 62.6991 121.55 65.6821 122.049 68.9966C122.215 69.991 123.379 70.4881 124.211 70.3224C125.209 69.991 125.708 68.9966 125.542 68.168C124.211 60.0475 117.059 54.0814 108.91 53.7499C107.912 53.7499 107.08 54.5786 107.08 55.5729C107.08 56.4015 107.912 57.0644 108.91 57.2302Z" fill="black"/>
<path d="M120.053 52.0927C126.041 54.4129 129.7 60.7104 128.702 67.008C128.535 68.0023 128.868 68.9967 130.032 69.1624C130.864 69.3281 132.028 68.831 132.194 67.8366C132.86 63.5278 132.028 59.0532 129.7 55.4072C127.537 52.2585 124.544 49.9383 121.051 48.6125C120.219 48.2811 119.055 48.944 118.889 49.9383C118.556 50.9327 119.055 51.7613 120.053 52.0927Z" fill="black"/>
<path d="M167.953 142.413C167.953 148.213 164.793 153.019 160.802 153.019C156.81 153.019 153.65 148.213 153.65 142.413C153.65 136.612 156.81 131.806 160.802 131.806C164.793 131.641 167.953 136.447 167.953 142.413Z" fill="black"/>
<path d="M109.741 142.413C109.741 148.213 106.581 153.019 102.589 153.019C98.5977 153.019 95.4376 148.213 95.4376 142.413C95.4376 136.612 98.5977 131.806 102.589 131.806C106.415 131.641 109.741 136.447 109.741 142.413Z" fill="black"/>
<path d="M190.074 48.7782C187.579 46.6238 184.419 45.7952 181.259 45.6295C173.941 45.1323 166.955 47.7839 160.136 50.104C159.138 50.4355 158.307 50.7669 157.309 50.9327C156.81 47.9496 156.311 45.1323 155.812 42.1492C154.814 36.1831 153.816 30.0513 152.818 24.0852C152.319 21.5994 151.654 19.2792 149.325 17.7877C147.163 16.2962 144.336 15.799 141.841 16.6276C140.178 17.1248 138.847 18.2849 137.517 19.445C135.853 20.605 134.357 21.9308 132.361 22.428C129.7 23.2566 126.706 22.9252 124.377 21.5994C121.217 19.7764 118.722 16.1305 114.232 16.4619C110.24 16.6276 107.413 19.6107 106.581 23.2566C106.248 25.2453 105.916 27.234 105.583 29.057C104.253 36.3489 102.922 43.6408 101.591 51.0984C99.4292 50.4355 97.2671 49.4411 95.2712 48.7782C91.9448 47.6182 88.4521 46.6238 84.793 45.9609C78.6392 44.9666 70.4894 44.9666 66.8304 50.9327C64.8345 54.0814 65.0009 57.8931 65.6661 61.2076C66.6641 66.8422 69.4915 72.1454 72.4853 77.1172C78.3065 87.0606 87.1215 94.5183 98.0987 98.8271C106.747 102.307 116.228 103.302 125.542 103.467C134.024 103.633 142.673 103.799 151.155 102.307C161.633 100.484 171.113 95.6783 178.432 88.055C183.089 83.249 186.748 77.4486 189.575 71.4825C191.737 67.1737 193.733 62.3677 193.733 57.3959C193.567 54.2471 192.569 50.9327 190.074 48.7782ZM187.579 56.0701C187.579 56.0701 187.579 55.9044 187.579 56.0701V56.0701Z" fill="white"/>
<path d="M184.918 54.91C182.756 53.0871 180.095 52.4242 177.267 52.2584C170.947 51.7613 165.126 54.0814 159.305 56.0701C158.473 56.4016 157.642 56.5673 156.81 56.8987C156.477 54.4129 155.978 51.927 155.646 49.4411C154.814 44.3036 153.982 39.1662 153.151 34.0287C152.818 31.8743 152.153 29.8856 150.157 28.5598C148.328 27.234 145.999 26.9026 143.837 27.5655C142.34 28.0626 141.342 29.057 140.012 29.8856C138.681 30.88 137.35 32.04 135.687 32.5372C133.359 33.2001 130.864 33.0344 128.868 31.8743C126.207 30.3828 124.045 27.234 120.219 27.5655C116.893 27.7312 114.398 30.2171 113.733 33.3658C113.4 35.0231 113.068 36.6803 112.901 38.3376C111.737 44.6351 110.573 50.7669 109.575 57.0645C107.745 56.4016 105.916 55.7387 104.086 55.0758C101.259 54.0814 98.2651 53.2528 95.105 52.7556C89.7827 51.927 82.9635 51.927 79.8035 56.8987C78.1402 59.5503 78.1402 62.6991 78.8055 65.6821C79.6371 70.4882 82.1319 75.1284 84.6268 79.2716C89.6164 87.7235 97.1008 94.0211 106.415 97.667C113.899 100.65 121.883 101.479 129.866 101.644C137.184 101.81 144.502 101.81 151.654 100.65C160.635 99.1585 168.785 95.0154 174.939 88.3864C178.931 84.2433 181.924 79.4373 184.419 74.2998C186.249 70.6539 187.912 66.5108 187.912 62.2019C187.912 59.5503 187.08 56.733 184.918 54.91ZM182.756 61.2076C182.756 61.0419 182.756 60.8761 182.756 61.2076V61.2076Z" fill="#C0996D"/>
<path d="M102.756 49.6069C103.255 49.6069 103.587 49.7726 102.756 49.6069C102.09 49.2754 101.259 49.1097 100.427 48.944C98.0987 48.1153 95.9366 47.2867 93.6081 46.4581C90.1153 45.1323 86.4563 44.1379 82.6309 43.475C76.1444 42.4807 67.6621 42.4807 63.8367 48.7782C61.8408 52.0927 61.8408 56.0701 62.5061 59.8818C63.6703 65.8479 66.6641 71.6482 69.6579 76.7857C75.8118 87.3921 85.1257 95.3469 96.4355 99.8214C105.583 103.467 115.562 104.627 125.209 104.793C134.19 104.959 143.172 105.125 151.987 103.633C162.964 101.644 172.943 96.5069 180.594 88.3864C185.417 83.249 189.242 77.1172 192.403 70.8196C194.565 66.1793 196.727 61.0419 196.727 55.7387C196.727 52.2584 195.563 48.7782 192.902 46.4581C190.24 44.1379 186.914 43.3093 183.588 43.1436C175.771 42.6464 168.619 45.4637 161.467 47.9496C159.471 48.7782 157.309 49.2754 155.147 49.7726C151.321 50.7669 152.818 56.733 156.81 55.7387C164.128 53.9157 170.448 50.6012 178.099 49.4411C178.931 49.2754 181.093 49.1097 182.423 49.2754C183.089 49.2754 183.92 49.2754 184.586 49.4411C185.084 49.4411 184.087 49.4411 184.586 49.4411C184.752 49.4411 184.918 49.4411 185.084 49.4411C185.417 49.4411 185.75 49.6069 186.249 49.6069C186.581 49.7726 186.914 49.7726 187.247 49.9383C187.746 50.104 186.914 49.7726 187.413 50.104C187.746 50.2698 188.078 50.4355 188.245 50.6012C188.411 50.7669 189.076 51.2641 188.577 50.7669C188.744 50.9327 188.91 51.0984 189.242 51.4298C189.409 51.5955 189.741 52.0927 189.409 51.5955C189.575 51.7613 189.741 52.0927 189.908 52.2584C190.24 52.9213 189.908 52.0927 190.074 52.7556C190.24 53.0871 190.24 53.4185 190.407 53.75C190.407 53.9157 190.407 54.0814 190.573 54.2471C190.573 54.2471 190.573 53.75 190.573 54.2471C190.739 55.0758 190.739 55.9044 190.573 56.733C190.407 58.556 189.908 60.7104 189.242 62.5334C187.247 68.3337 184.087 73.9684 180.427 78.9401C174.274 87.5578 165.791 93.8554 155.479 96.507C147.33 98.6614 138.847 98.6614 130.531 98.6614C122.215 98.6614 113.899 98.3299 105.916 96.3412C96.1029 93.8554 87.2879 89.0493 80.6351 81.426C76.477 76.7857 73.3169 71.1511 70.8221 65.5164C69.3253 61.8705 67.8284 57.8931 68.3273 53.9157C68.3273 54.4129 68.3273 53.5842 68.4937 53.4185C68.66 53.0871 68.66 52.7556 68.8263 52.4242C68.66 52.5899 69.3253 51.4298 69.3253 51.4298C69.1589 51.5955 70.3232 50.4355 70.1569 50.6012C69.8242 50.7669 70.4895 50.2697 70.6558 50.2697C70.9885 50.104 71.3211 49.9383 71.6537 49.7726C71.6537 49.7726 71.3211 49.7726 71.9864 49.6069C72.319 49.4411 72.6517 49.4411 72.818 49.2754C73.1506 49.2754 73.4833 49.1097 73.8159 49.1097C73.9822 49.1097 74.1486 49.1097 74.3149 49.1097C74.6475 49.1097 73.8159 49.1097 74.4812 49.1097C75.9781 48.944 77.475 48.944 78.9719 49.1097C86.1236 49.6069 93.1091 53.2528 100.095 55.2415C100.926 55.4072 101.924 55.7387 102.756 55.7387C106.747 55.9044 106.747 49.7726 102.756 49.6069Z" fill="#010001"/>
<path d="M149.991 72.974C147.33 73.6369 144.669 74.1341 142.007 74.797C135.521 76.2885 129.034 76.62 122.382 75.7913C118.39 75.2942 114.398 74.2998 110.406 73.3055C106.914 72.4769 103.587 70.9853 103.421 66.6765C103.421 65.3507 103.754 64.1906 103.92 62.8648C104.419 60.2132 104.918 57.3959 105.417 54.7443C106.747 47.4524 107.912 40.1605 109.242 33.0344C109.907 28.8913 110.406 24.4167 111.404 20.2736C111.737 18.9478 112.569 17.9534 113.899 18.1191C114.232 18.1191 114.564 18.2849 114.897 18.4506C115.396 18.782 114.731 18.2849 115.063 18.6163C115.729 19.1135 116.394 19.6107 117.059 20.2736C121.217 23.5881 125.874 25.5768 131.197 24.9139C135.687 24.251 139.014 21.7651 142.506 19.1135C144.502 17.622 146.664 17.7877 147.163 20.605C147.995 25.2453 148.66 30.0513 149.492 34.6916C150.656 41.9835 151.82 49.1097 152.985 56.4016C153.317 58.8874 153.816 61.539 154.149 64.0249C154.481 66.0136 154.814 66.8422 154.315 68.6652C154.149 70.6539 152.319 72.3111 149.991 72.974C146.165 73.9684 147.829 79.9345 151.654 78.9401C157.808 77.2829 161.966 71.4825 161.134 65.185C160.968 63.6934 160.635 62.2019 160.469 60.7104C159.305 53.5842 158.14 46.4581 156.976 39.4976C155.978 33.0344 154.814 26.5711 153.816 20.2736C153.317 17.622 152.486 15.1361 150.157 13.4789C147.995 11.8216 145.001 11.3244 142.34 12.3188C140.51 12.9817 139.18 14.1418 137.683 15.3018C136.02 16.6276 134.357 17.9534 132.361 18.4506C129.533 19.2792 126.54 18.9478 123.878 17.622C120.552 15.799 117.891 11.8216 113.234 12.1531C109.076 12.4845 106.082 15.4676 105.25 19.4449C104.918 21.5994 104.585 23.5881 104.086 25.7425C101.758 38.669 99.4293 51.4298 97.2671 64.3563C96.4355 69.1624 97.9324 73.9684 101.924 76.9514C105.084 79.2716 109.409 79.7687 113.234 80.7631C119.388 82.2546 125.708 83.0832 132.028 82.5861C137.184 82.2546 142.34 81.2603 147.33 80.1002C148.66 79.7687 149.991 79.4373 151.155 79.2716C155.646 77.9458 153.982 71.9797 149.991 72.974Z" fill="#010001"/>
<path d="M153.983 57.5616C151.654 60.0474 147.995 60.3789 144.835 61.0418C139.845 62.2019 135.022 63.0305 129.866 63.0305C124.71 63.0305 119.72 62.2019 114.565 61.0418C111.571 60.3789 107.08 60.0474 105.084 57.3958C104.086 56.07 102.423 55.4071 100.76 56.2358C99.4294 57.0644 98.5978 59.2188 99.5957 60.5446C101.592 63.0305 103.92 64.8534 107.08 65.6821C108.577 66.0135 110.24 66.345 111.737 66.8421C117.392 68.1679 123.047 69.1623 128.868 69.328C134.689 69.328 140.511 68.3337 146.165 67.0079C150.49 66.0135 154.814 65.3506 158.141 61.8704C161.134 59.0531 156.644 54.5785 153.983 57.5616Z" fill="#010001"/>
<path d="M118.889 35.5202C125.874 39.829 135.188 39.829 142.34 35.5202C143.837 34.6916 144.336 32.7029 143.504 31.2113C142.673 29.7198 140.677 29.2227 139.18 30.0513C137.683 31.0456 136.685 31.3771 135.022 31.8742C133.192 32.3714 132.361 32.5371 130.531 32.5371C128.702 32.5371 127.87 32.3714 126.041 31.8742C124.377 31.3771 123.546 31.0456 121.883 30.0513C120.386 29.2227 118.39 29.7198 117.558 31.2113C116.893 32.8686 117.558 34.6916 118.889 35.5202Z" fill="black"/>
</g>
<defs>
<clipPath id="clip0">
<rect width="251.311" height="250.576" fill="white" transform="translate(5.79071 0.883728)"/>
</clipPath>
</defs>
</svg>
