<svg width="506" height="361" viewBox="0 0 506 361" fill="none" xmlns="http://www.w3.org/2000/svg">
<g clip-path="url(#clip0_118_3422)">
<path d="M254.031 360.932C232.512 360.932 216.685 350.14 202.717 340.643L201.175 339.598C193.356 338.838 185.704 336.852 178.5 333.713C145.031 319.286 120.269 286.001 104.692 234.631C96.1328 238.755 86.7735 240.942 77.277 241.038H76.4834C50.7242 241.038 29.7722 226.542 20.4527 202.277C13.6501 184.533 13.6501 165.448 14.4664 149.112V148.249C14.4664 147.022 14.6478 145.318 14.6024 144.25L13.7861 143.409C13.1058 142.705 12.4029 142.001 11.7453 141.274C2.62984 131.209 -1.24764 117.826 0.339637 101.922C1.27951 89.36 6.36068 77.4672 14.7838 68.1148C22.0173 60.2764 31.5862 54.4827 44.874 49.9387C56.7267 46.2172 68.8595 43.4592 81.1545 41.6913C91.0563 40.1594 100.603 36.858 109.34 31.9444C111.607 30.672 113.875 29.0362 116.573 27.4003C126.006 21.1069 137.729 13.2911 152.4 13.2911C157.038 13.3017 161.64 14.1086 166.006 15.6768C169.001 16.7519 171.899 18.0821 174.668 19.6528C198.119 6.78582 224.437 0.0720348 251.174 0.136198C278.699 0.195849 305.797 6.96415 330.13 19.8573C337.155 15.632 345.179 13.3651 353.372 13.2911C355.46 13.2918 357.544 13.4513 359.608 13.7683C370.446 15.3587 378.882 20.9251 385.662 25.3783C392.541 30.2662 399.95 34.3591 407.747 37.579C415.878 40.2531 424.223 42.2219 432.69 43.4635C446.295 45.94 461.987 48.7118 476.385 56.9365C487.777 63.5452 496.634 73.7837 501.545 86.0209C506.455 98.2581 507.138 111.79 503.483 124.461C501.569 130.82 498.217 136.652 493.687 141.501C493.029 142.251 492.326 142.978 491.623 143.773C491.283 144.091 490.966 144.409 490.648 144.75C490.567 147.344 490.673 149.941 490.966 152.52C491.147 154.792 491.351 157.382 491.374 159.95C491.555 175.854 490.308 198.846 477.519 217.113C466.703 232.563 448.994 241.424 428.926 241.424C418.935 241.461 409.072 239.183 400.106 234.767C384.686 285.955 359.925 319.354 326.388 333.804C320.667 336.278 314.667 338.048 308.52 339.075C306.978 340.029 305.436 341.029 303.985 342.029C290.833 350.594 275.89 360.205 256.367 360.977L254.031 360.932Z" fill="white"/>
<path d="M61.2237 213.706C61.2237 213.706 35.3285 188.918 34.6709 162.881C34.0133 136.844 33.1063 125.302 33.1063 125.302L20.7256 105.558L31.3376 82.2925C31.3376 82.2925 55.2374 66.5475 75.169 65.207C95.1007 63.8665 112.334 55.0056 113.218 53.6879C114.103 52.3701 137.572 38.17 137.572 38.17L152.628 33.626L173.807 44.7134L209.271 28.8093L256.64 23.9927L296.027 28.8093L330.879 44.3953L354.438 33.7623L401.807 59.0498L448.36 68.7513L478.971 84.2919L483.779 116.645L471.375 136.866L469.108 158.859L461.149 199.119C461.149 199.119 454.935 214.66 439.448 217.295C423.961 219.931 397.839 210.82 397.839 210.82L388.542 193.212L385.005 210.82C385.005 210.82 358.021 279.844 346.457 290.931C334.892 302.019 309.246 313.22 309.246 313.22L288.499 326.852L253.647 337.485L204.849 318.423L161.902 294.271L130.497 245.241L115.871 193.212C115.871 193.212 106.144 210.957 95.9623 213.66C85.7811 216.364 71.6317 218.954 61.2237 213.706Z" fill="white"/>
<path d="M327.704 136.866C301.559 125.165 295.959 140.115 280.086 144.091C264.213 148.067 261.401 190.531 261.401 190.531L264.394 206.094L275.369 208.094L277.637 215.955L290.834 218.045L302.512 223.498C305.498 224.108 308.405 225.061 311.174 226.338C314.542 228.014 317.308 230.697 319.087 234.017C319.087 234.017 322.511 234.017 339.654 230.45C356.796 226.883 355.05 204.481 359.835 188.054C364.619 171.628 353.849 148.567 327.704 136.866ZM309.246 208.707C287.138 208.707 287.183 174.331 309.246 174.331C331.309 174.331 331.309 208.707 309.246 208.707Z" fill="#C39C71"/>
<path d="M193.852 173.173C189.885 173.168 186.007 174.343 182.707 176.548C179.407 178.753 176.834 181.89 175.314 185.561C173.794 189.232 173.396 193.272 174.168 197.17C174.941 201.068 176.851 204.649 179.655 207.459C182.46 210.27 186.034 212.183 189.924 212.957C193.815 213.731 197.847 213.332 201.511 211.809C205.174 210.286 208.305 207.708 210.505 204.402C212.706 201.095 213.879 197.209 213.874 193.235C213.868 187.916 211.757 182.817 208.003 179.055C204.25 175.294 199.16 173.179 193.852 173.173ZM190.02 196.711C188.288 196.715 186.593 196.205 185.151 195.244C183.708 194.283 182.583 192.915 181.917 191.313C181.251 189.711 181.075 187.947 181.41 186.244C181.745 184.541 182.577 182.976 183.8 181.748C185.023 180.519 186.583 179.681 188.281 179.341C189.98 179.001 191.741 179.173 193.341 179.836C194.942 180.5 196.31 181.624 197.273 183.066C198.236 184.509 198.75 186.205 198.75 187.941C198.753 189.092 198.529 190.231 198.092 191.295C197.654 192.359 197.012 193.326 196.201 194.141C195.39 194.956 194.426 195.602 193.366 196.043C192.305 196.484 191.168 196.711 190.02 196.711Z" fill="#1D1D1B"/>
<path d="M310.856 213.251C314.822 213.256 318.699 212.082 321.999 209.877C325.298 207.673 327.871 204.538 329.392 200.868C330.912 197.199 331.312 193.16 330.542 189.262C329.771 185.365 327.863 181.784 325.061 178.973C322.258 176.162 318.687 174.246 314.798 173.47C310.909 172.693 306.877 173.089 303.213 174.609C299.549 176.128 296.417 178.702 294.214 182.006C292.01 185.309 290.834 189.193 290.834 193.167C290.831 195.803 291.347 198.414 292.352 200.851C293.356 203.288 294.831 205.502 296.69 207.367C298.55 209.232 300.758 210.712 303.189 211.722C305.62 212.732 308.225 213.251 310.856 213.251ZM307.024 179.171C308.757 179.167 310.453 179.678 311.895 180.64C313.338 181.601 314.464 182.971 315.129 184.574C315.794 186.178 315.969 187.943 315.632 189.646C315.295 191.35 314.461 192.914 313.236 194.142C312.01 195.37 310.449 196.206 308.749 196.543C307.049 196.881 305.287 196.706 303.687 196.039C302.087 195.372 300.72 194.245 299.76 192.799C298.8 191.353 298.29 189.655 298.294 187.918C298.3 185.6 299.222 183.379 300.858 181.74C302.494 180.101 304.711 179.177 307.024 179.171Z" fill="#1D1D1B"/>
<path d="M468.064 71.7275C447.656 60.1403 423.462 61.5035 401.966 53.5514C392.997 49.9327 384.476 45.2899 376.569 39.7149C370.628 35.7843 364.415 31.672 357.227 30.6268C347.477 29.1728 338.747 33.5805 331.309 40.0557C283.102 10.5195 221.946 8.74737 174.169 39.8967C170.093 36.3801 165.425 33.6182 160.383 31.7401C144.306 25.9919 130.905 39.3514 117.934 46.7809C107.467 52.7055 96.0237 56.6994 84.1482 58.5726C72.712 60.2085 61.4224 62.7458 50.3846 66.1611C41.972 69.0238 33.5141 72.9772 27.3691 79.6569C21.5676 86.3041 18.1095 94.679 17.528 103.49C16.5757 113.124 18.0042 122.507 24.6481 129.846C27.0125 131.97 29.0186 134.464 30.589 137.23C32.3577 141.251 31.9722 145.886 31.7455 150.157C30.9065 165.471 30.9972 181.716 36.5753 196.211C39.5032 204.586 45.0342 211.8 52.356 216.794C59.6779 221.787 68.4047 224.296 77.2549 223.952C92.538 223.771 105.304 216.5 115.009 205.776C124.442 248.058 143.83 300.11 185.462 318.059C192.347 321.082 199.759 322.719 207.275 322.876C207.582 323.21 207.933 323.501 208.318 323.739C223.125 333.691 236.98 344.505 255.8 343.846C273.079 343.233 286.73 332.486 300.788 323.739C301.273 323.436 301.709 323.06 302.081 322.626C308.165 322.063 314.121 320.529 319.722 318.082C361.535 300.042 380.946 247.649 390.31 205.186C396.59 212.846 404.885 218.592 414.256 221.771C432.033 227.497 452.804 222.771 463.756 207.094C473.121 193.735 474.685 175.854 474.504 159.995C474.504 152.747 472.236 143.682 475.479 136.957C477.032 134.33 478.974 131.956 481.239 129.914C484.027 126.953 486.105 123.394 487.316 119.508C489.874 110.533 489.369 100.959 485.882 92.304C482.395 83.6488 476.124 76.4075 468.064 71.7275ZM223.647 320.331C229.991 318.233 235.83 314.834 240.791 310.351C245.753 305.868 249.729 300.4 252.467 294.294C255.381 300.774 259.687 306.531 265.076 311.153C270.465 315.776 276.806 319.15 283.646 321.035C275.483 326.284 266.934 331.1 257.478 331.941C244.281 333.145 233.828 327.215 223.647 320.331ZM475.796 121.28C474.118 123.552 471.806 125.483 469.969 127.733C464.368 134.549 464.051 142.637 464.481 151.112C465.23 165.13 465.162 179.943 460.082 193.257C454.005 209.162 439.13 216.614 422.509 213.842C404.528 210.843 393.031 195.666 385.707 180.08C378.043 163.699 374.37 145.795 371.898 128.028C368.996 108.739 356.547 90.9488 342.828 77.5666C341.899 76.6578 340.969 75.749 339.994 74.9084C335.323 70.8642 328.498 77.6575 333.191 81.7244C345.64 92.5165 356.683 107.58 361.15 123.552C363.712 132.64 364.279 142.569 366.388 151.907C368.595 161.877 371.699 171.625 375.662 181.034C377.292 184.848 379.139 188.565 381.195 192.167C381.099 192.395 381.023 192.63 380.968 192.871C373.667 230.064 360.56 272.233 330.516 297.566C303.668 320.286 260.721 313.651 259.066 273.119C259.05 271.955 258.669 270.827 257.977 269.892C263.896 265.962 272.603 258.351 274.508 246.877C276.412 235.403 270.245 230.837 262.24 230.837C260.42 230.807 258.624 231.257 257.032 232.143C255.44 233.028 254.108 234.317 253.17 235.88C253.11 235.984 253.025 236.07 252.921 236.13C252.818 236.19 252.7 236.222 252.581 236.222C252.461 236.222 252.344 236.19 252.24 236.13C252.137 236.07 252.051 235.984 251.991 235.88C251.149 234.299 249.868 232.996 248.303 232.129C246.737 231.262 244.954 230.868 243.17 230.996C235.166 230.996 228.59 235.335 230.427 246.491C232.331 258.055 241.107 265.871 246.98 269.892C246.294 270.84 245.907 271.972 245.869 273.141C244.236 313.72 201.334 320.195 174.441 297.588C144.419 272.369 131.358 230.132 124.011 193.076C133.739 176.422 138.864 157.087 141.948 138.184C143.784 126.824 146.006 116.713 151.993 106.648C156.782 98.6618 162.573 91.3239 169.226 84.8143C170.269 83.7692 171.357 82.7468 172.469 81.7698C177.162 77.7029 170.337 70.9096 165.666 74.9538C154.169 84.9665 144.991 97.3725 138.773 111.306C134.737 120.599 133.694 130.073 131.97 139.911C130.352 149.022 128.078 158.005 125.168 166.789C122.503 175.18 118.858 183.225 114.306 190.758C113.801 191.283 113.401 191.9 113.127 192.576C108.642 199.614 102.538 205.473 95.3271 209.661C81.2004 217.454 60.6338 216.205 50.5433 202.527C41.836 190.758 40.7249 174.491 40.861 160.336C40.861 152.838 42.2442 145 40.6115 137.616C38.9789 130.232 33.8089 126.96 29.8407 121.326C25.0336 114.51 26.1447 103.717 28.5483 96.3334C30.9402 89.3197 35.9223 83.4903 42.4709 80.0431C61.2007 69.3874 83.8761 70.4552 103.876 63.7073C113.041 60.49 121.771 56.1396 129.862 50.7569C135.394 47.1444 141.018 42.5776 147.412 40.6691C162.786 36.1251 176.437 55.0737 183.693 66.0475C184.509 67.2744 185.303 68.524 185.96 69.7963C189.09 75.1356 197.411 70.2962 194.26 64.9342C190.844 59.0453 186.914 53.4721 182.514 48.2804C225.801 21.4934 279.292 22.9929 322.942 48.5757C319.705 52.431 316.677 56.4583 313.872 60.6401C312.92 62.0488 311.99 63.4801 311.128 64.9342C307.999 70.2962 316.298 75.1356 319.427 69.7963C322.082 65.3382 325.077 61.0921 328.384 57.0958C329.926 55.2327 331.604 53.2788 333.395 51.3703C334.029 50.9283 334.568 50.3645 334.983 49.7118C338.932 45.4193 343.924 42.2256 349.472 40.4419C355.481 38.8515 360.969 41.4416 366.003 44.5088C373.009 48.7348 379.608 53.5969 386.864 57.3912C397.111 62.6139 408.115 66.1869 419.471 67.9787C430.146 69.5391 440.695 71.8702 451.035 74.9538C458.699 77.4076 466.5 80.8838 471.874 87.1091C477.248 93.3344 478.835 101.65 478.676 109.647C478.919 113.728 477.914 117.786 475.796 121.28Z" fill="#1D1D1B"/>
<path d="M343.055 161.267C345.686 163.04 348.543 163.403 349.45 162.085C350.357 160.768 348.951 158.223 346.32 156.451C343.69 154.679 340.833 154.179 339.926 155.633C339.019 157.087 340.425 159.473 343.055 161.267Z" fill="#1D1D1B"/>
<path d="M336.343 209.752C336.706 210.502 337.432 210.661 338.475 211.547C339.518 212.433 339.586 213.819 340.742 213.819C341.899 213.819 341.649 212.819 342.33 212.388C343.01 211.956 343.282 211.66 343.191 210.434C343.327 209.548 341.921 208.548 340.017 208.162C338.112 207.775 336.434 208.162 336.275 209.161C336.233 209.36 336.257 209.568 336.343 209.752Z" fill="#1D1D1B"/>
<path d="M340.334 195.575C340.676 196.633 341.357 197.55 342.271 198.182C343.185 198.815 344.281 199.128 345.391 199.074C346.665 198.688 347.755 197.85 348.457 196.717C349.158 195.583 349.423 194.232 349.2 192.917V192.144C348.653 189.513 347.181 187.166 345.051 185.533C343.327 184.147 343.214 181.784 340.652 181.784C338.089 181.784 339.586 187.032 339.586 191.099C339.532 192.626 339.787 194.148 340.334 195.575Z" fill="#1D1D1B"/>
<path d="M314.575 163.698C318.861 163.698 322.307 161.926 322.307 159.768C322.307 157.609 318.861 155.837 314.575 155.837H314.122C312.56 155.602 310.965 155.741 309.467 156.243C307.97 156.744 306.612 157.594 305.505 158.723C304.643 159.518 301.56 158.723 301.56 160.79C301.56 162.858 305.301 164.107 314.575 163.698Z" fill="#1D1D1B"/>
<path d="M278.408 162.812C278.435 163.333 278.381 163.854 278.249 164.357C278.03 165.19 278.043 166.066 278.287 166.891C278.531 167.717 278.996 168.459 279.632 169.038C280.084 169.466 280.639 169.771 281.242 169.924C282.262 170.128 282.58 169.219 282.625 168.311C282.71 167.04 282.993 165.79 283.464 164.607C284.042 163.158 284.372 161.622 284.439 160.063C284.439 157.973 283.872 156.314 282.739 156.065C281.605 155.815 280.63 158.337 278.861 160.609C278.434 161.258 278.272 162.047 278.408 162.812Z" fill="#1D1D1B"/>
<path d="M327.84 221.021C326.714 220.536 325.454 220.464 324.28 220.817H324.008C323.741 220.907 323.483 221.021 323.237 221.158C322.858 221.286 322.514 221.5 322.232 221.783C321.95 222.066 321.737 222.411 321.611 222.791C321.484 223.171 321.447 223.575 321.502 223.971C321.558 224.368 321.704 224.746 321.93 225.076C322.156 225.406 322.455 225.679 322.804 225.874C323.153 226.069 323.542 226.18 323.941 226.199C324.34 226.218 324.738 226.144 325.104 225.983C325.469 225.821 325.793 225.578 326.049 225.27L326.275 225.066C327.273 224.429 328.384 225.225 329.495 224.475C329.713 224.31 329.892 224.099 330.02 223.858C330.148 223.616 330.221 223.349 330.234 223.075C330.247 222.802 330.199 222.529 330.095 222.276C329.991 222.024 329.833 221.797 329.631 221.612C328.838 221.226 328.815 221.476 327.84 221.021Z" fill="#1D1D1B"/>
<path d="M316.117 146.181C318.384 148.794 322.443 146.795 324.212 146.318C325.98 145.84 327.001 142.591 325.187 142.614C323.268 142.586 321.38 142.136 319.654 141.296C316.321 140.092 313.055 140.751 312.851 143C312.806 144.636 314.892 144.909 316.117 146.181Z" fill="#1D1D1B"/>
<path d="M277.433 185.26C276.458 184.078 275.619 183.238 272.784 184.124C270.766 184.715 270.109 188.463 271.311 192.439C272.512 196.416 275.097 199.256 277.115 198.574C278.014 198.165 278.755 197.473 279.225 196.604C279.696 195.734 279.871 194.735 279.723 193.757C279.224 191.303 280.109 190.758 280.018 188.736C279.927 186.714 278.431 186.464 277.433 185.26Z" fill="#1D1D1B"/>
<path d="M259.451 181.829C259.191 190.156 260.884 198.428 264.394 205.981C264.958 207.178 265.876 208.172 267.025 208.827C268.173 209.481 269.496 209.765 270.811 209.638C271.67 209.57 272.535 209.679 273.35 209.958C274.166 210.238 274.916 210.682 275.553 211.263C276.191 211.845 276.703 212.551 277.057 213.338C277.411 214.126 277.601 214.977 277.614 215.841C277.472 216.835 277.197 217.806 276.797 218.727C276.512 219.493 276.472 220.329 276.683 221.119C276.895 221.909 277.347 222.614 277.976 223.134L280.244 224.793L282.512 223.384C284.181 222.169 286.091 221.325 288.112 220.908C290.134 220.82 292.109 221.53 293.614 222.885C295.118 224.24 296.033 226.132 296.162 228.155C296.162 228.746 296.162 229.632 295.981 230.427C295.892 231.277 296.083 232.133 296.525 232.863C296.967 233.593 297.636 234.158 298.43 234.472L301.332 235.38L302.965 233.108C305.232 230.018 307.5 228.337 308.497 228.337C309.853 228.34 311.17 228.785 312.25 229.605C313.33 230.425 314.114 231.575 314.484 232.881C314.841 234.221 315.626 235.406 316.72 236.255C317.813 237.105 319.154 237.572 320.538 237.584H321.286C347.544 234.403 366.637 211.615 366.637 183.374C366.633 169.266 361.088 155.726 351.202 145.68C341.316 135.634 327.882 129.889 313.804 129.686C299.725 129.483 286.131 134.839 275.961 144.596C265.791 154.352 259.86 167.727 259.451 181.829ZM345.254 150.021C349.757 154.347 353.337 159.543 355.777 165.296C358.217 171.048 359.466 177.237 359.449 183.488C359.449 207.73 343.417 227.36 321.218 230.45C320.308 227.8 318.596 225.501 316.32 223.872C314.044 222.243 311.317 221.365 308.52 221.362C306.327 221.458 304.221 222.254 302.511 223.634C301.371 220.755 299.387 218.289 296.821 216.561C294.255 214.834 291.226 213.925 288.135 213.955C286.976 213.977 285.828 214.184 284.734 214.569C284.305 211.18 282.622 208.077 280.019 205.872C277.415 203.668 274.081 202.522 270.675 202.663C266.261 192.806 265.41 181.715 268.268 171.298C271.127 160.88 277.516 151.784 286.339 145.572C295.162 139.36 305.868 136.421 316.619 137.257C327.37 138.094 337.494 142.655 345.254 150.157V150.021Z" fill="#1D1D1B"/>
</g>
<defs>
<clipPath id="clip0_118_3422">
<rect width="506" height="361" fill="white"/>
</clipPath>
</defs>
</svg>
