<svg width="43" height="48" viewBox="0 0 43 48" fill="none" xmlns="http://www.w3.org/2000/svg">
<path d="M39.2221 13.624C37.1188 12.2035 34.2984 12.9137 32.0038 15.263C32.2428 14.3889 32.3862 13.4054 32.4818 12.422C32.9121 6.74004 30.4741 2.04147 26.9366 1.65903C23.8772 1.38586 21.1046 4.55466 20.1964 9.14395C18.571 4.77319 15.3204 2.26001 12.3566 3.18879C10.6357 3.73514 9.29719 5.37417 8.62794 7.77809C8.0543 9.90883 8.0543 12.422 8.67575 14.9352C8.91476 15.864 9.20158 16.7928 9.58401 17.6669C6.95482 15.864 4.03882 15.7001 2.22229 17.5577C-0.311291 20.1255 0.166743 25.3704 3.32177 29.468C4.75587 31.3255 6.52459 32.6368 8.29332 33.2378C9.34499 33.5656 10.3967 33.6202 11.3049 33.4017C8.96257 36.9529 8.1021 40.4495 8.96257 43.2359C9.58401 45.312 11.0659 46.6778 13.0259 47.1149C15.4638 47.6066 17.4238 46.1861 19.1447 44.8749C20.4354 43.9461 21.6305 43.0173 22.9212 42.9081H23.0168C24.3075 42.7441 25.6459 43.3451 27.0322 44.0007C28.8966 44.8749 30.9999 45.8583 33.2467 44.9842C33.2945 44.9842 33.3423 44.9295 33.3901 44.9295C35.2544 44.11 36.4495 42.4163 36.7363 40.2856C37.1188 37.3353 35.6847 34.0573 32.8165 31.107C33.4857 31.107 34.1549 30.9977 34.872 30.7246C36.7841 29.9597 38.6963 28.1567 40.0348 25.5343C42.5205 20.8357 42.1381 15.6455 39.2221 13.624Z" fill="#FFBB32"/>
<path d="M39.7959 12.3127C37.6925 10.8922 34.8721 11.6025 32.5776 13.9518C32.8166 13.0776 32.96 12.0942 33.0556 11.1108C33.4858 5.42881 31.0479 0.730251 27.5104 0.34781C24.451 0.0746377 21.6784 3.24343 20.7701 7.83272C19.1448 3.46197 15.8942 0.948788 12.9303 1.87757C11.2094 2.42392 9.87093 4.06295 9.20168 6.46686C8.62804 8.5976 8.62804 11.1108 9.24949 13.624C9.4885 14.5528 9.77532 15.4815 10.1578 16.3557C7.52856 14.5528 4.61255 14.3889 2.79602 16.2464C0.262439 18.8142 0.740473 24.0045 3.8955 28.1021C5.3296 29.9597 7.09833 31.2709 8.86706 31.8719C9.91873 32.1997 10.9704 32.2543 11.8787 32.0358C9.53631 35.587 8.67584 39.0836 9.53631 41.87C10.1578 43.9461 11.6397 45.3119 13.5996 45.749C16.0376 46.2407 17.9975 44.8202 19.7184 43.509C21.0091 42.5802 22.2042 41.6514 23.4949 41.5421H23.5905C24.8812 41.3782 26.2197 41.9792 27.606 42.6348C29.4703 43.509 31.5737 44.4924 33.8204 43.6183C33.8683 43.6183 33.9161 43.5636 33.9639 43.5636C35.8282 42.7441 37.0233 41.0504 37.3101 38.9197C37.6925 35.9694 36.2584 32.6914 33.3902 29.7411C34.0595 29.7411 34.7287 29.6319 35.4458 29.3587C37.3579 28.5938 39.27 26.7909 40.6085 24.1684C43.0465 19.5245 42.7119 14.2796 39.7959 12.3127Z" fill="#3B3B3B"/>
<path d="M21.9652 22.584C17.9019 23.1304 17.2804 27.6104 13.9342 31.9812C9.01045 38.428 10.4446 43.3451 13.8386 44.0554C17.2326 44.7656 19.7184 40.1763 23.3515 39.8485C23.3515 39.8485 23.3515 39.8485 23.3993 39.8485C23.3993 39.8485 23.3993 39.8485 23.4471 39.8485C27.0324 39.3568 30.2352 43.3451 33.4858 41.9793C36.7365 40.5588 37.3579 35.3685 31.4303 30.1236C27.367 26.5724 26.0763 22.2562 21.9652 22.584Z" fill="white"/>
<path d="M13.0327 29.5451C14.8952 27.6706 14.3399 23.4707 11.7925 20.1645C9.24498 16.8583 5.66997 15.6977 3.80745 17.5722C1.94493 19.4467 2.5002 23.6466 5.04768 26.9528C7.59516 30.259 11.1702 31.4197 13.0327 29.5451Z" fill="white"/>
<path d="M31.5736 18.0494C29.6136 21.8738 29.757 26.0806 31.8604 27.5558C34.0115 29.0309 37.3577 27.1187 39.3177 23.2943C41.2776 19.4699 41.1342 15.263 39.0309 13.7879C36.8797 12.3674 33.5335 14.2796 31.5736 18.0494Z" fill="white"/>
<path d="M17.2835 19.8692C19.8283 19.0662 21.0142 14.7844 19.9323 10.3054C18.8504 5.82634 15.9104 2.84628 13.3656 3.6492C10.8208 4.45213 9.63487 8.73398 10.7168 13.213C11.7987 17.692 14.7387 20.6721 17.2835 19.8692Z" fill="white"/>
<path d="M31.5057 10.9767C31.8431 6.34622 29.9839 2.38945 27.353 2.13902C24.7222 1.88859 22.3159 5.43934 21.9784 10.0698C21.641 14.7003 23.5002 18.6571 26.131 18.9075C28.7619 19.158 31.1682 15.6072 31.5057 10.9767Z" fill="white"/>
</svg>
