<svg width="516" height="430" viewBox="0 0 516 430" fill="none" xmlns="http://www.w3.org/2000/svg">
<g clip-path="url(#clip0_73_1024)">
<path d="M244.584 50.07C242.428 47.1536 238.225 43.6833 230.472 43.6833C223.164 43.6464 215.881 44.5253 208.792 46.2995C207.622 46.5227 206.482 46.7843 205.397 47.069C204.812 44.8066 203.69 42.7186 202.125 40.9824C199.222 37.7506 195.365 36.2424 191.285 35.7577C190.174 35.535 189.051 35.3859 187.92 35.3114C187.197 35.2575 186.481 35.2344 185.765 35.2344C181.555 35.3074 177.381 36.0182 173.385 37.3428L171.106 23.7153C170.752 21.194 169.839 18.7835 168.435 16.6592C167.693 14.8849 166.556 13.3032 165.111 12.0345C163.665 10.7658 161.949 9.84364 160.092 9.33826C158.236 8.83289 156.289 8.75764 154.399 9.11823C152.509 9.47882 150.727 10.2658 149.188 11.4191L145.461 14.22C144.802 14.709 144 14.9659 143.18 14.9506C142.359 14.9353 141.567 14.6486 140.927 14.1353L138.17 11.9038C136.636 10.6588 134.83 9.79118 132.899 9.37096C130.967 8.95073 128.964 8.98958 127.051 9.48439C125.137 9.97919 123.366 10.9161 121.881 12.2198C120.396 13.5234 119.238 15.1574 118.5 16.9901C117.31 18.7362 116.492 20.7086 116.098 22.7843C115.882 23.9385 115.674 25.0927 115.474 26.27L115.189 27.8782C114.635 31.0279 114.068 34.1725 113.488 37.312C111.217 36.6386 108.902 36.1243 106.559 35.7731C104.577 35.4612 102.575 35.2991 100.569 35.2883C98.7969 35.2784 97.0279 35.4434 95.2879 35.7808C91.2075 36.2655 87.3658 37.7737 84.471 40.9978C83.0947 42.5164 82.058 44.3106 81.43 46.2611C74.3395 44.4807 67.053 43.5991 59.7423 43.6371C51.9895 43.6371 47.786 47.1075 45.6303 50.0238C40.8801 56.4336 41.011 66.1828 46.0306 82.6035C46.6904 85.1145 47.1791 87.6674 47.4934 90.2445C48.5097 97.1698 50.1264 107.942 57.8792 114.46C60.4774 116.848 63.6671 118.497 67.1178 119.238C64.8285 126.422 63.6245 133.907 63.5455 141.446C63.5455 164.861 76.8337 186.922 99.0911 200.465C114.774 209.991 130.179 214.823 144.884 214.823C157.972 214.823 171.722 210.822 186.958 202.596C211.179 189.515 226.222 166.077 226.222 141.446C226.143 133.904 224.939 126.417 222.65 119.231C239.002 115.46 241.389 99.4397 242.744 90.306C243.06 87.7297 243.546 85.1772 244.199 82.6651C249.211 66.2213 249.334 56.4797 244.584 50.07Z" fill="white"/>
<path d="M101.88 78.3483C101.88 78.3483 90.8626 61.3428 61.0758 61.3275C51.6986 61.3275 51.3213 69.861 56.0253 85.2352C58.974 94.8613 56.2948 111.767 74.0715 111.736" fill="#F0A293"/>
<path d="M182.285 69.8225C182.285 69.8225 193.302 52.8247 223.089 52.8016C232.474 52.8016 232.851 61.3428 228.147 76.7093C225.199 86.3355 227.878 103.249 210.101 103.21" fill="#F0A293"/>
<path d="M213.736 145.354C213.736 165.907 200.887 184.49 181.624 194.901C171.431 200.411 159.429 205.22 146.587 205.22C132.436 205.22 119.302 199.718 108.47 193.131C90.932 182.466 79.4453 164.792 79.4453 145.354C79.4453 113.929 109.471 72.531 146.587 72.531C183.703 72.531 213.736 113.929 213.736 145.354Z" fill="#F0A293"/>
<path d="M215.105 141.222C215.036 155.796 208.692 169.493 198.599 179.873C193.166 185.37 186.892 189.967 180.014 193.493C172.261 197.556 164.077 200.865 155.454 202.511C138.001 205.843 120.679 200.203 105.758 191.323C93.0089 183.767 82.2998 172.225 77.4495 158.059C68.8345 132.843 81.4529 104.772 99.0063 86.4971C108.114 77.0325 119.462 69.4301 132.335 66.2675C145.207 63.1049 158.511 65.0979 170.198 71.0613C182.146 77.1479 192.224 86.6741 199.838 97.6468C207.16 108.196 212.58 120.277 214.512 133.043C214.907 135.749 215.103 138.48 215.097 141.215C215.097 145.154 221.256 145.162 221.256 141.215C221.202 127.664 216.714 114.283 210.155 102.564C203.086 89.7513 193.143 78.75 181.107 70.4227C169.297 62.397 155.015 57.6878 140.649 58.8036C126.091 59.927 112.695 66.4445 101.601 75.7321C90.5567 85.093 81.7606 96.8168 75.8636 110.035C70.2049 122.647 67.1177 136.467 69.2503 150.271C71.6985 166.092 81.0757 180.373 93.5016 190.284C107.429 201.349 125.598 209.252 143.613 209.629C153.245 209.829 162.814 207.613 171.722 204.05C179.806 200.819 187.72 196.817 194.657 191.508C207.214 181.905 216.983 168.308 220.102 152.634C220.854 148.876 221.243 145.055 221.264 141.222C221.256 137.275 215.128 137.267 215.105 141.222Z" fill="#1F140F"/>
<path d="M184.271 73.4006C184.417 73.1774 184.579 72.9774 184.725 72.7619C185.095 72.2233 184.333 73.2467 184.564 72.9774L184.841 72.6234C185.141 72.2617 185.441 71.9078 185.757 71.5615C186.527 70.7074 187.297 69.8841 188.144 69.1069C188.659 68.6144 189.191 68.145 189.722 67.6833C190.014 67.4294 190.315 67.1832 190.615 66.9139L191.031 66.5753L191.277 66.3752C198.883 60.5657 207.96 57.1415 217.345 55.5487C220.497 55.031 223.677 54.7123 226.869 54.5945C229.533 54.4868 231.719 54.2867 233.905 55.0639C234.398 55.2409 233.305 54.7407 234.059 55.1331L234.529 55.3948C234.682 55.4763 234.829 55.5689 234.968 55.6718C234.506 55.3563 234.86 55.5794 234.968 55.6718C235.542 56.0838 235.977 56.6609 236.215 57.3262C236.261 57.4185 236.438 57.8571 236.215 57.3262C236.284 57.4954 236.354 57.6878 236.408 57.8648C236.531 58.3034 236.654 58.7343 236.746 59.1806C236.825 59.4984 236.871 59.8232 236.885 60.1501C236.939 60.7426 236.962 61.3428 236.962 61.943C236.962 67.9373 235.099 73.793 233.451 79.4948C232.35 83.2884 231.965 87.2589 231.334 91.1524C230.603 95.677 229.74 99.9784 227.254 103.572C226.107 105.151 224.575 106.412 222.804 107.235C220.298 108.254 217.609 108.744 214.905 108.673C210.963 108.673 210.955 114.829 214.905 114.829C220.517 114.829 226.237 113.452 230.302 109.389C233.644 106.08 235.399 101.533 236.415 97.0236C237.401 92.7068 237.763 88.2746 238.648 83.9424C239.241 81.0646 240.226 78.2868 240.958 75.4782C241.846 72.2455 242.504 68.9542 242.929 65.6288C243.452 61.012 243.26 55.541 239.887 51.909C236.038 47.7385 229.756 48.2771 224.605 48.6234C212.865 49.3928 201.078 52.5323 191.161 59.0344C186.65 61.9969 182.008 65.7212 179.02 70.3073C176.857 73.6237 182.162 76.6939 184.31 73.3852L184.271 73.4006Z" fill="#1F140F"/>
<path d="M199.554 95.0922C199.554 94.9613 199.554 94.8305 199.554 94.7074C199.6 94.0457 199.4 95.5615 199.515 94.9921C199.561 94.769 199.585 94.5381 199.631 94.315C199.911 92.9281 200.313 91.5686 200.832 90.2521L201.063 89.6827C200.87 90.1675 200.955 89.929 201.063 89.6135C201.286 89.121 201.525 88.6208 201.771 88.1361C202.319 87.0789 202.923 86.0515 203.58 85.0582C205.154 82.6525 207.004 80.4393 209.093 78.4637C212.343 75.3584 215.948 72.6466 219.832 70.3842C223.22 68.3605 220.14 63.0588 216.753 65.0902C206.744 71.1075 196.443 80.3182 193.849 92.2836C193.63 93.2061 193.491 94.1458 193.433 95.0922C193.264 99.0319 199.4 99.0242 199.592 95.0922H199.554Z" fill="#1F140F"/>
<path d="M111.217 70.2457C108.73 66.3983 105.058 63.3204 101.439 60.6195C92.6166 54.0943 81.8998 50.5317 71.0983 49.0773C67.3327 48.5596 63.5358 48.3025 59.7348 48.3079C57.3335 48.2423 54.9533 48.7709 52.8058 49.8468C48.5868 52.1553 47.1703 56.9645 47.0933 61.4813C46.9701 68.1296 48.9872 74.7087 50.8195 81.0338C52.0128 85.1582 52.3593 89.4981 53.1292 93.7071C54.0145 98.8241 55.4388 103.995 58.8032 108.089C62.8528 113.006 69.1505 114.675 75.3018 114.706C79.2437 114.706 79.2514 108.604 75.3018 108.55C70.6132 108.55 66.5021 107.442 63.5457 104.21C62.5532 102.934 61.7303 101.535 61.0975 100.048C60.3655 98.1071 59.8039 96.1066 59.4191 94.0687C58.603 90.0751 58.2412 85.9969 57.402 82.011C56.2395 76.44 54.1223 71.1383 53.4602 65.4442C53.3266 64.3023 53.2546 63.1541 53.2446 62.0046C53.2186 61.0698 53.2804 60.1346 53.4294 59.2114C53.5218 58.7651 53.6219 58.3188 53.7528 57.8802C53.8298 57.6493 53.899 57.4262 53.9914 57.203C53.9452 57.3185 53.7528 57.6878 53.9914 57.203C54.1532 56.8852 54.3331 56.5769 54.5303 56.2797C54.9769 55.5948 54.2686 56.549 54.5996 56.1873C54.7767 55.995 54.9538 55.818 55.1386 55.6333C55.5851 55.2101 54.9615 55.6333 55.6698 55.2716C55.8392 55.1793 56.6937 54.7869 56.1625 54.9946C56.9629 54.672 57.8107 54.4823 58.6723 54.4329C61.9265 54.3135 65.185 54.4447 68.4191 54.8253C78.4276 55.8411 88.3899 58.9805 96.7586 64.6978C98.2007 65.6423 99.5675 66.6971 100.847 67.8526C101.924 68.7972 102.951 69.7963 103.926 70.8459C104.303 71.246 104.696 71.6154 105.019 72.0771C105.235 72.331 106.105 73.516 105.327 72.4387C105.528 72.708 105.735 72.9696 105.912 73.2082C108.06 76.5016 113.373 73.4313 111.209 70.1303L111.217 70.2457Z" fill="#1F140F"/>
<path d="M96.7824 95.0306C96.6117 92.7392 96.0682 90.4911 95.1733 88.3746C92.9502 82.9611 89.6108 78.0765 85.3727 74.0392C81.7628 70.5843 77.7633 67.5605 73.4548 65.0286C70.0674 62.9972 66.9801 68.2912 70.3753 70.3226C73.8375 72.3538 77.0828 74.7336 80.0605 77.4249C81.2949 78.5663 82.4692 79.7709 83.5788 81.0338C84.4518 82.0033 85.257 83.0317 85.9886 84.1117C86.6763 85.105 87.3135 86.1323 87.8979 87.1896C88.1597 87.659 88.406 88.1361 88.6678 88.6131L89.0142 89.3826C89.0681 89.5057 89.3838 90.2214 89.2144 89.8212C89.045 89.4211 89.3376 90.1367 89.3684 90.2214C89.3992 90.306 89.5147 90.5907 89.5762 90.7754C89.7225 91.1755 89.8611 91.5449 89.9843 91.9758C90.1768 92.5991 90.3538 93.2377 90.4924 93.8841C90.554 94.1534 90.6002 94.4227 90.6464 94.6536C90.6464 94.7613 90.6464 94.8613 90.7003 94.969C90.7773 95.3076 90.7696 94.2842 90.6387 94.515C90.5925 94.6074 90.6849 94.8998 90.6849 95.0229C90.8543 98.9472 96.9825 98.9703 96.844 95.0229L96.7824 95.0306Z" fill="#1F140F"/>
<path d="M136.625 161.229C136.625 166.23 135.408 170.286 133.899 170.286C132.39 170.286 131.174 166.23 131.174 161.229C131.174 156.227 132.398 152.172 133.899 152.172C135.401 152.172 136.625 156.227 136.625 161.229Z" fill="#1F140F"/>
<path d="M157.064 161.229C157.064 166.23 155.848 170.286 154.339 170.286C152.83 170.286 151.613 166.23 151.613 161.229C151.613 156.227 152.837 152.172 154.339 152.172C155.84 152.172 157.064 156.227 157.064 161.229Z" fill="#1F140F"/>
<path d="M119.956 173.91C120.033 163.137 125.838 151.233 134.899 145.208C139.126 142.392 144.138 140.999 149.142 142.269C154.324 143.569 158.581 147.07 161.93 151.118C165.564 155.582 168.162 160.796 169.537 166.384C170.753 171.224 171.161 176.734 169.144 181.428C164.94 191.215 152.106 192.654 142.768 192.27C137.094 192.031 131.165 190.938 126.415 187.653C121.873 184.506 120.002 179.319 119.956 173.91C119.956 169.97 113.797 169.962 113.797 173.91C113.851 180.204 115.845 186.414 120.556 190.769C124.976 194.847 130.842 196.925 136.724 197.81C148.419 199.549 164.024 198.579 171.954 188.499C180.369 177.78 176.335 161.76 169.567 151.272C162.469 140.268 149.658 131.966 136.462 137.467C122.743 143.177 113.943 159.467 113.828 173.91C113.797 177.857 119.925 177.857 119.956 173.91Z" fill="#1F140F"/>
<path d="M125.907 52.9555C128.547 53.0588 131.074 54.0482 133.082 55.7641C135.219 57.6297 136.631 60.1876 137.07 62.9895C137.178 63.3818 137.437 63.7154 137.791 63.9173C138.144 64.1192 138.563 64.1729 138.957 64.0668C139.348 63.9571 139.68 63.6975 139.88 63.3444C140.08 62.9913 140.133 62.5733 140.027 62.1816C139.43 58.8286 137.705 55.7802 135.137 53.5422C132.568 51.3042 129.312 50.0111 125.907 49.8776C125.499 49.8776 125.107 50.0397 124.818 50.3283C124.529 50.617 124.367 51.0084 124.367 51.4166C124.367 51.8247 124.529 52.2161 124.818 52.5048C125.107 52.7934 125.499 52.9555 125.907 52.9555Z" fill="#1F140F"/>
<path d="M135.354 48.5618C137.835 49.5463 139.91 51.3402 141.242 53.6521C142.574 55.9639 143.085 58.658 142.691 61.2967C142.597 61.688 142.655 62.1005 142.854 62.4506C143.053 62.8008 143.377 63.0622 143.762 63.1819C144.154 63.2883 144.572 63.2356 144.925 63.0353C145.278 62.8349 145.538 62.5032 145.648 62.1123C146.27 58.6848 145.659 55.1479 143.923 52.1272C142.187 49.1066 139.438 46.7969 136.163 45.607C135.772 45.5029 135.356 45.5567 135.004 45.7568C134.653 45.957 134.394 46.2874 134.284 46.6766C134.178 47.0683 134.231 47.4863 134.431 47.8394C134.631 48.1925 134.963 48.4522 135.354 48.5618Z" fill="#1F140F"/>
<path d="M176.204 125.633C176.204 130.65 173.463 134.713 170.083 134.713C166.704 134.713 163.963 130.65 163.963 125.633C163.963 120.616 166.704 116.553 170.083 116.553C173.463 116.553 176.204 120.616 176.204 125.633Z" fill="#1F140F"/>
<path d="M126.546 125.633C126.546 130.65 123.805 134.713 120.425 134.713C117.045 134.713 114.305 130.65 114.305 125.633C114.305 120.616 117.045 116.553 120.425 116.553C123.805 116.553 126.546 120.616 126.546 125.633Z" fill="#1F140F"/>
<path d="M194.905 45.7686C192.795 43.968 190.078 43.2909 187.345 43.0985C181.062 42.6676 175.173 44.8991 169.422 46.9921C168.652 47.2768 167.813 47.523 166.989 47.7615C166.573 45.2607 166.165 42.7599 165.749 40.2591C164.892 35.1293 164.04 29.9866 163.193 24.8311C162.839 22.6842 162.154 20.7605 160.252 19.3986C159.35 18.7568 158.309 18.336 157.214 18.1703C156.118 18.0045 154.999 18.0984 153.947 18.4444C152.589 19.0185 151.327 19.797 150.205 20.7528C148.917 21.8548 147.448 22.7268 145.863 23.3306C144.735 23.6769 143.548 23.7934 142.374 23.6731C141.2 23.5528 140.061 23.1983 139.027 22.6304C136.332 21.0914 134.169 18.0135 130.427 18.2443C128.854 18.3445 127.362 18.9715 126.189 20.0243C125.017 21.0771 124.235 22.494 123.968 24.0462C123.66 25.7083 123.375 27.3857 123.075 29.0555C121.966 35.3037 120.811 41.5518 119.695 47.8C117.847 47.2075 116.084 46.4534 114.267 45.7917C111.384 44.7239 108.399 43.9504 105.36 43.4832C100.124 42.7138 93.257 42.6599 90.1082 47.6769C88.4453 50.3162 88.4992 53.548 89.0535 56.4951C89.9619 61.2736 92.364 65.8828 94.843 70.0379C99.8246 78.4467 107.478 84.9476 116.585 88.5054C123.983 91.4217 132.044 92.3528 139.966 92.5144C147.203 92.676 154.594 92.7529 161.731 91.5218C170.572 90.0628 178.699 85.7716 184.889 79.2948C188.762 75.1039 191.978 70.3511 194.428 65.1979C196.237 61.4736 197.946 57.3723 197.969 53.171C198.028 51.7886 197.785 50.4099 197.256 49.1313C196.726 47.8527 195.924 46.7051 194.905 45.7686ZM192.834 52.0167C192.826 51.9244 192.811 51.7782 192.834 52.0167V52.0167Z" fill="white"/>
<path d="M190.577 50.9933C188.73 49.5508 186.468 48.7413 184.125 48.6849C178.736 48.3156 173.747 50.2239 168.835 52.0014C168.165 52.2476 167.465 52.4554 166.764 52.6477C166.41 50.5163 166.063 48.3848 165.709 46.2534C164.975 41.8673 164.249 37.4813 163.531 33.0953C163.223 31.2639 162.645 29.6249 161.021 28.4784C160.249 27.9302 159.359 27.5714 158.423 27.431C157.486 27.2907 156.53 27.3727 155.632 27.6705C154.471 28.1668 153.396 28.8419 152.444 29.6711C151.346 30.6101 150.093 31.352 148.741 31.8641C147.78 32.1609 146.768 32.2613 145.767 32.1596C144.766 32.0578 143.795 31.7558 142.913 31.2716C140.603 29.9866 138.763 27.3396 135.576 27.532C134.234 27.6151 132.959 28.149 131.958 29.0471C130.958 29.9452 130.29 31.1548 130.064 32.4797C129.802 33.8955 129.556 35.3268 129.294 36.7503C128.339 42.0828 127.361 47.4076 126.399 52.7401C124.859 52.2322 123.319 51.5935 121.78 51.0241C119.323 50.1069 116.779 49.4393 114.189 49.0312C109.723 48.354 103.864 48.3233 101.178 52.6093C99.761 54.8638 99.7995 57.6186 100.277 60.1348C101.047 64.2053 103.102 68.1373 105.212 71.6769C109.459 78.8531 115.988 84.401 123.758 87.4358C130.071 89.929 136.946 90.6984 143.706 90.8523C149.865 90.9985 156.163 91.0678 162.26 90.0136C169.802 88.769 176.735 85.11 182.016 79.5872C185.307 76.0136 188.04 71.9642 190.122 67.5756C191.662 64.3977 193.125 60.8965 193.148 57.3185C193.203 56.141 193.001 54.9658 192.557 53.8738C192.113 52.7818 191.437 51.799 190.577 50.9933ZM188.814 56.3258C188.767 56.2412 188.76 56.1181 188.783 56.3258H188.814Z" fill="#C39C71"/>
<path d="M120.657 46.4996C121.088 46.4996 121.38 46.6689 120.757 46.4996C120.133 46.3303 119.325 46.1071 118.616 45.8763C116.646 45.2299 114.767 44.4143 112.819 43.691C109.802 42.5441 106.675 41.7062 103.488 41.1902C97.999 40.3437 90.7928 40.313 87.49 45.6685C85.7501 48.4925 85.804 51.9398 86.3891 55.0947C87.3361 60.1886 89.8613 65.0979 92.4558 69.5455C97.6324 78.4855 105.659 85.4323 115.252 89.2749C123.013 92.3913 131.466 93.3608 139.773 93.5532C147.364 93.7302 155.086 93.8148 162.585 92.499C171.895 90.9185 180.427 86.3221 186.867 79.4179C190.942 74.9332 194.316 69.859 196.875 64.3669C198.762 60.4041 200.586 56.0334 200.586 51.5397C200.652 50.0705 200.4 48.6045 199.849 47.241C199.298 45.8775 198.459 44.6484 197.391 43.6371C195.182 41.7134 192.325 40.9901 189.461 40.7824C182.879 40.3207 176.704 42.706 170.668 44.9375C168.903 45.5543 167.104 46.0681 165.279 46.4765C161.961 47.246 163.362 52.4015 166.688 51.5935C172.847 50.0546 178.29 47.1613 184.803 46.2533C186.002 46.1173 187.208 46.048 188.414 46.0456C189.016 46.0529 189.618 46.0914 190.216 46.161C190.655 46.2072 189.823 46.0918 190.216 46.161L190.578 46.2226C190.886 46.2841 191.194 46.3457 191.494 46.4303C191.788 46.5075 192.079 46.6 192.364 46.7073C192.849 46.8766 192.094 46.5534 192.541 46.7766C192.803 46.8997 193.049 47.0459 193.311 47.1844C193.572 47.3229 194.081 47.7769 193.619 47.3845C193.803 47.5384 193.973 47.7077 194.15 47.8769C194.327 48.0462 194.612 48.4925 194.327 48.0693C194.466 48.2771 194.589 48.4925 194.712 48.708C195.004 49.2081 194.712 48.5233 194.889 49.0927C194.974 49.3543 195.051 49.616 195.12 49.8622C195.159 50.0221 195.19 50.1839 195.212 50.347C195.212 50.2931 195.166 49.9545 195.212 50.2777C195.282 50.9839 195.282 51.6953 195.212 52.4015C195.025 54.1079 194.63 55.785 194.034 57.3954C192.241 62.4005 189.742 67.124 186.613 71.423C181.511 78.7494 174.008 84.0647 165.402 86.4509C158.527 88.313 151.398 88.313 144.331 88.3054C137.263 88.2977 130.234 88.0283 123.374 86.3201C115.054 84.3987 107.527 79.963 101.818 73.616C98.3823 69.5485 95.6006 64.9718 93.5721 60.0501C92.2325 56.9722 90.9545 53.4864 91.4088 50.1777C91.3472 50.6394 91.478 49.9084 91.5165 49.7776C91.5858 49.5082 91.6551 49.2466 91.7475 49.0081C91.9155 48.7471 92.0647 48.4745 92.194 48.1924C92.4417 47.9759 92.6709 47.7391 92.8792 47.4845C92.6252 47.6846 93.1949 47.2691 93.295 47.2075C93.5721 47.0459 93.8493 46.892 94.1418 46.7535C94.1803 46.7535 93.9109 46.8151 94.4344 46.6535C94.6885 46.5765 94.9425 46.4919 95.2043 46.4226C95.466 46.3534 95.7432 46.2995 96.0127 46.2456L96.3745 46.1841C96.6748 46.1302 96.0126 46.1841 96.5208 46.1841C97.8015 46.0733 99.0894 46.0733 100.37 46.1841C106.46 46.6381 112.473 49.7083 118.386 51.4165C119.133 51.6672 119.909 51.8223 120.695 51.8782C124.113 51.9475 124.113 46.6458 120.695 46.5688L120.657 46.4996Z" fill="black"/>
<path d="M160.875 66.3444C158.619 66.8677 156.371 67.3986 154.115 67.8834C148.657 69.1528 143.021 69.473 137.455 68.8299C134.016 68.3153 130.608 67.6114 127.246 66.7215C124.236 66.0136 121.41 64.6978 121.333 61.112C121.39 60.0149 121.547 58.9254 121.803 57.8571L123.027 50.8779C124.115 44.6759 125.198 38.4765 126.276 32.2796C126.907 28.6862 127.339 24.985 128.178 21.43C128.432 20.3604 129.125 19.437 130.356 19.5525C130.655 19.5949 130.942 19.6941 131.203 19.8449C131.681 20.068 131.034 19.691 131.404 19.9603C131.989 20.3912 132.535 20.876 133.105 21.3299C136.685 24.1924 140.534 25.9007 145.208 25.2543C149.057 24.7233 151.821 22.5072 154.847 20.2758C156.602 18.983 158.373 19.1292 158.819 21.5146C159.589 25.5082 160.128 29.548 160.775 33.5647C161.801 39.7205 162.805 45.8763 163.785 52.0321C164.139 54.2021 164.493 56.3643 164.84 58.5342C165.117 60.204 165.386 60.9119 164.97 62.4355C164.697 63.3854 164.172 64.244 163.451 64.9211C162.73 65.5981 161.84 66.0685 160.875 66.2829C157.572 67.1601 158.973 72.2771 162.284 71.3999C164.821 70.762 167.039 69.2236 168.525 67.0716C170.011 64.9196 170.663 62.3009 170.36 59.7038C170.206 58.4111 169.967 57.1261 169.751 55.8564L166.803 37.6968L164.124 21.2222C163.746 18.9138 163.03 16.8824 161.044 15.4204C160.092 14.7423 158.99 14.303 157.833 14.1396C156.675 13.9762 155.495 14.0935 154.392 14.4816C152.992 15.1057 151.694 15.9385 150.543 16.9516C149.177 18.1326 147.613 19.0626 145.924 19.6987C144.739 20.0646 143.493 20.1852 142.26 20.0529C141.028 19.9206 139.835 19.5382 138.756 18.9292C135.93 17.321 133.659 14.0045 129.733 14.2507C128.076 14.3655 126.507 15.0358 125.279 16.153C124.05 17.2701 123.235 18.7689 122.966 20.4066C122.635 22.1918 122.342 23.977 122.034 25.7929C120.109 36.7811 118.069 47.7538 116.26 58.7651C115.582 62.9126 116.876 66.9677 120.286 69.5378C122.973 71.5769 126.646 71.977 129.848 72.7311C135.101 74.0425 140.513 74.6047 145.924 74.4009C150.341 74.0616 154.721 73.3355 159.012 72.231L162.314 71.4615C165.61 70.692 164.201 65.575 160.875 66.3444Z" fill="black"/>
<path d="M164.294 53.2633C162.338 55.4332 159.22 55.6641 156.51 56.295C152.357 57.3492 148.099 57.9351 143.815 58.0418C139.432 57.9967 135.07 57.4336 130.819 56.3643C128.279 55.7718 124.498 55.5333 122.782 53.2864C121.896 52.1399 120.51 51.5551 119.148 52.3322C118.031 52.9709 117.323 54.8253 118.201 55.9565C119.753 58.1046 122.003 59.6469 124.568 60.3194C125.9 60.6657 127.255 60.9504 128.594 61.2582C133.35 62.4834 138.228 63.1725 143.137 63.3127C148.124 63.2555 153.086 62.6072 157.919 61.3813C161.63 60.5195 165.341 59.9808 168.043 56.9876C170.353 54.456 166.58 50.6932 164.294 53.2325V53.2633Z" fill="black"/>
<path d="M134.422 34.488C137.417 36.3131 140.857 37.2786 144.365 37.2786C147.873 37.2786 151.313 36.3131 154.308 34.488C154.612 34.3127 154.877 34.0794 155.091 33.8014C155.304 33.5234 155.46 33.2062 155.55 32.8679C155.641 32.5296 155.664 32.1767 155.618 31.8296C155.572 31.4824 155.458 31.1477 155.282 30.8446C155.107 30.5414 154.873 30.2758 154.595 30.0628C154.317 29.8498 154 29.6937 153.661 29.6033C153.323 29.5129 152.97 29.49 152.622 29.536C152.275 29.582 151.94 29.6958 151.637 29.8712C150.569 30.5707 149.393 31.0906 148.157 31.4101C145.678 32.1283 143.045 32.1283 140.566 31.4101C139.335 31.0886 138.165 30.5688 137.101 29.8712C136.798 29.6953 136.463 29.5809 136.116 29.5345C135.768 29.4881 135.415 29.5105 135.076 29.6006C134.737 29.6906 134.419 29.8464 134.141 30.0592C133.862 30.272 133.628 30.5376 133.452 30.8407C133.276 31.1439 133.162 31.4787 133.115 31.826C133.069 32.1734 133.091 32.5265 133.181 32.8652C133.271 33.2039 133.427 33.5215 133.64 33.7999C133.853 34.0784 134.119 34.3122 134.422 34.488Z" fill="#1F140F"/>
<path d="M489.708 106.465L479.446 89.8905C475.568 83.6539 469.947 78.689 463.278 75.609C464.288 71.4726 464.682 67.21 464.448 62.9587C464.905 53.5858 463.082 44.242 459.136 35.7269C458.371 34.2356 457.17 33.0125 455.693 32.2203C454.215 31.4281 452.532 31.1045 450.866 31.2925C449.199 31.4805 447.63 32.1712 446.367 33.2726C445.103 34.3741 444.205 35.8341 443.792 37.4582C442.327 43.3429 439.958 48.9652 436.771 54.1251C436.686 53.8173 436.602 53.5172 436.494 53.2171C436.609 52.7424 436.681 52.2582 436.709 51.7705L437.264 42.2598C438.508 41.4876 439.524 40.3988 440.209 39.1048C440.893 37.8109 441.221 36.3583 441.159 34.8959C441.131 34.0116 440.956 33.138 440.643 32.3104C440.582 32.1334 440.49 31.9641 440.413 31.7949C441.765 30.034 442.596 27.9298 442.813 25.7208C443.029 23.5118 442.623 21.2863 441.638 19.2966C440.654 17.3069 439.132 15.6325 437.244 14.4632C435.357 13.2939 433.179 12.6765 430.958 12.681C430.295 12.6851 429.633 12.7443 428.98 12.858C428.307 11.1686 427.255 9.65626 425.905 8.43777C424.555 7.21928 422.942 6.32721 421.193 5.83047C419.443 5.33372 417.602 5.24557 415.812 5.57282C414.023 5.90008 412.333 6.63399 410.872 7.71788C410.034 5.50244 408.553 3.58772 406.619 2.21926C404.684 0.850802 402.385 0.0909827 400.016 0.0372415C397.647 -0.0164998 395.316 0.638286 393.321 1.91763C391.327 3.19698 389.76 5.04257 388.823 7.21772C387.259 6.22946 385.486 5.61982 383.645 5.43738C381.804 5.25494 379.946 5.50474 378.219 6.16688C376.492 6.82902 374.943 7.88519 373.696 9.25125C372.45 10.6173 371.539 12.2555 371.038 14.0353C370.009 13.7418 368.944 13.5916 367.874 13.589C364.716 13.5931 361.689 14.8485 359.457 17.0801C357.224 19.3116 355.968 22.337 355.964 25.4928C355.967 26.07 356.013 26.6462 356.102 27.2165C356.234 29.1022 356.834 30.9253 357.848 32.5213C358.861 34.1173 360.256 35.4359 361.907 36.3579L362.677 50.0238C362.503 51.4248 362.456 52.8388 362.539 54.2482C362.539 54.6099 362.539 54.9639 362.539 55.3024V55.4255C358.918 49.9243 356.258 43.849 354.67 37.4582C354.258 35.8341 353.36 34.3741 352.096 33.2726C350.833 32.1712 349.263 31.4805 347.597 31.2925C345.931 31.1045 344.247 31.4281 342.77 32.2203C341.292 33.0125 340.091 34.2356 339.327 35.7269C336.052 42.7703 334.235 50.4023 333.984 58.1649C333.046 64.0559 333.308 70.0754 334.754 75.8629C328.279 78.9431 322.821 83.8105 319.025 89.8905L308.762 106.45C307.583 108.359 306.935 110.548 306.884 112.791C306.834 115.034 307.383 117.25 308.475 119.21C309.567 121.17 311.162 122.804 313.097 123.943C315.031 125.081 317.234 125.683 319.479 125.687H319.679C320.022 125.682 320.364 125.653 320.703 125.602C321.145 125.66 321.59 125.691 322.035 125.694H322.227C323.42 125.679 324.594 125.403 325.669 124.886L334.8 120.508C334.719 124.873 334.219 129.22 333.306 133.489L331.204 142.569C331.059 143.179 330.987 143.804 330.989 144.431C331.011 158.203 335.77 171.548 344.469 182.228C344.469 182.351 344.469 182.466 344.469 182.59C344.469 205.674 368.336 223.703 398.746 223.703C429.157 223.703 453.016 205.643 453.016 182.59C453.016 182.466 453.016 182.343 453.016 182.22C461.712 171.547 466.475 158.211 466.504 144.447C466.505 143.82 466.435 143.195 466.296 142.584L464.21 133.605C463.337 129.799 462.995 125.892 463.193 121.993C463.193 121.393 463.193 120.8 463.24 120.208L473.025 124.902C474.099 125.419 475.274 125.694 476.466 125.71H476.643C477.04 125.705 477.436 125.677 477.829 125.625C478.153 125.674 478.479 125.7 478.807 125.702H479.007C481.253 125.701 483.457 125.1 485.393 123.962C487.329 122.825 488.926 121.191 490.018 119.23C491.111 117.268 491.66 115.051 491.608 112.807C491.556 110.563 490.906 108.374 489.724 106.465H489.708Z" fill="white"/>
<path d="M366.589 78.7176C366.589 78.7176 350.714 71.423 345.086 49.4621C345.086 49.4621 337.533 64.1514 344.901 79.8642" fill="#D7D9DD"/>
<path d="M431.352 78.7177C431.352 78.7177 447.242 71.423 452.854 49.4775C452.854 49.4775 460.407 64.1668 453.039 79.8796" fill="#D7D9DD"/>
<path d="M349.789 90.9601C345.443 89.9702 340.896 90.3613 336.783 92.0787C332.67 93.7962 329.196 96.7542 326.846 100.54L319.355 112.613C319.056 113.098 318.892 113.654 318.881 114.223C318.871 114.793 319.013 115.355 319.294 115.85C319.575 116.346 319.984 116.756 320.478 117.04C320.973 117.323 321.534 117.469 322.104 117.461L339.164 109.258" fill="#E1BB92"/>
<path d="M448.873 90.9601C453.223 89.9638 457.775 90.3518 461.893 92.0696C466.011 93.7873 469.488 96.749 471.839 100.54L479.33 112.613C479.629 113.098 479.793 113.654 479.804 114.223C479.814 114.793 479.672 115.355 479.391 115.85C479.11 116.346 478.701 116.756 478.207 117.04C477.712 117.323 477.151 117.469 476.581 117.461L459.467 109.258" fill="#E1BB92"/>
<path d="M398.739 210.46C421.496 210.46 439.944 196.945 439.944 180.273C439.944 163.602 421.496 150.087 398.739 150.087C375.983 150.087 357.535 163.602 357.535 180.273C357.535 196.945 375.983 210.46 398.739 210.46Z" fill="#E1BB92"/>
<path d="M353.662 175.941C344.77 167.6 346.479 164.484 346.479 151.318L348.466 142.738C349.494 138.06 349.964 133.276 349.867 128.488C349.69 106.126 366.966 84.4656 392.211 84.4656H406.338C431.867 84.4656 450.221 106.919 449.167 130.742C448.948 134.975 449.308 139.218 450.237 143.354L452.085 151.318C452.085 164.468 453.624 167.823 444.74 176.164L443.97 175.695C433.546 146.355 375.142 134.566 353.686 175.926L353.662 175.941Z" fill="#E1BB92"/>
<path d="M370.169 134.582C372.903 134.582 375.119 131.292 375.119 127.233C375.119 123.175 372.903 119.885 370.169 119.885C367.435 119.885 365.219 123.175 365.219 127.233C365.219 131.292 367.435 134.582 370.169 134.582Z" fill="#1F140F"/>
<path d="M428.571 134.582C431.305 134.582 433.522 131.292 433.522 127.233C433.522 123.175 431.305 119.885 428.571 119.885C425.837 119.885 423.621 123.175 423.621 127.233C423.621 131.292 425.837 134.582 428.571 134.582Z" fill="#1F140F"/>
<path d="M391.949 182.005C391.949 188.93 388.161 194.547 383.48 194.547C378.8 194.547 375.012 188.93 375.012 182.005C375.012 175.079 378.792 169.47 383.48 169.47C388.169 169.47 391.949 175.087 391.949 182.005Z" fill="#1F140F"/>
<path d="M414.014 194.547C418.682 194.547 422.467 188.935 422.467 182.012C422.467 175.09 418.682 169.478 414.014 169.478C409.345 169.478 405.561 175.09 405.561 182.012C405.561 188.935 409.345 194.547 414.014 194.547Z" fill="#1F140F"/>
<path d="M357.442 180.073C348.875 172.026 343.482 161.172 342.245 149.487C342.052 147.532 341.752 145.832 342.129 144.185C342.506 142.538 342.899 140.791 343.315 139.091C344.316 134.943 345.039 130.732 345.478 126.487C345.979 121.047 345.547 115.56 346.533 110.166C347.406 105.294 349.021 100.584 351.322 96.2002C355.848 87.4593 363.054 80.3949 371.885 76.0399C376.554 73.7951 381.596 72.4258 386.759 72.0001C389.677 71.7616 392.626 71.8385 395.559 71.8385C402.665 71.8385 409.971 71.3537 416.939 73.0158C436.602 77.7019 450.875 95.9232 452.153 115.891C452.338 118.723 452.153 121.531 452.153 124.355C452.174 127.976 452.558 131.585 453.301 135.128C453.932 138.137 454.679 141.115 455.372 144.108C455.757 145.778 455.464 147.471 455.272 149.448C454.972 152.378 454.4 155.273 453.562 158.097C451.908 163.748 449.248 169.055 445.71 173.764C443.996 176.024 442.092 178.135 440.02 180.073C437.456 182.505 441.337 186.368 443.87 183.921C453.086 175.187 458.978 163.523 460.538 150.926C460.838 148.463 461.254 145.716 460.745 143.269C460.414 141.669 459.976 140.084 459.644 138.498C458.505 133.581 457.535 128.749 457.581 123.663C457.635 117.899 457.581 112.367 456.242 106.734C454.993 101.485 452.969 96.4516 450.236 91.7988C444.771 82.3768 436.466 74.9222 426.509 70.4996C421.298 68.2455 415.743 66.89 410.079 66.4906C407.069 66.2752 404.036 66.3675 401.025 66.3675C392.911 66.3675 384.796 66.0136 376.905 68.2989C355.718 74.4547 341.09 94.7997 340.312 116.576C340.097 122.693 340.02 128.672 338.657 134.674C337.995 137.575 337.233 140.461 336.64 143.369C336.147 145.778 336.571 148.517 336.871 150.941C337.252 154.148 337.914 157.315 338.85 160.405C340.689 166.38 343.555 171.988 347.318 176.98C349.193 179.455 351.269 181.771 353.524 183.905C356.08 186.329 359.96 182.466 357.373 180.058L357.442 180.073Z" fill="#1F140F"/>
<path d="M442.461 182.59C442.322 197.979 427.255 207.79 413.836 211.276C397.738 215.446 378.029 213.122 365.049 202.042C359.975 197.71 355.91 191.862 355.148 185.113C354.386 178.365 356.865 171.971 361.192 166.969C372.201 154.257 391.294 150.348 407.331 152.618C422.728 154.796 442.299 164.691 442.461 182.628C442.461 185.583 447.08 185.591 447.08 182.628C446.926 165.199 430.743 153.657 415.345 149.587C397.376 144.839 375.789 147.724 361.453 160.236C355.648 165.315 351.445 172.171 350.583 179.912C349.72 187.653 352.576 194.97 357.381 200.834C369.245 215.3 390.57 219.594 408.278 217.085C424.199 214.831 442.815 205.351 446.456 188.207C446.841 186.372 447.042 184.503 447.057 182.628C447.08 179.635 442.484 179.635 442.461 182.59Z" fill="#1F140F"/>
<path d="M441.56 83.3499C446.009 82.371 450.633 82.5216 455.009 83.7877C459.385 85.0539 463.374 87.3953 466.612 90.5984C470.392 94.3842 472.964 99.4936 475.766 104.003L479.946 110.751C480.201 111.151 480.485 111.521 480.716 111.975C480.898 112.259 481.01 112.582 481.043 112.917C481.077 113.253 481.031 113.591 480.909 113.906C480.77 114.237 479.223 115.337 479.223 115.176C479.223 115.014 480.47 115.737 479.885 115.383C479.662 115.252 479.408 115.152 479.177 115.045L476.744 113.875L468.991 110.159L455.595 103.741C452.939 102.471 450.606 106.427 453.285 107.704L466.373 113.975L474.796 118.015C476.551 118.854 478.245 120.016 480.254 119.639C484.874 118.777 486.922 113.606 484.697 109.635C483.665 107.796 482.464 106.034 481.355 104.249C478.314 99.3474 475.535 94.0226 471.87 89.5442C464.333 80.3105 451.923 76.3861 440.374 78.9254C437.487 79.5641 438.711 83.9886 441.598 83.3576L441.56 83.3499Z" fill="#1F140F"/>
<path d="M424.777 79.7872C427.639 78.3562 430.315 76.581 432.745 74.5009C438.72 69.5913 443.698 63.5838 447.412 56.8029C450.307 51.5318 452.523 45.9163 454.01 40.0898L449.814 40.6362C450.289 41.5527 450.685 42.5077 451 43.4909C451.984 46.2021 452.733 48.9927 453.24 51.8321C454.876 60.7262 453.756 69.9075 450.029 78.1483C448.805 80.8183 452.763 83.1499 453.994 80.4567C459.961 67.5756 460.346 51.1703 453.779 38.3354C452.87 36.5579 450.06 37.035 449.583 38.8818C445.895 53.0556 437.588 66.6215 425.062 74.3932C424.223 74.9317 423.351 75.4174 422.452 75.8475C419.773 77.0864 422.106 81.0492 424.762 79.818L424.777 79.7872Z" fill="#1F140F"/>
<path d="M358.136 78.9177C353.163 77.8037 347.997 77.8884 343.064 79.1649C338.131 80.4414 333.572 82.8729 329.766 86.2585C325.1 90.4445 322.105 96.2618 318.833 101.533L314.314 108.827C312.643 111.521 312.197 114.691 314.314 117.292C315.769 119.061 318.433 120.3 320.673 119.415C321.066 119.261 321.443 119.046 321.828 118.861L328.865 115.483L344.124 108.166C346.788 106.888 344.463 102.925 341.814 104.203L330.736 109.512L322.783 113.36C321.297 113.936 319.859 114.625 318.479 115.422C318.479 115.422 318.379 115.422 318.364 115.476C318.633 115.022 319.326 115.583 319.01 115.122C319.01 115.06 318.648 115.045 318.564 114.975C318.272 114.817 318.018 114.598 317.818 114.332C317.619 114.066 317.479 113.761 317.409 113.437C317.372 112.733 317.6 112.041 318.048 111.497C319.264 109.512 320.504 107.535 321.736 105.557C324.315 101.402 326.655 96.8543 329.704 93.0069C332.885 89.0287 337.116 86.019 341.918 84.3179C346.721 82.6169 351.904 82.2922 356.881 83.3807C359.768 84.0117 361 79.5872 358.105 78.9485L358.136 78.9177Z" fill="#1F140F"/>
<path d="M376.02 75.8167C373.539 74.5955 371.212 73.0817 369.091 71.3076C363.476 66.758 358.773 61.1861 355.233 54.8869C352.418 49.8429 350.278 44.4516 348.866 38.851C348.381 37.0119 345.571 36.5425 344.663 38.3046C338.096 51.1703 338.504 67.5448 344.416 80.4644C345.648 83.1499 349.613 80.8183 348.381 78.1559C344.658 69.9085 343.549 60.7202 345.202 51.8244C345.712 48.9858 346.461 46.1955 347.442 43.4832C347.768 42.5034 348.177 41.5535 348.666 40.6439L344.463 40.0975C348.427 55.3486 357.397 69.7686 370.939 78.256C371.828 78.8241 372.751 79.338 373.703 79.7949C376.367 81.0261 378.699 77.071 376.012 75.8244L376.02 75.8167Z" fill="#1F140F"/>
<path d="M386.128 16.7131C386.124 16.7462 386.124 16.7797 386.128 16.8129V16.7131Z" fill="white"/>
<path d="M371.586 24.6387C371.578 24.6715 371.578 24.7057 371.586 24.7385C371.586 24.7385 371.586 24.6617 371.586 24.6387Z" fill="white"/>
<path d="M431.497 22.338C431.153 22.2189 430.791 22.159 430.427 22.161C429.941 22.155 429.459 22.252 429.013 22.4457C428.567 22.6393 428.167 22.9252 427.84 23.2844C427.379 23.8038 427.094 24.4552 427.025 25.1459C426.956 25.8366 427.106 26.5315 427.455 27.1318C427.575 27.3223 427.717 27.4979 427.879 27.6551C428.07 27.857 428.209 28.1034 428.281 28.372C428.354 28.6407 428.358 28.9232 428.294 29.194C428.233 29.4627 428.106 29.7123 427.927 29.9214C427.747 30.1306 427.519 30.2929 427.263 30.3944L421.827 32.5566C421.619 32.6396 421.397 32.6814 421.173 32.6798C420.831 32.6842 420.496 32.5862 420.21 32.3983C419.925 32.2103 419.702 31.9412 419.572 31.6256L416.423 23.9923C416.318 23.7444 416.276 23.4748 416.298 23.2067C416.321 22.9387 416.409 22.6802 416.554 22.4534C416.699 22.2342 416.892 22.051 417.119 21.9177C417.346 21.7843 417.6 21.7044 417.862 21.6839H418.024H418.209C418.928 21.5487 419.581 21.1766 420.063 20.6271C420.546 20.0776 420.83 19.3823 420.871 18.6523C420.912 17.9223 420.706 17.1997 420.288 16.5999C419.87 16.0001 419.262 15.5577 418.563 15.3434C418.22 15.219 417.858 15.1564 417.493 15.1587C417.007 15.1527 416.525 15.2498 416.079 15.4434C415.633 15.6371 415.233 15.9229 414.906 16.2822C414.444 16.801 414.158 17.4525 414.089 18.1435C414.02 18.8344 414.171 19.5296 414.521 20.1296C414.637 20.31 414.768 20.48 414.914 20.6374C415.068 20.7996 415.189 20.9914 415.267 21.2014C415.345 21.4113 415.38 21.6349 415.369 21.8587C415.358 22.0825 415.302 22.3017 415.204 22.5031C415.106 22.7046 414.968 22.884 414.798 23.0305L409.732 27.5089C409.409 27.7872 408.997 27.9402 408.57 27.9398H408.408C408.17 27.9209 407.939 27.8522 407.73 27.7382C407.52 27.6242 407.337 27.4674 407.192 27.278L400.525 18.6368C400.376 18.4463 400.271 18.2258 400.217 17.9906C400.162 17.7554 400.159 17.5111 400.209 17.2748C400.262 17.037 400.365 16.8131 400.511 16.6181C400.657 16.423 400.842 16.2613 401.056 16.1437C401.571 15.8577 402.003 15.4442 402.312 14.9429C402.621 14.4416 402.795 13.8694 402.819 13.2812C402.806 12.5825 402.577 11.905 402.163 11.3415C401.75 10.778 401.172 10.3563 400.509 10.134C400.169 10.0087 399.809 9.94616 399.447 9.94936C398.96 9.94336 398.477 10.0411 398.031 10.2362C397.585 10.4312 397.186 10.7191 396.86 11.0805C396.396 11.5982 396.109 12.2499 396.039 12.9414C395.97 13.633 396.123 14.3286 396.475 14.9279C396.789 15.4416 397.243 15.8553 397.784 16.1206C398.004 16.2332 398.196 16.3926 398.347 16.5876C398.499 16.7827 398.605 17.0086 398.659 17.2493C398.714 17.4901 398.715 17.7398 398.662 17.9809C398.609 18.222 398.504 18.4485 398.354 18.6445L391.425 27.5319C391.276 27.7198 391.091 27.8754 390.881 27.9892C390.67 28.103 390.439 28.1726 390.2 28.1937H390.047C389.619 28.1926 389.206 28.0368 388.884 27.7551L384.211 23.623C384.024 23.4589 383.877 23.2555 383.779 23.0276C383.68 22.7996 383.634 22.5526 383.643 22.3046C383.652 22.0565 383.716 21.8135 383.83 21.5931C383.944 21.3726 384.106 21.1803 384.303 21.0298C384.708 20.7233 385.041 20.3315 385.278 19.882C385.515 19.4325 385.65 18.9365 385.674 18.429C385.661 17.7311 385.432 17.0542 385.019 16.4918C384.605 15.9295 384.027 15.5094 383.364 15.2895C383.021 15.1651 382.659 15.1026 382.294 15.1049C381.808 15.0989 381.326 15.1959 380.88 15.3895C380.434 15.5832 380.034 15.869 379.707 16.2283C379.243 16.746 378.956 17.3977 378.886 18.0892C378.817 18.7808 378.97 19.4764 379.322 20.0757C379.556 20.465 379.867 20.8024 380.237 21.067C380.606 21.3317 381.026 21.518 381.47 21.6147C381.711 21.6694 381.938 21.7754 382.134 21.9255C382.331 22.0755 382.493 22.266 382.609 22.4842C382.726 22.6999 382.793 22.9387 382.807 23.1835C382.82 23.4282 382.779 23.6729 382.686 23.9L379.291 32.1334C379.206 32.3427 379.079 32.5329 378.919 32.6927C378.759 32.8526 378.569 32.979 378.36 33.0645C378.146 33.1493 377.919 33.1936 377.69 33.1953C377.466 33.1969 377.244 33.1551 377.035 33.0722L371.277 30.7638C371.039 30.6702 370.825 30.5239 370.652 30.336C370.478 30.1481 370.35 29.9234 370.276 29.6788C370.201 29.4373 370.183 29.1819 370.223 28.9324C370.263 28.6829 370.36 28.4459 370.507 28.2399C370.823 27.8264 371.033 27.3421 371.119 26.829C371.205 26.3159 371.164 25.7896 371 25.2959C370.836 24.8021 370.554 24.3558 370.178 23.9959C369.803 23.6359 369.344 23.3732 368.844 23.2306C368.501 23.1052 368.139 23.0426 367.774 23.0459C367.288 23.0399 366.806 23.1369 366.36 23.3306C365.914 23.5242 365.514 23.8101 365.187 24.1693C364.726 24.6887 364.441 25.3401 364.372 26.0308C364.303 26.7215 364.453 27.4164 364.802 28.0167C365.122 28.5176 365.565 28.9275 366.09 29.2066C366.615 29.4856 367.203 29.6245 367.797 29.6095C367.912 29.6172 368.028 29.6172 368.143 29.6095H368.297C368.71 29.6112 369.11 29.7553 369.429 30.0174C369.603 30.164 369.746 30.3448 369.848 30.5486C369.95 30.7524 370.009 30.9749 370.022 31.2024L371.069 49.793C371.086 49.9956 371.062 50.1996 371 50.3931C370.737 51.5457 370.661 52.7331 370.776 53.9097C370.776 54.379 370.815 54.8407 370.815 55.287V71.2691C370.929 71.5 370.988 71.7541 370.988 72.0116C370.988 72.2692 370.929 72.5233 370.815 72.7542C370.774 72.842 370.738 72.9319 370.707 73.0235C370.684 73.1309 370.653 73.2364 370.615 73.339C370.615 73.3929 370.615 73.5314 370.615 73.5852C370.648 73.6539 370.674 73.7262 370.692 73.8007C371.192 75.4397 374.156 76.3477 375.419 76.7401C379.468 77.9866 383.749 78.5099 388.938 78.9254C392.348 79.1947 395.867 79.3332 399.324 79.3332C402.111 79.3332 404.951 79.2409 407.792 79.0716C412.644 78.8661 417.465 78.1961 422.189 77.071C424.075 76.5862 427.578 75.6628 428.133 73.8084C428.191 73.6458 428.214 73.4731 428.202 73.301C428.191 73.1289 428.143 72.9611 428.063 72.8081C427.937 72.5713 427.87 72.307 427.87 72.0386C427.87 71.7701 427.937 71.5058 428.063 71.2691V55.2639C428.063 54.7946 428.063 54.3021 428.063 53.8096C428.159 52.744 428.115 51.6705 427.933 50.6163C427.893 50.4697 427.844 50.3257 427.786 50.1854C427.695 49.9585 427.655 49.714 427.671 49.4698L428.856 30.3328C428.885 29.904 429.075 29.5019 429.388 29.2067C429.7 28.9115 430.112 28.7448 430.542 28.74C430.743 28.7335 430.944 28.7155 431.143 28.6862C431.865 28.554 432.522 28.1828 433.008 27.6324C433.493 27.0819 433.78 26.3842 433.821 25.6514C433.861 24.9186 433.655 24.1934 433.233 23.5924C432.812 22.9914 432.2 22.5496 431.497 22.338Z" fill="white"/>
<path d="M434.254 23.7615C434.246 23.797 434.246 23.8337 434.254 23.8692C434.262 23.8077 434.254 23.7846 434.254 23.7615Z" fill="white"/>
<path d="M403.257 11.5499C403.25 11.5827 403.25 11.6168 403.257 11.6497C403.253 11.6166 403.253 11.583 403.257 11.5499Z" fill="white"/>
<path d="M395.367 29.548C395.36 29.5758 395.36 29.605 395.367 29.6329C395.362 29.6047 395.362 29.5761 395.367 29.548Z" fill="#FBBA33"/>
<path d="M384.065 35.8577C384.062 35.8833 384.062 35.9093 384.065 35.9349V35.8577Z" fill="#FBBA33"/>
<path d="M427.455 40.4361L423.221 42.1828C423.06 42.2498 422.887 42.2838 422.712 42.2828C422.53 42.282 422.35 42.2454 422.181 42.1751C422.015 42.1015 421.866 41.9955 421.742 41.8633C421.617 41.7312 421.521 41.5756 421.458 41.4056L419.009 35.3344C418.855 34.9343 418.008 34.2956 417.739 34.565L413.789 38.1276C413.542 38.3503 413.221 38.4736 412.889 38.4739H412.765C412.579 38.4547 412.398 38.3977 412.234 38.3064C412.069 38.2152 411.926 38.0915 411.811 37.943L406.614 31.0946C406.357 30.9415 406.063 30.8607 405.763 30.8607C405.464 30.8607 405.17 30.9415 404.913 31.0946L399.523 38.1738C399.409 38.3207 399.267 38.4428 399.104 38.5328C398.941 38.6228 398.762 38.6786 398.576 38.6971H398.446C398.111 38.6977 397.789 38.5711 397.545 38.3431L393.903 35.0574C393.716 34.9301 393.488 34.8791 393.264 34.9148C393.041 34.9506 392.84 35.0705 392.702 35.2498L390.062 41.8134C389.999 41.984 389.903 42.1402 389.779 42.2725C389.654 42.4048 389.504 42.5104 389.338 42.5829C389.17 42.6532 388.989 42.6898 388.807 42.6907C388.633 42.6871 388.461 42.6533 388.299 42.5906L383.818 40.7285C383.441 40.5746 382.817 40.7285 382.832 41.0747L383.656 55.8872C383.662 56.046 383.641 56.2047 383.595 56.3566C383.397 57.279 383.34 58.2258 383.425 59.1652C383.425 59.5345 383.425 59.9347 383.425 60.2578V73.0004C383.514 73.1838 383.561 73.3851 383.561 73.5891C383.561 73.793 383.514 73.9943 383.425 74.1777C383.392 74.2503 383.364 74.3248 383.34 74.4009C383.325 74.4848 383.301 74.5672 383.271 74.6471C383.271 74.6933 383.271 74.801 383.271 74.8395C383.271 74.8779 383.317 74.9549 383.333 75.0087C383.718 76.3169 386.027 77.0479 387.013 77.3172C390.462 78.3143 394.013 78.9183 397.599 79.1178C400.255 79.3332 402.988 79.4409 405.69 79.4409C407.869 79.4409 410.079 79.3717 412.265 79.2332C416.049 79.0711 419.809 78.5402 423.49 77.6481C424.96 77.2556 427.694 76.5246 428.109 75.0472C428.189 74.7931 428.17 74.5182 428.055 74.2777C427.955 74.0881 427.902 73.8768 427.902 73.6622C427.902 73.4476 427.955 73.2362 428.055 73.0466V60.2578C428.055 59.8808 428.055 59.4884 428.055 59.0959C428.125 58.2486 428.092 57.3959 427.955 56.5567C427.955 56.4335 427.878 56.3258 427.84 56.2104C427.771 56.0288 427.739 55.8351 427.747 55.641L428.633 40.3976C428.741 39.6897 427.863 40.2668 427.455 40.4361Z" fill="#FBBA33"/>
<path d="M432.906 35.1575C432.899 35.1853 432.899 35.2146 432.906 35.2424C432.906 35.2424 432.906 35.1806 432.906 35.1575Z" fill="#FBBA33"/>
<path d="M408.747 25.439C408.743 25.4645 408.743 25.4905 408.747 25.5161V25.439Z" fill="#FBBA33"/>
<path d="M431.198 51.2703L432.407 30.3251C432.499 28.7015 430.559 27.0318 428.95 27.6935L420.104 31.3255L423.461 33.2338C421.921 29.412 420.381 25.5877 418.841 21.7608C418.072 19.8448 415.916 19.0677 414.284 20.5528L406.824 27.3473L411.112 27.9013L402.143 15.959C401.893 15.5599 401.545 15.2308 401.133 15.0027C400.721 14.7746 400.258 14.655 399.787 14.655C399.316 14.655 398.852 14.7746 398.44 15.0027C398.028 15.2308 397.681 15.5599 397.431 15.959L388.192 28.2014L392.481 27.6551L385.259 21.0683C383.627 19.5832 381.464 20.3604 380.701 22.2764C379.162 26.0981 377.622 29.9224 376.082 33.7493L379.439 31.841L370.593 28.2091C368.976 27.5473 367.044 29.2248 367.136 30.8407C367.521 37.9096 367.908 44.9811 368.299 52.0552C368.491 55.5486 373.949 55.5717 373.757 52.0552C373.372 44.9863 372.985 37.9148 372.594 30.8407L369.138 33.4723L377.984 37.1042C379.454 37.7044 380.855 36.4271 381.348 35.1959C382.888 31.3742 384.428 27.5525 385.967 23.7307L381.402 24.9311L388.623 31.5101C390.04 32.8029 391.826 32.395 392.912 30.9561C395.991 26.8779 399.071 22.7971 402.15 18.7137H397.439C400.436 22.6996 403.433 26.6804 406.431 30.656C407.516 32.0872 409.303 32.4951 410.719 31.2024L418.179 24.4155L413.622 23.2075L418.202 34.6804C418.703 35.9193 420.081 37.1966 421.567 36.5887L430.405 32.9491L426.933 30.3251L425.724 51.2703C425.524 54.7792 430.983 54.7638 431.183 51.2703H431.198Z" fill="#1F140F"/>
<path d="M431.143 61.4198C431.143 59.8269 431.235 58.2033 431.143 56.6105C430.981 53.8327 428.833 52.1322 426.231 51.6474C422.266 50.8779 418.255 50.2392 414.259 49.7006C405.648 48.5199 396.925 48.3959 388.283 49.3313C383.61 49.8391 378.991 50.6932 374.356 51.4704C371.892 51.8859 369.244 52.7939 368.559 55.5409C368.105 57.3723 368.428 59.5499 368.428 61.4198C368.428 64.3976 373.047 64.3976 373.047 61.4198C373.047 59.9962 372.739 58.2418 373.047 56.8645C373.155 56.3566 373.486 56.3258 374.279 56.1488C374.703 56.0565 375.141 56.0026 375.572 55.9334C379.222 55.3178 382.871 54.6253 386.536 54.1559C394.262 53.1751 402.073 53.059 409.825 53.8096C414.113 54.2174 418.355 54.9946 422.597 55.7102C423.367 55.841 426.231 56.0719 426.5 56.6105C426.77 57.1492 426.5 58.4265 426.5 58.9959V61.4198C426.5 64.3976 431.12 64.3976 431.12 61.4198H431.143Z" fill="#1F140F"/>
<path d="M368.268 63.7974V76.2322C368.273 76.6125 368.365 76.9865 368.536 77.3261C368.707 77.6657 368.953 77.962 369.256 78.1925C369.558 78.423 369.909 78.5818 370.282 78.6568C370.655 78.7318 371.04 78.721 371.409 78.6253C370.154 78.9023 371.409 79.0793 372.009 79.2717C372.61 79.464 373.295 79.6718 373.942 79.8565C375.435 80.2874 376.937 80.6259 378.453 81.003C381.202 81.6109 383.981 82.0572 386.776 82.4035C391.989 83.0264 397.244 83.2271 402.489 83.0036C410.173 82.6922 417.807 81.6147 425.277 79.7872C426.686 79.441 428.103 79.0793 429.489 78.6253C430.008 78.4718 430.464 78.1571 430.792 77.7268C431.12 77.2966 431.303 76.7731 431.313 76.2322V63.7974C431.307 63.2556 431.125 62.7304 430.797 62.2995C430.468 61.8685 430.01 61.5547 429.489 61.4044C409.91 57.2029 389.663 57.2029 370.084 61.4044C367.005 62.0892 368.291 66.8677 371.409 66.1905C390.117 62.1815 409.464 62.1815 428.172 66.1905L426.348 63.7974V76.2322L428.172 73.8468C415.592 77.9328 401.426 78.9947 388.354 77.625C385.246 77.3011 382.16 76.7872 379.115 76.086C377.488 75.7167 375.879 75.2883 374.288 74.801C372.987 74.4086 371.455 73.5544 370.077 73.8622L373.218 76.2476V63.7974C373.226 60.6041 368.268 60.6041 368.268 63.7974Z" fill="#1F140F"/>
<path d="M384.319 17.2517C384.319 17.3517 384.319 17.4518 384.319 17.5518C384.319 17.8442 384.319 17.3902 384.319 17.3671C384.272 17.5241 384.233 17.6833 384.203 17.8442C384.203 17.9365 384.126 18.0289 384.111 18.1212C384.111 18.1212 384.311 17.7057 384.172 17.9519C384.034 18.1982 383.988 18.2751 383.88 18.4367C383.695 18.7214 384.134 18.1828 383.957 18.3367C383.902 18.3923 383.85 18.4514 383.803 18.5137L383.664 18.6445C383.533 18.7599 383.325 18.8368 383.741 18.5983C383.603 18.6752 383.479 18.783 383.341 18.8599L383.171 18.9523C382.879 19.1139 383.61 18.8138 383.171 18.9523C383.017 19.004 382.861 19.0476 382.702 19.0831C382.517 19.0831 382.425 19.0446 382.84 19.0831C382.763 19.0831 382.671 19.0831 382.594 19.0831C382.425 19.0946 382.255 19.0946 382.086 19.0831C381.84 19.0831 382.571 19.1831 382.225 19.0831L381.932 19.0215L381.655 18.9292C381.493 18.8753 381.547 18.7907 381.824 18.9984C381.69 18.9165 381.551 18.842 381.408 18.7753C381.339 18.7291 381.278 18.6753 381.208 18.6368C381.008 18.5214 381.562 18.9523 381.316 18.7137C381.185 18.5906 381.054 18.4136 380.916 18.3059C381.177 18.506 381.124 18.5906 381.031 18.4444L380.87 18.2059L380.777 18.0443C380.692 17.875 380.7 17.6749 380.777 18.1289C380.777 17.9673 380.669 17.8211 380.631 17.6672C380.592 17.5133 380.631 17.5364 380.585 17.4749C380.508 17.1286 380.623 17.9519 380.585 17.4749C380.585 17.321 380.585 17.1671 380.585 17.0132C380.585 16.8593 380.7 16.5977 380.585 17.0978C380.585 17.0363 380.585 16.967 380.585 16.9054C380.619 16.7458 380.665 16.5889 380.723 16.4361C380.831 16.0975 380.515 16.8285 380.685 16.5207C380.739 16.4361 380.777 16.3514 380.823 16.2668C380.87 16.1821 380.916 16.136 380.954 16.0667C380.993 15.9975 381.17 15.9436 380.87 16.1667C380.986 16.057 381.096 15.9414 381.201 15.8205C381.247 15.782 381.493 15.5973 381.201 15.782H381.247C381.419 15.7006 381.587 15.608 381.747 15.505C381.747 15.505 381.308 15.6589 381.578 15.5742L381.855 15.4896C381.955 15.4896 382.44 15.3819 382.101 15.4204C381.763 15.4588 382.317 15.4204 382.409 15.4204H382.663C383.025 15.4204 382.255 15.328 382.579 15.4204C382.771 15.4665 382.956 15.5127 383.141 15.5742C383.472 15.682 382.825 15.3973 383.018 15.5281L383.318 15.682L383.479 15.782C383.872 16.0513 383.264 15.5742 383.479 15.782L383.81 16.1206C384.065 16.3745 383.572 15.7512 383.764 16.0513C383.82 16.1279 383.871 16.2075 383.918 16.2899C383.972 16.3745 384.011 16.4592 384.057 16.5438C384.219 16.8208 383.918 16.1283 384.057 16.4592C384.118 16.6515 384.172 16.8362 384.219 17.0209C384.265 17.2055 384.172 17.2363 384.219 16.8362C384.219 16.967 384.219 17.1055 384.219 17.244C384.249 17.7062 384.454 18.1396 384.792 18.4563C385.13 18.773 385.576 18.9493 386.039 18.9493C386.503 18.9493 386.949 18.773 387.287 18.4563C387.625 18.1396 387.83 17.7062 387.86 17.244C387.847 16.111 387.487 15.0092 386.829 14.0863C386.171 13.1634 385.247 12.4637 384.18 12.0808C383.153 11.7149 382.039 11.666 380.983 11.9404C379.927 12.2148 378.979 12.7999 378.26 13.6198C377.683 14.2863 377.276 15.0824 377.074 15.9401C376.871 16.7978 376.88 17.6917 377.098 18.5456C377.316 19.3994 377.737 20.1878 378.327 20.8436C378.916 21.4993 379.655 22.0029 380.48 22.3114C381.306 22.6199 382.195 22.7241 383.07 22.6151C383.945 22.5062 384.78 22.1873 385.505 21.6858C386.23 21.1842 386.823 20.5148 387.233 19.7346C387.643 18.9545 387.858 18.0868 387.86 17.2055C387.876 16.9566 387.841 16.707 387.757 16.4722C387.673 16.2373 387.541 16.0222 387.371 15.8402C387.2 15.6582 386.994 15.5131 386.765 15.4139C386.536 15.3147 386.289 15.2635 386.039 15.2635C385.79 15.2635 385.543 15.3147 385.314 15.4139C385.085 15.5131 384.879 15.6582 384.708 15.8402C384.537 16.0222 384.406 16.2373 384.322 16.4722C384.237 16.707 384.202 16.9566 384.219 17.2055L384.319 17.2517Z" fill="#1F140F"/>
<path d="M369.706 25.462C369.706 25.5621 369.706 25.6698 369.706 25.7698C369.706 26.0622 369.706 25.6082 369.706 25.5852C369.658 25.7416 369.619 25.901 369.591 26.0622C369.591 26.1469 369.514 26.2469 369.498 26.3315C369.483 26.4162 369.699 25.916 369.56 26.1623C369.421 26.4085 369.375 26.4931 369.267 26.6547C369.083 26.9394 369.521 26.4008 369.344 26.547L369.183 26.724C369.143 26.7713 369.099 26.8151 369.052 26.8548C368.921 26.9779 368.713 27.0472 369.129 26.8548C368.99 26.9317 368.867 27.0395 368.729 27.1164C368.67 27.1442 368.614 27.175 368.559 27.2088C368.267 27.3703 368.998 27.0702 368.559 27.2088L368.089 27.3396C367.897 27.3396 367.812 27.3396 368.228 27.3396H367.982C367.812 27.3396 367.643 27.3396 367.474 27.3396C367.304 27.3396 367.959 27.4319 367.612 27.3396L367.32 27.2703L367.042 27.1857C366.881 27.1318 366.935 27.0472 367.212 27.2549C367.089 27.1626 366.927 27.1087 366.788 27.0241C366.65 26.9394 366.665 26.9317 366.596 26.8933C366.396 26.7701 366.95 27.2088 366.704 26.9702C366.578 26.8268 366.444 26.6906 366.303 26.5624C366.565 26.7548 366.511 26.8471 366.419 26.7009L366.257 26.4624L366.165 26.2931C366.08 26.1315 366.088 25.9314 366.165 26.3777C366.165 26.2238 366.057 26.0776 366.011 25.916C365.965 25.7544 366.011 25.7929 365.972 25.7237C365.895 25.3851 366.011 26.2084 365.972 25.7621C365.965 25.6109 365.965 25.4594 365.972 25.3081C365.972 25.1389 366.088 24.8849 365.972 25.3928C365.972 25.3312 365.972 25.262 366.011 25.2004C366.046 25.0418 366.09 24.8851 366.142 24.731C366.257 24.3848 365.934 25.1235 366.142 24.808C366.196 24.7233 366.234 24.6387 366.28 24.554C366.328 24.4903 366.372 24.4235 366.411 24.354C366.519 24.1847 366.619 24.2386 366.326 24.4617C366.45 24.3694 366.542 24.2155 366.658 24.1154C366.773 24.0154 366.95 23.8923 366.658 24.077H366.704C366.878 23.9959 367.045 23.9007 367.204 23.7923C367.204 23.7923 366.765 23.9539 367.035 23.8692L367.312 23.7769C367.412 23.7769 367.897 23.6691 367.558 23.7153C367.22 23.7615 367.774 23.7153 367.866 23.7153H368.12C368.482 23.7153 367.712 23.623 368.036 23.7153C368.228 23.7615 368.413 23.8153 368.598 23.8769C368.929 23.9846 368.282 23.6999 368.474 23.823C368.667 23.9462 368.675 23.9231 368.767 23.9846C368.825 24.0116 368.879 24.0452 368.929 24.0847C369.329 24.354 368.721 23.8769 368.929 24.0847L369.26 24.4155C369.514 24.6695 369.021 24.0539 369.214 24.3463L369.367 24.5848C369.421 24.6695 369.46 24.7541 369.506 24.8388C369.668 25.1235 369.367 24.4309 369.506 24.7618C369.568 24.9465 369.614 25.1312 369.668 25.3235C369.722 25.5159 369.622 25.539 369.668 25.1389C369.668 25.2697 369.668 25.4082 369.668 25.539C369.652 25.7879 369.687 26.0375 369.771 26.2724C369.855 26.5072 369.986 26.7223 370.157 26.9043C370.328 27.0864 370.534 27.2315 370.763 27.3307C370.992 27.4299 371.239 27.481 371.489 27.481C371.738 27.481 371.985 27.4299 372.214 27.3307C372.443 27.2315 372.649 27.0864 372.82 26.9043C372.991 26.7223 373.122 26.5072 373.206 26.2724C373.29 26.0375 373.325 25.7879 373.309 25.539C373.294 24.4065 372.933 23.3057 372.276 22.3832C371.618 21.4608 370.695 20.7605 369.629 20.3758C368.601 20.013 367.488 19.9658 366.433 20.24C365.378 20.5142 364.43 21.0974 363.709 21.9147C363.132 22.5813 362.725 23.3773 362.523 24.2351C362.32 25.0928 362.329 25.9867 362.547 26.8405C362.765 27.6944 363.187 28.4828 363.776 29.1385C364.365 29.7943 365.104 30.2979 365.93 30.6063C366.756 30.9148 367.644 31.019 368.519 30.9101C369.394 30.8012 370.229 30.4823 370.954 29.9807C371.679 29.4791 372.272 28.8097 372.682 28.0296C373.092 27.2494 373.307 26.3817 373.309 25.5005C373.279 25.0383 373.074 24.6049 372.736 24.2882C372.398 23.9715 371.952 23.7952 371.489 23.7952C371.025 23.7952 370.579 23.9715 370.241 24.2882C369.903 24.6049 369.698 25.0383 369.668 25.5005L369.706 25.462Z" fill="#1F140F"/>
<path d="M432.792 24.5541C432.792 24.6541 432.792 24.7541 432.792 24.8542C432.792 25.1466 432.792 24.6926 432.792 24.6695C432.745 24.8264 432.707 24.9857 432.676 25.1466C432.676 25.2389 432.599 25.3312 432.584 25.4236C432.584 25.4236 432.784 25.0081 432.645 25.2543C432.507 25.5005 432.461 25.5775 432.353 25.7391C432.168 26.0315 432.607 25.4851 432.43 25.639C432.375 25.6946 432.323 25.7538 432.276 25.816L432.137 25.9468C432.006 26.0622 431.799 26.1392 432.214 25.9006C432.076 25.9776 431.953 26.0853 431.814 26.1623L431.645 26.2546C431.352 26.4162 432.083 26.1161 431.645 26.2546C431.49 26.3063 431.334 26.35 431.175 26.3854C430.99 26.3854 430.898 26.3469 431.321 26.3854C431.237 26.3854 431.144 26.3854 431.067 26.3854C430.898 26.397 430.728 26.397 430.559 26.3854C430.313 26.3854 431.044 26.4855 430.698 26.3854L430.413 26.3239L430.136 26.2315C429.974 26.1777 430.02 26.093 430.297 26.3008C430.163 26.2189 430.024 26.1444 429.882 26.0776C429.812 26.0315 429.751 25.9776 429.681 25.9391C429.481 25.8237 430.036 26.2546 429.789 26.0161C429.664 25.8726 429.53 25.7364 429.389 25.6082C429.651 25.8083 429.597 25.893 429.504 25.7467C429.449 25.6702 429.397 25.5906 429.35 25.5082C429.314 25.4561 429.281 25.4022 429.25 25.3466C429.166 25.1773 429.173 24.9773 429.25 25.4313C429.25 25.2774 429.142 25.1235 429.104 24.9696L429.058 24.7772C428.981 24.4309 429.058 25.2543 429.058 24.8157C429.058 24.6618 429.058 24.5079 429.058 24.354C429.058 24.1847 429.166 23.9385 429.058 24.4386C429.058 24.3771 429.058 24.3078 429.058 24.2463C429.092 24.0866 429.139 23.9297 429.196 23.7769C429.304 23.4383 428.989 24.1693 429.196 23.8615C429.243 23.7769 429.281 23.6922 429.335 23.6076L429.458 23.4075C429.566 23.2383 429.674 23.2844 429.373 23.5076C429.492 23.3998 429.602 23.2841 429.704 23.1613C429.751 23.1228 430.005 22.9382 429.704 23.1228H429.751C429.923 23.0414 430.09 22.9488 430.251 22.8458C430.251 22.8458 429.812 22.9997 430.089 22.9151L430.367 22.8304C430.459 22.8304 430.944 22.7227 430.605 22.7612C430.267 22.7996 430.821 22.7612 430.921 22.7612H431.175C431.529 22.7612 430.759 22.6688 431.083 22.7612C431.275 22.8073 431.46 22.8535 431.645 22.9151C431.976 23.0228 431.329 22.7381 431.521 22.8689L431.822 23.0228L431.983 23.1228C432.376 23.3921 431.775 22.9151 431.983 23.1228L432.314 23.4614C432.568 23.7153 432.076 23.0921 432.268 23.3921C432.324 23.4687 432.375 23.5483 432.422 23.6307C432.476 23.7153 432.515 23.8 432.561 23.8846C432.722 24.1616 432.43 23.4691 432.561 23.8C432.622 23.9923 432.676 24.177 432.722 24.3694C432.769 24.5618 432.676 24.5771 432.722 24.177C432.722 24.3078 432.722 24.4463 432.722 24.5848C432.753 25.047 432.957 25.4805 433.296 25.7972C433.634 26.1139 434.08 26.2901 434.543 26.2901C435.007 26.2901 435.453 26.1139 435.791 25.7972C436.129 25.4805 436.334 25.047 436.364 24.5848C436.351 23.4518 435.991 22.35 435.333 21.4271C434.675 20.5043 433.751 19.8045 432.684 19.4216C431.656 19.0557 430.543 19.0068 429.487 19.2812C428.431 19.5556 427.483 20.1407 426.764 20.9606C426.187 21.6271 425.78 22.4232 425.577 23.2809C425.375 24.1386 425.383 25.0326 425.602 25.8864C425.82 26.7402 426.241 27.5287 426.83 28.1844C427.419 28.8401 428.158 29.3437 428.984 29.6522C429.81 29.9607 430.699 30.0649 431.574 29.956C432.449 29.847 433.284 29.5282 434.009 29.0266C434.734 28.525 435.327 27.8556 435.737 27.0754C436.147 26.2953 436.362 25.4276 436.364 24.5464C436.359 24.0807 436.177 23.6343 435.856 23.2973C435.534 22.9602 435.097 22.7576 434.632 22.7304C434.148 22.7343 433.684 22.9273 433.34 23.268C432.997 23.6087 432.8 24.0702 432.792 24.5541Z" fill="#1F140F"/>
<path d="M419.773 17.2517C419.773 17.3518 419.773 17.4518 419.773 17.5518C419.773 17.8442 419.773 17.3902 419.773 17.3671C419.723 17.5231 419.684 17.6826 419.658 17.8442C419.617 17.934 419.584 18.0266 419.557 18.1212C419.557 18.1212 419.765 17.7057 419.627 17.952L419.334 18.4367C419.142 18.7214 419.581 18.1828 419.411 18.3367C419.351 18.3901 419.297 18.4494 419.25 18.5137L419.111 18.6445C418.988 18.7599 418.772 18.8369 419.188 18.5983C419.049 18.6753 418.926 18.783 418.788 18.8599L418.618 18.9523C418.333 19.1139 419.057 18.8138 418.618 18.9523C418.457 18.9984 418.31 19.0523 418.149 19.0831C417.987 19.1139 417.864 19.0446 418.287 19.0831C418.21 19.0831 418.118 19.0831 418.033 19.0831C417.864 19.0946 417.694 19.0946 417.525 19.0831C417.279 19.0831 418.018 19.1831 417.664 19.0831L417.379 19.0215L417.102 18.9292C416.94 18.8753 416.986 18.7907 417.271 18.9984C417.134 18.9165 416.993 18.842 416.847 18.7753L416.655 18.6368C416.455 18.5214 417.001 18.9523 416.763 18.7137C416.524 18.4752 416.501 18.4136 416.362 18.3059C416.624 18.506 416.57 18.5906 416.47 18.4444C416.414 18.3679 416.363 18.2882 416.316 18.2059L416.224 18.0443C416.131 17.875 416.139 17.6749 416.224 18.1289C416.185 17.9673 416.108 17.8211 416.07 17.6672C416.031 17.5133 416.07 17.5364 416.07 17.4749C415.993 17.1286 416.07 17.952 416.07 17.4749C416.058 17.3212 416.058 17.1669 416.07 17.0132C416.07 16.8439 416.185 16.5977 416.07 17.0978C416.07 17.0363 416.07 16.967 416.108 16.9055C416.147 16.8439 416.201 16.59 416.247 16.4361C416.355 16.0975 416.039 16.8285 416.247 16.5207L416.386 16.2668C416.424 16.1975 416.47 16.136 416.516 16.0667C416.563 15.9975 416.724 15.9436 416.432 16.1668C416.545 16.0569 416.653 15.9414 416.755 15.8205C416.809 15.782 417.055 15.5973 416.755 15.782H416.801C416.948 15.682 417.163 15.6204 417.302 15.505C417.302 15.505 416.863 15.6589 417.132 15.5743L417.409 15.4896C417.51 15.4896 417.995 15.3819 417.648 15.4204C417.302 15.4588 417.871 15.4204 417.964 15.4204H418.218C418.58 15.4204 417.802 15.328 418.125 15.4204C418.318 15.4665 418.503 15.5127 418.695 15.5743C419.026 15.682 418.38 15.3973 418.572 15.5281L418.865 15.682L419.026 15.782C419.427 16.0513 418.818 15.5743 419.026 15.782L419.365 16.1206C419.611 16.3745 419.119 15.7512 419.319 16.0513L419.473 16.2899L419.611 16.5438C419.765 16.8208 419.473 16.1283 419.611 16.4592C419.673 16.6515 419.719 16.8362 419.765 17.0209C419.812 17.2056 419.719 17.2363 419.765 16.8362C419.758 16.972 419.758 17.1082 419.765 17.244C419.765 17.7257 419.957 18.1876 420.298 18.5281C420.638 18.8687 421.1 19.06 421.582 19.06C422.064 19.06 422.526 18.8687 422.867 18.5281C423.208 18.1876 423.399 17.7257 423.399 17.244C423.386 16.111 423.026 15.0092 422.368 14.0863C421.711 13.1635 420.786 12.4637 419.719 12.0808C418.693 11.7145 417.58 11.6653 416.526 11.9398C415.471 12.2143 414.524 12.7997 413.806 13.6198C413.228 14.2857 412.819 15.0818 412.615 15.9401C412.411 16.7983 412.418 17.6931 412.635 18.5481C412.852 19.403 413.274 20.1927 413.863 20.8495C414.452 21.5063 415.192 22.0108 416.018 22.3198C416.845 22.6288 417.734 22.7331 418.61 22.6239C419.486 22.5147 420.322 22.1951 421.047 21.6925C421.773 21.19 422.365 20.5193 422.775 19.7379C423.185 18.9566 423.399 18.0877 423.399 17.2056C423.399 16.7239 423.208 16.262 422.867 15.9215C422.526 15.5809 422.064 15.3896 421.582 15.3896C421.1 15.3896 420.638 15.5809 420.298 15.9215C419.957 16.262 419.765 16.7239 419.765 17.2056L419.773 17.2517Z" fill="#1F140F"/>
<path d="M401.588 11.9038C401.588 12.0039 401.588 12.1039 401.588 12.2039C401.588 12.4963 401.588 12.05 401.588 12.0193C401.541 12.1762 401.502 12.3354 401.472 12.4963C401.472 12.5887 401.395 12.681 401.38 12.7733C401.38 12.7733 401.58 12.3578 401.441 12.6041C401.303 12.8503 401.257 12.9349 401.149 13.0965C400.964 13.3812 401.395 12.8349 401.226 12.9888C401.168 13.0442 401.114 13.1033 401.064 13.1658C401.064 13.2119 400.979 13.2504 400.933 13.2966C400.887 13.3428 400.595 13.489 401.01 13.2581C400.872 13.3351 400.748 13.4351 400.61 13.512L400.441 13.6044C400.148 13.766 400.879 13.4659 400.441 13.6044C400.291 13.6478 400.139 13.6838 399.986 13.7121C399.794 13.7506 399.701 13.7121 400.125 13.7121C400.048 13.7121 399.955 13.7121 399.879 13.7121C399.709 13.7238 399.54 13.7238 399.37 13.7121C399.116 13.7121 399.855 13.8121 399.509 13.7121L399.216 13.6505L398.939 13.5582C398.778 13.5043 398.831 13.4197 399.109 13.6275C398.985 13.5428 398.824 13.4813 398.685 13.4043C398.624 13.3538 398.56 13.3076 398.493 13.2658C398.293 13.1504 398.847 13.5813 398.601 13.3428C398.47 13.2196 398.339 13.0427 398.2 12.9349C398.462 13.135 398.408 13.2196 398.316 13.0811L398.154 12.8349L398.062 12.6733C397.977 12.504 397.985 12.304 398.062 12.758C398.023 12.6041 397.954 12.4502 397.908 12.2963C397.861 12.1424 397.908 12.1655 397.908 12.1039C397.831 11.7576 397.908 12.581 397.908 12.1039C397.896 11.9502 397.896 11.7959 397.908 11.6422C397.908 11.4729 398.023 11.2267 397.908 11.7269C397.911 11.6628 397.911 11.5986 397.908 11.5345C397.908 11.3729 398 11.219 398.046 11.0651C398.162 10.7265 397.838 11.4575 398.046 11.1497L398.185 10.8958C398.231 10.8266 398.277 10.765 398.316 10.6958C398.354 10.6265 398.523 10.5726 398.231 10.7958C398.346 10.7111 398.447 10.5572 398.562 10.4495C398.678 10.3418 398.855 10.2264 398.562 10.4495C398.269 10.6727 398.562 10.4495 398.608 10.4495C398.781 10.3681 398.948 10.2755 399.109 10.1725C399.109 10.1725 398.67 10.3341 398.939 10.2418L399.216 10.1571C399.316 10.1571 399.802 10.0494 399.463 10.0879C399.124 10.1263 399.678 10.0879 399.771 10.0879H400.025C400.387 10.0879 399.617 10.0032 399.94 10.0879L400.502 10.2418C400.833 10.3495 400.186 10.0648 400.379 10.1956L400.672 10.3495L400.833 10.4495C401.233 10.7188 400.625 10.2418 400.833 10.4495L401.164 10.7881C401.418 11.042 400.926 10.4187 401.118 10.7188C401.174 10.7954 401.225 10.875 401.272 10.9574C401.326 11.042 401.364 11.1267 401.411 11.2113C401.572 11.4883 401.272 10.7958 401.411 11.1267C401.472 11.319 401.518 11.5037 401.572 11.6961C401.626 11.8884 401.526 11.9115 401.572 11.5037C401.572 11.6345 401.572 11.7807 401.572 11.9115C401.58 12.3919 401.777 12.8498 402.12 13.1866C402.462 13.5235 402.924 13.7122 403.405 13.7121C403.885 13.7042 404.343 13.5106 404.683 13.172C405.024 12.8333 405.219 12.376 405.229 11.8961C405.209 10.7625 404.844 9.66184 404.183 8.74079C403.521 7.81975 402.594 7.12204 401.526 6.74063C400.497 6.38513 399.385 6.34614 398.334 6.62871C397.283 6.91128 396.34 7.50242 395.629 8.32576C395.052 8.99227 394.645 9.78836 394.443 10.6461C394.24 11.5038 394.249 12.3977 394.467 13.2516C394.685 14.1054 395.107 14.8938 395.696 15.5496C396.285 16.2053 397.024 16.7089 397.85 17.0174C398.676 17.3258 399.564 17.4301 400.439 17.3211C401.314 17.2122 402.149 16.8933 402.874 16.3917C403.599 15.8901 404.192 15.2207 404.602 14.4406C405.012 13.6605 405.227 12.7928 405.229 11.9115C405.245 11.6626 405.21 11.413 405.126 11.1781C405.042 10.9433 404.911 10.7282 404.74 10.5462C404.569 10.3641 404.363 10.219 404.134 10.1198C403.905 10.0206 403.658 9.96946 403.408 9.96946C403.159 9.96946 402.912 10.0206 402.683 10.1198C402.454 10.219 402.248 10.3641 402.077 10.5462C401.906 10.7282 401.775 10.9433 401.691 11.1781C401.607 11.413 401.571 11.6626 401.588 11.9115V11.9038Z" fill="#1F140F"/>
<path d="M416.054 42.9523C414.645 39.6897 412.89 34.1879 412.89 34.1879C412.89 34.1879 410.58 39.0433 407.754 41.8827C407.446 42.1827 407.071 42.405 406.66 42.5314C406.249 42.6577 405.813 42.6843 405.39 42.6092C404.966 42.534 404.567 42.3591 404.224 42.099C403.882 41.8388 403.606 41.5009 403.42 41.1132C401.488 37.1504 399.778 30.4098 399.778 30.4098C399.778 30.4098 398.015 36.3348 396.499 40.236C396.333 40.6651 396.06 41.0446 395.707 41.3384C395.353 41.6323 394.93 41.8307 394.477 41.9148C394.025 41.9989 393.559 41.9658 393.123 41.8188C392.687 41.6717 392.296 41.4156 391.987 41.0748C390.139 38.9269 388.499 36.608 387.091 34.1495C387.091 34.1495 385.12 40.3053 383.672 43.4525C383.456 43.9389 383.072 44.3315 382.59 44.5588C382.108 44.7862 381.561 44.8332 381.047 44.6913C378.667 43.9739 376.464 42.7654 374.58 41.144L374.988 49.062C383.107 47.1317 391.425 46.1607 399.771 46.1687C408.13 46.3033 416.456 47.2725 424.623 49.062L425.031 41.144L419.156 44.068C418.881 44.2092 418.58 44.2923 418.272 44.3122C417.963 44.3321 417.654 44.2883 417.363 44.1837C417.072 44.0791 416.805 43.9158 416.58 43.7039C416.355 43.4921 416.176 43.2362 416.054 42.9523Z" fill="#1F140F"/>
<path d="M399.787 75.0164C394.398 75.0164 393.15 72.4002 393.15 71.5307V69.5609C393.15 68.9607 393.435 66.329 399.787 66.329C405.384 66.329 406.423 68.6913 406.423 69.5609V71.5307C406.423 72.4002 406.046 75.0164 399.787 75.0164Z" fill="#1F140F"/>
<path d="M514.006 314.24L513.374 311.446L510.972 309.907C491.279 297.011 475.557 299.089 466.896 302.143C464.477 296.763 461.307 291.753 457.481 287.262C450.373 278.987 441.431 272.484 431.366 268.271C435.362 259.43 434.777 251.173 429.557 246.487C426.985 244.199 423.646 242.96 420.203 243.017H419.495C415.753 236.161 409.817 231.952 403.181 231.575C402.85 231.575 402.519 231.575 402.187 231.575C390.085 231.575 380.246 244.063 379.306 260.622C379.218 262.222 379.218 263.825 379.306 265.424C366.82 269.101 355.566 276.098 346.748 285.669C342.344 290.525 338.73 296.043 336.039 302.02C327.339 299.019 311.718 297.126 292.225 309.884L289.83 311.423L289.199 314.217C286.367 328.941 286.55 344.087 289.738 358.739C294.704 380.63 309.478 408.947 351.698 419.527L356.456 420.72C357.07 420.871 357.712 420.869 358.325 420.713C358.938 420.557 359.504 420.253 359.971 419.827C360.438 419.401 360.793 418.867 361.005 418.271C361.216 417.675 361.278 417.036 361.183 416.411L360.413 411.571C360.144 409.855 359.212 404.299 357.396 396.951C357.136 394.734 356.547 392.569 355.648 390.526C353.269 381.96 350.109 373.63 346.209 365.641C355.442 375.931 367.459 383.329 380.808 386.94C380.88 389.578 381.574 392.161 382.834 394.48C384.095 396.798 385.885 398.787 388.06 400.283L392.033 402.991C394.793 404.878 398.058 405.889 401.402 405.892C404.692 405.892 407.908 404.915 410.641 403.084L414.49 400.529C416.726 399.028 418.566 397.01 419.853 394.645C421.14 392.28 421.836 389.639 421.881 386.948C434.98 383.425 446.815 376.27 456.018 366.31C456.241 366.072 456.441 365.818 456.657 365.541L456.911 365.633C453.004 373.622 449.844 381.955 447.472 390.526C446.574 392.566 445.985 394.729 445.724 396.943C443.908 404.284 442.976 409.84 442.706 411.563L441.937 416.403C441.842 417.028 441.904 417.667 442.115 418.263C442.327 418.859 442.682 419.393 443.149 419.819C443.616 420.245 444.182 420.55 444.795 420.705C445.408 420.861 446.05 420.864 446.664 420.712L451.414 419.52C493.642 408.916 508.385 380.6 513.374 358.731C516.591 344.095 516.805 328.96 514.006 314.24Z" fill="white"/>
<path d="M293.627 337.763C293.828 352.006 296.938 366.464 304.259 378.807C314.445 395.966 331.852 406.408 350.884 411.225C351.134 411.278 351.394 411.267 351.64 411.194C351.886 411.121 352.109 410.988 352.291 410.807C352.472 410.626 352.605 410.403 352.678 410.157C352.751 409.912 352.761 409.652 352.708 409.401C352.354 407.146 351.892 404.907 351.415 402.684C349.243 392.1 346.008 381.762 341.761 371.827C340.127 368.008 338.231 364.305 336.087 360.747C342.184 361.516 348.582 358.485 352.862 354.176C353.05 353.991 353.184 353.759 353.25 353.504C353.316 353.25 353.313 352.982 353.24 352.729L352.847 351.598L339.613 313.755C339.414 313.234 339.11 312.76 338.719 312.363C338.328 311.965 337.859 311.653 337.341 311.446C334.727 310.045 331.916 309.046 329.004 308.484C324.139 307.556 319.138 307.603 314.291 308.622C311.117 309.288 308.021 310.281 305.052 311.585C303.232 312.377 301.453 313.263 299.725 314.24C298.824 314.74 297.939 315.271 297.069 315.825C296.414 316.233 295.683 316.594 295.406 317.364C294.736 319.187 294.674 321.48 294.428 323.373C293.828 328.145 293.56 332.953 293.627 337.763Z" fill="white"/>
<path d="M349.212 407.316C353.769 408.47 344.523 375.575 335.654 361.147C343.615 362.117 351.96 355.584 351.344 353.822C346.725 340.525 347.495 322.496 337.486 317.279C322.089 310.892 314.267 313.185 307.261 316.217C296.821 320.734 298.238 321.727 297.591 326.967C292.656 365.841 309.909 397.359 349.212 407.316Z" fill="#FBBA33"/>
<path d="M340.182 310.977C337.426 308.984 333.838 307.815 330.558 307.13C322.028 305.275 313.198 306.699 305.229 310.069C302.42 311.265 299.702 312.666 297.099 314.263C296.16 314.84 294.959 315.309 294.574 316.41C294.446 316.884 294.354 317.368 294.297 317.856C293.827 320.442 293.489 323.066 293.234 325.69C292.31 335.063 292.634 344.518 294.197 353.806C296.26 365.864 300.787 377.599 308.216 387.379C317.717 399.898 331.244 408.339 346.087 413.164C348.397 413.933 350.706 414.557 353.016 415.149C353.281 415.214 353.559 415.21 353.822 415.136C354.086 415.062 354.325 414.922 354.518 414.728C354.711 414.535 354.851 414.295 354.923 414.031C354.996 413.768 354.999 413.49 354.933 413.225C353.828 406.538 352.319 399.924 350.414 393.419C346.988 381.4 342.53 369.127 335.247 358.862C331.513 353.598 326.886 348.728 320.973 345.95C319.164 345.096 317.578 347.789 319.395 348.643C330.097 353.675 336.417 365.341 340.906 375.706C345.183 385.874 348.437 396.442 350.622 407.254C351.099 409.517 351.561 411.794 351.923 414.08L353.848 412.164C341.583 409.086 329.719 403.845 320.088 395.527C312.526 388.94 306.548 380.734 302.596 371.52C296.506 357.461 294.897 341.625 296.283 326.467C296.495 323.326 296.933 320.204 297.592 317.125L296.876 318.056C305.876 312.231 316.539 308.161 327.41 309.692C331.205 310.231 335.432 311.385 338.588 313.67C340.221 314.855 341.783 312.131 340.167 310.977H340.182Z" fill="#1F140F"/>
<path d="M352.954 411.817C352.918 410.046 352.577 408.294 351.946 406.639C350.527 402.718 347.989 399.299 344.647 396.805C341.985 394.851 339.005 393.37 335.84 392.426C333.923 391.811 333.099 394.827 335.008 395.435C339.466 396.843 343.885 399.375 346.556 403.084C347.078 403.806 347.551 404.562 347.973 405.346C348.15 405.692 348.319 406.046 348.489 406.4C348.489 406.462 348.543 406.531 348.574 406.592C348.674 406.816 348.489 406.377 348.574 406.592C348.658 406.808 348.72 406.97 348.789 407.154C349.198 408.265 349.504 409.412 349.705 410.578C349.759 410.894 349.705 410.755 349.705 410.578C349.705 410.686 349.705 410.786 349.705 410.886C349.705 410.986 349.705 411.209 349.744 411.371C349.751 411.517 349.751 411.663 349.744 411.81C349.744 413.818 352.823 413.818 352.869 411.81L352.954 411.817Z" fill="#1F140F"/>
<path d="M351.938 398.451C351.445 392.596 347.265 387.248 342.453 384.208C339.625 382.475 336.517 381.246 333.268 380.576C331.313 380.146 330.474 383.154 332.437 383.585C337.156 384.624 341.629 386.663 344.863 390.287C345.911 391.476 346.789 392.805 347.473 394.235C347.55 394.381 347.619 394.535 347.688 394.681L347.765 394.858C347.889 395.143 348.004 395.435 348.104 395.735C348.284 396.239 348.435 396.753 348.558 397.274C348.658 397.659 348.735 398.044 348.805 398.436C348.874 398.828 348.805 398.044 348.805 398.49C348.82 398.893 348.987 399.276 349.273 399.561C349.558 399.847 349.941 400.014 350.345 400.029C350.75 400.019 351.136 399.854 351.422 399.567C351.709 399.281 351.875 398.895 351.884 398.49L351.938 398.451Z" fill="#1F140F"/>
<path d="M352.847 352.844C351.204 354.48 349.316 355.848 347.25 356.9C343.354 358.977 338.712 359.87 334.523 358.077C334.163 357.88 333.741 357.828 333.344 357.931C332.946 358.034 332.603 358.284 332.383 358.631C332.276 358.807 332.206 359.003 332.176 359.208C332.146 359.412 332.158 359.62 332.211 359.819C332.263 360.019 332.355 360.206 332.481 360.369C332.607 360.533 332.765 360.669 332.945 360.77C338.011 362.94 343.331 362.309 348.197 359.924C350.731 358.693 353.048 357.059 355.056 355.084C356.473 353.652 354.286 351.444 352.847 352.875V352.844Z" fill="#1F140F"/>
<path d="M508.778 323.35C508.539 321.457 508.47 319.164 507.808 317.341C507.531 316.571 506.8 316.233 506.145 315.802C505.275 315.248 504.382 314.717 503.489 314.217C501.76 313.241 499.981 312.355 498.161 311.562C495.193 310.257 492.097 309.265 488.923 308.599C484.076 307.58 479.075 307.533 474.21 308.461C471.298 309.023 468.487 310.022 465.872 311.423C465.347 311.625 464.87 311.934 464.472 312.332C464.074 312.73 463.764 313.207 463.563 313.732L450.329 351.575C450.198 351.952 450.067 352.344 449.928 352.706C449.858 352.959 449.857 353.227 449.925 353.481C449.993 353.735 450.127 353.967 450.313 354.152C454.594 358.462 460.984 361.463 467.089 360.724C464.933 364.286 463.027 367.994 461.384 371.82C457.133 381.753 453.899 392.091 451.73 402.676C451.252 404.9 450.79 407.139 450.436 409.393C450.377 409.652 450.385 409.922 450.461 410.177C450.536 410.432 450.677 410.663 450.868 410.847C451.06 411.032 451.296 411.163 451.553 411.229C451.811 411.296 452.081 411.294 452.338 411.225C471.369 406.408 488.777 395.966 498.962 378.807C506.284 366.495 509.394 352.006 509.594 337.763C509.661 332.945 509.389 328.129 508.778 323.35Z" fill="white"/>
<path d="M505.623 326.967C504.953 321.727 506.393 320.734 495.907 316.194C488.901 313.162 481.086 310.869 465.673 317.256C455.665 322.473 456.504 340.502 451.815 353.799C451.2 355.561 459.514 362.094 467.506 361.124C458.637 375.559 449.39 408.455 453.948 407.293C493.328 397.359 510.542 365.841 505.623 326.967Z" fill="#FBBA33"/>
<path d="M412.605 280.598C414.268 279.162 415.786 277.566 417.139 275.835C423.06 268.317 425.315 259.599 422.167 256.367C420.542 254.705 416.131 255.975 413.282 260.569C413.875 251.081 409.725 245.256 405.46 244.979C399.393 244.586 393.496 253.105 393.496 264.039C393.496 286.3 412.605 280.598 412.605 280.598Z" fill="#E83755"/>
<path d="M401.402 380.761C432.105 380.761 456.995 359.298 456.995 332.823C456.995 306.347 432.105 284.884 401.402 284.884C370.699 284.884 345.809 306.347 345.809 332.823C345.809 359.298 370.699 380.761 401.402 380.761Z" fill="#FBBA33"/>
<path d="M394.374 366.51L392.288 382.292C392.193 383.006 392.298 383.732 392.591 384.39C392.885 385.048 393.356 385.611 393.951 386.017L399.256 389.633C399.898 390.066 400.656 390.296 401.43 390.296C402.205 390.296 402.963 390.066 403.605 389.633L408.825 386.14C409.431 385.74 409.911 385.178 410.211 384.518C410.51 383.858 410.617 383.126 410.519 382.408L408.456 366.964L401.38 374.397L394.374 366.51Z" fill="#E83755"/>
<path d="M418.178 347.666C418.178 355.284 401.433 369.704 401.433 369.704C401.433 369.704 384.688 355.245 384.688 347.666C384.688 340.086 392.186 333.815 401.433 333.815C410.679 333.815 418.178 340.009 418.178 347.666Z" fill="white"/>
<path d="M409.547 265.285C409.547 265.055 409.547 264.831 409.547 264.601C409.547 264.185 409.455 264.993 409.547 264.716C409.547 264.601 409.547 264.47 409.609 264.354C409.72 263.85 409.867 263.353 410.048 262.869L410.163 262.561C410.356 262.054 410.017 262.862 410.163 262.561C410.31 262.261 410.402 262.046 410.533 261.792C410.801 261.264 411.097 260.75 411.418 260.253C411.734 259.753 412.073 259.268 412.427 258.791C412.781 258.314 412.25 258.999 412.473 258.729L412.773 258.36C412.981 258.114 413.189 257.868 413.405 257.629C414.26 256.675 415.189 255.79 416.184 254.982C416.607 254.551 416.844 253.97 416.844 253.366C416.844 252.762 416.607 252.182 416.184 251.75C415.747 251.336 415.169 251.105 414.567 251.105C413.965 251.105 413.387 251.336 412.95 251.75C410.755 253.544 408.871 255.689 407.376 258.099C405.938 260.236 405.103 262.721 404.959 265.293C405.037 265.843 405.312 266.347 405.732 266.711C406.152 267.075 406.689 267.276 407.246 267.276C407.802 267.276 408.339 267.075 408.759 266.711C409.179 266.347 409.454 265.843 409.532 265.293L409.547 265.285Z" fill="#1F140F"/>
<path d="M408.454 364.102C409.116 368.503 409.781 372.905 410.448 377.306C410.841 379.945 411.218 382.577 411.641 385.216C412.003 387.625 412.057 389.933 410.325 391.957C409.382 392.904 408.315 393.72 407.153 394.381C406.007 395.282 404.736 396.013 403.38 396.551C399.77 397.643 397.014 395.212 394.242 393.327C393.05 392.595 392.101 391.527 391.513 390.258C390.926 388.989 390.726 387.575 390.939 386.194C391.224 384.054 391.601 381.915 391.925 379.776C392.736 374.554 393.541 369.329 394.342 364.102C394.719 361.678 391.008 360.639 390.631 363.078C389.856 368.152 389.086 373.223 388.321 378.291C387.96 380.599 387.552 382.946 387.244 385.278C386.628 389.395 387.867 393.35 391.286 395.912C393.749 397.759 396.59 399.998 399.677 400.529C403.989 401.245 407.122 399.059 410.456 396.805C414.228 394.273 416.245 390.441 415.599 385.863C415.345 384.07 415.06 382.285 414.829 380.476L412.18 363.055C411.818 360.616 408.108 361.655 408.477 364.079L408.454 364.102Z" fill="#1F140F"/>
<path d="M420.504 344.442C420.45 347.05 418.703 349.951 417.171 352.26C415.047 355.344 412.681 358.254 410.095 360.962C406.864 364.468 403.44 367.792 399.84 370.919H403.066C396.376 365.148 389.578 358.569 384.935 351.005C383.827 349.205 382.572 346.842 382.426 344.942C382.3 341.881 383.278 338.878 385.182 336.478C389.701 330.537 398.008 328.252 405.199 329.414C412.805 330.653 420.443 336.139 420.597 344.449C420.635 347.35 425.154 347.358 425.108 344.449C424.977 335.985 418.949 329.429 411.373 326.444C403.236 323.227 393.127 324.243 386.052 329.522C380.486 333.661 376.236 341.11 378.592 348.135C380.647 354.291 385.359 359.531 389.678 364.187C392.91 367.692 396.333 371.016 399.933 374.144C400.362 374.553 400.933 374.781 401.527 374.781C402.12 374.781 402.691 374.553 403.12 374.144C407.026 370.756 410.723 367.136 414.191 363.302C416.907 360.332 419.367 357.137 421.544 353.752C423.307 350.975 424.923 347.797 424.985 344.442C425.07 341.51 420.558 341.51 420.504 344.442Z" fill="#1F140F"/>
<path d="M383.472 320.049C383.472 324.081 381.27 327.352 378.544 327.352C375.819 327.352 373.617 324.081 373.617 320.049C373.617 316.017 375.827 312.739 378.544 312.739C381.262 312.739 383.472 316.009 383.472 320.049Z" fill="#1F140F"/>
<path d="M429.241 320.049C429.241 324.081 427.039 327.352 424.322 327.352C421.604 327.352 419.395 324.081 419.395 320.049C419.395 316.017 421.596 312.739 424.322 312.739C427.047 312.739 429.241 316.009 429.241 320.049Z" fill="#1F140F"/>
<path d="M417.824 312.27C418.484 310.342 419.788 308.701 421.517 307.622C423.246 306.543 425.294 306.092 427.316 306.345C427.619 306.345 427.91 306.225 428.125 306.012C428.34 305.798 428.461 305.509 428.463 305.206C428.456 304.905 428.332 304.619 428.118 304.407C427.905 304.195 427.617 304.073 427.316 304.067C424.793 303.809 422.257 304.422 420.129 305.804C418.002 307.185 416.411 309.252 415.622 311.662C415.152 313.055 417.362 313.655 417.824 312.27Z" fill="#1F140F"/>
<path d="M389.877 311.639C389.084 309.229 387.492 307.163 385.364 305.782C383.236 304.4 380.699 303.787 378.174 304.044C377.874 304.052 377.588 304.174 377.375 304.386C377.161 304.597 377.037 304.883 377.027 305.183C377.031 305.485 377.154 305.773 377.368 305.986C377.583 306.199 377.872 306.32 378.174 306.322C380.2 306.072 382.249 306.526 383.978 307.61C385.707 308.693 387.01 310.339 387.667 312.27C388.129 313.655 390.331 313.039 389.869 311.662L389.877 311.639Z" fill="#1F140F"/>
<path d="M413.073 282.568C420.002 277.305 426.808 269.364 428.101 260.468C428.533 257.521 428.248 254.182 426.03 251.966C422.797 248.726 417.808 249.565 413.997 251.158L416.807 252.751C415.522 248.057 413.189 243.448 409.155 240.547C407.489 239.342 405.539 238.591 403.495 238.369C401.451 238.146 399.385 238.459 397.499 239.277C388.368 243.194 384.98 255.182 385.042 264.224C385.08 270.187 386.512 276.489 390.123 281.344C391.855 283.653 395.828 281.406 394.073 279.036C387.675 270.426 388.091 256.229 394.38 247.649C396.567 244.663 400.093 242.001 403.989 243.032C408.754 244.317 411.21 249.611 412.404 253.943C412.704 255.021 414.066 256.013 415.214 255.536C417.308 254.659 421.28 253.097 423.028 255.436C424.237 257.052 423.728 259.63 423.251 261.407C421.427 268.217 416.284 274.396 410.764 278.605C408.454 280.367 410.764 284.33 413.073 282.545V282.568Z" fill="#1F140F"/>
<path d="M389.499 379.391C369.844 375.759 351.367 363.117 344.192 343.934C337.109 325.012 342.814 304.152 357.28 290.363C365.822 282.395 376.416 276.965 387.875 274.681C390.569 274.111 389.415 269.987 386.735 270.549C365.579 274.989 346.447 289.501 339.457 310.385C332.636 330.791 339.588 353.129 355.324 367.411C364.629 375.737 376.067 381.313 388.36 383.516C391.054 384.016 392.209 379.892 389.499 379.391Z" fill="#1F140F"/>
<path d="M415.961 383.239C436.302 379.022 454.702 365.587 462.455 345.981C470.154 326.536 464.957 304.49 450.729 289.486C442.322 280.797 431.696 274.573 420.003 271.487C417.34 270.718 416.2 274.889 418.864 275.612C437.626 280.737 454.332 294.387 459.883 313.47C465.273 332.053 458.636 351.621 444.486 364.44C436.086 371.887 425.852 376.961 414.837 379.137C412.143 379.692 413.298 383.816 415.977 383.262L415.961 383.239Z" fill="#1F140F"/>
<path d="M464.588 313.67C467.752 311.362 471.979 310.231 475.774 309.692C486.645 308.153 497.331 312.231 506.308 318.056L505.592 317.125C506.125 319.6 506.506 322.106 506.731 324.628C507.427 331.065 507.537 337.553 507.062 344.011C505.738 362.147 499.21 380.007 485.975 392.857C475.874 402.66 462.879 408.678 449.359 412.094L451.284 414.01C452.331 407.664 453.747 401.385 455.526 395.204C458.814 383.408 463.079 371.489 470.015 361.347C473.572 356.145 478.03 351.344 483.812 348.635C485.629 347.781 484.043 345.088 482.272 345.942C471.224 351.128 464.48 363.048 459.791 373.759C455.326 384.188 451.919 395.038 449.621 406.146C449.121 408.455 448.643 410.84 448.274 413.202C448.208 413.467 448.211 413.745 448.284 414.008C448.356 414.272 448.496 414.512 448.689 414.705C448.882 414.899 449.121 415.039 449.385 415.113C449.648 415.187 449.926 415.191 450.191 415.126C465.912 411.14 480.932 403.622 491.765 391.311C500.087 381.846 505.499 370.204 508.194 357.946C510.272 348.233 510.944 338.271 510.188 328.367C509.973 325.289 509.621 322.227 509.133 319.18C509.01 318.41 508.895 317.641 508.725 316.871C508.417 315.494 507.324 314.978 506.1 314.224C493.874 306.745 476.737 302.505 463.649 310.554C463.433 310.692 463.217 310.823 463.017 310.969C461.4 312.139 462.956 314.817 464.557 313.663L464.588 313.67Z" fill="#1F140F"/>
<path d="M453.362 411.817C453.372 411.395 453.406 410.974 453.462 410.555C453.401 411.102 453.462 410.448 453.524 410.255C453.585 410.063 453.616 409.755 453.67 409.486C453.809 408.875 453.978 408.271 454.178 407.677C454.294 407.354 454.417 407.031 454.54 406.708C454.563 406.639 454.591 406.572 454.625 406.508C454.725 406.285 454.825 406.069 454.933 405.854C455.302 405.105 455.718 404.38 456.18 403.684C457.304 402.034 458.687 400.576 460.276 399.367C462.665 397.6 465.343 396.262 468.19 395.412C470.1 394.804 469.283 391.788 467.359 392.403C462.177 394.042 457.427 396.828 454.124 401.214C452.229 403.715 450.969 406.638 450.452 409.732C450.325 410.412 450.256 411.102 450.244 411.794C450.244 413.803 453.378 413.803 453.362 411.794V411.817Z" fill="#1F140F"/>
<path d="M454.386 398.451C454.425 398.005 454.317 398.821 454.386 398.505C454.456 398.19 454.494 397.874 454.564 397.567C454.671 397.093 454.802 396.626 454.956 396.166C455.041 395.904 455.133 395.643 455.226 395.397L455.395 394.981C455.495 394.719 455.395 394.981 455.395 395.027C455.441 394.92 455.487 394.804 455.541 394.696C456.977 391.477 459.348 388.763 462.347 386.909C464.955 385.318 467.821 384.196 470.816 383.593C472.771 383.162 471.948 380.153 469.984 380.584C464.803 381.723 459.753 384.07 456.18 388.087C454.034 390.462 452.49 393.317 451.677 396.412C451.503 397.084 451.382 397.768 451.315 398.459C451.153 400.467 454.271 400.452 454.44 398.459L454.386 398.451Z" fill="#1F140F"/>
<path d="M448.134 355.053C450.147 357.026 452.466 358.661 455.002 359.893C459.86 362.294 465.187 362.909 470.253 360.739C470.607 360.526 470.864 360.183 470.969 359.784C471.074 359.384 471.019 358.96 470.815 358.6C470.598 358.25 470.255 357.998 469.856 357.895C469.458 357.792 469.034 357.846 468.675 358.046C464.487 359.839 459.844 358.946 455.949 356.869C453.884 355.825 451.993 354.467 450.344 352.844C448.927 351.413 446.725 353.614 448.134 355.053Z" fill="#1F140F"/>
<path d="M72.6697 430C70.5217 430.003 68.4333 429.294 66.7311 427.985C65.0289 426.675 63.8088 424.839 63.2616 422.763C62.7144 420.687 62.8709 418.488 63.7067 416.511C64.5425 414.533 66.0104 412.888 67.881 411.833L85.7885 401.699C90.0041 399.32 93.7296 396.163 96.7671 392.396C81.9083 383.631 70.8604 371.335 65.2018 357.207C64.4668 366.38 60.3046 374.939 53.543 381.184C46.7813 387.429 37.9157 390.901 28.7092 390.91H9.71615C7.91697 390.912 6.15272 390.414 4.61998 389.472C3.08725 388.531 1.84624 387.182 1.03524 385.577C0.224246 383.972 -0.124881 382.173 0.0267654 380.381C0.178412 378.589 0.824872 376.875 1.89411 375.429L13.8812 359.208C12.8985 355.86 12.602 352.348 13.0095 348.882C13.4169 345.417 14.52 342.069 16.2525 339.04C16.9773 337.751 17.8064 336.523 18.7315 335.37C17.8039 334.218 16.9746 332.99 16.2525 331.699C14.5158 328.666 13.4105 325.313 13.003 321.842C12.5955 318.371 12.8942 314.853 13.8812 311.5L1.89411 295.264C0.824872 293.818 0.178412 292.104 0.0267654 290.312C-0.124881 288.52 0.224246 286.721 1.03524 285.116C1.84624 283.511 3.08725 282.162 4.61998 281.22C6.15272 280.279 7.91697 279.781 9.71615 279.782H28.7015C37.9063 279.784 46.7729 283.251 53.5355 289.492C60.298 295.734 64.4606 304.292 65.1941 313.462C69.8134 301.874 78.0435 291.563 89.1529 283.353L65.7946 260.022C64.4338 258.664 63.5069 256.933 63.1312 255.048C62.7555 253.163 62.9479 251.209 63.6841 249.433C64.4203 247.658 65.6671 246.14 67.2667 245.073C68.8662 244.006 70.7466 243.438 72.6697 243.44H124.106C131.944 243.433 139.649 245.467 146.462 249.341C153.275 253.214 158.962 258.794 162.962 265.532C205.305 270.995 236.778 300.435 236.778 335.354C236.778 369.981 206.206 398.967 164.602 404.946C160.85 412.473 155.073 418.805 147.919 423.23C140.766 427.656 132.519 430.001 124.106 430H72.6697Z" fill="white"/>
<path d="M227.055 335.354C227.055 304.075 196.86 278.29 157.966 274.765L157.766 277.435C155.414 270.37 150.898 264.223 144.857 259.866C138.816 255.509 131.556 253.162 124.106 253.158H72.6703L104.236 284.707L105.19 284.776C88.5453 293.541 76.435 307.145 72.2546 323.019L72.5625 323.504H62.7388C61.8039 323.509 60.8773 323.33 60.0118 322.977C59.1462 322.624 58.3588 322.104 57.6946 321.446C57.0303 320.789 56.5023 320.007 56.1405 319.145C55.7788 318.284 55.5906 317.359 55.5865 316.425C55.5946 312.891 54.9052 309.39 53.5578 306.123C52.2104 302.856 50.2313 299.887 47.7341 297.385C45.2368 294.883 42.2704 292.899 39.0046 291.544C35.7388 290.19 32.2379 289.493 28.7022 289.493H9.7168L25.0067 310.2C23.4767 312.709 22.6428 315.58 22.5907 318.517C22.5386 321.455 23.2703 324.354 24.7104 326.915C26.1506 329.477 28.2473 331.608 30.785 333.092C33.3227 334.575 36.2098 335.356 39.1495 335.354C36.2121 335.354 33.3276 336.136 30.7922 337.618C28.2567 339.1 26.1616 341.23 24.7219 343.789C23.2822 346.349 22.5498 349.244 22.5999 352.18C22.6499 355.115 23.4806 357.984 25.0067 360.493L9.7168 381.2H28.7022C32.233 381.201 35.7293 380.506 38.9916 379.156C42.2538 377.806 45.2179 375.827 47.7146 373.332C50.2112 370.837 52.1914 367.874 53.5422 364.613C54.8929 361.353 55.5876 357.858 55.5865 354.329C55.5865 353.391 55.7716 352.462 56.1311 351.595C56.4907 350.728 57.0176 349.941 57.6818 349.277C58.3461 348.614 59.1346 348.088 60.0023 347.73C60.87 347.372 61.7999 347.188 62.7388 347.189L72.2546 347.681C76.8739 365.218 91.1321 379.999 110.518 388.525C106.296 397.639 99.3228 405.201 90.5778 410.147L72.6703 420.281H124.106C131.499 420.282 138.707 417.977 144.726 413.687C150.745 409.397 155.273 403.336 157.681 396.351L156.865 396.035C196.291 392.903 227.055 366.903 227.055 335.354Z" fill="white"/>
<path d="M76.843 335.485H59.0587C57.6073 335.433 56.236 334.807 55.2458 333.745C54.2555 332.683 53.7274 331.272 53.7773 329.822C53.7773 318.041 44.8851 308.492 33.922 308.492H19.9023L31.212 324.951C26.2616 333.7 32.1281 344.911 41.667 344.911C32.1281 344.911 26.2693 356.115 31.212 364.864L19.9254 381.3H33.945C44.9082 381.3 55.394 367.911 55.1169 360.639C54.909 355.407 56.1639 347.635 59.0818 347.635H78.6677" fill="#5EBAD6"/>
<path d="M148.857 292.502C153.6 289.901 151.822 272.449 133.252 264.07C121.704 259.237 80.3685 261.761 80.3685 261.761L104.235 283.199C104.235 283.199 72.2539 302.436 72.2539 342.449" fill="#5EBAD6"/>
<path d="M143.923 388.448C147.595 390.464 146.232 403.953 131.859 410.432C122.928 414.164 94.7887 412.41 94.7887 412.41C94.7887 412.41 102.896 405.269 107.877 398.282C108.621 397.25 109.143 396.075 109.412 394.831C109.68 393.588 109.688 392.302 109.436 391.055C109.184 389.808 108.676 388.626 107.946 387.585C107.215 386.543 106.277 385.663 105.19 385.001C95.4277 379.053 84.7109 374.913 84.7109 349.828" fill="#5EBAD6"/>
<path d="M144.623 392.65C184.592 392.65 216.992 369.561 216.992 341.079C216.992 312.597 184.592 289.509 144.623 289.509C104.655 289.509 72.2539 312.597 72.2539 341.079C72.2539 369.561 104.655 392.65 144.623 392.65Z" fill="#5EBAD6"/>
<path d="M74.6163 324.835C79.9439 305.083 96.943 291.032 115.459 283.945C118.377 282.83 117.114 278.09 114.158 279.221C94.0097 286.915 75.6633 302.036 69.8892 323.527C69.0731 326.605 73.8002 327.875 74.6163 324.835Z" fill="#1F140F"/>
<path d="M111.756 387.579C94.7488 380.022 79.5975 366.664 74.6163 348.197C73.8002 345.119 69.0731 346.442 69.8892 349.497C75.1783 369.127 91.1457 383.754 109.284 391.819C112.141 393.088 114.635 388.864 111.756 387.586V387.579Z" fill="#1F140F"/>
<path d="M157.964 278.413C183.971 280.852 212.742 294.926 221.919 321.05C225.913 332.391 225.378 344.834 220.425 355.791C215.213 367.203 206.028 376.329 195.365 382.723C181.392 391.134 165.093 395.035 148.857 395.073C145.7 395.073 145.692 399.983 148.857 399.975C177.342 399.883 208.738 387.709 222.966 361.616C229.27 350.184 231.056 336.804 227.97 324.12C224.683 310.977 216.198 299.673 205.605 291.44C191.932 280.813 175.11 275.089 157.964 273.48C154.831 273.188 154.846 278.097 157.964 278.382V278.413Z" fill="#1F140F"/>
<path d="M180.276 329.121C184.116 329.121 187.228 325.149 187.228 320.249C187.228 315.349 184.116 311.377 180.276 311.377C176.437 311.377 173.324 315.349 173.324 320.249C173.324 325.149 176.437 329.121 180.276 329.121Z" fill="#1F140F"/>
<path d="M222.481 338.678C214.601 342.722 205.87 344.831 197.013 344.831C188.155 344.831 179.425 342.722 171.545 338.678C168.381 337.039 165.571 341.818 168.743 343.472C177.483 347.977 187.175 350.328 197.009 350.328C206.843 350.328 216.535 347.977 225.275 343.472C228.447 341.825 225.645 337.032 222.481 338.678Z" fill="#1F140F"/>
<path d="M162.377 289.801C162.377 268.717 144.816 251.643 123.882 251.543C111.564 251.489 99.2076 251.543 86.8663 251.543H72.6696C72.1269 251.557 71.6 251.729 71.1527 252.036C70.7054 252.344 70.3569 252.774 70.1492 253.276C69.9416 253.777 69.8837 254.328 69.9825 254.862C70.0814 255.395 70.3328 255.889 70.7064 256.283L98.2991 283.853L102.272 287.823C104.797 290.355 108.723 286.431 106.198 283.907L78.6054 256.329L74.6328 252.358L72.6696 257.09H122.266C129.195 257.09 135.708 258.429 141.636 262.177C146.279 265.143 150.102 269.226 152.756 274.053C155.41 278.879 156.809 284.294 156.826 289.801C156.826 293.364 162.377 293.371 162.377 289.801Z" fill="#1F140F"/>
<path d="M155.009 396.782C153.422 401.273 150.879 405.366 147.556 408.78C144.233 412.194 140.209 414.848 135.762 416.557C130.765 418.419 125.753 418.673 120.495 418.673H72.6695C73.1391 420.397 73.601 422.121 74.0707 423.844L89.0449 415.38C96.7438 411.002 103.55 405.792 108.7 398.451C112.336 393.237 114.948 387.38 116.399 381.192C117.215 377.714 111.864 376.237 111.048 379.715C108.6 390.269 102.46 399.602 93.7335 406.031C88.7524 409.64 83.0629 412.417 77.7199 415.441L71.2452 419.058C68.8354 420.42 69.9133 424.221 72.6464 424.221H120.518C126.123 424.221 131.635 423.944 136.986 422.005C142.403 420.025 147.313 416.866 151.36 412.758C155.408 408.651 158.492 403.696 160.39 398.251C161.576 394.881 156.217 393.434 155.039 396.782H155.009Z" fill="#1F140F"/>
<path d="M137.502 285.869V385.901C137.502 389.472 143.045 389.472 143.045 385.901V285.869C143.045 282.299 137.502 282.291 137.502 285.869Z" fill="#1F140F"/>
<path d="M78.5355 321.881H64.8238C62.7066 321.881 60.5663 322.034 59.1574 320.042C58.1335 318.587 58.3876 316.871 58.2567 315.202C58.09 313.074 57.7003 310.969 57.0942 308.923C55.9045 305.045 53.9365 301.451 51.3102 298.359C48.684 295.267 45.4547 292.742 41.8196 290.94C36.3689 288.301 30.7641 287.862 24.8437 287.862H9.71543C7.78302 287.862 6.02768 290.293 7.32109 292.04L22.611 312.739V309.961C21.0712 313.078 19.8856 316.025 19.8009 319.572C19.7591 322.14 20.2283 324.692 21.1811 327.077C22.134 329.463 23.5516 331.635 25.3516 333.469C27.1517 335.302 29.2982 336.76 31.6666 337.757C34.035 338.755 36.5781 339.272 39.1481 339.278V333.731C36.4746 333.74 33.8318 334.301 31.386 335.381C28.9402 336.46 26.7444 338.034 24.9366 340.002C23.1288 341.971 21.7482 344.292 20.8816 346.82C20.015 349.348 19.6811 352.028 19.901 354.691C20.1705 357.415 21.3946 364.417 25.0284 364.417C24.2586 363.025 23.4348 361.632 22.6341 360.247L7.34418 380.961C6.05078 382.708 7.80611 385.132 9.73853 385.132H25.5289C33.0044 385.132 40.1028 383.978 46.2619 379.376C52.1355 375.09 56.2201 368.788 57.7332 361.678C58.1951 359.439 58.1027 357.207 58.403 354.968C58.7956 352.006 61.367 351.121 63.923 351.121H89.2677C92.8399 351.121 92.8476 345.573 89.2677 345.573H65.4012C63.0916 345.573 60.882 345.496 58.7109 346.458C56.499 347.449 54.7289 349.218 53.7375 351.429C52.7674 353.606 52.9676 355.791 52.7212 358.092C52.2369 362.635 50.4631 366.944 47.6092 370.512C42.551 376.806 35.2371 379.584 27.3381 379.584H9.71543C10.5161 380.969 11.3142 382.359 12.1098 383.754L27.3997 363.055C28.6931 361.309 26.9378 358.885 25.0053 358.885L27.3997 360.262C26.1607 358.168 25.4935 355.785 25.4649 353.352C25.4362 350.919 26.0472 348.522 27.2366 346.399C28.426 344.276 30.1522 342.503 32.2425 341.256C34.3329 340.009 36.7141 339.332 39.1481 339.294C42.7204 339.232 42.7281 333.8 39.1481 333.746C36.6561 333.738 34.2123 333.058 32.0743 331.778C29.9363 330.498 28.1831 328.666 26.9993 326.474C24.5203 321.911 25.167 317.241 27.3997 312.778C27.6495 312.353 27.7812 311.87 27.7812 311.377C27.7812 310.885 27.6495 310.401 27.3997 309.977L12.1098 289.278C11.3399 290.671 10.5161 292.056 9.71543 293.448H23.0344C28.2466 293.448 33.3509 293.264 38.2705 295.403C41.8444 296.975 44.989 299.381 47.4404 302.419C49.8919 305.457 51.5787 309.038 52.3594 312.862C53.1908 316.902 52.3594 320.78 55.3465 324.151C57.4637 326.567 60.4662 327.452 63.5843 327.452H78.5355C82.1077 327.452 82.1077 321.904 78.5355 321.911V321.881Z" fill="#1F140F"/>
<path d="M181.571 335.008C186.19 318.179 200.941 319.157 200.941 305.999C200.941 301.497 197.723 298.942 194.074 297.496C192.829 297.021 191.5 296.807 190.17 296.869C188.839 296.93 187.536 297.265 186.341 297.853C185.145 298.441 184.084 299.269 183.224 300.285C182.364 301.301 181.722 302.484 181.34 303.759C180.957 302.485 180.316 301.303 179.456 300.288C178.596 299.272 177.536 298.445 176.342 297.857C175.148 297.269 173.845 296.934 172.515 296.872C171.186 296.809 169.857 297.022 168.613 297.496C164.964 298.942 161.746 301.497 161.746 305.999C161.746 319.157 176.505 318.179 181.116 335.008C181.193 335.762 181.471 335.762 181.571 335.008Z" fill="white"/>
<path d="M181.531 336.247C185.38 322.181 197.699 323.004 197.699 312.008C197.699 308.245 195.012 306.106 191.963 304.898C190.924 304.504 189.814 304.327 188.704 304.38C187.594 304.433 186.506 304.715 185.509 305.206C184.512 305.698 183.627 306.39 182.91 307.238C182.192 308.087 181.657 309.074 181.338 310.138V310.185V310.138C181.02 309.073 180.485 308.085 179.766 307.236C179.048 306.386 178.163 305.694 177.165 305.203C176.167 304.711 175.079 304.43 173.967 304.378C172.856 304.325 171.746 304.502 170.706 304.898C167.627 306.106 164.971 308.245 164.971 312.008C164.971 323.004 177.289 322.181 181.138 336.247C181.215 336.893 181.446 336.893 181.531 336.247Z" fill="#E4003F"/>
<path d="M183.534 335.554C184.85 330.872 187.472 326.66 191.094 323.412C193.812 320.911 196.983 318.795 199.362 315.979C200.707 314.424 201.715 312.609 202.323 310.646C202.931 308.684 203.126 306.617 202.896 304.575C202.219 299.45 197.338 295.703 192.403 294.98C189.612 294.592 186.774 295.208 184.395 296.717C182.016 298.226 180.251 300.531 179.415 303.221L181.339 301.728L183.303 303.221C182.559 300.821 181.075 298.719 179.063 297.213C177.051 295.708 174.614 294.878 172.101 294.841C167.081 294.803 161.415 298.242 160.06 303.244C158.905 307.468 160.322 312.224 162.985 315.555C165.295 318.503 168.505 320.619 171.277 323.119C173.198 324.798 174.877 326.735 176.266 328.875C177.041 330.112 177.701 331.418 178.237 332.776C178.753 334.1 178.891 335.947 179.9 337.001C180.286 337.374 180.802 337.583 181.339 337.583C181.877 337.583 182.393 337.374 182.779 337.001C183.171 336.598 183.438 336.09 183.549 335.539C184.157 332.992 180.231 331.899 179.623 334.454C179.715 334.338 179.815 334.231 179.907 334.123H182.787C183.41 334.769 182.864 333.715 182.741 333.307C182.564 332.761 182.379 332.222 182.171 331.691C181.766 330.616 181.298 329.565 180.77 328.544C179.806 326.713 178.639 324.997 177.29 323.427C175.096 320.834 172.409 318.764 169.814 316.587C167.605 314.724 165.333 312.678 164.379 309.869C162.985 305.798 164.063 302.066 167.943 300.012C172.262 297.704 177.852 299.358 179.368 304.29C179.494 304.715 179.753 305.089 180.106 305.358C180.459 305.626 180.888 305.775 181.332 305.783C181.776 305.774 182.206 305.625 182.56 305.357C182.914 305.089 183.174 304.715 183.303 304.29C183.912 302.371 185.246 300.764 187.021 299.812C188.797 298.859 190.873 298.636 192.811 299.189C197.153 300.474 199.578 303.875 198.7 308.376C197.468 314.647 190.64 317.849 186.559 322.119C183.273 325.592 180.893 329.82 179.63 334.431C178.883 336.993 182.818 338.07 183.534 335.554Z" fill="#1F140F"/>
</g>
<defs>
<clipPath id="clip0_73_1024">
<rect width="516" height="430" fill="white"/>
</clipPath>
</defs>
</svg>
