<svg width="67" height="31" viewBox="0 0 67 31" fill="none" xmlns="http://www.w3.org/2000/svg">
<g clip-path="url(#clip0_73_872)">
<path d="M40.3865 28.6377C40.5582 28.1047 41.4903 28.1411 42.0177 28.1895C43.7837 28.3591 44.1394 28.0078 43.7592 26.3239C42.6677 21.4177 43.379 16.4994 49.0206 13.6647C50.2803 13.0927 51.3557 12.1883 52.1283 11.0511C52.9008 9.91399 53.3405 8.58826 53.3989 7.22001C53.5162 5.96937 53.8264 4.7438 54.3187 3.58578C54.611 2.78885 55.0839 2.06846 55.7012 1.47967C56.3185 0.890889 57.0638 0.449294 57.8804 0.188632C58.6969 -0.0720295 59.563 -0.144852 60.4124 -0.0242742C61.2617 0.0963041 62.072 0.407073 62.7812 0.884321C63.408 1.2872 64.1683 1.4348 64.9029 1.2962C65.884 0.993343 66.252 1.29619 66.6076 2.08361C66.8493 2.5668 66.9853 3.09484 67.0068 3.63336C67.0282 4.17188 66.9347 4.70885 66.7323 5.20932C66.5298 5.7098 66.223 6.16255 65.8317 6.53819C65.4405 6.91383 64.9736 7.20392 64.4614 7.38959C62.2415 8.23758 62.2415 9.27939 62.9038 11.254C63.689 13.1084 63.7241 15.1896 63.0019 17.0688C61.7755 19.8187 61.9594 22.6049 62.3887 25.4396C62.5481 26.542 62.6585 27.499 64.0076 28.0199C64.2778 28.1074 64.518 28.2674 64.7014 28.482C64.8848 28.6966 65.0042 28.9574 65.0462 29.2352C65.0882 29.513 65.0511 29.7968 64.9392 30.055C64.8272 30.3132 64.6448 30.5355 64.4123 30.6972C62.8722 31.1194 61.2282 30.9595 59.8009 30.2489C59.0738 30.5329 58.3169 30.7361 57.5443 30.8546C54.8952 30.9152 52.2461 30.8546 49.597 30.8546C49.0802 30.7999 48.5798 30.6434 48.1253 30.3943C47.6757 30.093 47.1614 29.8989 46.6229 29.8274C46.0845 29.7559 45.5365 29.809 45.0224 29.9824C43.862 30.2618 42.6506 30.2618 41.4902 29.9824C41.0487 30.0187 40.1903 29.2677 40.3865 28.6377Z" fill="#EE7654"/>
<path d="M0.918936 25.3427C1.06611 25.8394 1.42175 26.5541 1.81421 26.6389C2.11122 26.6874 2.4155 26.669 2.70431 26.5851C2.99313 26.5012 3.259 26.354 3.48214 26.1544C3.87856 25.6293 4.0623 24.977 3.99729 24.3251C3.78655 23.0746 3.92529 21.791 4.39859 20.6126C4.87189 19.4343 5.66174 18.4058 6.68311 17.6382C7.69442 16.7976 8.81669 16.0967 10.019 15.5545C10.9879 15.1503 11.8351 14.5068 12.4795 13.6858C13.1238 12.8648 13.5435 11.8938 13.6983 10.8663C13.869 9.76684 14.1232 8.68159 14.4587 7.61976C14.8256 6.68883 15.3343 5.81869 15.9672 5.03945C16.6458 4.17744 17.4283 3.40043 18.2975 2.72565C18.9829 2.31362 19.7157 1.9842 20.4805 1.74442L20.8239 3.44042C21.6948 3.3884 22.5572 3.63476 23.2655 4.13796C23.9738 4.64115 24.4846 5.37036 24.7117 6.20243C24.8098 6.48106 25.2881 6.6264 25.5456 6.89291C25.8032 7.15942 26.3306 7.60765 26.3674 7.9953C26.4828 8.64695 26.3915 9.31792 26.1062 9.91641C25.8208 10.5149 25.3551 11.0117 24.773 11.3388C24.3561 11.5376 24.0226 11.8739 23.83 12.2897C23.6375 12.7055 23.5979 13.1747 23.7183 13.6163C23.9899 15.6513 23.5577 17.7174 22.4918 19.4795C21.5401 21.1741 21.1136 23.1077 21.2654 25.0399C21.2654 25.9 21.2654 26.6147 22.2711 27.1598C22.5134 27.3005 22.7154 27.4998 22.8581 27.739C23.0008 27.9781 23.0796 28.2492 23.0869 28.5267C23.0943 28.8042 23.03 29.079 22.9002 29.3252C22.7703 29.5714 22.5791 29.7809 22.3447 29.934C21.5228 30.1786 20.656 30.2392 19.8074 30.1113C18.9588 29.9835 18.1497 29.6705 17.4389 29.195C16.838 29.5342 16.2984 30.0551 15.7587 30.0793C13.0606 30.1641 10.3625 30.152 7.66431 30.0793C7.3577 30.0793 6.97747 29.619 6.78124 29.2798C6.46239 28.6666 6.17984 28.0356 5.935 27.39C3.71516 29.4252 1.72835 29.8128 0.0481415 28.771" fill="#EE7654"/>
</g>
<defs>
<clipPath id="clip0_73_872">
<rect width="67" height="31" fill="white" transform="matrix(-1 0 0 1 67 0)"/>
</clipPath>
</defs>
</svg>
