<svg width="297" height="256" viewBox="0 0 297 256" fill="none" xmlns="http://www.w3.org/2000/svg">
<g clip-path="url(#clip0)">
<path d="M156.561 151.646L199.518 149.087C199.235 139.376 196.496 135.153 192.257 135.677C188.018 136.201 188.278 141.873 183.3 141.966C178.322 142.058 178.192 139.469 174.083 139.345C169.974 139.253 167.17 142.983 164.583 143.692C161.996 144.401 155.952 139.284 156.561 151.646Z" fill="#F6B200"/>
</g>
<path d="M271.407 128.269C271.407 196.283 214.305 251.651 143.574 251.651C72.8436 251.651 15.7416 196.283 15.7416 128.269C15.7416 60.2553 72.8436 4.88684 143.574 4.88684C214.305 4.88684 271.407 60.2553 271.407 128.269Z" fill="#009486" stroke="black" stroke-width="8"/>
<path d="M93.7104 248.873C85.8644 248.873 78.8231 243.439 76.8114 235.791C74.7996 228.143 78.2196 220.093 85.0597 216.068L106.586 203.791C109 202.382 111.414 200.772 113.627 198.759C102.562 191.111 93.308 182.054 86.6691 171.589C79.0243 189.3 61.1194 201.778 41.0015 201.778H18.0672C11.4283 201.778 5.39291 198.155 2.37523 192.117C-0.642454 186.281 -0.0389172 179.237 3.98466 173.802L16.6589 156.494C14.8483 147.638 16.2566 138.582 20.6825 130.732C20.8837 130.129 21.286 129.726 21.6884 129.122C21.286 128.519 21.0848 128.116 20.6825 127.512C16.2566 119.462 14.8483 110.405 16.6589 101.751L3.98466 84.4421C-0.0389172 79.008 -0.642454 72.1651 2.37523 66.1272C5.39291 60.2906 11.4283 56.4666 18.0672 56.4666H40.8004C54.0782 56.4666 66.5512 61.6995 76.0066 71.1588C80.4326 75.5866 84.0538 80.8194 86.4679 86.656C91.2962 79.2093 97.3316 72.3664 104.574 66.1272L81.2373 42.9821C76.2078 37.9505 74.7996 30.5038 77.4149 23.8622C80.2314 17.2205 86.4679 12.994 93.5092 12.994H155.472C175.59 12.994 194.501 23.2584 205.566 39.9631C258.476 47.8124 296.499 85.0459 296.499 129.324C296.499 172.595 259.28 209.627 207.779 218.281C197.116 237.2 177.401 248.873 155.271 248.873H93.7104Z" fill="black"/>
<path d="M93.7103 243.037C88.4796 243.037 83.8525 239.414 82.4443 234.382C81.036 229.351 83.4502 223.917 88.0773 221.3L109.603 209.023C114.633 206.206 119.26 202.382 122.881 197.753C104.976 187.287 91.6985 172.394 84.8584 155.488C83.0478 178.23 63.9358 196.143 40.8003 196.143H18.0671C13.6412 196.143 9.6176 193.727 7.60581 189.702C5.59402 185.677 5.99638 181.048 8.6117 177.425L23.0966 157.903C20.6824 149.852 21.6883 141.198 25.9131 133.751C26.7178 132.141 27.7237 130.732 28.9308 129.324C27.9249 127.915 26.919 126.506 25.9131 124.896C21.6883 117.248 20.6824 108.594 23.0966 100.744L8.6117 81.222C5.99638 77.5992 5.59402 72.9702 7.60581 68.945C9.6176 64.9197 13.6412 62.5046 18.0671 62.5046H40.8003C52.4687 62.5046 63.5335 67.1336 71.983 75.3853C79.4266 82.832 83.8525 92.4926 84.6572 102.958C90.2902 89.0712 100.148 76.5929 113.426 66.7311L85.462 38.7556C82.0419 35.3342 81.036 30.3026 82.8466 26.0761C84.6572 21.6484 88.882 18.8307 93.7103 18.8307H155.472C174.986 18.8307 192.489 29.0951 202.146 45.3973C253.044 52.0389 290.865 87.2598 290.865 129.324C290.865 170.985 254.251 205.803 204.157 213.049C195.104 231.364 176.395 243.238 155.472 243.238H93.7103V243.037Z" fill="white"/>
<path d="M279.197 129.324C279.197 91.6875 242.985 60.6932 196.311 56.4667L196.11 59.6869C190.276 42.7808 174.383 30.5038 155.472 30.5038H93.7103L131.532 68.3411H132.739C112.822 79.008 98.1362 95.5115 93.308 114.43C93.308 114.43 93.5091 114.631 93.7103 115.034H81.8408C77.2137 115.034 73.1901 111.21 73.1901 106.581C73.1901 88.6686 58.7052 74.1777 41.0015 74.1777H18.0671L36.3744 99.1342C28.3272 112.418 37.7826 129.324 53.2734 129.324C37.7826 129.324 28.3272 146.23 36.3744 159.513L18.0671 184.469H40.8003C58.7052 184.469 72.9889 169.979 72.9889 152.267C72.9889 147.437 76.8113 143.613 81.6396 143.613L93.1068 144.217C98.7398 165.349 115.84 183.061 138.976 193.325C133.946 204.193 125.698 213.25 115.035 219.288L93.5091 231.565H155.472C174.182 231.565 190.075 219.489 195.708 202.784L194.702 202.382C242.18 198.558 279.197 167.362 279.197 129.324Z" fill="white"/>
<path d="M98.7399 129.525H77.4149C73.9949 129.525 70.9772 126.506 70.9772 122.682C70.9772 108.594 60.3147 97.1217 47.0369 97.1217H30.1379L43.6169 116.845C37.5815 127.311 44.6228 140.796 56.09 140.796C44.6228 140.796 37.5815 154.28 43.6169 164.746L30.1379 184.469H47.0369C60.1136 184.469 72.7878 168.369 72.3855 159.714C72.1843 153.475 73.5925 144.016 77.2137 144.016H100.752" fill="#6CBBD8"/>
<path d="M185.247 77.8005C190.88 74.5803 188.868 53.649 166.537 43.5859C152.656 37.7493 102.965 40.7683 102.965 40.7683L131.532 66.5298C131.532 66.5298 93.1069 89.675 93.1069 137.777" fill="#6CBBD8"/>
<path d="M179.211 193.124C183.637 195.539 182.028 211.841 164.727 219.489C154.064 223.917 120.266 221.904 120.266 221.904C120.266 221.904 129.923 213.25 135.958 204.998C139.78 199.765 138.171 192.319 132.739 189.098C121.071 181.853 108.195 177.023 108.195 146.833" fill="#6CBBD8"/>
<path d="M180.217 198.155C228.216 198.155 267.126 170.402 267.126 136.167C267.126 101.931 228.216 74.1779 180.217 74.1779C132.219 74.1779 93.308 101.931 93.308 136.167C93.308 170.402 132.219 198.155 180.217 198.155Z" fill="#6CBBD8"/>
<path d="M96.1246 116.644C102.562 92.8951 122.881 75.9891 145.212 67.5361C148.632 66.1272 147.224 60.4919 143.603 61.9007C119.461 71.1588 97.3316 89.2724 90.4916 115.235C89.4857 118.858 95.1187 120.267 96.1246 116.644Z" fill="black"/>
<path d="M140.585 192.117C120.065 183.061 101.959 166.96 95.9233 144.821C94.9174 141.198 89.2844 142.808 90.2903 146.431C96.728 169.979 115.84 187.488 137.768 197.149C141.188 198.759 144.206 193.728 140.585 192.117Z" fill="black"/>
<path d="M196.11 60.8944C227.293 63.9134 261.896 80.8194 272.961 112.216C277.789 125.701 277.185 140.796 271.15 154.079C264.913 167.765 253.849 178.834 240.973 186.482C224.275 196.545 204.56 201.174 185.046 201.375C181.223 201.375 181.223 207.212 185.046 207.212C219.246 207.011 257.067 192.52 273.966 161.123C281.41 147.437 283.824 131.336 280.002 116.04C275.978 100.141 265.919 86.656 253.245 76.7941C236.748 64.1146 216.631 57.0705 196.11 55.2591C192.288 54.6553 192.489 60.4919 196.11 60.8944Z" fill="black"/>
<path d="M222.867 121.877C227.423 121.877 231.115 117.101 231.115 111.21C231.115 105.319 227.423 100.543 222.867 100.543C218.312 100.543 214.619 105.319 214.619 111.21C214.619 117.101 218.312 121.877 222.867 121.877Z" fill="black"/>
<path d="M273.564 133.349C254.653 143.211 231.316 143.211 212.406 133.349C208.583 131.336 205.163 137.173 208.986 139.185C230.109 150.255 255.659 150.255 276.984 139.185C280.806 137.173 277.386 131.336 273.564 133.349Z" fill="black"/>
<path d="M201.542 74.5803C201.542 49.2212 180.418 28.6925 155.271 28.6925C140.384 28.6925 125.698 28.6925 110.81 28.6925C105.177 28.6925 99.3433 28.6925 93.7102 28.6925C90.8937 28.6925 89.2843 32.3152 91.2961 34.3278C102.361 45.3973 113.426 56.4667 124.491 67.5361C126.1 69.1462 127.709 70.7563 129.319 72.3664C132.337 75.3853 137.165 70.7563 133.946 67.7374C122.881 56.6679 111.816 45.5985 100.752 34.5291C99.1421 32.7177 97.7338 31.1077 96.1244 29.4976C95.3197 31.3089 94.515 33.3215 93.7102 35.1329C106.787 35.1329 119.662 35.1329 132.739 35.1329C139.579 35.1329 146.419 35.1329 153.259 35.1329C161.507 35.1329 169.353 36.743 176.596 41.1708C187.862 48.2149 194.903 61.0957 194.903 74.379C194.702 78.8068 201.542 78.8068 201.542 74.5803Z" fill="black"/>
<path d="M192.69 203.187C188.868 214.055 180.418 222.911 169.555 226.936C163.519 229.15 157.484 229.552 151.247 229.552C136.561 229.552 122.076 229.552 107.39 229.552C102.964 229.552 98.3374 229.552 93.9115 229.552C94.515 231.565 95.1185 233.779 95.5209 235.791C101.556 232.37 107.592 228.948 113.426 225.527C122.68 220.294 130.928 214.055 136.964 205.199C141.39 198.96 144.407 191.916 146.218 184.469C147.224 180.243 140.786 178.432 139.78 182.658C136.763 195.136 129.52 206.608 119.059 214.256C113.023 218.684 106.183 221.904 99.7456 225.527C97.1303 226.936 94.515 228.546 92.1008 229.955C89.2843 231.565 90.4914 236.194 93.7103 236.194C105.781 236.194 118.053 236.194 130.124 236.194C137.165 236.194 144.206 236.194 151.247 236.194C157.886 236.194 164.525 235.791 170.963 233.577C184.241 228.747 194.3 218.282 199.128 204.998C200.536 200.973 194.098 199.162 192.69 203.187Z" fill="black"/>
<path d="M171.567 69.75C171.567 83.2345 171.567 96.9204 171.567 110.405C171.567 131.94 171.567 153.676 171.567 175.211C171.567 180.243 171.567 185.073 171.567 190.105C171.567 194.331 178.205 194.331 178.205 190.105C178.205 176.62 178.205 162.934 178.205 149.45C178.205 127.915 178.205 106.178 178.205 84.6434C178.205 79.6118 178.205 74.7815 178.205 69.75C178.205 65.5235 171.567 65.5235 171.567 69.75Z" fill="black"/>
<path d="M100.752 113.223C95.3197 113.223 89.6867 113.223 84.2549 113.223C81.6396 113.223 79.2254 113.424 77.4148 111.009C76.2078 109.197 76.4089 107.185 76.4089 105.172C76.2078 102.556 75.8054 100.141 75.0007 97.7255C72.1842 88.4675 65.3441 80.417 56.6934 76.1905C50.0545 72.9703 43.4156 72.5677 36.3744 72.5677C30.339 72.5677 24.3037 72.5677 18.2683 72.5677C15.8542 72.5677 13.8424 75.3854 15.4518 77.5993C21.4872 85.851 27.7237 94.1028 33.7591 102.556C33.7591 101.348 33.7591 100.342 33.7591 99.1344C31.9485 102.958 30.5402 106.38 30.339 110.606C30.339 114.632 31.3449 118.657 33.1555 122.28C37.1791 129.726 45.0251 134.154 53.4746 134.355C53.4746 132.141 53.4746 129.927 53.4746 127.714C44.6227 127.915 36.3744 132.745 32.552 140.796C30.7414 144.62 29.9367 148.846 30.339 152.871C30.7414 156.092 32.1496 164.545 36.5756 164.545C35.5697 162.934 34.5638 161.123 33.7591 159.513C27.7237 167.765 21.4872 176.017 15.4518 184.47C13.8424 186.482 16.0553 189.501 18.2683 189.501C24.5048 189.501 30.9426 189.501 37.1791 189.501C46.2321 189.501 54.6816 188.092 62.1253 182.658C66.7524 179.237 70.5748 174.809 72.9889 169.777C74.196 167.161 75.2019 164.343 75.8054 161.324C76.4089 158.708 76.2078 155.89 76.6101 153.274C77.0125 149.651 80.2313 148.645 83.249 148.645C86.4679 148.645 89.6867 148.645 92.9056 148.645C99.9468 148.645 106.787 148.645 113.828 148.645C118.053 148.645 118.053 142.003 113.828 142.003C107.994 142.003 101.959 142.003 96.1245 142.003C92.5032 142.003 88.882 142.003 85.0596 142.003C82.2431 142.003 79.6278 142.003 77.0125 143.01C74.3972 144.217 72.1842 146.431 70.9771 149.047C69.77 151.664 69.9712 154.28 69.77 157.098C69.1665 162.532 66.9535 167.765 63.5335 171.991C57.4981 179.639 48.6463 182.859 39.1909 182.859C32.1496 182.859 25.1084 182.859 18.0671 182.859C19.073 184.47 20.0789 186.281 20.8836 187.891C26.919 179.639 33.1555 171.387 39.1909 162.934C40.8003 160.922 38.5873 157.903 36.3744 157.903C37.3803 158.507 38.3862 158.909 39.1909 159.513C32.7532 148.444 40.398 134.556 53.2734 134.355C57.4981 134.355 57.4981 127.714 53.2734 127.714C47.0369 127.714 41.605 124.493 38.5873 119.059C35.5697 113.625 36.3744 107.99 38.9897 102.556C39.3921 101.549 39.7944 100.141 38.9897 99.1344C32.9543 90.8826 26.7178 82.6309 20.6824 74.1778C19.6766 75.7879 18.6707 77.5993 17.8659 79.2094C23.2978 79.2094 28.5284 79.2094 33.9602 79.2094C40.1968 79.2094 46.4333 79.0081 52.2675 81.6245C60.9182 85.4485 67.3559 93.2978 69.1665 102.556C70.1724 107.386 69.1665 112.015 72.7877 116.04C75.403 118.858 79.0243 120.066 82.6455 120.066C88.6808 120.066 94.7162 120.066 100.55 120.066C104.976 119.864 104.976 113.223 100.752 113.223Z" fill="black"/>
<path d="M224.477 128.921C230.11 108.594 247.813 109.801 247.813 94.1027C247.813 88.6686 243.991 85.6497 239.565 83.8384C233.328 81.4232 226.287 84.8447 224.275 91.2851C222.264 84.8447 215.222 81.222 208.986 83.8384C204.56 85.6497 200.737 88.6686 200.737 94.1027C200.737 110.002 218.441 108.795 224.074 128.921C224.074 129.927 224.477 129.927 224.477 128.921Z" fill="white"/>
<path d="M224.477 130.33C229.104 113.424 243.991 114.43 243.991 101.147C243.991 96.7191 240.772 94.1027 237.151 92.6939C231.92 90.6813 226.086 93.4989 224.477 98.933C222.867 93.4989 217.033 90.48 211.802 92.6939C208.181 94.1027 204.962 96.7191 204.962 101.147C204.962 114.43 219.849 113.424 224.477 130.33C224.074 131.135 224.275 131.135 224.477 130.33Z" fill="#DE0042"/>
<path d="M226.891 129.525C228.5 123.688 231.518 119.059 235.944 114.833C239.162 111.814 242.985 109.399 245.801 105.977C249.02 102.153 250.63 97.3229 250.026 92.2914C249.221 86.0522 243.387 81.6245 237.352 80.8194C230.512 79.8131 223.873 84.0396 221.66 90.6813C222.465 90.0775 223.269 89.4737 224.074 88.8699C224.879 89.4737 225.683 90.0775 226.488 90.6813C224.678 84.8447 219.246 80.6182 213.009 80.6182C206.974 80.6182 200.134 84.6434 198.524 90.6813C197.116 95.7128 198.927 101.549 201.944 105.575C204.761 109.197 208.583 111.613 212.003 114.631C214.216 116.644 216.429 118.858 218.039 121.474C219.045 122.883 219.849 124.493 220.453 126.103C221.056 127.714 221.258 129.927 222.465 131.135C223.269 132.141 225.08 132.141 225.885 131.135C226.488 130.732 226.689 130.33 226.891 129.525C227.695 126.506 222.867 125.097 222.263 128.317C222.465 128.116 222.465 128.116 222.666 127.915C223.873 127.915 224.879 127.915 226.086 127.915C226.891 128.72 226.086 127.512 226.086 126.908C225.885 126.305 225.683 125.701 225.482 124.896C225.08 123.688 224.476 122.279 223.873 121.072C222.666 118.858 221.258 116.845 219.648 114.833C217.033 111.613 213.814 109.197 210.595 106.581C207.98 104.367 205.163 101.952 204.157 98.5305C202.548 93.7002 203.755 89.0712 208.382 86.656C213.613 83.8384 220.252 85.851 222.062 91.8889C222.465 92.8952 223.269 93.7002 224.476 93.7002C225.482 93.7002 226.488 92.8952 226.891 91.8889C228.299 87.0586 233.529 84.4422 238.358 85.851C243.588 87.4611 246.405 91.4863 245.399 96.9204C243.991 104.367 235.742 108.392 230.914 113.424C226.891 117.65 224.074 122.682 222.465 128.317C221.258 131.336 226.086 132.544 226.891 129.525Z" fill="black"/>
<defs>
<clipPath id="clip0">
<rect width="43" height="16" fill="white" transform="matrix(1 0 0 -1 156.517 151.646)"/>
</clipPath>
</defs>
</svg>
