<svg width="252" height="173" viewBox="0 0 252 173" fill="none" xmlns="http://www.w3.org/2000/svg">
<g clip-path="url(#clip0)">
<path d="M240.829 28.9194C229.917 22.7224 216.928 23.497 205.497 19.3657C200.561 17.5582 196.144 14.9761 191.988 12.1358C188.87 10.0701 185.493 7.74627 181.596 7.22985C176.4 6.45522 171.724 8.7791 167.827 12.1358C142.107 -3.61493 109.373 -4.38955 83.9133 12.1358C81.5752 10.3284 79.2371 8.7791 76.6391 7.74627C68.0659 4.64776 60.7917 11.8776 54.037 15.7507C48.3216 18.8493 42.3463 20.9149 36.1113 21.9478C29.6164 22.9806 23.6412 24.0134 17.6659 25.8209C13.2494 27.3701 8.57313 29.4358 5.45561 33.0507C2.07829 36.6657 0.519524 41.0552 0.25973 45.703C-0.259858 50.8672 0.519524 55.7731 4.15664 59.6463C5.19581 60.9373 6.75457 61.9701 7.27416 63.5194C8.05354 65.8433 7.79375 68.1672 7.79375 70.491C7.27416 78.4955 7.53396 87.2746 10.3917 94.7627C14.0288 104.058 21.8226 109.481 32.2144 109.481C40.268 109.481 47.2824 105.607 52.4783 99.9269C57.1546 122.391 67.5463 149.761 89.8886 159.315C93.7855 161.122 97.6824 161.897 101.579 161.897C101.839 162.155 101.839 162.155 102.099 162.413C109.893 167.578 117.427 173.516 127.559 173C136.651 172.742 144.186 167.061 151.46 162.413C151.72 162.155 151.979 162.155 152.239 161.897C155.357 161.639 158.474 160.864 161.592 159.573C183.934 150.019 194.326 122.133 199.262 99.6686C202.639 103.542 206.796 106.898 211.992 108.448C221.604 111.546 232.515 108.964 238.491 100.701C243.427 93.7298 244.206 84.1761 244.206 75.6552C244.206 71.7821 242.907 67.1343 244.726 63.5194C245.505 61.9701 246.804 60.9373 247.843 59.9045C249.402 58.3552 250.441 56.5478 250.961 54.4821C253.818 44.4119 249.402 33.8254 240.829 28.9194Z" fill="white"/>
<path d="M157.175 61.4537C143.146 61.9702 131.975 73.3314 131.456 87.2746C131.456 91.6642 132.235 95.5373 134.054 99.1523C134.313 99.6687 134.833 99.9269 135.612 99.9269C135.872 99.9269 135.872 99.9269 136.132 99.9269C138.99 99.9269 141.328 102.251 141.328 105.091C141.328 105.866 141.068 106.64 140.808 107.415C140.808 107.673 140.808 107.673 141.068 107.673C141.847 107.157 143.666 106.124 144.965 106.124C147.823 106.124 150.161 108.448 150.161 111.288C150.161 111.804 150.161 112.321 150.161 112.837C150.161 113.096 150.421 113.096 150.421 112.837C151.2 111.804 153.019 109.481 154.837 109.481C157.175 109.481 159.254 111.03 159.773 113.354C160.033 114.128 160.553 114.645 161.332 114.387C174.581 112.837 184.713 101.734 184.713 88.0493C184.973 73.0731 172.503 60.9373 157.175 61.4537Z" fill="#C0996D"/>
<path d="M160.553 116.71C158.994 116.71 157.695 115.678 157.435 114.128C156.915 112.579 155.616 111.804 154.318 111.804C153.798 111.804 152.499 112.579 151.46 114.387L150.68 115.678L149.122 115.161C148.342 114.903 147.823 113.87 147.823 113.096C147.823 112.579 147.823 112.321 147.823 111.804C147.823 108.964 145.225 107.931 143.406 107.931C142.887 107.931 141.847 108.448 140.289 109.222L139.249 109.997L137.95 109.222C137.171 108.706 136.911 107.673 137.431 106.899C137.691 105.866 137.691 105.349 137.691 105.349C137.691 103.542 135.872 101.734 134.054 101.993C132.755 101.993 131.196 101.476 130.676 99.9269C128.858 95.7955 127.819 91.6642 128.078 87.0164C128.598 72.0403 140.548 59.9045 155.616 59.3881C163.41 59.1299 170.944 61.9702 176.66 67.3925C182.375 72.8149 185.493 80.0448 185.493 87.7911C185.493 102.767 175.361 114.903 161.332 116.452C160.812 116.71 160.812 116.71 160.553 116.71ZM154.318 108.19C157.435 108.19 160.033 110.255 161.072 113.096C173.023 111.546 181.596 100.96 181.596 88.3075C181.596 81.594 178.998 75.1388 174.062 70.4911C169.126 65.8433 162.631 63.2612 155.876 63.5194C142.887 64.0358 132.495 74.3642 131.975 87.5329C131.975 91.406 132.495 95.0209 134.054 98.3776C137.95 98.1194 141.068 100.96 141.588 104.575C142.107 104.316 142.887 104.316 143.406 104.316C146.524 104.316 149.901 106.124 151.2 109.481C151.979 108.448 153.019 108.19 154.318 108.19Z" fill="black"/>
<path d="M130.936 113.096C128.338 113.096 126.779 114.645 126 115.678C125.74 115.936 125.48 115.936 125.48 115.678C124.961 114.645 123.662 113.096 120.804 113.096C116.647 113.096 113.01 115.419 114.049 121.358C115.608 130.654 125.74 135.56 125.74 135.56C125.74 135.56 135.872 131.17 137.431 121.616C138.47 115.678 135.093 113.096 130.936 113.096Z" fill="black"/>
<path d="M85.9918 17.8164C110.672 1.80745 141.068 2.58208 166.008 18.0746C169.386 20.1403 172.503 14.9761 169.126 12.9104C142.367 -3.61494 109.113 -4.64777 82.8743 12.6522C79.497 14.7179 82.6145 20.1403 85.9918 17.8164Z" fill="black"/>
<path d="M94.3051 103.8C100.188 103.8 104.957 99.0602 104.957 93.2134C104.957 87.3666 100.188 82.6269 94.3051 82.6269C88.4224 82.6269 83.6536 87.3666 83.6536 93.2134C83.6536 99.0602 88.4224 103.8 94.3051 103.8Z" fill="black"/>
<path d="M51.1792 94.7627C55.8555 118.001 66.2472 150.278 90.9277 159.831C109.893 167.061 127.299 155.184 128.338 135.56C128.598 131.687 122.363 131.687 122.103 135.56C120.804 159.057 96.1235 159.831 81.8349 146.663C67.2864 132.978 60.7916 112.063 57.1544 92.9552C56.3751 89.0821 50.3998 90.8895 51.1792 94.7627Z" fill="black"/>
<path d="M123.142 135.56C124.181 155.184 141.587 167.061 160.552 159.831C185.233 150.278 195.624 118.002 200.301 94.7627C201.08 90.8896 195.105 89.3403 194.326 93.2134C190.429 112.063 183.934 133.236 169.385 146.921C155.356 160.09 130.416 159.315 129.117 135.818C128.857 131.687 122.882 131.687 123.142 135.56Z" fill="black"/>
<path d="M102.099 162.413C109.893 167.578 117.427 173.516 127.559 173C136.651 172.742 144.185 167.061 151.46 162.413C154.837 160.348 151.719 154.925 148.342 157.249C142.107 161.122 135.872 166.287 128.338 166.803C118.985 167.578 112.231 161.897 105.216 157.249C101.839 154.925 98.7215 160.09 102.099 162.413Z" fill="black"/>
<path d="M96.903 90.3731C96.903 92.9552 94.8246 95.0209 92.2267 95.0209C89.6288 95.0209 87.5504 92.9552 87.5504 90.3731C87.5504 87.7911 89.6288 85.7254 92.2267 85.7254C94.8246 85.7254 96.903 87.7911 96.903 90.3731Z" fill="white"/>
<path d="M156.915 103.8C162.798 103.8 167.567 99.0602 167.567 93.2134C167.567 87.3666 162.798 82.6269 156.915 82.6269C151.033 82.6269 146.264 87.3666 146.264 93.2134C146.264 99.0602 151.033 103.8 156.915 103.8Z" fill="black"/>
<path d="M159.513 90.3731C159.513 92.9552 157.435 95.0209 154.837 95.0209C152.239 95.0209 150.161 92.9552 150.161 90.3731C150.161 87.7911 152.239 85.7254 154.837 85.7254C157.435 85.7254 159.513 87.7911 159.513 90.3731Z" fill="white"/>
<path d="M94.5649 25.3045C90.4082 18.3328 84.4329 10.5866 76.6391 7.74626C68.0659 4.64776 61.0515 11.6194 54.037 15.4925C42.6061 21.9478 29.8762 21.6895 17.6659 25.8209C8.31333 28.9194 1.29889 35.1164 -7.54893e-05 45.4448C-0.519663 50.3507 -7.55787e-05 55.2567 3.37724 59.1298C4.41642 60.4209 5.71539 61.4537 6.49477 62.7448C8.05353 65.0686 7.79374 67.909 7.79374 70.2328C7.27415 78.4955 7.27415 87.2746 10.3917 95.0209C14.0288 104.316 22.0824 109.481 31.9546 109.481C42.6061 109.222 50.9195 103.025 56.1154 94.2463C62.3504 84.4343 65.2082 72.2985 66.7669 60.9373C68.3257 50.609 74.8205 41.0552 82.6144 34.0836C85.2123 32.0179 81.5752 28.403 78.9772 30.4687C73.2618 35.3746 68.0659 42.0881 64.9484 48.8015C60.7917 57.8388 60.7917 68.1672 57.6742 77.7209C54.8164 86.5 50.3999 96.3119 42.3463 101.218C35.0721 105.866 23.6412 105.866 17.9257 98.3776C12.9896 92.1806 12.47 83.4015 12.47 75.9134C12.47 72.0403 13.2494 68.1672 12.47 64.294C11.6906 60.1627 9.09271 58.3552 6.75456 55.2567C4.15663 51.6418 4.67621 45.9612 5.71539 42.0881C7.01436 38.2149 9.6123 35.3746 13.2494 33.3089C23.1216 27.6284 35.3319 28.1448 45.9834 24.7881C51.1793 22.9806 56.1154 20.3985 60.7917 17.3C63.9092 15.2343 67.2865 12.394 71.1834 12.1358C76.3793 11.6194 80.7958 16.2672 84.1731 19.8821C86.5113 22.4642 88.3298 25.0463 90.1484 27.8866C91.9669 30.7269 96.3834 28.1448 94.5649 25.3045Z" fill="black"/>
<path d="M161.592 27.8866C164.969 21.9478 170.684 13.9433 177.699 12.394C181.076 11.6194 184.194 13.1687 187.051 14.9761C190.689 17.3 194.326 19.6239 197.963 21.6896C208.614 27.1119 220.565 27.1119 231.736 30.7269C235.893 32.0179 240.049 33.8254 242.647 37.1821C245.505 40.5388 246.544 45.1866 246.284 49.8343C246.025 54.2239 243.686 56.0313 241.348 59.1299C238.491 62.7448 238.491 67.1343 238.75 71.5239C239.01 79.012 239.01 87.0164 236.152 93.9881C232.515 102.509 223.942 106.124 214.849 104.058C205.497 101.734 199.522 93.2134 195.884 84.9508C193.806 80.0448 192.247 74.6224 190.948 69.4582C189.649 64.0358 189.39 58.3552 187.831 53.1911C184.973 44.6702 178.998 36.6657 172.243 30.7269C169.645 28.6612 166.008 32.2761 168.606 34.3418C175.361 40.2806 181.336 48.5433 183.674 57.0642C184.973 61.9702 185.233 67.1343 186.532 72.0403C187.831 77.2045 189.39 82.3687 191.468 87.5329C195.365 96.5702 201.86 105.349 211.732 108.448C221.084 111.546 232.256 108.964 238.231 100.702C243.167 93.7299 243.946 84.4343 243.946 75.9134C243.946 71.7821 242.647 66.6179 244.726 63.003C246.804 59.6463 249.922 57.8388 250.961 53.7075C253.299 44.1537 249.142 33.8254 240.569 28.9194C229.658 22.7224 216.668 23.497 205.237 19.3657C199.781 17.3 194.845 13.9433 189.909 10.8448C186.272 8.5209 182.375 6.71343 178.218 6.97164C168.866 8.00448 161.332 17.8164 156.915 25.3045C155.357 28.1448 159.773 30.7269 161.592 27.8866Z" fill="black"/>
<path d="M175.621 77.2045C175.101 77.9791 173.542 77.7209 172.243 76.6881C170.944 75.6552 170.165 74.3642 170.684 73.5896C171.204 72.8149 172.763 73.0731 174.062 74.106C175.361 75.1388 176.14 76.4298 175.621 77.2045Z" fill="black"/>
<path d="M174.322 89.8567C175.621 89.5985 177.179 90.8895 177.439 92.697C177.699 94.5044 176.919 96.0537 175.361 96.3119C174.062 96.5701 172.503 95.2791 172.243 93.4716C171.983 91.6641 172.763 89.8567 174.322 89.8567Z" fill="black"/>
<path d="M172.243 92.1806C172.243 90.1149 171.464 87.2746 172.763 87.2746C174.062 87.2746 174.062 88.5656 175.101 89.3403C176.14 90.3731 177.699 91.6642 177.439 93.988C177.179 96.3119 173.282 95.2791 172.763 94.7627C172.243 93.988 172.243 92.1806 172.243 92.1806Z" fill="black"/>
<path d="M162.891 75.397C162.891 76.4298 161.072 77.4627 158.734 77.4627C156.396 77.4627 154.577 76.4298 154.577 75.397C154.577 74.3642 156.396 73.3313 158.734 73.3313C161.072 73.3313 162.891 74.3642 162.891 75.397Z" fill="black"/>
<path d="M158.734 73.3313C155.616 73.3313 154.577 74.3642 154.058 74.8806C153.538 75.397 151.979 74.8806 151.979 75.9134C151.979 76.9463 154.058 77.7209 158.994 77.4627C159.513 74.8806 159.513 73.5896 158.734 73.3313Z" fill="black"/>
<path d="M141.847 73.5896C141.068 73.3314 140.808 74.8806 139.769 76.1717C139.509 76.4299 139.509 76.9463 139.509 77.2045C139.509 77.4627 139.509 77.7209 139.509 77.9791C139.249 78.7538 139.509 79.7866 140.289 80.5612C140.548 80.8194 140.808 81.0776 141.068 81.0776C141.588 81.0776 141.847 80.8194 141.847 80.303C141.847 79.5284 142.107 79.012 142.367 78.2373C142.627 77.7209 142.887 76.6881 142.887 75.9135C142.887 74.6224 142.367 73.5896 141.847 73.5896Z" fill="black"/>
<path d="M162.631 110.255C162.111 109.739 162.631 108.706 163.41 108.19C164.19 107.673 165.229 107.673 165.489 108.19C166.008 108.706 165.489 109.739 164.709 110.255C163.93 110.772 163.15 110.772 162.631 110.255Z" fill="black"/>
<path d="M163.41 108.19C164.19 107.673 165.229 107.931 165.748 108.19C166.268 108.448 166.268 108.19 166.528 108.706C166.788 108.964 167.047 109.739 166.528 110.255C166.008 110.513 165.229 110.255 164.709 110.513C164.449 110.513 161.851 108.964 163.41 108.19Z" fill="black"/>
<path d="M157.955 66.6179C157.955 65.3269 159.773 65.0687 161.592 65.5851C163.15 66.1015 163.67 66.3597 164.449 66.3597C165.489 66.3597 164.969 68.1672 163.93 68.4254C162.891 68.6836 160.812 69.7164 159.513 68.4254C158.994 67.6508 157.955 67.3926 157.955 66.6179Z" fill="black"/>
<path d="M138.73 96.0537C137.691 96.3119 136.392 95.0209 135.612 92.697C135.093 90.6313 135.353 88.5657 136.392 88.3075C137.431 88.0492 138.73 89.3403 139.509 91.6642C140.289 93.7298 140.029 95.7955 138.73 96.0537Z" fill="black"/>
<path d="M136.392 88.3075C137.95 87.791 138.47 88.3075 138.99 88.8239C139.509 89.3403 140.289 89.5985 140.289 90.6313C140.289 91.6642 139.769 91.9224 140.029 93.2134C140.289 94.5045 139.249 95.5373 138.73 95.7955C138.21 96.3119 136.392 88.3075 136.392 88.3075Z" fill="black"/>
<path d="M170.425 101.734C170.425 101.218 171.464 100.96 172.503 101.218C173.542 101.476 174.322 101.993 174.322 102.509C174.322 103.025 173.283 103.284 172.243 103.025C170.944 102.509 170.165 101.993 170.425 101.734Z" fill="black"/>
<path d="M174.062 102.251C174.062 103.025 174.062 103.025 173.542 103.284C173.283 103.542 173.283 104.058 172.763 104.058C172.243 104.058 172.243 103.284 171.464 103.025C170.944 102.509 170.425 102.509 170.425 101.993L174.062 102.251Z" fill="black"/>
</g>
<defs>
<clipPath id="clip0">
<rect width="252" height="173" fill="white"/>
</clipPath>
</defs>
</svg>
