<svg width="467" height="368" viewBox="0 0 467 368" fill="none" xmlns="http://www.w3.org/2000/svg">
<g clip-path="url(#clip0_54_310)">
<path d="M143.335 368C139.093 368.012 134.966 366.618 131.602 364.034C128.238 361.451 125.826 357.825 124.744 353.725C123.662 349.625 123.971 345.281 125.623 341.375C127.276 337.47 130.177 334.222 133.874 332.141L169.209 312.15C177.526 307.458 184.875 301.229 190.867 293.795C161.563 276.515 139.748 252.266 128.582 224.319C127.153 242.408 118.969 259.297 105.656 271.633C92.3439 283.969 74.8767 290.848 56.7242 290.904H19.1696C15.6243 290.897 12.1503 289.908 9.13274 288.048C6.11522 286.187 3.67218 283.528 2.0746 280.364C0.477029 277.201 -0.212652 273.656 0.0820568 270.125C0.376765 266.593 1.64435 263.212 3.74421 260.357L27.3756 228.33C25.4373 221.726 24.8533 214.798 25.6585 207.962C26.4637 201.126 28.6415 194.524 32.0615 188.55C33.4946 186.01 35.129 183.589 36.9492 181.311C35.1216 179.038 33.4867 176.616 32.0615 174.072C28.6397 168.094 26.4609 161.488 25.6557 154.648C24.8504 147.808 25.4355 140.877 27.3756 134.268L3.74421 102.265C1.64435 99.4092 0.376765 96.0281 0.0820568 92.4965C-0.212652 88.9649 0.477029 85.4207 2.0746 82.257C3.67218 79.0933 6.11522 76.4338 9.13274 74.5734C12.1503 72.713 15.6243 71.7245 19.1696 71.7174H56.7242C74.8786 71.7163 92.3669 78.5522 105.705 90.8631C119.043 103.174 127.251 120.056 128.695 138.146C137.842 115.286 154.052 94.9583 175.957 78.7547L129.771 32.7211C127.093 30.0479 125.266 26.6421 124.521 22.933C123.776 19.2238 124.147 15.3772 125.585 11.878C127.024 8.37886 129.466 5.38364 132.605 3.26985C135.744 1.15607 139.439 0.0183187 143.223 -9.7044e-06H244.677C260.137 -0.0105775 275.334 4.00335 288.771 11.6467C302.208 19.29 313.423 30.2992 321.31 43.5907C404.984 54.3483 467.022 112.417 467.022 181.311C467.022 249.621 406.733 306.816 324.674 318.582C317.272 333.425 305.878 345.912 291.771 354.641C277.664 363.37 261.402 367.996 244.811 368H143.335Z" fill="white"/>
<path d="M447.831 181.288C447.831 119.589 388.281 68.7143 311.558 61.789L311.177 67.0334C306.549 53.0843 297.646 40.9452 285.731 32.3369C273.815 23.7285 259.491 19.0877 244.789 19.0724H143.336L205.575 81.3096L207.481 81.4441C174.635 98.7235 150.757 125.55 142.461 156.882L143.044 157.823H123.673C121.828 157.832 119.999 157.477 118.291 156.779C116.584 156.081 115.03 155.053 113.721 153.754C112.411 152.455 111.37 150.91 110.658 149.209C109.946 147.508 109.576 145.683 109.57 143.838C109.582 129.804 104.025 116.338 94.1187 106.393C84.2121 96.4486 70.7643 90.8372 56.7245 90.7898H19.1699L49.3257 131.714C46.3128 136.662 44.672 142.322 44.5716 148.114C44.4712 153.906 45.915 159.62 48.7546 164.669C51.5942 169.719 55.7273 173.921 60.7293 176.846C65.7314 179.771 71.4221 181.312 77.217 181.311C71.4221 181.31 65.7314 182.85 60.7293 185.775C55.7273 188.7 51.5942 192.903 48.7546 197.952C45.915 203.001 44.4712 208.716 44.5716 214.507C44.672 220.299 46.3128 225.96 49.3257 230.908L19.1699 271.742H56.7245C70.7876 271.742 84.2747 266.157 94.2188 256.217C104.163 246.277 109.749 232.796 109.749 218.738C109.749 214.999 111.235 211.414 113.88 208.77C116.525 206.126 120.112 204.641 123.852 204.641L142.641 205.627C151.609 240.209 179.859 269.389 218.086 286.309C209.757 304.266 196.003 319.16 178.76 328.892L143.448 348.883H244.901C259.482 348.882 273.699 344.332 285.568 335.867C297.437 327.401 306.366 315.443 311.109 301.661L309.518 301.056C387.16 294.736 447.831 243.593 447.831 181.288Z" fill="white"/>
<path d="M151.564 181.557H116.498C115.077 181.508 113.679 181.179 112.385 180.589C111.091 179.998 109.926 179.159 108.958 178.118C107.989 177.077 107.236 175.855 106.741 174.522C106.246 173.189 106.018 171.772 106.072 170.351C106.072 147.11 88.5394 128.262 66.9035 128.262H39.2588L61.5225 160.692C51.7471 177.971 63.3162 200.069 82.1271 200.069C63.3162 200.069 51.7471 222.167 61.5225 239.424L39.2588 271.854H66.9035C88.5394 271.854 109.211 245.453 108.673 231.087C108.27 220.778 110.736 205.448 116.498 205.448H155.106" fill="#5EBAD6"/>
<path d="M293.599 96.7737C302.971 91.6414 299.451 57.217 262.815 40.7444C240.036 31.1971 158.514 36.2621 158.514 36.2621L205.598 78.553C205.598 78.553 142.551 116.653 142.551 195.452" fill="#5EBAD6"/>
<path d="M283.868 285.996C291.11 289.963 288.353 316.588 260.08 329.362C242.457 336.736 186.966 333.262 186.966 333.262C196.434 324.816 205.075 315.488 212.772 305.404C214.233 303.363 215.257 301.042 215.781 298.588C216.305 296.134 216.318 293.598 215.82 291.138C215.322 288.679 214.322 286.348 212.884 284.291C211.445 282.234 209.599 280.495 207.459 279.182C188.199 267.461 167.102 259.303 167.102 209.818" fill="#5EBAD6"/>
<path d="M285.258 294.31C364.086 294.31 427.988 248.766 427.988 192.584C427.988 136.402 364.086 90.857 285.258 90.857C206.431 90.857 142.528 136.402 142.528 192.584C142.528 248.766 206.431 294.31 285.258 294.31Z" fill="#5EBAD6"/>
<path d="M147.169 160.557C157.685 121.583 191.159 93.8826 227.727 79.8753C233.489 77.6341 230.978 68.3333 225.171 70.552C185.419 85.7472 149.277 115.577 137.865 157.958C136.228 163.964 145.555 166.541 147.169 160.535V160.557Z" fill="#1F140F"/>
<path d="M220.395 284.315C186.764 269.433 156.967 243.077 147.147 206.636C145.533 200.629 136.206 203.184 137.842 209.213C148.268 247.918 179.746 276.784 215.53 292.674C221.157 295.162 226.09 286.847 220.395 284.315Z" fill="#1F140F"/>
<path d="M311.558 68.916C362.856 73.7121 419.603 101.48 437.697 153.005C445.577 175.376 444.525 199.924 434.759 221.54C424.468 243.951 406.375 262.06 385.322 274.723C357.767 291.33 325.616 298.994 293.599 299.084C287.388 299.084 287.366 308.766 293.599 308.766C349.651 308.564 411.711 284.561 439.759 233.082C452.202 210.535 455.722 184.141 449.624 159.123C443.145 133.215 426.419 110.96 405.523 94.667C378.618 73.7121 345.368 62.4166 311.558 59.2341C305.37 58.6738 305.415 68.3333 311.558 68.916Z" fill="#1F140F"/>
<path d="M355.569 169.007C363.135 169.007 369.268 161.17 369.268 151.503C369.268 141.836 363.135 134 355.569 134C348.003 134 341.87 141.836 341.87 151.503C341.87 161.17 348.003 169.007 355.569 169.007Z" fill="#1F140F"/>
<path d="M438.795 187.877C423.253 195.842 406.038 199.996 388.573 199.996C371.108 199.996 353.893 195.842 338.351 187.877C332.118 184.628 326.557 194.063 332.835 197.313C350.072 206.204 369.187 210.844 388.584 210.844C407.981 210.844 427.096 206.204 444.333 197.313C450.589 194.063 445.051 184.628 438.795 187.877Z" fill="#1F140F"/>
<path d="M320.257 91.4397C320.257 49.866 285.617 16.1813 244.363 15.9796C220.014 15.8675 195.688 15.9796 171.361 15.9796H143.335C142.264 16.0061 141.224 16.3426 140.34 16.9484C139.457 17.5541 138.768 18.403 138.357 19.3923C137.947 20.3815 137.832 21.4685 138.027 22.5216C138.222 23.5747 138.719 24.5486 139.457 25.3252L193.871 79.7184L201.719 87.5625C206.696 92.5379 214.454 84.8059 209.454 79.8305L155.039 25.4149L147.192 17.5932L143.335 26.9165H241.157C254.788 26.9165 267.68 29.561 279.272 36.9569C288.421 42.8137 295.956 50.8688 301.188 60.3861C306.421 69.9035 309.184 80.5799 309.226 91.4397C309.226 98.477 320.167 98.4994 320.167 91.4397H320.257Z" fill="#1F140F"/>
<path d="M305.728 302.468C302.598 311.328 297.584 319.404 291.031 326.141C284.478 332.877 276.542 338.112 267.77 341.487C257.905 345.163 247.972 345.678 237.636 345.678H143.335L146.093 355.853L175.554 339.156C190.8 330.505 204.162 320.241 214.319 305.718C221.492 295.427 226.643 283.866 229.498 271.652C231.112 264.929 220.529 261.881 218.96 268.761C214.115 289.577 201.999 307.983 184.791 320.667C174.971 327.771 163.738 333.262 153.2 339.223L140.51 346.418C139.501 347.043 138.721 347.976 138.286 349.079C137.85 350.183 137.782 351.397 138.092 352.542C138.401 353.688 139.072 354.702 140.005 355.436C140.937 356.17 142.081 356.583 143.268 356.615H237.569C248.645 356.615 259.496 356.055 270.057 352.133C280.743 348.232 290.428 342.006 298.412 333.905C306.396 325.804 312.479 316.031 316.221 305.292C318.463 298.569 307.992 295.767 305.661 302.379L305.728 302.468Z" fill="#1F140F"/>
<path d="M271.2 83.6853V281.065C271.2 288.102 282.141 288.125 282.141 281.065V83.6853C282.141 76.648 271.2 76.648 271.2 83.6853Z" fill="#1F140F"/>
<path d="M154.904 154.73H127.865C123.672 154.73 119.457 155.022 116.654 151.1C114.637 148.231 115.175 144.847 114.883 141.552C114.576 137.361 113.825 133.214 112.641 129.181C110.305 121.529 106.429 114.435 101.251 108.334C96.0729 102.233 89.7023 97.2544 82.5301 93.7033C71.7682 88.4814 60.7372 87.6521 49.0561 87.6521H19.1693C15.3578 87.6521 11.905 92.4482 14.4386 95.8996C24.5129 109.511 34.5648 123.122 44.5943 136.734V131.265C41.3157 137.068 39.4206 143.549 39.0564 150.203C38.9733 155.265 39.8968 160.294 41.7733 164.996C43.6498 169.699 46.4421 173.982 49.9879 177.598C53.5338 181.213 57.7626 184.088 62.4291 186.057C67.0955 188.025 72.1066 189.048 77.1716 189.065V178.195C71.8805 178.176 66.6434 179.258 61.7936 181.373C56.9438 183.487 52.5876 186.588 49.0022 190.478C45.4169 194.367 42.681 198.961 40.9687 203.965C39.2563 208.969 38.6051 214.275 39.0564 219.545C39.5721 224.924 41.9935 238.729 49.1682 238.729L44.4374 230.504C34.3929 244.101 24.341 257.712 14.2816 271.338C11.7481 274.79 15.2009 279.563 19.0124 279.563H50.3116C65.042 279.563 79.0549 277.322 91.2069 268.223C98.7965 262.664 104.946 255.372 109.143 246.954C111.294 242.598 112.89 237.991 113.897 233.238C114.793 228.756 114.614 224.408 115.219 220.016C116.004 214.166 121.071 212.485 126.093 212.485H176.092C183.132 212.485 183.154 201.548 176.092 201.548H129.008C124.539 201.17 120.041 201.767 115.825 203.296C111.454 205.237 107.956 208.726 106.005 213.09C104.099 217.393 104.458 221.696 104.009 226.246C103.048 235.205 99.5479 243.704 93.9198 250.742C83.9426 263.158 69.5261 268.671 53.9213 268.671H19.1693C20.7388 271.428 22.3082 274.162 23.9001 276.896L54.0559 236.062C56.5894 232.611 53.1366 227.837 49.3251 227.837L54.0559 230.549C51.609 226.419 50.2902 221.718 50.2315 216.918C50.1728 212.118 51.3761 207.387 53.7212 203.198C56.0663 199.009 59.4708 195.509 63.5941 193.049C67.7173 190.588 72.4148 189.253 77.2164 189.177C84.2565 189.177 84.2789 178.352 77.2164 178.24C72.3011 178.22 67.4818 176.878 63.2646 174.354C59.0473 171.83 55.5876 168.218 53.2487 163.897C48.361 154.932 49.639 145.676 54.0559 137.003C54.54 136.165 54.7948 135.214 54.7948 134.246C54.7948 133.278 54.54 132.328 54.0559 131.489L23.9001 90.4088L19.1693 98.6563H45.5136C55.8047 98.6563 65.8716 98.2753 75.5797 102.489C82.6271 105.593 88.8273 110.341 93.6607 116.335C98.494 122.328 101.82 129.392 103.359 136.935C104.996 144.914 103.359 152.624 109.256 159.213C111.326 161.411 113.85 163.131 116.654 164.254C119.458 165.376 122.472 165.874 125.488 165.712H154.994C162.034 165.712 162.034 154.753 154.994 154.775L154.904 154.73Z" fill="#1F140F"/>
<path d="M358.125 180.638C367.228 147.424 396.24 149.262 396.24 123.399C396.24 114.434 389.895 109.481 382.788 106.635C380.334 105.698 377.714 105.277 375.091 105.399C372.467 105.52 369.897 106.181 367.54 107.339C365.184 108.498 363.092 110.13 361.394 112.134C359.697 114.137 358.432 116.469 357.677 118.984C356.926 116.459 355.66 114.118 353.959 112.106C352.258 110.095 350.158 108.458 347.793 107.298C345.427 106.138 342.847 105.48 340.215 105.366C337.583 105.252 334.955 105.684 332.498 106.635C325.301 109.481 319.046 114.524 319.046 123.399C319.046 149.352 348.193 147.424 357.161 180.638C357.363 182.117 357.923 182.117 358.125 180.638Z" fill="white"/>
<path d="M358.036 183.081C365.659 155.335 389.963 156.949 389.963 135.255C389.963 127.836 384.671 123.623 378.752 121.247C376.704 120.464 374.516 120.112 372.326 120.213C370.136 120.314 367.989 120.865 366.022 121.833C364.054 122.801 362.308 124.164 360.891 125.837C359.474 127.51 358.418 129.457 357.789 131.557C357.162 129.455 356.108 127.506 354.692 125.831C353.276 124.156 351.529 122.792 349.561 121.824C347.592 120.856 345.445 120.305 343.253 120.205C341.062 120.106 338.873 120.461 336.826 121.247C330.817 123.623 325.615 127.836 325.615 135.255C325.615 156.949 349.942 155.425 357.542 183.081C357.408 184.314 357.879 184.314 358.036 183.081Z" fill="#E4003F"/>
<path d="M361.981 181.692C364.586 172.464 369.756 164.164 376.891 157.756C382.272 152.825 388.527 148.791 393.213 143.099C395.842 140.037 397.812 136.467 399 132.611C400.188 128.755 400.569 124.696 400.119 120.687C398.773 110.579 389.155 103.183 379.424 101.749C373.92 100.989 368.325 102.208 363.635 105.188C358.946 108.168 355.468 112.715 353.82 118.02L357.676 115.062L361.555 118.02C360.094 113.289 357.173 109.141 353.21 106.17C349.247 103.199 344.446 101.558 339.493 101.48C329.606 101.48 318.418 108.204 315.727 118.065C314.777 122.279 314.797 126.654 315.788 130.859C316.778 135.064 318.713 138.989 321.445 142.337C326.063 148.141 332.319 152.31 337.812 157.24C341.593 160.558 344.898 164.382 347.632 168.603C349.162 171.042 350.468 173.615 351.533 176.29C352.542 178.913 352.834 182.566 354.807 184.628C355.562 185.373 356.581 185.792 357.643 185.792C358.705 185.792 359.724 185.373 360.479 184.628C361.257 183.835 361.781 182.828 361.981 181.736C363.192 176.716 355.434 174.565 354.246 179.495L354.807 178.823H360.479C361.712 180.1 360.636 178.038 360.479 177.232C360.322 176.425 359.761 175.103 359.358 174.049C358.554 171.931 357.633 169.858 356.6 167.841C354.693 164.236 352.392 160.854 349.739 157.756C345.211 152.873 340.284 148.375 335.009 144.309C330.525 140.633 326.041 136.599 324.27 131.064C321.534 123.04 323.642 115.689 331.31 111.633C339.83 107.15 350.86 110.333 353.73 120.059C353.982 120.897 354.493 121.632 355.191 122.16C355.888 122.688 356.735 122.98 357.609 122.995C358.511 123.018 359.395 122.742 360.125 122.211C360.855 121.681 361.389 120.924 361.645 120.059C362.86 116.29 365.489 113.138 368.98 111.266C372.471 109.394 376.552 108.947 380.366 110.019C388.931 112.574 393.819 119.275 391.98 128.15C389.559 140.521 376.084 146.841 368.035 155.268C361.535 162.113 356.829 170.459 354.336 179.562C352.834 184.538 360.569 186.667 361.981 181.692Z" fill="#1F140F"/>
</g>
<defs>
<clipPath id="clip0_54_310">
<rect width="467" height="368" fill="white"/>
</clipPath>
</defs>
</svg>
