<svg width="277" height="264" viewBox="0 0 277 264" fill="none" xmlns="http://www.w3.org/2000/svg">
<path d="M268.798 136.044C268.798 204.057 211.696 259.426 140.965 259.426C70.2346 259.426 13.1326 204.057 13.1326 136.044C13.1326 68.0299 70.2346 12.6615 140.965 12.6615C211.696 12.6615 268.798 68.0299 268.798 136.044Z" fill="#249CD0" stroke="black" stroke-width="8"/>
<g clip-path="url(#clip0)">
<path d="M189.853 231.55C187.177 231.55 184.501 230.374 182.661 228.19C180.821 226.007 180.152 223.319 180.487 220.631L181.323 214.92C181.658 213.073 182.661 206.522 184.835 197.955C185.003 196.947 185.337 193.587 187.177 189.388C188.18 185.861 189.184 182.501 190.355 179.142C183.163 184.013 175.135 187.876 166.605 190.564C165.435 197.115 161.755 202.994 156.069 206.689L151.553 209.713C147.539 212.401 142.856 213.912 138.006 213.912C133.156 213.912 128.305 212.401 124.291 209.713L119.608 206.522C114.256 202.826 110.577 197.115 109.406 190.564C101.211 187.876 93.3504 184.181 86.3259 179.309C87.4967 182.501 88.5002 185.861 89.5037 189.22C91.1761 193.419 91.6779 196.947 91.8451 197.787C94.0194 206.354 95.0229 212.905 95.3574 214.752L96.1936 220.463C96.6954 223.151 95.8591 226.007 94.0194 228.022C92.1796 230.206 89.6709 231.382 86.8277 231.382C85.9914 231.382 85.3224 231.214 84.4862 231.046L78.967 229.702C27.4544 216.768 9.39157 181.997 3.20338 154.953C-3.15207 126.733 2.36713 101.705 2.70163 100.697L3.87237 95.4897L8.22083 92.4661C20.9317 84.0674 33.8099 79.868 46.3535 79.868C50.8692 79.868 55.2177 80.3719 59.3989 81.3798C62.4094 75.5006 66.2561 69.9574 70.7718 64.9181C80.305 54.3357 93.1831 45.9369 107.399 40.8976C107.399 40.0578 107.399 39.3859 107.399 38.546C108.737 16.7092 122.284 0.0795898 139.009 0.0795898C139.511 0.0795898 140.013 0.0795898 140.347 0.0795898C148.877 0.583516 156.738 5.45481 161.922 13.5176C166.605 13.8536 170.786 15.7013 174.131 18.7249C180.989 24.772 182.661 34.5146 179.316 45.265C190.187 50.6402 199.72 58.0312 207.247 66.7659C211.093 71.3012 214.438 76.1725 217.114 81.3798C221.463 80.2039 225.811 79.7 230.494 79.7C243.038 79.7 255.916 83.8994 268.627 92.2982L273.143 95.1537L274.313 100.361C274.481 101.369 280 126.397 273.644 154.617C267.623 181.661 249.561 216.432 197.881 229.534L192.362 230.878C191.358 231.382 190.522 231.55 189.853 231.55Z" fill="black"/>
<path d="M269.297 101.705L268.628 98.5133L265.785 96.6656C242.872 81.5478 224.475 84.0674 214.44 87.5949C211.764 81.3798 208.084 75.6686 203.401 70.1254C195.373 60.5508 185.004 52.9919 172.962 47.9527C177.645 37.5382 176.976 27.9636 170.788 22.4204C167.945 19.7328 164.098 18.389 159.917 18.389C159.582 18.389 159.415 18.389 159.08 18.389C154.732 10.3261 147.875 5.45485 140.014 4.95093C139.68 4.95093 139.178 4.95093 138.843 4.95093C124.794 4.95093 113.254 19.5648 112.251 38.882C112.084 40.7297 112.084 42.5774 112.251 44.4252C97.5329 48.7925 84.1531 57.1913 74.2854 68.1097C69.1007 73.9889 64.9195 80.3719 61.7417 87.2589C51.5396 83.7314 33.4767 81.5478 10.7309 96.4976L7.8877 98.3453L7.21871 101.537C7.05146 102.545 1.6995 126.565 7.8877 153.609C13.7414 179.142 30.8008 212.401 79.9718 224.831L85.4911 226.175C88.6688 227.015 91.512 224.327 91.0103 221.135L90.174 215.424C89.8395 213.409 88.836 206.857 86.6618 198.291C86.6618 197.955 86.3273 194.763 84.6548 190.732C82.1461 181.661 78.4666 171.247 73.6164 161.672C83.9858 173.43 98.2019 182.165 113.923 186.532C114.091 192.748 117.268 198.627 122.286 202.154L126.969 205.346C130.146 207.529 133.993 208.705 137.84 208.705C141.687 208.705 145.366 207.529 148.544 205.346L153.059 202.322C158.411 198.795 161.589 192.748 161.589 186.364C177.143 182.165 191.025 173.598 201.394 162.176C201.729 161.84 201.896 161.672 202.063 161.336C202.231 161.336 202.231 161.336 202.398 161.504C197.548 171.247 194.035 181.493 191.359 190.564C189.687 194.595 189.352 197.787 189.352 198.123C187.178 206.69 186.175 213.241 185.84 215.256L185.004 220.967C184.502 224.159 187.345 226.847 190.523 226.007L196.042 224.663C245.213 212.233 262.44 179.142 268.127 153.441C274.649 126.733 269.465 102.713 269.297 101.705Z" fill="white"/>
<path d="M12.5707 129.253C12.7379 145.882 16.4174 162.848 24.9471 177.294C36.8217 197.451 57.0588 209.545 79.3029 215.256C80.6409 215.592 81.6443 214.416 81.4771 213.073C81.1426 210.385 80.4736 207.865 79.9719 205.178C77.2959 192.916 73.7837 180.653 68.7662 169.063C66.9265 164.696 64.7522 160.328 62.0763 156.129C69.1007 156.969 76.6269 153.441 81.6444 148.402C81.9789 148.066 82.3133 147.226 82.1461 146.722C81.9789 146.218 81.8116 145.882 81.6444 145.379C76.4596 130.597 71.4422 115.815 66.2575 101.033C65.7557 99.6892 64.9195 99.0173 63.5815 98.3454C60.571 96.6656 57.2261 95.4898 53.8811 94.8179C48.1946 93.642 42.3409 93.81 36.8217 94.9858C33.1423 95.6577 29.4628 97.0015 26.1178 98.5133C23.9436 99.3532 21.9366 100.529 19.9296 101.537C18.9261 102.209 17.9226 102.713 16.9191 103.385C16.0829 103.889 15.2467 104.224 14.9122 105.232C13.9087 107.584 13.9087 110.272 13.5742 112.455C12.9052 117.998 12.5707 123.71 12.5707 129.253Z" fill="white"/>
<path d="M77.2958 210.721C82.6478 212.065 71.7766 173.598 61.5744 156.633C70.7731 157.809 80.4735 150.082 79.8045 148.066C74.4526 132.444 75.2888 111.447 63.7487 105.232C45.8531 97.8413 36.6544 100.361 28.6265 104.056C16.4173 109.432 18.0898 110.44 17.2536 116.655C11.5671 162.176 31.4697 198.963 77.2958 210.721Z" fill="#F8BE3F"/>
<path d="M66.7592 98.0094C63.5815 95.6578 59.4003 94.3139 55.5535 93.4741C45.6859 91.2904 35.3165 92.9701 26.1178 96.8336C22.7728 98.1774 19.7623 99.8571 16.5846 101.705C15.4139 102.377 14.0759 102.881 13.5741 104.225C13.5741 104.728 13.5741 105.4 13.4069 105.904C12.9051 108.928 12.4034 111.951 12.2362 115.143C11.0654 126.061 11.3999 137.148 13.2396 148.066C15.5811 162.176 20.9331 175.95 29.63 187.372C40.6684 201.986 56.3898 211.897 73.7836 217.608C76.4596 218.448 79.1356 219.288 81.8116 219.96C83.3168 220.296 84.3203 219.12 83.9858 217.776C82.815 209.881 80.8081 202.154 78.8011 194.595C74.7871 180.485 69.6024 166.207 61.0727 154.113C56.7243 147.898 51.3723 142.187 44.5151 138.995C42.3409 137.988 40.5012 141.179 42.6754 142.187C55.0518 148.066 62.4107 161.672 67.7627 173.766C72.7801 185.525 76.4596 198.123 79.1356 210.721C79.6373 213.409 80.3063 216.096 80.6408 218.784C81.3098 218.112 82.1461 217.272 82.8151 216.6C68.5989 212.905 54.7173 206.858 43.5116 197.115C34.6475 189.388 27.7903 179.814 23.1073 169.063C16.0829 152.601 14.2431 134.124 15.7484 116.319C16.0829 112.455 16.4174 109.264 17.2536 105.4C16.9191 105.568 16.7519 105.904 16.4174 106.24C26.954 99.3532 39.3304 94.6499 52.0413 96.4976C56.3898 97.1695 61.4072 98.5133 65.0867 101.201C66.9264 102.545 68.7662 99.3532 66.7592 98.0094Z" fill="black"/>
<path d="M81.6442 215.928C81.6442 213.913 81.1425 211.729 80.4735 209.881C78.801 205.178 75.7906 201.314 71.9438 198.459C68.9334 196.107 65.4211 194.427 61.7417 193.252C59.5674 192.58 58.5639 196.107 60.7382 196.779C65.9229 198.459 71.1076 201.314 74.2853 205.682C74.9543 206.522 75.456 207.361 75.9578 208.369C76.125 208.705 76.2923 209.209 76.6268 209.545C76.6268 209.545 76.6268 209.713 76.794 209.713C76.9613 210.049 76.6268 209.545 76.794 209.713C76.9613 209.881 76.9613 210.217 77.1285 210.385C77.6303 211.729 77.9648 213.073 78.132 214.416C78.132 214.752 78.132 214.584 78.132 214.416C78.132 214.584 78.132 214.584 78.132 214.752C78.132 214.92 78.132 215.088 78.132 215.256C78.132 215.424 78.132 215.592 78.132 215.76C78.132 218.28 81.6442 218.28 81.6442 215.928Z" fill="black"/>
<path d="M80.4736 200.307C79.9719 193.42 74.9544 187.204 69.4352 183.677C66.2575 181.661 62.4108 180.317 58.7313 179.478C56.3898 178.974 55.5536 182.501 57.7278 183.005C63.247 184.181 68.4317 186.533 72.1112 190.9C73.2819 192.244 74.2854 193.756 75.1217 195.435C75.2889 195.603 75.2889 195.771 75.2889 195.939C75.2889 196.107 75.6234 196.611 75.4562 196.107C75.6234 196.443 75.7907 196.779 75.7907 197.115C75.9579 197.619 76.1252 198.291 76.2924 198.795C76.4597 199.299 76.4597 199.635 76.6269 200.139C76.7942 200.642 76.6269 199.635 76.6269 200.139C76.6269 201.146 77.4632 201.986 78.4666 201.986C79.6374 202.154 80.6409 201.314 80.4736 200.307Z" fill="black"/>
<path d="M81.6444 146.89C79.8046 148.906 77.6304 150.25 75.1217 151.594C70.606 153.945 65.254 155.121 60.2365 152.937C59.4003 152.601 58.2296 152.601 57.7278 153.609C57.2261 154.449 57.5606 155.793 58.3968 156.129C64.2505 158.649 70.4387 157.977 76.1252 155.121C78.9684 153.609 81.8116 151.762 84.1531 149.41C85.8256 147.898 83.1496 145.211 81.6444 146.89Z" fill="black"/>
<path d="M263.109 112.455C262.774 110.272 262.774 107.584 261.938 105.4C261.604 104.56 260.768 104.057 259.931 103.553C258.928 102.881 257.924 102.209 256.921 101.705C254.914 100.529 252.907 99.5212 250.733 98.6813C247.22 97.1695 243.708 95.9937 240.029 95.1538C234.342 93.978 228.489 93.81 222.969 94.9858C219.624 95.6577 216.279 96.8336 213.269 98.5133C211.931 99.1852 211.095 99.8571 210.593 101.201C205.408 115.983 200.391 130.765 195.206 145.546C195.039 146.05 194.872 146.386 194.704 146.89C194.537 147.394 194.704 148.234 195.206 148.57C200.224 153.609 207.582 157.137 214.774 156.297C212.265 160.496 210.091 165.032 208.084 169.231C203.067 180.821 199.387 192.916 196.879 205.346C196.377 208.033 195.708 210.553 195.373 213.241C195.206 214.584 196.042 215.76 197.548 215.424C219.624 209.713 240.029 197.619 251.903 177.462C260.433 163.016 264.112 146.05 264.28 129.421C264.112 123.71 263.778 117.998 263.109 112.455Z" fill="white"/>
<path d="M259.43 116.655C258.593 110.608 260.266 109.432 248.057 104.057C239.861 100.529 230.83 97.8414 212.934 105.232C201.227 111.279 202.231 132.444 196.879 148.066C196.21 150.082 205.91 157.809 215.109 156.633C204.739 173.598 194.035 212.065 199.387 210.721C245.213 198.963 265.116 162.176 259.43 116.655Z" fill="#F8BE3F"/>
<path d="M151.22 62.3986C153.06 60.8868 154.732 59.0391 156.572 56.8554C163.429 48.1207 166.105 37.8742 162.425 34.0107C160.586 31.995 155.401 33.5068 152.056 38.882C152.725 27.7956 147.875 20.9086 143.025 20.5727C135.833 20.2367 128.976 30.3153 128.976 43.0814C128.976 69.1176 151.22 62.3986 151.22 62.3986Z" fill="#E34B5C"/>
<path d="M138.174 179.646C173.921 179.646 202.9 154.527 202.9 123.542C202.9 92.5564 173.921 67.4379 138.174 67.4379C102.428 67.4379 73.4491 92.5564 73.4491 123.542C73.4491 154.527 102.428 179.646 138.174 179.646Z" fill="#F8BE3F"/>
<path d="M129.979 163.016L127.47 181.493C127.303 183.173 127.972 184.853 129.477 185.861L135.666 189.892C137.171 190.9 139.178 190.9 140.683 189.892L146.704 185.861C148.209 184.853 148.878 183.173 148.711 181.493L146.369 163.352L138.174 172.087L129.979 163.016Z" fill="#E34B5C"/>
<path d="M157.575 140.843C157.575 149.746 138.007 166.711 138.007 166.711C138.007 166.711 118.439 149.914 118.439 140.843C118.439 131.772 127.136 124.717 138.007 124.717C148.878 124.717 157.575 131.94 157.575 140.843Z" fill="white"/>
<path d="M147.54 44.4252C147.54 44.0892 147.54 43.9212 147.54 43.5853C147.54 43.0814 147.373 44.0892 147.54 43.7533C147.54 43.5853 147.54 43.4173 147.54 43.2493C147.708 42.5774 147.875 42.0735 148.042 41.5696C148.042 41.4016 148.209 41.4016 148.209 41.2336C148.377 40.5617 148.042 41.5696 148.209 41.2336C148.377 40.8977 148.544 40.5617 148.711 40.3937C149.046 39.7218 149.38 39.2179 149.715 38.546C150.049 38.0421 150.551 37.3702 150.885 36.8663C151.387 36.3623 150.718 37.0342 150.885 36.8663C151.053 36.6983 151.053 36.5303 151.22 36.3623C151.387 36.0264 151.722 35.8584 151.889 35.5225C152.892 34.3466 153.896 33.3388 155.067 32.4989C156.07 31.659 156.07 29.6433 155.067 28.8034C153.896 27.7956 152.391 27.7956 151.387 28.8034C148.878 30.8191 146.704 33.5067 144.864 36.1944C143.359 38.714 142.021 41.5696 142.021 44.5931C142.021 45.9369 143.192 47.2807 144.697 47.2807C146.37 47.1128 147.54 45.9369 147.54 44.4252Z" fill="black"/>
<path d="M146.37 160.16C147.206 165.367 147.875 170.407 148.711 175.614C149.213 178.638 149.715 181.829 150.049 184.853C150.551 187.708 150.551 190.396 148.544 192.748C147.54 193.923 146.202 194.763 144.864 195.603C143.526 196.611 142.021 197.619 140.516 198.123C136.335 199.467 133.157 196.611 129.812 194.427C126.969 192.412 125.463 189.556 125.965 186.028C126.3 183.509 126.801 180.989 127.136 178.47C128.139 172.422 128.976 166.207 129.979 160.16C130.481 157.305 126.132 156.129 125.631 158.984C124.795 164.864 123.791 170.911 122.955 176.79C122.62 179.477 122.119 182.165 121.784 185.021C121.115 189.892 122.453 194.427 126.467 197.451C129.31 199.635 132.655 202.154 136.167 202.826C141.185 203.666 144.864 201.146 148.711 198.459C153.06 195.435 155.401 191.068 154.732 185.693C154.398 183.677 154.063 181.493 153.729 179.477C152.725 172.758 151.722 165.871 150.718 159.152C150.216 156.129 145.868 157.305 146.37 160.16Z" fill="black"/>
<path d="M160.418 137.148C160.418 140.171 158.244 143.531 156.572 146.218C154.23 149.914 151.22 153.273 148.377 156.465C144.53 160.496 140.683 164.528 136.502 168.055C137.673 168.055 139.011 168.055 140.181 168.055C132.321 161.336 124.46 153.609 119.108 144.707C117.77 142.523 116.432 139.835 116.265 137.652C115.93 134.124 117.436 130.429 119.443 127.741C124.627 120.854 134.328 118.166 142.69 119.51C151.387 121.022 160.251 127.405 160.418 137.148C160.418 140.507 165.77 140.507 165.603 137.148C165.436 127.237 158.411 119.51 149.547 116.151C140.014 112.455 128.307 113.631 120.112 119.678C113.589 124.549 108.739 133.284 111.415 141.515C113.756 148.738 119.275 154.785 124.293 160.328C128.139 164.36 131.986 168.391 136.167 171.919C137.338 172.926 138.676 172.926 139.847 171.919C144.363 168.055 148.711 163.688 152.725 159.152C155.903 155.625 158.913 151.929 161.422 148.066C163.429 144.875 165.436 141.179 165.436 137.148C165.603 133.788 160.418 133.788 160.418 137.148Z" fill="black"/>
<path d="M117.268 108.592C117.268 113.295 114.76 117.159 111.582 117.159C108.404 117.159 105.895 113.295 105.895 108.592C105.895 103.888 108.404 100.025 111.582 100.025C114.592 100.025 117.268 103.888 117.268 108.592Z" fill="black"/>
<path d="M170.621 108.592C170.621 113.295 168.112 117.159 164.934 117.159C161.757 117.159 159.248 113.295 159.248 108.592C159.248 103.888 161.757 100.025 164.934 100.025C167.945 100.025 170.621 103.888 170.621 108.592Z" fill="black"/>
<path d="M157.241 99.5211C158.746 94.8178 163.429 91.9622 168.279 92.6341C168.948 92.6341 169.617 91.9622 169.617 91.2903C169.617 90.4504 168.948 90.1145 168.279 89.9465C162.258 89.2746 156.572 93.138 154.732 98.8492C154.063 100.361 156.739 101.033 157.241 99.5211Z" fill="black"/>
<path d="M124.627 98.6812C122.788 92.9701 117.101 89.1066 111.08 89.7785C110.411 89.7785 109.742 90.2825 109.742 91.1223C109.742 91.7942 110.411 92.4661 111.08 92.4661C115.93 91.9622 120.613 94.6498 122.119 99.3531C122.62 101.033 125.296 100.361 124.627 98.6812Z" fill="black"/>
<path d="M151.721 64.7502C159.749 58.5351 167.777 49.2964 169.283 38.882C169.784 35.3545 169.45 31.491 166.941 28.9714C163.094 25.108 157.408 26.1158 152.892 27.9636C154.063 28.6355 155.066 29.1394 156.237 29.8113C154.732 24.2681 152.056 18.8929 147.373 15.5334C143.359 12.6778 138.342 12.1739 133.826 14.0216C123.122 18.5569 119.275 32.6669 119.275 43.2493C119.275 50.3043 120.948 57.5272 125.129 63.2384C127.136 65.926 131.819 63.2384 129.645 60.5508C122.119 50.4723 122.62 33.8427 129.979 23.7642C132.488 20.2367 136.669 17.2131 141.185 18.3889C146.704 19.9007 149.547 26.1158 151.052 31.1551C151.387 32.4989 153.059 33.5067 154.397 33.0028C156.906 31.995 161.422 30.1472 163.429 32.8348C164.767 34.6826 164.265 37.7061 163.763 39.8898C161.589 47.7847 155.568 55.0076 149.213 60.0469C146.37 62.2306 148.878 66.7659 151.721 64.7502Z" fill="black"/>
<path d="M124.293 177.966C101.38 173.766 79.9719 158.985 71.6095 136.476C63.4143 114.303 69.937 89.9466 86.8291 73.8209C96.5295 64.4143 109.073 58.3672 122.286 55.5116C125.464 54.8397 124.126 49.9684 120.948 50.6403C96.3623 55.8475 74.1182 72.8131 65.923 97.1695C57.8951 121.022 66.0903 147.226 84.3204 163.856C95.0243 173.598 108.571 179.981 122.788 182.669C126.133 183.341 127.471 178.638 124.293 177.966Z" fill="black"/>
<path d="M155.066 182.501C178.816 177.63 200.224 161.84 209.255 138.827C218.286 116.151 212.098 90.2825 195.541 72.813C185.84 62.5665 173.297 55.5116 159.749 51.8161C156.572 50.9762 155.401 55.8475 158.411 56.6874C180.321 62.7345 199.722 78.6922 206.245 101.033C212.6 122.702 204.739 145.714 188.349 160.664C178.649 169.399 166.607 175.278 153.896 177.798C150.551 178.302 151.889 183.173 155.066 182.501Z" fill="black"/>
<path d="M211.764 101.201C215.443 98.5132 220.293 97.1694 224.809 96.4975C237.52 94.6498 249.896 99.5211 260.433 106.24C260.099 105.904 259.931 105.568 259.597 105.232C260.266 108.424 260.6 111.111 260.935 113.967C261.771 121.526 261.938 129.085 261.269 136.644C259.764 157.809 252.071 178.806 236.684 193.755C224.976 205.178 209.757 212.233 194.035 216.264C194.704 216.936 195.541 217.776 196.21 218.448C197.38 211.057 199.22 203.666 201.227 196.443C205.074 182.669 210.091 168.727 218.119 156.801C222.3 150.754 227.485 145.042 234.175 141.851C236.349 140.843 234.51 137.652 232.335 138.659C219.457 144.706 211.597 158.648 206.245 171.247C200.893 183.341 197.213 196.275 194.37 209.209C193.868 211.897 193.199 214.752 192.865 217.44C192.697 218.784 193.701 220.128 195.039 219.624C213.269 214.92 230.83 206.186 243.374 191.74C253.074 180.653 259.43 167.047 262.44 152.769C264.949 141.515 265.618 129.757 264.782 118.166C264.447 114.639 264.113 110.943 263.611 107.416C263.444 106.576 263.276 105.568 263.109 104.728C262.775 103.049 261.437 102.545 260.099 101.705C245.882 92.97 225.98 87.9308 210.593 97.3374C210.426 97.5054 210.091 97.6733 209.924 97.8413C207.917 99.3531 209.757 102.545 211.764 101.201Z" fill="black"/>
<path d="M198.551 215.928C198.551 215.424 198.551 214.92 198.718 214.416C198.718 215.088 198.718 214.248 198.718 214.08C198.718 213.744 198.886 213.576 198.886 213.241C199.053 212.569 199.22 211.897 199.555 211.057C199.722 210.721 199.889 210.217 200.056 209.881C200.224 209.545 200.056 209.881 200.224 209.713C200.391 209.377 200.391 209.209 200.558 208.873C201.06 208.033 201.394 207.193 202.063 206.354C203.234 204.506 204.907 202.658 206.914 201.314C209.59 199.131 212.767 197.787 216.112 196.611C218.287 195.939 217.45 192.412 215.109 193.083C209.088 194.931 203.569 198.291 199.722 203.33C197.548 206.186 196.042 209.713 195.373 213.241C195.206 214.08 195.039 214.92 195.206 215.592C195.039 218.28 198.551 218.28 198.551 215.928Z" fill="black"/>
<path d="M199.722 200.306C199.889 199.803 199.722 200.81 199.722 200.306C199.722 199.97 199.889 199.635 199.889 199.299C200.056 198.795 200.224 198.123 200.391 197.619C200.558 197.283 200.558 196.947 200.725 196.779C200.725 196.611 200.893 196.443 200.893 196.275C201.06 195.939 200.893 196.275 200.893 196.275C200.893 196.107 201.06 195.939 201.06 195.939C202.732 192.076 205.408 189.052 208.921 186.868C211.931 185.021 215.276 183.677 218.788 183.005C221.13 182.501 220.126 178.974 217.785 179.477C211.764 180.821 205.91 183.509 201.729 188.212C199.22 191.068 197.38 194.259 196.544 197.955C196.377 198.795 196.21 199.467 196.042 200.306C196.042 202.658 199.555 202.658 199.722 200.306Z" fill="black"/>
<path d="M192.53 149.578C194.872 151.929 197.715 153.777 200.558 155.289C206.245 158.145 212.433 158.816 218.286 156.297C219.123 155.961 219.457 154.617 218.955 153.777C218.454 152.769 217.45 152.769 216.447 153.105C211.597 155.121 206.245 154.113 201.562 151.761C199.053 150.418 196.879 149.074 195.039 147.058C193.534 145.21 190.858 147.898 192.53 149.578Z" fill="black"/>
</g>
<defs>
<clipPath id="clip0">
<rect width="276.295" height="231.47" fill="white" transform="translate(0.194336 0.0795898)"/>
</clipPath>
</defs>
</svg>
