<svg width="498" height="372" viewBox="0 0 498 372" fill="none" xmlns="http://www.w3.org/2000/svg">
<g clip-path="url(#clip0_118_5040)">
<path d="M495.17 151.422C458.544 137.42 417.715 152.435 397.546 186.069C382.201 211.725 360.462 232.961 334.454 247.702C308.445 262.443 279.057 270.185 249.161 270.17C219.083 270.183 189.522 262.345 163.401 247.433C137.28 232.52 115.503 211.049 100.224 185.141C80.1474 151.208 39.1343 135.955 2.30847 150.05L0.0078125 150.932C24.7092 265.875 126.851 352.046 249.184 352.046C370.958 352.046 472.716 266.657 498.008 152.504L495.17 151.422Z" fill="#009982"/>
<path d="M429.441 185.195C399.701 171.507 364.332 177.074 340.965 200.003C314.998 225.56 280.006 239.857 243.571 239.795C212.153 239.844 181.653 229.205 157.081 209.627C132.725 190.241 99.1432 187.258 71.4587 201.498L7.52344 234.381C54.1501 316.534 142.357 372 243.571 372C353.235 372 447.624 306.902 490.4 213.262L429.441 185.195Z" fill="#E86B00"/>
<path d="M384.693 300.215L382.001 298.934C382.017 295.488 381.086 292.103 379.31 289.149C378.156 287.044 376.59 285.192 374.704 283.706C372.818 282.22 370.652 281.129 368.336 280.499C366.833 280.106 365.287 279.907 363.734 279.909C359.895 279.971 356.142 281.062 352.867 283.068L342.369 289.203C340.578 290.255 339.17 291.85 338.35 293.758C337.783 293.758 337.223 293.635 336.648 293.635C333.342 293.644 330.072 294.317 327.031 295.614C321.893 297.733 317.642 301.557 314.991 306.442C312.207 305.296 309.228 304.7 306.218 304.686C303.867 304.693 301.528 305.013 299.262 305.637L289.293 308.374C287.079 308.998 285.156 310.383 283.863 312.285C282.174 310.93 280.078 310.182 277.912 310.161C277.455 310.161 277 310.192 276.547 310.253L271.179 311.02C269.869 311.209 268.611 311.662 267.481 312.351C266.352 313.041 265.374 313.952 264.607 315.031C262.89 313.621 260.739 312.846 258.518 312.837L252.582 312.937C250.309 312.974 248.119 313.804 246.393 315.284C244.651 313.894 242.486 313.141 240.258 313.152L234.698 313.244C232.665 313.285 230.696 313.963 229.069 315.184C225.815 313.008 222.085 311.646 218.195 311.212C217.222 311.103 216.244 311.047 215.265 311.043C212.784 311.046 210.318 311.423 207.949 312.163C206.721 310.98 205.203 310.144 203.547 309.739L182.489 304.693C181.735 304.511 180.963 304.418 180.188 304.417C178.756 304.429 177.345 304.756 176.054 305.376C174.979 303.081 173.054 301.294 170.686 300.391L165.64 298.505C164.547 298.093 163.388 297.883 162.22 297.884C160.134 297.89 158.104 298.564 156.43 299.809C153.987 295.304 150.217 291.66 145.632 289.372C142.715 287.844 139.476 287.035 136.184 287.01C132.998 286.96 129.862 287.805 127.132 289.447C124.402 291.09 122.187 293.466 120.739 296.304C120.685 296.404 120.593 296.565 120.547 296.664C119.239 299.115 118.545 301.846 118.523 304.624L117.687 304.985C115.366 305.981 113.521 307.836 112.538 310.161C111.554 312.487 111.509 315.103 112.411 317.462C114.789 323.6 119.368 328.633 125.256 331.579C127.98 332.988 130.968 333.816 134.029 334.01C135.147 335.791 136.813 337.161 138.776 337.913L144.359 339.999C145.451 340.405 146.607 340.613 147.772 340.613C149.776 340.613 151.732 340 153.378 338.857C153.764 340.389 154.518 341.805 155.573 342.982C156.629 344.159 157.954 345.062 159.436 345.613L165.157 347.752C166.251 348.163 167.409 348.373 168.577 348.373H168.746C169.544 348.849 170.407 349.208 171.307 349.439L192.78 354.592C193.534 354.773 194.306 354.863 195.081 354.861C197.081 354.853 199.031 354.229 200.664 353.074C204.173 355.756 208.345 357.434 212.734 357.928C213.705 358.037 214.68 358.094 215.656 358.097C219.716 358.11 223.714 357.094 227.275 355.145C228.173 356.45 229.375 357.518 230.778 358.255C232.181 358.993 233.742 359.378 235.327 359.378L241.255 359.278C243.622 359.239 245.895 358.343 247.651 356.755C249.416 358.24 251.648 359.055 253.955 359.056L259.085 358.971C260.275 358.946 261.45 358.701 262.551 358.25C263.335 358.46 264.141 358.571 264.952 358.58C265.408 358.58 265.864 358.549 266.317 358.488L272.214 357.66C273.783 357.44 275.275 356.843 276.562 355.918C277.848 354.994 278.891 353.77 279.599 352.353C280.515 353.349 281.626 354.143 282.865 354.687C284.103 355.231 285.44 355.512 286.793 355.513C287.247 355.513 287.7 355.482 288.15 355.421L294.201 354.569C295.569 354.366 296.877 353.869 298.035 353.112C298.311 353.112 298.572 353.22 298.848 353.22C299.724 353.22 300.596 353.101 301.44 352.867L311.41 350.129C317.635 348.529 322.976 344.536 326.272 339.018C329.197 340.312 332.36 340.986 335.559 340.996C338.864 340.99 342.135 340.32 345.176 339.025C349.847 337.084 353.796 333.733 356.472 329.44C357.76 330.069 359.172 330.406 360.605 330.429C362.33 330.427 364.023 329.97 365.513 329.102L370.567 326.165C372.134 325.256 373.416 323.928 374.271 322.331H374.54C376.27 322.328 377.968 321.868 379.463 320.997L385.36 317.561C386.898 316.666 388.163 315.368 389.017 313.807C389.871 312.246 390.282 310.482 390.207 308.704C390.151 306.92 389.607 305.186 388.635 303.69C387.663 302.193 386.3 300.991 384.693 300.215Z" fill="#1F140F"/>
<path d="M129.005 275.791C133.744 278.883 139.274 280.542 144.933 280.568C147.364 280.564 149.785 280.244 152.134 279.617C151.545 281.934 151.828 284.386 152.929 286.507C154.031 288.628 155.874 290.27 158.108 291.12L182.111 300.23C183.218 300.653 184.393 300.869 185.578 300.867C186.54 300.867 187.496 300.722 188.415 300.437C189.814 301.863 191.615 302.826 193.576 303.198L218.838 307.899C219.43 308.005 220.03 308.059 220.632 308.06C222.156 308.051 223.656 307.683 225.011 306.986C226.4 307.845 227.982 308.343 229.612 308.436L237.918 308.804C240.432 308.804 242.85 307.836 244.669 306.099C246.487 304.362 247.566 301.991 247.68 299.479L248.01 292.347L248.685 299.456C248.91 301.879 250.032 304.131 251.831 305.771C253.629 307.41 255.975 308.32 258.409 308.321C258.708 308.321 259.022 308.321 259.329 308.275L267.167 307.508C269.748 307.263 272.128 306.006 273.785 304.011C275.439 302.012 276.233 299.44 275.993 296.856L275.487 291.488C278.101 294.615 281.371 297.129 285.064 298.852C288.758 300.574 292.785 301.464 296.861 301.457C299.866 301.452 302.854 300.997 305.726 300.108C321.178 295.392 329.66 279.817 325.105 264.917L325.005 264.564C323.271 258.801 319.721 253.752 314.884 250.17C310.048 246.588 304.183 244.665 298.164 244.687C295.156 244.693 292.165 245.148 289.291 246.037C285.118 247.304 281.277 249.477 278.041 252.402C276.705 251.722 275.23 251.362 273.731 251.351C273.424 251.351 273.118 251.351 272.803 251.397L243.309 254.173C243.245 254.17 243.181 254.17 243.117 254.173C242.123 253.766 241.068 253.527 239.996 253.468L231.691 253.092C229.175 253.093 226.757 254.064 224.939 255.802C223.121 257.54 222.043 259.912 221.928 262.425L221.061 281.051L215.801 280.07L219.252 261.566C219.49 260.304 219.477 259.008 219.214 257.751C218.951 256.495 218.443 255.302 217.718 254.242C216.992 253.183 216.065 252.277 214.988 251.577C213.912 250.877 212.708 250.396 211.445 250.163L203.715 248.721C203.12 248.615 202.517 248.561 201.912 248.56C199.632 248.562 197.425 249.362 195.671 250.819C193.918 252.277 192.729 254.302 192.311 256.543L189.021 274.18L184.075 272.302L190.739 254.718C191.656 252.292 191.574 249.602 190.51 247.237C189.446 244.872 187.487 243.026 185.064 242.103L177.717 239.319C176.607 238.9 175.43 238.684 174.243 238.683C172.86 238.684 171.493 238.979 170.232 239.549C170.186 239.549 170.148 239.603 170.102 239.618C167.714 234.944 164.118 230.993 159.688 228.177C154.951 225.085 149.423 223.426 143.767 223.4C143.077 223.4 142.41 223.476 141.735 223.53C141.198 218.354 138.721 213.185 134.289 208.745L123.997 198.523C122.167 196.691 119.685 195.659 117.095 195.655C115.813 195.652 114.544 195.903 113.359 196.393C112.175 196.882 111.099 197.601 110.193 198.507L84.8857 223.752C83.0534 225.582 82.0219 228.064 82.0176 230.654C82.024 233.242 83.0521 235.722 84.878 237.556L90.4303 243.115C91.3341 244.026 92.4092 244.749 93.5938 245.243C94.7784 245.737 96.049 245.991 97.3323 245.991C99.921 245.99 102.403 244.961 104.234 243.131L105.063 242.302C108.235 244.833 111.97 246.564 115.952 247.348C114.204 258.146 118.943 269.319 129.005 275.791ZM296.531 272.11C296.531 272.041 296.63 271.903 297.06 271.773C297.177 271.736 297.298 271.715 297.42 271.711C297.827 271.711 298.264 272.194 298.502 272.953C298.893 274.242 298.264 274.434 297.995 274.487C297.876 274.524 297.752 274.544 297.627 274.549C297.213 274.549 296.784 274.081 296.546 273.306C296.407 272.92 296.407 272.497 296.546 272.11H296.531ZM143.499 251.505C143.539 251.451 143.575 251.395 143.606 251.336C143.709 251.145 143.851 250.978 144.022 250.846C144.194 250.713 144.392 250.619 144.603 250.569C144.779 250.594 144.947 250.66 145.094 250.761C145.204 250.812 145.301 250.889 145.375 250.985C145.45 251.081 145.501 251.193 145.523 251.313C145.564 251.752 145.444 252.191 145.186 252.548L145.063 252.755C144.961 252.936 144.821 253.093 144.653 253.216C144.485 253.339 144.293 253.425 144.089 253.468C143.911 253.442 143.74 253.377 143.591 253.276C143.253 253.054 143.192 252.877 143.169 252.724C143.132 252.291 143.248 251.859 143.499 251.505Z" fill="#1F140F"/>
<path d="M415.866 208.239C415.458 204.527 414.312 200.934 412.495 197.671C410.677 194.409 408.225 191.544 405.283 189.244C400.327 185.265 394.16 183.101 387.805 183.109C383.465 183.146 379.189 184.166 375.3 186.093C371.411 188.021 368.009 190.805 365.351 194.236C362.617 197.67 360.676 201.666 359.668 205.938C357.876 206.184 356.189 206.928 354.799 208.085L332.022 227.042C331.976 227.042 331.945 227.126 331.899 227.165C330.869 227.389 329.882 227.78 328.978 228.323L322.29 232.448C321.196 233.122 320.245 234.006 319.492 235.048C318.74 236.09 318.2 237.271 317.904 238.522C317.609 239.773 317.563 241.069 317.77 242.338C317.976 243.606 318.431 244.822 319.108 245.914L337.889 276.312C339.252 278.515 341.433 280.087 343.955 280.683C344.691 280.857 345.445 280.945 346.202 280.944C348.019 280.944 349.8 280.439 351.348 279.487L358.035 275.354C359.127 274.678 360.076 273.795 360.826 272.753C361.577 271.711 362.115 270.532 362.41 269.282C362.705 268.032 362.75 266.737 362.544 265.469C362.339 264.202 361.885 262.987 361.21 261.895L357.559 255.983L362.007 261.351C362.923 262.458 364.073 263.348 365.373 263.958C366.674 264.568 368.094 264.882 369.53 264.878C371.817 264.869 374.027 264.054 375.773 262.578L381.824 257.547C382.811 256.726 383.626 255.718 384.224 254.581C384.821 253.444 385.188 252.201 385.305 250.922C385.543 248.34 384.746 245.769 383.089 243.775L379.577 239.557C382.024 240.25 384.556 240.604 387.1 240.607C391.439 240.572 395.714 239.553 399.603 237.625C403.491 235.698 406.891 232.913 409.546 229.48C411.945 226.529 413.738 223.134 414.822 219.489C415.907 215.844 416.261 212.021 415.866 208.239ZM388.626 212.702C388.557 212.817 388.46 212.913 388.343 212.979C388.225 213.045 388.093 213.079 387.959 213.078C387.651 213.067 387.35 212.98 387.084 212.824C386.977 212.725 386.862 212.633 386.747 212.541C386.4 212.304 386.15 211.95 386.041 211.544C386.041 211.467 386.041 211.306 386.279 210.969C386.348 210.853 386.445 210.758 386.563 210.692C386.68 210.626 386.812 210.592 386.946 210.593C387.398 210.63 387.824 210.817 388.158 211.122C388.504 211.364 388.753 211.72 388.864 212.127C388.871 212.203 388.894 212.357 388.626 212.702Z" fill="#1F140F"/>
<path d="M400.114 41.0187C385.904 33.0894 368.933 34.0173 353.91 28.5956C347.529 26.2951 341.808 22.7829 336.156 19.1403C332 16.464 327.659 13.6421 322.636 12.9059C315.826 11.9166 309.729 14.9304 304.522 19.3628C270.825 -0.859126 228.087 -2.04776 194.689 19.2554C191.825 16.8476 188.563 14.9584 185.049 13.6727C173.799 9.74645 164.343 18.8873 155.371 23.9639C148.034 28.0192 140.037 30.7452 131.751 32.0158C123.821 33.3348 115.792 34.6691 108.161 37.2074C102.271 39.1629 96.3588 41.9005 92.0565 46.4096C87.7543 50.9187 85.7068 56.6318 85.0932 62.6976C84.4261 69.2849 85.423 75.7341 90.0626 80.7109C91.5504 82.3213 93.3066 83.717 94.2192 85.7568C95.4616 88.5098 95.1855 91.6692 94.9861 94.5986C94.4033 105.058 94.4722 116.17 98.3757 126.04C103.115 138.094 113.506 145.165 126.796 145.004C137.487 144.881 145.731 131.875 152.502 124.514C159.105 153.416 173.346 197.035 202.434 209.304C207.257 211.373 212.434 212.49 217.68 212.594C217.915 212.821 218.172 213.024 218.447 213.2C228.8 219.987 238.486 227.387 251.638 226.934C263.716 226.513 273.256 219.227 283.08 213.2C283.416 212.987 283.72 212.729 283.985 212.433C288.232 212.032 292.392 210.976 296.316 209.304C325.542 196.981 337.092 153.485 343.656 124.514C348.127 129.605 355.635 141.331 362.391 143.462C374.823 147.381 389.317 144.153 396.993 133.44C403.542 124.299 402.837 114.491 402.714 103.655C402.66 98.6936 399.033 93.4714 401.242 88.8703C402.17 86.9455 402.545 82.1143 403.972 80.5652C405.904 78.4794 411.786 72.4826 412.607 69.7679C416.403 57.3449 411.495 47.3682 400.114 41.0187Z" fill="white"/>
<path d="M290.581 82.1682C281.591 82.5316 273.071 86.2841 266.735 92.6714C260.399 99.0588 256.715 107.608 256.424 116.6C256.261 122.099 257.382 127.56 259.698 132.55C259.872 132.92 260.157 133.226 260.513 133.427C260.869 133.627 261.278 133.712 261.685 133.67C261.899 133.67 262.122 133.67 262.344 133.67C263.26 133.669 264.167 133.849 265.014 134.198C265.861 134.548 266.63 135.062 267.278 135.709C267.926 136.356 268.441 137.125 268.791 137.971C269.142 138.818 269.323 139.725 269.323 140.641C269.219 141.656 268.961 142.649 268.556 143.585C268.537 143.626 268.532 143.671 268.541 143.714C268.551 143.758 268.575 143.797 268.61 143.825C268.644 143.853 268.687 143.869 268.731 143.87C268.776 143.871 268.819 143.857 268.855 143.831C269.952 143.141 272.459 141.676 274.223 141.676C275.139 141.675 276.047 141.855 276.893 142.204C277.74 142.554 278.509 143.068 279.157 143.715C279.805 144.362 280.32 145.131 280.67 145.977C281.021 146.824 281.202 147.731 281.202 148.647C281.202 149.183 281.125 149.989 281.056 150.594C281.053 150.639 281.063 150.683 281.087 150.72C281.11 150.758 281.145 150.787 281.186 150.803C281.227 150.82 281.273 150.822 281.316 150.811C281.358 150.8 281.396 150.775 281.424 150.74C282.436 149.36 284.952 146.323 287.398 146.323C288.917 146.324 290.394 146.821 291.604 147.739C292.814 148.657 293.691 149.945 294.101 151.407C294.214 151.857 294.486 152.251 294.866 152.517C295.246 152.784 295.71 152.904 296.171 152.857C304.768 151.806 312.683 147.647 318.424 141.163C324.166 134.679 327.336 126.318 327.338 117.658C327.345 112.888 326.39 108.165 324.529 103.773C322.668 99.3804 319.94 95.4086 316.508 92.0951C313.077 88.7816 309.012 86.1946 304.557 84.4889C300.101 82.7832 295.348 81.9939 290.581 82.1682Z" fill="#C39C71"/>
<path d="M295.083 156.009C294.102 156 293.152 155.671 292.376 155.072C291.601 154.472 291.043 153.635 290.788 152.688C290.528 151.761 289.972 150.944 289.205 150.361C288.438 149.779 287.502 149.462 286.539 149.46C285.842 149.46 284.239 150.641 282.628 152.834L281.47 154.414L279.407 153.769C278.844 153.549 278.368 153.15 278.054 152.633C277.739 152.116 277.603 151.511 277.667 150.909C277.738 150.375 277.779 149.837 277.789 149.299C277.69 145.564 274.246 144.176 272.099 144.176C271.509 144.176 270.021 144.721 268.127 145.932L266.593 146.914L264.929 145.74C264.479 145.374 264.156 144.875 264.007 144.315C263.858 143.754 263.891 143.16 264.1 142.619C264.379 141.971 264.567 141.287 264.66 140.587C264.652 139.974 264.517 139.368 264.265 138.809C264.012 138.25 263.647 137.748 263.193 137.336C262.738 136.924 262.203 136.61 261.622 136.413C261.041 136.216 260.425 136.141 259.813 136.193C258.884 136.271 257.953 136.065 257.144 135.602C256.335 135.139 255.685 134.442 255.281 133.601C252.785 128.258 251.582 122.402 251.769 116.508C252.058 106.864 255.999 97.6899 262.796 90.842C269.593 83.994 278.738 79.9837 288.38 79.6225C293.488 79.4379 298.58 80.2839 303.354 82.11C308.127 83.936 312.484 86.7048 316.164 90.251C319.853 93.7856 322.785 98.0329 324.782 102.735C326.779 107.437 327.8 112.496 327.783 117.605C327.783 137.589 314.262 153.723 295.642 155.947C295.443 155.993 295.259 156.009 295.083 156.009ZM286.578 144.36C288.569 144.365 290.509 144.992 292.126 146.154C293.743 147.316 294.957 148.954 295.596 150.84C311.333 148.655 322.69 134.736 322.69 117.605C322.707 113.182 321.825 108.802 320.096 104.732C318.368 100.661 315.83 96.9838 312.637 93.9242C309.463 90.8347 305.693 88.4251 301.557 86.8428C297.42 85.2605 293.004 84.5389 288.579 84.722C280.235 85.0423 272.323 88.5165 266.44 94.4431C260.557 100.37 257.142 108.307 256.884 116.654C256.727 121.62 257.708 126.557 259.752 131.086C262.174 130.964 264.552 131.768 266.403 133.335C268.254 134.901 269.441 137.113 269.722 139.521C270.5 139.253 271.315 139.108 272.137 139.092C276.348 139.092 280.742 141.592 282.322 145.932C283.539 144.972 285.029 144.421 286.578 144.36Z" fill="#1F140F"/>
<path d="M255.587 151.193C254.298 151.174 253.025 151.492 251.897 152.116C250.768 152.74 249.822 153.649 249.153 154.751C249.112 154.826 249.052 154.889 248.978 154.933C248.905 154.977 248.821 155 248.735 155C248.649 155 248.565 154.977 248.492 154.933C248.418 154.889 248.358 154.826 248.317 154.751C247.604 153.371 245.886 151.285 242.075 151.285C236.392 151.285 231.729 154.352 233.033 162.258C235.104 174.781 248.608 181.108 248.608 181.108C248.608 181.108 262.221 175.072 264.284 162.55C265.587 154.644 261.27 151.193 255.587 151.193Z" fill="#1F140F"/>
<path d="M195.977 23.9183C228.624 2.27008 269.215 3.54303 302.068 24.1867C306.539 27.001 310.65 19.923 306.194 17.1316C271.002 -4.98437 226.806 -6.32635 191.852 16.8556C187.488 19.7543 191.575 26.8247 195.977 23.9183Z" fill="#1F140F"/>
<path d="M207.082 138.777C214.926 138.777 221.284 132.419 221.284 124.575C221.284 116.732 214.926 110.373 207.082 110.373C199.238 110.373 192.879 116.732 192.879 124.575C192.879 132.419 199.238 138.777 207.082 138.777Z" fill="#1F140F"/>
<path d="M149.642 126.5C155.869 157.565 169.581 200.746 202.473 213.461C227.581 223.169 250.733 207.226 252.182 181.1C252.474 175.831 244.284 175.847 243.992 181.1C242.244 212.541 209.337 213.591 190.602 195.931C171.207 177.649 162.626 149.636 157.549 124.322C156.506 119.153 148.607 121.347 149.642 126.5Z" fill="#1F140F"/>
<path d="M245.166 181.1C246.615 207.173 269.752 223.177 294.883 213.461C327.79 200.747 341.479 157.55 347.706 126.5C348.741 121.354 340.804 119.146 339.807 124.322C334.73 149.628 326.134 177.657 306.747 195.931C288.05 213.568 255.112 212.602 253.364 181.1C253.072 175.855 244.874 175.824 245.166 181.1Z" fill="#1F140F"/>
<path d="M217.275 216.912C227.774 223.944 237.597 231.605 250.949 231.129C263.219 230.7 272.874 223.154 282.851 216.912C287.299 214.12 283.196 207.05 278.725 209.849C270.543 214.971 262.061 221.858 252.207 222.747C239.883 223.859 230.956 216.252 221.401 209.849C217.014 206.912 212.919 213.998 217.275 216.912Z" fill="#1F140F"/>
<path d="M210.571 120.833C210.571 122.476 209.918 124.052 208.756 125.214C207.594 126.376 206.018 127.029 204.374 127.029C202.731 127.029 201.155 126.376 199.993 125.214C198.831 124.052 198.178 122.476 198.178 120.833C198.178 119.19 198.831 117.614 199.993 116.452C201.155 115.29 202.731 114.637 204.374 114.637C206.018 114.637 207.594 115.29 208.756 116.452C209.918 117.614 210.571 119.19 210.571 120.833Z" fill="white"/>
<path d="M290.066 138.777C297.91 138.777 304.269 132.419 304.269 124.575C304.269 116.732 297.91 110.373 290.066 110.373C282.222 110.373 275.863 116.732 275.863 124.575C275.863 132.419 282.222 138.777 290.066 138.777Z" fill="#1F140F"/>
<path d="M293.549 120.833C293.549 122.476 292.896 124.052 291.734 125.214C290.572 126.376 288.996 127.029 287.353 127.029C285.709 127.029 284.133 126.376 282.971 125.214C281.809 124.052 281.156 122.476 281.156 120.833C281.156 119.19 281.809 117.614 282.971 116.452C284.133 115.29 285.709 114.637 287.353 114.637C288.996 114.637 290.572 115.29 291.734 116.452C292.896 117.614 293.549 119.19 293.549 120.833Z" fill="white"/>
<path d="M207.443 33.7799C202.021 24.5777 193.938 14.1254 183.6 10.3679C172.166 6.21152 162.749 15.4214 153.6 20.7357C138.569 29.4702 121.391 29.1711 105.286 34.6618C92.7397 38.9331 83.399 47.0464 81.9803 60.7961C81.2978 67.3833 82.0954 74.0396 86.528 79.2005C87.9084 80.8109 89.6415 82.1606 90.7151 84.0164C92.4713 87.0378 92.2029 90.619 92.0341 93.9855C91.459 105.028 91.505 116.692 95.6309 127.129C100.493 139.444 111.122 146.553 124.427 146.3C138.423 146.07 149.459 137.512 156.637 125.994C164.896 112.712 168.761 96.7768 170.893 81.4398C172.818 67.5521 181.438 54.7303 191.929 45.6354C195.249 42.7521 190.395 37.9669 187.105 40.8119C179.269 47.6484 172.943 56.0423 168.531 65.4585C163.009 77.4981 162.956 91.4242 158.968 104.047C155.264 115.779 149.397 128.755 138.484 135.434C128.461 141.569 113.338 141.293 105.715 131.462C99.3043 123.195 98.5221 111.401 98.6064 101.347C98.6064 96.2707 99.5037 91.0101 98.6064 86.0102C97.6248 80.6422 94.1585 78.0656 91.068 74.009C87.4636 69.2775 88.1384 61.6089 89.7949 56.241C91.4514 50.873 95.1017 47.1078 99.8411 44.4238C113.093 36.924 129.128 37.6832 143.27 32.921C150.21 30.4502 156.806 27.0999 162.894 22.9519C166.99 20.2756 171.507 16.5564 176.568 16.0963C183.47 15.4751 189.482 21.656 193.646 26.3644C196.629 29.718 199.284 33.3489 201.576 37.2077C203.8 40.9806 209.697 37.5528 207.458 33.7645L207.443 33.7799Z" fill="#1F140F"/>
<path d="M296.279 37.2154C300.881 29.3935 308.465 18.5733 317.752 16.3801C322.353 15.3065 326.379 17.515 330.16 19.8616C335.022 22.883 339.654 26.2111 344.777 28.8031C358.964 35.9808 374.816 36.0805 389.724 40.9117C395.092 42.6524 400.637 45.114 404.387 49.5081C408.298 54.1092 409.464 60.3667 409.172 66.2561C408.881 72.1455 405.798 74.4384 402.477 78.7175C398.712 83.5716 398.704 89.3077 398.996 95.1818C399.502 105.151 399.479 115.887 395.575 125.296C390.836 136.715 379.333 141.599 367.415 138.793C354.854 135.84 347.055 124.468 342.208 113.28C339.388 106.547 337.221 99.5598 335.735 92.4135C334.202 85.2741 333.834 77.7206 331.433 70.8036C327.499 59.4619 319.754 48.6952 310.681 40.8273C307.384 37.967 302.545 42.7674 305.865 45.6508C314.915 53.5034 322.944 64.4694 325.927 76.1485C327.599 82.6898 328.059 89.5455 329.6 96.148C331.205 103.198 333.456 110.086 336.326 116.723C341.648 128.847 350.214 140.549 363.336 144.736C375.913 148.754 390.66 145.434 398.39 134.33C404.932 124.928 406.097 112.497 406.005 101.355C405.959 95.918 404.234 88.8706 407.063 83.9934C409.694 79.4383 413.965 77.0458 415.292 71.5474C418.459 58.626 412.938 45.045 401.419 38.5268C387.017 30.3751 369.846 31.3183 354.639 25.7203C347.231 22.998 340.835 18.5733 334.255 14.3786C329.531 11.3802 324.378 8.78059 318.611 9.35573C306.195 10.5827 296.241 23.8032 290.366 33.7646C288.127 37.5529 294.017 40.9807 296.249 37.2078L296.279 37.2154Z" fill="#1F140F"/>
<path d="M314.891 103.126C314.254 104.069 312.23 103.809 310.366 102.551C308.503 101.293 307.513 99.4835 308.15 98.5633C308.787 97.6431 310.819 97.8808 312.675 99.1385C314.53 100.396 315.527 102.191 314.891 103.126Z" fill="#1F140F"/>
<path d="M313.203 119.867C315.043 119.59 316.838 121.339 317.214 123.777C317.59 126.216 316.393 128.425 314.553 128.708C312.712 128.992 310.918 127.236 310.55 124.797C310.181 122.359 311.362 120.15 313.203 119.867Z" fill="#1F140F"/>
<path d="M310.396 123.018C310.396 120.135 309.33 116.423 311.163 116.423C312.996 116.423 313.057 118.087 314.231 119.077C315.672 120.442 317.566 122.144 317.191 125.211C316.815 128.279 311.577 127.029 310.971 126.27C310.365 125.511 310.396 123.018 310.396 123.018Z" fill="#1F140F"/>
<path d="M298.242 100.887C298.242 102.421 295.788 103.663 292.759 103.663C289.729 103.663 287.268 102.421 287.268 100.887C287.268 99.3536 289.722 98.1113 292.759 98.1113C295.795 98.1113 298.242 99.3536 298.242 100.887Z" fill="#1F140F"/>
<path d="M292.436 98.1113C288.349 97.9503 286.938 99.645 286.301 100.174C285.665 100.703 283.502 100.22 283.502 101.639C283.502 103.057 286.102 103.939 292.705 103.663C293.778 100.09 293.479 98.1957 292.436 98.1113Z" fill="#1F140F"/>
<path d="M270.113 98.2799C269.07 98.0345 268.579 99.875 267.368 101.577C267.089 102.014 266.978 102.537 267.053 103.05C267.076 103.417 267.037 103.785 266.938 104.139C266.79 104.728 266.803 105.346 266.977 105.928C267.151 106.509 267.48 107.033 267.928 107.444C268.248 107.749 268.641 107.965 269.07 108.073C269.791 108.226 270.006 107.582 270.052 106.93C270.107 106.033 270.304 105.15 270.635 104.315C271.053 103.309 271.289 102.237 271.333 101.148C271.329 101.135 271.329 101.122 271.333 101.11C271.379 99.6296 270.926 98.464 270.113 98.2799Z" fill="#1F140F"/>
<path d="M297.789 147.274C297.229 146.507 297.651 145.227 298.717 144.49C299.783 143.754 301.094 143.816 301.646 144.613C302.199 145.411 301.784 146.668 300.718 147.397C299.652 148.125 298.341 148.079 297.789 147.274Z" fill="#1F140F"/>
<path d="M298.847 144.398C299.344 144.117 299.899 143.956 300.469 143.928C301.039 143.9 301.608 144.006 302.129 144.237C302.804 144.559 302.82 144.383 303.303 144.82C303.446 144.951 303.558 145.112 303.632 145.291C303.706 145.47 303.74 145.664 303.731 145.857C303.722 146.051 303.671 146.241 303.581 146.412C303.491 146.584 303.365 146.734 303.211 146.852C302.444 147.366 301.677 146.852 300.91 147.251C300.143 147.649 296.853 145.64 298.847 144.398Z" fill="#1F140F"/>
<path d="M291.524 88.9934C291.624 87.406 293.948 86.9305 296.31 87.7817C298.434 88.5486 298.956 88.748 300.236 88.7173C301.517 88.6866 300.804 91.0179 299.546 91.3399C298.288 91.662 295.42 93.0884 293.794 91.2403C292.928 90.3814 291.448 90.182 291.524 88.9934Z" fill="#1F140F"/>
<path d="M266.148 128.348C264.714 128.778 262.866 126.814 262.015 124.015C261.163 121.216 261.631 118.555 263.065 118.118C264.499 117.681 266.34 119.652 267.191 122.459C268.042 125.265 267.575 127.919 266.148 128.348Z" fill="#1F140F"/>
<path d="M263.064 118.133C265.081 117.52 265.672 118.133 266.37 118.954C267.068 119.775 268.118 119.966 268.187 121.4C268.256 122.834 267.635 123.218 267.98 124.966C268.11 125.657 267.999 126.371 267.665 126.989C267.332 127.607 266.796 128.093 266.147 128.363C265.327 128.547 263.064 118.133 263.064 118.133Z" fill="#1F140F"/>
<path d="M308.049 135.771C308.165 135.142 309.353 134.836 310.703 135.073C312.053 135.311 313.065 136.017 312.958 136.607C312.85 137.198 311.661 137.535 310.304 137.297C308.947 137.06 307.911 136.415 308.049 135.771Z" fill="#1F140F"/>
<path d="M312.928 136.661C312.997 137.535 312.828 137.75 312.329 138.049C311.831 138.348 311.961 139.038 311.187 139.061C310.412 139.084 310.351 138.156 309.653 137.527C308.955 136.899 308.411 136.761 308.119 136.254L312.928 136.661Z" fill="#1F140F"/>
<path d="M136.974 319.77C136.108 320.455 135.099 320.935 134.021 321.173C132.882 321.397 131.71 321.397 130.57 321.173C129.256 320.936 127.986 320.498 126.805 319.877C124.993 318.962 123.356 317.737 121.966 316.258C120.533 314.738 119.415 312.95 118.676 310.997L123.622 308.873C124.228 310.224 125.001 311.494 125.923 312.653C126.829 313.779 127.97 314.692 129.266 315.33C130.122 315.824 131.102 316.061 132.089 316.012C132.455 315.987 132.809 315.864 133.112 315.656C133.415 315.449 133.658 315.164 133.814 314.831V314.762C133.977 314.454 134.068 314.113 134.082 313.765C134.07 313.377 133.95 313.001 133.737 312.676C133.418 312.168 133.045 311.695 132.625 311.265C132.112 310.721 131.421 310.077 130.555 309.325C129.585 308.5 128.663 307.619 127.794 306.687C127.064 305.92 126.457 305.046 125.992 304.095C125.585 303.228 125.39 302.277 125.424 301.319C125.488 300.187 125.805 299.084 126.352 298.091V298.022C126.848 297.004 127.563 296.108 128.446 295.399C129.284 294.741 130.25 294.265 131.283 294.003C132.381 293.742 133.52 293.7 134.635 293.881C135.889 294.078 137.104 294.476 138.231 295.062C139.87 295.873 141.359 296.957 142.633 298.267C143.822 299.522 144.794 300.965 145.509 302.539L140.808 305.085C140.173 303.917 139.42 302.817 138.561 301.802C137.804 300.905 136.876 300.167 135.831 299.632C135.054 299.168 134.147 298.969 133.247 299.065C132.922 299.11 132.614 299.232 132.347 299.422C132.08 299.611 131.862 299.862 131.713 300.154V300.223C131.526 300.563 131.428 300.946 131.429 301.335C131.451 301.754 131.592 302.158 131.835 302.5C132.2 303.026 132.622 303.509 133.093 303.942C133.661 304.486 134.382 305.146 135.263 305.936C136.214 306.77 137.106 307.67 137.932 308.627C138.617 309.409 139.173 310.294 139.581 311.25C139.944 312.096 140.107 313.015 140.056 313.934C139.977 314.958 139.682 315.954 139.19 316.856V316.932C138.671 318.031 137.914 319 136.974 319.77Z" fill="white"/>
<path d="M160.501 333.68L160.286 327.246L149.749 323.351L145.401 328.098L139.818 326.035L159.757 304.893L164.811 306.756L166.207 335.797L160.501 333.68ZM159.796 312.385L153.5 319.24L160.118 321.687L159.796 312.385Z" fill="white"/>
<path d="M171.246 337.131L172.274 332.814L190.418 319.655L176.653 316.38L177.841 311.388L198.915 316.403L197.888 320.721L179.743 333.888L193.961 337.262L192.773 342.246L171.246 337.131Z" fill="white"/>
<path d="M226.922 338.535C226.06 340.079 224.909 341.443 223.533 342.553C222.121 343.681 220.5 344.518 218.762 345.014C216.896 345.555 214.94 345.714 213.011 345.482C211.08 345.293 209.205 344.723 207.497 343.803C205.921 342.949 204.523 341.801 203.379 340.421C202.264 339.066 201.433 337.501 200.932 335.82C200.42 334.061 200.261 332.219 200.465 330.398V330.329C200.644 328.505 201.197 326.738 202.09 325.138C202.95 323.59 204.101 322.223 205.48 321.112C206.893 319.986 208.514 319.149 210.25 318.65C212.117 318.112 214.072 317.953 216.002 318.182C217.934 318.365 219.81 318.936 221.516 319.862C223.092 320.715 224.488 321.866 225.626 323.251C226.746 324.602 227.579 326.168 228.072 327.852C228.587 329.592 228.746 331.418 228.54 333.22V333.305C228.366 335.141 227.815 336.921 226.922 338.535ZM222.474 332.691C222.593 331.594 222.513 330.485 222.236 329.417C221.967 328.396 221.498 327.44 220.856 326.602C220.219 325.761 219.418 325.057 218.502 324.532C217.543 323.976 216.476 323.633 215.373 323.527C214.265 323.391 213.142 323.49 212.075 323.819C211.083 324.136 210.168 324.658 209.391 325.352C208.61 326.039 207.965 326.866 207.489 327.791C206.986 328.766 206.671 329.828 206.561 330.92V330.996C206.441 332.091 206.524 333.199 206.807 334.263C207.077 335.284 207.543 336.243 208.179 337.085C208.806 337.915 209.587 338.615 210.48 339.148C211.446 339.707 212.521 340.052 213.632 340.16C214.733 340.288 215.848 340.186 216.907 339.861C217.906 339.545 218.829 339.022 219.614 338.327C220.393 337.636 221.038 336.807 221.516 335.881C222.02 334.906 222.335 333.845 222.444 332.752L222.474 332.691Z" fill="white"/>
<path d="M253.057 346.218L239.766 329.662L240.196 346.533L234.429 346.686L233.762 320.122L239.13 319.992L251.983 336.027L251.569 319.677L257.336 319.532L258.003 346.088L253.057 346.218Z" fill="white"/>
<path d="M285.909 342.476L282.681 336.909L271.553 338.443L269.981 344.677L264.076 345.505L271.615 317.431L276.983 316.664L291.991 341.564L285.909 342.476ZM275.173 324.072L272.872 333.098L279.866 332.116L275.173 324.072Z" fill="white"/>
<path d="M318.257 325.905C318.051 327.616 317.492 329.267 316.615 330.751C315.7 332.275 314.496 333.606 313.072 334.67C311.509 335.841 309.736 336.702 307.85 337.208L297.88 340.03L290.656 314.471L300.626 311.657C302.496 311.096 304.456 310.896 306.4 311.066C308.17 311.214 309.894 311.712 311.47 312.531C312.991 313.328 314.331 314.433 315.404 315.774C316.52 317.176 317.337 318.791 317.804 320.521V320.59C318.313 322.313 318.467 324.121 318.257 325.905ZM311.937 322.254C311.649 321.19 311.159 320.19 310.496 319.31C309.875 318.491 309.091 317.81 308.195 317.308C307.311 316.807 306.331 316.498 305.319 316.403C304.209 316.301 303.09 316.41 302.022 316.725L297.673 317.96L302.029 333.366L306.377 332.139C307.451 331.848 308.463 331.362 309.361 330.705C310.182 330.092 310.86 329.307 311.347 328.405C311.828 327.521 312.13 326.552 312.236 325.552C312.343 324.453 312.239 323.345 311.93 322.285L311.937 322.254Z" fill="white"/>
<path d="M349.055 313.336C349.066 315.105 348.735 316.86 348.081 318.504C347.408 320.179 346.41 321.704 345.144 322.99C343.783 324.378 342.158 325.481 340.366 326.234C338.594 327.021 336.683 327.445 334.745 327.484C332.951 327.517 331.167 327.204 329.492 326.564C327.853 325.932 326.359 324.978 325.097 323.757C323.786 322.482 322.743 320.956 322.03 319.271V319.202C321.293 317.526 320.907 315.718 320.895 313.888C320.884 312.116 321.215 310.358 321.869 308.712C322.541 307.037 323.54 305.512 324.806 304.225C326.166 302.833 327.794 301.73 329.591 300.982C331.36 300.194 333.269 299.769 335.205 299.732C336.999 299.7 338.782 300.012 340.458 300.652C342.097 301.286 343.593 302.24 344.86 303.459C346.171 304.734 347.214 306.26 347.928 307.945V308.014C348.669 309.69 349.053 311.503 349.055 313.336ZM342.306 310.437C341.877 309.423 341.263 308.497 340.496 307.707C339.758 306.95 338.877 306.348 337.904 305.936C336.935 305.519 335.892 305.3 334.837 305.291C333.728 305.282 332.63 305.509 331.616 305.959C330.585 306.383 329.656 307.024 328.893 307.837C328.182 308.592 327.639 309.488 327.298 310.468C326.958 311.453 326.804 312.493 326.846 313.535C326.896 314.635 327.156 315.715 327.613 316.717V316.779C328.043 317.794 328.66 318.72 329.43 319.509C330.167 320.265 331.045 320.869 332.015 321.288C332.987 321.695 334.028 321.916 335.082 321.94C336.197 321.944 337.3 321.711 338.318 321.257C339.342 320.831 340.265 320.193 341.026 319.386C341.747 318.633 342.296 317.734 342.636 316.748C342.976 315.762 343.132 314.723 343.096 313.681C343.043 312.581 342.783 311.501 342.329 310.498L342.306 310.437Z" fill="white"/>
<path d="M373.45 308.474L364.247 304.065L360.29 306.365L364.623 313.681L359.6 316.656L346.057 293.804L356.502 287.616C359.222 286.005 361.732 285.415 364.032 285.844C365.213 286.091 366.324 286.597 367.285 287.325C368.247 288.053 369.035 288.985 369.592 290.054V290.116C370.621 291.69 371.086 293.565 370.911 295.437C370.694 297.151 369.994 298.768 368.894 300.1L379.309 304.962L373.45 308.474ZM364.631 293.367C364.388 292.886 364.035 292.469 363.601 292.15C363.166 291.832 362.662 291.621 362.131 291.534C360.93 291.45 359.737 291.771 358.741 292.447L353.748 295.399L357.637 301.963L362.729 298.95C363.786 298.402 364.604 297.485 365.029 296.373C365.184 295.883 365.229 295.365 365.16 294.856C365.091 294.347 364.91 293.859 364.631 293.428V293.367Z" fill="white"/>
<path d="M122.594 234.534C121.003 235.101 119.304 235.302 117.624 235.124C115.896 234.921 114.225 234.385 112.701 233.545C111.027 232.625 109.495 231.468 108.153 230.109L103.935 225.876L96.3433 233.445L90.791 227.885L116.098 202.641L126.413 212.978C127.81 214.34 128.967 215.93 129.833 217.679C130.579 219.182 131.002 220.825 131.076 222.502C131.134 224.105 130.841 225.702 130.217 227.18C129.543 228.764 128.56 230.198 127.325 231.398L127.256 231.467C125.953 232.827 124.359 233.875 122.594 234.534ZM121.597 225.869C122.167 225.365 122.613 224.735 122.899 224.03C123.185 223.325 123.304 222.563 123.246 221.804C122.992 220.156 122.18 218.646 120.945 217.525L116.658 213.223L108.92 220.938L113.322 225.347C114.433 226.609 115.994 227.385 117.67 227.51C118.388 227.54 119.105 227.419 119.773 227.154C120.442 226.89 121.047 226.489 121.551 225.976L121.597 225.869Z" fill="white"/>
<path d="M154.258 264.778C152.293 266.126 150.084 267.079 147.755 267.585C145.379 268.089 142.926 268.118 140.539 267.67C137.965 267.193 135.514 266.205 133.33 264.763C131.115 263.372 129.205 261.546 127.716 259.395C126.331 257.42 125.339 255.197 124.795 252.846C124.272 250.539 124.219 248.15 124.641 245.822C125.071 243.399 125.986 241.088 127.333 239.028L127.387 238.943C128.708 236.864 130.438 235.074 132.471 233.683C134.44 232.337 136.651 231.386 138.982 230.884C141.358 230.377 143.81 230.346 146.198 230.792C148.771 231.269 151.222 232.258 153.407 233.698C155.622 235.089 157.532 236.915 159.021 239.066C160.405 241.042 161.396 243.265 161.942 245.615C162.464 247.922 162.519 250.31 162.103 252.639C161.667 255.062 160.749 257.372 159.404 259.434L159.35 259.526C158.028 261.605 156.296 263.392 154.258 264.778ZM152.433 255.07C153.24 253.826 153.809 252.442 154.113 250.991C154.404 249.601 154.419 248.168 154.159 246.773C153.892 245.38 153.353 244.053 152.571 242.87C151.743 241.633 150.66 240.588 149.396 239.802C148.149 238.973 146.74 238.417 145.263 238.169C143.886 237.947 142.479 238.012 141.129 238.36C139.772 238.719 138.494 239.33 137.364 240.163C136.17 241.029 135.153 242.114 134.365 243.36L134.304 243.445C133.495 244.691 132.925 246.077 132.624 247.532C132.333 248.921 132.318 250.354 132.578 251.75C132.837 253.132 133.358 254.451 134.112 255.638C134.938 256.894 136.027 257.956 137.302 258.751C138.551 259.57 139.956 260.121 141.428 260.369C142.809 260.601 144.223 260.538 145.577 260.185C146.933 259.826 148.21 259.218 149.343 258.391C150.538 257.524 151.556 256.435 152.341 255.185L152.433 255.07Z" fill="white"/>
<path d="M160.617 279.172L173.278 245.753L180.633 248.537L170.487 275.33L187.151 281.642L184.636 288.275L160.617 279.172Z" fill="white"/>
<path d="M194.406 290.791L200.948 255.653L208.678 257.095L203.44 285.254L220.956 288.521L219.66 295.491L194.406 290.791Z" fill="white"/>
<path d="M229.107 295.875L230.772 260.178L238.632 260.538L236.953 296.243L229.107 295.875Z" fill="white"/>
<path d="M262.636 266.665L265.289 295.039L257.46 295.806L254.806 267.432L243.97 268.452L243.303 261.228L272.79 258.468L273.464 265.692L262.636 266.665Z" fill="white"/>
<path d="M317 271.451C316.769 273.824 316.084 276.13 314.983 278.245C313.85 280.396 312.301 282.301 310.428 283.85C308.415 285.518 306.089 286.767 303.587 287.524C301.116 288.331 298.509 288.636 295.918 288.421C293.514 288.219 291.171 287.558 289.016 286.473C286.907 285.403 285.036 283.916 283.518 282.102C281.932 280.217 280.743 278.031 280.021 275.676V275.576C279.272 273.23 279.011 270.757 279.254 268.306C279.464 265.945 280.128 263.646 281.209 261.535C282.343 259.382 283.891 257.474 285.765 255.922C287.778 254.254 290.103 253.006 292.605 252.249C295.076 251.442 297.684 251.137 300.274 251.351C302.678 251.555 305.02 252.216 307.176 253.299C309.281 254.376 311.151 255.862 312.675 257.67C314.259 259.557 315.448 261.742 316.172 264.096V264.188C316.938 266.528 317.219 268.999 317 271.451ZM308.365 266.65C307.926 265.231 307.229 263.905 306.309 262.739C305.427 261.625 304.332 260.697 303.089 260.009C301.848 259.318 300.482 258.882 299.07 258.728C297.587 258.561 296.086 258.715 294.668 259.181C293.229 259.608 291.896 260.334 290.757 261.313C289.709 262.232 288.861 263.357 288.265 264.618C287.676 265.89 287.328 267.26 287.237 268.659C287.14 270.132 287.322 271.61 287.774 273.015V273.115C288.215 274.529 288.915 275.85 289.837 277.01C290.712 278.13 291.805 279.062 293.05 279.748C294.282 280.434 295.637 280.871 297.038 281.036C298.534 281.206 300.049 281.049 301.478 280.576C302.892 280.143 304.198 279.416 305.313 278.444C306.378 277.534 307.238 276.407 307.836 275.139C308.424 273.867 308.773 272.497 308.863 271.098C308.96 269.625 308.778 268.147 308.326 266.742L308.365 266.65Z" fill="white"/>
<path d="M346.762 267.447L327.713 237.203L334.369 233.008L353.419 263.26L346.762 267.447Z" fill="white"/>
<path d="M357.506 224.327L375.911 246.067L369.906 251.152L351.501 229.404L343.203 236.436L338.518 230.907L361.118 211.735L365.811 217.264L357.506 224.327Z" fill="white"/>
<path d="M404.809 197.05C405.985 199.121 406.748 201.399 407.056 203.76C407.364 206.173 407.19 208.624 406.542 210.969C405.852 213.493 404.663 215.852 403.045 217.909C401.478 219.994 399.506 221.742 397.247 223.047C395.164 224.266 392.864 225.07 390.476 225.416C388.133 225.742 385.75 225.593 383.466 224.979C381.089 224.347 378.864 223.241 376.925 221.728L376.848 221.659C374.882 220.171 373.24 218.298 372.024 216.153C370.854 214.081 370.093 211.803 369.785 209.443C369.476 207.03 369.651 204.579 370.299 202.234C370.997 199.725 372.185 197.379 373.796 195.333C375.362 193.247 377.331 191.498 379.586 190.187C381.676 188.978 383.976 188.177 386.365 187.825C388.707 187.496 391.091 187.645 393.374 188.262C395.752 188.897 397.977 190.006 399.916 191.521L400 191.583C401.96 193.057 403.597 194.918 404.809 197.05ZM394.985 198.055C393.814 197.146 392.486 196.463 391.066 196.038C389.704 195.636 388.277 195.503 386.864 195.647C385.452 195.794 384.084 196.218 382.837 196.897C381.526 197.613 380.383 198.601 379.486 199.796C378.553 200.97 377.881 202.329 377.515 203.783C377.174 205.135 377.122 206.544 377.362 207.917C377.603 209.301 378.103 210.628 378.834 211.828C379.599 213.087 380.596 214.19 381.771 215.079L381.856 215.14C383.024 216.054 384.353 216.741 385.775 217.165C387.136 217.57 388.564 217.705 389.977 217.564C391.384 217.413 392.749 216.991 393.996 216.321C395.313 215.602 396.462 214.609 397.362 213.407C398.28 212.232 398.946 210.879 399.318 209.435C399.661 208.076 399.716 206.66 399.479 205.279C399.238 203.897 398.738 202.573 398.006 201.375C397.237 200.117 396.241 199.012 395.069 198.116L394.985 198.055Z" fill="white"/>
</g>
<defs>
<clipPath id="clip0_118_5040">
<rect width="498" height="372" fill="white"/>
</clipPath>
</defs>
</svg>
