<svg width="502" height="416" viewBox="0 0 502 416" fill="none" xmlns="http://www.w3.org/2000/svg">
<g clip-path="url(#clip0_45_7334)">
<path d="M497.637 181.662L496.253 175.517L491.013 172.074C447.807 143.749 413.255 148.301 394.306 155.001C388.965 143.173 381.971 132.166 373.534 122.309C357.953 104.126 338.345 89.8385 316.271 80.5847C325.019 61.1547 323.726 43.0186 312.278 32.7144C306.631 27.7028 299.305 25.0053 291.76 25.1596H290.213C281.997 10.0962 268.979 0.831723 254.392 0H252.223C225.68 0 204.1 27.4238 202.023 63.8116C201.815 67.328 201.815 70.8535 202.023 74.3699C174.588 82.443 149.858 97.8227 130.473 118.867C120.823 129.542 112.902 141.664 107.001 154.793C87.9131 148.208 53.6155 144.05 10.8474 172.074L5.60819 175.517L4.22335 181.662C-2.00203 214.012 -1.60157 247.291 5.40045 279.482C16.2944 327.583 48.6994 389.824 141.344 413.112L151.777 415.746C153.126 416.087 154.539 416.088 155.889 415.749C157.239 415.41 158.484 414.741 159.512 413.803C160.541 412.865 161.322 411.686 161.784 410.372C162.247 409.058 162.377 407.65 162.163 406.273L160.501 395.623C159.901 391.857 157.87 379.658 153.877 363.532C153.31 358.669 152.019 353.919 150.046 349.439C144.815 330.603 137.862 312.289 129.273 294.73C149.528 317.342 175.895 333.592 205.185 341.515C205.366 347.353 206.934 353.064 209.76 358.175C212.585 363.285 216.587 367.648 221.434 370.902L230.158 376.863C236.216 381.01 243.383 383.232 250.723 383.239C257.942 383.235 264.996 381.08 270.987 377.048L279.389 371.457C284.28 368.148 288.303 363.707 291.116 358.511C293.928 353.314 295.447 347.516 295.545 341.607C324.287 333.855 350.257 318.135 370.464 296.255L371.849 294.638L372.403 294.823C363.818 312.383 356.864 330.696 351.63 349.531C349.657 354.011 348.366 358.762 347.799 363.625C343.806 379.797 341.752 391.949 341.175 395.715L339.513 406.366C339.301 407.74 339.431 409.145 339.892 410.457C340.354 411.768 341.132 412.945 342.158 413.883C343.184 414.821 344.425 415.49 345.772 415.831C347.118 416.172 348.528 416.175 349.876 415.838L360.309 413.204C452.954 389.916 485.382 327.722 496.276 279.574C503.351 247.366 503.815 214.055 497.637 181.662Z" fill="white"/>
<path d="M14.1024 233.344C14.5409 264.65 21.3727 296.417 37.4367 323.448C59.7786 361.153 97.9768 384.094 139.729 394.676C140.282 394.818 140.861 394.814 141.412 394.664C141.962 394.514 142.463 394.223 142.867 393.819C143.27 393.415 143.561 392.913 143.711 392.363C143.861 391.812 143.865 391.231 143.722 390.679C142.961 385.735 141.945 380.814 140.906 375.916C136.132 352.656 129.026 329.939 119.696 308.107C116.101 299.696 111.929 291.544 107.209 283.71C120.573 285.35 134.605 278.766 143.999 269.27C144.415 268.87 144.712 268.363 144.859 267.804C145.005 267.246 144.996 266.658 144.83 266.105L143.976 263.61L114.918 180.438C114.487 179.298 113.824 178.261 112.969 177.394C112.114 176.526 111.088 175.848 109.956 175.401C104.234 172.362 98.0867 170.205 91.722 169.001C81.0377 166.957 70.0539 167.059 59.4093 169.302C52.4538 170.762 45.6698 172.945 39.1678 175.817C35.1687 177.553 31.2628 179.496 27.466 181.639C25.5041 182.748 23.5654 183.949 21.6497 185.128C20.1725 186.075 18.58 186.768 17.8645 188.385C16.6978 192.704 15.9862 197.133 15.7411 201.6C14.4535 212.13 13.9059 222.738 14.1024 233.344Z" fill="white"/>
<path d="M136.059 386.174C146.053 388.715 125.766 316.424 106.332 284.726C123.781 286.852 142.083 272.482 140.745 268.554C130.543 239.328 132.32 199.706 110.417 188.247C76.6041 174.292 59.4092 179.329 44.0838 186.075C21.0033 196.009 24.2346 198.204 22.7805 209.71C11.9788 295.031 49.7385 364.295 136.059 386.174Z" fill="#FBBA33"/>
<path d="M116.256 174.523C109.853 170.309 102.673 167.418 95.1378 166.021C76.4195 161.886 57.1012 165.005 39.56 172.421C33.391 175.051 27.4273 178.141 21.7188 181.662C19.6646 182.91 17.1027 183.972 16.1795 186.283C15.8979 187.345 15.6897 188.426 15.5563 189.517C14.5408 195.224 13.8022 201.069 13.2483 206.729C11.2216 227.332 11.9278 248.113 15.3486 268.531C19.5499 295.233 30.1017 320.534 46.1149 342.3C66.8873 369.816 96.638 388.368 129.204 398.973C134.213 400.59 139.291 402.022 144.391 403.316C144.973 403.467 145.584 403.463 146.165 403.306C146.745 403.149 147.274 402.843 147.7 402.418C148.126 401.994 148.435 401.466 148.595 400.886C148.756 400.306 148.763 399.695 148.615 399.111C146.181 384.415 142.859 369.879 138.667 355.585C131.166 329.154 121.38 302.193 105.409 279.644C97.215 268.092 86.9442 257.372 74.0884 251.25C70.1185 249.401 66.6334 255.316 70.6263 257.187C94.0991 268.231 107.97 293.875 117.826 316.655C127.211 338.992 134.348 362.211 139.129 385.966C140.191 390.956 141.206 395.946 141.991 400.983L146.215 396.755C119.326 389.939 93.2913 378.48 72.1496 360.205C55.5575 345.758 42.4439 327.743 33.7899 307.506C20.4263 276.64 16.9642 241.823 19.9416 208.508C20.4123 201.609 21.3764 194.753 22.8267 187.992L21.2572 190.049C41.0141 177.249 64.4177 168.285 88.1905 171.566C96.5226 172.744 105.778 175.286 112.725 180.322C116.303 182.91 119.649 176.949 116.187 174.385L116.256 174.523Z" fill="#1F140F"/>
<path d="M144.276 396.062C144.16 392.169 143.379 388.324 141.968 384.695C138.865 376.075 133.294 368.562 125.95 363.093C120.105 358.805 113.572 355.547 106.632 353.459C102.408 352.119 100.608 358.75 104.808 360.067C114.594 363.186 124.265 368.73 130.197 376.886C131.354 378.459 132.388 380.12 133.29 381.853C133.705 382.616 134.074 383.378 134.444 384.163C134.444 384.302 134.444 384.441 134.628 384.602C134.813 385.018 134.951 385.434 135.113 385.85C136.014 388.293 136.686 390.814 137.121 393.382C137.236 394.075 137.121 393.751 137.121 393.382C137.121 393.59 137.121 393.821 137.121 394.029C137.121 394.237 137.121 394.745 137.121 395.114C137.121 395.484 137.121 395.738 137.121 396.062C137.121 396.981 137.486 397.862 138.135 398.512C138.784 399.162 139.665 399.527 140.583 399.527C141.501 399.527 142.382 399.162 143.031 398.512C143.68 397.862 144.045 396.981 144.045 396.062H144.276Z" fill="#1F140F"/>
<path d="M142.037 366.767C140.975 353.875 131.789 342.138 121.265 335.438C115.055 331.644 108.239 328.948 101.115 327.468C96.7992 326.52 94.9759 333.151 99.2919 334.098C109.709 335.98 119.257 341.135 126.55 348.815C128.849 351.424 130.775 354.34 132.274 357.479C132.435 357.802 132.597 358.149 132.736 358.472C132.874 358.796 133.243 359.651 132.92 358.865C133.174 359.489 133.428 360.136 133.659 360.783C134.049 361.865 134.38 362.968 134.651 364.087C134.882 364.918 135.044 365.773 135.205 366.628C135.367 367.483 135.205 365.773 135.205 366.767C135.234 367.668 135.607 368.524 136.246 369.16C136.885 369.796 137.743 370.163 138.644 370.186C139.548 370.18 140.414 369.818 141.053 369.178C141.692 368.538 142.054 367.672 142.06 366.767H142.037Z" fill="#1F140F"/>
<path d="M144.046 266.475C140.436 270.044 136.294 273.03 131.767 275.323C123.204 279.944 113.025 281.839 103.839 277.911C103.056 277.499 102.148 277.397 101.293 277.624C100.438 277.85 99.6998 278.39 99.2233 279.135C98.7837 279.913 98.6656 280.832 98.8943 281.695C99.1229 282.559 99.68 283.298 100.447 283.756C111.548 288.515 123.227 287.175 133.913 281.908C139.474 279.2 144.557 275.603 148.962 271.257C149.519 270.598 149.809 269.753 149.774 268.89C149.738 268.027 149.38 267.209 148.769 266.598C148.159 265.987 147.342 265.628 146.48 265.593C145.617 265.557 144.773 265.847 144.115 266.405L144.046 266.475Z" fill="#1F140F"/>
<path d="M486.19 201.67C485.957 197.18 485.253 192.727 484.089 188.385C483.489 186.699 481.781 186.075 480.442 185.058C478.527 183.857 476.588 182.748 474.603 181.57C470.816 179.422 466.918 177.479 462.924 175.748C456.374 172.894 449.544 170.733 442.544 169.302C431.9 167.059 420.916 166.957 410.232 169.001C403.837 170.235 397.666 172.431 391.929 175.517C390.83 175.983 389.839 176.671 389.017 177.538C388.195 178.404 387.56 179.43 387.151 180.553C377.488 208.277 367.81 236.001 358.116 263.725L357.239 266.221C357.084 266.776 357.082 267.364 357.232 267.92C357.382 268.477 357.68 268.984 358.093 269.386C367.487 278.881 381.497 285.558 394.883 283.825C390.165 291.664 385.985 299.815 382.374 308.223C373.041 330.051 365.942 352.77 361.186 376.031C360.147 380.929 359.132 385.85 358.347 390.794C358.21 391.348 358.218 391.929 358.372 392.479C358.525 393.029 358.819 393.529 359.223 393.932C359.628 394.334 360.13 394.625 360.68 394.776C361.23 394.926 361.81 394.932 362.363 394.791C404.115 384.21 442.314 361.268 464.655 323.563C480.812 296.44 487.528 264.673 487.99 233.46C488.135 222.834 487.533 212.211 486.19 201.67Z" fill="white"/>
<path d="M479.243 209.617C477.789 198.066 480.928 195.917 457.94 185.982C442.568 179.329 425.419 174.292 391.606 188.293C369.703 199.844 371.48 239.374 361.279 268.6C359.917 272.459 378.243 286.829 395.692 284.773C376.235 316.471 355.947 388.738 365.964 386.22C452.262 364.295 490.044 295.031 479.243 209.617Z" fill="#FBBA33"/>
<path d="M275.166 107.731C278.805 104.566 282.136 101.061 285.113 97.2654C298.108 80.7233 303.047 61.5706 296.146 54.4778C292.568 50.8275 282.898 53.5999 276.643 63.7192C277.935 42.9261 268.842 30.0575 259.494 29.4568C246.177 28.5789 233.229 47.3158 233.229 71.3433C233.229 120.253 275.166 107.731 275.166 107.731Z" fill="#E83755"/>
<path d="M250.561 327.837C317.929 327.837 372.542 280.67 372.542 222.486C372.542 164.302 317.929 117.134 250.561 117.134C183.193 117.134 128.581 164.302 128.581 222.486C128.581 280.67 183.193 327.837 250.561 327.837Z" fill="#FBBA33"/>
<path d="M235.144 296.509L230.528 331.164C230.326 332.731 230.559 334.324 231.203 335.767C231.846 337.21 232.874 338.447 234.174 339.343L245.715 347.29C247.126 348.244 248.79 348.753 250.492 348.753C252.195 348.753 253.859 348.244 255.27 347.29L266.81 339.62C268.136 338.74 269.189 337.504 269.846 336.054C270.503 334.603 270.739 332.997 270.526 331.418L266.118 297.456L250.584 313.814L235.144 296.509Z" fill="#E83755"/>
<path d="M287.375 255.015C287.375 271.765 250.654 303.533 250.654 303.533C250.654 303.533 213.91 271.858 213.91 255.015C213.91 238.173 230.367 224.704 250.654 224.704C270.942 224.704 287.375 238.265 287.375 255.015Z" fill="white"/>
<path d="M268.449 74.0695C268.449 73.5613 268.449 73.0761 268.449 72.5678C268.449 71.6668 268.241 73.4226 268.449 72.822C268.449 72.5678 268.449 72.2906 268.587 72.0364C268.84 70.9233 269.164 69.8275 269.557 68.7558C269.557 68.5478 269.718 68.3168 269.81 68.0858C270.226 66.9768 269.487 68.7558 269.81 68.0858L270.618 66.3761C271.218 65.2209 271.865 64.0889 272.557 62.9799C273.249 61.8709 274.011 60.8082 274.865 59.7685C275.719 58.7289 274.473 60.2306 274.98 59.6299L275.627 58.8213L277.012 57.2041C278.89 55.1009 280.935 53.1538 283.128 51.382C284.062 50.4387 284.587 49.1641 284.587 47.8356C284.587 46.5072 284.062 45.2325 283.128 44.2892C282.165 43.3845 280.894 42.8809 279.573 42.8809C278.253 42.8809 276.982 43.3845 276.019 44.2892C271.203 48.2006 267.07 52.8849 263.786 58.1513C260.635 62.8461 258.809 68.3061 258.501 73.954C258.507 75.2818 259.037 76.5535 259.975 77.4923C260.913 78.4312 262.183 78.9614 263.509 78.9675C264.83 78.9437 266.091 78.4079 267.025 77.4728C267.959 76.5377 268.494 75.2763 268.518 73.954L268.449 74.0695Z" fill="#1F140F"/>
<path d="M266.095 291.218C267.541 300.891 269.003 310.564 270.48 320.236C271.357 326.035 272.211 331.788 273.088 337.61C273.896 342.924 274.011 347.984 270.203 352.419C268.153 354.511 265.823 356.307 263.279 357.756C260.77 359.737 257.987 361.34 255.016 362.516C247.099 364.826 241.168 359.581 234.959 355.446C232.349 353.835 230.27 351.491 228.981 348.705C227.692 345.92 227.251 342.817 227.712 339.782C228.358 335.161 229.166 330.356 229.881 325.666C231.666 314.176 233.436 302.693 235.19 291.218C235.998 285.905 227.873 283.617 227.043 288.908L221.872 322.385C221.065 327.514 220.257 332.62 219.564 337.749C218.729 342.088 219.117 346.574 220.687 350.704C222.256 354.834 224.945 358.444 228.45 361.129C233.828 365.173 239.991 370.094 246.915 371.226C256.378 372.797 263.256 368.014 270.642 363.047C274.675 360.591 277.897 357.001 279.904 352.724C281.911 348.446 282.615 343.672 281.928 338.996C281.374 335.069 280.728 331.141 280.151 327.214C278.212 314.461 276.289 301.715 274.381 288.977C273.573 283.617 265.425 285.882 266.233 291.288L266.095 291.218Z" fill="#1F140F"/>
<path d="M292.522 248.015C292.522 253.745 288.575 260.121 285.206 265.204C280.555 271.985 275.368 278.382 269.696 284.334C262.598 292.031 255.086 299.335 247.192 306.213H254.116C239.437 293.506 224.527 279.066 214.326 262.316C212.018 258.365 209.156 253.075 208.832 249.009C208.554 242.277 210.7 235.669 214.88 230.387C224.804 217.334 243.038 212.297 258.732 214.862C275.42 217.588 292.176 229.648 292.453 247.9C292.568 254.276 302.47 254.299 302.354 247.9C302.077 229.417 288.852 214.908 272.234 208.323C254.37 201.277 232.19 203.495 216.657 215.047C204.47 224.149 195.146 240.46 200.316 255.94C204.816 269.409 215.133 280.984 224.619 291.218C231.711 298.922 239.224 306.226 247.123 313.097C248.063 313.974 249.3 314.462 250.585 314.462C251.87 314.462 253.107 313.974 254.047 313.097C262.626 305.661 270.742 297.706 278.351 289.278C284.399 282.781 289.881 275.778 294.738 268.346C298.615 262.247 302.147 255.293 302.285 247.9C302.493 241.639 292.522 241.639 292.522 248.015Z" fill="#1F140F"/>
<path d="M211.232 194.415C211.232 203.264 206.408 210.588 200.431 210.588C194.453 210.588 189.629 203.379 189.629 194.415C189.629 185.451 194.453 178.243 200.431 178.243C206.408 178.243 211.232 185.544 211.232 194.415Z" fill="#1F140F"/>
<path d="M311.747 194.415C311.747 203.264 306.901 210.588 300.923 210.588C294.945 210.588 290.121 203.379 290.121 194.415C290.121 185.451 294.968 178.243 300.923 178.243C306.878 178.243 311.747 185.544 311.747 194.415Z" fill="#1F140F"/>
<path d="M286.613 177.272C288.061 173.049 290.915 169.453 294.697 167.085C298.478 164.717 302.958 163.721 307.385 164.265C308.047 164.253 308.677 163.983 309.143 163.513C309.608 163.043 309.872 162.409 309.878 161.747C309.861 161.088 309.593 160.461 309.13 159.993C308.667 159.526 308.043 159.252 307.385 159.229C301.843 158.666 296.274 160.015 291.602 163.053C286.931 166.09 283.436 170.635 281.697 175.932C280.681 179.005 285.528 180.322 286.544 177.272H286.613Z" fill="#1F140F"/>
<path d="M225.289 175.932C223.55 170.635 220.055 166.09 215.383 163.053C210.711 160.015 205.143 158.666 199.6 159.229C198.942 159.252 198.318 159.526 197.855 159.993C197.392 160.461 197.125 161.088 197.107 161.747C197.113 162.409 197.377 163.043 197.843 163.513C198.308 163.983 198.939 164.253 199.6 164.265C204.027 163.721 208.507 164.717 212.289 167.085C216.07 169.453 218.924 173.049 220.373 177.272C221.388 180.322 226.235 179.005 225.219 175.932H225.289Z" fill="#1F140F"/>
<path d="M276.135 112.144C291.275 100.592 306.139 83.1261 309.117 63.6268C310.063 57.1578 309.44 49.7647 304.501 44.9361C297.392 37.8203 286.452 39.6685 278.097 43.1572L284.259 46.6689C281.443 36.3648 276.319 26.2224 267.456 19.8458C263.807 17.1979 259.53 15.5494 255.049 15.0631C250.568 14.5769 246.038 15.2698 241.906 17.0734C221.873 25.6679 214.441 52.0058 214.556 71.8747C214.556 84.9974 217.787 98.8364 225.727 109.51C229.512 114.639 238.237 109.626 234.382 104.427C220.349 85.5288 221.249 54.3392 235.051 35.4637C239.852 28.9024 247.584 23.0572 256.124 25.3675C266.579 28.1862 271.98 39.8303 274.588 49.3489C274.954 50.6275 275.809 51.7104 276.966 52.3633C278.124 53.0162 279.492 53.1865 280.774 52.8375C285.39 50.9199 294.068 47.4775 297.9 52.6064C300.554 56.1644 299.446 61.8478 298.407 65.7523C294.391 80.7002 283.105 94.285 271.011 103.526C265.933 107.408 271.011 116.118 276.065 112.19L276.135 112.144Z" fill="#1F140F"/>
<path d="M224.458 324.811C181.32 316.84 140.791 289.047 125.05 246.906C109.517 205.32 122.027 159.483 153.762 129.194C172.527 111.67 195.802 99.7327 220.973 94.724C226.904 93.4764 224.389 84.3968 218.48 85.6443C172.065 95.394 130.082 127.23 114.756 173.183C99.7772 218.027 115.033 267.122 149.562 298.496C169.956 316.787 195.02 329.056 221.965 333.937C227.874 335.023 230.413 325.966 224.458 324.857V324.811Z" fill="#1F140F"/>
<path d="M282.505 333.267C327.165 324.025 367.51 294.476 384.543 251.388C401.415 208.67 390.013 160.222 358.809 127.254C340.356 108.145 317.034 94.4518 291.368 87.6543C285.528 86.0602 283.035 95.1167 288.875 96.7109C330.027 107.962 366.702 137.974 378.889 179.883C390.775 220.73 376.165 263.725 345.099 291.889C326.673 308.274 304.212 319.44 280.035 324.233C274.126 325.458 276.619 334.514 282.528 333.29L282.505 333.267Z" fill="#1F140F"/>
<path d="M389.229 180.415C396.153 175.378 405.385 172.837 413.764 171.658C437.606 168.285 461.009 177.249 480.697 190.141L479.104 188.085C480.341 193.514 481.235 199.016 481.782 204.558C483.289 218.709 483.529 232.966 482.497 247.16C479.589 287.014 465.279 326.266 436.336 354.499C414.179 376.031 385.698 389.154 356.016 396.801L360.217 401.029C362.495 387.085 365.577 373.284 369.449 359.697C376.65 333.775 386.021 307.576 401.254 285.212C409.032 273.66 418.818 263.24 431.513 257.28C435.505 255.408 432.02 249.494 428.05 251.342C403.816 262.755 389.021 288.954 378.728 312.474C368.951 335.402 361.505 359.257 356.501 383.678C355.393 388.83 354.331 394.006 353.524 399.204C353.376 399.787 353.383 400.399 353.544 400.979C353.704 401.559 354.013 402.087 354.439 402.511C354.865 402.935 355.394 403.241 355.974 403.398C356.554 403.556 357.165 403.559 357.747 403.409C392.253 394.652 425.188 378.134 448.961 351.079C466.974 330.089 479.37 304.866 484.99 277.772C489.557 256.424 491.041 234.53 489.398 212.759C488.914 206.013 488.152 199.267 487.09 192.59C486.813 190.903 486.559 189.217 486.19 187.553C485.521 184.504 483.12 183.372 480.443 181.731C453.462 165.282 415.864 155.879 387.152 173.576C386.69 173.853 386.206 174.154 385.767 174.477C382.213 177.041 385.652 183.002 389.229 180.415Z" fill="#1F140F"/>
<path d="M364.602 396.062C364.602 395.134 364.672 394.207 364.81 393.289C364.671 394.514 364.81 393.058 364.925 392.642C365.04 392.227 365.133 391.533 365.271 391.002C365.574 389.675 365.944 388.364 366.379 387.074C366.633 386.358 366.887 385.642 367.187 384.926C367.233 384.774 367.295 384.626 367.371 384.487L368.041 383.054C368.845 381.411 369.754 379.821 370.764 378.295C373.233 374.664 376.273 371.458 379.766 368.8C385.01 364.927 390.881 361.989 397.122 360.113C401.3 358.796 399.43 352.165 395.299 353.505C383.88 356.761 373.766 363.515 366.379 372.82C362.219 378.321 359.455 384.751 358.324 391.557C358.032 393.041 357.878 394.549 357.862 396.062C357.862 396.981 358.227 397.862 358.876 398.512C359.526 399.162 360.406 399.527 361.324 399.527C362.243 399.527 363.123 399.162 363.772 398.512C364.422 397.862 364.786 396.981 364.786 396.062H364.602Z" fill="#1F140F"/>
<path d="M366.841 366.767C366.841 365.773 366.679 367.552 366.841 366.767C367.002 365.981 367.071 365.404 367.233 364.71C367.461 363.671 367.746 362.645 368.087 361.638C368.272 361.06 368.479 360.483 368.687 359.905C368.895 359.327 368.918 359.304 369.056 359.004C369.195 358.704 369.056 359.004 369.056 359.004C369.056 359.004 369.287 358.519 369.38 358.288C372.547 351.221 377.756 345.267 384.336 341.191C390.018 337.703 396.267 335.24 402.8 333.914C407.116 332.966 405.293 326.336 400.977 327.283C389.621 329.801 378.519 334.953 370.695 343.779C365.985 348.998 362.598 355.273 360.817 362.077C360.42 363.591 360.157 365.137 360.032 366.697C359.663 371.087 366.518 371.064 366.956 366.697L366.841 366.767Z" fill="#1F140F"/>
<path d="M353.131 271.326C357.536 275.672 362.619 279.27 368.18 281.977C378.843 287.245 390.545 288.585 401.647 283.825C402.404 283.36 402.954 282.62 403.182 281.76C403.409 280.9 403.298 279.985 402.87 279.205C402.397 278.455 401.658 277.912 400.802 277.685C399.946 277.458 399.036 277.563 398.254 277.98C389.022 281.908 378.889 279.967 370.326 275.393C365.791 273.113 361.647 270.126 358.048 266.544C357.389 265.986 356.545 265.695 355.683 265.731C354.821 265.767 354.003 266.126 353.393 266.736C352.783 267.347 352.424 268.165 352.389 269.029C352.353 269.892 352.643 270.737 353.201 271.396L353.131 271.326Z" fill="#1F140F"/>
</g>
<defs>
<clipPath id="clip0_45_7334">
<rect width="502" height="416" fill="white"/>
</clipPath>
</defs>
</svg>
