<svg width="265" height="266" viewBox="0 0 265 266" fill="none" xmlns="http://www.w3.org/2000/svg">
<path d="M132.11 264.921C95.2978 264.921 66.4449 242.848 65.6158 214.635C55.6665 201.857 50.1944 186.09 50.1944 169.827C50.1944 168.831 50.3602 167.669 50.5261 166.673L52.8475 156.384C53.1792 154.558 53.6767 152.567 53.8425 150.409L51.0235 151.737C49.1995 152.567 47.2096 153.065 45.2198 153.065H44.8881C44.3907 153.065 43.8932 153.065 43.3957 153.065C43.0641 153.065 42.5666 153.065 42.235 153.065H41.9034C35.1047 153.065 28.6377 149.414 25.3212 143.439C21.839 137.299 22.0048 129.831 25.6529 124.022L37.4262 105.103C41.5717 98.4645 47.2096 92.9879 54.0083 89.0049C53.0134 83.1964 52.8475 77.0559 53.8425 70.9154C54.5058 55.6473 59.812 44.86 60.4753 43.6983C62.9626 39.0515 67.7715 36.0642 73.0777 36.0642C73.5752 36.0642 74.0727 36.0642 74.5701 36.2302C76.2283 36.3961 77.7207 36.894 79.2131 37.5578C79.2131 37.2259 79.2131 37.06 79.2131 36.728C79.0473 35.8982 79.0473 35.0685 79.0473 34.2387C79.0473 24.1152 87.1725 15.9833 97.2876 15.9833C97.4534 15.9833 97.7851 15.9833 97.9509 15.9833C101.102 10.3407 107.237 6.52363 113.87 6.52363C115.694 6.52363 117.518 6.85555 119.176 7.35343C122.492 3.03851 127.633 0.383179 133.271 0.383179C139.075 0.383179 144.381 3.20447 147.697 7.51938C149.687 6.85555 151.843 6.35768 153.833 6.35768C160.134 6.35768 165.772 9.51088 169.088 14.6556C178.872 14.9875 186.831 22.9535 186.831 32.911C186.831 34.4046 186.665 35.7323 186.334 37.06C187.66 36.3961 189.153 36.0642 190.645 35.8982C191.142 35.8982 191.64 35.7323 192.137 35.7323C197.444 35.7323 202.252 38.7195 204.74 43.3664C205.569 44.86 212.202 58.3026 211.373 76.558C211.538 80.541 211.373 84.524 210.709 88.507C217.674 92.49 223.643 97.9666 227.789 104.937L239.396 123.856C243.044 129.831 243.21 137.299 239.728 143.273C236.412 149.248 229.945 152.899 223.146 152.899H222.814C222.483 152.899 222.151 152.899 221.819 152.899C221.322 152.899 220.99 152.899 220.493 152.899H220.327C218.171 152.899 216.181 152.401 214.357 151.571L209.88 149.414C210.046 151.737 210.378 153.895 210.875 156.218L213.197 166.507C213.362 167.503 213.528 168.665 213.528 169.661C213.528 185.759 208.056 201.525 198.107 214.469C197.775 242.848 168.922 264.921 132.11 264.921Z" fill="black"/>
<path d="M260.524 137.913C260.524 205.926 203.422 261.295 132.691 261.295C61.9605 261.295 4.85852 205.926 4.85852 137.913C4.85852 69.899 61.9605 14.5305 132.691 14.5305C203.422 14.5305 260.524 69.899 260.524 137.913Z" fill="#62428D" stroke="black" stroke-width="8"/>
<path d="M235.749 126.512L224.141 107.592C219.664 100.29 213.197 94.8135 205.735 91.3284C207.062 86.1837 207.393 81.2049 207.062 76.89C207.891 59.6304 201.424 46.5197 201.092 45.8558C199.268 42.3707 195.62 40.3792 191.64 40.8771C187.827 41.375 184.51 44.0303 183.515 47.8473C181.525 55.4814 178.541 61.7878 175.39 66.7666C175.224 66.4347 175.224 66.1027 175.058 65.7708C175.224 65.2729 175.224 64.6091 175.39 64.1112L176.053 53.3239C178.872 51.4984 180.696 48.3452 180.53 44.8601C180.53 43.8643 180.365 42.8686 179.867 41.8728C179.867 41.7069 179.701 41.5409 179.536 41.209C181.36 38.8856 182.354 36.0643 182.354 32.9111C182.354 25.443 176.219 19.3025 168.757 19.3025C167.928 19.3025 167.265 19.3025 166.436 19.4685C164.446 14.4897 159.471 11.0046 153.833 11.0046C150.848 11.0046 148.03 12.0003 145.874 13.6599C143.884 8.51522 139.075 4.86414 133.271 4.86414C127.634 4.86414 122.991 8.1833 120.835 12.9961C118.679 11.6684 116.192 10.8386 113.539 10.8386C107.403 10.8386 102.097 14.9876 100.439 20.6302C99.2781 20.2983 98.1173 20.1323 96.7908 20.1323C89.3288 20.1323 83.1934 26.2728 83.1934 33.7409C83.1934 34.4047 83.1934 35.0685 83.3593 35.7324C83.5251 37.7239 84.1884 39.7154 85.1833 41.5409C86.344 43.5324 88.0023 45.026 89.9921 46.0218L90.8212 61.6219C90.8212 63.9453 90.8212 65.6049 90.8212 66.9325C90.8212 67.2644 90.8212 67.7623 90.8212 68.0942V68.2602C87.339 62.9495 84.0225 56.1452 81.8669 47.8473C80.8719 44.0303 77.7213 41.209 73.7416 40.8771C69.9277 40.3792 66.1139 42.3707 64.2898 45.8558C63.9582 46.5197 58.6519 56.975 58.1544 71.4134C57.3253 77.056 57.1595 84.1922 58.9836 91.6603C51.8532 95.1454 45.552 100.622 41.0749 107.758L29.6332 126.512C26.8142 130.992 26.8142 136.635 29.3016 141.116C31.7889 145.597 36.5977 148.418 41.7382 148.418H41.904C42.2356 148.418 42.7331 148.418 43.0647 148.252C43.5622 148.252 44.0596 148.418 44.5571 148.418H44.7229C46.0495 148.418 47.3761 148.086 48.7026 147.422L59.1494 142.444C58.9836 147.422 58.4861 153.065 57.4912 157.214L55.1697 167.503C55.0038 168.167 55.0038 168.831 55.0038 169.661C55.0038 185.427 60.4759 200.695 70.4252 212.81C70.4252 212.976 70.4252 213.142 70.4252 213.142C70.4252 239.363 97.6199 259.942 132.277 259.942C166.933 259.942 194.128 239.363 194.128 213.142C194.128 212.976 194.128 212.81 194.128 212.644C203.911 200.529 209.549 185.261 209.549 169.495C209.549 168.831 209.549 168.001 209.383 167.337L207.062 157.048C206.067 152.733 205.735 148.252 205.901 143.771C205.901 143.107 205.901 142.444 205.901 141.78L217.011 147.09C218.172 147.754 219.498 147.92 220.991 148.086H221.157C221.654 148.086 221.986 148.086 222.483 147.92C222.815 147.92 223.147 148.086 223.644 148.086H223.81C228.95 148.086 233.759 145.265 236.246 140.784C238.568 136.635 238.568 130.992 235.749 126.512Z" fill="white"/>
<path d="M95.4642 94.8135C95.4642 94.8135 77.3897 86.5156 70.9227 61.4559C70.9227 61.4559 62.3 78.2177 70.7569 96.1412" fill="#D8DADE"/>
<path d="M169.255 94.8135C169.255 94.8135 187.329 86.5156 193.796 61.4559C193.796 61.4559 202.419 78.2177 193.962 96.1412" fill="#D8DADE"/>
<path d="M76.3948 108.754C66.4456 106.431 55.833 110.745 50.1951 119.707L41.7382 133.482C40.2458 135.971 42.0698 139.124 44.8888 138.958L64.2899 129.665" fill="#E0BC8F"/>
<path d="M189.319 108.754C199.268 106.431 209.881 110.745 215.519 119.707L223.976 133.482C225.468 135.971 223.644 139.124 220.825 138.958L201.258 129.665" fill="#E0BC8F"/>
<path d="M132.111 245.006C158.028 245.006 179.038 229.625 179.038 210.652C179.038 191.68 158.028 176.299 132.111 176.299C106.193 176.299 85.1833 191.68 85.1833 210.652C85.1833 229.625 106.193 245.006 132.111 245.006Z" fill="#E0BC8F"/>
<path d="M80.872 205.674C70.7569 196.214 72.7468 192.563 72.7468 177.627L75.0683 167.835C76.229 162.524 76.7265 157.048 76.7265 151.571C76.5607 126.014 96.1276 101.452 124.98 101.452H141.065C170.084 101.452 190.977 127.009 189.817 154.227C189.651 159.039 189.982 163.852 190.977 168.665L193.133 177.793C193.133 192.729 194.957 196.546 184.842 206.171L183.847 205.674C171.742 171.984 105.248 158.541 80.872 205.674Z" fill="#E0BC8F"/>
<path d="M99.6098 158.541C102.724 158.541 105.248 154.826 105.248 150.244C105.248 145.661 102.724 141.946 99.6098 141.946C96.4961 141.946 93.9719 145.661 93.9719 150.244C93.9719 154.826 96.4961 158.541 99.6098 158.541Z" fill="black"/>
<path d="M166.104 158.541C169.218 158.541 171.742 154.826 171.742 150.244C171.742 145.661 169.218 141.946 166.104 141.946C162.99 141.946 160.466 145.661 160.466 150.244C160.466 154.826 162.99 158.541 166.104 158.541Z" fill="black"/>
<path d="M124.483 212.644C124.483 220.61 120.172 226.916 114.865 226.916C109.559 226.916 105.248 220.444 105.248 212.644C105.248 204.844 109.559 198.371 114.865 198.371C120.172 198.371 124.483 204.678 124.483 212.644Z" fill="black"/>
<path d="M149.522 226.916C154.834 226.916 159.14 220.526 159.14 212.644C159.14 204.761 154.834 198.371 149.522 198.371C144.21 198.371 139.904 204.761 139.904 212.644C139.904 220.526 144.21 226.916 149.522 226.916Z" fill="black"/>
<path d="M85.1834 210.486C75.5658 201.359 69.0987 188.912 67.7722 175.635C67.6063 173.478 67.2747 171.486 67.6063 169.661C68.1038 167.669 68.4354 165.844 68.9329 163.852C70.0937 159.039 70.9228 154.392 71.4202 149.414C71.9177 143.273 71.4202 136.967 72.581 130.826C73.5759 125.35 75.3999 119.873 78.0531 114.894C83.1935 104.937 91.3188 96.8049 101.434 91.9921C106.74 89.5028 112.544 87.8432 118.348 87.3453C121.664 87.0134 124.98 87.1793 128.297 87.1793C136.422 87.1793 144.713 86.6815 152.673 88.507C175.059 93.8177 191.309 114.562 192.801 137.465C192.967 140.618 192.801 143.937 192.801 147.09C192.801 151.239 193.299 155.388 194.128 159.371C194.791 162.856 195.62 166.175 196.449 169.661C196.947 171.486 196.615 173.478 196.284 175.801C195.952 179.12 195.289 182.439 194.294 185.593C192.47 192.065 189.319 198.039 185.339 203.35C183.35 206.005 181.194 208.329 178.872 210.486C175.888 213.308 180.365 217.623 183.35 214.967C193.796 205.01 200.595 191.733 202.253 177.295C202.585 174.473 203.082 171.32 202.419 168.499C202.087 166.673 201.59 164.848 201.092 163.022C199.766 157.38 198.771 151.903 198.771 146.095C198.771 139.456 198.771 133.15 197.279 126.843C195.952 120.869 193.465 115.06 190.48 109.75C184.179 99.1283 174.727 90.3325 163.451 85.5198C157.481 82.8644 151.18 81.3708 144.713 80.8729C141.231 80.707 137.915 80.707 134.432 80.707C125.146 80.707 116.026 80.3751 106.906 82.8644C83.1935 90.0006 66.6114 113.235 65.6165 137.963C65.4507 144.933 65.2848 151.737 63.7925 158.541C62.9633 161.861 62.1342 165.18 61.471 168.499C60.9735 171.32 61.471 174.307 61.8026 177.129C62.3001 180.78 62.9633 184.431 64.1241 187.916C66.2798 194.72 69.4304 201.193 73.7417 206.835C75.8974 209.657 78.2189 212.312 80.872 214.801C83.691 217.623 88.0023 213.142 85.1834 210.486Z" fill="black"/>
<path d="M181.857 213.308C181.691 230.899 164.612 242.018 149.19 246.001C130.784 250.814 108.398 248.159 93.6402 235.546C87.8364 230.567 83.1934 223.929 82.3643 216.295C81.5352 208.661 84.3542 201.359 89.3288 195.55C101.931 181.112 123.654 176.631 141.894 179.12C159.471 181.61 181.691 192.895 181.857 213.308C181.857 216.627 187.163 216.627 187.163 213.308C186.998 193.393 168.591 180.282 151.014 175.635C130.618 170.159 105.911 173.478 89.6605 187.75C83.0276 193.559 78.2188 201.359 77.2239 210.154C76.229 218.95 79.5454 227.248 85.0175 234.052C98.449 250.482 122.825 255.461 143.055 252.64C161.129 250.15 182.355 239.197 186.5 219.78C186.998 217.623 187.163 215.631 187.163 213.474C187.163 209.988 182.023 209.989 181.857 213.308Z" fill="black"/>
<path d="M180.862 100.124C191.143 97.8007 201.921 100.954 209.383 108.422C213.695 112.737 216.68 118.545 219.83 123.69C221.488 126.18 222.981 128.835 224.639 131.324C224.971 131.822 225.302 132.32 225.468 132.652C225.8 133.316 225.966 134.146 225.634 134.809C225.468 135.141 223.644 136.469 223.644 136.303C223.644 136.137 225.136 136.967 224.473 136.469C224.142 136.303 223.976 136.137 223.644 136.137C222.649 135.639 221.82 135.307 220.825 134.809C217.84 133.316 215.021 131.988 212.037 130.494C206.896 128.005 201.921 125.682 196.781 123.192C193.796 121.699 191.143 126.18 194.128 127.673C199.103 129.997 204.077 132.486 209.052 134.809C212.202 136.303 215.519 137.963 218.669 139.456C220.659 140.452 222.649 141.78 224.805 141.282C230.111 140.286 232.433 134.477 229.945 129.831C228.785 127.673 227.458 125.682 226.131 123.69C222.649 118.048 219.499 112.073 215.353 106.928C206.73 96.473 192.636 91.9922 179.536 94.8135C176.219 95.8092 177.546 100.788 180.862 100.124Z" fill="black"/>
<path d="M161.793 96.1411C165.109 94.6475 168.094 92.3241 170.913 90.0007C177.712 84.5241 183.349 77.5538 187.661 69.9197C190.977 63.9452 193.465 57.4729 195.123 50.8345C193.465 51.0005 191.972 51.3324 190.314 51.4984C190.977 52.826 191.143 53.1579 191.641 54.8175C192.801 57.9707 193.63 61.1239 194.128 64.2771C195.952 74.4006 194.791 85.0219 190.48 94.3156C189.153 97.3028 193.63 99.9582 194.957 96.9709C201.756 82.2006 202.087 63.6133 194.625 48.843C193.63 46.8515 190.314 47.3494 189.817 49.5069C185.671 65.6048 176.219 81.2049 161.959 90.0007C160.964 90.6645 159.969 91.1624 158.974 91.6603C156.155 92.9879 158.808 97.4688 161.793 96.1411Z" fill="black"/>
<path d="M85.8466 95.1454C74.4049 92.6561 62.3 95.6433 53.5115 103.443C48.2052 108.256 44.723 114.894 41.0749 120.869C39.4167 123.69 37.5927 126.346 35.9344 129.167C34.1104 132.32 33.4471 135.805 35.9344 138.792C37.5927 140.784 40.5774 142.278 43.2306 141.282C43.728 141.116 44.0597 140.784 44.5571 140.618C47.2103 139.29 49.8634 138.129 52.5166 136.801C58.3203 133.98 64.124 131.158 69.9278 128.503C72.9126 127.009 70.2594 122.529 67.2746 124.022C63.1291 126.014 58.8178 128.005 54.6722 130.163C51.6875 131.656 48.7027 132.984 45.5521 134.478C44.0597 135.307 42.0698 135.805 40.5774 136.801H40.4116C40.7433 136.303 41.5724 136.967 41.0749 136.469L40.5774 136.303C39.9141 135.805 39.4167 135.473 39.2509 134.478C39.085 133.648 39.5825 132.984 39.9141 132.32C41.2407 129.997 42.7331 127.839 44.0597 125.516C47.0445 120.703 49.6976 115.558 53.1798 111.243C60.476 101.95 72.5809 97.8008 84.1884 100.29C87.8365 100.788 89.163 95.8093 85.8466 95.1454Z" fill="black"/>
<path d="M106.243 91.4943C103.424 90.1666 100.605 88.1751 98.2832 86.3496C91.8161 81.2049 86.5098 74.7325 82.5301 67.5963C79.2137 61.7878 76.8922 55.6473 75.234 49.3409C74.7365 47.1834 71.4201 46.6856 70.4252 48.6771C62.9632 63.2814 63.4607 82.0347 70.0935 96.805C71.4201 99.7922 76.0631 97.1369 74.5707 94.1496C70.2594 84.856 69.0986 74.2346 70.9227 64.1112C71.5859 60.958 72.415 57.6388 73.41 54.6516C74.0733 52.992 74.0733 52.826 74.7365 51.3324C73.0783 51.1664 71.5859 50.8345 69.9277 50.6686C74.4049 68.0942 84.6858 84.524 100.107 94.1496C101.102 94.8135 102.097 95.4773 103.258 95.9752C106.74 97.4688 109.393 92.9879 106.243 91.4943Z" fill="black"/>
<path d="M169.42 30.5877C169.089 30.4217 168.591 30.4217 168.26 30.4217C167.099 30.4217 165.938 30.9196 165.275 31.7494C164.114 33.077 163.948 34.7366 164.777 36.0643C164.943 36.2302 165.109 36.3962 165.275 36.7281C165.772 37.226 165.938 37.8898 165.772 38.3877C165.607 39.0515 165.109 39.5494 164.612 39.7154L158.476 42.2047C158.31 42.3707 157.979 42.3707 157.813 42.3707C157.481 42.3707 157.316 42.3707 156.984 42.2047C156.486 42.0388 156.155 41.5409 155.989 41.209L152.341 32.5792C152.175 32.0813 152.175 31.4174 152.507 30.9196C152.838 30.4217 153.336 30.0898 153.999 29.9238H154.165H154.331C155.989 29.5919 157.316 27.9323 157.316 26.2727C157.316 24.6132 156.321 23.2855 154.662 22.6217C154.331 22.4557 153.833 22.4557 153.502 22.4557C152.341 22.4557 151.18 22.9536 150.517 23.7834C149.356 25.111 149.19 26.7706 150.019 28.0983C150.185 28.2642 150.351 28.4302 150.517 28.5962C150.849 28.9281 151.014 29.4259 151.014 29.9238C151.014 30.4217 150.683 30.9196 150.351 31.2515L144.547 36.3962C144.381 36.7281 143.884 36.8941 143.387 36.8941H143.221C142.723 36.8941 142.226 36.5622 141.894 36.0643L134.266 26.2727C133.935 25.7749 133.769 25.277 133.935 24.7791C134.101 24.2812 134.432 23.7834 134.93 23.4515C136.09 22.7876 136.92 21.46 136.92 20.1323C136.92 18.4727 135.925 17.145 134.266 16.4812C133.935 16.3152 133.437 16.3152 133.106 16.3152C131.945 16.3152 130.784 16.8131 130.121 17.6429C128.96 18.9706 128.794 20.6302 129.623 21.9578C129.955 22.4557 130.452 22.9536 131.116 23.2855C131.613 23.6174 131.945 23.9493 132.111 24.6132C132.277 25.111 132.111 25.7749 131.779 26.2727L123.82 36.3962C123.488 36.8941 122.991 37.06 122.493 37.226H122.327C121.83 37.226 121.332 37.06 121.001 36.7281L115.694 32.0813C115.197 31.7494 115.031 31.0855 115.031 30.5877C115.031 30.0898 115.363 29.4259 115.86 29.094C116.855 28.4302 117.353 27.2685 117.353 26.1068C117.353 24.4472 116.358 23.1195 114.699 22.4557C114.368 22.2897 113.87 22.2897 113.539 22.2897C112.378 22.2897 111.217 22.7876 110.554 23.6174C109.393 24.9451 109.227 26.6047 110.056 27.9323C110.554 28.7621 111.383 29.426 112.544 29.5919C113.041 29.7579 113.539 30.0898 113.87 30.5877C114.202 31.0855 114.202 31.7494 113.87 32.2472L110.056 41.7069C109.891 42.2047 109.559 42.5367 109.062 42.7026C108.896 42.8686 108.564 42.8686 108.232 42.8686C107.901 42.8686 107.735 42.8686 107.569 42.7026L100.936 40.0473C100.439 39.8813 99.9414 39.3834 99.7756 38.8856C99.6098 38.3877 99.7756 37.7239 100.107 37.226C100.605 36.5622 100.771 35.7324 100.771 35.0685C100.771 33.4089 99.7756 32.0813 98.1174 31.4175C97.7857 31.2515 97.2883 31.2515 96.9566 31.2515C95.7959 31.2515 94.6351 31.7494 93.9718 32.5792C92.8111 33.9068 92.6453 35.5664 93.4744 36.8941C94.1377 38.0558 95.4642 38.7196 96.9566 38.7196C97.1224 38.7196 97.2883 38.7196 97.2883 38.7196H97.4541C97.9515 38.7196 98.449 38.8856 98.7806 39.2175C99.1123 39.5494 99.4439 40.0473 99.4439 40.5452L100.605 61.7878C100.605 61.9538 100.605 62.2857 100.439 62.4517C100.107 63.6134 100.107 65.107 100.273 66.4346C100.273 66.9325 100.273 67.4304 100.273 67.9283V86.1837C100.605 86.6816 100.605 87.3454 100.273 87.8433C100.273 88.0092 100.107 88.0092 100.107 88.1752C100.107 88.3411 100.107 88.5071 99.9414 88.5071C99.9414 88.5071 99.9414 88.6731 99.9414 88.839C99.9414 88.839 99.9414 89.005 100.107 89.005C100.605 90.8305 104.087 91.9922 105.413 92.3242C110.056 93.8178 114.865 94.3156 120.835 94.8135C124.649 95.1454 128.628 95.3114 132.608 95.3114C135.759 95.3114 139.075 95.1454 142.226 94.9795C147.2 94.6476 153.004 94.1497 158.642 92.6561C160.798 92.1582 164.777 90.9965 165.441 89.005C165.607 88.5071 165.607 88.1752 165.441 87.8433C165.109 87.3454 165.109 86.6816 165.441 86.0177V67.7623C165.441 67.2644 165.441 66.6006 165.441 66.1027C165.441 64.7751 165.607 63.4474 165.275 62.4517C165.275 62.2857 165.109 62.1197 165.109 61.9538C164.943 61.6219 164.943 61.4559 164.943 61.124L166.27 39.2175C166.27 38.2217 167.099 37.3919 168.26 37.3919C168.426 37.3919 168.757 37.3919 168.923 37.3919C170.581 37.06 171.908 35.4004 171.908 33.7409C172.074 32.5792 171.079 31.0855 169.42 30.5877Z" fill="white"/>
<path d="M164.778 51.1665L159.969 53.158C159.803 53.158 159.637 53.3239 159.471 53.3239C159.305 53.3239 159.14 53.3239 158.808 53.158C158.476 52.992 158.145 52.6601 157.979 52.3282L155.16 45.3579C154.994 44.8601 153.999 44.1962 153.668 44.5281L149.356 48.5111C149.025 48.8431 148.693 48.8431 148.361 48.8431H148.195C147.698 48.8431 147.366 48.5111 147.035 48.1792L141.065 40.3792C140.733 40.0473 139.407 40.0473 139.075 40.3792L132.94 48.5111C132.608 48.8431 132.277 49.009 131.779 49.175H131.613C131.282 49.175 130.784 49.009 130.618 48.8431L126.473 45.026C126.141 44.6941 125.312 44.8601 125.146 45.192L122.327 52.8261C122.161 53.158 121.83 53.4899 121.498 53.6558C121.332 53.6558 121.167 53.8218 120.835 53.8218C120.669 53.8218 120.503 53.8218 120.337 53.6558L115.197 51.4984C114.7 51.3324 114.036 51.4984 114.036 51.8303L115.031 68.758C115.031 68.924 115.031 69.09 115.031 69.2559C114.7 70.0857 114.865 71.2474 114.865 72.4091C114.865 72.907 114.865 73.2389 114.865 73.7368V88.3411C115.031 88.839 115.031 89.3369 114.865 89.6688C114.865 89.6688 114.865 89.8347 114.7 90.0007C114.7 90.0007 114.7 90.1667 114.7 90.3326V90.4986V90.6645C115.197 92.1582 117.85 92.9879 118.845 93.3199C122.493 94.4816 126.307 94.9794 130.784 95.3114C133.769 95.4773 136.92 95.6433 140.07 95.6433C142.557 95.6433 145.045 95.6433 147.532 95.4773C151.346 95.3114 155.989 94.8135 160.3 93.6518C161.959 93.1539 165.109 92.3241 165.607 90.6645C165.772 90.3326 165.607 90.0007 165.607 89.8347C165.441 89.3369 165.441 88.839 165.607 88.5071V73.9027C165.607 73.4049 165.607 73.073 165.607 72.5751C165.607 71.5793 165.607 70.5836 165.441 69.7538C165.441 69.5878 165.441 69.4219 165.275 69.4219C165.275 69.2559 165.109 68.924 165.109 68.758L166.104 51.3324C166.27 50.3367 165.275 51.0005 164.778 51.1665Z" fill="#F8BE3F"/>
<path d="M169.089 63.6133C169.586 55.6474 170.084 47.6814 170.415 39.7154C170.581 37.8898 168.26 35.8983 166.436 36.7281C163.119 38.0558 159.637 39.5494 156.321 40.8771C157.647 41.5409 158.808 42.3707 160.135 43.0345C158.311 38.7196 156.652 34.2387 154.828 29.9238C153.999 27.7664 151.512 26.9366 149.688 28.5962C146.869 31.2515 144.05 33.7409 141.231 36.3962C142.889 36.5622 144.547 36.8941 146.04 37.06C142.558 32.5792 139.241 27.9323 135.759 23.4514C134.266 21.4599 131.945 21.4599 130.453 23.4514C126.97 28.0983 123.488 32.7451 119.84 37.3919C121.498 37.226 123.156 36.8941 124.649 36.7281C121.83 34.2387 119.177 31.7494 116.358 29.26C114.534 27.6004 112.046 28.4302 111.217 30.5877C109.393 34.9026 107.735 39.3834 105.911 43.6984C107.238 43.0345 108.398 42.2047 109.725 41.5409C106.409 40.2132 102.926 38.7196 99.6098 37.3919C97.7858 36.5622 95.6301 38.5537 95.6301 40.3792C96.1276 48.5111 96.4592 56.4771 96.9567 64.6091C97.1225 68.5921 103.424 68.5921 103.258 64.6091C102.76 56.4771 102.429 48.5111 101.931 40.3792C100.605 41.3749 99.2782 42.3707 97.9516 43.3664C101.268 44.6941 104.75 46.1877 108.067 47.5154C109.725 48.1792 111.383 46.6856 111.881 45.3579C113.539 41.043 115.363 36.5622 117.187 32.2472C115.529 32.7451 113.705 33.243 112.046 33.5749C114.865 36.0643 117.519 38.5537 120.337 41.043C121.996 42.5366 123.986 42.0388 125.146 40.3792C128.629 35.7324 132.111 31.0855 135.759 26.4387C133.935 26.4387 132.111 26.4387 130.453 26.4387C133.935 30.9196 137.251 35.5664 140.733 40.0473C141.894 41.7069 144.05 42.2047 145.542 40.7111C148.361 38.0558 151.18 35.5664 153.999 32.9111C152.341 32.4132 150.517 31.9153 148.859 31.5834C150.683 35.8983 152.341 40.3792 154.165 44.6941C154.662 46.1877 156.321 47.5154 157.979 46.8516C161.295 45.5239 164.778 44.0303 168.094 42.7026C166.767 41.7069 165.441 40.7111 164.114 39.7154C163.617 47.6814 163.119 55.6474 162.788 63.6133C162.622 67.5963 168.923 67.5963 169.089 63.6133Z" fill="black"/>
<path d="M169.089 75.0645C169.089 73.239 169.255 71.4134 169.089 69.5879C168.923 66.4347 166.436 64.4432 163.451 63.9453C158.974 63.1155 154.331 62.2857 149.854 61.7878C140.07 60.4602 130.121 60.2942 120.337 61.29C115.031 61.9538 109.725 62.7836 104.419 63.7793C101.6 64.2772 98.6148 65.273 97.7857 68.4262C97.2882 70.5836 97.6199 73.073 97.6199 75.0645C97.6199 78.3837 102.926 78.3837 102.926 75.0645C102.926 73.4049 102.595 71.4134 102.926 69.9198C103.092 69.4219 103.424 69.256 104.253 69.09C104.75 68.9241 105.248 68.924 105.745 68.924C109.891 68.2602 114.036 67.4304 118.182 66.9325C126.97 65.7708 135.925 65.7708 144.713 66.6006C149.522 67.0985 154.497 67.9283 159.305 68.7581C160.134 68.924 163.451 69.09 163.783 69.7538C164.114 70.4177 163.783 71.9113 163.783 72.4092C163.783 73.4049 163.783 74.2347 163.783 75.2305C163.783 78.5496 169.089 78.5496 169.089 75.0645Z" fill="black"/>
<path d="M97.4541 77.8857C97.4541 82.5325 97.4541 87.3453 97.4541 91.9922C97.4541 93.9837 99.2781 95.1454 101.102 94.6475C99.6098 94.9794 101.102 95.1454 101.765 95.3113C102.429 95.4773 103.258 95.8092 103.921 95.9752C105.579 96.473 107.403 96.9709 109.062 97.3028C112.212 97.9667 115.363 98.4646 118.513 98.9624C124.483 99.6263 130.453 99.9582 136.422 99.6263C145.211 99.2943 153.833 98.1326 162.29 95.9752C163.948 95.6433 165.441 95.1454 167.099 94.6475C168.26 94.3156 169.255 93.1539 169.255 91.9922C169.255 87.3453 169.255 82.5325 169.255 77.8857C169.255 76.724 168.426 75.3963 167.099 75.2304C144.713 70.5835 121.83 70.4176 99.444 75.2304C95.9617 76.0602 97.4541 81.5368 100.936 80.707C122.327 76.0602 144.216 76.2261 165.607 80.707C164.943 79.8772 164.28 78.8815 163.451 78.0517C163.451 82.6985 163.451 87.5113 163.451 92.1581C164.114 91.3283 164.777 90.3326 165.607 89.5028C151.346 94.1496 135.096 95.3113 120.337 93.8177C116.855 93.4858 113.373 92.822 109.891 91.9922C108.067 91.4943 106.243 90.9964 104.419 90.4985C102.926 90.0007 101.268 89.0049 99.6098 89.5028C100.771 90.3326 101.931 91.3283 103.258 92.1581C103.258 87.5113 103.258 82.6985 103.258 78.0517C103.092 74.2346 97.4541 74.2346 97.4541 77.8857Z" fill="black"/>
<path d="M115.695 24.7791C115.695 24.9451 115.695 24.9451 115.695 25.1111C115.695 25.443 115.695 24.9451 115.695 24.7791C115.695 25.1111 115.695 25.277 115.529 25.443C115.529 25.6089 115.363 25.6089 115.363 25.7749C115.363 25.7749 115.529 25.277 115.363 25.6089C115.197 25.7749 115.197 25.9409 115.031 26.1068C114.865 26.4387 115.363 25.7749 115.197 25.9409L115.031 26.1068L114.865 26.2728C114.7 26.4387 114.534 26.4387 115.031 26.2728C114.865 26.4387 114.7 26.4387 114.534 26.6047C114.534 26.6047 114.368 26.6047 114.368 26.7706C114.036 26.9366 114.865 26.6047 114.368 26.7706C114.202 26.7706 114.036 26.9366 113.87 26.9366C113.705 26.9366 113.539 26.9366 114.036 26.9366C113.87 26.9366 113.87 26.9366 113.705 26.9366C113.539 26.9366 113.373 26.9366 113.207 26.9366C112.876 26.9366 113.705 27.1026 113.373 26.9366C113.207 26.9366 113.207 26.9366 113.041 26.9366C112.876 26.9366 112.876 26.9366 112.71 26.7706C112.544 26.7706 112.544 26.6047 112.876 26.7706C112.71 26.6047 112.544 26.6047 112.378 26.4387L112.212 26.2728C112.046 26.1068 112.544 26.6047 112.378 26.4387C112.212 26.2728 112.046 26.1068 111.881 25.9409C112.212 26.1068 112.046 26.2728 112.046 26.1068C112.046 25.9409 111.881 25.9409 111.881 25.7749C111.881 25.7749 111.881 25.6089 111.715 25.6089C111.549 25.443 111.549 25.277 111.715 25.7749C111.715 25.6089 111.549 25.443 111.549 25.277V25.1111C111.383 24.7791 111.549 25.6089 111.549 25.1111C111.549 24.9451 111.549 24.7791 111.549 24.6132C111.549 24.4472 111.715 24.1153 111.549 24.7791V24.6132C111.549 24.4472 111.715 24.2813 111.715 24.1153C111.881 23.7834 111.549 24.6132 111.715 24.2813C111.715 24.1153 111.881 24.1153 111.881 23.9494L112.046 23.7834C112.212 23.6174 112.212 23.6174 111.881 23.9494C112.046 23.7834 112.046 23.6174 112.212 23.6174C112.212 23.6174 112.544 23.2855 112.212 23.6174C111.881 23.7834 112.212 23.6174 112.212 23.6174C112.378 23.4515 112.71 23.4515 112.71 23.2855C112.71 23.2855 112.212 23.4515 112.544 23.2855C112.71 23.2855 112.71 23.2855 112.876 23.1196C113.041 23.1196 113.539 22.9536 113.207 23.1196C112.876 23.1196 113.373 23.1196 113.539 23.1196C113.705 23.1196 113.705 23.1196 113.87 23.1196C114.202 23.1196 113.373 22.9536 113.705 23.1196C113.87 23.1196 114.202 23.2855 114.368 23.2855C114.7 23.4515 114.036 23.1196 114.202 23.2855C114.368 23.2855 114.368 23.4515 114.534 23.4515C114.534 23.4515 114.7 23.4515 114.7 23.6174C115.197 23.9494 114.534 23.4515 114.7 23.6174C114.865 23.7834 115.031 23.9494 115.031 23.9494C115.363 24.2813 114.7 23.4515 115.031 23.9494C115.031 24.1153 115.197 24.1153 115.197 24.2813C115.197 24.4472 115.363 24.4472 115.363 24.6132C115.529 24.9451 115.197 24.1153 115.363 24.4472C115.363 24.6132 115.529 24.9451 115.529 25.1111C115.529 25.277 115.529 25.277 115.529 24.9451C115.695 24.4472 115.695 24.6132 115.695 24.7791C115.695 25.9409 116.689 26.9366 117.684 26.7706C118.845 26.7706 119.84 25.9409 119.674 24.7791C119.674 22.1238 118.016 19.8004 115.529 18.9706C113.207 18.1408 110.388 18.8046 108.73 20.7961C107.072 22.7876 106.74 25.7749 108.067 28.0983C109.393 30.4217 112.046 31.4175 114.7 31.0856C117.519 30.5877 119.674 27.7664 119.674 24.9451C119.674 23.7834 118.679 22.7876 117.684 22.9536C116.689 22.7876 115.695 23.6174 115.695 24.7791Z" fill="black"/>
<path d="M99.1123 34.0727C99.1123 34.2387 99.1123 34.2387 99.1123 34.4046C99.1123 34.7366 99.1123 34.2387 99.1123 34.0727C99.1123 34.4046 99.1123 34.5706 98.9465 34.7366C98.9465 34.9025 98.7807 34.9025 98.7807 35.0685C98.7807 35.0685 98.9465 34.5706 98.7807 34.9025C98.6149 35.0685 98.6149 35.2344 98.4491 35.4004C98.2832 35.7323 98.7807 35.0685 98.6149 35.2344L98.4491 35.4004L98.2832 35.5663C98.1174 35.7323 97.9516 35.7323 98.4491 35.5663C98.2832 35.7323 98.1174 35.7323 97.9516 35.8983C97.9516 35.8983 97.7858 35.8983 97.7858 36.0642C97.4541 36.2302 98.2832 35.8983 97.7858 36.0642C97.62 36.0642 97.4541 36.2302 97.2883 36.2302C97.1225 36.2302 96.9567 36.2302 97.4541 36.2302C97.2883 36.2302 97.2883 36.2302 97.1225 36.2302C96.9567 36.2302 96.7908 36.2302 96.625 36.2302C96.2934 36.2302 97.1225 36.3961 96.7908 36.2302C96.625 36.2302 96.625 36.2302 96.4592 36.2302C96.2934 36.2302 96.2934 36.2302 96.1276 36.0642C95.9617 36.0642 95.9617 35.8983 96.2934 36.0642C96.1276 35.8983 95.9617 35.8983 95.7959 35.7323L95.6301 35.5663C95.4643 35.4004 95.9617 35.8983 95.7959 35.7323C95.6301 35.5663 95.4643 35.4004 95.2985 35.2344C95.6301 35.4004 95.4643 35.5663 95.4643 35.4004C95.4643 35.2344 95.2985 35.2344 95.2985 35.0685C95.2985 35.0685 95.2985 34.9025 95.1326 34.9025C94.9668 34.7366 94.9668 34.5706 95.1326 35.0685C95.1326 34.9025 94.9668 34.7366 94.9668 34.5706V34.4046C94.801 34.0727 94.9668 34.9025 94.9668 34.4046C94.9668 34.2387 94.9668 34.0727 94.9668 33.9068C94.9668 33.7408 95.1326 33.4089 94.9668 34.0727V33.9068C94.9668 33.7408 95.1326 33.5748 95.1326 33.4089C95.2985 33.077 94.9668 33.9068 95.1326 33.5748C95.1326 33.4089 95.2985 33.4089 95.2985 33.2429L95.4643 33.077C95.6301 32.911 95.6301 32.911 95.2985 33.2429C95.4643 33.077 95.4643 32.911 95.6301 32.911C95.6301 32.911 95.9617 32.5791 95.6301 32.911C95.2985 33.077 95.6301 32.911 95.6301 32.911C95.7959 32.7451 96.1276 32.7451 96.1276 32.5791C96.1276 32.5791 95.6301 32.7451 95.9617 32.5791C96.1276 32.5791 96.1276 32.5791 96.2934 32.4131C96.4592 32.4131 96.9567 32.2472 96.625 32.4131C96.2934 32.4131 96.7908 32.4131 96.9567 32.4131C97.1225 32.4131 97.1225 32.4131 97.2883 32.4131C97.62 32.4131 96.7908 32.2472 97.1225 32.4131C97.2883 32.4131 97.62 32.5791 97.7858 32.5791C98.1174 32.7451 97.4541 32.4131 97.6199 32.5791C97.7858 32.5791 97.7858 32.7451 97.9516 32.7451C97.9516 32.7451 98.1174 32.7451 98.1174 32.911C98.6149 33.2429 97.9516 32.7451 98.1174 32.911C98.2832 33.077 98.4491 33.2429 98.4491 33.2429C98.7807 33.5748 98.1174 32.7451 98.4491 33.2429C98.4491 33.4089 98.6149 33.4089 98.6149 33.5748C98.6149 33.7408 98.7807 33.7408 98.7807 33.9068C98.9465 34.2387 98.6149 33.4089 98.7807 33.7408C98.7807 33.9068 98.9465 34.2387 98.9465 34.4046C98.9465 34.5706 98.9465 34.5706 98.9465 34.2387C99.1123 33.7408 99.1123 33.9068 99.1123 34.0727C99.1123 35.2344 100.107 36.2302 101.102 36.0642C102.263 36.0642 103.258 35.2344 103.092 34.0727C103.092 31.4174 101.434 29.094 98.9465 28.2642C96.625 27.4344 93.8061 28.0982 92.1479 30.0897C90.4896 32.0812 90.158 35.0685 91.4846 37.3919C92.8111 39.7153 95.4643 40.7111 98.1174 40.3791C100.936 39.8813 103.092 37.06 103.092 34.2387C103.092 33.077 102.097 32.0812 101.102 32.2472C100.107 32.0812 99.1123 32.911 99.1123 34.0727Z" fill="black"/>
<path d="M170.913 33.0771C170.913 33.243 170.913 33.243 170.913 33.409C170.913 33.7409 170.913 33.243 170.913 33.0771C170.913 33.409 170.913 33.5749 170.747 33.7409C170.747 33.9068 170.581 33.9068 170.581 34.0728C170.581 34.0728 170.747 33.5749 170.581 33.9069C170.416 34.0728 170.416 34.2388 170.25 34.4047C170.084 34.7366 170.581 34.0728 170.416 34.2388L170.25 34.4047L170.084 34.5707C169.918 34.7366 169.752 34.7366 170.25 34.5707C170.084 34.7366 169.918 34.7366 169.752 34.9026C169.752 34.9026 169.586 34.9026 169.586 35.0686C169.255 35.2345 170.084 34.9026 169.586 35.0686C169.421 35.0686 169.255 35.2345 169.089 35.2345C168.923 35.2345 168.757 35.2345 169.255 35.2345C169.089 35.2345 169.089 35.2345 168.923 35.2345C168.757 35.2345 168.592 35.2345 168.426 35.2345C168.094 35.2345 168.923 35.4005 168.592 35.2345C168.426 35.2345 168.426 35.2345 168.26 35.2345C168.094 35.2345 168.094 35.2345 167.928 35.0686C167.762 35.0686 167.762 34.9026 168.094 35.0686C167.928 34.9026 167.762 34.9026 167.597 34.7366L167.431 34.5707C167.265 34.4047 167.762 34.9026 167.597 34.7366C167.431 34.5707 167.265 34.4047 167.099 34.2388C167.431 34.4047 167.265 34.5707 167.265 34.4047C167.265 34.2388 167.099 34.2388 167.099 34.0728C167.099 34.0728 167.099 33.9069 166.933 33.9069C166.767 33.7409 166.767 33.5749 166.933 34.0728C166.933 33.9068 166.767 33.7409 166.767 33.5749V33.409C166.602 33.0771 166.767 33.9068 166.767 33.409C166.767 33.243 166.767 33.0771 166.767 32.9111C166.767 32.7451 166.933 32.4132 166.767 33.0771V32.9111C166.767 32.7451 166.933 32.5792 166.933 32.4132C167.099 32.0813 166.767 32.9111 166.933 32.5792C166.933 32.4132 167.099 32.4132 167.099 32.2473L167.265 32.0813C167.431 31.9153 167.431 31.9153 167.099 32.2473C167.265 32.0813 167.265 31.9153 167.431 31.9153C167.431 31.9153 167.762 31.5834 167.431 31.9153C167.099 32.0813 167.431 31.9153 167.431 31.9153C167.597 31.7494 167.928 31.7494 167.928 31.5834C167.928 31.5834 167.431 31.7494 167.762 31.5834C167.928 31.5834 167.928 31.5834 168.094 31.4175C168.26 31.4175 168.757 31.2515 168.426 31.4175C168.094 31.4175 168.592 31.4175 168.757 31.4175C168.923 31.4175 168.923 31.4175 169.089 31.4175C169.421 31.4175 168.592 31.2515 168.923 31.4175C169.089 31.4175 169.421 31.5834 169.586 31.5834C169.918 31.7494 169.255 31.4175 169.421 31.5834C169.586 31.5834 169.586 31.7494 169.752 31.7494C169.752 31.7494 169.918 31.7494 169.918 31.9153C170.416 32.2473 169.752 31.7494 169.918 31.9153C170.084 32.0813 170.25 32.2473 170.25 32.2473C170.581 32.5792 169.918 31.7494 170.25 32.2473C170.25 32.4132 170.416 32.4132 170.416 32.5792C170.416 32.7451 170.581 32.7451 170.581 32.9111C170.747 33.243 170.416 32.4132 170.581 32.7451C170.581 32.9111 170.747 33.243 170.747 33.409C170.747 33.5749 170.747 33.5749 170.747 33.243C170.913 32.7451 170.913 32.9111 170.913 33.0771C170.913 34.2388 171.908 35.2345 172.903 35.0686C174.064 35.0686 175.059 34.2388 174.893 33.0771C174.893 30.4217 173.234 28.0983 170.747 27.2685C168.426 26.4387 165.607 27.1026 163.949 29.0941C162.29 31.0856 161.959 34.0728 163.285 36.3962C164.612 38.7196 167.265 39.7154 169.918 39.3835C172.737 38.8856 174.893 36.0643 174.893 33.243C174.893 32.0813 173.898 31.0856 172.903 31.2515C171.908 31.0856 170.913 31.9153 170.913 33.0771Z" fill="black"/>
<path d="M156.155 24.7791C156.155 24.9451 156.155 24.9451 156.155 25.1111C155.989 25.443 156.155 24.9451 156.155 24.7791C156.155 25.1111 156.155 25.277 155.989 25.443C155.989 25.6089 155.823 25.6089 155.823 25.7749C155.823 25.7749 155.989 25.277 155.823 25.6089C155.657 25.7749 155.657 25.9409 155.492 26.1068C155.326 26.4387 155.823 25.7749 155.657 25.9409L155.492 26.1068L155.326 26.2728C155.16 26.4387 154.994 26.4387 155.492 26.2728C155.326 26.4387 155.16 26.4387 154.994 26.6047C154.994 26.6047 154.828 26.6047 154.828 26.7706C154.497 26.9366 155.326 26.6047 154.828 26.7706C154.662 26.7706 154.497 26.9366 154.331 26.9366C154.165 26.9366 153.999 26.9366 154.497 26.9366C154.331 26.9366 154.331 26.9366 154.165 26.9366C153.999 26.9366 153.833 26.9366 153.668 26.9366C153.336 26.9366 154.165 27.1026 153.833 26.9366C153.667 26.9366 153.668 26.9366 153.502 26.9366C153.336 26.9366 153.336 26.9366 153.17 26.7706C153.004 26.7706 153.004 26.6047 153.336 26.7706C153.17 26.6047 153.004 26.6047 152.838 26.4387L152.673 26.2728C152.507 26.1068 153.004 26.6047 152.838 26.4387C152.673 26.2728 152.507 26.1068 152.341 25.9409C152.673 26.1068 152.507 26.2728 152.507 26.1068C152.507 25.9409 152.341 25.9409 152.341 25.7749C152.341 25.7749 152.341 25.6089 152.175 25.6089C152.009 25.443 152.009 25.277 152.175 25.7749C152.175 25.6089 152.009 25.443 152.009 25.277V25.1111C151.843 24.7791 152.009 25.6089 152.009 25.1111C152.009 24.9451 152.009 24.7791 152.009 24.6132C152.009 24.4472 152.175 24.1153 152.009 24.7791V24.6132C152.009 24.4472 152.175 24.2813 152.175 24.1153C152.341 23.7834 152.009 24.6132 152.175 24.2813C152.175 24.1153 152.341 24.1153 152.341 23.9494L152.507 23.7834C152.673 23.6174 152.673 23.6174 152.341 23.9494C152.507 23.7834 152.507 23.6174 152.673 23.6174C152.673 23.6174 153.004 23.2855 152.673 23.6174C152.341 23.7834 152.673 23.6174 152.673 23.6174C152.838 23.4515 153.17 23.4515 153.17 23.2855C153.17 23.2855 152.673 23.4515 153.004 23.2855C153.17 23.2855 153.17 23.2855 153.336 23.1196C153.502 23.1196 153.999 22.9536 153.668 23.1196C153.336 23.1196 153.833 23.1196 153.999 23.1196C154.165 23.1196 154.165 23.1196 154.331 23.1196C154.662 23.1196 153.833 22.9536 154.165 23.1196C154.331 23.1196 154.662 23.2855 154.828 23.2855C155.16 23.4515 154.497 23.1196 154.662 23.2855C154.828 23.2855 154.828 23.4515 154.994 23.4515C154.994 23.4515 155.16 23.4515 155.16 23.6174C155.657 23.9494 154.994 23.4515 155.16 23.6174C155.326 23.7834 155.492 23.9494 155.492 23.9494C155.823 24.2813 155.16 23.4515 155.492 23.9494C155.492 24.1153 155.657 24.1153 155.657 24.2813C155.657 24.4472 155.823 24.4472 155.823 24.6132C155.989 24.9451 155.657 24.1153 155.823 24.4472C155.823 24.6132 155.989 24.9451 155.989 25.1111C155.989 25.277 155.989 25.277 155.989 24.9451C155.989 24.4472 156.155 24.6132 156.155 24.7791C156.155 25.9409 157.15 26.9366 158.145 26.7706C159.305 26.7706 160.3 25.9409 160.135 24.7791C160.135 22.1238 158.476 19.8004 155.989 18.9706C153.668 18.1408 150.849 18.8046 149.19 20.7961C147.532 22.7876 147.2 25.7749 148.527 28.0983C149.854 30.4217 152.507 31.4175 155.16 31.0856C157.979 30.5877 160.135 27.7664 160.135 24.9451C160.135 23.7834 159.14 22.7876 158.145 22.9536C156.984 22.7876 156.155 23.6174 156.155 24.7791Z" fill="black"/>
<path d="M135.427 18.6386C135.427 18.8046 135.427 18.8046 135.427 18.9706C135.427 19.3025 135.427 18.8046 135.427 18.6386C135.427 18.9706 135.427 19.1365 135.261 19.3025C135.261 19.4684 135.096 19.4684 135.096 19.6344C135.096 19.6344 135.261 19.1365 135.096 19.4684C134.93 19.6344 134.93 19.8003 134.764 19.9663C134.598 20.2982 135.096 19.6344 134.93 19.8003L134.764 19.9663L134.598 20.1323C134.432 20.2982 134.266 20.2982 134.764 20.1323C134.598 20.2982 134.432 20.2982 134.266 20.4642C134.266 20.4642 134.101 20.4642 134.101 20.6301C133.769 20.7961 134.598 20.4642 134.101 20.6301C133.935 20.6301 133.769 20.7961 133.603 20.7961C133.437 20.7961 133.271 20.7961 133.769 20.7961C133.603 20.7961 133.603 20.7961 133.437 20.7961C133.271 20.7961 133.106 20.7961 132.94 20.7961C132.608 20.7961 133.437 20.9621 133.106 20.7961C132.94 20.7961 132.94 20.7961 132.774 20.7961C132.608 20.7961 132.608 20.7961 132.442 20.6301C132.277 20.6301 132.277 20.4642 132.608 20.6301C132.442 20.4642 132.277 20.4642 132.111 20.2982L131.945 20.1323C131.779 19.9663 132.277 20.4642 132.111 20.2982C131.945 20.1323 131.779 19.9663 131.613 19.8003C131.945 19.9663 131.779 20.1323 131.779 19.9663C131.779 19.8003 131.613 19.8004 131.613 19.6344C131.613 19.6344 131.613 19.4684 131.447 19.4684C131.282 19.3025 131.282 19.1365 131.447 19.6344C131.447 19.4684 131.282 19.3025 131.282 19.1365V18.9706C131.116 18.6386 131.282 19.4684 131.282 18.9706C131.282 18.8046 131.282 18.6386 131.282 18.4727C131.282 18.3067 131.447 17.9748 131.282 18.6386V18.4727C131.282 18.3067 131.447 18.1408 131.447 17.9748C131.613 17.6429 131.282 18.4727 131.447 18.1408C131.447 17.9748 131.613 17.9748 131.613 17.8088L131.779 17.6429C131.945 17.4769 131.945 17.4769 131.613 17.8088C131.779 17.6429 131.779 17.4769 131.945 17.4769C131.945 17.4769 132.277 17.145 131.945 17.4769C131.613 17.6429 131.945 17.4769 131.945 17.4769C132.111 17.311 132.442 17.311 132.442 17.145C132.442 17.145 131.945 17.311 132.277 17.145C132.442 17.145 132.442 17.145 132.608 16.9791C132.774 16.9791 133.271 16.8131 132.94 16.9791C132.608 16.9791 133.106 16.9791 133.271 16.9791C133.437 16.9791 133.437 16.9791 133.603 16.9791C133.935 16.9791 133.106 16.8131 133.437 16.9791C133.603 16.9791 133.935 17.145 134.101 17.145C134.432 17.311 133.769 16.9791 133.935 17.145C134.101 17.145 134.101 17.311 134.266 17.311C134.266 17.311 134.432 17.311 134.432 17.4769C134.93 17.8089 134.266 17.311 134.432 17.4769C134.598 17.6429 134.764 17.8088 134.764 17.8088C135.096 18.1408 134.432 17.311 134.764 17.8088C134.764 17.9748 134.93 17.9748 134.93 18.1408C134.93 18.3067 135.096 18.3067 135.096 18.4727C135.261 18.8046 134.93 17.9748 135.096 18.3067C135.096 18.4727 135.261 18.8046 135.261 18.9706C135.261 19.1365 135.261 19.1365 135.261 18.8046C135.427 18.3067 135.427 18.4727 135.427 18.6386C135.427 19.8003 136.422 20.7961 137.417 20.6301C138.578 20.6301 139.573 19.8003 139.407 18.6386C139.407 15.9833 137.749 13.6599 135.261 12.8301C132.94 12.0003 130.121 12.6641 128.463 14.6556C126.804 16.6471 126.473 19.6344 127.799 21.9578C129.126 24.2812 131.779 25.277 134.432 24.9451C137.251 24.4472 139.407 21.6259 139.407 18.8046C139.407 17.6429 138.412 16.6471 137.417 16.8131C136.256 16.6471 135.427 17.4769 135.427 18.6386Z" fill="black"/>
<path d="M151.844 53.9877C150.185 50.3367 148.195 44.0302 148.195 44.0302C148.195 44.0302 145.542 49.5069 142.392 52.826C140.899 54.3197 138.412 53.8218 137.417 51.9962C135.261 47.5154 133.272 39.7153 133.272 39.7153C133.272 39.7153 131.282 46.5196 129.623 51.0005C128.794 53.158 125.975 53.6558 124.483 51.9962C121.498 48.843 118.845 44.1962 118.845 44.1962C118.845 44.1962 116.524 51.1665 115.031 54.8175C114.534 55.9792 113.207 56.6431 112.046 56.3112C107.569 54.9835 104.584 52.1622 104.584 52.1622L105.082 61.1239C105.082 61.1239 117.519 57.8048 133.272 57.8048C147.532 57.8048 161.627 61.1239 161.627 61.1239L162.124 52.1622C162.124 52.1622 158.145 54.1537 155.492 55.4814C153.999 55.9792 152.507 55.4814 151.844 53.9877Z" fill="black"/>
<path d="M133.271 90.6645C127.136 90.6645 125.644 87.6773 125.644 86.6815V84.3581C125.644 83.6943 125.975 80.707 133.271 80.707C139.573 80.707 140.899 83.3624 140.899 84.3581V86.6815C140.899 87.6773 140.402 90.6645 133.271 90.6645Z" fill="black"/>
</svg>
