<svg width="371" height="450" viewBox="0 0 371 450" fill="none" xmlns="http://www.w3.org/2000/svg">
<g clip-path="url(#clip0_45_6948)">
<path d="M367.197 214.186L346.587 180.886C338.8 168.324 327.49 158.335 314.069 152.165C316.153 143.815 316.99 135.201 316.555 126.605C317.455 107.758 313.787 88.9726 305.865 71.8517C304.324 68.8596 301.911 66.407 298.947 64.8193C295.982 63.2316 292.605 62.5838 289.263 62.9617C285.922 63.3397 282.775 64.7256 280.238 66.9356C277.702 69.1455 275.897 72.0752 275.062 75.336C272.123 87.1849 267.359 98.5034 260.941 108.885C260.797 108.26 260.614 107.645 260.394 107.043C260.634 106.097 260.783 105.131 260.842 104.156L261.935 85.0174C264.456 83.4577 266.513 81.2493 267.89 78.6227C269.268 75.996 269.916 73.0475 269.767 70.0846C269.716 68.3063 269.372 66.5486 268.747 64.883C268.598 64.5097 268.424 64.1862 268.275 63.8377C270.984 60.2933 272.649 56.0607 273.08 51.6186C273.512 47.1765 272.693 42.7021 270.717 38.7014C268.741 34.7008 265.686 31.3334 261.898 28.9803C258.11 26.6271 253.739 25.382 249.281 25.3858C247.957 25.4007 246.635 25.5172 245.328 25.7342C243.529 21.318 240.457 17.5388 236.502 14.879C232.548 12.2192 227.892 10.7996 223.128 10.8014C218.02 10.7924 213.047 12.443 208.957 15.5052C207.275 11.0443 204.299 7.18852 200.412 4.43302C196.524 1.67753 191.903 0.148094 187.141 0.0410901C182.379 -0.0659141 177.694 1.2544 173.687 3.8325C169.681 6.41061 166.535 10.1288 164.655 14.5097C160.852 12.0837 156.435 10.797 151.926 10.8014C146.725 10.8102 141.67 12.5157 137.524 15.6594C133.379 18.8031 130.371 23.2137 128.954 28.223C126.88 27.655 124.74 27.3621 122.59 27.3519C116.247 27.3519 110.164 29.8744 105.679 34.3644C101.193 38.8545 98.6736 44.9443 98.6736 51.2942C98.6772 52.4526 98.7686 53.609 98.9471 54.7536C99.1973 58.4215 100.332 61.9741 102.254 65.107C104.31 68.4544 107.185 71.2212 110.607 73.1458L112.099 100.647C111.746 103.461 111.654 106.303 111.825 109.134C111.825 109.856 111.825 110.577 111.825 111.249V111.548C104.563 100.471 99.2258 88.2448 96.0383 75.3858C95.2313 72.1069 93.4446 69.1524 90.9166 66.9166C88.3886 64.6807 85.2395 63.2699 81.8897 62.8724C78.5399 62.4748 75.1487 63.1095 72.1686 64.6916C69.1884 66.2738 66.7612 68.7281 65.2107 71.7272C58.6204 85.8951 54.9669 101.253 54.4708 116.874C52.5598 128.741 53.0672 140.873 55.9625 152.539C42.956 158.74 32.0049 168.554 24.4139 180.811L3.80418 214.111C1.42513 217.952 0.114537 222.36 0.00802964 226.878C-0.098478 231.396 1.00296 235.861 3.19838 239.81C5.39381 243.759 8.60344 247.048 12.4952 249.339C16.3869 251.629 20.8193 252.837 25.3338 252.837H25.7315C26.4226 252.829 27.1122 252.77 27.795 252.663C28.6759 252.792 29.5648 252.859 30.4551 252.862H30.828C33.2226 252.838 35.5825 252.286 37.7394 251.244L56.0619 242.434C55.9126 251.214 54.9051 259.958 53.0537 268.542L48.8274 286.809C48.5505 288.035 48.4088 289.286 48.4047 290.543C48.4558 318.245 58.0337 345.086 75.528 366.551C75.528 366.799 75.528 367.048 75.528 367.297C75.528 413.663 123.385 450 184.518 450C245.652 450 293.534 413.663 293.534 367.297C293.534 367.048 293.534 366.799 293.534 366.551C311.01 345.077 320.578 318.241 320.632 290.543C320.632 289.285 320.482 288.031 320.185 286.809L316.008 268.741C314.265 261.089 313.579 253.234 313.969 245.396C313.969 244.201 313.969 242.907 313.969 241.812L333.61 251.244C335.767 252.286 338.126 252.838 340.521 252.862H340.894C341.684 252.855 342.473 252.796 343.256 252.688C343.906 252.787 344.562 252.837 345.22 252.837H345.642C350.155 252.833 354.584 251.622 358.472 249.329C362.36 247.037 365.566 243.747 367.759 239.799C369.951 235.851 371.051 231.388 370.943 226.872C370.835 222.356 369.525 217.951 367.147 214.111L367.197 214.186Z" fill="white"/>
<path d="M119.929 158.362C119.929 158.362 88.0075 143.678 76.7455 99.5023C76.7455 99.5023 61.5803 129.069 76.3726 160.677" fill="#D7D9DD"/>
<path d="M250.002 158.362C250.002 158.362 281.923 143.678 293.185 99.5023C293.185 99.5023 308.351 129.069 293.558 160.677" fill="#D7D9DD"/>
<path d="M86.1925 182.977C77.4563 180.978 68.3146 181.763 60.0459 185.221C51.7771 188.679 44.7948 194.638 40.0754 202.265L25.1589 226.556C24.5575 227.53 24.2289 228.649 24.2072 229.795C24.1855 230.94 24.4717 232.071 25.0357 233.068C25.5997 234.065 26.4209 234.892 27.4135 235.463C28.4061 236.033 29.5335 236.326 30.678 236.312L65.0359 219.786" fill="#E1BB92"/>
<path d="M285.18 182.977C293.919 180.976 303.065 181.76 311.338 185.218C319.611 188.676 326.598 194.636 331.322 202.265L346.362 226.555C346.964 227.53 347.292 228.649 347.314 229.795C347.336 230.94 347.05 232.071 346.486 233.068C345.922 234.065 345.1 234.892 344.108 235.463C343.115 236.033 341.988 236.326 340.843 236.312L306.461 219.786" fill="#E1BB92"/>
<path d="M184.494 423.37C230.202 423.37 267.256 396.182 267.256 362.643C267.256 329.105 230.202 301.916 184.494 301.916C138.785 301.916 101.731 329.105 101.731 362.643C101.731 396.182 138.785 423.37 184.494 423.37Z" fill="#E1BB92"/>
<path d="M93.8997 353.932C76.0495 337.158 79.4803 330.886 79.4803 304.455L83.4581 287.183C85.5932 277.779 86.5948 268.154 86.4414 258.512C86.0934 213.514 120.799 169.96 171.516 169.96H199.882C251.17 169.96 287.964 215.132 285.901 263.041C285.475 271.562 286.202 280.102 288.064 288.427L291.768 304.455C291.768 330.886 294.876 337.631 277.025 354.405L275.385 353.484C254.452 294.45 137.158 270.732 94.0737 353.932H93.8997Z" fill="#E1BB92"/>
<path d="M127.114 270.732C132.606 270.732 137.059 264.113 137.059 255.948C137.059 247.784 132.606 241.165 127.114 241.165C121.622 241.165 117.17 247.784 117.17 255.948C117.17 264.113 121.622 270.732 127.114 270.732Z" fill="#1F140F"/>
<path d="M244.408 270.732C249.9 270.732 254.353 264.113 254.353 255.948C254.353 247.784 249.9 241.165 244.408 241.165C238.916 241.165 234.464 247.784 234.464 255.948C234.464 264.113 238.916 270.732 244.408 270.732Z" fill="#1F140F"/>
<path d="M170.969 366.152C170.969 380.065 163.361 391.364 153.989 391.364C144.616 391.364 137.009 380.065 137.009 366.152C137.009 352.24 144.616 340.916 153.989 340.916C163.361 340.916 170.969 352.215 170.969 366.152Z" fill="#1F140F"/>
<path d="M215.171 391.339C224.549 391.339 232.151 380.051 232.151 366.127C232.151 352.203 224.549 340.916 215.171 340.916C205.794 340.916 198.191 352.203 198.191 366.127C198.191 380.051 205.794 391.339 215.171 391.339Z" fill="#1F140F"/>
<path d="M101.557 362.245C84.3175 346.066 73.4643 324.221 70.9779 300.697C70.3374 297.172 70.2618 293.568 70.7542 290.02C71.5498 286.61 72.3453 283.201 73.116 279.791C75.1366 271.445 76.5901 262.972 77.4667 254.43C78.486 243.479 77.6158 232.454 79.5799 221.603C81.3516 211.804 84.5955 202.33 89.201 193.504C98.3225 175.928 112.817 161.731 130.57 152.987C139.939 148.485 150.048 145.727 160.403 144.848C166.295 144.375 172.212 144.525 178.079 144.525C192.349 144.525 207.042 143.554 221.014 146.889C260.468 156.346 289.207 193.006 291.768 233.176C292.141 238.875 291.768 244.525 291.768 250.224C291.804 257.518 292.578 264.789 294.08 271.926C295.348 277.974 296.84 283.972 298.232 289.97C298.733 293.542 298.666 297.171 298.033 300.722C297.441 306.624 296.292 312.458 294.602 318.143C289.703 335.038 280.321 350.288 267.454 362.27C262.308 367.247 270.089 374.938 275.236 370.06C293.735 352.484 305.563 329.022 308.698 303.683C309.658 298.604 309.801 293.403 309.121 288.278C308.45 285.067 307.654 281.882 306.908 278.696C304.347 268.941 302.953 258.915 302.757 248.83C303.269 237.406 302.367 225.961 300.072 214.759C297.566 204.201 293.502 194.077 288.014 184.719C277.034 165.749 260.344 150.739 240.331 141.837C229.865 137.312 218.712 134.586 207.34 133.773C201.299 133.35 195.208 133.524 189.142 133.524C172.858 133.524 156.549 132.827 140.713 137.432C98.1758 149.751 68.7902 190.742 67.2239 234.495C66.7764 246.939 66.6273 258.835 63.8926 270.931C62.5749 276.755 61.0336 282.553 59.8402 288.352C59.1901 293.423 59.3495 298.564 60.3126 303.584C61.0777 310.035 62.4087 316.406 64.2903 322.623C67.9883 334.646 73.7512 345.931 81.3201 355.973C85.0692 360.972 89.227 365.651 93.7506 369.96C98.8968 374.938 106.678 367.073 101.532 362.17L101.557 362.245Z" fill="#1F140F"/>
<path d="M272.302 367.322C272.029 398.332 241.773 418.019 214.823 425.012C182.504 433.4 142.901 428.721 116.846 406.446C106.653 397.735 98.4742 385.963 96.9577 372.349C96.3498 365.759 97.1141 359.113 99.2023 352.833C101.291 346.553 104.657 340.775 109.09 335.864C131.191 310.279 169.552 302.414 201.747 306.994C232.748 311.374 271.979 331.284 272.302 367.322C272.302 373.245 281.575 373.27 281.525 367.322C281.227 332.255 248.709 309.034 217.807 300.846C181.709 291.289 138.252 297.088 109.612 322.275C97.6546 332.274 89.868 346.39 87.784 361.847C86.0437 377.227 91.7618 392.135 101.433 403.932C125.249 433.026 168.085 441.662 203.636 436.635C235.607 432.105 272.899 413.016 280.357 378.522C281.147 374.84 281.555 371.087 281.575 367.322C281.575 361.374 272.352 361.349 272.302 367.322Z" fill="#1F140F"/>
<path d="M270.413 167.671C279.351 165.696 288.642 165.999 297.433 168.551C306.225 171.104 314.235 175.824 320.732 182.28C328.339 189.746 333.51 200.149 339.129 209.233C341.913 213.763 344.722 218.268 347.532 222.797C348.029 223.619 348.601 224.415 349.048 225.286C349.41 225.859 349.634 226.507 349.703 227.181C349.772 227.854 349.684 228.535 349.446 229.169C349.148 229.841 346.065 232.056 346.065 231.658C346.065 231.259 348.551 232.802 347.382 232.106C346.935 231.832 346.413 231.633 345.965 231.409L340.993 229.069L325.43 221.603L298.68 208.611C293.36 206.122 288.735 214.012 294.031 216.6L320.259 229.194L337.165 237.307C340.695 239.024 344.101 241.339 348.128 240.592C350.239 240.163 352.216 239.235 353.895 237.884C355.574 236.534 356.906 234.801 357.78 232.83C358.653 230.86 359.043 228.708 358.917 226.556C358.79 224.404 358.152 222.313 357.053 220.458C354.99 216.775 352.578 213.24 350.341 209.632C344.25 199.676 338.656 189.074 331.297 180.065C323.716 171.057 313.805 164.312 302.649 160.568C291.494 156.823 279.524 156.224 268.051 158.835C262.259 160.129 264.695 169.014 270.537 167.745L270.413 167.671Z" fill="#1F140F"/>
<path d="M236.776 160.503C242.539 157.606 247.924 154.012 252.811 149.801C264.805 139.933 274.805 127.862 282.272 114.236C288.069 103.636 292.513 92.3474 295.498 80.6371L287.07 81.6824C288.052 83.52 288.883 85.4343 289.556 87.4067C291.536 92.8578 293.042 98.4702 294.056 104.181C297.386 122.082 295.156 140.574 287.666 157.168C285.18 162.544 293.161 167.123 295.647 161.822C307.555 135.839 308.326 102.912 295.15 77.0284C294.678 76.261 293.994 75.6464 293.182 75.2584C292.369 74.8704 291.462 74.7255 290.57 74.8412C289.677 74.9568 288.837 75.3281 288.15 75.9103C287.463 76.4926 286.958 77.2611 286.697 78.1234C279.239 106.62 262.631 133.922 237.472 149.552C235.782 150.632 234.031 151.613 232.226 152.489C226.857 154.978 231.53 162.942 236.875 160.453L236.776 160.503Z" fill="#1F140F"/>
<path d="M102.949 158.835C92.9652 156.596 82.5917 156.768 72.6874 159.339C62.783 161.91 53.6325 166.805 45.993 173.619C36.6205 182.031 30.5792 193.728 24.016 204.331C21.0161 209.308 17.9913 214.194 14.9417 218.99C11.5855 224.415 10.6905 230.786 14.9417 236.088C17.8504 239.647 23.1955 242.16 27.6954 240.368C28.4909 240.045 29.2368 239.622 30.0075 239.248L44.1533 232.454L74.8069 217.745C80.152 215.256 75.4781 207.193 70.133 209.756L47.9073 220.433L31.9217 228.123C28.9341 229.281 26.0414 230.671 23.2701 232.28C23.2701 232.28 23.0712 232.28 23.0464 232.28C23.5933 231.359 24.9607 232.504 24.3391 231.558C24.3391 231.558 23.6182 231.409 23.4442 231.284C22.8545 230.955 22.3428 230.502 21.9438 229.956C21.5448 229.411 21.2679 228.786 21.1321 228.123C21.0424 226.707 21.4959 225.309 22.4 224.216C24.8861 220.209 27.3722 216.252 29.8583 212.27C35.0294 203.907 39.8027 194.848 45.8687 187.033C52.2663 179.01 60.781 172.941 70.4479 169.514C80.1148 166.087 90.5472 165.44 100.563 167.646C106.331 168.915 108.817 160.03 103.049 158.736L102.949 158.835Z" fill="#1F140F"/>
<path d="M138.873 152.539C133.892 150.069 129.219 147.02 124.951 143.454C113.698 134.296 104.277 123.09 97.1814 110.428C91.5225 100.251 87.226 89.373 84.4028 78.0737C84.1415 77.2113 83.6371 76.4428 82.9501 75.8606C82.2631 75.2783 81.4227 74.907 80.53 74.7914C79.6373 74.6757 78.7302 74.8206 77.9177 75.2086C77.1053 75.5966 76.422 76.2112 75.9501 76.9786C62.7738 102.862 63.5196 135.789 75.4529 161.772C77.939 167.173 85.8944 162.494 83.4332 157.118C75.9436 140.525 73.7138 122.032 77.044 104.131C78.0391 98.4564 79.5196 92.8776 81.4692 87.4565C82.1417 85.4841 82.9731 83.5697 83.9553 81.7322L75.5274 80.6371C83.4581 111.299 101.358 140.319 128.705 157.392C130.48 158.554 132.332 159.593 134.249 160.503C139.594 162.992 144.193 155.027 138.898 152.539H138.873Z" fill="#1F140F"/>
<path d="M159.135 33.6237C159.123 33.6895 159.123 33.757 159.135 33.8228V33.6237Z" fill="white"/>
<path d="M250.3 44.9477C249.614 44.7052 248.89 44.5872 248.162 44.5993C247.204 44.5971 246.255 44.7951 245.378 45.1808C244.5 45.5665 243.713 46.1314 243.065 46.8392C242.141 47.8847 241.569 49.1952 241.431 50.5846C241.292 51.974 241.595 53.3718 242.295 54.5794C242.54 54.9635 242.823 55.322 243.14 55.6496C243.52 56.0467 243.796 56.5317 243.944 57.0615C244.091 57.5912 244.105 58.1493 243.985 58.6859C243.872 59.242 243.621 59.7609 243.256 60.1955C242.892 60.6301 242.425 60.9667 241.897 61.1747L230.983 65.555C230.13 65.9022 229.176 65.9022 228.323 65.555C227.905 65.3824 227.524 65.1286 227.204 64.8082C226.884 64.4878 226.631 64.1073 226.458 63.6884L220.144 48.3325C219.949 47.8414 219.87 47.3119 219.913 46.7852C219.956 46.2586 220.12 45.749 220.392 45.2962C220.679 44.8428 221.065 44.4612 221.522 44.1808C221.979 43.9004 222.494 43.7285 223.028 43.6784H223.177H223.55C224.994 43.4097 226.306 42.6638 227.277 41.56C228.247 40.4562 228.82 39.0584 228.903 37.5902C228.986 36.1221 228.575 34.6685 227.735 33.462C226.895 32.2556 225.675 31.3661 224.271 30.9358C223.578 30.6834 222.845 30.5569 222.108 30.5625C221.131 30.5541 220.164 30.7514 219.269 31.1416C218.374 31.5318 217.571 32.1061 216.912 32.8273C215.985 33.8767 215.412 35.1915 215.274 36.5852C215.135 37.9789 215.439 39.3809 216.141 40.5923C216.378 40.9456 216.644 41.2786 216.937 41.5879C217.24 41.9191 217.474 42.307 217.627 42.7293C217.78 43.1516 217.848 43.5999 217.827 44.0485C217.806 44.4972 217.697 44.9373 217.506 45.3436C217.315 45.7499 217.045 46.1144 216.713 46.4161L206.52 55.4256C205.884 55.9933 205.06 56.3038 204.208 56.2967H203.885C203.402 56.2592 202.932 56.1227 202.505 55.8958C202.077 55.6689 201.7 55.3563 201.399 54.9776L188.023 37.556C187.721 37.1752 187.507 36.7325 187.395 36.2593C187.283 35.7862 187.277 35.2942 187.377 34.8183C187.489 34.3386 187.699 33.8874 187.995 33.4932C188.29 33.0991 188.664 32.7706 189.092 32.5286C190.122 31.9517 190.987 31.1205 191.605 30.1142C192.223 29.1078 192.573 27.9598 192.623 26.7795C192.595 25.3707 192.13 24.0055 191.292 22.8729C190.455 21.7403 189.286 20.8964 187.949 20.4579C187.265 20.2031 186.54 20.0766 185.811 20.0846C184.834 20.0762 183.867 20.2735 182.972 20.6637C182.077 21.0539 181.274 21.6282 180.615 22.3494C179.683 23.3912 179.107 24.7024 178.968 26.0937C178.83 27.4849 179.136 28.8842 179.844 30.0896C180.47 31.152 181.384 32.015 182.479 32.5784C182.921 32.8032 183.309 33.1227 183.614 33.514C183.919 33.9054 184.134 34.3592 184.244 34.8432C184.357 35.3247 184.36 35.8254 184.252 36.3081C184.145 36.7907 183.929 37.2428 183.623 37.6307L169.726 55.5251C169.424 55.9039 169.047 56.2164 168.62 56.4433C168.192 56.6703 167.722 56.8067 167.24 56.8442H166.916C166.055 56.8389 165.224 56.5205 164.579 55.9482L155.207 47.6356C154.83 47.3085 154.53 46.9006 154.332 46.4422C154.133 45.9837 154.04 45.4864 154.059 44.987C154.078 44.4877 154.209 43.999 154.442 43.5571C154.675 43.1152 155.005 42.7314 155.406 42.434C156.217 41.8173 156.883 41.0293 157.355 40.126C157.828 39.2227 158.096 38.2263 158.14 37.2076C158.144 35.793 157.704 34.4129 156.884 33.2613C156.063 32.1096 154.903 31.2441 153.566 30.7865C152.881 30.5359 152.157 30.4095 151.428 30.4131C150.448 30.4028 149.476 30.5991 148.577 30.9893C147.677 31.3795 146.87 31.9549 146.207 32.6779C145.281 33.7274 144.708 35.0421 144.569 36.4359C144.431 37.8296 144.734 39.2316 145.437 40.443C145.923 41.2065 146.555 41.8657 147.298 42.3827C148.041 42.8996 148.878 43.2639 149.762 43.4545C150.247 43.5604 150.703 43.7713 151.098 44.0722C151.494 44.3731 151.818 44.7569 152.05 45.1966C152.282 45.6294 152.415 46.1081 152.441 46.5985C152.467 47.089 152.384 47.5791 152.199 48.0338L145.387 64.6093C145.214 65.0281 144.961 65.4087 144.641 65.729C144.321 66.0494 143.941 66.3032 143.522 66.4759C143.088 66.6547 142.624 66.7477 142.155 66.7496C141.712 66.7516 141.273 66.6671 140.862 66.5008L129.327 61.772C128.864 61.5857 128.449 61.2986 128.111 60.9315C127.773 60.5644 127.522 60.1267 127.374 59.65C127.226 59.1733 127.187 58.6697 127.258 58.1758C127.329 57.6818 127.509 57.21 127.785 56.7944C128.388 55.9618 128.783 54.9968 128.938 53.9801C129.092 52.9633 129.001 51.9244 128.673 50.95C128.344 49.9756 127.788 49.094 127.049 48.3789C126.311 47.6638 125.413 47.1358 124.429 46.8392C123.741 46.6049 123.018 46.4871 122.291 46.4908C121.314 46.4777 120.345 46.6728 119.449 47.0633C118.554 47.4538 117.751 48.0307 117.095 48.7556C116.164 49.7974 115.587 51.1086 115.449 52.4998C115.31 53.8911 115.617 55.2904 116.324 56.4958C116.964 57.5059 117.855 58.3327 118.91 58.8954C119.964 59.4581 121.146 59.7375 122.341 59.7063H123.335C124.166 59.7068 124.97 60.0072 125.597 60.5525C125.965 60.8558 126.262 61.2356 126.468 61.6653C126.674 62.0951 126.784 62.5646 126.791 63.0413L128.904 100.373C128.93 100.777 128.879 101.183 128.755 101.568C128.243 103.895 128.092 106.288 128.307 108.661C128.307 109.607 128.307 110.528 128.307 111.424V143.38C128.541 143.843 128.663 144.354 128.663 144.873C128.663 145.392 128.541 145.903 128.307 146.366C128.226 146.543 128.16 146.726 128.108 146.914C128.053 147.125 127.987 147.332 127.91 147.536C127.91 147.661 127.91 147.934 127.91 148.034L128.059 148.457C129.053 151.767 135.02 153.609 137.556 154.38C146.463 156.868 155.618 158.362 164.853 158.835C171.69 159.383 178.725 159.657 185.711 159.657C191.305 159.657 196.998 159.457 202.642 159.134C212.394 158.713 222.084 157.363 231.58 155.102C235.359 154.107 242.419 152.265 243.513 148.532C243.627 148.207 243.672 147.863 243.647 147.52C243.621 147.178 243.525 146.844 243.364 146.541C243.113 146.06 242.982 145.527 242.982 144.985C242.982 144.443 243.113 143.91 243.364 143.43V111.2C243.364 110.254 243.364 109.258 243.364 108.263C243.555 106.12 243.463 103.961 243.09 101.842C243.09 101.543 242.916 101.269 242.817 100.971C242.624 100.524 242.539 100.038 242.568 99.552L244.855 61.0254C244.918 60.1602 245.302 59.35 245.933 58.7554C246.564 58.1608 247.395 57.8251 248.261 57.8148C248.658 57.8518 249.058 57.8518 249.455 57.8148C250.894 57.5358 252.199 56.7841 253.164 55.6787C254.129 54.5733 254.697 53.1774 254.78 51.712C254.863 50.2466 254.455 48.7955 253.621 47.5883C252.787 46.3811 251.575 45.4869 250.176 45.0473L250.3 44.9477Z" fill="white"/>
<path d="M255.844 47.8098C255.833 47.8758 255.833 47.943 255.844 48.009V47.8098Z" fill="white"/>
<path d="M193.568 23.2454C193.557 23.3113 193.557 23.3786 193.568 23.4445C193.568 23.4445 193.568 23.2952 193.568 23.2454Z" fill="white"/>
<path d="M177.756 59.4574C177.744 59.5065 177.744 59.5577 177.756 59.6068V59.4574Z" fill="#FBBA33"/>
<path d="M155.033 72.1503C155.021 72.1994 155.021 72.2506 155.033 72.2996V72.1503Z" fill="#FBBA33"/>
<path d="M242.17 81.3589L233.668 84.8183C233.346 84.9558 232.998 85.0236 232.648 85.0174C232.283 85.0139 231.921 84.9466 231.579 84.8183C230.926 84.523 230.41 83.9887 230.137 83.325L225.165 71.105C224.842 70.3086 223.151 69.0144 222.679 69.5122L214.748 76.7048C214.238 77.1495 213.585 77.3967 212.909 77.4017H212.66C212.289 77.3619 211.93 77.2464 211.605 77.0623C211.28 76.8783 210.996 76.6296 210.771 76.3315L200.329 62.5684C199.809 62.262 199.217 62.1005 198.614 62.1005C198.01 62.1005 197.418 62.262 196.898 62.5684L186.059 76.7048C185.835 77.0103 185.549 77.264 185.218 77.4487C184.888 77.6333 184.522 77.7446 184.145 77.775H183.896C183.226 77.7754 182.579 77.5271 182.081 77.0782L174.772 70.4579C174.585 70.3154 174.37 70.2123 174.142 70.155C173.914 70.0977 173.676 70.0873 173.444 70.1246C173.212 70.1618 172.989 70.2458 172.79 70.3715C172.591 70.4973 172.42 70.6622 172.286 70.8562L167.065 84.1712C166.789 84.8409 166.263 85.3765 165.598 85.6645C165.265 85.7929 164.911 85.8604 164.554 85.8636C164.204 85.8698 163.857 85.802 163.535 85.6645L154.51 82.006C153.765 81.6824 152.497 82.006 152.546 82.7028L154.187 112.568C154.236 112.89 154.236 113.217 154.187 113.539C153.773 115.384 153.656 117.282 153.839 119.164C153.839 119.935 153.839 120.657 153.839 121.379V147.013C154.038 147.398 154.141 147.825 154.141 148.258C154.141 148.691 154.038 149.117 153.839 149.502C153.77 149.647 153.712 149.797 153.665 149.95C153.665 150.075 153.665 150.324 153.516 150.448C153.528 150.58 153.528 150.714 153.516 150.846C153.572 150.957 153.614 151.074 153.64 151.195C154.436 153.808 159.06 155.276 161.099 155.898C167.997 157.856 175.094 159.025 182.255 159.383C187.6 159.831 193.07 160.055 198.514 160.055C202.89 160.055 207.315 159.905 211.715 159.632C219.32 159.315 226.873 158.24 234.264 156.421C237.223 155.65 242.717 154.181 243.562 151.195C243.668 150.942 243.722 150.672 243.722 150.398C243.722 150.125 243.668 149.854 243.562 149.602C243.362 149.218 243.257 148.791 243.257 148.357C243.257 147.924 243.362 147.497 243.562 147.113V121.229C243.562 120.483 243.562 119.686 243.562 118.89C243.693 117.186 243.618 115.473 243.339 113.788C243.29 113.548 243.215 113.314 243.115 113.091C242.968 112.728 242.908 112.336 242.941 111.946L244.731 81.2593C244.756 79.8656 243.065 81.0105 242.17 81.3589Z" fill="#FBBA33"/>
<path d="M253.134 70.7317C253.122 70.7891 253.122 70.8485 253.134 70.9059V70.7317Z" fill="#FBBA33"/>
<path d="M204.605 51.1697C204.594 51.1973 204.588 51.2269 204.588 51.2568C204.588 51.2868 204.594 51.3164 204.605 51.344V51.1697Z" fill="#FBBA33"/>
<path d="M249.703 103.136L252.189 61.0254C252.183 60.1822 251.985 59.3515 251.609 58.597C251.233 57.8425 250.689 57.1842 250.019 56.6725C249.35 56.1608 248.572 55.8093 247.746 55.645C246.92 55.4806 246.067 55.5077 245.253 55.7242L227.403 63.0164L234.165 66.7496L224.942 43.6784C224.675 42.7614 224.177 41.9285 223.496 41.2596C222.815 40.5906 221.973 40.1081 221.052 39.8583C220.131 39.6084 219.162 39.5996 218.236 39.8328C217.311 40.0659 216.461 40.5331 215.768 41.1896L200.852 54.8532L209.453 55.9482C203.437 47.9675 197.412 39.9701 191.38 31.9562C190.879 31.1538 190.183 30.4922 189.357 30.0335C188.53 29.5747 187.601 29.334 186.656 29.334C185.711 29.334 184.782 29.5747 183.955 30.0335C183.129 30.4922 182.433 31.1538 181.932 31.9562L163.287 56.7944L171.888 55.6993L157.395 42.4589C156.701 41.8024 155.852 41.3352 154.926 41.1021C154.001 40.8689 153.031 40.8777 152.11 41.1276C151.189 41.3774 150.348 41.8599 149.667 42.5289C148.986 43.1978 148.488 44.0307 148.221 44.9477L138.997 68.0189L145.76 64.1862L127.984 56.7944C127.172 56.5732 126.319 56.5419 125.493 56.7028C124.667 56.8637 123.888 57.2126 123.218 57.7224C122.548 58.2323 122.003 58.8896 121.627 59.6436C121.251 60.3975 121.053 61.2279 121.048 62.0707C121.827 76.3066 122.606 90.5343 123.385 104.754C123.758 111.772 134.746 111.822 134.348 104.754C133.569 90.5177 132.791 76.29 132.012 62.0707L125.075 67.3718L142.826 74.6889C145.784 75.8835 148.594 73.3201 149.588 70.8312L158.787 47.7601L149.638 50.2489L164.132 63.4893C164.737 64.0612 165.462 64.4913 166.254 64.7485C167.046 65.0056 167.885 65.0834 168.71 64.9763C169.536 64.8691 170.327 64.5796 171.028 64.1288C171.728 63.6779 172.319 63.077 172.759 62.3693L191.33 37.7302H181.883L199.932 61.772C200.371 62.4796 200.963 63.0806 201.663 63.5315C202.363 63.9823 203.154 64.2718 203.98 64.379C204.805 64.4861 205.644 64.4083 206.436 64.1512C207.228 63.894 207.953 63.4639 208.558 62.892L223.475 49.2285L214.326 46.7397L223.525 69.8108C224.519 72.2996 227.304 74.7884 230.287 73.6436L248.038 66.3016L241.101 61.0254L238.615 103.136C238.193 110.204 249.156 110.179 249.579 103.136H249.703Z" fill="#1F140F"/>
<path d="M249.579 123.544C249.579 120.333 249.778 117.048 249.579 113.863C249.256 108.263 244.955 104.853 239.635 103.907C231.679 102.414 223.624 101.07 215.594 99.9751C198.286 97.6097 180.755 97.359 163.386 99.2285C154.014 100.274 144.74 101.991 135.442 103.559C130.47 104.38 125.15 106.222 123.783 111.722C123.24 115.648 123.156 119.624 123.534 123.569C123.534 124.803 124.024 125.987 124.896 126.86C125.768 127.733 126.95 128.223 128.183 128.223C129.416 128.223 130.599 127.733 131.47 126.86C132.342 125.987 132.832 124.803 132.832 123.569C132.534 120.515 132.534 117.439 132.832 114.385C133.056 113.365 133.727 113.315 135.318 112.967C136.163 112.768 137.058 112.668 137.804 112.519C145.138 111.299 152.472 109.881 159.831 108.96C175.343 106.978 191.028 106.736 206.595 108.238C215.221 109.084 223.724 110.727 232.251 112.071C233.817 112.32 239.56 112.792 240.082 113.887C240.341 115.478 240.341 117.1 240.082 118.691V123.668C240.082 124.903 240.572 126.087 241.444 126.959C242.316 127.832 243.498 128.323 244.731 128.323C245.964 128.323 247.147 127.832 248.019 126.959C248.89 126.087 249.38 124.903 249.38 123.668L249.579 123.544Z" fill="#1F140F"/>
<path d="M123.285 128.347V153.235C123.28 154.007 123.453 154.769 123.793 155.462C124.132 156.154 124.627 156.759 125.239 157.227C125.852 157.695 126.564 158.014 127.321 158.16C128.078 158.305 128.858 158.272 129.6 158.064C127.114 158.611 129.6 158.96 130.818 159.358L134.696 160.528C137.68 161.399 140.713 162.17 143.746 162.842C149.265 164.062 154.859 164.958 160.477 165.655C170.952 166.911 181.511 167.31 192.051 166.849C207.477 166.24 222.803 164.072 237.795 160.378C240.629 159.681 243.488 158.96 246.248 158.064C247.293 157.753 248.212 157.118 248.873 156.25C249.535 155.382 249.904 154.327 249.927 153.235V128.347C249.926 127.253 249.565 126.19 248.9 125.322C248.235 124.453 247.303 123.829 246.248 123.544C206.918 115.088 166.244 115.088 126.915 123.544C120.65 124.913 123.285 134.52 129.55 133.176C167.126 125.1 205.987 125.1 243.563 133.176L239.908 128.347V153.235L243.563 148.432C217.698 156.392 190.473 158.933 163.585 155.898C157.353 155.246 151.167 154.207 145.063 152.787C141.807 152.041 138.575 151.17 135.368 150.299C132.882 149.502 129.675 147.81 126.915 148.407L133.205 153.211V128.323C133.255 121.926 123.285 121.926 123.285 128.347Z" fill="#1F140F"/>
<path d="M155.53 34.7188C155.542 34.9177 155.542 35.1172 155.53 35.3161C155.53 35.9134 155.53 34.9925 155.53 34.9428C155.429 35.2597 155.354 35.5843 155.306 35.9134C155.219 36.0875 155.152 36.2713 155.107 36.4609C155.107 36.4609 155.505 35.6396 155.232 36.1125C154.958 36.5854 154.859 36.7845 154.635 37.108C154.411 37.4316 155.157 36.5854 154.809 36.884L154.486 37.2573L154.212 37.5062C153.939 37.7551 153.516 37.9044 154.361 37.5062C154.088 37.6556 153.839 37.8795 153.566 38.0289L153.218 38.2031C152.621 38.5515 154.088 37.9293 153.218 38.2031L152.273 38.4769C151.875 38.4769 151.701 38.4769 152.547 38.4769H152.049C151.71 38.5021 151.369 38.5021 151.03 38.4769C150.533 38.4769 152 38.676 151.304 38.4769L150.732 38.3275L150.16 38.1533C149.837 38.1533 149.936 37.8795 150.508 38.3026C150.259 38.1035 149.911 38.004 149.663 37.8298C149.521 37.753 149.387 37.6612 149.265 37.556C148.867 37.332 149.961 38.2031 149.489 37.7053C149.016 37.2076 148.967 37.108 148.693 36.9089C149.19 37.3071 149.091 37.4813 148.892 37.1827L148.594 36.7098L148.395 36.3614C148.221 36.0378 148.246 35.6396 148.395 36.5356C148.395 36.2121 148.171 35.9134 148.096 35.6147C148.111 35.4824 148.111 35.3489 148.096 35.2165C147.947 34.5197 148.096 36.1872 148.096 35.2165C148.072 34.9101 148.072 34.6021 148.096 34.2957C148.096 33.9472 148.32 33.4495 148.096 34.4699V34.0717C148.096 33.7481 148.271 33.4495 148.37 33.1508C148.594 32.454 147.947 33.9224 148.37 33.3002C148.446 33.1264 148.538 32.9598 148.643 32.8024L148.892 32.3793C149.116 32.0558 149.315 32.1553 148.743 32.6033C148.967 32.4291 149.166 32.1055 149.389 31.9064C149.613 31.7073 149.986 31.4584 149.389 31.9064C148.793 32.3544 149.389 31.9064 149.389 31.9064C149.739 31.7439 150.08 31.561 150.409 31.3589L150.06 31.4833L150.632 31.3091C150.806 31.3091 151.801 31.11 151.105 31.1847C150.409 31.2593 151.552 31.1847 151.726 31.1847H152.248C152.969 31.1847 151.428 30.9856 152.074 31.1847L153.193 31.4833C153.864 31.7073 152.571 31.1349 152.944 31.4833L153.541 31.8069L153.864 32.006C154.66 32.5535 153.442 31.5829 153.864 32.006L154.535 32.678C155.033 33.1757 154.063 31.9313 154.535 32.5286L154.859 33.0264C154.859 33.1757 155.033 33.3499 155.132 33.5241C155.455 34.0966 154.859 32.7028 155.132 33.3748L155.43 34.4948C155.43 34.8183 155.43 34.9428 155.43 34.1215C155.43 34.3703 155.43 34.669 155.43 34.9428C155.443 35.9091 155.833 36.8322 156.515 37.5155C157.198 38.1988 158.12 38.5884 159.085 38.6013C160.051 38.5824 160.972 38.1917 161.657 37.5103C162.342 36.8289 162.739 35.9093 162.764 34.9428C162.726 32.6552 161.991 30.4339 160.658 28.5752C159.326 26.7164 157.459 25.3086 155.306 24.5396C153.282 23.8365 151.097 23.7424 149.021 24.2687C146.944 24.7951 145.067 25.9188 143.622 27.5012C142.46 28.8428 141.64 30.4459 141.232 32.1736C140.823 33.9012 140.839 35.7022 141.277 37.4225C141.715 39.1429 142.562 40.7317 143.746 42.053C144.931 43.3744 146.417 44.3892 148.078 45.0107C149.74 45.6322 151.526 45.8419 153.286 45.622C155.046 45.4021 156.726 44.7591 158.184 43.7478C159.642 42.7366 160.833 41.3872 161.657 39.8149C162.48 38.2426 162.912 36.4941 162.914 34.7188C162.914 33.7287 162.521 32.7791 161.821 32.079C161.122 31.3789 160.174 30.9856 159.184 30.9856C158.195 30.9856 157.247 31.3789 156.548 32.079C155.848 32.7791 155.455 33.7287 155.455 34.7188H155.53Z" fill="#1F140F"/>
<path d="M126.219 51.2444C126.219 51.4435 126.219 51.6426 126.219 51.8417C126.219 52.439 126.219 51.5182 126.219 51.4684C126.219 51.4186 126.095 52.1404 125.995 52.439C125.896 52.7377 125.846 52.8124 125.796 52.9866C125.747 53.1608 126.219 52.1653 125.946 52.6381L125.349 53.6337C124.976 54.2061 125.846 53.111 125.498 53.4097L125.175 53.783L124.901 54.0319C124.653 54.2807 124.23 54.4301 125.051 54.0319C124.777 54.1812 124.528 54.4052 124.255 54.5545L123.907 54.7287C123.335 55.0772 124.802 54.455 123.907 54.7287L122.962 55.0025C122.589 55.0025 122.39 55.0025 123.261 55.0025H122.739C122.399 55.0273 122.059 55.0273 121.719 55.0025C121.222 55.0025 122.714 55.2016 121.993 55.0025L121.421 54.8532L120.874 54.679C120.551 54.679 120.65 54.4052 121.197 54.8283C120.924 54.656 120.642 54.4981 120.352 54.3554L119.954 54.0816C119.556 53.8576 120.675 54.7287 120.178 54.2559C119.938 53.9583 119.672 53.6834 119.382 53.4346C119.904 53.8328 119.805 54.007 119.606 53.7083L119.283 53.2354L119.109 52.887C118.935 52.5635 118.935 52.1653 119.109 53.0612C119.036 52.7464 118.936 52.4383 118.81 52.1404V51.7422C118.661 51.0453 118.81 52.7128 118.81 51.7422C118.81 51.4435 118.81 51.1448 118.81 50.8213C118.81 50.4978 119.034 49.9751 118.81 50.9955C118.801 50.863 118.801 50.7299 118.81 50.5973C118.879 50.284 118.97 49.9762 119.084 49.6765C119.283 48.9796 118.661 50.448 119.084 49.8258C119.084 49.6516 119.258 49.4774 119.357 49.328L119.631 48.9298C119.83 48.5814 120.054 48.6809 119.457 49.1289C119.691 48.9152 119.908 48.6821 120.103 48.4321C120.103 48.4321 120.7 47.9841 120.103 48.4321C119.507 48.88 120.103 48.4321 120.103 48.4321C120.445 48.2698 120.778 48.0869 121.098 47.8845C121.098 47.8845 120.228 48.2081 120.774 48.0339L121.321 47.8347C121.52 47.8347 122.49 47.6356 121.819 47.7103C121.147 47.785 122.241 47.7103 122.44 47.7103H122.937C123.658 47.7103 122.117 47.5112 122.763 47.7103L123.907 48.0339C124.553 48.233 123.261 47.6605 123.658 47.9094C123.849 48.032 124.048 48.1401 124.255 48.233L124.578 48.4321C125.374 48.9796 124.156 48.009 124.578 48.4321L125.249 49.104C125.747 49.6018 124.752 48.3574 125.249 48.9547L125.548 49.4525L125.846 49.9502C126.144 50.5227 125.548 49.1289 125.846 49.8009C126.144 50.4729 126.07 50.5475 126.169 50.9209C126.269 51.2942 126.169 51.3688 126.169 50.5475C126.169 50.8213 126.169 51.0951 126.169 51.3688C126.169 52.3391 126.554 53.2697 127.24 53.9558C127.925 54.6419 128.855 55.0274 129.824 55.0274C130.793 55.0274 131.723 54.6419 132.408 53.9558C133.093 53.2697 133.478 52.3391 133.478 51.3688C133.436 49.0821 132.7 46.8624 131.368 45.0044C130.036 43.1463 128.171 41.7377 126.02 40.9657C123.949 40.2425 121.708 40.1596 119.589 40.7276C117.469 41.2957 115.57 42.4886 114.137 44.1513C112.969 45.491 112.142 47.0941 111.729 48.8234C111.315 50.5527 111.327 52.3566 111.762 54.0806C112.197 55.8046 113.043 57.3972 114.228 58.7221C115.413 60.0469 116.901 61.0645 118.564 61.6877C120.228 62.3109 122.018 62.5211 123.78 62.3002C125.543 62.0794 127.225 61.4341 128.684 60.4197C130.143 59.4053 131.334 58.0519 132.156 56.4756C132.978 54.8993 133.406 53.147 133.404 51.3688C133.404 50.3985 133.019 49.468 132.333 48.7819C131.648 48.0958 130.719 47.7103 129.749 47.7103C128.78 47.7103 127.85 48.0958 127.165 48.7819C126.48 49.468 126.095 50.3985 126.095 51.3688L126.219 51.2444Z" fill="#1F140F"/>
<path d="M253.01 49.328C253.01 49.5271 253.01 49.7262 253.01 49.9502C253.01 50.1742 253.01 49.6267 253.01 49.552C252.904 49.8691 252.821 50.1935 252.761 50.5226C252.692 50.7014 252.634 50.8842 252.587 51.0702C252.587 51.0702 252.985 50.2489 252.587 50.7217C252.189 51.1946 252.214 51.3937 251.99 51.7173C251.767 52.0408 252.488 51.1946 252.165 51.5182C252.044 51.6219 251.936 51.7388 251.841 51.8666C251.744 51.9515 251.653 52.043 251.568 52.1404C251.294 52.3644 250.872 52.5137 251.717 52.1404C251.453 52.3289 251.179 52.5034 250.897 52.663L250.573 52.8621C249.977 53.1856 251.444 52.5883 250.573 52.8621L249.629 53.1359C249.231 53.1359 249.057 53.1359 249.902 53.1359H249.405H248.386C247.888 53.1359 249.355 53.3101 248.659 53.1359L248.087 52.9866L247.515 52.8123C247.192 52.8123 247.292 52.5386 247.864 52.9617C247.615 52.7874 247.267 52.663 247.018 52.4888L246.62 52.2399C246.223 51.991 247.317 52.8621 246.819 52.3892C246.58 52.0916 246.314 51.8167 246.024 51.5679C246.546 51.9661 246.446 52.1404 246.248 51.8417L245.949 51.3688C245.874 51.2582 245.807 51.1417 245.75 51.0204C245.576 50.6969 245.601 50.2986 245.75 51.1946C245.75 50.896 245.527 50.5973 245.452 50.2738C245.438 50.1414 245.438 50.0079 245.452 49.8756C245.303 49.2036 245.452 50.8462 245.452 49.8756C245.427 49.5691 245.427 49.2611 245.452 48.9547C245.452 48.6311 245.676 48.1334 245.452 49.1289V48.7556C245.452 48.432 245.626 48.1085 245.726 47.8098C245.949 47.113 245.303 48.6063 245.726 47.9592L245.999 47.4614C245.999 47.3121 246.173 47.1876 246.248 47.0632C246.322 46.9388 246.67 46.8143 246.074 47.2623C246.31 47.0424 246.534 46.8098 246.745 46.5654C246.745 46.5654 247.341 46.1175 246.745 46.5654C246.148 47.0134 246.745 46.5654 246.745 46.5654C246.745 46.5654 247.491 46.217 247.764 45.993C248.038 45.769 246.869 46.3166 247.416 46.1423L247.988 45.9432C248.162 45.9432 249.156 45.7441 248.46 45.8188C247.764 45.8935 248.908 45.8188 249.082 45.8188H249.604C250.325 45.8188 248.759 45.6446 249.43 45.8188L250.549 46.1423C251.22 46.3414 249.927 45.769 250.3 46.1423L250.897 46.441L251.22 46.665C252.015 47.1876 250.797 46.2419 251.22 46.665L251.891 47.337C252.388 47.8596 251.394 46.6152 251.891 47.2125C251.891 47.3619 252.115 47.5112 252.214 47.6854C252.314 47.8596 252.388 48.0338 252.488 48.1832C252.811 48.7556 252.214 47.3619 252.488 48.0338C252.761 48.7058 252.711 48.7805 252.811 49.1538C252.91 49.5271 252.811 49.6018 252.811 48.7805C252.811 49.0542 252.811 49.328 252.811 49.6018C252.811 50.5721 253.196 51.5027 253.881 52.1888C254.567 52.8749 255.496 53.2603 256.465 53.2603C257.435 53.2603 258.364 52.8749 259.05 52.1888C259.735 51.5027 260.12 50.5721 260.12 49.6018C260.09 47.315 259.358 45.0927 258.024 43.2362C256.69 41.3797 254.818 39.9788 252.662 39.2235C250.593 38.4905 248.352 38.4 246.232 38.9641C244.111 39.5281 242.21 40.7202 240.778 42.3843C239.61 43.7239 238.784 45.3271 238.37 47.0564C237.957 48.7857 237.968 50.5896 238.403 52.3135C238.839 54.0375 239.685 55.6301 240.87 56.955C242.054 58.2799 243.542 59.2975 245.206 59.9207C246.869 60.5438 248.659 60.754 250.422 60.5332C252.184 60.3123 253.867 59.6671 255.326 58.6526C256.785 57.6382 257.976 56.2849 258.798 54.7086C259.62 53.1323 260.048 51.38 260.045 49.6018C260.218 49.0645 260.263 48.4947 260.179 47.9368C260.095 47.3789 259.883 46.8481 259.56 46.3858C259.237 45.9236 258.811 45.5424 258.316 45.2722C257.821 45.0019 257.271 44.8499 256.708 44.828C256.144 44.806 255.584 44.9148 255.07 45.1458C254.555 45.3768 254.101 45.7237 253.743 46.1595C253.385 46.5952 253.133 47.108 253.006 47.6577C252.878 48.2073 252.88 48.779 253.01 49.328Z" fill="#1F140F"/>
<path d="M226.732 34.7188C226.732 34.9179 226.732 35.117 226.732 35.3161C226.732 35.9134 226.732 34.9925 226.732 34.9428C226.732 34.893 226.608 35.6147 226.509 35.9134C226.409 36.2121 226.359 36.2867 226.31 36.4609C226.26 36.6352 226.732 35.6396 226.459 36.1125C226.185 36.5854 226.086 36.7845 225.862 37.108C225.638 37.4316 226.359 36.5854 226.011 36.884L225.713 37.2574L225.44 37.5062C225.166 37.7551 224.743 37.9044 225.589 37.5062C225.315 37.6556 225.067 37.8795 224.768 38.0289L224.445 38.2031C223.848 38.5515 225.315 37.9293 224.445 38.2031L223.5 38.4769C223.127 38.4769 222.953 38.4769 223.799 38.4769H223.277C222.937 38.5014 222.597 38.5014 222.257 38.4769C221.76 38.4769 223.252 38.676 222.556 38.4769L221.959 38.3275L221.412 38.1533C221.089 38.1533 221.188 37.8796 221.76 38.3026C221.511 38.1035 221.163 38.004 220.915 37.8298C220.773 37.753 220.64 37.6612 220.517 37.556C220.119 37.332 221.213 38.2031 220.716 37.7053C220.47 37.4215 220.204 37.1554 219.92 36.9089C220.442 37.3071 220.343 37.4813 220.144 37.1827L219.846 36.7098C219.77 36.5992 219.704 36.4827 219.647 36.3614C219.473 36.0378 219.473 35.6396 219.647 36.5356C219.647 36.2121 219.423 35.9134 219.349 35.6147C219.34 35.4821 219.34 35.3491 219.349 35.2165C219.199 34.5197 219.349 36.1872 219.349 35.2165C219.349 34.9179 219.349 34.6192 219.349 34.2957C219.349 33.9721 219.597 33.4495 219.349 34.4699V34.0717C219.349 33.7481 219.523 33.4495 219.622 33.1508C219.846 32.454 219.199 33.9224 219.622 33.3002L219.92 32.8024L220.169 32.3793C220.393 32.0558 220.592 32.1553 219.995 32.6033C220.24 32.3841 220.472 32.1514 220.691 31.9064C220.691 31.9064 221.288 31.4584 220.691 31.9064C220.989 31.7073 221.437 31.5829 221.71 31.3589L221.362 31.4833L221.909 31.3091C222.108 31.3091 223.103 31.11 222.407 31.1847C221.71 31.2593 222.854 31.1847 223.028 31.1847H223.55C224.271 31.1847 222.705 30.9856 223.376 31.1847L224.495 31.4833C225.166 31.7073 223.873 31.1349 224.246 31.4833L224.843 31.8069L225.166 32.006C225.962 32.5535 224.743 31.5829 225.166 32.006L225.837 32.678C226.335 33.1757 225.34 31.9313 225.837 32.5286L226.16 33.0264C226.16 33.1757 226.335 33.3499 226.434 33.5242C226.757 34.0966 226.161 32.7028 226.434 33.3748C226.707 34.0468 226.658 34.1215 226.757 34.4948C226.857 34.8681 226.757 34.9428 226.757 34.1215C226.757 34.3703 226.757 34.669 226.757 34.9428C226.757 35.9131 227.142 36.8436 227.828 37.5297C228.513 38.2159 229.442 38.6013 230.412 38.6013C231.381 38.6013 232.311 38.2159 232.996 37.5297C233.681 36.8436 234.066 35.9131 234.066 34.9428C234.034 32.6534 233.302 30.4289 231.969 28.5688C230.635 26.7088 228.764 25.3025 226.608 24.5396C224.536 23.8199 222.296 23.7387 220.178 24.3066C218.059 24.8745 216.16 26.0653 214.724 27.7252C213.556 29.0649 212.73 30.6681 212.317 32.3974C211.903 34.1267 211.914 35.9306 212.35 37.6545C212.785 39.3785 213.631 40.9711 214.816 42.296C216.001 43.6208 217.489 44.6385 219.152 45.2616C220.816 45.8848 222.605 46.095 224.368 45.8742C226.13 45.6533 227.813 45.008 229.272 43.9936C230.731 42.9792 231.922 41.6259 232.744 40.0496C233.566 38.4732 233.994 36.7209 233.992 34.9428C233.992 33.9725 233.607 33.0419 232.921 32.3558C232.236 31.6697 231.306 31.2842 230.337 31.2842C229.368 31.2842 228.438 31.6697 227.753 32.3558C227.068 33.0419 226.683 33.9725 226.683 34.9428L226.732 34.7188Z" fill="#1F140F"/>
<path d="M190.211 23.9422C190.224 24.1494 190.224 24.3572 190.211 24.5644C190.211 25.1618 190.211 24.2409 190.211 24.1911C190.211 24.1414 190.062 24.8631 189.963 25.1618C189.893 25.3405 189.835 25.5234 189.789 25.7093C189.789 25.7093 190.186 24.8631 189.789 25.3609C189.391 25.8586 189.416 26.0328 189.192 26.3564C188.968 26.6799 189.689 25.8337 189.366 26.1324C189.252 26.2422 189.144 26.3586 189.043 26.4808L188.769 26.7546C188.496 27.0035 188.073 27.1528 188.918 26.7546C188.645 26.9039 188.396 27.1279 188.123 27.2772L187.775 27.4515C187.178 27.775 188.645 27.1777 187.775 27.4515L186.83 27.7252C186.432 27.7252 186.258 27.7252 187.104 27.7252C186.938 27.7121 186.772 27.7121 186.606 27.7252C186.267 27.7504 185.926 27.7504 185.587 27.7252C185.09 27.7252 186.557 27.9243 185.861 27.7252L185.289 27.6008L184.717 27.4266C184.394 27.3021 184.493 27.1528 185.065 27.551C184.816 27.3768 184.468 27.2772 184.22 27.103C183.971 26.9288 183.946 26.9039 183.822 26.8293C183.698 26.7546 184.518 27.4763 184.046 26.9786C183.573 26.4808 183.524 26.3813 183.225 26.1573C183.747 26.5555 183.648 26.7297 183.449 26.4559L183.151 25.9582L182.952 25.6346C182.778 25.2862 182.803 24.9129 182.952 25.8088C182.952 25.4853 182.728 25.1866 182.653 24.8631C182.665 24.7389 182.665 24.614 182.653 24.4898C182.504 23.7929 182.653 25.4604 182.653 24.4898C182.629 24.1833 182.629 23.8754 182.653 23.5689C182.653 23.2205 182.877 22.7227 182.653 23.7431V23.3449C182.653 23.0214 182.828 22.7227 182.927 22.3992C183.026 22.0756 182.504 23.1956 182.927 22.5734C183.058 22.3474 183.217 22.1384 183.399 21.9512L183.648 21.5281C183.872 21.1797 184.071 21.2792 183.474 21.7521C183.722 21.553 183.921 21.2543 184.145 21.0552C184.369 20.8561 184.742 20.6073 184.145 21.0552C183.548 21.5032 184.145 21.0552 184.145 21.0552C184.501 20.8943 184.842 20.7028 185.164 20.4828C185.164 20.4828 184.269 20.8064 184.816 20.6321L185.388 20.4579C185.562 20.4579 186.557 20.2339 185.861 20.3335C185.164 20.433 186.308 20.3335 186.482 20.3335H187.004C187.725 20.3335 186.184 20.1593 186.83 20.3335C187.209 20.4097 187.583 20.5094 187.949 20.6321C188.62 20.8561 187.327 20.2837 187.7 20.6321C188.073 20.9806 188.123 20.8312 188.297 20.9557L188.62 21.1548C189.416 21.7023 188.197 20.7317 188.62 21.1548L189.291 21.8268C189.789 22.3245 188.794 21.0801 189.291 21.6774L189.615 22.1752C189.615 22.3245 189.789 22.4987 189.888 22.673C190.211 23.2454 189.615 21.8517 189.888 22.4987C190.161 23.1458 190.112 23.2454 190.211 23.6436C190.311 24.0418 190.211 24.0667 190.211 23.2703C190.211 23.5192 190.211 23.8178 190.211 24.0667C190.211 25.037 190.596 25.9676 191.282 26.6537C191.967 27.3398 192.897 27.7252 193.866 27.7252C194.835 27.7252 195.765 27.3398 196.45 26.6537C197.135 25.9676 197.52 25.037 197.52 24.0667C197.49 21.7799 196.759 19.5576 195.425 17.7011C194.091 15.8446 192.218 14.4437 190.062 13.6884C187.99 12.9687 185.75 12.8875 183.632 13.4554C181.513 14.0233 179.614 15.2141 178.178 16.8741C177.01 18.2145 176.183 19.8188 175.77 21.5492C175.357 23.2796 175.369 25.0846 175.805 26.8093C176.242 28.5341 177.09 30.1271 178.276 31.4517C179.463 32.7763 180.953 33.7931 182.618 34.4147C184.283 35.0364 186.074 35.2444 187.837 35.021C189.601 34.7975 191.283 34.1492 192.741 33.1317C194.199 32.1142 195.389 30.7579 196.208 29.179C197.028 27.6002 197.452 25.8459 197.446 24.0667C197.446 23.0964 197.061 22.1658 196.375 21.4797C195.69 20.7936 194.76 20.4081 193.791 20.4081C192.822 20.4081 191.892 20.7936 191.207 21.4797C190.522 22.1658 190.137 23.0964 190.137 24.0667L190.211 23.9422Z" fill="#1F140F"/>
<path d="M219.274 86.3863C216.44 79.8158 212.91 68.7407 212.91 68.7407C210.226 74.3464 206.761 79.5418 202.617 84.1712C202.002 84.7805 201.25 85.2342 200.425 85.4947C199.6 85.7551 198.724 85.8148 197.871 85.6689C197.018 85.5229 196.212 85.1754 195.52 84.6553C194.828 84.1351 194.269 83.4573 193.891 82.678C190.884 75.709 188.44 68.5099 186.582 61.1498C186.582 61.1498 183.052 73.0712 180.019 81.0602C179.683 81.9229 179.133 82.6854 178.42 83.275C177.707 83.8647 176.856 84.262 175.946 84.4291C175.037 84.5963 174.1 84.5277 173.224 84.2299C172.349 83.9321 171.564 83.4149 170.944 82.7277C167.2 78.4402 163.87 73.8069 161 68.89C161 68.89 157.022 81.1847 154.114 87.5809C153.681 88.5609 152.91 89.3519 151.942 89.8091C150.974 90.2662 149.874 90.3587 148.843 90.0697C144.036 88.6164 139.589 86.1656 135.791 82.8771L136.611 98.8054C152.901 94.9241 169.589 92.9695 186.333 92.9816C203.126 93.25 219.85 95.201 236.254 98.8054L237.074 82.8771L225.29 88.7506C224.741 88.9971 224.148 89.1314 223.547 89.1457C222.945 89.16 222.346 89.0539 221.786 88.8337C221.226 88.6135 220.715 88.2837 220.284 87.8634C219.852 87.4432 219.509 86.941 219.274 86.3863Z" fill="#1F140F"/>
<path d="M186.607 150.921C175.718 150.921 173.281 145.645 173.281 143.902V139.945C173.281 138.751 173.853 133.425 186.607 133.425C197.844 133.425 199.932 138.178 199.932 139.945V143.902C199.932 145.645 199.186 150.921 186.607 150.921Z" fill="#1F140F"/>
</g>
<defs>
<clipPath id="clip0_45_6948">
<rect width="371" height="450" fill="white"/>
</clipPath>
</defs>
</svg>
