<svg width="67" height="31" viewBox="0 0 67 31" fill="none" xmlns="http://www.w3.org/2000/svg">
<g clip-path="url(#clip0_118_3077)">
<path d="M40.3865 28.6375C40.5582 28.1045 41.4903 28.1408 42.0177 28.1893C43.7837 28.3589 44.1394 28.0076 43.7592 26.3237C42.6677 21.4175 43.379 16.4992 49.0206 13.6645C50.2803 13.0925 51.3557 12.1881 52.1283 11.0509C52.9008 9.91376 53.3405 8.58803 53.3989 7.21978C53.5162 5.96914 53.8264 4.74357 54.3187 3.58555C54.611 2.78862 55.0839 2.06823 55.7012 1.47945C56.3185 0.89066 57.0638 0.449065 57.8804 0.188403C58.6969 -0.0722584 59.563 -0.145081 60.4124 -0.0245031C61.2617 0.0960752 62.072 0.406844 62.7812 0.884092C63.408 1.28697 64.1683 1.43457 64.9029 1.29597C65.884 0.993115 66.252 1.29596 66.6076 2.08338C66.8493 2.56657 66.9853 3.09461 67.0068 3.63313C67.0282 4.17165 66.9347 4.70862 66.7323 5.2091C66.5298 5.70957 66.223 6.16232 65.8317 6.53796C65.4405 6.9136 64.9736 7.20369 64.4614 7.38936C62.2415 8.23735 62.2415 9.27917 62.9038 11.2538C63.689 13.1081 63.7241 15.1894 63.0019 17.0686C61.7755 19.8185 61.9594 22.6047 62.3887 25.4394C62.5481 26.5418 62.6585 27.4988 64.0076 28.0197C64.2778 28.1072 64.518 28.2672 64.7014 28.4818C64.8848 28.6964 65.0042 28.9572 65.0462 29.235C65.0882 29.5128 65.0511 29.7966 64.9392 30.0548C64.8272 30.3129 64.6448 30.5353 64.4123 30.6969C62.8722 31.1191 61.2282 30.9593 59.8009 30.2487C59.0738 30.5327 58.3169 30.7358 57.5443 30.8544C54.8952 30.915 52.2461 30.8544 49.597 30.8544C49.0802 30.7997 48.5798 30.6432 48.1253 30.3941C47.6757 30.0927 47.1614 29.8987 46.6229 29.8272C46.0845 29.7557 45.5365 29.8088 45.0224 29.9822C43.862 30.2616 42.6506 30.2616 41.4902 29.9822C41.0487 30.0185 40.1903 29.2675 40.3865 28.6375Z" fill="#6A5120"/>
<path d="M0.919912 25.3429C1.06708 25.8396 1.42273 26.5543 1.81518 26.6391C2.1122 26.6876 2.41648 26.6693 2.70529 26.5854C2.9941 26.5014 3.25998 26.3542 3.48311 26.1546C3.87953 25.6295 4.06328 24.9772 3.99827 24.3253C3.78753 23.0748 3.92627 21.7912 4.39957 20.6128C4.87287 19.4345 5.66272 18.406 6.68408 17.6384C7.6954 16.7978 8.81767 16.0969 10.02 15.5547C10.9888 15.1505 11.8361 14.507 12.4804 13.686C13.1248 12.865 13.5445 11.894 13.6993 10.8665C13.87 9.76705 14.1242 8.68181 14.4597 7.61998C14.8266 6.68904 15.3353 5.8189 15.9682 5.03967C16.6468 4.17765 17.4293 3.40064 18.2984 2.72587C18.9838 2.31384 19.7167 1.98441 20.4814 1.74463L20.8249 3.44063C21.6958 3.38861 22.5581 3.63497 23.2664 4.13817C23.9747 4.64137 24.4855 5.37057 24.7127 6.20265C24.8108 6.48127 25.2891 6.62661 25.5466 6.89312C25.8042 7.15963 26.3316 7.60786 26.3684 7.99551C26.4838 8.64717 26.3925 9.31814 26.1071 9.91662C25.8217 10.5151 25.3561 11.0119 24.774 11.339C24.3571 11.5378 24.0236 11.8741 23.831 12.2899C23.6384 12.7058 23.5989 13.1749 23.7192 13.6165C23.9909 15.6515 23.5587 17.7176 22.4928 19.4797C21.541 21.1743 21.1145 23.1079 21.2664 25.0401C21.2664 25.9002 21.2664 26.6149 22.2721 27.16C22.5143 27.3008 22.7163 27.5001 22.8591 27.7392C23.0018 27.9783 23.0806 28.2494 23.0879 28.5269C23.0953 28.8044 23.031 29.0792 22.9011 29.3254C22.7713 29.5716 22.5801 29.7811 22.3456 29.9342C21.5237 30.1788 20.6569 30.2394 19.8083 30.1116C18.9597 29.9837 18.1507 29.6707 17.4399 29.1952C16.839 29.5344 16.2993 30.0553 15.7597 30.0795C13.0616 30.1643 10.3634 30.1522 7.66529 30.0795C7.35868 30.0795 6.97845 29.6192 6.78222 29.28C6.46337 28.6668 6.18081 28.0358 5.93598 27.3902C3.71614 29.4254 1.72933 29.813 0.049118 28.7712" fill="#6A5120"/>
</g>
<defs>
<clipPath id="clip0_118_3077">
<rect width="67" height="31" fill="white" transform="matrix(-1 0 0 1 67 0)"/>
</clipPath>
</defs>
</svg>
