<svg width="581" height="329" viewBox="0 0 581 329" fill="none" xmlns="http://www.w3.org/2000/svg">
<g clip-path="url(#clip0_118_4427)">
<path d="M88.4449 36.8257C89.2181 35.7694 90.0755 34.7773 91.0085 33.8589C92.1899 32.8065 93.251 31.6266 94.1724 30.3408C95.6744 28.186 96.4786 25.6227 96.4765 22.9968C96.4868 21.2476 96.1444 19.5143 95.4698 17.9001C94.7952 16.286 93.8022 14.8242 92.5499 13.6019C91.2849 12.3753 89.7888 11.4119 88.1482 10.7676C86.5077 10.1233 84.7554 9.81102 82.9931 9.84876H77.4603C74.1291 9.80126 70.8852 10.9132 68.2848 12.9939C66.744 14.2273 65.5091 15.7995 64.676 17.5879C63.843 19.3763 63.4344 21.3327 63.4821 23.3048L63.5794 26.0852C63.5498 26.7133 63.4491 27.336 63.2792 27.9414C62.7273 29.8448 62.0526 31.7104 61.2592 33.5265L55.3288 48.4416L48.0273 32.5133C47.2348 30.9192 46.6409 29.2341 46.2588 27.4956C46.2467 27.3608 46.2467 27.2251 46.2588 27.0903C46.4442 25.9541 46.5365 24.8046 46.5346 23.6533C46.5346 17.0064 41.7481 9.87307 31.2503 9.87307H13.9864C10.7464 9.83026 7.58409 10.8654 4.99751 12.8156C3.4332 14.0145 2.16797 15.559 1.30095 17.3282C0.433938 19.0974 -0.0113126 21.0431 7.99373e-05 23.013C-0.0430465 25.4515 0.600714 27.8531 1.8579 29.9436C2.62142 31.1416 3.49603 32.2652 4.47018 33.2995C4.59187 33.4292 4.71357 33.5589 4.84337 33.6805C5.67933 34.5301 6.44447 35.4464 7.13116 36.4204C8.15438 37.9537 9.02651 39.5826 9.73534 41.284L31.234 88.2991C32.6208 91.341 34.9052 93.8866 37.781 95.5945C40.5121 97.269 43.6548 98.153 46.8591 98.1479H51.6862C55.1202 98.1623 58.4799 97.1487 61.3322 95.2378C64.1167 93.375 66.2896 90.733 67.579 87.6425L86.3599 40.8787C86.8912 39.4497 87.5911 38.0891 88.4449 36.8257Z" fill="#F9AE00"/>
<path d="M203.694 203.275C203.727 201.048 203.206 198.847 202.177 196.871C201.631 195.876 201.002 194.93 200.295 194.042C199.864 193.404 199.521 192.712 199.272 191.983C199.272 191.927 198.875 190.662 198.875 186.714V178.868C199.474 179.231 200.091 179.564 200.724 179.865C202.618 180.715 204.676 181.142 206.752 181.113C208.605 181.111 210.439 180.736 212.143 180.011C213.848 179.285 215.389 178.224 216.674 176.89C218.046 175.473 219.107 173.786 219.789 171.937C219.789 172.18 219.789 172.391 219.789 172.683V192.851C219.824 193.916 219.765 194.982 219.611 196.036C217.686 198.389 216.629 201.331 216.617 204.369C216.61 206.134 216.987 207.879 217.723 209.483C218.458 211.087 219.534 212.512 220.876 213.659C223.273 215.747 226.353 216.883 229.533 216.853H249.855C253.074 216.899 256.198 215.762 258.633 213.659C259.971 212.51 261.045 211.084 261.778 209.48C262.512 207.876 262.89 206.133 262.884 204.369C262.872 201.325 261.812 198.377 259.882 196.02C259.749 194.969 259.695 193.91 259.72 192.851V181.316C263.164 183.927 267.38 185.319 271.703 185.272C274.454 185.275 277.176 184.704 279.694 183.594V186.382C279.694 196.571 282.371 204.532 287.644 210.068C290.296 212.841 293.496 215.032 297.04 216.503C300.585 217.974 304.397 218.692 308.234 218.612C313.182 218.587 318.068 217.504 322.561 215.434L323.372 215.053C325.326 216.246 327.574 216.869 329.863 216.853H347.605C350.405 216.869 353.136 215.991 355.401 214.348C357.645 216.008 360.365 216.9 363.157 216.893H383.439C386.658 216.941 389.782 215.804 392.217 213.7C393.532 212.556 394.593 211.151 395.332 209.574C396.047 210.395 396.816 211.167 397.636 211.884C402.898 216.387 409.636 218.797 416.563 218.652C420.338 218.624 424.078 217.921 427.605 216.577C430.9 215.422 433.962 213.69 436.65 211.462C438.098 210.316 439.264 208.854 440.057 207.187C440.85 205.52 441.25 203.694 441.226 201.848C441.226 200.11 440.866 198.391 440.168 196.799C439.47 195.207 438.449 193.777 437.169 192.599C434.964 190.545 432.108 189.329 429.097 189.163V167.033C431.405 166.559 433.538 165.46 435.263 163.855C436.509 162.694 437.501 161.287 438.178 159.725C438.855 158.162 439.202 156.477 439.198 154.774C439.193 153.071 438.837 151.388 438.151 149.829C437.466 148.27 436.466 146.869 435.214 145.714C433.502 144.127 431.386 143.042 429.097 142.577V139.019C429.102 137.207 428.729 135.415 428.003 133.756C427.277 132.097 426.213 130.607 424.879 129.38C422.352 127.044 419.032 125.753 415.59 125.765C411.614 125.806 407.81 127.387 404.978 130.175C402.924 132.17 401.025 134.319 399.299 136.603C397.736 138.665 395.987 140.581 394.075 142.326C393.75 142.326 393.442 142.391 393.134 142.423C393.289 141.442 393.37 140.45 393.377 139.456C393.385 136.849 392.844 134.27 391.789 131.886C390.733 129.502 389.188 127.367 387.252 125.619C384.761 123.307 381.72 121.67 378.417 120.861C379.68 120.189 380.899 119.439 382.068 118.616C385.767 122.053 388.445 123.658 392.233 123.658C394.164 123.678 396.061 123.157 397.71 122.154C399.359 121.151 400.694 119.706 401.563 117.983C401.92 117.789 402.374 117.578 402.699 117.408C405.514 116.005 410.235 113.663 412.263 107.98C413.051 105.787 413.034 103.386 412.215 101.204C411.751 99.9565 411.044 98.8131 410.137 97.8393C409.229 96.8655 408.138 96.0806 406.925 95.5296C407.46 94.3018 407.736 92.9775 407.737 91.6387V90.2769C407.737 87.6648 406.698 85.1597 404.85 83.3127C403.001 81.4657 400.494 80.428 397.88 80.428C396.277 80.4299 394.681 80.6425 393.134 81.0603C394.37 78.6757 395.033 76.0365 395.073 73.3515C395.197 70.9519 394.829 68.5524 393.992 66.2999C393.155 64.0474 391.866 61.9894 390.205 60.2521C387.479 57.415 382.425 54.0267 373.801 54.0267C360.951 54.0267 354.112 61.7112 352.416 70.0118C351.958 69.3764 351.442 68.7848 350.875 68.2446C350.321 67.713 349.718 67.2353 349.074 66.818C351.262 64.0491 352.444 60.619 352.424 57.0907C352.378 55.3858 352.124 53.6927 351.67 52.0488C350.32 47.3571 347.647 43.1528 343.971 39.9383C340.431 36.7681 336.324 34.293 331.866 32.6429C327.317 30.9216 322.493 30.04 317.629 30.0409C311.345 29.9639 305.156 31.5825 299.716 34.7262C297.728 35.9179 295.868 37.3114 294.167 38.8846C294.029 38.5927 293.85 38.3252 293.688 38.074C295.323 34.6911 295.817 30.8699 295.096 27.1828C294.375 23.4958 292.478 20.1415 289.689 17.6224C287.675 15.677 285.245 14.2145 282.583 13.3455C279.921 12.4766 277.096 12.2238 274.321 12.6065C271.547 12.9891 268.896 13.9971 266.568 15.5542C264.241 17.1113 262.299 19.1768 260.888 21.5944C259.145 21.1566 257.355 20.9334 255.558 20.9297C250.356 20.8135 245.31 22.71 241.475 26.2229C240.129 27.4838 238.954 28.9144 237.978 30.4786C235.673 30.1743 233.35 30.0253 231.025 30.0328C225.406 30.0001 219.834 31.0515 214.613 33.1293C214.025 31.4626 213.17 29.9022 212.082 28.5088C211.985 28.3791 211.879 28.2494 211.774 28.1278C209.717 25.7177 207.117 23.8287 204.189 22.6157C201.477 21.4963 198.571 20.9232 195.638 20.9297C190.434 20.8148 185.386 22.7109 181.546 26.2229C180.201 27.4838 179.025 28.9144 178.049 30.4786C175.747 30.1745 173.427 30.0256 171.105 30.0328C165.339 29.9893 159.623 31.0914 154.287 33.2752C149.85 35.0741 145.84 37.7831 142.516 41.2272C142.086 40.7895 141.705 40.3355 141.234 39.9059C137.697 36.7357 133.593 34.2607 129.138 32.6105C124.588 30.8906 119.764 30.009 114.9 30.0084C108.616 29.9294 102.427 31.5482 96.9872 34.6937C91.7232 37.75 87.4055 42.1988 84.5099 47.5499C81.642 52.854 80.1603 58.7954 80.202 64.8239C80.1801 71.1931 82.0584 77.4243 85.597 82.722C89.0776 87.9982 93.8576 92.2914 99.4778 95.1891C105.399 98.2118 111.963 99.7573 118.612 99.6938C125.26 99.6303 131.795 97.9596 137.656 94.8244C138.63 94.2732 139.506 93.6733 140.39 93.0816C141.096 93.8787 141.87 94.6137 142.702 95.2783C143.213 95.6836 143.733 96.0889 144.26 96.3969C144.006 97.5442 143.878 98.7157 143.879 99.8906C143.893 102.333 144.413 104.746 145.406 106.978C146.398 109.21 147.842 111.213 149.647 112.86C152.413 115.419 155.658 117.405 159.196 118.705C158.205 119.187 157.274 119.783 156.421 120.48C154.916 121.732 153.706 123.301 152.88 125.076C152.054 126.85 151.631 128.785 151.643 130.742C151.61 132.969 152.131 135.17 153.16 137.146C153.678 138.094 154.275 138.997 154.944 139.845C155.374 140.5 155.715 141.209 155.959 141.953C155.959 142.01 156.34 143.282 156.34 147.303V186.666C156.34 190.719 155.975 191.951 155.967 191.975C155.724 192.731 155.38 193.451 154.944 194.115C154.276 194.964 153.679 195.867 153.16 196.815C152.131 198.791 151.61 200.991 151.643 203.218C151.631 205.175 152.054 207.11 152.88 208.885C153.706 210.659 154.916 212.229 156.421 213.481C159.166 215.757 162.638 216.974 166.205 216.91H188.994C192.513 216.941 195.935 215.749 198.672 213.537C200.232 212.318 201.495 210.761 202.365 208.984C203.235 207.206 203.689 205.254 203.694 203.275ZM235.585 121.534C244.403 121.534 252.005 119.734 258.187 116.192C265.229 112.139 269.358 105.8 270.04 98.1641H285.551C288.636 98.208 291.631 97.1175 293.964 95.1C295.089 94.1144 296.019 92.9266 296.706 91.5982C298.427 92.9337 300.256 94.124 302.174 95.1567C308.096 98.1794 314.662 99.7249 321.312 99.6614C327.962 99.5979 334.497 97.9272 340.361 94.7919C342.357 93.6561 344.257 92.3574 346.039 90.9091C344.158 94.3746 343.181 98.2583 343.2 102.201C343.2 113.549 350.883 122.126 361.94 123.739C361.083 124.33 360.27 124.983 359.507 125.692C356.17 128.788 354.064 132.983 353.577 137.506C353.089 142.029 354.253 146.576 356.854 150.31C356.708 150.391 356.553 150.448 356.407 150.529C355.687 148.8 354.605 147.244 353.235 145.965C350.709 143.615 347.382 142.314 343.93 142.326C341.283 142.303 338.667 142.885 336.28 144.028C335.022 144.644 333.497 145.487 331.542 146.671C330.432 147.383 329.283 148.036 328.102 148.624C327.821 148.677 327.536 148.699 327.25 148.689C324.245 148.661 321.324 149.675 318.983 151.559C318.287 149.422 317.059 147.498 315.414 145.965C312.894 143.6 309.558 142.296 306.101 142.326C303.456 142.302 300.842 142.885 298.458 144.028C297.193 144.644 295.676 145.487 293.72 146.671C292.609 147.382 291.461 148.034 290.281 148.624C289.997 148.677 289.709 148.699 289.421 148.689C288.255 148.704 287.096 148.87 285.973 149.183C285.179 148.26 284.311 147.403 283.377 146.622C278.471 142.592 272.284 140.447 265.934 140.575C261.442 140.593 257.015 141.653 253.003 143.671L252.573 143.89C250.606 142.858 248.417 142.321 246.196 142.326C243.552 142.302 240.938 142.885 238.554 144.028L238.075 144.279C238.064 143.073 237.881 141.875 237.532 140.721L233.475 126.843C232.856 124.747 231.743 122.829 230.23 121.25C231.983 121.412 233.711 121.534 235.585 121.534ZM206.728 145.609C204.631 145.583 202.554 146.017 200.643 146.881C200.019 147.178 199.412 147.511 198.826 147.878V143.744H205.178C206.217 143.69 207.256 143.827 208.245 144.15C208.811 144.708 209.319 145.322 209.762 145.982C208.768 145.744 207.75 145.619 206.728 145.609ZM198.258 116.192C201.49 114.372 204.264 111.841 206.371 108.791C207.272 110.265 208.363 111.614 209.616 112.804C211.384 114.468 213.374 115.878 215.53 116.994H196.571C197.122 116.711 197.723 116.5 198.258 116.192Z" fill="#F9AE00"/>
<path d="M571.069 282.812C569.711 281.248 568.236 279.79 566.656 278.451L566.891 278.232C568.503 276.721 569.786 274.893 570.658 272.863C571.531 270.834 571.974 268.646 571.962 266.438C571.962 262.985 570.753 256.435 562.673 251.32C558.241 248.619 553.4 246.656 548.338 245.508C543.673 244.327 538.887 243.696 534.075 243.627C526.287 243.5 518.569 245.129 511.498 248.394C508.456 249.818 505.745 251.861 503.539 254.392C502.087 249.691 497.771 245.573 490.048 245.573H483.168C473.774 245.573 470.034 250.858 469.003 255.3C468.314 255.924 467.129 256.921 465.134 258.542V229.669C465.14 227.808 464.759 225.966 464.017 224.259C463.274 222.553 462.184 221.019 460.818 219.755C458.213 217.295 454.756 215.938 451.172 215.969C448.386 215.944 445.63 216.554 443.116 217.753C441.745 218.418 440.114 219.325 438.005 220.598C437.815 220.712 437.629 220.833 437.445 220.963C436.398 221.722 435.278 222.376 434.102 222.916C433.597 223.091 433.062 223.163 432.529 223.127C429.344 223.084 426.242 224.144 423.751 226.126C422.29 227.311 421.115 228.808 420.31 230.507C419.506 232.206 419.093 234.063 419.102 235.943C419.114 239.134 420.245 242.221 422.299 244.665C422.347 244.764 422.388 244.867 422.42 244.973C422.64 246.312 422.725 247.67 422.672 249.026V257.983C418.682 253.271 413.591 249.616 407.85 247.34C401.673 244.815 395.053 243.547 388.379 243.611C380.691 243.513 373.12 245.502 366.475 249.366C362.507 251.729 358.966 254.743 356.001 258.283C355.84 255.711 354.936 253.242 353.397 251.174C355.671 247.242 356.529 242.65 355.829 238.163C355.13 233.676 352.914 229.563 349.552 226.507C345.526 222.769 340.231 220.698 334.736 220.711C329.241 220.725 323.955 222.823 319.948 226.58C317.934 228.439 316.328 230.696 315.233 233.208C314.138 235.72 313.578 238.431 313.588 241.171C313.592 242.81 313.791 244.443 314.18 246.035C313.734 245.918 313.282 245.826 312.826 245.759V240.701C312.831 238.836 312.449 236.991 311.703 235.282C310.957 233.572 309.864 232.036 308.493 230.771C305.888 228.327 302.438 226.982 298.864 227.018C294.702 227.066 290.722 228.728 287.765 231.655C285.496 233.855 283.402 236.229 281.502 238.756C279.692 241.136 277.672 243.35 275.466 245.37C275.126 245.654 275.037 245.654 274.931 245.654C271.708 245.634 268.589 246.793 266.161 248.912C265.568 249.437 265.025 250.015 264.539 250.639C260.436 248.301 256.014 246.573 251.412 245.508C246.745 244.327 241.956 243.696 237.142 243.627C229.348 243.497 221.625 245.126 214.548 248.394C205.778 252.593 200.943 260.48 200.943 270.604C200.883 276.369 202.779 281.983 206.322 286.533C205.491 287.087 204.705 287.705 203.969 288.381C202.077 290.051 200.565 292.108 199.538 294.413C198.511 296.718 197.991 299.217 198.014 301.74C198.014 305.833 199.361 311.929 205.803 317.66C210.252 321.479 215.437 324.348 221.038 326.09C226.901 328.023 233.037 329.003 239.211 328.992C250.569 328.992 259.939 326.73 267.11 322.248C269.93 320.512 272.43 318.304 274.501 315.722C275.854 317.955 277.548 319.963 279.523 321.672C285.231 326.538 292.531 329.135 300.032 328.968C304.085 328.935 308.101 328.186 311.893 326.755C313.312 326.227 314.699 325.615 316.046 324.923C318.217 326.29 320.733 327.01 323.299 326.998H346.169C349.488 327.046 352.71 325.875 355.223 323.707C357.442 321.785 358.915 319.146 359.384 316.249C362.448 319.076 365.875 321.483 369.574 323.407C376.719 327.123 384.664 329.04 392.72 328.992C402.749 329.085 412.573 326.156 420.911 320.586C421.587 321.764 422.447 322.826 423.459 323.731C425.977 325.9 429.204 327.071 432.529 327.022H455.406C458.684 327.052 461.859 325.882 464.33 323.731C464.793 323.327 465.227 322.891 465.628 322.426C467.455 324.473 469.903 325.865 472.597 326.39C474.861 326.831 477.163 327.043 479.469 327.022H500.886C504.311 327.04 507.62 325.79 510.175 323.512C510.362 323.35 510.5 323.148 510.67 322.977C513.035 324.206 515.493 325.246 518.02 326.09C523.88 328.023 530.013 329.003 536.185 328.992C547.543 328.992 556.913 326.73 564.092 322.248C572.611 316.922 577.121 308.889 577.121 299.024C577.147 293.064 574.995 287.3 571.069 282.812ZM270.355 279.099C270.128 278.897 269.942 278.654 269.706 278.451L269.934 278.232C270.096 278.078 270.209 277.9 270.355 277.738V279.099ZM313.588 298.327C313.483 298.327 313.385 298.327 313.28 298.327H312.826V273.725C312.972 273.92 313.077 274.13 313.239 274.317C313.239 274.365 313.312 274.463 313.353 274.592C313.559 275.895 313.638 277.214 313.588 278.532V298.327ZM400.93 298.181C397.425 298.181 395.656 297.022 394.626 296.146C392.432 294.258 390.771 291.83 389.807 289.102C388.956 286.821 388.386 284.445 388.112 282.026C389.195 284.691 390.841 287.091 392.939 289.062C396.952 292.848 402.291 294.911 407.809 294.809C408.986 294.812 410.16 294.72 411.322 294.533C408.645 297.03 405.319 298.181 400.93 298.181ZM422.672 289.735C422.404 289.735 422.136 289.662 421.86 289.645L422.388 289.183C422.485 289.086 422.574 288.989 422.672 288.9V289.735ZM500.919 288.389C500.338 288.954 499.796 289.558 499.296 290.197L488.36 273.903L489.172 273.223C490.745 272.084 492.461 271.154 494.274 270.458C495.556 269.997 496.797 269.427 497.982 268.756C497.982 269.38 497.868 269.98 497.868 270.612C497.81 276.375 499.702 281.988 503.239 286.541C502.419 287.105 501.643 287.731 500.919 288.413V288.389Z" fill="#F9AE00"/>
<path d="M92.3219 26.9525C93.0953 25.8989 93.9526 24.9095 94.8855 23.9938C96.0486 22.9358 97.0981 21.7595 98.017 20.4839C99.7628 17.9511 100.557 14.8837 100.26 11.8227C99.9636 8.76171 98.5945 5.90378 96.3945 3.75304C95.1352 2.52779 93.6447 1.56499 92.0096 0.920673C90.3745 0.276351 88.6274 -0.0366271 86.8701 -5.76805e-05H81.3373C78.0078 -0.0458074 74.7653 1.06278 72.1618 3.13698C70.6225 4.37163 69.3885 5.94401 68.5556 7.73214C67.7227 9.52028 67.3133 11.4761 67.3591 13.4479L67.4564 16.2363C67.4271 16.8618 67.3264 17.4819 67.1562 18.0845C66.6044 19.9879 65.9296 21.8535 65.1362 23.6696L59.2058 38.5847L51.953 22.6644C51.1554 21.0689 50.5587 19.3808 50.1763 17.6387C50.1645 17.5066 50.1645 17.3736 50.1763 17.2415C50.3642 16.1027 50.4591 14.9506 50.4603 13.7964C50.4603 7.14947 45.6738 0.0161517 35.1678 0.0161517H17.8634C14.6224 -0.0328715 11.4582 1.00294 8.87453 2.95865C7.31161 4.15885 6.04739 5.70366 5.18052 7.47253C4.31364 9.24141 3.86757 11.1865 3.87709 13.1561C3.8333 15.5921 4.47717 17.9913 5.73491 20.0786C6.4964 21.278 7.37116 22.4018 8.34721 23.4345C8.4689 23.5723 8.59869 23.6939 8.72038 23.8236C9.5588 24.6703 10.3266 25.5839 11.0163 26.5553C12.034 28.0906 12.9033 29.7192 13.6123 31.419L35.111 78.4745C36.5008 81.5171 38.788 84.0626 41.6661 85.77C44.3963 87.4465 47.5397 88.3306 50.7442 88.3234H55.5713C59.0052 88.3368 62.3646 87.3233 65.2173 85.4133C67.9989 83.5493 70.1688 80.9074 71.456 77.818L90.245 31.0299C90.7717 29.5927 91.469 28.2238 92.3219 26.9525Z" fill="#006253"/>
<path d="M207.548 193.418C207.58 191.191 207.059 188.991 206.031 187.015C205.486 186.019 204.856 185.073 204.148 184.186C203.715 183.549 203.371 182.857 203.126 182.127C203.126 182.078 202.737 180.805 202.737 176.858V169.011C203.331 169.378 203.946 169.711 204.578 170.008C206.472 170.859 208.53 171.285 210.606 171.257C212.459 171.255 214.293 170.88 215.997 170.154C217.702 169.428 219.243 168.367 220.528 167.033C221.901 165.621 222.962 163.936 223.643 162.089C223.643 162.324 223.643 162.543 223.643 162.826V183.002C223.673 184.067 223.616 185.132 223.473 186.188C221.544 188.535 220.484 191.475 220.471 194.513C220.468 196.279 220.848 198.024 221.585 199.629C222.321 201.234 223.397 202.661 224.738 203.81C227.134 205.901 230.214 207.041 233.395 207.012H253.717C256.937 207.056 260.06 205.916 262.495 203.81C263.837 202.664 264.913 201.239 265.649 199.634C266.384 198.03 266.761 196.285 266.754 194.521C266.741 191.472 265.672 188.522 263.728 186.172C263.595 185.121 263.541 184.061 263.566 183.002V171.459C267.011 174.083 271.233 175.483 275.565 175.439C278.316 175.439 281.037 174.868 283.556 173.761V176.55C283.556 186.731 286.233 194.699 291.506 200.228C294.158 202.999 297.358 205.19 300.903 206.661C304.447 208.132 308.259 208.85 312.096 208.771C317.047 208.747 321.935 207.663 326.431 205.594L327.243 205.213C329.195 206.407 331.443 207.033 333.733 207.02H351.475C354.304 207.037 357.063 206.145 359.345 204.475C361.589 206.135 364.308 207.027 367.1 207.02H387.423C390.633 207.056 393.745 205.914 396.168 203.81C397.489 202.672 398.551 201.266 399.283 199.684C399.996 200.508 400.766 201.28 401.587 201.995C406.853 206.499 413.593 208.908 420.523 208.763C424.254 208.734 427.951 208.045 431.442 206.729C434.736 205.574 437.799 203.845 440.488 201.622C441.936 200.474 443.102 199.01 443.895 197.342C444.688 195.674 445.088 193.846 445.064 192C445.067 190.263 444.708 188.544 444.009 186.953C443.311 185.362 442.289 183.933 441.007 182.759C438.806 180.697 435.948 179.477 432.935 179.314V157.184C435.242 156.709 437.375 155.61 439.101 154.007C440.346 152.844 441.339 151.437 442.016 149.874C442.693 148.311 443.04 146.625 443.036 144.922C443.031 143.218 442.675 141.534 441.99 139.975C441.304 138.415 440.304 137.013 439.052 135.857C437.339 134.273 435.223 133.19 432.935 132.729V129.162C432.947 127.351 432.581 125.558 431.862 123.896C431.143 122.234 430.085 120.739 428.757 119.508C426.233 117.185 422.923 115.903 419.492 115.917C415.509 115.948 411.695 117.526 408.856 120.318C406.8 122.311 404.901 124.46 403.178 126.746C401.612 128.805 399.864 130.718 397.953 132.461C397.637 132.461 397.328 132.534 397.012 132.558C397.167 131.577 397.249 130.585 397.255 129.591C397.259 126.985 396.713 124.406 395.652 122.025C394.591 119.643 393.039 117.512 391.098 115.771C388.61 113.452 385.568 111.81 382.263 111.004C383.531 110.338 384.754 109.588 385.922 108.759C389.613 112.196 392.298 113.809 396.087 113.809C398.017 113.827 399.914 113.305 401.562 112.303C403.211 111.3 404.546 109.856 405.417 108.135C405.766 107.948 406.228 107.729 406.544 107.559C409.368 106.165 414.081 103.814 416.117 98.1319C416.898 95.9369 416.878 93.537 416.061 91.3553C415.6 90.1062 414.895 88.9612 413.986 87.9871C413.078 87.0129 411.985 86.229 410.771 85.6811C411.305 84.4503 411.581 83.1234 411.582 81.782V80.4283C411.58 77.8148 410.54 75.3089 408.691 73.4608C406.841 71.6127 404.333 70.5735 401.717 70.5714C400.114 70.5733 398.519 70.7859 396.971 71.2037C398.211 68.8204 398.875 66.1804 398.91 63.4948C399.034 61.0953 398.666 58.6957 397.829 56.4432C396.992 54.1907 395.704 52.1328 394.043 50.3954C391.317 47.5583 386.263 44.1781 377.639 44.1781C364.788 44.1781 357.957 51.8545 356.254 60.1551C355.798 59.5204 355.282 58.9313 354.712 58.3961C354.153 57.874 353.544 57.4071 352.895 57.0019C355.098 54.2128 356.28 50.7547 356.245 47.2017C356.195 45.4965 355.939 43.8036 355.483 42.1597C354.131 37.4713 351.459 33.2702 347.784 30.0574C344.247 26.883 340.14 24.4075 335.68 22.7619C331.131 21.0406 326.306 20.159 321.442 20.1599C315.157 20.0833 308.968 21.7049 303.529 24.8533C301.541 26.0423 299.682 27.4331 297.98 29.0036C297.842 28.7199 297.664 28.4443 297.509 28.193C299.133 24.8155 299.624 21.0053 298.909 17.3272C298.194 13.6492 296.312 10.2992 293.542 7.77387C290.041 4.52263 285.435 2.72093 280.655 2.73297C275.875 2.74501 271.278 4.56988 267.793 7.83871C266.601 8.99472 265.574 10.3095 264.742 11.7458C262.996 11.312 261.204 11.0889 259.404 11.0811C254.202 10.9667 249.157 12.8629 245.32 16.3744C243.977 17.637 242.802 19.0673 241.824 20.6301C239.519 20.3298 237.196 20.1808 234.871 20.1842C229.251 20.1503 223.678 21.2046 218.459 23.2888C217.871 21.6196 217.016 20.0565 215.928 18.6603C215.831 18.5306 215.725 18.409 215.62 18.2793C213.56 15.8716 210.961 13.9831 208.034 12.7672C205.323 11.6477 202.417 11.0747 199.484 11.0811C194.282 10.965 189.236 12.8614 185.4 16.3744C184.052 17.6327 182.876 19.0637 181.903 20.6301C179.598 20.3298 177.276 20.1808 174.951 20.1842C169.186 20.1448 163.47 21.2468 158.133 23.4266C153.698 25.2304 149.689 27.9388 146.362 31.3787C145.932 30.9409 145.55 30.487 145.088 30.0655C141.55 26.8927 137.443 24.4174 132.984 22.77C128.434 21.0494 123.61 20.1678 118.746 20.168C112.46 20.089 106.271 21.7108 100.833 24.8614C95.5699 27.9127 91.2543 32.3594 88.3638 37.7095C85.4894 43.0114 84.0047 48.9538 84.0478 54.9835C84.0259 61.3527 85.9041 67.5839 89.4428 72.8816C92.9193 78.1349 97.6877 82.4082 103.291 85.292C109.21 88.3199 115.776 89.8685 122.425 89.805C129.075 89.7414 135.61 88.0677 141.47 84.9272C142.451 84.3841 143.319 83.7842 144.212 83.1925C144.916 83.9915 145.69 84.7266 146.524 85.3892C147.027 85.7891 147.546 86.162 148.081 86.5079C147.825 87.6521 147.695 88.8209 147.692 89.9935C147.709 92.4354 148.231 94.8475 149.223 97.079C150.216 99.3106 151.658 101.314 153.46 102.963C156.229 105.516 159.473 107.499 163.009 108.799C162.02 109.28 161.091 109.876 160.242 110.575C158.735 111.826 157.524 113.395 156.696 115.169C155.869 116.944 155.445 118.879 155.456 120.837C155.423 123.064 155.944 125.265 156.973 127.241C157.491 128.193 158.091 129.099 158.766 129.948C159.189 130.604 159.53 131.309 159.78 132.048C160.107 133.811 160.232 135.606 160.153 137.398V176.761C160.229 178.541 160.107 180.325 159.788 182.078C159.538 182.829 159.195 183.545 158.766 184.21C158.092 185.06 157.492 185.965 156.973 186.917C155.945 188.891 155.423 191.089 155.456 193.313C155.444 195.272 155.868 197.209 156.695 198.985C157.523 200.761 158.734 202.331 160.242 203.583C162.985 205.858 166.454 207.075 170.018 207.012H192.807C196.318 207.066 199.739 205.9 202.485 203.713C204.056 202.494 205.328 200.933 206.205 199.149C207.082 197.366 207.541 195.406 207.548 193.418ZM200.449 107.146C201.001 106.862 201.609 106.643 202.136 106.335C205.371 104.52 208.147 101.989 210.249 98.9344C211.15 100.421 212.241 101.783 213.494 102.987C215.265 104.651 217.258 106.061 219.417 107.178L200.449 107.146ZM210.606 135.76C208.513 135.734 206.439 136.166 204.53 137.025C203.916 137.318 203.317 137.642 202.737 137.997V133.863H209.081C210.119 133.809 211.159 133.946 212.148 134.269C212.717 134.826 213.228 135.44 213.673 136.101C212.666 135.873 211.638 135.759 210.606 135.76ZM239.463 111.677C248.282 111.677 255.883 109.878 262.065 106.335C269.115 102.282 273.236 95.9433 273.918 88.3155H289.429C292.515 88.3609 295.509 87.2703 297.842 85.2514C298.97 84.2662 299.903 83.0784 300.592 81.7496C302.313 83.0833 304.142 84.271 306.06 85.3001C312.958 89.0243 320.81 90.6094 328.613 89.8528C336.416 89.0962 343.817 86.0323 349.869 81.0525C347.988 84.5214 347.012 88.4073 347.029 92.3523C347.029 103.701 354.72 112.277 365.77 113.89C364.911 114.477 364.097 115.127 363.336 115.836C360.015 118.943 357.926 123.143 357.453 127.664C356.979 132.185 358.152 136.726 360.756 140.454C360.61 140.527 360.448 140.583 360.302 140.672C359.584 138.941 358.506 137.383 357.138 136.101C354.601 133.753 351.266 132.457 347.808 132.477C345.164 132.454 342.55 133.036 340.166 134.18C338.901 134.787 337.383 135.63 335.42 136.822C334.311 137.532 333.166 138.184 331.989 138.776C331.705 138.827 331.417 138.849 331.129 138.84C328.125 138.81 325.203 139.821 322.862 141.702C322.167 139.565 320.938 137.64 319.292 136.109C316.77 133.742 313.43 132.441 309.971 132.477C307.327 132.454 304.712 133.036 302.328 134.18C301.063 134.787 299.546 135.63 297.591 136.822C296.48 137.53 295.335 138.182 294.159 138.776C293.873 138.828 293.582 138.849 293.291 138.84C292.125 138.853 290.966 139.017 289.843 139.327C289.045 138.407 288.177 137.551 287.247 136.765C282.341 132.736 276.154 130.591 269.805 130.718C265.312 130.739 260.885 131.802 256.873 133.823L256.443 134.034C254.474 133.008 252.286 132.474 250.066 132.477C247.422 132.454 244.808 133.036 242.424 134.18C242.278 134.244 242.092 134.35 241.946 134.431C241.935 133.225 241.752 132.026 241.402 130.872L237.346 116.987C236.731 114.891 235.617 112.974 234.101 111.402C235.861 111.564 237.621 111.677 239.463 111.677Z" fill="#006253"/>
<path d="M574.956 272.963C573.593 271.399 572.115 269.938 570.535 268.594C570.616 268.529 570.689 268.448 570.77 268.375C572.382 266.866 573.665 265.04 574.538 263.011C575.41 260.983 575.854 258.797 575.84 256.589C575.84 253.136 574.64 246.578 566.551 241.471C562.125 238.765 557.285 236.802 552.224 235.659C547.551 234.485 542.756 233.862 537.938 233.803C530.15 233.688 522.436 235.325 515.368 238.594C512.326 240.021 509.613 242.063 507.401 244.592C505.957 239.89 501.633 235.773 493.91 235.773H487.039C477.636 235.773 473.904 241.058 472.866 245.5C472.176 246.116 470.992 247.121 468.996 248.742V219.812C469.004 217.951 468.625 216.11 467.883 214.403C467.142 212.697 466.054 211.163 464.688 209.898C462.08 207.445 458.624 206.095 455.042 206.129C452.252 206.102 449.493 206.714 446.978 207.92C445.607 208.585 443.984 209.485 441.867 210.765L441.307 211.13C440.259 211.888 439.14 212.542 437.965 213.084C437.461 213.253 436.93 213.325 436.399 213.295C433.208 213.242 430.098 214.303 427.605 216.294C426.145 217.477 424.97 218.973 424.165 220.67C423.361 222.368 422.948 224.224 422.956 226.102C422.968 229.294 424.099 232.38 426.153 234.824C426.199 234.927 426.24 235.033 426.274 235.14C426.495 236.479 426.579 237.837 426.526 239.193V248.151C422.54 243.435 417.448 239.778 411.704 237.507C405.527 234.981 398.907 233.713 392.233 233.779C384.529 233.672 376.94 235.661 370.28 239.534C366.316 241.899 362.778 244.913 359.815 248.45C359.651 245.876 358.744 243.403 357.203 241.333C359.499 237.4 360.374 232.798 359.683 228.296C358.992 223.795 356.776 219.667 353.406 216.602C349.382 212.864 344.088 210.793 338.594 210.807C333.1 210.82 327.816 212.918 323.811 216.675C321.797 218.534 320.191 220.791 319.095 223.303C317.998 225.814 317.436 228.526 317.442 231.266C317.447 232.905 317.645 234.537 318.034 236.129C317.588 236.024 317.142 235.91 316.68 235.846V230.787C316.691 228.93 316.316 227.09 315.58 225.383C314.845 223.677 313.763 222.142 312.404 220.874C309.795 218.428 306.344 217.081 302.766 217.113C298.606 217.163 294.627 218.826 291.668 221.749C289.401 223.952 287.307 226.326 285.405 228.85C283.6 231.235 281.579 233.449 279.369 235.465C279.037 235.748 278.939 235.748 278.834 235.748C275.591 235.736 272.456 236.913 270.023 239.056C269.433 239.582 268.89 240.16 268.401 240.782C264.297 238.447 259.876 236.722 255.275 235.659C250.609 234.487 245.823 233.864 241.012 233.803C233.225 233.688 225.511 235.325 218.443 238.594C209.673 242.792 204.838 250.68 204.838 260.812C204.779 266.563 206.663 272.166 210.184 276.716C209.354 277.268 208.567 277.883 207.831 278.556C205.948 280.226 204.445 282.279 203.422 284.578C202.399 286.876 201.88 289.367 201.901 291.883C201.901 295.984 203.256 302.072 209.689 307.811C214.14 311.627 219.325 314.493 224.925 316.233C230.788 318.169 236.923 319.151 243.097 319.143C254.455 319.143 263.825 316.874 271.005 312.399C273.821 310.658 276.318 308.448 278.388 305.866C279.741 308.101 281.435 310.111 283.409 311.824C289.118 316.688 296.418 319.284 303.918 319.119C307.972 319.086 311.987 318.337 315.779 316.906C317.2 316.377 318.587 315.763 319.933 315.066C322.104 316.432 324.62 317.152 327.186 317.141H350.055C353.378 317.191 356.603 316.02 359.117 313.85C361.332 311.93 362.802 309.293 363.271 306.401C366.337 309.224 369.763 311.631 373.461 313.558C380.607 317.261 388.548 319.17 396.598 319.119C402.595 319.163 408.551 318.136 414.186 316.087C417.925 314.726 421.485 312.919 424.79 310.705C425.468 311.885 426.331 312.95 427.345 313.858C429.865 316.009 433.086 317.162 436.399 317.101H459.269C462.547 317.136 465.724 315.965 468.193 313.81C468.658 313.408 469.094 312.975 469.499 312.513C471.32 314.561 473.767 315.951 476.46 316.468C478.723 316.909 481.025 317.121 483.331 317.101H504.749C508.177 317.126 511.491 315.874 514.046 313.591C514.232 313.429 514.362 313.226 514.533 313.056C516.896 314.287 519.354 315.328 521.883 316.168C527.742 318.104 533.875 319.086 540.047 319.078C551.405 319.078 560.783 316.809 567.955 312.334C576.481 307.009 580.984 298.975 580.984 289.102C580.996 283.171 578.854 277.437 574.956 272.963ZM273.82 268.375C273.974 268.221 274.088 268.043 274.242 267.889V269.242C274.007 269.04 273.82 268.797 273.585 268.594L273.82 268.375ZM317.158 288.446H316.704V263.876C316.85 264.071 316.964 264.273 317.118 264.468C317.162 264.554 317.2 264.644 317.231 264.736C317.437 266.041 317.516 267.363 317.467 268.683V288.478C317.361 288.478 317.272 288.446 317.158 288.446ZM426.274 279.351C426.372 279.262 426.453 279.164 426.55 279.067V279.878C426.282 279.878 426.015 279.805 425.739 279.797L426.274 279.351ZM404.816 288.324C401.303 288.324 399.543 287.165 398.504 286.289C396.312 284.401 394.651 281.973 393.686 279.245C392.833 276.967 392.264 274.593 391.99 272.177C393.074 274.839 394.72 277.237 396.817 279.205C400.83 282.991 406.169 285.054 411.688 284.952C412.866 284.953 414.044 284.864 415.209 284.684C412.523 287.165 409.197 288.324 404.816 288.324ZM493.082 263.398C494.652 262.253 496.368 261.323 498.185 260.634C499.466 260.169 500.706 259.599 501.893 258.932C501.852 259.548 501.779 260.147 501.779 260.788C501.722 266.55 503.614 272.163 507.15 276.716C506.319 277.268 505.533 277.883 504.797 278.556C504.218 279.126 503.676 279.733 503.175 280.372L492.247 264.071L493.082 263.398Z" fill="#006253"/>
<path d="M89.8481 2.50469H84.3152C83.2454 2.45803 82.1935 2.79112 81.3459 3.44499C80.9832 3.71756 80.6899 4.07172 80.4897 4.47874C80.2896 4.88576 80.1882 5.33418 80.1939 5.78764L80.2913 8.88415C80.2677 10.3274 80.066 11.7621 79.6909 13.156C79.0286 15.4735 78.2156 17.7453 77.2571 19.957L62.7841 56.3694L45.8934 19.3004C44.1519 15.3609 43.2811 12.3589 43.2811 10.2946C43.2753 9.61896 43.3241 8.94397 43.4271 8.27619C43.5321 7.67123 43.5837 7.05821 43.5813 6.44423C43.5813 3.81787 41.7721 2.50469 38.1539 2.50469H20.8738C19.8115 2.45692 18.7645 2.77133 17.9045 3.39636C17.533 3.67188 17.234 4.03347 17.0333 4.45003C16.8327 4.86658 16.7363 5.32562 16.7525 5.78764C16.7208 6.4071 16.8582 7.02353 17.15 7.57097C17.5988 8.23693 18.1036 8.86337 18.659 9.44347C19.8913 10.6761 21.0175 12.0102 22.0258 13.4316C23.4192 15.475 24.6144 17.6464 25.5954 19.9165L47.1184 67.0693C47.6776 68.2945 48.6086 69.3126 49.7794 69.9794C50.9705 70.7178 52.3448 71.1081 53.7465 71.1061H58.6141C60.077 71.128 61.5118 70.7039 62.7273 69.8902C63.8846 69.1323 64.7953 68.0533 65.3477 66.7856L84.1448 19.957C84.9749 17.7705 86.0644 15.6913 87.3899 13.764C88.5276 12.2236 89.7893 10.7787 91.1623 9.44347C91.8131 8.86469 92.403 8.22097 92.9228 7.52233C93.2821 7.01516 93.4748 6.40901 93.4745 5.78764C93.485 5.35234 93.4053 4.91956 93.2406 4.51644C93.0759 4.11332 92.8296 3.74855 92.5171 3.44499C92.1583 3.1171 91.737 2.86484 91.2784 2.70328C90.8198 2.54172 90.3334 2.47418 89.8481 2.50469Z" fill="white"/>
<path d="M146.856 57.6824C146.237 57.7095 145.654 57.9805 145.234 58.4363C141.972 61.8169 137.554 63.8433 132.862 64.1105C126.761 64.5482 122.037 62.419 118.689 57.7229C117.941 56.852 117.484 55.7694 117.383 54.6264C117.383 53.1268 118.381 52.0325 120.393 51.384C123.419 50.4616 126.51 49.7706 129.641 49.317C133.335 48.6901 136.31 48.0821 138.565 47.4931C140.653 46.9733 142.619 46.0479 144.349 44.7695C145.124 44.221 145.751 43.4903 146.176 42.642C146.6 41.7937 146.809 40.8539 146.783 39.9058C146.734 39.0839 146.6 38.2691 146.386 37.474C145.52 34.5936 143.844 32.0221 141.559 30.0651C138.949 27.7342 135.921 25.9188 132.635 24.7151C129.198 23.4115 125.553 22.744 121.877 22.7453C117.347 22.6682 112.881 23.8195 108.954 26.0769C105.239 28.222 102.194 31.3569 100.16 35.1314C98.0725 38.994 97.0006 43.3226 97.0443 47.7119C97.0265 52.1523 98.3374 56.4966 100.809 60.1872C103.363 64.0228 106.857 67.1424 110.958 69.2497C115.292 71.5024 120.115 72.6549 125.001 72.6056C130.126 72.7 135.187 71.4566 139.685 68.9984C143.968 66.5936 147.016 63.8241 148.828 60.6897C148.961 60.4404 149.031 60.1619 149.03 59.8791C149.037 59.5747 148.979 59.2724 148.858 58.9927C148.738 58.713 148.559 58.4624 148.333 58.2579C147.932 57.8852 147.404 57.6793 146.856 57.6824ZM115.265 50.6463C114.403 47.8162 113.963 44.8745 113.959 41.9161C113.881 38.3299 114.604 34.7713 116.077 31.4999C117.45 28.6195 119.379 27.182 121.861 27.1874C124.208 27.1874 126.253 28.2683 127.994 30.4299C129.666 32.4332 130.59 34.9547 130.607 37.5632C130.631 39.1621 130.176 40.7318 129.3 42.0701C128.302 43.4753 126.881 44.5259 125.244 45.0694C122.979 45.8243 120.763 46.7176 118.608 47.7444C117.263 48.4098 116.112 49.409 115.265 50.6463Z" fill="white"/>
<path d="M182.544 94.476C189.651 94.476 195.548 93.125 200.238 90.423C204.927 87.721 207.274 83.8112 207.279 78.6936C207.291 76.0126 206.325 73.4192 204.562 71.3981C202.591 69.1229 200.081 67.3781 197.26 66.3237C194.14 65.1099 190.816 64.5045 187.468 64.5404C183.718 64.6806 179.985 65.1197 176.305 65.8536C175.705 65.9103 174.374 66.1049 172.33 66.4129C170.654 66.6948 168.959 66.8519 167.259 66.8831C163.565 66.8831 161.721 65.5996 161.727 63.0327C161.708 62.4578 161.826 61.8867 162.07 61.3656C162.314 60.8446 162.677 60.3882 163.13 60.0335C164.271 59.2194 165.657 58.8216 167.057 58.9067C168.209 58.934 169.355 59.0917 170.472 59.3769C172.95 59.9188 175.48 60.1906 178.017 60.1875C182.472 60.2388 186.89 59.3752 190.997 57.6503C194.669 56.1801 197.917 53.8207 200.449 50.7845C202.706 48.1219 203.953 44.7496 203.969 41.2599C203.96 39.2197 203.514 37.205 202.663 35.3505C201.784 33.3954 200.518 31.6387 198.94 30.187C198.219 29.4978 197.651 28.666 197.271 27.7448C196.891 26.8235 196.708 25.8331 196.733 24.837C196.705 24.0082 196.84 23.182 197.13 22.4052C197.219 22.1306 197.362 21.8769 197.552 21.6595C197.742 21.4421 197.974 21.2655 198.234 21.1407C198.449 21.0449 198.684 20.9988 198.92 21.0058C199.156 21.0128 199.387 21.0728 199.597 21.1812C200.12 21.5575 200.578 22.0176 200.952 22.543C201.456 23.2567 202.029 23.9191 202.663 24.5209C203.199 25.0453 203.833 25.4586 204.529 25.7368C205.225 26.0151 205.97 26.1528 206.72 26.1421C208.253 26.1641 209.734 25.5817 210.841 24.5209C211.378 24.0516 211.808 23.4734 212.103 22.8248C212.398 22.1762 212.551 21.4722 212.553 20.7597C212.516 19.4887 212.053 18.267 211.238 17.2903C210.189 16.0579 208.863 15.0912 207.369 14.4694C205.856 13.8459 204.235 13.529 202.598 13.5372C199.901 13.4194 197.266 14.3623 195.256 16.1636C194.082 17.2806 193.142 18.6197 192.49 20.1031C191.786 21.6647 191.458 23.3692 191.533 25.0802C183.004 21.8092 173.562 21.8265 165.045 25.1288C161.387 26.5458 158.139 28.8495 155.593 31.8325C153.352 34.447 152.12 37.7766 152.121 41.2193C152.121 44.1683 153.014 47.0481 154.685 49.4794C156.492 52.1411 158.88 54.3584 161.67 55.9642C159.311 56.3494 157.103 57.3726 155.285 58.9229C154.494 59.6184 153.866 60.4793 153.445 61.4445C153.025 62.4098 152.822 63.4556 152.851 64.508C152.844 65.6319 153.104 66.7414 153.61 67.745C154.117 68.7485 154.855 69.6173 155.764 70.2795C157.644 71.788 159.989 72.5987 162.4 72.5735L167.332 72.4843C169.739 72.3547 171.548 72.2898 172.76 72.2898C177.627 72.2898 181.481 72.9653 184.32 74.3163C187.16 75.6673 188.566 78.2775 188.539 82.1468C188.57 84.1309 187.894 86.0613 186.633 87.594C186.036 88.3501 185.27 88.9559 184.396 89.3627C183.523 89.7696 182.566 89.9661 181.603 89.9367C180.697 89.9829 179.791 89.8491 178.937 89.543C178.084 89.2368 177.299 88.7645 176.63 88.1533C176.014 87.5606 175.531 86.845 175.211 86.053C174.891 85.2611 174.741 84.4107 174.772 83.5572C174.768 81.7691 174.2 80.0276 173.149 78.5801C172.046 77.0156 170.18 76.2374 167.568 76.2374C165.774 76.2058 164.04 76.8814 162.741 78.118C162.104 78.6809 161.595 79.3738 161.25 80.15C160.904 80.9261 160.729 81.7674 160.737 82.6169C160.765 83.7327 161.024 84.8305 161.499 85.8407C161.974 86.851 162.654 87.7517 163.495 88.4857C165.722 90.4818 168.366 91.9577 171.235 92.8062C174.894 93.9503 178.71 94.5137 182.544 94.476ZM170.48 29.8141C170.883 29.1684 171.447 28.6384 172.117 28.2761C172.787 27.9137 173.54 27.7314 174.301 27.7471C176.313 27.7471 178.39 28.8279 180.532 30.9895C184.491 35.4118 186.8 41.0638 187.071 46.9908C187.162 49.0125 186.672 51.0182 185.659 52.7704C185.278 53.4463 184.723 54.0075 184.05 54.3954C183.378 54.7832 182.614 54.9835 181.838 54.9753C179.826 54.9753 177.782 53.881 175.656 51.6842C173.345 49.1661 171.583 46.1961 170.48 42.9621C169.578 40.5273 169.103 37.955 169.077 35.3587C168.974 33.4113 169.463 31.4785 170.48 29.8141Z" fill="white"/>
<path d="M214.573 49.5197C216.376 52.1857 218.765 54.404 221.558 56.0046C219.199 56.3881 216.991 57.4115 215.174 58.9633C214.382 59.658 213.753 60.5188 213.332 61.4842C212.912 62.4496 212.709 63.4958 212.74 64.5483C212.732 65.6731 212.993 66.7836 213.501 67.7874C214.009 68.7912 214.749 69.6594 215.66 70.3198C217.54 71.8295 219.885 72.6403 222.297 72.6138L227.221 72.4922C229.655 72.3626 231.448 72.2977 232.648 72.2977C237.516 72.2977 241.37 72.9732 244.209 74.3242C247.049 75.6752 248.457 78.2854 248.436 82.1547C248.463 84.1397 247.785 86.07 246.521 87.6019C245.926 88.3579 245.162 88.9637 244.289 89.3705C243.417 89.7774 242.462 89.974 241.499 89.9446C240.592 89.9901 239.685 89.856 238.831 89.5499C237.976 89.2439 237.19 88.7719 236.518 88.1612C235.903 87.5685 235.419 86.8529 235.099 86.0609C234.779 85.269 234.63 84.4186 234.66 83.5651C234.657 81.7769 234.089 80.0353 233.038 78.588C231.929 77.0208 230.069 76.2399 227.456 76.2454C225.662 76.2101 223.926 76.8863 222.629 78.1259C221.991 78.6884 221.482 79.3811 221.135 80.1572C220.787 80.9333 220.611 81.7748 220.617 82.6248C220.645 83.7414 220.906 84.8399 221.382 85.8503C221.858 86.8607 222.54 87.761 223.384 88.4936C225.608 90.4931 228.253 91.9694 231.123 92.8141C234.819 93.9532 238.671 94.5004 242.538 94.4353C249.639 94.4353 255.537 93.0843 260.232 90.3823C264.926 87.6803 267.274 83.7705 267.274 78.6528C267.285 75.9719 266.319 73.3785 264.556 71.3574C262.585 69.0829 260.074 67.3383 257.254 66.283C254.134 65.0543 250.808 64.4351 247.454 64.4592C243.704 64.5997 239.971 65.0388 236.291 65.7723C235.691 65.8291 234.368 66.0236 232.324 66.3316C230.645 66.6139 228.948 66.7711 227.245 66.8018C223.557 66.8018 221.713 65.5183 221.713 62.9514C221.694 62.3756 221.812 61.8037 222.058 61.2824C222.303 60.7611 222.669 60.3052 223.124 59.9522C224.261 59.1369 225.646 58.7389 227.043 58.8255C228.198 58.8527 229.346 59.0104 230.466 59.2956C232.942 59.838 235.469 60.1098 238.003 60.1062C242.458 60.1554 246.875 59.2919 250.983 57.569C254.656 56.0855 257.903 53.7154 260.435 50.6708C262.69 48.0075 263.934 44.635 263.947 41.1462C263.942 39.1055 263.496 37.0901 262.641 35.2369C261.762 33.2837 260.499 31.5276 258.926 30.0733C258.204 29.3849 257.634 28.5533 257.253 27.6321C256.871 26.7108 256.687 25.72 256.711 24.7233C256.685 23.894 256.823 23.0677 257.116 22.2915C257.203 22.0163 257.346 21.7619 257.536 21.5443C257.726 21.3268 257.959 21.1506 258.22 21.027C258.434 20.9313 258.667 20.8853 258.902 20.8923C259.136 20.8993 259.366 20.9592 259.575 21.0675C260.101 21.4431 260.562 21.9033 260.938 22.4293C261.439 23.1428 262.01 23.8052 262.641 24.4072C263.177 24.9316 263.811 25.3449 264.507 25.6231C265.203 25.9014 265.948 26.0391 266.698 26.0284C268.232 26.0531 269.713 25.4702 270.819 24.4072C271.357 23.939 271.788 23.361 272.083 22.7121C272.378 22.0633 272.531 21.3587 272.531 20.646C272.496 19.376 272.036 18.1544 271.224 17.1766C270.174 15.946 268.848 14.9797 267.355 14.3557C265.84 13.7314 264.215 13.4145 262.576 13.4235C259.893 13.3181 257.275 14.2601 255.275 16.0499C254.103 17.169 253.163 18.5076 252.508 19.9894C251.807 21.5516 251.482 23.2562 251.559 24.9665C243.027 21.6949 233.583 21.7123 225.063 25.0151C221.405 26.4321 218.157 28.7358 215.612 31.7188C213.541 34.1521 212.33 37.1997 212.167 40.3897C212.005 43.5798 212.899 46.7346 214.711 49.3657L214.573 49.5197ZM230.409 29.8139C230.811 29.1683 231.373 28.6382 232.042 28.2757C232.71 27.9133 233.462 27.731 234.222 27.7469C236.234 27.7469 238.314 28.8277 240.461 30.9893C244.423 35.4091 246.73 41.0632 246.992 46.9906C247.086 49.0115 246.599 51.0171 245.588 52.7702C245.207 53.4455 244.651 54.0063 243.979 54.394C243.307 54.7818 242.543 54.9825 241.767 54.9751C239.755 54.9751 237.695 53.8781 235.585 51.684C233.274 49.1659 231.512 46.1959 230.409 42.9619C229.504 40.5275 229.027 37.9552 228.998 35.3585C228.897 33.4103 229.389 31.4774 230.409 29.8139Z" fill="white"/>
<path d="M273.235 33.8508C273.871 34.6635 274.349 35.5871 274.647 36.5745C275.05 38.2618 275.219 39.9965 275.15 41.7299V58.9958C275.22 60.7318 275.05 62.4693 274.647 64.1593C274.349 65.1467 273.871 66.0703 273.235 66.8829C272.732 67.4178 272.444 68.1189 272.424 68.8527C272.419 69.1624 272.484 69.4693 272.614 69.7502C272.745 70.031 272.938 70.2785 273.179 70.4739C273.694 70.9166 274.357 71.1508 275.036 71.1305H292.43C293.143 71.1616 293.843 70.9277 294.393 70.4739C294.634 70.2785 294.827 70.031 294.958 69.7502C295.088 69.4693 295.153 69.1624 295.148 68.8527C295.128 68.1189 294.84 67.4178 294.337 66.8829C293.698 66.0722 293.219 65.1481 292.925 64.1593C292.522 62.4693 292.352 60.7318 292.422 58.9958V27.0985C292.427 26.7098 292.35 26.3245 292.194 25.9681C292.039 25.6118 291.81 25.2925 291.521 25.0314C290.916 24.4854 290.122 24.1949 289.307 24.2208C288.317 24.2014 287.337 24.4123 286.443 24.8369C285.599 25.2422 284.517 25.8502 283.198 26.6608C281.895 27.4974 280.54 28.2501 279.141 28.9142C277.858 29.4505 276.475 29.7075 275.085 29.6681C274.406 29.6478 273.743 29.882 273.227 30.3247C272.986 30.5193 272.792 30.7666 272.661 31.0477C272.531 31.3287 272.466 31.636 272.473 31.9459C272.496 32.6506 272.766 33.3248 273.235 33.8508Z" fill="white"/>
<path d="M283.791 21.3673C286.048 21.4031 288.23 20.56 289.876 19.0166C290.682 18.3016 291.327 17.4241 291.769 16.4419C292.211 15.4596 292.439 14.3949 292.439 13.318C292.439 12.2411 292.211 11.1764 291.769 10.1941C291.327 9.21188 290.682 8.33437 289.876 7.61946C288.216 6.07768 286.033 5.2207 283.767 5.2207C281.5 5.2207 279.318 6.07768 277.658 7.61946C276.868 8.34388 276.237 9.22451 275.805 10.2055C275.373 11.1865 275.15 12.2464 275.15 13.318C275.15 14.3896 275.373 15.4495 275.805 16.4305C276.237 17.4115 276.868 18.2921 277.658 19.0166C279.314 20.5741 281.517 21.4185 283.791 21.3673Z" fill="white"/>
<path d="M313.661 69.25C318.124 71.5063 323.064 72.6623 328.065 72.6214C333.067 72.5805 337.987 71.3439 342.413 69.015C346.701 66.6102 349.752 63.8406 351.564 60.7063C351.692 60.4551 351.758 60.1774 351.758 59.8957C351.767 59.591 351.709 59.2882 351.588 59.0083C351.468 58.7283 351.288 58.4779 351.061 58.2745C350.65 57.8969 350.109 57.6934 349.552 57.707C348.933 57.7376 348.351 58.008 347.929 58.4609C344.668 61.8416 340.249 63.8679 335.557 64.1351C329.457 64.5729 324.732 62.4437 321.384 57.7476C320.637 56.8767 320.18 55.794 320.078 54.6511C320.078 53.1487 321.084 52.0679 323.096 51.4086C326.122 50.4854 329.214 49.7943 332.345 49.3416C336.028 48.7147 339.003 48.1068 341.269 47.5177C343.354 46.9964 345.316 46.071 347.045 44.7941C347.819 44.2451 348.446 43.5143 348.87 42.6662C349.294 41.818 349.504 40.8785 349.479 39.9305C349.425 39.1083 349.29 38.2936 349.073 37.4987C348.21 34.6169 346.534 32.0447 344.246 30.0898C341.638 27.7568 338.61 25.9412 335.322 24.7398C331.886 23.4354 328.24 22.7679 324.565 22.77C320.026 22.6569 315.543 23.7776 311.592 26.0124C307.879 28.1598 304.835 31.2941 302.798 35.0669C300.711 38.9295 299.639 43.2581 299.683 47.6474C299.671 52.0917 300.994 56.4372 303.48 60.1226C306.035 63.9863 309.541 67.1292 313.661 69.25ZM318.732 31.5164C320.105 28.6361 322.033 27.1986 324.516 27.204C326.863 27.204 328.908 28.2848 330.649 30.4464C332.325 32.4477 333.249 34.9705 333.261 37.5797C333.312 39.2401 332.819 40.8717 331.857 42.2265C330.895 43.5814 329.517 44.5854 327.931 45.0859C325.667 45.8408 323.45 46.7342 321.295 47.7609C319.966 48.4205 318.824 49.4047 317.977 50.6224C317.117 47.7918 316.68 44.8501 316.679 41.8922C316.584 38.319 317.285 34.7694 318.732 31.5002V31.5164Z" fill="white"/>
<path d="M217.728 149.662V142.642C217.742 142.066 217.64 141.493 217.428 140.957C217.217 140.42 216.899 139.932 216.495 139.521C216.129 139.123 215.684 138.804 215.188 138.587C214.692 138.369 214.157 138.257 213.615 138.257C212.971 138.231 212.329 138.345 211.733 138.589C211.166 138.874 210.623 139.205 210.11 139.578C208.491 140.55 206.751 141.305 204.934 141.823C203.058 142.364 200.045 142.634 195.897 142.634V116.662H212.122C216.503 116.662 219.792 117.702 221.987 119.783C224.491 122.324 226.484 125.321 227.861 128.61C228.161 129.278 228.652 129.842 229.273 130.232C229.9 130.637 230.634 130.849 231.382 130.84C232.367 130.854 233.318 130.478 234.027 129.794C234.376 129.492 234.656 129.118 234.849 128.699C235.042 128.279 235.144 127.824 235.146 127.362C235.156 127.065 235.115 126.769 235.024 126.487L230.919 112.447C230.694 111.661 230.219 110.969 229.565 110.477C228.911 109.969 228.105 109.698 227.277 109.707H173.092C171.861 109.647 170.65 110.036 169.685 110.801C169.275 111.129 168.945 111.547 168.722 112.022C168.498 112.497 168.386 113.017 168.395 113.541C168.366 114.147 168.486 114.751 168.744 115.3C169.051 115.84 169.404 116.352 169.798 116.832C170.838 118.314 171.658 119.939 172.232 121.655C172.827 123.417 173.122 126.233 173.116 130.102V169.465C173.116 173.34 172.822 176.155 172.232 177.911C171.659 179.629 170.84 181.253 169.798 182.734C169.404 183.214 169.051 183.727 168.744 184.267C168.487 184.813 168.367 185.414 168.395 186.017C168.384 186.544 168.495 187.065 168.719 187.542C168.943 188.018 169.273 188.437 169.685 188.765C170.65 189.531 171.861 189.919 173.092 189.86H195.881C197.128 189.911 198.354 189.524 199.345 188.765C199.76 188.462 200.098 188.066 200.332 187.608C200.566 187.151 200.689 186.645 200.691 186.131C200.719 185.528 200.6 184.927 200.343 184.38C200.038 183.836 199.685 183.32 199.288 182.84C198.242 181.382 197.422 179.775 196.854 178.074C196.221 176.282 195.913 173.453 195.913 169.578V149.662C200.061 149.662 203.074 149.932 204.951 150.472C206.767 150.991 208.507 151.746 210.127 152.718C210.64 153.091 211.182 153.422 211.749 153.707C212.346 153.948 212.988 154.058 213.631 154.031C214.172 154.032 214.708 153.922 215.203 153.705C215.699 153.489 216.145 153.172 216.511 152.775C216.911 152.363 217.225 151.875 217.434 151.341C217.643 150.806 217.743 150.235 217.728 149.662Z" fill="white"/>
<path d="M269.058 149.443C269.047 150.613 269.289 151.771 269.767 152.84C270.244 153.909 270.946 154.862 271.824 155.636C273.647 157.349 276.072 158.275 278.574 158.214C279.879 158.234 281.176 157.993 282.387 157.504C283.598 157.015 284.698 156.289 285.624 155.368C287.582 153.461 288.561 150.791 288.561 147.36C288.561 142.971 287.033 139.518 283.977 137C280.832 134.445 276.874 133.102 272.822 133.215C269.841 133.236 266.905 133.949 264.247 135.298C261.361 136.738 258.801 138.755 256.726 141.223V138.37C256.735 137.913 256.646 137.459 256.464 137.039C256.282 136.62 256.012 136.244 255.672 135.938C254.97 135.286 254.041 134.934 253.084 134.957C251.929 134.935 250.786 135.179 249.741 135.671C248.762 136.141 247.489 136.851 245.92 137.803C244.392 138.784 242.801 139.664 241.158 140.437C239.653 141.062 238.033 141.361 236.404 141.312C235.609 141.294 234.836 141.568 234.23 142.083C233.956 142.31 233.736 142.595 233.584 142.917C233.433 143.24 233.354 143.591 233.354 143.947C233.372 144.804 233.707 145.624 234.295 146.249C235.027 147.199 235.577 148.277 235.917 149.427C236.391 151.4 236.59 153.43 236.509 155.458V175.633C236.59 177.661 236.391 179.691 235.917 181.664C235.577 182.814 235.027 183.892 234.295 184.842C233.708 185.468 233.373 186.287 233.354 187.144C233.354 187.5 233.433 187.851 233.584 188.174C233.736 188.496 233.956 188.781 234.23 189.008C234.832 189.529 235.608 189.804 236.404 189.779H256.726C257.559 189.819 258.376 189.544 259.014 189.008C259.292 188.784 259.516 188.5 259.669 188.177C259.822 187.854 259.901 187.501 259.898 187.144C259.875 186.288 259.54 185.47 258.957 184.842C258.222 183.894 257.672 182.816 257.335 181.664C256.857 179.691 256.658 177.662 256.742 175.633V152.077C256.798 150.171 257.525 148.346 258.795 146.922C260.146 145.263 261.777 143.853 263.614 142.755C265.458 141.675 266.927 141.134 268.019 141.134C268.538 141.082 269.059 141.217 269.488 141.515C269.633 141.668 269.745 141.849 269.816 142.047C269.887 142.245 269.916 142.456 269.901 142.666C269.823 143.59 269.685 144.508 269.488 145.414C269.22 146.741 269.076 148.09 269.058 149.443Z" fill="white"/>
<path d="M355.045 181.681C354.572 179.707 354.375 177.677 354.461 175.65V138.362C354.469 137.904 354.378 137.45 354.194 137.03C354.011 136.611 353.74 136.236 353.398 135.93C352.7 135.278 351.774 134.925 350.818 134.949C349.662 134.927 348.515 135.171 347.468 135.663C346.486 136.133 345.221 136.846 343.655 137.794C342.126 138.774 340.535 139.654 338.893 140.429C337.388 141.053 335.768 141.352 334.139 141.304C333.343 141.28 332.567 141.555 331.965 142.074C331.689 142.301 331.468 142.586 331.315 142.908C331.162 143.23 331.082 143.582 331.08 143.939C331.102 144.795 331.437 145.614 332.021 146.241C332.754 147.191 333.304 148.268 333.644 149.418C334.114 151.393 334.31 153.422 334.228 155.449V172.667C334.257 173.833 334.005 174.99 333.494 176.039C332.983 177.089 332.228 178 331.291 178.698C329.428 180.198 327.105 181.011 324.712 181C322.59 181.055 320.529 180.288 318.96 178.86C317.386 177.433 316.607 175.374 316.607 172.667V138.37C316.616 137.913 316.527 137.459 316.345 137.039C316.163 136.62 315.893 136.244 315.553 135.938C314.852 135.284 313.923 134.932 312.965 134.957C311.81 134.935 310.666 135.179 309.622 135.671C308.638 136.141 307.364 136.851 305.801 137.803C304.275 138.782 302.687 139.662 301.047 140.437C299.539 141.061 297.916 141.36 296.285 141.312C295.492 141.289 294.719 141.564 294.119 142.083C293.841 142.307 293.616 142.591 293.463 142.914C293.31 143.237 293.232 143.59 293.234 143.947C293.253 144.804 293.588 145.624 294.176 146.249C294.908 147.199 295.458 148.277 295.798 149.427C296.272 151.4 296.471 153.43 296.39 155.458V169.165C296.39 176.768 298.132 182.397 301.615 186.05C305.098 189.703 309.582 191.532 315.066 191.538C318.633 191.517 322.153 190.726 325.385 189.219C328.722 187.736 331.735 185.613 334.252 182.969V187.468C334.253 187.772 334.315 188.073 334.437 188.352C334.558 188.631 334.736 188.882 334.958 189.089C335.186 189.324 335.46 189.508 335.763 189.631C336.066 189.754 336.392 189.812 336.719 189.803H354.461C355.293 189.84 356.109 189.565 356.749 189.033C357.023 188.805 357.243 188.52 357.394 188.198C357.546 187.876 357.624 187.524 357.625 187.168C357.605 186.313 357.273 185.495 356.692 184.866C355.948 183.917 355.389 182.836 355.045 181.681Z" fill="white"/>
<path d="M387.407 128.943C388.349 128.106 389.102 127.08 389.618 125.932C390.134 124.783 390.401 123.539 390.401 122.28C390.401 121.021 390.134 119.776 389.618 118.628C389.102 117.479 388.349 116.453 387.407 115.617C385.467 113.82 382.918 112.821 380.272 112.821C377.626 112.821 375.078 113.82 373.137 115.617C372.211 116.463 371.472 117.492 370.966 118.639C370.46 119.786 370.199 121.026 370.199 122.28C370.199 123.533 370.46 124.773 370.966 125.92C371.472 127.067 372.211 128.097 373.137 128.943C375.094 130.707 377.636 131.683 380.272 131.683C382.908 131.683 385.45 130.707 387.407 128.943Z" fill="white"/>
<path d="M369.615 181.681C369.275 182.831 368.725 183.908 367.992 184.858C367.409 185.486 367.075 186.304 367.051 187.16C367.052 187.516 367.131 187.868 367.282 188.19C367.434 188.512 367.654 188.797 367.928 189.025C368.53 189.545 369.306 189.82 370.102 189.795H390.384C391.218 189.834 392.037 189.559 392.679 189.025C392.953 188.797 393.173 188.512 393.325 188.19C393.476 187.868 393.555 187.516 393.556 187.16C393.535 186.305 393.203 185.487 392.623 184.858C391.885 183.912 391.334 182.833 391 181.681C390.522 179.708 390.323 177.678 390.408 175.65V138.362C390.417 137.905 390.328 137.451 390.146 137.031C389.964 136.612 389.693 136.236 389.353 135.93C388.655 135.278 387.729 134.925 386.773 134.949C385.616 134.927 384.47 135.171 383.423 135.663C382.444 136.133 381.17 136.843 379.602 137.794C378.076 138.775 376.488 139.655 374.848 140.429C373.34 141.054 371.717 141.353 370.085 141.304C369.291 141.286 368.517 141.56 367.911 142.074C367.638 142.302 367.417 142.587 367.266 142.909C367.115 143.232 367.036 143.583 367.035 143.939C367.057 144.795 367.392 145.614 367.976 146.241C368.708 147.191 369.259 148.268 369.599 149.418C370.069 151.393 370.265 153.422 370.183 155.449V175.625C370.273 177.66 370.082 179.698 369.615 181.681Z" fill="white"/>
<path d="M407.381 132.615C405.685 134.131 403.49 134.971 401.215 134.974C400.457 134.962 399.722 135.234 399.154 135.736C398.879 135.963 398.657 136.247 398.504 136.57C398.352 136.892 398.272 137.244 398.27 137.6C398.263 137.951 398.331 138.299 398.471 138.621C398.611 138.943 398.819 139.231 399.081 139.464C399.658 139.989 400.419 140.266 401.199 140.235H405.896V174.223C405.896 179.93 407.6 184.253 411.007 187.193C414.504 190.146 418.973 191.7 423.549 191.554C426.121 191.527 428.667 191.044 431.07 190.127C433.344 189.349 435.456 188.159 437.3 186.617C437.611 186.393 437.859 186.094 438.022 185.749C438.185 185.403 438.258 185.021 438.233 184.639C438.24 184.259 438.165 183.881 438.014 183.532C437.863 183.182 437.639 182.869 437.357 182.613C436.802 182.085 436.063 181.794 435.296 181.802C434.696 181.858 434.105 181.986 433.536 182.183C432.777 182.424 431.987 182.552 431.191 182.564C430.478 182.555 429.778 182.37 429.153 182.026C428.527 181.683 427.996 181.191 427.606 180.595C426.624 179.273 426.137 177.125 426.137 174.11V140.226H433.439C434.179 140.24 434.895 139.963 435.434 139.456C435.693 139.219 435.9 138.931 436.041 138.61C436.182 138.289 436.255 137.943 436.255 137.592C436.255 137.241 436.182 136.895 436.041 136.574C435.9 136.253 435.693 135.965 435.434 135.728C434.894 135.223 434.178 134.949 433.439 134.966H426.137V121.818C426.148 121.36 426.059 120.906 425.877 120.486C425.695 120.066 425.424 119.691 425.083 119.386C424.383 118.731 423.454 118.376 422.495 118.397C421.024 118.456 419.633 119.084 418.617 120.148C416.924 121.825 415.355 123.621 413.919 125.522C411.959 128.079 409.77 130.453 407.381 132.615Z" fill="white"/>
<path d="M372.642 96.9808C379.732 96.9808 384.9 92.7008 389.313 87.821C394.481 93.0818 397.791 96.5998 399.122 96.5998C399.255 96.6126 399.388 96.5759 399.496 96.4966C399.604 96.4173 399.678 96.3011 399.706 96.1702C401.507 91.3066 408.419 91.5092 409.871 87.44C409.806 87.2779 409.522 87.2211 409.352 87.2211C408.629 87.7543 407.752 88.0388 406.853 88.0317C404.233 88.0317 401.677 85.8593 400.988 85.2676C399.819 84.3435 397.905 82.6088 395.585 80.331C398.659 76.7562 401.564 74.0975 404.76 74.4217V73.068C400.866 73.068 397.556 75.7835 394.213 79.034C390.061 74.7776 386.219 70.2292 382.718 65.424C388.234 63.2029 391.95 60.6576 392.064 55.6967C392.299 50.2252 387.942 46.6504 380.706 46.6504C371.36 46.6504 368.748 52.6083 368.748 56.9451C368.748 60.4145 370.492 64.4269 372.926 68.3827C364.334 72.9383 359.945 78.1099 359.945 84.9677C359.929 92.7576 365.673 96.9808 372.642 96.9808ZM380.836 48.0852C383.269 48.0852 384.778 50.4197 384.892 53.8323C384.906 57.351 383.654 60.7574 381.363 63.4299C378.807 59.4742 377.006 55.6238 377.006 52.7461C376.998 50.1522 378.45 48.0852 380.836 48.0852ZM373.924 69.9715C378.28 76.4563 384.259 82.7628 387.512 86.0701C384.608 88.7856 381.59 90.7878 377.988 90.7878C375.376 90.7878 372.066 89.7016 370.435 84.6677C369.194 80.8255 368.869 74.5919 373.924 69.9309V69.9715Z" fill="white"/>
<path d="M264.832 265.035C261.441 263.144 257.101 261.044 251.811 258.737C247.726 257.057 243.77 255.079 239.975 252.819C237.541 251.255 236.34 249.48 236.34 247.51C236.292 246.675 236.493 245.845 236.916 245.124C237.338 244.403 237.965 243.823 238.717 243.457C240.528 242.581 242.523 242.156 244.534 242.217C248.152 242.217 250.973 243.103 252.996 244.875C255.385 247.119 257.355 249.771 258.812 252.706C259.387 253.731 260.266 254.552 261.327 255.057C262.432 255.621 263.656 255.916 264.897 255.916C265.834 255.941 266.768 255.78 267.642 255.442C268.517 255.104 269.316 254.595 269.992 253.946C270.642 253.35 271.16 252.625 271.513 251.816C271.865 251.008 272.043 250.134 272.036 249.253C272.036 246.699 270.47 244.446 267.347 242.468C263.836 240.337 259.999 238.796 255.989 237.904C252.077 236.899 248.061 236.355 244.023 236.283C237.709 236.167 231.45 237.474 225.713 240.109C220.38 242.665 217.713 247.11 217.713 253.444C217.665 257.093 218.88 260.647 221.153 263.503C223.425 266.408 226.228 268.856 229.412 270.718C232.657 272.614 236.868 274.835 242.043 277.381C246.27 279.277 250.339 281.505 254.213 284.044C256.768 285.86 258.05 287.951 258.05 290.342C258.05 292.066 257.144 293.444 255.332 294.476C253.369 295.544 251.158 296.075 248.923 296.016C241.254 296.016 235.745 291.204 232.397 281.58C231.81 280.143 230.879 278.871 229.688 277.875C228.325 276.643 226.402 276.027 223.936 276.027C221.565 275.981 219.269 276.852 217.527 278.459C216.662 279.209 215.971 280.139 215.503 281.183C215.035 282.228 214.801 283.362 214.817 284.506C214.817 287.554 216.315 290.412 219.312 293.082C222.752 296.003 226.756 298.188 231.075 299.502C235.936 301.118 241.026 301.939 246.148 301.934C255.662 301.934 263.22 300.186 268.824 296.689C274.427 293.193 277.226 288.237 277.22 281.823C277.251 278.243 275.957 274.779 273.586 272.096C271.104 269.249 268.141 266.859 264.832 265.035Z" fill="white"/>
<path d="M320.169 290.95C319.492 291.016 318.825 291.16 318.181 291.38C317.325 291.651 316.434 291.796 315.537 291.81C314.73 291.806 313.937 291.601 313.229 291.215C312.521 290.829 311.92 290.273 311.48 289.597C310.377 288.113 309.858 285.69 309.858 282.301V244.203H318.084C318.918 244.219 319.725 243.907 320.331 243.336C320.623 243.07 320.856 242.746 321.015 242.385C321.174 242.024 321.256 241.634 321.256 241.24C321.256 240.846 321.174 240.456 321.015 240.095C320.856 239.734 320.623 239.411 320.331 239.145C319.725 238.573 318.918 238.262 318.084 238.277H309.85V223.443C309.857 222.932 309.756 222.426 309.551 221.958C309.347 221.489 309.045 221.07 308.665 220.728C307.877 219.992 306.831 219.593 305.753 219.617C304.096 219.684 302.53 220.393 301.388 221.595C299.477 223.475 297.712 225.496 296.107 227.642C293.92 230.512 291.476 233.176 288.805 235.602C286.895 237.309 284.423 238.252 281.861 238.253C281.009 238.245 280.185 238.555 279.549 239.12C279.238 239.374 278.989 239.693 278.817 240.054C278.646 240.416 278.558 240.812 278.559 241.212C278.554 241.607 278.633 242 278.793 242.362C278.953 242.724 279.188 243.048 279.484 243.311C280.132 243.9 280.985 244.211 281.861 244.179H287.15V282.439C287.15 288.859 289.068 293.723 292.902 297.03C296.827 300.354 301.843 302.112 306.986 301.967C309.88 301.93 312.745 301.382 315.447 300.345C318.006 299.475 320.38 298.136 322.449 296.398C322.8 296.148 323.082 295.813 323.268 295.425C323.454 295.036 323.537 294.607 323.511 294.177C323.519 293.747 323.434 293.321 323.264 292.927C323.093 292.533 322.84 292.179 322.522 291.891C322.211 291.587 321.843 291.347 321.439 291.186C321.035 291.025 320.604 290.945 320.169 290.95Z" fill="white"/>
<path d="M349.723 231.468C350.783 230.526 351.63 229.372 352.211 228.079C352.791 226.787 353.092 225.386 353.092 223.97C353.092 222.553 352.791 221.153 352.211 219.86C351.63 218.568 350.783 217.413 349.723 216.472C347.537 214.449 344.667 213.326 341.688 213.326C338.708 213.326 335.838 214.449 333.652 216.472C332.612 217.425 331.781 218.583 331.213 219.874C330.645 221.165 330.352 222.56 330.352 223.97C330.352 225.38 330.645 226.775 331.213 228.065C331.781 229.356 332.612 230.515 333.652 231.468C335.858 233.451 338.72 234.548 341.688 234.548C344.655 234.548 347.517 233.451 349.723 231.468Z" fill="white"/>
<path d="M353.779 290.829C353.243 288.606 353.019 286.32 353.114 284.036V242.079C353.121 241.567 353.019 241.06 352.813 240.591C352.607 240.123 352.303 239.704 351.921 239.363C351.137 238.626 350.093 238.227 349.017 238.253C347.716 238.231 346.428 238.508 345.252 239.063C344.141 239.598 342.713 240.401 340.953 241.495C339.23 242.591 337.442 243.582 335.598 244.462C333.903 245.163 332.078 245.498 330.244 245.443C329.353 245.421 328.486 245.73 327.81 246.31C327.499 246.564 327.248 246.884 327.077 247.248C326.906 247.611 326.818 248.008 326.82 248.41C326.843 249.372 327.218 250.292 327.875 250.995C328.711 252.064 329.341 253.279 329.733 254.578C330.261 256.799 330.482 259.082 330.39 261.363V284.06C330.482 286.344 330.261 288.629 329.733 290.853C329.341 292.149 328.711 293.362 327.875 294.428C327.217 295.134 326.842 296.057 326.82 297.022C326.818 297.423 326.906 297.82 327.077 298.183C327.248 298.547 327.499 298.867 327.81 299.121C328.487 299.698 329.354 300.004 330.244 299.98H353.114C354.051 300.024 354.97 299.718 355.694 299.121C356.005 298.867 356.255 298.547 356.427 298.183C356.598 297.82 356.686 297.423 356.683 297.022C356.661 296.057 356.286 295.134 355.629 294.428C354.789 293.356 354.162 292.135 353.779 290.829Z" fill="white"/>
<path d="M428.31 282.309C427.448 282.384 426.646 282.78 426.063 283.42C421.39 288.359 415.308 290.829 407.818 290.829C403.202 290.964 398.696 289.404 395.154 286.443C391.676 283.468 389.032 279.641 387.479 275.338C385.804 270.869 384.946 266.135 384.948 261.363C384.948 256.013 385.873 251.509 387.722 247.85C389.572 244.186 392.087 242.322 395.259 242.233C400.727 242.233 403.458 247.294 403.453 257.416C403.435 258.794 403.708 260.16 404.255 261.426C404.802 262.691 405.609 263.827 406.625 264.76C408.834 266.707 411.678 267.782 414.624 267.782C417.57 267.782 420.415 266.707 422.623 264.76C423.675 263.849 424.516 262.72 425.087 261.452C425.659 260.183 425.948 258.806 425.933 257.416C425.868 253.621 424.462 249.973 421.966 247.113C418.995 243.624 415.2 240.929 410.925 239.274C405.954 237.247 400.627 236.238 395.259 236.307C389.324 236.202 383.472 237.719 378.336 240.693C373.472 243.531 369.47 247.635 366.759 252.568C363.974 257.632 362.541 263.327 362.597 269.104C362.575 274.95 364.307 280.668 367.57 285.519C370.953 290.608 375.599 294.733 381.054 297.492C386.791 300.465 393.169 301.99 399.632 301.934C404.456 301.976 409.248 301.152 413.78 299.502C417.71 298.115 421.375 296.07 424.619 293.455C427.147 291.48 429.259 289.026 430.833 286.232C431.078 285.822 431.215 285.356 431.231 284.879C431.21 284.478 431.091 284.088 430.883 283.744C430.675 283.4 430.384 283.113 430.038 282.909C429.521 282.568 428.927 282.362 428.31 282.309Z" fill="white"/>
<path d="M509.226 292.312C506.297 289.976 503.756 287.191 501.698 284.06L481.96 254.668L490.024 248.248C492.377 246.504 494.959 245.094 497.698 244.057C498.653 243.743 499.564 243.307 500.408 242.76C500.669 242.519 500.87 242.221 500.996 241.889C501.121 241.557 501.167 241.2 501.13 240.847C501.13 239.12 499.726 238.253 496.903 238.253H490.072C486.989 238.253 485.448 239.118 485.448 240.847C485.448 241.998 484.831 243.192 483.598 244.43C482.365 245.667 479.985 247.68 476.459 250.469L462.181 261.704V212.459C462.187 211.948 462.084 211.441 461.878 210.973C461.672 210.505 461.369 210.086 460.988 209.744C460.203 209.008 459.16 208.61 458.084 208.633C456.781 208.612 455.49 208.89 454.311 209.444C453.208 209.979 451.78 210.782 450.012 211.876C448.437 213.005 446.755 213.977 444.99 214.778C443.23 215.508 441.338 215.864 439.433 215.824C438.507 215.784 437.597 216.071 436.861 216.634C436.538 216.89 436.28 217.219 436.108 217.594C435.936 217.968 435.855 218.378 435.871 218.79C435.892 219.755 436.267 220.679 436.926 221.384C437.769 222.468 438.397 223.704 438.776 225.024C439.3 227.267 439.521 229.571 439.433 231.873V284.06C439.525 286.344 439.304 288.629 438.776 290.853C438.39 292.15 437.763 293.363 436.926 294.428C436.268 295.134 435.893 296.057 435.871 297.022C435.867 297.424 435.954 297.821 436.126 298.185C436.297 298.548 436.548 298.868 436.861 299.121C437.582 299.717 438.498 300.023 439.433 299.98H462.311C463.201 300.007 464.068 299.7 464.744 299.121C465.056 298.869 465.306 298.55 465.477 298.188C465.649 297.826 465.736 297.43 465.734 297.03C465.709 296.064 465.331 295.142 464.671 294.436C463.835 293.371 463.207 292.159 462.822 290.861C462.293 288.637 462.072 286.352 462.165 284.068V270.466L466.221 267.224L476.402 282.625C479.047 286.489 480.369 289.616 480.369 292.004C480.34 292.893 480.159 293.77 479.834 294.598C479.535 295.346 479.357 296.137 479.307 296.941C479.257 297.556 479.451 298.165 479.847 298.638C480.243 299.111 480.81 299.41 481.424 299.47C483.028 299.776 484.659 299.92 486.292 299.899H507.709C508.733 299.913 509.724 299.54 510.484 298.854C510.876 298.509 511.187 298.082 511.394 297.602C511.6 297.123 511.696 296.603 511.676 296.081C511.717 295.4 511.532 294.725 511.149 294.16C510.563 293.49 509.919 292.872 509.226 292.312Z" fill="white"/>
<path d="M570.51 272.063C568.035 269.228 565.08 266.849 561.781 265.035C558.39 263.144 554.063 261.044 548.801 258.737C544.717 257.059 540.763 255.081 536.972 252.82C534.538 251.255 533.33 249.48 533.33 247.51C533.282 246.675 533.482 245.844 533.907 245.122C534.332 244.401 534.961 243.821 535.715 243.457C537.525 242.58 539.521 242.154 541.532 242.217C545.144 242.217 547.965 243.103 549.993 244.876C552.372 247.117 554.334 249.763 555.786 252.69C556.353 253.72 557.234 254.543 558.301 255.041C559.405 255.606 560.629 255.901 561.87 255.9C562.806 255.925 563.738 255.763 564.611 255.425C565.485 255.087 566.282 254.579 566.957 253.93C567.607 253.334 568.126 252.609 568.478 251.8C568.83 250.992 569.008 250.118 569.001 249.237C569.001 246.683 567.436 244.43 564.312 242.452C560.801 240.322 556.964 238.78 552.954 237.888C549.042 236.884 545.026 236.34 540.988 236.267C534.674 236.15 528.415 237.457 522.678 240.093C517.34 242.649 514.67 247.094 514.67 253.427C514.626 257.076 515.84 260.629 518.11 263.487C520.384 266.393 523.189 268.841 526.377 270.701C529.59 272.598 533.798 274.819 539 277.365C543.227 279.261 547.296 281.489 551.17 284.028C553.733 285.844 555.007 287.935 555.007 290.326C555.007 292.05 554.104 293.428 552.297 294.46C550.333 295.527 548.123 296.058 545.888 296C538.214 296 532.702 291.188 529.354 281.564C528.769 280.125 527.839 278.853 526.645 277.859C525.282 276.627 523.4 276.011 520.893 276.011C518.522 275.965 516.226 276.836 514.484 278.443C513.619 279.193 512.928 280.123 512.46 281.167C511.992 282.212 511.758 283.346 511.774 284.49C511.774 287.538 513.272 290.396 516.269 293.066C519.711 295.989 523.718 298.174 528.04 299.486C532.898 301.102 537.985 301.923 543.105 301.918C552.619 301.918 560.177 300.17 565.781 296.673C571.384 293.177 574.183 288.221 574.177 281.807C574.207 278.217 572.9 274.744 570.51 272.063Z" fill="white"/>
</g>
<defs>
<clipPath id="clip0_118_4427">
<rect width="581" height="329" fill="white"/>
</clipPath>
</defs>
</svg>
