<svg width="1440" height="3997" viewBox="0 0 1440 3997" fill="none" xmlns="http://www.w3.org/2000/svg">
<g clip-path="url(#clip0_74_1434)">
<path d="M1292.54 90.5911L1344.23 125.108C1349.06 128.33 1354.6 130.331 1360.37 130.936C1366.14 131.542 1371.97 130.735 1377.36 128.585L1435.1 105.581C1462.65 94.5903 1490.83 119.969 1482.74 148.546L1465.88 208.372C1464.31 213.957 1464.12 219.838 1465.33 225.512C1466.53 231.187 1469.1 236.484 1472.8 240.949L1512.54 288.757C1531.5 311.567 1516.08 346.207 1486.44 347.387L1424.34 349.867C1418.54 350.098 1412.89 351.734 1407.87 354.634C1402.84 357.534 1398.6 361.612 1395.5 366.516L1362.3 419.056C1346.46 444.133 1308.75 440.174 1298.48 412.344L1276.95 354.025C1274.94 348.582 1271.63 343.71 1267.32 339.829C1263.01 335.947 1257.82 333.174 1252.19 331.747L1191.95 316.43C1163.16 309.149 1155.32 272.027 1178.57 253.689L1227.35 215.193C1231.91 211.599 1235.53 206.952 1237.89 201.65C1240.25 196.348 1241.29 190.552 1240.91 184.761L1236.86 122.741C1235.04 93.0887 1267.87 74.1349 1292.54 90.5911Z" fill="#FFF0C8"/>
<path d="M1413.36 266.591C1415.34 275.386 1408.2 285.744 1400.44 289.856C1395.26 292.411 1389.77 294.3 1384.1 295.478C1375.9 297.511 1369.64 302.214 1363.68 307.779C1357.98 313.11 1352.03 318.019 1343.67 318.943C1326.21 320.844 1313.34 305.314 1318.79 288.733C1321.4 280.759 1325.24 273.148 1326.21 264.653C1326.86 259.005 1327.1 253.245 1328.9 247.713C1332.98 235.132 1343.74 229.518 1356.51 233.529C1360.96 235.038 1365.27 236.946 1369.39 239.23C1376.8 243.086 1384.93 244.308 1393.03 245.642C1401.51 247.048 1407.35 251.829 1411.49 259.098C1412.88 261.407 1412.92 263.912 1413.36 266.591Z" fill="white"/>
<path d="M1315.27 245.375C1306.09 246.369 1295.27 239.815 1290.22 230.168C1288.17 226.243 1286.32 222.183 1286.81 217.615C1287.86 207.731 1296.48 202.212 1306.06 205.112C1317.17 208.48 1326.89 219.659 1327.81 230.127C1328.05 231.962 1327.91 233.829 1327.41 235.609C1326.9 237.39 1326.03 239.047 1324.85 240.478C1323.68 241.908 1322.22 243.081 1320.57 243.924C1318.92 244.766 1317.12 245.26 1315.27 245.375Z" fill="white"/>
<path d="M1364.54 202.474C1365.04 207.434 1364.38 212.442 1362.62 217.106C1359.62 224.81 1352.23 227.973 1344.52 224.749C1329.56 218.47 1326.09 195.725 1334.21 185.608C1339.34 179.132 1345.38 178.511 1352.85 182.894C1360.31 187.278 1363.22 194.784 1364.54 202.474Z" fill="white"/>
<path d="M1290.32 250.628C1303.18 249.263 1317 261.907 1315.55 273.723C1315.13 276.811 1313.66 279.658 1311.36 281.77C1309.07 283.882 1306.12 285.125 1303.01 285.285C1287.98 285.791 1278.36 274.428 1277.76 264.855C1277.23 256.552 1281.3 251.585 1290.32 250.628Z" fill="white"/>
<path d="M1373.79 218.807C1372.56 210.382 1374.94 203.792 1381.3 198.804C1383.29 197.297 1385.69 196.436 1388.18 196.339C1390.67 196.242 1393.13 196.913 1395.23 198.261C1405.89 204.558 1408.05 224.847 1398.84 233.203C1391.63 239.756 1381.72 237.679 1376.63 228.566C1374.92 225.587 1373.94 222.24 1373.79 218.807Z" fill="white"/>
</g>
<g clip-path="url(#clip1_74_1434)">
<path d="M146.756 524.591L95.0699 559.108C90.243 562.33 84.7049 564.331 78.9329 564.936C73.1609 565.542 67.3282 564.735 61.9374 562.585L4.20389 539.581C-23.351 528.59 -51.5282 553.969 -43.4366 582.546L-26.5821 642.372C-25.0139 647.957 -24.824 653.838 -26.0287 659.512C-27.2334 665.186 -29.7968 670.484 -33.4989 674.949L-73.2383 722.757C-92.204 745.567 -76.7752 780.207 -47.1389 781.387L14.9615 783.867C20.7575 784.098 26.4106 785.734 31.4341 788.634C36.4576 791.534 40.7009 795.612 43.7987 800.516L76.9969 853.056C92.8363 878.133 130.55 874.174 140.821 846.344L162.355 788.025C164.364 782.582 167.667 777.71 171.98 773.829C176.293 769.947 181.485 767.174 187.109 765.747L247.347 750.43C276.141 743.149 283.978 706.027 260.735 687.689L211.946 649.193C207.389 645.599 203.774 640.952 201.412 635.65C199.051 630.348 198.014 624.552 198.391 618.761L202.441 556.741C204.262 527.089 171.433 508.135 146.756 524.591Z" fill="#FFF0C8"/>
<path d="M25.9422 700.591C23.9558 709.386 31.0965 719.744 38.8575 723.856C44.0453 726.411 49.5352 728.3 55.1966 729.478C63.4026 731.511 69.6628 736.214 75.6192 741.779C81.3238 747.11 87.2717 752.019 95.6261 752.943C113.095 754.844 125.96 739.314 120.515 722.733C117.9 714.759 114.057 707.148 113.094 698.653C112.438 693.005 112.198 687.245 110.404 681.713C106.32 669.132 95.562 663.518 82.7951 667.529C78.3381 669.038 74.0266 670.946 69.9131 673.23C62.5054 677.086 54.3697 678.308 46.2751 679.642C37.7877 681.048 31.9532 685.829 27.8095 693.098C26.4237 695.407 26.3824 697.912 25.9422 700.591Z" fill="white"/>
<path d="M124.032 679.375C133.207 680.369 144.034 673.815 149.077 664.168C151.133 660.243 152.985 656.183 152.496 651.615C151.44 641.731 142.823 636.212 133.244 639.112C122.131 642.48 112.409 653.659 111.495 664.127C111.25 665.962 111.386 667.829 111.894 669.609C112.402 671.39 113.271 673.047 114.447 674.478C115.623 675.908 117.081 677.081 118.73 677.924C120.379 678.766 122.184 679.26 124.032 679.375Z" fill="white"/>
<path d="M74.7635 636.474C74.265 641.434 74.9208 646.442 76.6795 651.106C79.6792 658.81 87.0745 661.973 94.7851 658.749C109.74 652.47 113.211 629.725 105.088 619.608C99.9562 613.132 93.9212 612.511 86.4545 616.894C78.9878 621.278 76.077 628.784 74.7635 636.474Z" fill="white"/>
<path d="M148.98 684.628C136.12 683.263 122.303 695.907 123.755 707.723C124.166 710.811 125.645 713.658 127.936 715.77C130.227 717.882 133.184 719.125 136.296 719.285C151.32 719.791 160.937 708.428 161.545 698.855C162.071 690.552 158 685.585 148.98 684.628Z" fill="white"/>
<path d="M65.5107 652.807C66.7388 644.382 64.3606 637.792 58.0017 632.804C56.0149 631.297 53.6131 630.436 51.1214 630.339C48.6296 630.242 46.1682 630.913 44.0701 632.261C33.4081 638.558 31.2498 658.847 40.4598 667.203C47.6722 673.756 57.5833 671.679 62.6692 662.566C64.3819 659.587 65.3562 656.24 65.5107 652.807Z" fill="white"/>
</g>
<g clip-path="url(#clip2_74_1434)">
<path d="M1292.54 961.591L1344.23 996.108C1349.06 999.33 1354.6 1001.33 1360.37 1001.94C1366.14 1002.54 1371.97 1001.74 1377.36 999.585L1435.1 976.581C1462.65 965.59 1490.83 990.969 1482.74 1019.55L1465.88 1079.37C1464.31 1084.96 1464.12 1090.84 1465.33 1096.51C1466.53 1102.19 1469.1 1107.48 1472.8 1111.95L1512.54 1159.76C1531.5 1182.57 1516.08 1217.21 1486.44 1218.39L1424.34 1220.87C1418.54 1221.1 1412.89 1222.73 1407.87 1225.63C1402.84 1228.53 1398.6 1232.61 1395.5 1237.52L1362.3 1290.06C1346.46 1315.13 1308.75 1311.17 1298.48 1283.34L1276.95 1225.03C1274.94 1219.58 1271.63 1214.71 1267.32 1210.83C1263.01 1206.95 1257.82 1204.17 1252.19 1202.75L1191.95 1187.43C1163.16 1180.15 1155.32 1143.03 1178.57 1124.69L1227.35 1086.19C1231.91 1082.6 1235.53 1077.95 1237.89 1072.65C1240.25 1067.35 1241.29 1061.55 1240.91 1055.76L1236.86 993.741C1235.04 964.089 1267.87 945.135 1292.54 961.591Z" fill="#FFF0C8"/>
<path d="M1413.36 1137.59C1415.34 1146.39 1408.2 1156.74 1400.44 1160.86C1395.26 1163.41 1389.77 1165.3 1384.1 1166.48C1375.9 1168.51 1369.64 1173.21 1363.68 1178.78C1357.98 1184.11 1352.03 1189.02 1343.67 1189.94C1326.21 1191.84 1313.34 1176.31 1318.79 1159.73C1321.4 1151.76 1325.24 1144.15 1326.21 1135.65C1326.86 1130 1327.1 1124.25 1328.9 1118.71C1332.98 1106.13 1343.74 1100.52 1356.51 1104.53C1360.96 1106.04 1365.27 1107.95 1369.39 1110.23C1376.8 1114.09 1384.93 1115.31 1393.03 1116.64C1401.51 1118.05 1407.35 1122.83 1411.49 1130.1C1412.88 1132.41 1412.92 1134.91 1413.36 1137.59Z" fill="white"/>
<path d="M1315.27 1116.38C1306.09 1117.37 1295.27 1110.82 1290.22 1101.17C1288.17 1097.24 1286.32 1093.18 1286.81 1088.62C1287.86 1078.73 1296.48 1073.21 1306.06 1076.11C1317.17 1079.48 1326.89 1090.66 1327.81 1101.13C1328.05 1102.96 1327.91 1104.83 1327.41 1106.61C1326.9 1108.39 1326.03 1110.05 1324.85 1111.48C1323.68 1112.91 1322.22 1114.08 1320.57 1114.92C1318.92 1115.77 1317.12 1116.26 1315.27 1116.38Z" fill="white"/>
<path d="M1364.54 1073.47C1365.04 1078.43 1364.38 1083.44 1362.62 1088.11C1359.62 1095.81 1352.23 1098.97 1344.52 1095.75C1329.56 1089.47 1326.09 1066.72 1334.21 1056.61C1339.34 1050.13 1345.38 1049.51 1352.85 1053.89C1360.31 1058.28 1363.22 1065.78 1364.54 1073.47Z" fill="white"/>
<path d="M1290.32 1121.63C1303.18 1120.26 1317 1132.91 1315.55 1144.72C1315.13 1147.81 1313.66 1150.66 1311.36 1152.77C1309.07 1154.88 1306.12 1156.13 1303.01 1156.28C1287.98 1156.79 1278.36 1145.43 1277.76 1135.86C1277.23 1127.55 1281.3 1122.58 1290.32 1121.63Z" fill="white"/>
<path d="M1373.79 1089.81C1372.56 1081.38 1374.94 1074.79 1381.3 1069.8C1383.29 1068.3 1385.69 1067.44 1388.18 1067.34C1390.67 1067.24 1393.13 1067.91 1395.23 1069.26C1405.89 1075.56 1408.05 1095.85 1398.84 1104.2C1391.63 1110.76 1381.72 1108.68 1376.63 1099.57C1374.92 1096.59 1373.94 1093.24 1373.79 1089.81Z" fill="white"/>
</g>
<g clip-path="url(#clip3_74_1434)">
<path d="M146.756 1399.59L95.0699 1434.11C90.243 1437.33 84.7049 1439.33 78.9329 1439.94C73.1609 1440.54 67.3282 1439.74 61.9374 1437.59L4.20389 1414.58C-23.351 1403.59 -51.5282 1428.97 -43.4366 1457.55L-26.5821 1517.37C-25.0139 1522.96 -24.824 1528.84 -26.0287 1534.51C-27.2334 1540.19 -29.7968 1545.48 -33.4989 1549.95L-73.2383 1597.76C-92.204 1620.57 -76.7752 1655.21 -47.1389 1656.39L14.9615 1658.87C20.7575 1659.1 26.4106 1660.73 31.4341 1663.63C36.4576 1666.53 40.7009 1670.61 43.7987 1675.52L76.9969 1728.06C92.8363 1753.13 130.55 1749.17 140.821 1721.34L162.355 1663.03C164.364 1657.58 167.667 1652.71 171.98 1648.83C176.293 1644.95 181.485 1642.17 187.109 1640.75L247.347 1625.43C276.141 1618.15 283.978 1581.03 260.735 1562.69L211.946 1524.19C207.389 1520.6 203.774 1515.95 201.412 1510.65C199.051 1505.35 198.014 1499.55 198.391 1493.76L202.441 1431.74C204.262 1402.09 171.433 1383.13 146.756 1399.59Z" fill="#FFF0C8"/>
<path d="M25.9422 1575.59C23.9558 1584.39 31.0965 1594.74 38.8575 1598.86C44.0453 1601.41 49.5352 1603.3 55.1966 1604.48C63.4026 1606.51 69.6628 1611.21 75.6192 1616.78C81.3238 1622.11 87.2717 1627.02 95.6261 1627.94C113.095 1629.84 125.96 1614.31 120.515 1597.73C117.9 1589.76 114.057 1582.15 113.094 1573.65C112.438 1568 112.198 1562.25 110.404 1556.71C106.32 1544.13 95.562 1538.52 82.7951 1542.53C78.3381 1544.04 74.0266 1545.95 69.9131 1548.23C62.5054 1552.09 54.3697 1553.31 46.2751 1554.64C37.7877 1556.05 31.9532 1560.83 27.8095 1568.1C26.4237 1570.41 26.3824 1572.91 25.9422 1575.59Z" fill="white"/>
<path d="M124.032 1554.38C133.207 1555.37 144.034 1548.82 149.077 1539.17C151.133 1535.24 152.985 1531.18 152.496 1526.62C151.44 1516.73 142.823 1511.21 133.244 1514.11C122.131 1517.48 112.409 1528.66 111.495 1539.13C111.25 1540.96 111.386 1542.83 111.894 1544.61C112.402 1546.39 113.271 1548.05 114.447 1549.48C115.623 1550.91 117.081 1552.08 118.73 1552.92C120.379 1553.77 122.184 1554.26 124.032 1554.38Z" fill="white"/>
<path d="M74.7635 1511.47C74.265 1516.43 74.9208 1521.44 76.6795 1526.11C79.6792 1533.81 87.0745 1536.97 94.7851 1533.75C109.74 1527.47 113.211 1504.72 105.088 1494.61C99.9562 1488.13 93.9212 1487.51 86.4545 1491.89C78.9878 1496.28 76.077 1503.78 74.7635 1511.47Z" fill="white"/>
<path d="M148.98 1559.63C136.12 1558.26 122.303 1570.91 123.755 1582.72C124.166 1585.81 125.645 1588.66 127.936 1590.77C130.227 1592.88 133.184 1594.13 136.296 1594.28C151.32 1594.79 160.937 1583.43 161.545 1573.86C162.071 1565.55 158 1560.58 148.98 1559.63Z" fill="white"/>
<path d="M65.5107 1527.81C66.7388 1519.38 64.3606 1512.79 58.0017 1507.8C56.0149 1506.3 53.6131 1505.44 51.1214 1505.34C48.6296 1505.24 46.1682 1505.91 44.0701 1507.26C33.4081 1513.56 31.2498 1533.85 40.4598 1542.2C47.6722 1548.76 57.5833 1546.68 62.6692 1537.57C64.3819 1534.59 65.3562 1531.24 65.5107 1527.81Z" fill="white"/>
</g>
<g clip-path="url(#clip4_74_1434)">
<path d="M146.756 2264.59L95.0699 2299.11C90.243 2302.33 84.7049 2304.33 78.9329 2304.94C73.1609 2305.54 67.3282 2304.73 61.9374 2302.58L4.20389 2279.58C-23.351 2268.59 -51.5282 2293.97 -43.4366 2322.55L-26.5821 2382.37C-25.0139 2387.96 -24.824 2393.84 -26.0287 2399.51C-27.2334 2405.19 -29.7968 2410.48 -33.4989 2414.95L-73.2383 2462.76C-92.204 2485.57 -76.7752 2520.21 -47.1389 2521.39L14.9615 2523.87C20.7575 2524.1 26.4106 2525.73 31.4341 2528.63C36.4576 2531.53 40.7009 2535.61 43.7987 2540.52L76.9969 2593.06C92.8363 2618.13 130.55 2614.17 140.821 2586.34L162.355 2528.02C164.364 2522.58 167.667 2517.71 171.98 2513.83C176.293 2509.95 181.485 2507.17 187.109 2505.75L247.347 2490.43C276.141 2483.15 283.978 2446.03 260.735 2427.69L211.946 2389.19C207.389 2385.6 203.774 2380.95 201.412 2375.65C199.051 2370.35 198.014 2364.55 198.391 2358.76L202.441 2296.74C204.262 2267.09 171.433 2248.13 146.756 2264.59Z" fill="#FFF0C8"/>
<path d="M25.9422 2440.59C23.9558 2449.39 31.0965 2459.74 38.8575 2463.86C44.0453 2466.41 49.5352 2468.3 55.1966 2469.48C63.4026 2471.51 69.6628 2476.21 75.6192 2481.78C81.3238 2487.11 87.2717 2492.02 95.6261 2492.94C113.095 2494.84 125.96 2479.31 120.515 2462.73C117.9 2454.76 114.057 2447.15 113.094 2438.65C112.438 2433 112.198 2427.24 110.404 2421.71C106.32 2409.13 95.562 2403.52 82.7951 2407.53C78.3381 2409.04 74.0266 2410.95 69.9131 2413.23C62.5054 2417.09 54.3697 2418.31 46.2751 2419.64C37.7877 2421.05 31.9532 2425.83 27.8095 2433.1C26.4237 2435.41 26.3824 2437.91 25.9422 2440.59Z" fill="white"/>
<path d="M124.032 2419.37C133.207 2420.37 144.034 2413.81 149.077 2404.17C151.133 2400.24 152.985 2396.18 152.496 2391.61C151.44 2381.73 142.823 2376.21 133.244 2379.11C122.131 2382.48 112.409 2393.66 111.495 2404.13C111.25 2405.96 111.386 2407.83 111.894 2409.61C112.402 2411.39 113.271 2413.05 114.447 2414.48C115.623 2415.91 117.081 2417.08 118.73 2417.92C120.379 2418.77 122.184 2419.26 124.032 2419.37Z" fill="white"/>
<path d="M74.7635 2376.47C74.265 2381.43 74.9208 2386.44 76.6795 2391.11C79.6792 2398.81 87.0745 2401.97 94.7851 2398.75C109.74 2392.47 113.211 2369.72 105.088 2359.61C99.9562 2353.13 93.9212 2352.51 86.4545 2356.89C78.9878 2361.28 76.077 2368.78 74.7635 2376.47Z" fill="white"/>
<path d="M148.98 2424.63C136.12 2423.26 122.303 2435.91 123.755 2447.72C124.166 2450.81 125.645 2453.66 127.936 2455.77C130.227 2457.88 133.184 2459.12 136.296 2459.28C151.32 2459.79 160.937 2448.43 161.545 2438.86C162.071 2430.55 158 2425.58 148.98 2424.63Z" fill="white"/>
<path d="M65.5107 2392.81C66.7388 2384.38 64.3606 2377.79 58.0017 2372.8C56.0149 2371.3 53.6131 2370.44 51.1214 2370.34C48.6296 2370.24 46.1682 2370.91 44.0701 2372.26C33.4081 2378.56 31.2498 2398.85 40.4598 2407.2C47.6722 2413.76 57.5833 2411.68 62.6692 2402.57C64.3819 2399.59 65.3562 2396.24 65.5107 2392.81Z" fill="white"/>
</g>
<g clip-path="url(#clip5_74_1434)">
<path d="M146.756 3175.59L95.0699 3210.11C90.243 3213.33 84.7049 3215.33 78.9329 3215.94C73.1609 3216.54 67.3282 3215.73 61.9374 3213.58L4.20389 3190.58C-23.351 3179.59 -51.5282 3204.97 -43.4366 3233.55L-26.5821 3293.37C-25.0139 3298.96 -24.824 3304.84 -26.0287 3310.51C-27.2334 3316.19 -29.7968 3321.48 -33.4989 3325.95L-73.2383 3373.76C-92.204 3396.57 -76.7752 3431.21 -47.1389 3432.39L14.9615 3434.87C20.7575 3435.1 26.4106 3436.73 31.4341 3439.63C36.4576 3442.53 40.7009 3446.61 43.7987 3451.52L76.9969 3504.06C92.8363 3529.13 130.55 3525.17 140.821 3497.34L162.355 3439.02C164.364 3433.58 167.667 3428.71 171.98 3424.83C176.293 3420.95 181.485 3418.17 187.109 3416.75L247.347 3401.43C276.141 3394.15 283.978 3357.03 260.735 3338.69L211.946 3300.19C207.389 3296.6 203.774 3291.95 201.412 3286.65C199.051 3281.35 198.014 3275.55 198.391 3269.76L202.441 3207.74C204.262 3178.09 171.433 3159.13 146.756 3175.59Z" fill="#FFF0C8"/>
<path d="M25.9422 3351.59C23.9558 3360.39 31.0965 3370.74 38.8575 3374.86C44.0453 3377.41 49.5352 3379.3 55.1966 3380.48C63.4026 3382.51 69.6628 3387.21 75.6192 3392.78C81.3238 3398.11 87.2717 3403.02 95.6261 3403.94C113.095 3405.84 125.96 3390.31 120.515 3373.73C117.9 3365.76 114.057 3358.15 113.094 3349.65C112.438 3344 112.198 3338.24 110.404 3332.71C106.32 3320.13 95.562 3314.52 82.7951 3318.53C78.3381 3320.04 74.0266 3321.95 69.9131 3324.23C62.5054 3328.09 54.3697 3329.31 46.2751 3330.64C37.7877 3332.05 31.9532 3336.83 27.8095 3344.1C26.4237 3346.41 26.3824 3348.91 25.9422 3351.59Z" fill="white"/>
<path d="M124.032 3330.37C133.207 3331.37 144.034 3324.81 149.077 3315.17C151.133 3311.24 152.985 3307.18 152.496 3302.61C151.44 3292.73 142.823 3287.21 133.244 3290.11C122.131 3293.48 112.409 3304.66 111.495 3315.13C111.25 3316.96 111.386 3318.83 111.894 3320.61C112.402 3322.39 113.271 3324.05 114.447 3325.48C115.623 3326.91 117.081 3328.08 118.73 3328.92C120.379 3329.77 122.184 3330.26 124.032 3330.37Z" fill="white"/>
<path d="M74.7635 3287.47C74.265 3292.43 74.9208 3297.44 76.6795 3302.11C79.6792 3309.81 87.0745 3312.97 94.7851 3309.75C109.74 3303.47 113.211 3280.72 105.088 3270.61C99.9562 3264.13 93.9212 3263.51 86.4545 3267.89C78.9878 3272.28 76.077 3279.78 74.7635 3287.47Z" fill="white"/>
<path d="M148.98 3335.63C136.12 3334.26 122.303 3346.91 123.755 3358.72C124.166 3361.81 125.645 3364.66 127.936 3366.77C130.227 3368.88 133.184 3370.12 136.296 3370.28C151.32 3370.79 160.937 3359.43 161.545 3349.86C162.071 3341.55 158 3336.58 148.98 3335.63Z" fill="white"/>
<path d="M65.5107 3303.81C66.7388 3295.38 64.3606 3288.79 58.0017 3283.8C56.0149 3282.3 53.6131 3281.44 51.1214 3281.34C48.6296 3281.24 46.1682 3281.91 44.0701 3283.26C33.4081 3289.56 31.2498 3309.85 40.4598 3318.2C47.6722 3324.76 57.5833 3322.68 62.6692 3313.57C64.3819 3310.59 65.3562 3307.24 65.5107 3303.81Z" fill="white"/>
</g>
<g clip-path="url(#clip6_74_1434)">
<path d="M1290.54 1832.59L1342.23 1867.11C1347.06 1870.33 1352.6 1872.33 1358.37 1872.94C1364.14 1873.54 1369.97 1872.74 1375.36 1870.59L1433.1 1847.58C1460.65 1836.59 1488.83 1861.97 1480.74 1890.55L1463.88 1950.37C1462.31 1955.96 1462.12 1961.84 1463.33 1967.51C1464.53 1973.19 1467.1 1978.48 1470.8 1982.95L1510.54 2030.76C1529.5 2053.57 1514.08 2088.21 1484.44 2089.39L1422.34 2091.87C1416.54 2092.1 1410.89 2093.73 1405.87 2096.63C1400.84 2099.53 1396.6 2103.61 1393.5 2108.52L1360.3 2161.06C1344.46 2186.13 1306.75 2182.17 1296.48 2154.34L1274.95 2096.03C1272.94 2090.58 1269.63 2085.71 1265.32 2081.83C1261.01 2077.95 1255.82 2075.17 1250.19 2073.75L1189.95 2058.43C1161.16 2051.15 1153.32 2014.03 1176.57 1995.69L1225.35 1957.19C1229.91 1953.6 1233.53 1948.95 1235.89 1943.65C1238.25 1938.35 1239.29 1932.55 1238.91 1926.76L1234.86 1864.74C1233.04 1835.09 1265.87 1816.13 1290.54 1832.59Z" fill="#FFF0C8"/>
<path d="M1411.36 2008.59C1413.34 2017.39 1406.2 2027.74 1398.44 2031.86C1393.26 2034.41 1387.77 2036.3 1382.1 2037.48C1373.9 2039.51 1367.64 2044.21 1361.68 2049.78C1355.98 2055.11 1350.03 2060.02 1341.67 2060.94C1324.21 2062.84 1311.34 2047.31 1316.79 2030.73C1319.4 2022.76 1323.24 2015.15 1324.21 2006.65C1324.86 2001 1325.1 1995.25 1326.9 1989.71C1330.98 1977.13 1341.74 1971.52 1354.51 1975.53C1358.96 1977.04 1363.27 1978.95 1367.39 1981.23C1374.8 1985.09 1382.93 1986.31 1391.03 1987.64C1399.51 1989.05 1405.35 1993.83 1409.49 2001.1C1410.88 2003.41 1410.92 2005.91 1411.36 2008.59Z" fill="white"/>
<path d="M1313.27 1987.38C1304.09 1988.37 1293.27 1981.82 1288.22 1972.17C1286.17 1968.24 1284.32 1964.18 1284.81 1959.62C1285.86 1949.73 1294.48 1944.21 1304.06 1947.11C1315.17 1950.48 1324.89 1961.66 1325.81 1972.13C1326.05 1973.96 1325.91 1975.83 1325.41 1977.61C1324.9 1979.39 1324.03 1981.05 1322.85 1982.48C1321.68 1983.91 1320.22 1985.08 1318.57 1985.92C1316.92 1986.77 1315.12 1987.26 1313.27 1987.38Z" fill="white"/>
<path d="M1362.54 1944.47C1363.04 1949.43 1362.38 1954.44 1360.62 1959.11C1357.62 1966.81 1350.23 1969.97 1342.52 1966.75C1327.56 1960.47 1324.09 1937.72 1332.21 1927.61C1337.34 1921.13 1343.38 1920.51 1350.85 1924.89C1358.31 1929.28 1361.22 1936.78 1362.54 1944.47Z" fill="white"/>
<path d="M1288.32 1992.63C1301.18 1991.26 1315 2003.91 1313.55 2015.72C1313.13 2018.81 1311.66 2021.66 1309.36 2023.77C1307.07 2025.88 1304.12 2027.13 1301.01 2027.28C1285.98 2027.79 1276.36 2016.43 1275.76 2006.86C1275.23 1998.55 1279.3 1993.58 1288.32 1992.63Z" fill="white"/>
<path d="M1371.79 1960.81C1370.56 1952.38 1372.94 1945.79 1379.3 1940.8C1381.29 1939.3 1383.69 1938.44 1386.18 1938.34C1388.67 1938.24 1391.13 1938.91 1393.23 1940.26C1403.89 1946.56 1406.05 1966.85 1396.84 1975.2C1389.63 1981.76 1379.72 1979.68 1374.63 1970.57C1372.92 1967.59 1371.94 1964.24 1371.79 1960.81Z" fill="white"/>
</g>
<g clip-path="url(#clip7_74_1434)">
<path d="M1290.54 2699.59L1342.23 2734.11C1347.06 2737.33 1352.6 2739.33 1358.37 2739.94C1364.14 2740.54 1369.97 2739.73 1375.36 2737.58L1433.1 2714.58C1460.65 2703.59 1488.83 2728.97 1480.74 2757.55L1463.88 2817.37C1462.31 2822.96 1462.12 2828.84 1463.33 2834.51C1464.53 2840.19 1467.1 2845.48 1470.8 2849.95L1510.54 2897.76C1529.5 2920.57 1514.08 2955.21 1484.44 2956.39L1422.34 2958.87C1416.54 2959.1 1410.89 2960.73 1405.87 2963.63C1400.84 2966.53 1396.6 2970.61 1393.5 2975.52L1360.3 3028.06C1344.46 3053.13 1306.75 3049.17 1296.48 3021.34L1274.95 2963.02C1272.94 2957.58 1269.63 2952.71 1265.32 2948.83C1261.01 2944.95 1255.82 2942.17 1250.19 2940.75L1189.95 2925.43C1161.16 2918.15 1153.32 2881.03 1176.57 2862.69L1225.35 2824.19C1229.91 2820.6 1233.53 2815.95 1235.89 2810.65C1238.25 2805.35 1239.29 2799.55 1238.91 2793.76L1234.86 2731.74C1233.04 2702.09 1265.87 2683.13 1290.54 2699.59Z" fill="#FFF0C8"/>
<path d="M1411.36 2875.59C1413.34 2884.39 1406.2 2894.74 1398.44 2898.86C1393.26 2901.41 1387.77 2903.3 1382.1 2904.48C1373.9 2906.51 1367.64 2911.21 1361.68 2916.78C1355.98 2922.11 1350.03 2927.02 1341.67 2927.94C1324.21 2929.84 1311.34 2914.31 1316.79 2897.73C1319.4 2889.76 1323.24 2882.15 1324.21 2873.65C1324.86 2868 1325.1 2862.24 1326.9 2856.71C1330.98 2844.13 1341.74 2838.52 1354.51 2842.53C1358.96 2844.04 1363.27 2845.95 1367.39 2848.23C1374.8 2852.09 1382.93 2853.31 1391.03 2854.64C1399.51 2856.05 1405.35 2860.83 1409.49 2868.1C1410.88 2870.41 1410.92 2872.91 1411.36 2875.59Z" fill="white"/>
<path d="M1313.27 2854.37C1304.09 2855.37 1293.27 2848.81 1288.22 2839.17C1286.17 2835.24 1284.32 2831.18 1284.81 2826.61C1285.86 2816.73 1294.48 2811.21 1304.06 2814.11C1315.17 2817.48 1324.89 2828.66 1325.81 2839.13C1326.05 2840.96 1325.91 2842.83 1325.41 2844.61C1324.9 2846.39 1324.03 2848.05 1322.85 2849.48C1321.68 2850.91 1320.22 2852.08 1318.57 2852.92C1316.92 2853.77 1315.12 2854.26 1313.27 2854.37Z" fill="white"/>
<path d="M1362.54 2811.47C1363.04 2816.43 1362.38 2821.44 1360.62 2826.11C1357.62 2833.81 1350.23 2836.97 1342.52 2833.75C1327.56 2827.47 1324.09 2804.72 1332.21 2794.61C1337.34 2788.13 1343.38 2787.51 1350.85 2791.89C1358.31 2796.28 1361.22 2803.78 1362.54 2811.47Z" fill="white"/>
<path d="M1288.32 2859.63C1301.18 2858.26 1315 2870.91 1313.55 2882.72C1313.13 2885.81 1311.66 2888.66 1309.36 2890.77C1307.07 2892.88 1304.12 2894.12 1301.01 2894.28C1285.98 2894.79 1276.36 2883.43 1275.76 2873.86C1275.23 2865.55 1279.3 2860.58 1288.32 2859.63Z" fill="white"/>
<path d="M1371.79 2827.81C1370.56 2819.38 1372.94 2812.79 1379.3 2807.8C1381.29 2806.3 1383.69 2805.44 1386.18 2805.34C1388.67 2805.24 1391.13 2805.91 1393.23 2807.26C1403.89 2813.56 1406.05 2833.85 1396.84 2842.2C1389.63 2848.76 1379.72 2846.68 1374.63 2837.57C1372.92 2834.59 1371.94 2831.24 1371.79 2827.81Z" fill="white"/>
</g>
<g clip-path="url(#clip8_74_1434)">
<path d="M1290.54 3610.59L1342.23 3645.11C1347.06 3648.33 1352.6 3650.33 1358.37 3650.94C1364.14 3651.54 1369.97 3650.73 1375.36 3648.58L1433.1 3625.58C1460.65 3614.59 1488.83 3639.97 1480.74 3668.55L1463.88 3728.37C1462.31 3733.96 1462.12 3739.84 1463.33 3745.51C1464.53 3751.19 1467.1 3756.48 1470.8 3760.95L1510.54 3808.76C1529.5 3831.57 1514.08 3866.21 1484.44 3867.39L1422.34 3869.87C1416.54 3870.1 1410.89 3871.73 1405.87 3874.63C1400.84 3877.53 1396.6 3881.61 1393.5 3886.52L1360.3 3939.06C1344.46 3964.13 1306.75 3960.17 1296.48 3932.34L1274.95 3874.02C1272.94 3868.58 1269.63 3863.71 1265.32 3859.83C1261.01 3855.95 1255.82 3853.17 1250.19 3851.75L1189.95 3836.43C1161.16 3829.15 1153.32 3792.03 1176.57 3773.69L1225.35 3735.19C1229.91 3731.6 1233.53 3726.95 1235.89 3721.65C1238.25 3716.35 1239.29 3710.55 1238.91 3704.76L1234.86 3642.74C1233.04 3613.09 1265.87 3594.13 1290.54 3610.59Z" fill="#FFF0C8"/>
<path d="M1411.36 3786.59C1413.34 3795.39 1406.2 3805.74 1398.44 3809.86C1393.26 3812.41 1387.77 3814.3 1382.1 3815.48C1373.9 3817.51 1367.64 3822.21 1361.68 3827.78C1355.98 3833.11 1350.03 3838.02 1341.67 3838.94C1324.21 3840.84 1311.34 3825.31 1316.79 3808.73C1319.4 3800.76 1323.24 3793.15 1324.21 3784.65C1324.86 3779 1325.1 3773.24 1326.9 3767.71C1330.98 3755.13 1341.74 3749.52 1354.51 3753.53C1358.96 3755.04 1363.27 3756.95 1367.39 3759.23C1374.8 3763.09 1382.93 3764.31 1391.03 3765.64C1399.51 3767.05 1405.35 3771.83 1409.49 3779.1C1410.88 3781.41 1410.92 3783.91 1411.36 3786.59Z" fill="white"/>
<path d="M1313.27 3765.37C1304.09 3766.37 1293.27 3759.81 1288.22 3750.17C1286.17 3746.24 1284.32 3742.18 1284.81 3737.61C1285.86 3727.73 1294.48 3722.21 1304.06 3725.11C1315.17 3728.48 1324.89 3739.66 1325.81 3750.13C1326.05 3751.96 1325.91 3753.83 1325.41 3755.61C1324.9 3757.39 1324.03 3759.05 1322.85 3760.48C1321.68 3761.91 1320.22 3763.08 1318.57 3763.92C1316.92 3764.77 1315.12 3765.26 1313.27 3765.37Z" fill="white"/>
<path d="M1362.54 3722.47C1363.04 3727.43 1362.38 3732.44 1360.62 3737.11C1357.62 3744.81 1350.23 3747.97 1342.52 3744.75C1327.56 3738.47 1324.09 3715.72 1332.21 3705.61C1337.34 3699.13 1343.38 3698.51 1350.85 3702.89C1358.31 3707.28 1361.22 3714.78 1362.54 3722.47Z" fill="white"/>
<path d="M1288.32 3770.63C1301.18 3769.26 1315 3781.91 1313.55 3793.72C1313.13 3796.81 1311.66 3799.66 1309.36 3801.77C1307.07 3803.88 1304.12 3805.12 1301.01 3805.28C1285.98 3805.79 1276.36 3794.43 1275.76 3784.86C1275.23 3776.55 1279.3 3771.58 1288.32 3770.63Z" fill="white"/>
<path d="M1371.79 3738.81C1370.56 3730.38 1372.94 3723.79 1379.3 3718.8C1381.29 3717.3 1383.69 3716.44 1386.18 3716.34C1388.67 3716.24 1391.13 3716.91 1393.23 3718.26C1403.89 3724.56 1406.05 3744.85 1396.84 3753.2C1389.63 3759.76 1379.72 3757.68 1374.63 3748.57C1372.92 3745.59 1371.94 3742.24 1371.79 3738.81Z" fill="white"/>
</g>
<g clip-path="url(#clip9_74_1434)">
<path d="M75.4121 190.797L50.9949 207.103C48.7146 208.625 46.0983 209.57 43.3715 209.856C40.6448 210.142 37.8893 209.761 35.3426 208.746L8.06846 197.878C-4.94889 192.686 -18.2602 204.675 -14.4376 218.175L-6.47533 246.438C-5.73447 249.076 -5.64474 251.855 -6.21386 254.535C-6.783 257.216 -7.99399 259.718 -9.74291 261.828L-28.5164 284.413C-37.4761 295.189 -30.1873 311.554 -16.1866 312.111L13.1505 313.282C15.8886 313.391 18.5592 314.164 20.9324 315.534C23.3056 316.905 25.3102 318.831 26.7737 321.148L42.457 345.969C49.9397 357.815 67.7563 355.945 72.6086 342.798L82.7812 315.247C83.7305 312.675 85.2911 310.374 87.3284 308.54C89.3658 306.707 91.8186 305.396 94.4754 304.722L122.933 297.486C136.536 294.046 140.238 276.51 129.258 267.847L106.209 249.66C104.056 247.963 102.348 245.767 101.233 243.262C100.117 240.758 99.6274 238.02 99.8055 235.284L101.719 205.985C102.579 191.976 87.0699 183.022 75.4121 190.797Z" fill="#FFF0C8"/>
<path d="M18.3381 273.942C17.3998 278.097 20.7731 282.99 24.4395 284.932C26.8903 286.139 29.4838 287.032 32.1584 287.588C36.035 288.549 38.9924 290.771 41.8063 293.399C44.5012 295.918 47.3112 298.237 51.2579 298.673C59.5105 299.571 65.5883 292.235 63.016 284.402C61.7804 280.635 59.9647 277.039 59.5101 273.026C59.2002 270.358 59.0867 267.637 58.239 265.023C56.3099 259.08 51.2276 256.428 45.1963 258.323C43.0908 259.035 41.0539 259.937 39.1107 261.016C35.6111 262.837 31.7677 263.415 27.9437 264.045C23.9341 264.709 21.1778 266.968 19.2203 270.402C18.5656 271.492 18.5461 272.676 18.3381 273.942Z" fill="white"/>
<path d="M64.6769 263.919C69.0113 264.388 74.1263 261.292 76.5086 256.735C77.4796 254.881 78.3545 252.963 78.1234 250.805C77.6246 246.135 73.5538 243.528 69.0285 244.898C63.7785 246.489 59.186 251.77 58.7539 256.715C58.6384 257.583 58.7026 258.464 58.9426 259.305C59.1826 260.147 59.5932 260.93 60.1488 261.605C60.7044 262.281 61.3932 262.835 62.1722 263.233C62.9512 263.631 63.8038 263.865 64.6769 263.919Z" fill="white"/>
<path d="M41.4018 243.652C41.1663 245.995 41.4761 248.361 42.3069 250.564C43.724 254.203 47.2177 255.698 50.8603 254.175C57.925 251.208 59.5648 240.463 55.7274 235.684C53.3032 232.625 50.4522 232.331 46.9248 234.402C43.3974 236.473 42.0223 240.019 41.4018 243.652Z" fill="white"/>
<path d="M76.4623 266.4C70.387 265.756 63.8598 271.729 64.5453 277.311C64.7397 278.77 65.4385 280.115 66.5207 281.112C67.6028 282.11 69 282.697 70.4699 282.773C77.5675 283.012 82.1106 277.644 82.3982 273.122C82.6465 269.199 80.7236 266.852 76.4623 266.4Z" fill="white"/>
<path d="M37.03 251.368C37.6102 247.388 36.4866 244.275 33.4826 241.918C32.544 241.206 31.4094 240.799 30.2322 240.754C29.0551 240.708 27.8923 241.024 26.9011 241.661C21.8642 244.636 20.8446 254.221 25.1956 258.169C28.6028 261.264 33.285 260.283 35.6876 255.978C36.4967 254.57 36.957 252.99 37.03 251.368Z" fill="white"/>
</g>
<g clip-path="url(#clip10_74_1434)">
<path d="M1363.89 624.797L1388.31 641.103C1390.59 642.625 1393.2 643.57 1395.93 643.856C1398.66 644.142 1401.41 643.761 1403.96 642.746L1431.23 631.878C1444.25 626.686 1457.56 638.675 1453.74 652.175L1445.78 680.438C1445.04 683.076 1444.95 685.855 1445.51 688.535C1446.08 691.216 1447.29 693.718 1449.04 695.828L1467.82 718.413C1476.78 729.189 1469.49 745.554 1455.49 746.111L1426.15 747.282C1423.41 747.391 1420.74 748.164 1418.37 749.534C1416 750.905 1413.99 752.831 1412.53 755.148L1396.84 779.969C1389.36 791.815 1371.54 789.945 1366.69 776.798L1356.52 749.247C1355.57 746.675 1354.01 744.374 1351.97 742.54C1349.94 740.707 1347.48 739.396 1344.83 738.722L1316.37 731.486C1302.76 728.046 1299.06 710.51 1310.04 701.847L1333.09 683.66C1335.24 681.963 1336.95 679.767 1338.07 677.262C1339.18 674.758 1339.67 672.02 1339.5 669.284L1337.58 639.985C1336.72 625.976 1352.23 617.022 1363.89 624.797Z" fill="#FFF0C8"/>
<path d="M1420.96 707.942C1421.9 712.097 1418.53 716.99 1414.86 718.932C1412.41 720.139 1409.82 721.032 1407.14 721.588C1403.27 722.549 1400.31 724.771 1397.49 727.399C1394.8 729.918 1391.99 732.237 1388.04 732.673C1379.79 733.571 1373.71 726.235 1376.28 718.402C1377.52 714.635 1379.34 711.039 1379.79 707.026C1380.1 704.358 1380.21 701.637 1381.06 699.023C1382.99 693.08 1388.07 690.428 1394.1 692.323C1396.21 693.035 1398.25 693.937 1400.19 695.016C1403.69 696.837 1407.53 697.415 1411.36 698.045C1415.37 698.709 1418.12 700.968 1420.08 704.402C1420.74 705.492 1420.75 706.676 1420.96 707.942Z" fill="white"/>
<path d="M1374.62 697.919C1370.29 698.388 1365.17 695.292 1362.79 690.735C1361.82 688.881 1360.95 686.963 1361.18 684.805C1361.68 680.135 1365.75 677.528 1370.27 678.898C1375.52 680.489 1380.11 685.77 1380.55 690.715C1380.66 691.582 1380.6 692.464 1380.36 693.305C1380.12 694.147 1379.71 694.93 1379.15 695.605C1378.6 696.281 1377.91 696.835 1377.13 697.233C1376.35 697.631 1375.5 697.865 1374.62 697.919Z" fill="white"/>
<path d="M1397.9 677.652C1398.13 679.995 1397.82 682.361 1396.99 684.564C1395.58 688.203 1392.08 689.698 1388.44 688.175C1381.38 685.208 1379.74 674.463 1383.57 669.684C1386 666.625 1388.85 666.331 1392.38 668.402C1395.9 670.473 1397.28 674.019 1397.9 677.652Z" fill="white"/>
<path d="M1362.84 700.4C1368.91 699.756 1375.44 705.729 1374.76 711.311C1374.56 712.77 1373.86 714.115 1372.78 715.112C1371.7 716.11 1370.3 716.697 1368.83 716.773C1361.73 717.012 1357.19 711.644 1356.9 707.122C1356.65 703.199 1358.58 700.852 1362.84 700.4Z" fill="white"/>
<path d="M1402.27 685.368C1401.69 681.388 1402.81 678.275 1405.82 675.918C1406.76 675.206 1407.89 674.799 1409.07 674.754C1410.25 674.708 1411.41 675.024 1412.4 675.661C1417.44 678.636 1418.46 688.221 1414.11 692.169C1410.7 695.264 1406.02 694.283 1403.61 689.978C1402.8 688.57 1402.34 686.99 1402.27 685.368Z" fill="white"/>
</g>
<g clip-path="url(#clip11_74_1434)">
<path d="M75.4121 1061.8L50.9949 1078.1C48.7146 1079.63 46.0983 1080.57 43.3715 1080.86C40.6448 1081.14 37.8893 1080.76 35.3426 1079.75L8.06846 1068.88C-4.94889 1063.69 -18.2602 1075.67 -14.4376 1089.18L-6.47533 1117.44C-5.73447 1120.08 -5.64474 1122.85 -6.21386 1125.54C-6.783 1128.22 -7.99399 1130.72 -9.74291 1132.83L-28.5164 1155.41C-37.4761 1166.19 -30.1873 1182.55 -16.1866 1183.11L13.1505 1184.28C15.8886 1184.39 18.5592 1185.16 20.9324 1186.53C23.3056 1187.9 25.3102 1189.83 26.7737 1192.15L42.457 1216.97C49.9397 1228.81 67.7563 1226.94 72.6086 1213.8L82.7812 1186.25C83.7305 1183.68 85.2911 1181.37 87.3284 1179.54C89.3658 1177.71 91.8186 1176.4 94.4754 1175.72L122.933 1168.49C136.536 1165.05 140.238 1147.51 129.258 1138.85L106.209 1120.66C104.056 1118.96 102.348 1116.77 101.233 1114.26C100.117 1111.76 99.6274 1109.02 99.8055 1106.28L101.719 1076.98C102.579 1062.98 87.0699 1054.02 75.4121 1061.8Z" fill="#FFF0C8"/>
<path d="M18.3381 1144.94C17.3998 1149.1 20.7731 1153.99 24.4395 1155.93C26.8903 1157.14 29.4838 1158.03 32.1584 1158.59C36.035 1159.55 38.9924 1161.77 41.8063 1164.4C44.5012 1166.92 47.3112 1169.24 51.2579 1169.67C59.5105 1170.57 65.5883 1163.23 63.016 1155.4C61.7804 1151.63 59.9647 1148.04 59.5101 1144.03C59.2002 1141.36 59.0867 1138.64 58.239 1136.02C56.3099 1130.08 51.2276 1127.43 45.1963 1129.32C43.0908 1130.04 41.0539 1130.94 39.1107 1132.02C35.6111 1133.84 31.7677 1134.41 27.9437 1135.04C23.9341 1135.71 21.1778 1137.97 19.2203 1141.4C18.5656 1142.49 18.5461 1143.68 18.3381 1144.94Z" fill="white"/>
<path d="M64.6769 1134.92C69.0113 1135.39 74.1263 1132.29 76.5086 1127.73C77.4796 1125.88 78.3545 1123.96 78.1234 1121.8C77.6246 1117.14 73.5538 1114.53 69.0285 1115.9C63.7785 1117.49 59.186 1122.77 58.7539 1127.72C58.6384 1128.58 58.7026 1129.46 58.9426 1130.31C59.1826 1131.15 59.5932 1131.93 60.1488 1132.61C60.7044 1133.28 61.3932 1133.84 62.1722 1134.23C62.9512 1134.63 63.8038 1134.86 64.6769 1134.92Z" fill="white"/>
<path d="M41.4018 1114.65C41.1663 1116.99 41.4761 1119.36 42.3069 1121.56C43.724 1125.2 47.2177 1126.7 50.8603 1125.17C57.925 1122.21 59.5648 1111.46 55.7274 1106.68C53.3032 1103.62 50.4522 1103.33 46.9248 1105.4C43.3974 1107.47 42.0223 1111.02 41.4018 1114.65Z" fill="white"/>
<path d="M76.4623 1137.4C70.387 1136.76 63.8598 1142.73 64.5453 1148.31C64.7397 1149.77 65.4385 1151.11 66.5207 1152.11C67.6028 1153.11 69 1153.7 70.4699 1153.77C77.5675 1154.01 82.1106 1148.64 82.3982 1144.12C82.6465 1140.2 80.7236 1137.85 76.4623 1137.4Z" fill="white"/>
<path d="M37.03 1122.37C37.6102 1118.39 36.4866 1115.27 33.4826 1112.92C32.544 1112.21 31.4094 1111.8 30.2322 1111.75C29.0551 1111.71 27.8923 1112.02 26.9011 1112.66C21.8642 1115.64 20.8446 1125.22 25.1956 1129.17C28.6028 1132.26 33.285 1131.28 35.6876 1126.98C36.4967 1125.57 36.957 1123.99 37.03 1122.37Z" fill="white"/>
</g>
<g clip-path="url(#clip12_74_1434)">
<path d="M1363.89 1499.8L1388.31 1516.1C1390.59 1517.63 1393.2 1518.57 1395.93 1518.86C1398.66 1519.14 1401.41 1518.76 1403.96 1517.75L1431.23 1506.88C1444.25 1501.69 1457.56 1513.67 1453.74 1527.18L1445.78 1555.44C1445.04 1558.08 1444.95 1560.85 1445.51 1563.54C1446.08 1566.22 1447.29 1568.72 1449.04 1570.83L1467.82 1593.41C1476.78 1604.19 1469.49 1620.55 1455.49 1621.11L1426.15 1622.28C1423.41 1622.39 1420.74 1623.16 1418.37 1624.53C1416 1625.9 1413.99 1627.83 1412.53 1630.15L1396.84 1654.97C1389.36 1666.81 1371.54 1664.94 1366.69 1651.8L1356.52 1624.25C1355.57 1621.68 1354.01 1619.37 1351.97 1617.54C1349.94 1615.71 1347.48 1614.4 1344.83 1613.72L1316.37 1606.49C1302.76 1603.05 1299.06 1585.51 1310.04 1576.85L1333.09 1558.66C1335.24 1556.96 1336.95 1554.77 1338.07 1552.26C1339.18 1549.76 1339.67 1547.02 1339.5 1544.28L1337.58 1514.98C1336.72 1500.98 1352.23 1492.02 1363.89 1499.8Z" fill="#FFF0C8"/>
<path d="M1420.96 1582.94C1421.9 1587.1 1418.53 1591.99 1414.86 1593.93C1412.41 1595.14 1409.82 1596.03 1407.14 1596.59C1403.27 1597.55 1400.31 1599.77 1397.49 1602.4C1394.8 1604.92 1391.99 1607.24 1388.04 1607.67C1379.79 1608.57 1373.71 1601.23 1376.28 1593.4C1377.52 1589.63 1379.34 1586.04 1379.79 1582.03C1380.1 1579.36 1380.21 1576.64 1381.06 1574.02C1382.99 1568.08 1388.07 1565.43 1394.1 1567.32C1396.21 1568.04 1398.25 1568.94 1400.19 1570.02C1403.69 1571.84 1407.53 1572.41 1411.36 1573.04C1415.37 1573.71 1418.12 1575.97 1420.08 1579.4C1420.74 1580.49 1420.75 1581.68 1420.96 1582.94Z" fill="white"/>
<path d="M1374.62 1572.92C1370.29 1573.39 1365.17 1570.29 1362.79 1565.73C1361.82 1563.88 1360.95 1561.96 1361.18 1559.8C1361.68 1555.14 1365.75 1552.53 1370.27 1553.9C1375.52 1555.49 1380.11 1560.77 1380.55 1565.72C1380.66 1566.58 1380.6 1567.46 1380.36 1568.31C1380.12 1569.15 1379.71 1569.93 1379.15 1570.61C1378.6 1571.28 1377.91 1571.84 1377.13 1572.23C1376.35 1572.63 1375.5 1572.86 1374.62 1572.92Z" fill="white"/>
<path d="M1397.9 1552.65C1398.13 1554.99 1397.82 1557.36 1396.99 1559.56C1395.58 1563.2 1392.08 1564.7 1388.44 1563.17C1381.38 1560.21 1379.74 1549.46 1383.57 1544.68C1386 1541.62 1388.85 1541.33 1392.38 1543.4C1395.9 1545.47 1397.28 1549.02 1397.9 1552.65Z" fill="white"/>
<path d="M1362.84 1575.4C1368.91 1574.76 1375.44 1580.73 1374.76 1586.31C1374.56 1587.77 1373.86 1589.11 1372.78 1590.11C1371.7 1591.11 1370.3 1591.7 1368.83 1591.77C1361.73 1592.01 1357.19 1586.64 1356.9 1582.12C1356.65 1578.2 1358.58 1575.85 1362.84 1575.4Z" fill="white"/>
<path d="M1402.27 1560.37C1401.69 1556.39 1402.81 1553.27 1405.82 1550.92C1406.76 1550.21 1407.89 1549.8 1409.07 1549.75C1410.25 1549.71 1411.41 1550.02 1412.4 1550.66C1417.44 1553.64 1418.46 1563.22 1414.11 1567.17C1410.7 1570.26 1406.02 1569.28 1403.61 1564.98C1402.8 1563.57 1402.34 1561.99 1402.27 1560.37Z" fill="white"/>
</g>
<g clip-path="url(#clip13_74_1434)">
<path d="M1363.89 2364.8L1388.31 2381.1C1390.59 2382.63 1393.2 2383.57 1395.93 2383.86C1398.66 2384.14 1401.41 2383.76 1403.96 2382.75L1431.23 2371.88C1444.25 2366.69 1457.56 2378.68 1453.74 2392.18L1445.78 2420.44C1445.04 2423.08 1444.95 2425.86 1445.51 2428.54C1446.08 2431.22 1447.29 2433.72 1449.04 2435.83L1467.82 2458.41C1476.78 2469.19 1469.49 2485.55 1455.49 2486.11L1426.15 2487.28C1423.41 2487.39 1420.74 2488.16 1418.37 2489.53C1416 2490.9 1413.99 2492.83 1412.53 2495.15L1396.84 2519.97C1389.36 2531.82 1371.54 2529.95 1366.69 2516.8L1356.52 2489.25C1355.57 2486.68 1354.01 2484.37 1351.97 2482.54C1349.94 2480.71 1347.48 2479.4 1344.83 2478.72L1316.37 2471.49C1302.76 2468.05 1299.06 2450.51 1310.04 2441.85L1333.09 2423.66C1335.24 2421.96 1336.95 2419.77 1338.07 2417.26C1339.18 2414.76 1339.67 2412.02 1339.5 2409.28L1337.58 2379.98C1336.72 2365.98 1352.23 2357.02 1363.89 2364.8Z" fill="#FFF0C8"/>
<path d="M1420.96 2447.94C1421.9 2452.1 1418.53 2456.99 1414.86 2458.93C1412.41 2460.14 1409.82 2461.03 1407.14 2461.59C1403.27 2462.55 1400.31 2464.77 1397.49 2467.4C1394.8 2469.92 1391.99 2472.24 1388.04 2472.67C1379.79 2473.57 1373.71 2466.23 1376.28 2458.4C1377.52 2454.63 1379.34 2451.04 1379.79 2447.03C1380.1 2444.36 1380.21 2441.64 1381.06 2439.02C1382.99 2433.08 1388.07 2430.43 1394.1 2432.32C1396.21 2433.04 1398.25 2433.94 1400.19 2435.02C1403.69 2436.84 1407.53 2437.41 1411.36 2438.04C1415.37 2438.71 1418.12 2440.97 1420.08 2444.4C1420.74 2445.49 1420.75 2446.68 1420.96 2447.94Z" fill="white"/>
<path d="M1374.62 2437.92C1370.29 2438.39 1365.17 2435.29 1362.79 2430.73C1361.82 2428.88 1360.95 2426.96 1361.18 2424.8C1361.68 2420.14 1365.75 2417.53 1370.27 2418.9C1375.52 2420.49 1380.11 2425.77 1380.55 2430.72C1380.66 2431.58 1380.6 2432.46 1380.36 2433.31C1380.12 2434.15 1379.71 2434.93 1379.15 2435.61C1378.6 2436.28 1377.91 2436.84 1377.13 2437.23C1376.35 2437.63 1375.5 2437.86 1374.62 2437.92Z" fill="white"/>
<path d="M1397.9 2417.65C1398.13 2419.99 1397.82 2422.36 1396.99 2424.56C1395.58 2428.2 1392.08 2429.7 1388.44 2428.17C1381.38 2425.21 1379.74 2414.46 1383.57 2409.68C1386 2406.62 1388.85 2406.33 1392.38 2408.4C1395.9 2410.47 1397.28 2414.02 1397.9 2417.65Z" fill="white"/>
<path d="M1362.84 2440.4C1368.91 2439.76 1375.44 2445.73 1374.76 2451.31C1374.56 2452.77 1373.86 2454.11 1372.78 2455.11C1371.7 2456.11 1370.3 2456.7 1368.83 2456.77C1361.73 2457.01 1357.19 2451.64 1356.9 2447.12C1356.65 2443.2 1358.58 2440.85 1362.84 2440.4Z" fill="white"/>
<path d="M1402.27 2425.37C1401.69 2421.39 1402.81 2418.27 1405.82 2415.92C1406.76 2415.21 1407.89 2414.8 1409.07 2414.75C1410.25 2414.71 1411.41 2415.02 1412.4 2415.66C1417.44 2418.64 1418.46 2428.22 1414.11 2432.17C1410.7 2435.26 1406.02 2434.28 1403.61 2429.98C1402.8 2428.57 1402.34 2426.99 1402.27 2425.37Z" fill="white"/>
</g>
<g clip-path="url(#clip14_74_1434)">
<path d="M1363.89 3275.8L1388.31 3292.1C1390.59 3293.63 1393.2 3294.57 1395.93 3294.86C1398.66 3295.14 1401.41 3294.76 1403.96 3293.75L1431.23 3282.88C1444.25 3277.69 1457.56 3289.68 1453.74 3303.18L1445.78 3331.44C1445.04 3334.08 1444.95 3336.86 1445.51 3339.54C1446.08 3342.22 1447.29 3344.72 1449.04 3346.83L1467.82 3369.41C1476.78 3380.19 1469.49 3396.55 1455.49 3397.11L1426.15 3398.28C1423.41 3398.39 1420.74 3399.16 1418.37 3400.53C1416 3401.9 1413.99 3403.83 1412.53 3406.15L1396.84 3430.97C1389.36 3442.82 1371.54 3440.95 1366.69 3427.8L1356.52 3400.25C1355.57 3397.68 1354.01 3395.37 1351.97 3393.54C1349.94 3391.71 1347.48 3390.4 1344.83 3389.72L1316.37 3382.49C1302.76 3379.05 1299.06 3361.51 1310.04 3352.85L1333.09 3334.66C1335.24 3332.96 1336.95 3330.77 1338.07 3328.26C1339.18 3325.76 1339.67 3323.02 1339.5 3320.28L1337.58 3290.98C1336.72 3276.98 1352.23 3268.02 1363.89 3275.8Z" fill="#FFF0C8"/>
<path d="M1420.96 3358.94C1421.9 3363.1 1418.53 3367.99 1414.86 3369.93C1412.41 3371.14 1409.82 3372.03 1407.14 3372.59C1403.27 3373.55 1400.31 3375.77 1397.49 3378.4C1394.8 3380.92 1391.99 3383.24 1388.04 3383.67C1379.79 3384.57 1373.71 3377.23 1376.28 3369.4C1377.52 3365.63 1379.34 3362.04 1379.79 3358.03C1380.1 3355.36 1380.21 3352.64 1381.06 3350.02C1382.99 3344.08 1388.07 3341.43 1394.1 3343.32C1396.21 3344.04 1398.25 3344.94 1400.19 3346.02C1403.69 3347.84 1407.53 3348.41 1411.36 3349.04C1415.37 3349.71 1418.12 3351.97 1420.08 3355.4C1420.74 3356.49 1420.75 3357.68 1420.96 3358.94Z" fill="white"/>
<path d="M1374.62 3348.92C1370.29 3349.39 1365.17 3346.29 1362.79 3341.73C1361.82 3339.88 1360.95 3337.96 1361.18 3335.8C1361.68 3331.14 1365.75 3328.53 1370.27 3329.9C1375.52 3331.49 1380.11 3336.77 1380.55 3341.72C1380.66 3342.58 1380.6 3343.46 1380.36 3344.31C1380.12 3345.15 1379.71 3345.93 1379.15 3346.61C1378.6 3347.28 1377.91 3347.84 1377.13 3348.23C1376.35 3348.63 1375.5 3348.86 1374.62 3348.92Z" fill="white"/>
<path d="M1397.9 3328.65C1398.13 3330.99 1397.82 3333.36 1396.99 3335.56C1395.58 3339.2 1392.08 3340.7 1388.44 3339.17C1381.38 3336.21 1379.74 3325.46 1383.57 3320.68C1386 3317.62 1388.85 3317.33 1392.38 3319.4C1395.9 3321.47 1397.28 3325.02 1397.9 3328.65Z" fill="white"/>
<path d="M1362.84 3351.4C1368.91 3350.76 1375.44 3356.73 1374.76 3362.31C1374.56 3363.77 1373.86 3365.11 1372.78 3366.11C1371.7 3367.11 1370.3 3367.7 1368.83 3367.77C1361.73 3368.01 1357.19 3362.64 1356.9 3358.12C1356.65 3354.2 1358.58 3351.85 1362.84 3351.4Z" fill="white"/>
<path d="M1402.27 3336.37C1401.69 3332.39 1402.81 3329.27 1405.82 3326.92C1406.76 3326.21 1407.89 3325.8 1409.07 3325.75C1410.25 3325.71 1411.41 3326.02 1412.4 3326.66C1417.44 3329.64 1418.46 3339.22 1414.11 3343.17C1410.7 3346.26 1406.02 3345.28 1403.61 3340.98C1402.8 3339.57 1402.34 3337.99 1402.27 3336.37Z" fill="white"/>
</g>
<g clip-path="url(#clip15_74_1434)">
<path d="M75.4121 2799.8L50.9949 2816.1C48.7146 2817.63 46.0983 2818.57 43.3715 2818.86C40.6448 2819.14 37.8893 2818.76 35.3426 2817.75L8.06846 2806.88C-4.94889 2801.69 -18.2602 2813.68 -14.4376 2827.18L-6.47533 2855.44C-5.73447 2858.08 -5.64474 2860.86 -6.21386 2863.54C-6.783 2866.22 -7.99399 2868.72 -9.74291 2870.83L-28.5164 2893.41C-37.4761 2904.19 -30.1873 2920.55 -16.1866 2921.11L13.1505 2922.28C15.8886 2922.39 18.5592 2923.16 20.9324 2924.53C23.3056 2925.9 25.3102 2927.83 26.7737 2930.15L42.457 2954.97C49.9397 2966.82 67.7563 2964.95 72.6086 2951.8L82.7812 2924.25C83.7305 2921.68 85.2911 2919.37 87.3284 2917.54C89.3658 2915.71 91.8186 2914.4 94.4754 2913.72L122.933 2906.49C136.536 2903.05 140.238 2885.51 129.258 2876.85L106.209 2858.66C104.056 2856.96 102.348 2854.77 101.233 2852.26C100.117 2849.76 99.6274 2847.02 99.8055 2844.28L101.719 2814.98C102.579 2800.98 87.0699 2792.02 75.4121 2799.8Z" fill="#FFF0C8"/>
<path d="M18.3381 2882.94C17.3998 2887.1 20.7731 2891.99 24.4395 2893.93C26.8903 2895.14 29.4838 2896.03 32.1584 2896.59C36.035 2897.55 38.9924 2899.77 41.8063 2902.4C44.5012 2904.92 47.3112 2907.24 51.2579 2907.67C59.5105 2908.57 65.5883 2901.23 63.016 2893.4C61.7804 2889.63 59.9647 2886.04 59.5101 2882.03C59.2002 2879.36 59.0867 2876.64 58.239 2874.02C56.3099 2868.08 51.2276 2865.43 45.1963 2867.32C43.0908 2868.04 41.0539 2868.94 39.1107 2870.02C35.6111 2871.84 31.7677 2872.41 27.9437 2873.04C23.9341 2873.71 21.1778 2875.97 19.2203 2879.4C18.5656 2880.49 18.5461 2881.68 18.3381 2882.94Z" fill="white"/>
<path d="M64.6769 2872.92C69.0113 2873.39 74.1263 2870.29 76.5086 2865.73C77.4796 2863.88 78.3545 2861.96 78.1234 2859.8C77.6246 2855.14 73.5538 2852.53 69.0285 2853.9C63.7785 2855.49 59.186 2860.77 58.7539 2865.72C58.6384 2866.58 58.7026 2867.46 58.9426 2868.31C59.1826 2869.15 59.5932 2869.93 60.1488 2870.61C60.7044 2871.28 61.3932 2871.84 62.1722 2872.23C62.9512 2872.63 63.8038 2872.86 64.6769 2872.92Z" fill="white"/>
<path d="M41.4018 2852.65C41.1663 2854.99 41.4761 2857.36 42.3069 2859.56C43.724 2863.2 47.2177 2864.7 50.8603 2863.17C57.925 2860.21 59.5648 2849.46 55.7274 2844.68C53.3032 2841.62 50.4522 2841.33 46.9248 2843.4C43.3974 2845.47 42.0223 2849.02 41.4018 2852.65Z" fill="white"/>
<path d="M76.4623 2875.4C70.387 2874.76 63.8598 2880.73 64.5453 2886.31C64.7397 2887.77 65.4385 2889.11 66.5207 2890.11C67.6028 2891.11 69 2891.7 70.4699 2891.77C77.5675 2892.01 82.1106 2886.64 82.3982 2882.12C82.6465 2878.2 80.7236 2875.85 76.4623 2875.4Z" fill="white"/>
<path d="M37.03 2860.37C37.6102 2856.39 36.4866 2853.27 33.4826 2850.92C32.544 2850.21 31.4094 2849.8 30.2322 2849.75C29.0551 2849.71 27.8923 2850.02 26.9011 2850.66C21.8642 2853.64 20.8446 2863.22 25.1956 2867.17C28.6028 2870.26 33.285 2869.28 35.6876 2864.98C36.4967 2863.57 36.957 2861.99 37.03 2860.37Z" fill="white"/>
</g>
<g clip-path="url(#clip16_74_1434)">
<path d="M75.4121 3710.8L50.9949 3727.1C48.7146 3728.63 46.0983 3729.57 43.3715 3729.86C40.6448 3730.14 37.8893 3729.76 35.3426 3728.75L8.06846 3717.88C-4.94889 3712.69 -18.2602 3724.68 -14.4376 3738.18L-6.47533 3766.44C-5.73447 3769.08 -5.64474 3771.86 -6.21386 3774.54C-6.783 3777.22 -7.99399 3779.72 -9.74291 3781.83L-28.5164 3804.41C-37.4761 3815.19 -30.1873 3831.55 -16.1866 3832.11L13.1505 3833.28C15.8886 3833.39 18.5592 3834.16 20.9324 3835.53C23.3056 3836.9 25.3102 3838.83 26.7737 3841.15L42.457 3865.97C49.9397 3877.82 67.7563 3875.95 72.6086 3862.8L82.7812 3835.25C83.7305 3832.68 85.2911 3830.37 87.3284 3828.54C89.3658 3826.71 91.8186 3825.4 94.4754 3824.72L122.933 3817.49C136.536 3814.05 140.238 3796.51 129.258 3787.85L106.209 3769.66C104.056 3767.96 102.348 3765.77 101.233 3763.26C100.117 3760.76 99.6274 3758.02 99.8055 3755.28L101.719 3725.98C102.579 3711.98 87.0699 3703.02 75.4121 3710.8Z" fill="#FFF0C8"/>
<path d="M18.3381 3793.94C17.3998 3798.1 20.7731 3802.99 24.4395 3804.93C26.8903 3806.14 29.4838 3807.03 32.1584 3807.59C36.035 3808.55 38.9924 3810.77 41.8063 3813.4C44.5012 3815.92 47.3112 3818.24 51.2579 3818.67C59.5105 3819.57 65.5883 3812.23 63.016 3804.4C61.7804 3800.63 59.9647 3797.04 59.5101 3793.03C59.2002 3790.36 59.0867 3787.64 58.239 3785.02C56.3099 3779.08 51.2276 3776.43 45.1963 3778.32C43.0908 3779.04 41.0539 3779.94 39.1107 3781.02C35.6111 3782.84 31.7677 3783.41 27.9437 3784.04C23.9341 3784.71 21.1778 3786.97 19.2203 3790.4C18.5656 3791.49 18.5461 3792.68 18.3381 3793.94Z" fill="white"/>
<path d="M64.6769 3783.92C69.0113 3784.39 74.1263 3781.29 76.5086 3776.73C77.4796 3774.88 78.3545 3772.96 78.1234 3770.8C77.6246 3766.14 73.5538 3763.53 69.0285 3764.9C63.7785 3766.49 59.186 3771.77 58.7539 3776.72C58.6384 3777.58 58.7026 3778.46 58.9426 3779.31C59.1826 3780.15 59.5932 3780.93 60.1488 3781.61C60.7044 3782.28 61.3932 3782.84 62.1722 3783.23C62.9512 3783.63 63.8038 3783.86 64.6769 3783.92Z" fill="white"/>
<path d="M41.4018 3763.65C41.1663 3765.99 41.4761 3768.36 42.3069 3770.56C43.724 3774.2 47.2177 3775.7 50.8603 3774.17C57.925 3771.21 59.5648 3760.46 55.7274 3755.68C53.3032 3752.62 50.4522 3752.33 46.9248 3754.4C43.3974 3756.47 42.0223 3760.02 41.4018 3763.65Z" fill="white"/>
<path d="M76.4623 3786.4C70.387 3785.76 63.8598 3791.73 64.5453 3797.31C64.7397 3798.77 65.4385 3800.11 66.5207 3801.11C67.6028 3802.11 69 3802.7 70.4699 3802.77C77.5675 3803.01 82.1106 3797.64 82.3982 3793.12C82.6465 3789.2 80.7236 3786.85 76.4623 3786.4Z" fill="white"/>
<path d="M37.03 3771.37C37.6102 3767.39 36.4866 3764.27 33.4826 3761.92C32.544 3761.21 31.4094 3760.8 30.2322 3760.75C29.0551 3760.71 27.8923 3761.02 26.9011 3761.66C21.8642 3764.64 20.8446 3774.22 25.1956 3778.17C28.6028 3781.26 33.285 3780.28 35.6876 3775.98C36.4967 3774.57 36.957 3772.99 37.03 3771.37Z" fill="white"/>
</g>
<g clip-path="url(#clip17_74_1434)">
<path d="M75.4121 1932.8L50.9949 1949.1C48.7146 1950.63 46.0983 1951.57 43.3715 1951.86C40.6448 1952.14 37.8893 1951.76 35.3426 1950.75L8.06846 1939.88C-4.94889 1934.69 -18.2602 1946.68 -14.4376 1960.18L-6.47533 1988.44C-5.73447 1991.08 -5.64474 1993.86 -6.21386 1996.54C-6.783 1999.22 -7.99399 2001.72 -9.74291 2003.83L-28.5164 2026.41C-37.4761 2037.19 -30.1873 2053.55 -16.1866 2054.11L13.1505 2055.28C15.8886 2055.39 18.5592 2056.16 20.9324 2057.53C23.3056 2058.9 25.3102 2060.83 26.7737 2063.15L42.457 2087.97C49.9397 2099.82 67.7563 2097.95 72.6086 2084.8L82.7812 2057.25C83.7305 2054.68 85.2911 2052.37 87.3284 2050.54C89.3658 2048.71 91.8186 2047.4 94.4754 2046.72L122.933 2039.49C136.536 2036.05 140.238 2018.51 129.258 2009.85L106.209 1991.66C104.056 1989.96 102.348 1987.77 101.233 1985.26C100.117 1982.76 99.6274 1980.02 99.8055 1977.28L101.719 1947.98C102.579 1933.98 87.0699 1925.02 75.4121 1932.8Z" fill="#FFF0C8"/>
<path d="M18.3381 2015.94C17.3998 2020.1 20.7731 2024.99 24.4395 2026.93C26.8903 2028.14 29.4838 2029.03 32.1584 2029.59C36.035 2030.55 38.9924 2032.77 41.8063 2035.4C44.5012 2037.92 47.3112 2040.24 51.2579 2040.67C59.5105 2041.57 65.5883 2034.23 63.016 2026.4C61.7804 2022.63 59.9647 2019.04 59.5101 2015.03C59.2002 2012.36 59.0867 2009.64 58.239 2007.02C56.3099 2001.08 51.2276 1998.43 45.1963 2000.32C43.0908 2001.04 41.0539 2001.94 39.1107 2003.02C35.6111 2004.84 31.7677 2005.41 27.9437 2006.04C23.9341 2006.71 21.1778 2008.97 19.2203 2012.4C18.5656 2013.49 18.5461 2014.68 18.3381 2015.94Z" fill="white"/>
<path d="M64.6769 2005.92C69.0113 2006.39 74.1263 2003.29 76.5086 1998.73C77.4796 1996.88 78.3545 1994.96 78.1234 1992.8C77.6246 1988.14 73.5538 1985.53 69.0285 1986.9C63.7785 1988.49 59.186 1993.77 58.7539 1998.72C58.6384 1999.58 58.7026 2000.46 58.9426 2001.31C59.1826 2002.15 59.5932 2002.93 60.1488 2003.61C60.7044 2004.28 61.3932 2004.84 62.1722 2005.23C62.9512 2005.63 63.8038 2005.86 64.6769 2005.92Z" fill="white"/>
<path d="M41.4018 1985.65C41.1663 1987.99 41.4761 1990.36 42.3069 1992.56C43.724 1996.2 47.2177 1997.7 50.8603 1996.17C57.925 1993.21 59.5648 1982.46 55.7274 1977.68C53.3032 1974.62 50.4522 1974.33 46.9248 1976.4C43.3974 1978.47 42.0223 1982.02 41.4018 1985.65Z" fill="white"/>
<path d="M76.4623 2008.4C70.387 2007.76 63.8598 2013.73 64.5453 2019.31C64.7397 2020.77 65.4385 2022.11 66.5207 2023.11C67.6028 2024.11 69 2024.7 70.4699 2024.77C77.5675 2025.01 82.1106 2019.64 82.3982 2015.12C82.6465 2011.2 80.7236 2008.85 76.4623 2008.4Z" fill="white"/>
<path d="M37.03 1993.37C37.6102 1989.39 36.4866 1986.27 33.4826 1983.92C32.544 1983.21 31.4094 1982.8 30.2322 1982.75C29.0551 1982.71 27.8923 1983.02 26.9011 1983.66C21.8642 1986.64 20.8446 1996.22 25.1956 2000.17C28.6028 2003.26 33.285 2002.28 35.6876 1997.98C36.4967 1996.57 36.957 1994.99 37.03 1993.37Z" fill="white"/>
</g>
<defs>
<clipPath id="clip0_74_1434">
<rect width="357.459" height="343.465" fill="white" transform="translate(1100 178.73) rotate(-30)"/>
</clipPath>
<clipPath id="clip1_74_1434">
<rect width="357.459" height="343.465" fill="white" transform="matrix(-0.866025 -0.5 -0.5 0.866025 339.301 612.73)"/>
</clipPath>
<clipPath id="clip2_74_1434">
<rect width="357.459" height="343.465" fill="white" transform="translate(1100 1049.73) rotate(-30)"/>
</clipPath>
<clipPath id="clip3_74_1434">
<rect width="357.459" height="343.465" fill="white" transform="matrix(-0.866025 -0.5 -0.5 0.866025 339.301 1487.73)"/>
</clipPath>
<clipPath id="clip4_74_1434">
<rect width="357.459" height="343.465" fill="white" transform="matrix(-0.866025 -0.5 -0.5 0.866025 339.301 2352.73)"/>
</clipPath>
<clipPath id="clip5_74_1434">
<rect width="357.459" height="343.465" fill="white" transform="matrix(-0.866025 -0.5 -0.5 0.866025 339.301 3263.73)"/>
</clipPath>
<clipPath id="clip6_74_1434">
<rect width="357.459" height="343.465" fill="white" transform="translate(1098 1920.73) rotate(-30)"/>
</clipPath>
<clipPath id="clip7_74_1434">
<rect width="357.459" height="343.465" fill="white" transform="translate(1098 2787.73) rotate(-30)"/>
</clipPath>
<clipPath id="clip8_74_1434">
<rect width="357.459" height="343.465" fill="white" transform="translate(1098 3698.73) rotate(-30)"/>
</clipPath>
<clipPath id="clip9_74_1434">
<rect width="168.869" height="162.258" fill="white" transform="matrix(-0.866025 -0.5 -0.5 0.866025 166.373 232.435)"/>
</clipPath>
<clipPath id="clip10_74_1434">
<rect width="168.869" height="162.258" fill="white" transform="translate(1272.93 666.435) rotate(-30)"/>
</clipPath>
<clipPath id="clip11_74_1434">
<rect width="168.869" height="162.258" fill="white" transform="matrix(-0.866025 -0.5 -0.5 0.866025 166.373 1103.43)"/>
</clipPath>
<clipPath id="clip12_74_1434">
<rect width="168.869" height="162.258" fill="white" transform="translate(1272.93 1541.43) rotate(-30)"/>
</clipPath>
<clipPath id="clip13_74_1434">
<rect width="168.869" height="162.258" fill="white" transform="translate(1272.93 2406.43) rotate(-30)"/>
</clipPath>
<clipPath id="clip14_74_1434">
<rect width="168.869" height="162.258" fill="white" transform="translate(1272.93 3317.43) rotate(-30)"/>
</clipPath>
<clipPath id="clip15_74_1434">
<rect width="168.869" height="162.258" fill="white" transform="matrix(-0.866025 -0.5 -0.5 0.866025 166.373 2841.43)"/>
</clipPath>
<clipPath id="clip16_74_1434">
<rect width="168.869" height="162.258" fill="white" transform="matrix(-0.866025 -0.5 -0.5 0.866025 166.373 3752.43)"/>
</clipPath>
<clipPath id="clip17_74_1434">
<rect width="168.869" height="162.258" fill="white" transform="matrix(-0.866025 -0.5 -0.5 0.866025 166.373 1974.43)"/>
</clipPath>
</defs>
</svg>
