<svg width="1440" height="3997" viewBox="0 0 1440 3997" fill="none" xmlns="http://www.w3.org/2000/svg">
<g clip-path="url(#clip0_40_2586)">
<path d="M1288.55 90.5911L1340.23 125.108C1345.06 128.33 1350.6 130.331 1356.37 130.936C1362.14 131.542 1367.97 130.735 1373.36 128.585L1431.1 105.581C1458.65 94.5903 1486.83 119.969 1478.74 148.546L1461.88 208.372C1460.32 213.957 1460.13 219.838 1461.33 225.512C1462.53 231.187 1465.1 236.484 1468.8 240.949L1508.54 288.757C1527.51 311.567 1512.08 346.207 1482.44 347.387L1420.34 349.867C1414.54 350.098 1408.89 351.734 1403.87 354.634C1398.84 357.534 1394.6 361.612 1391.5 366.516L1358.3 419.056C1342.47 444.133 1304.75 440.174 1294.48 412.344L1272.95 354.025C1270.94 348.582 1267.63 343.71 1263.32 339.829C1259.01 335.947 1253.82 333.174 1248.19 331.747L1187.95 316.43C1159.16 309.149 1151.32 272.027 1174.57 253.689L1223.35 215.193C1227.91 211.599 1231.53 206.952 1233.89 201.65C1236.25 196.348 1237.29 190.552 1236.91 184.761L1232.86 122.741C1231.04 93.0887 1263.87 74.1349 1288.55 90.5911Z" fill="#C8F2FF"/>
<path d="M1409.36 266.591C1411.34 275.386 1404.2 285.744 1396.44 289.856C1391.25 292.411 1385.76 294.3 1380.1 295.478C1371.9 297.511 1365.64 302.214 1359.68 307.779C1353.98 313.11 1348.03 318.019 1339.67 318.943C1322.2 320.844 1309.34 305.314 1314.78 288.733C1317.4 280.759 1321.24 273.148 1322.21 264.653C1322.86 259.005 1323.1 253.245 1324.9 247.713C1328.98 235.132 1339.74 229.518 1352.5 233.529C1356.96 235.038 1361.27 236.946 1365.39 239.23C1372.79 243.086 1380.93 244.308 1389.02 245.642C1397.51 247.048 1403.35 251.829 1407.49 259.098C1408.88 261.407 1408.92 263.912 1409.36 266.591Z" fill="white"/>
<path d="M1311.27 245.375C1302.09 246.369 1291.27 239.815 1286.22 230.168C1284.17 226.243 1282.32 222.183 1282.81 217.615C1283.86 207.731 1292.48 202.212 1302.06 205.112C1313.17 208.48 1322.89 219.659 1323.81 230.127C1324.05 231.962 1323.92 233.829 1323.41 235.609C1322.9 237.39 1322.03 239.047 1320.85 240.478C1319.68 241.908 1318.22 243.081 1316.57 243.924C1314.92 244.766 1313.12 245.26 1311.27 245.375Z" fill="white"/>
<path d="M1360.54 202.474C1361.03 207.434 1360.38 212.442 1358.62 217.106C1355.62 224.81 1348.23 227.973 1340.51 224.749C1325.56 218.47 1322.09 195.725 1330.21 185.608C1335.34 179.132 1341.38 178.511 1348.85 182.894C1356.31 187.278 1359.22 194.784 1360.54 202.474Z" fill="white"/>
<path d="M1286.32 250.628C1299.18 249.263 1313 261.907 1311.55 273.723C1311.13 276.811 1309.66 279.658 1307.36 281.77C1305.07 283.882 1302.12 285.125 1299.01 285.285C1283.98 285.791 1274.36 274.428 1273.76 264.855C1273.23 256.552 1277.3 251.585 1286.32 250.628Z" fill="white"/>
<path d="M1369.79 218.807C1368.56 210.382 1370.94 203.792 1377.3 198.804C1379.29 197.297 1381.69 196.436 1384.18 196.339C1386.67 196.242 1389.13 196.913 1391.23 198.261C1401.89 204.558 1404.05 224.847 1394.84 233.203C1387.63 239.756 1377.72 237.679 1372.63 228.566C1370.92 225.587 1369.95 222.24 1369.79 218.807Z" fill="white"/>
</g>
<g clip-path="url(#clip1_40_2586)">
<path d="M142.756 524.591L91.0699 559.108C86.243 562.33 80.7049 564.331 74.9329 564.936C69.1609 565.542 63.3282 564.735 57.9374 562.585L0.203889 539.581C-27.351 528.59 -55.5282 553.969 -47.4366 582.546L-30.5821 642.372C-29.0139 647.957 -28.824 653.838 -30.0287 659.512C-31.2334 665.186 -33.7968 670.484 -37.4989 674.949L-77.2383 722.757C-96.204 745.567 -80.7752 780.207 -51.1389 781.387L10.9615 783.867C16.7575 784.098 22.4106 785.734 27.4341 788.634C32.4576 791.534 36.7009 795.612 39.7987 800.516L72.9969 853.056C88.8363 878.133 126.55 874.174 136.821 846.344L158.355 788.025C160.364 782.582 163.667 777.71 167.98 773.829C172.293 769.947 177.485 767.174 183.109 765.747L243.347 750.43C272.141 743.149 279.978 706.027 256.735 687.689L207.946 649.193C203.389 645.599 199.774 640.952 197.412 635.65C195.051 630.348 194.014 624.552 194.391 618.761L198.441 556.741C200.262 527.089 167.433 508.135 142.756 524.591Z" fill="#C8F2FF"/>
<path d="M21.9436 700.591C19.9573 709.386 27.098 719.744 34.8589 723.856C40.0468 726.411 45.5366 728.3 51.198 729.478C59.4041 731.511 65.6643 736.214 71.6207 741.779C77.3252 747.11 83.2732 752.019 91.6276 752.943C109.097 754.844 121.962 739.314 116.517 722.733C113.901 714.759 110.058 707.148 109.096 698.653C108.44 693.005 108.199 687.245 106.405 681.713C102.322 669.132 91.5635 663.518 78.7966 667.529C74.3395 669.038 70.028 670.946 65.9146 673.23C58.5068 677.086 50.3712 678.308 42.2766 679.642C33.7891 681.048 27.9546 685.829 23.8109 693.098C22.4252 695.407 22.3839 697.912 21.9436 700.591Z" fill="white"/>
<path d="M120.032 679.375C129.207 680.369 140.034 673.815 145.077 664.168C147.133 660.243 148.985 656.183 148.496 651.615C147.44 641.731 138.823 636.212 129.244 639.112C118.131 642.48 108.409 653.659 107.495 664.127C107.25 665.962 107.386 667.829 107.894 669.609C108.402 671.39 109.271 673.047 110.447 674.478C111.623 675.908 113.081 677.081 114.73 677.924C116.379 678.766 118.184 679.26 120.032 679.375Z" fill="white"/>
<path d="M70.765 636.474C70.2665 641.434 70.9222 646.442 72.681 651.106C75.6806 658.81 83.076 661.973 90.7866 658.749C105.741 652.47 109.212 629.725 101.089 619.608C95.9577 613.132 89.9227 612.511 82.456 616.894C74.9893 621.278 72.0785 628.784 70.765 636.474Z" fill="white"/>
<path d="M144.981 684.628C132.121 683.263 118.304 695.907 119.755 707.723C120.167 710.811 121.646 713.658 123.937 715.77C126.227 717.882 129.185 719.125 132.296 719.285C147.32 719.791 156.937 708.428 157.546 698.855C158.071 690.552 154.001 685.585 144.981 684.628Z" fill="white"/>
<path d="M61.5107 652.807C62.7388 644.382 60.3606 637.792 54.0017 632.804C52.0149 631.297 49.6131 630.436 47.1214 630.339C44.6296 630.242 42.1682 630.913 40.0701 632.261C29.4081 638.558 27.2498 658.847 36.4598 667.203C43.6722 673.756 53.5833 671.679 58.6692 662.566C60.3819 659.587 61.3562 656.24 61.5107 652.807Z" fill="white"/>
</g>
<g clip-path="url(#clip2_40_2586)">
<path d="M1288.55 961.591L1340.23 996.108C1345.06 999.33 1350.6 1001.33 1356.37 1001.94C1362.14 1002.54 1367.97 1001.74 1373.36 999.585L1431.1 976.581C1458.65 965.59 1486.83 990.969 1478.74 1019.55L1461.88 1079.37C1460.32 1084.96 1460.13 1090.84 1461.33 1096.51C1462.53 1102.19 1465.1 1107.48 1468.8 1111.95L1508.54 1159.76C1527.51 1182.57 1512.08 1217.21 1482.44 1218.39L1420.34 1220.87C1414.54 1221.1 1408.89 1222.73 1403.87 1225.63C1398.84 1228.53 1394.6 1232.61 1391.5 1237.52L1358.3 1290.06C1342.47 1315.13 1304.75 1311.17 1294.48 1283.34L1272.95 1225.03C1270.94 1219.58 1267.63 1214.71 1263.32 1210.83C1259.01 1206.95 1253.82 1204.17 1248.19 1202.75L1187.95 1187.43C1159.16 1180.15 1151.32 1143.03 1174.57 1124.69L1223.35 1086.19C1227.91 1082.6 1231.53 1077.95 1233.89 1072.65C1236.25 1067.35 1237.29 1061.55 1236.91 1055.76L1232.86 993.741C1231.04 964.089 1263.87 945.135 1288.55 961.591Z" fill="#C8F2FF"/>
<path d="M1409.36 1137.59C1411.34 1146.39 1404.2 1156.74 1396.44 1160.86C1391.25 1163.41 1385.76 1165.3 1380.1 1166.48C1371.9 1168.51 1365.64 1173.21 1359.68 1178.78C1353.98 1184.11 1348.03 1189.02 1339.67 1189.94C1322.2 1191.84 1309.34 1176.31 1314.78 1159.73C1317.4 1151.76 1321.24 1144.15 1322.21 1135.65C1322.86 1130 1323.1 1124.25 1324.9 1118.71C1328.98 1106.13 1339.74 1100.52 1352.5 1104.53C1356.96 1106.04 1361.27 1107.95 1365.39 1110.23C1372.79 1114.09 1380.93 1115.31 1389.02 1116.64C1397.51 1118.05 1403.35 1122.83 1407.49 1130.1C1408.88 1132.41 1408.92 1134.91 1409.36 1137.59Z" fill="white"/>
<path d="M1311.27 1116.38C1302.09 1117.37 1291.27 1110.82 1286.22 1101.17C1284.17 1097.24 1282.32 1093.18 1282.81 1088.62C1283.86 1078.73 1292.48 1073.21 1302.06 1076.11C1313.17 1079.48 1322.89 1090.66 1323.81 1101.13C1324.05 1102.96 1323.92 1104.83 1323.41 1106.61C1322.9 1108.39 1322.03 1110.05 1320.85 1111.48C1319.68 1112.91 1318.22 1114.08 1316.57 1114.92C1314.92 1115.77 1313.12 1116.26 1311.27 1116.38Z" fill="white"/>
<path d="M1360.54 1073.47C1361.03 1078.43 1360.38 1083.44 1358.62 1088.11C1355.62 1095.81 1348.23 1098.97 1340.51 1095.75C1325.56 1089.47 1322.09 1066.72 1330.21 1056.61C1335.34 1050.13 1341.38 1049.51 1348.85 1053.89C1356.31 1058.28 1359.22 1065.78 1360.54 1073.47Z" fill="white"/>
<path d="M1286.32 1121.63C1299.18 1120.26 1313 1132.91 1311.55 1144.72C1311.13 1147.81 1309.66 1150.66 1307.36 1152.77C1305.07 1154.88 1302.12 1156.13 1299.01 1156.28C1283.98 1156.79 1274.36 1145.43 1273.76 1135.86C1273.23 1127.55 1277.3 1122.58 1286.32 1121.63Z" fill="white"/>
<path d="M1369.79 1089.81C1368.56 1081.38 1370.94 1074.79 1377.3 1069.8C1379.29 1068.3 1381.69 1067.44 1384.18 1067.34C1386.67 1067.24 1389.13 1067.91 1391.23 1069.26C1401.89 1075.56 1404.05 1095.85 1394.84 1104.2C1387.63 1110.76 1377.72 1108.68 1372.63 1099.57C1370.92 1096.59 1369.95 1093.24 1369.79 1089.81Z" fill="white"/>
</g>
<g clip-path="url(#clip3_40_2586)">
<path d="M142.756 1399.59L91.0699 1434.11C86.243 1437.33 80.7049 1439.33 74.9329 1439.94C69.1609 1440.54 63.3282 1439.74 57.9374 1437.59L0.203889 1414.58C-27.351 1403.59 -55.5282 1428.97 -47.4366 1457.55L-30.5821 1517.37C-29.0139 1522.96 -28.824 1528.84 -30.0287 1534.51C-31.2334 1540.19 -33.7968 1545.48 -37.4989 1549.95L-77.2383 1597.76C-96.204 1620.57 -80.7752 1655.21 -51.1389 1656.39L10.9615 1658.87C16.7575 1659.1 22.4106 1660.73 27.4341 1663.63C32.4576 1666.53 36.7009 1670.61 39.7987 1675.52L72.9969 1728.06C88.8363 1753.13 126.55 1749.17 136.821 1721.34L158.355 1663.03C160.364 1657.58 163.667 1652.71 167.98 1648.83C172.293 1644.95 177.485 1642.17 183.109 1640.75L243.347 1625.43C272.141 1618.15 279.978 1581.03 256.735 1562.69L207.946 1524.19C203.389 1520.6 199.774 1515.95 197.412 1510.65C195.051 1505.35 194.014 1499.55 194.391 1493.76L198.441 1431.74C200.262 1402.09 167.433 1383.13 142.756 1399.59Z" fill="#C8F2FF"/>
<path d="M21.9436 1575.59C19.9573 1584.39 27.098 1594.74 34.8589 1598.86C40.0468 1601.41 45.5366 1603.3 51.198 1604.48C59.4041 1606.51 65.6643 1611.21 71.6207 1616.78C77.3252 1622.11 83.2732 1627.02 91.6276 1627.94C109.097 1629.84 121.962 1614.31 116.517 1597.73C113.901 1589.76 110.058 1582.15 109.096 1573.65C108.44 1568 108.199 1562.25 106.405 1556.71C102.322 1544.13 91.5635 1538.52 78.7966 1542.53C74.3395 1544.04 70.028 1545.95 65.9146 1548.23C58.5068 1552.09 50.3712 1553.31 42.2766 1554.64C33.7891 1556.05 27.9546 1560.83 23.8109 1568.1C22.4252 1570.41 22.3839 1572.91 21.9436 1575.59Z" fill="white"/>
<path d="M120.032 1554.38C129.207 1555.37 140.034 1548.82 145.077 1539.17C147.133 1535.24 148.985 1531.18 148.496 1526.62C147.44 1516.73 138.823 1511.21 129.244 1514.11C118.131 1517.48 108.409 1528.66 107.495 1539.13C107.25 1540.96 107.386 1542.83 107.894 1544.61C108.402 1546.39 109.271 1548.05 110.447 1549.48C111.623 1550.91 113.081 1552.08 114.73 1552.92C116.379 1553.77 118.184 1554.26 120.032 1554.38Z" fill="white"/>
<path d="M70.765 1511.47C70.2665 1516.43 70.9222 1521.44 72.681 1526.11C75.6806 1533.81 83.076 1536.97 90.7866 1533.75C105.741 1527.47 109.212 1504.72 101.089 1494.61C95.9577 1488.13 89.9227 1487.51 82.456 1491.89C74.9893 1496.28 72.0785 1503.78 70.765 1511.47Z" fill="white"/>
<path d="M144.981 1559.63C132.121 1558.26 118.304 1570.91 119.755 1582.72C120.167 1585.81 121.646 1588.66 123.937 1590.77C126.227 1592.88 129.185 1594.13 132.296 1594.28C147.32 1594.79 156.937 1583.43 157.546 1573.86C158.071 1565.55 154.001 1560.58 144.981 1559.63Z" fill="white"/>
<path d="M61.5107 1527.81C62.7388 1519.38 60.3606 1512.79 54.0017 1507.8C52.0149 1506.3 49.6131 1505.44 47.1214 1505.34C44.6296 1505.24 42.1682 1505.91 40.0701 1507.26C29.4081 1513.56 27.2498 1533.85 36.4598 1542.2C43.6722 1548.76 53.5833 1546.68 58.6692 1537.57C60.3819 1534.59 61.3562 1531.24 61.5107 1527.81Z" fill="white"/>
</g>
<g clip-path="url(#clip4_40_2586)">
<path d="M142.756 2264.59L91.0699 2299.11C86.243 2302.33 80.7049 2304.33 74.9329 2304.94C69.1609 2305.54 63.3282 2304.73 57.9374 2302.58L0.203889 2279.58C-27.351 2268.59 -55.5282 2293.97 -47.4366 2322.55L-30.5821 2382.37C-29.0139 2387.96 -28.824 2393.84 -30.0287 2399.51C-31.2334 2405.19 -33.7968 2410.48 -37.4989 2414.95L-77.2383 2462.76C-96.204 2485.57 -80.7752 2520.21 -51.1389 2521.39L10.9615 2523.87C16.7575 2524.1 22.4106 2525.73 27.4341 2528.63C32.4576 2531.53 36.7009 2535.61 39.7987 2540.52L72.9969 2593.06C88.8363 2618.13 126.55 2614.17 136.821 2586.34L158.355 2528.02C160.364 2522.58 163.667 2517.71 167.98 2513.83C172.293 2509.95 177.485 2507.17 183.109 2505.75L243.347 2490.43C272.141 2483.15 279.978 2446.03 256.735 2427.69L207.946 2389.19C203.389 2385.6 199.774 2380.95 197.412 2375.65C195.051 2370.35 194.014 2364.55 194.391 2358.76L198.441 2296.74C200.262 2267.09 167.433 2248.13 142.756 2264.59Z" fill="#C8F2FF"/>
<path d="M21.9436 2440.59C19.9573 2449.39 27.098 2459.74 34.8589 2463.86C40.0468 2466.41 45.5366 2468.3 51.198 2469.48C59.4041 2471.51 65.6643 2476.21 71.6207 2481.78C77.3252 2487.11 83.2732 2492.02 91.6276 2492.94C109.097 2494.84 121.962 2479.31 116.517 2462.73C113.901 2454.76 110.058 2447.15 109.096 2438.65C108.44 2433 108.199 2427.24 106.405 2421.71C102.322 2409.13 91.5635 2403.52 78.7966 2407.53C74.3395 2409.04 70.028 2410.95 65.9146 2413.23C58.5068 2417.09 50.3712 2418.31 42.2766 2419.64C33.7891 2421.05 27.9546 2425.83 23.8109 2433.1C22.4252 2435.41 22.3839 2437.91 21.9436 2440.59Z" fill="white"/>
<path d="M120.032 2419.37C129.207 2420.37 140.034 2413.81 145.077 2404.17C147.133 2400.24 148.985 2396.18 148.496 2391.61C147.44 2381.73 138.823 2376.21 129.244 2379.11C118.131 2382.48 108.409 2393.66 107.495 2404.13C107.25 2405.96 107.386 2407.83 107.894 2409.61C108.402 2411.39 109.271 2413.05 110.447 2414.48C111.623 2415.91 113.081 2417.08 114.73 2417.92C116.379 2418.77 118.184 2419.26 120.032 2419.37Z" fill="white"/>
<path d="M70.765 2376.47C70.2665 2381.43 70.9222 2386.44 72.681 2391.11C75.6806 2398.81 83.076 2401.97 90.7866 2398.75C105.741 2392.47 109.212 2369.72 101.089 2359.61C95.9577 2353.13 89.9227 2352.51 82.456 2356.89C74.9893 2361.28 72.0785 2368.78 70.765 2376.47Z" fill="white"/>
<path d="M144.981 2424.63C132.121 2423.26 118.304 2435.91 119.755 2447.72C120.167 2450.81 121.646 2453.66 123.937 2455.77C126.227 2457.88 129.185 2459.12 132.296 2459.28C147.32 2459.79 156.937 2448.43 157.546 2438.86C158.071 2430.55 154.001 2425.58 144.981 2424.63Z" fill="white"/>
<path d="M61.5107 2392.81C62.7388 2384.38 60.3606 2377.79 54.0017 2372.8C52.0149 2371.3 49.6131 2370.44 47.1214 2370.34C44.6296 2370.24 42.1682 2370.91 40.0701 2372.26C29.4081 2378.56 27.2498 2398.85 36.4598 2407.2C43.6722 2413.76 53.5833 2411.68 58.6692 2402.57C60.3819 2399.59 61.3562 2396.24 61.5107 2392.81Z" fill="white"/>
</g>
<g clip-path="url(#clip5_40_2586)">
<path d="M142.756 3175.59L91.0699 3210.11C86.243 3213.33 80.7049 3215.33 74.9329 3215.94C69.1609 3216.54 63.3282 3215.73 57.9374 3213.58L0.203889 3190.58C-27.351 3179.59 -55.5282 3204.97 -47.4366 3233.55L-30.5821 3293.37C-29.0139 3298.96 -28.824 3304.84 -30.0287 3310.51C-31.2334 3316.19 -33.7968 3321.48 -37.4989 3325.95L-77.2383 3373.76C-96.204 3396.57 -80.7752 3431.21 -51.1389 3432.39L10.9615 3434.87C16.7575 3435.1 22.4106 3436.73 27.4341 3439.63C32.4576 3442.53 36.7009 3446.61 39.7987 3451.52L72.9969 3504.06C88.8363 3529.13 126.55 3525.17 136.821 3497.34L158.355 3439.02C160.364 3433.58 163.667 3428.71 167.98 3424.83C172.293 3420.95 177.485 3418.17 183.109 3416.75L243.347 3401.43C272.141 3394.15 279.978 3357.03 256.735 3338.69L207.946 3300.19C203.389 3296.6 199.774 3291.95 197.412 3286.65C195.051 3281.35 194.014 3275.55 194.391 3269.76L198.441 3207.74C200.262 3178.09 167.433 3159.13 142.756 3175.59Z" fill="#C8F2FF"/>
<path d="M21.9436 3351.59C19.9573 3360.39 27.098 3370.74 34.8589 3374.86C40.0468 3377.41 45.5366 3379.3 51.198 3380.48C59.4041 3382.51 65.6643 3387.21 71.6207 3392.78C77.3252 3398.11 83.2732 3403.02 91.6276 3403.94C109.097 3405.84 121.962 3390.31 116.517 3373.73C113.901 3365.76 110.058 3358.15 109.096 3349.65C108.44 3344 108.199 3338.24 106.405 3332.71C102.322 3320.13 91.5635 3314.52 78.7966 3318.53C74.3395 3320.04 70.028 3321.95 65.9146 3324.23C58.5068 3328.09 50.3712 3329.31 42.2766 3330.64C33.7891 3332.05 27.9546 3336.83 23.8109 3344.1C22.4252 3346.41 22.3839 3348.91 21.9436 3351.59Z" fill="white"/>
<path d="M120.032 3330.37C129.207 3331.37 140.034 3324.81 145.077 3315.17C147.133 3311.24 148.985 3307.18 148.496 3302.61C147.44 3292.73 138.823 3287.21 129.244 3290.11C118.131 3293.48 108.409 3304.66 107.495 3315.13C107.25 3316.96 107.386 3318.83 107.894 3320.61C108.402 3322.39 109.271 3324.05 110.447 3325.48C111.623 3326.91 113.081 3328.08 114.73 3328.92C116.379 3329.77 118.184 3330.26 120.032 3330.37Z" fill="white"/>
<path d="M70.765 3287.47C70.2665 3292.43 70.9222 3297.44 72.681 3302.11C75.6806 3309.81 83.076 3312.97 90.7866 3309.75C105.741 3303.47 109.212 3280.72 101.089 3270.61C95.9577 3264.13 89.9227 3263.51 82.456 3267.89C74.9893 3272.28 72.0785 3279.78 70.765 3287.47Z" fill="white"/>
<path d="M144.981 3335.63C132.121 3334.26 118.304 3346.91 119.755 3358.72C120.167 3361.81 121.646 3364.66 123.937 3366.77C126.227 3368.88 129.185 3370.12 132.296 3370.28C147.32 3370.79 156.937 3359.43 157.546 3349.86C158.071 3341.55 154.001 3336.58 144.981 3335.63Z" fill="white"/>
<path d="M61.5107 3303.81C62.7388 3295.38 60.3606 3288.79 54.0017 3283.8C52.0149 3282.3 49.6131 3281.44 47.1214 3281.34C44.6296 3281.24 42.1682 3281.91 40.0701 3283.26C29.4081 3289.56 27.2498 3309.85 36.4598 3318.2C43.6722 3324.76 53.5833 3322.68 58.6692 3313.57C60.3819 3310.59 61.3562 3307.24 61.5107 3303.81Z" fill="white"/>
</g>
<g clip-path="url(#clip6_40_2586)">
<path d="M1286.55 1832.59L1338.23 1867.11C1343.06 1870.33 1348.6 1872.33 1354.37 1872.94C1360.14 1873.54 1365.97 1872.74 1371.36 1870.59L1429.1 1847.58C1456.65 1836.59 1484.83 1861.97 1476.74 1890.55L1459.88 1950.37C1458.32 1955.96 1458.13 1961.84 1459.33 1967.51C1460.53 1973.19 1463.1 1978.48 1466.8 1982.95L1506.54 2030.76C1525.51 2053.57 1510.08 2088.21 1480.44 2089.39L1418.34 2091.87C1412.54 2092.1 1406.89 2093.73 1401.87 2096.63C1396.84 2099.53 1392.6 2103.61 1389.5 2108.52L1356.3 2161.06C1340.47 2186.13 1302.75 2182.17 1292.48 2154.34L1270.95 2096.03C1268.94 2090.58 1265.63 2085.71 1261.32 2081.83C1257.01 2077.95 1251.82 2075.17 1246.19 2073.75L1185.95 2058.43C1157.16 2051.15 1149.32 2014.03 1172.57 1995.69L1221.35 1957.19C1225.91 1953.6 1229.53 1948.95 1231.89 1943.65C1234.25 1938.35 1235.29 1932.55 1234.91 1926.76L1230.86 1864.74C1229.04 1835.09 1261.87 1816.13 1286.55 1832.59Z" fill="#C8F2FF"/>
<path d="M1407.36 2008.59C1409.34 2017.39 1402.2 2027.74 1394.44 2031.86C1389.25 2034.41 1383.76 2036.3 1378.1 2037.48C1369.9 2039.51 1363.64 2044.21 1357.68 2049.78C1351.98 2055.11 1346.03 2060.02 1337.67 2060.94C1320.2 2062.84 1307.34 2047.31 1312.78 2030.73C1315.4 2022.76 1319.24 2015.15 1320.21 2006.65C1320.86 2001 1321.1 1995.25 1322.9 1989.71C1326.98 1977.13 1337.74 1971.52 1350.5 1975.53C1354.96 1977.04 1359.27 1978.95 1363.39 1981.23C1370.79 1985.09 1378.93 1986.31 1387.02 1987.64C1395.51 1989.05 1401.35 1993.83 1405.49 2001.1C1406.88 2003.41 1406.92 2005.91 1407.36 2008.59Z" fill="white"/>
<path d="M1309.27 1987.38C1300.09 1988.37 1289.27 1981.82 1284.22 1972.17C1282.17 1968.24 1280.32 1964.18 1280.81 1959.62C1281.86 1949.73 1290.48 1944.21 1300.06 1947.11C1311.17 1950.48 1320.89 1961.66 1321.81 1972.13C1322.05 1973.96 1321.92 1975.83 1321.41 1977.61C1320.9 1979.39 1320.03 1981.05 1318.85 1982.48C1317.68 1983.91 1316.22 1985.08 1314.57 1985.92C1312.92 1986.77 1311.12 1987.26 1309.27 1987.38Z" fill="white"/>
<path d="M1358.54 1944.47C1359.03 1949.43 1358.38 1954.44 1356.62 1959.11C1353.62 1966.81 1346.23 1969.97 1338.51 1966.75C1323.56 1960.47 1320.09 1937.72 1328.21 1927.61C1333.34 1921.13 1339.38 1920.51 1346.85 1924.89C1354.31 1929.28 1357.22 1936.78 1358.54 1944.47Z" fill="white"/>
<path d="M1284.32 1992.63C1297.18 1991.26 1311 2003.91 1309.55 2015.72C1309.13 2018.81 1307.66 2021.66 1305.36 2023.77C1303.07 2025.88 1300.12 2027.13 1297.01 2027.28C1281.98 2027.79 1272.36 2016.43 1271.76 2006.86C1271.23 1998.55 1275.3 1993.58 1284.32 1992.63Z" fill="white"/>
<path d="M1367.79 1960.81C1366.56 1952.38 1368.94 1945.79 1375.3 1940.8C1377.29 1939.3 1379.69 1938.44 1382.18 1938.34C1384.67 1938.24 1387.13 1938.91 1389.23 1940.26C1399.89 1946.56 1402.05 1966.85 1392.84 1975.2C1385.63 1981.76 1375.72 1979.68 1370.63 1970.57C1368.92 1967.59 1367.95 1964.24 1367.79 1960.81Z" fill="white"/>
</g>
<g clip-path="url(#clip7_40_2586)">
<path d="M1286.55 2699.59L1338.23 2734.11C1343.06 2737.33 1348.6 2739.33 1354.37 2739.94C1360.14 2740.54 1365.97 2739.73 1371.36 2737.58L1429.1 2714.58C1456.65 2703.59 1484.83 2728.97 1476.74 2757.55L1459.88 2817.37C1458.32 2822.96 1458.13 2828.84 1459.33 2834.51C1460.53 2840.19 1463.1 2845.48 1466.8 2849.95L1506.54 2897.76C1525.51 2920.57 1510.08 2955.21 1480.44 2956.39L1418.34 2958.87C1412.54 2959.1 1406.89 2960.73 1401.87 2963.63C1396.84 2966.53 1392.6 2970.61 1389.5 2975.52L1356.3 3028.06C1340.47 3053.13 1302.75 3049.17 1292.48 3021.34L1270.95 2963.02C1268.94 2957.58 1265.63 2952.71 1261.32 2948.83C1257.01 2944.95 1251.82 2942.17 1246.19 2940.75L1185.95 2925.43C1157.16 2918.15 1149.32 2881.03 1172.57 2862.69L1221.35 2824.19C1225.91 2820.6 1229.53 2815.95 1231.89 2810.65C1234.25 2805.35 1235.29 2799.55 1234.91 2793.76L1230.86 2731.74C1229.04 2702.09 1261.87 2683.13 1286.55 2699.59Z" fill="#C8F2FF"/>
<path d="M1407.36 2875.59C1409.34 2884.39 1402.2 2894.74 1394.44 2898.86C1389.25 2901.41 1383.76 2903.3 1378.1 2904.48C1369.9 2906.51 1363.64 2911.21 1357.68 2916.78C1351.98 2922.11 1346.03 2927.02 1337.67 2927.94C1320.2 2929.84 1307.34 2914.31 1312.78 2897.73C1315.4 2889.76 1319.24 2882.15 1320.21 2873.65C1320.86 2868 1321.1 2862.24 1322.9 2856.71C1326.98 2844.13 1337.74 2838.52 1350.5 2842.53C1354.96 2844.04 1359.27 2845.95 1363.39 2848.23C1370.79 2852.09 1378.93 2853.31 1387.02 2854.64C1395.51 2856.05 1401.35 2860.83 1405.49 2868.1C1406.88 2870.41 1406.92 2872.91 1407.36 2875.59Z" fill="white"/>
<path d="M1309.27 2854.37C1300.09 2855.37 1289.27 2848.81 1284.22 2839.17C1282.17 2835.24 1280.32 2831.18 1280.81 2826.61C1281.86 2816.73 1290.48 2811.21 1300.06 2814.11C1311.17 2817.48 1320.89 2828.66 1321.81 2839.13C1322.05 2840.96 1321.92 2842.83 1321.41 2844.61C1320.9 2846.39 1320.03 2848.05 1318.85 2849.48C1317.68 2850.91 1316.22 2852.08 1314.57 2852.92C1312.92 2853.77 1311.12 2854.26 1309.27 2854.37Z" fill="white"/>
<path d="M1358.54 2811.47C1359.03 2816.43 1358.38 2821.44 1356.62 2826.11C1353.62 2833.81 1346.23 2836.97 1338.51 2833.75C1323.56 2827.47 1320.09 2804.72 1328.21 2794.61C1333.34 2788.13 1339.38 2787.51 1346.85 2791.89C1354.31 2796.28 1357.22 2803.78 1358.54 2811.47Z" fill="white"/>
<path d="M1284.32 2859.63C1297.18 2858.26 1311 2870.91 1309.55 2882.72C1309.13 2885.81 1307.66 2888.66 1305.36 2890.77C1303.07 2892.88 1300.12 2894.12 1297.01 2894.28C1281.98 2894.79 1272.36 2883.43 1271.76 2873.86C1271.23 2865.55 1275.3 2860.58 1284.32 2859.63Z" fill="white"/>
<path d="M1367.79 2827.81C1366.56 2819.38 1368.94 2812.79 1375.3 2807.8C1377.29 2806.3 1379.69 2805.44 1382.18 2805.34C1384.67 2805.24 1387.13 2805.91 1389.23 2807.26C1399.89 2813.56 1402.05 2833.85 1392.84 2842.2C1385.63 2848.76 1375.72 2846.68 1370.63 2837.57C1368.92 2834.59 1367.95 2831.24 1367.79 2827.81Z" fill="white"/>
</g>
<g clip-path="url(#clip8_40_2586)">
<path d="M1286.55 3610.59L1338.23 3645.11C1343.06 3648.33 1348.6 3650.33 1354.37 3650.94C1360.14 3651.54 1365.97 3650.73 1371.36 3648.58L1429.1 3625.58C1456.65 3614.59 1484.83 3639.97 1476.74 3668.55L1459.88 3728.37C1458.32 3733.96 1458.13 3739.84 1459.33 3745.51C1460.53 3751.19 1463.1 3756.48 1466.8 3760.95L1506.54 3808.76C1525.51 3831.57 1510.08 3866.21 1480.44 3867.39L1418.34 3869.87C1412.54 3870.1 1406.89 3871.73 1401.87 3874.63C1396.84 3877.53 1392.6 3881.61 1389.5 3886.52L1356.3 3939.06C1340.47 3964.13 1302.75 3960.17 1292.48 3932.34L1270.95 3874.02C1268.94 3868.58 1265.63 3863.71 1261.32 3859.83C1257.01 3855.95 1251.82 3853.17 1246.19 3851.75L1185.95 3836.43C1157.16 3829.15 1149.32 3792.03 1172.57 3773.69L1221.35 3735.19C1225.91 3731.6 1229.53 3726.95 1231.89 3721.65C1234.25 3716.35 1235.29 3710.55 1234.91 3704.76L1230.86 3642.74C1229.04 3613.09 1261.87 3594.13 1286.55 3610.59Z" fill="#C8F2FF"/>
<path d="M1407.36 3786.59C1409.34 3795.39 1402.2 3805.74 1394.44 3809.86C1389.25 3812.41 1383.76 3814.3 1378.1 3815.48C1369.9 3817.51 1363.64 3822.21 1357.68 3827.78C1351.98 3833.11 1346.03 3838.02 1337.67 3838.94C1320.2 3840.84 1307.34 3825.31 1312.78 3808.73C1315.4 3800.76 1319.24 3793.15 1320.21 3784.65C1320.86 3779 1321.1 3773.24 1322.9 3767.71C1326.98 3755.13 1337.74 3749.52 1350.5 3753.53C1354.96 3755.04 1359.27 3756.95 1363.39 3759.23C1370.79 3763.09 1378.93 3764.31 1387.02 3765.64C1395.51 3767.05 1401.35 3771.83 1405.49 3779.1C1406.88 3781.41 1406.92 3783.91 1407.36 3786.59Z" fill="white"/>
<path d="M1309.27 3765.37C1300.09 3766.37 1289.27 3759.81 1284.22 3750.17C1282.17 3746.24 1280.32 3742.18 1280.81 3737.61C1281.86 3727.73 1290.48 3722.21 1300.06 3725.11C1311.17 3728.48 1320.89 3739.66 1321.81 3750.13C1322.05 3751.96 1321.92 3753.83 1321.41 3755.61C1320.9 3757.39 1320.03 3759.05 1318.85 3760.48C1317.68 3761.91 1316.22 3763.08 1314.57 3763.92C1312.92 3764.77 1311.12 3765.26 1309.27 3765.37Z" fill="white"/>
<path d="M1358.54 3722.47C1359.03 3727.43 1358.38 3732.44 1356.62 3737.11C1353.62 3744.81 1346.23 3747.97 1338.51 3744.75C1323.56 3738.47 1320.09 3715.72 1328.21 3705.61C1333.34 3699.13 1339.38 3698.51 1346.85 3702.89C1354.31 3707.28 1357.22 3714.78 1358.54 3722.47Z" fill="white"/>
<path d="M1284.32 3770.63C1297.18 3769.26 1311 3781.91 1309.55 3793.72C1309.13 3796.81 1307.66 3799.66 1305.36 3801.77C1303.07 3803.88 1300.12 3805.12 1297.01 3805.28C1281.98 3805.79 1272.36 3794.43 1271.76 3784.86C1271.23 3776.55 1275.3 3771.58 1284.32 3770.63Z" fill="white"/>
<path d="M1367.79 3738.81C1366.56 3730.38 1368.94 3723.79 1375.3 3718.8C1377.29 3717.3 1379.69 3716.44 1382.18 3716.34C1384.67 3716.24 1387.13 3716.91 1389.23 3718.26C1399.89 3724.56 1402.05 3744.85 1392.84 3753.2C1385.63 3759.76 1375.72 3757.68 1370.63 3748.57C1368.92 3745.59 1367.95 3742.24 1367.79 3738.81Z" fill="white"/>
</g>
<g clip-path="url(#clip9_40_2586)">
<path d="M71.4126 190.797L46.9954 207.103C44.7151 208.625 42.0988 209.57 39.372 209.856C36.6453 210.142 33.8898 209.761 31.3431 208.746L4.06895 197.878C-8.9484 192.686 -22.2597 204.675 -18.4371 218.175L-10.4748 246.438C-9.73398 249.076 -9.64425 251.855 -10.2134 254.535C-10.7825 257.216 -11.9935 259.718 -13.7424 261.828L-32.5159 284.413C-41.4756 295.189 -34.1868 311.554 -20.1862 312.111L9.151 313.282C11.8891 313.391 14.5597 314.164 16.9329 315.534C19.3061 316.905 21.3107 318.831 22.7742 321.148L38.4575 345.969C45.9402 357.815 63.7568 355.945 68.609 342.798L78.7817 315.247C79.731 312.675 81.2916 310.374 83.3289 308.54C85.3662 306.707 87.8191 305.396 90.4758 304.722L118.933 297.486C132.536 294.046 136.239 276.51 125.258 267.847L102.21 249.66C100.057 247.963 98.3488 245.767 97.2332 243.262C96.1177 240.758 95.6279 238.02 95.806 235.284L97.7192 205.985C98.5793 191.976 83.0704 183.022 71.4126 190.797Z" fill="#C8F2FF"/>
<path d="M14.3391 273.942C13.4007 278.097 16.7741 282.99 20.4405 284.932C22.8913 286.139 25.4848 287.032 28.1593 287.588C32.036 288.549 34.9934 290.771 37.8073 293.399C40.5022 295.918 43.3121 298.237 47.2589 298.673C55.5115 299.571 61.5893 292.235 59.0169 284.402C57.7814 280.635 55.9657 277.039 55.5111 273.026C55.2012 270.358 55.0876 267.637 54.24 265.023C52.3109 259.08 47.2286 256.428 41.1973 258.323C39.0917 259.035 37.0549 259.937 35.1117 261.016C31.6121 262.837 27.7687 263.415 23.9447 264.045C19.9351 264.709 17.1788 266.968 15.2213 270.402C14.5666 271.492 14.5471 272.676 14.3391 273.942Z" fill="white"/>
<path d="M60.6779 263.919C65.0123 264.388 70.1272 261.292 72.5096 256.735C73.4805 254.881 74.3555 252.963 74.1244 250.805C73.6256 246.135 69.5548 243.528 65.0295 244.898C59.7795 246.489 55.1869 251.77 54.7549 256.715C54.6394 257.583 54.7036 258.464 54.9436 259.305C55.1836 260.147 55.5941 260.93 56.1497 261.605C56.7054 262.281 57.3941 262.835 58.1732 263.233C58.9522 263.631 59.8048 263.865 60.6779 263.919Z" fill="white"/>
<path d="M37.4033 243.652C37.1678 245.995 37.4775 248.361 38.3084 250.564C39.7255 254.203 43.2192 255.698 46.8618 254.175C53.9264 251.208 55.5662 240.463 51.7289 235.684C49.3046 232.625 46.4536 232.331 42.9262 234.402C39.3989 236.473 38.0238 240.019 37.4033 243.652Z" fill="white"/>
<path d="M72.4637 266.4C66.3885 265.756 59.8612 271.729 60.5468 277.311C60.7412 278.77 61.44 280.115 62.5221 281.112C63.6043 282.11 65.0014 282.697 66.4713 282.773C73.569 283.012 78.1121 277.644 78.3996 273.122C78.6479 269.199 76.725 266.852 72.4637 266.4Z" fill="white"/>
<path d="M33.0315 251.368C33.6116 247.388 32.4881 244.275 29.4841 241.918C28.5455 241.206 27.4108 240.799 26.2337 240.754C25.0566 240.708 23.8938 241.024 22.9026 241.661C17.8657 244.636 16.8461 254.221 21.197 258.169C24.6042 261.264 29.2864 260.283 31.6891 255.978C32.4982 254.57 32.9585 252.99 33.0315 251.368Z" fill="white"/>
</g>
<g clip-path="url(#clip10_40_2586)">
<path d="M1359.89 624.797L1384.31 641.103C1386.59 642.625 1389.2 643.57 1391.93 643.856C1394.66 644.142 1397.41 643.761 1399.96 642.746L1427.23 631.878C1440.25 626.686 1453.56 638.675 1449.74 652.175L1441.78 680.438C1441.04 683.076 1440.95 685.855 1441.51 688.535C1442.08 691.216 1443.29 693.718 1445.04 695.828L1463.82 718.413C1472.78 729.189 1465.49 745.554 1451.49 746.111L1422.15 747.282C1419.41 747.391 1416.74 748.164 1414.37 749.534C1412 750.905 1409.99 752.831 1408.53 755.148L1392.84 779.969C1385.36 791.815 1367.54 789.945 1362.69 776.798L1352.52 749.247C1351.57 746.675 1350.01 744.374 1347.97 742.54C1345.94 740.707 1343.48 739.396 1340.83 738.722L1312.37 731.486C1298.76 728.046 1295.06 710.51 1306.04 701.847L1329.09 683.66C1331.24 681.963 1332.95 679.767 1334.07 677.262C1335.18 674.758 1335.67 672.02 1335.5 669.284L1333.58 639.985C1332.72 625.976 1348.23 617.022 1359.89 624.797Z" fill="#C8F2FF"/>
<path d="M1416.96 707.942C1417.9 712.097 1414.53 716.99 1410.86 718.932C1408.41 720.139 1405.82 721.032 1403.14 721.588C1399.27 722.549 1396.31 724.771 1393.49 727.399C1390.8 729.918 1387.99 732.237 1384.04 732.673C1375.79 733.571 1369.71 726.235 1372.28 718.402C1373.52 714.635 1375.34 711.039 1375.79 707.026C1376.1 704.358 1376.21 701.637 1377.06 699.023C1378.99 693.08 1384.07 690.428 1390.1 692.323C1392.21 693.035 1394.25 693.937 1396.19 695.016C1399.69 696.837 1403.53 697.415 1407.36 698.045C1411.37 698.709 1414.12 700.968 1416.08 704.402C1416.73 705.492 1416.75 706.676 1416.96 707.942Z" fill="white"/>
<path d="M1370.62 697.919C1366.29 698.388 1361.17 695.292 1358.79 690.735C1357.82 688.881 1356.95 686.963 1357.18 684.805C1357.68 680.135 1361.75 677.528 1366.27 678.898C1371.52 680.489 1376.11 685.77 1376.55 690.715C1376.66 691.582 1376.6 692.464 1376.36 693.305C1376.12 694.147 1375.71 694.93 1375.15 695.605C1374.6 696.281 1373.91 696.835 1373.13 697.233C1372.35 697.631 1371.5 697.865 1370.62 697.919Z" fill="white"/>
<path d="M1393.9 677.652C1394.13 679.995 1393.82 682.361 1392.99 684.564C1391.58 688.203 1388.08 689.698 1384.44 688.175C1377.37 685.208 1375.74 674.463 1379.57 669.684C1382 666.625 1384.85 666.331 1388.38 668.402C1391.9 670.473 1393.28 674.019 1393.9 677.652Z" fill="white"/>
<path d="M1358.84 700.4C1364.91 699.756 1371.44 705.729 1370.75 711.311C1370.56 712.77 1369.86 714.115 1368.78 715.112C1367.7 716.11 1366.3 716.697 1364.83 716.773C1357.73 717.012 1353.19 711.644 1352.9 707.122C1352.65 703.199 1354.58 700.852 1358.84 700.4Z" fill="white"/>
<path d="M1398.27 685.368C1397.69 681.388 1398.81 678.275 1401.82 675.918C1402.76 675.206 1403.89 674.799 1405.07 674.754C1406.24 674.708 1407.41 675.024 1408.4 675.661C1413.44 678.636 1414.46 688.221 1410.1 692.169C1406.7 695.264 1402.01 694.283 1399.61 689.978C1398.8 688.57 1398.34 686.99 1398.27 685.368Z" fill="white"/>
</g>
<g clip-path="url(#clip11_40_2586)">
<path d="M71.4126 1061.8L46.9954 1078.1C44.7151 1079.63 42.0988 1080.57 39.372 1080.86C36.6453 1081.14 33.8898 1080.76 31.3431 1079.75L4.06895 1068.88C-8.9484 1063.69 -22.2597 1075.67 -18.4371 1089.18L-10.4748 1117.44C-9.73398 1120.08 -9.64425 1122.85 -10.2134 1125.54C-10.7825 1128.22 -11.9935 1130.72 -13.7424 1132.83L-32.5159 1155.41C-41.4756 1166.19 -34.1868 1182.55 -20.1862 1183.11L9.151 1184.28C11.8891 1184.39 14.5597 1185.16 16.9329 1186.53C19.3061 1187.9 21.3107 1189.83 22.7742 1192.15L38.4575 1216.97C45.9402 1228.81 63.7568 1226.94 68.609 1213.8L78.7817 1186.25C79.731 1183.68 81.2916 1181.37 83.3289 1179.54C85.3662 1177.71 87.8191 1176.4 90.4758 1175.72L118.933 1168.49C132.536 1165.05 136.239 1147.51 125.258 1138.85L102.21 1120.66C100.057 1118.96 98.3488 1116.77 97.2332 1114.26C96.1177 1111.76 95.6279 1109.02 95.806 1106.28L97.7192 1076.98C98.5793 1062.98 83.0704 1054.02 71.4126 1061.8Z" fill="#C8F2FF"/>
<path d="M14.3391 1144.94C13.4007 1149.1 16.7741 1153.99 20.4405 1155.93C22.8913 1157.14 25.4848 1158.03 28.1593 1158.59C32.036 1159.55 34.9934 1161.77 37.8073 1164.4C40.5022 1166.92 43.3121 1169.24 47.2589 1169.67C55.5115 1170.57 61.5893 1163.23 59.0169 1155.4C57.7814 1151.63 55.9657 1148.04 55.5111 1144.03C55.2012 1141.36 55.0876 1138.64 54.24 1136.02C52.3109 1130.08 47.2286 1127.43 41.1973 1129.32C39.0917 1130.04 37.0549 1130.94 35.1117 1132.02C31.6121 1133.84 27.7687 1134.41 23.9447 1135.04C19.9351 1135.71 17.1788 1137.97 15.2213 1141.4C14.5666 1142.49 14.5471 1143.68 14.3391 1144.94Z" fill="white"/>
<path d="M60.6779 1134.92C65.0123 1135.39 70.1272 1132.29 72.5096 1127.73C73.4805 1125.88 74.3555 1123.96 74.1244 1121.8C73.6256 1117.14 69.5548 1114.53 65.0295 1115.9C59.7795 1117.49 55.1869 1122.77 54.7549 1127.72C54.6394 1128.58 54.7036 1129.46 54.9436 1130.31C55.1836 1131.15 55.5941 1131.93 56.1497 1132.61C56.7054 1133.28 57.3941 1133.84 58.1732 1134.23C58.9522 1134.63 59.8048 1134.86 60.6779 1134.92Z" fill="white"/>
<path d="M37.4033 1114.65C37.1678 1116.99 37.4775 1119.36 38.3084 1121.56C39.7255 1125.2 43.2192 1126.7 46.8618 1125.17C53.9264 1122.21 55.5662 1111.46 51.7289 1106.68C49.3046 1103.62 46.4536 1103.33 42.9262 1105.4C39.3989 1107.47 38.0238 1111.02 37.4033 1114.65Z" fill="white"/>
<path d="M72.4637 1137.4C66.3885 1136.76 59.8612 1142.73 60.5468 1148.31C60.7412 1149.77 61.44 1151.11 62.5221 1152.11C63.6043 1153.11 65.0014 1153.7 66.4713 1153.77C73.569 1154.01 78.1121 1148.64 78.3996 1144.12C78.6479 1140.2 76.725 1137.85 72.4637 1137.4Z" fill="white"/>
<path d="M33.0315 1122.37C33.6116 1118.39 32.4881 1115.27 29.4841 1112.92C28.5455 1112.21 27.4108 1111.8 26.2337 1111.75C25.0566 1111.71 23.8938 1112.02 22.9026 1112.66C17.8657 1115.64 16.8461 1125.22 21.197 1129.17C24.6042 1132.26 29.2864 1131.28 31.6891 1126.98C32.4982 1125.57 32.9585 1123.99 33.0315 1122.37Z" fill="white"/>
</g>
<g clip-path="url(#clip12_40_2586)">
<path d="M1359.89 1499.8L1384.31 1516.1C1386.59 1517.63 1389.2 1518.57 1391.93 1518.86C1394.66 1519.14 1397.41 1518.76 1399.96 1517.75L1427.23 1506.88C1440.25 1501.69 1453.56 1513.67 1449.74 1527.18L1441.78 1555.44C1441.04 1558.08 1440.95 1560.85 1441.51 1563.54C1442.08 1566.22 1443.29 1568.72 1445.04 1570.83L1463.82 1593.41C1472.78 1604.19 1465.49 1620.55 1451.49 1621.11L1422.15 1622.28C1419.41 1622.39 1416.74 1623.16 1414.37 1624.53C1412 1625.9 1409.99 1627.83 1408.53 1630.15L1392.84 1654.97C1385.36 1666.81 1367.54 1664.94 1362.69 1651.8L1352.52 1624.25C1351.57 1621.68 1350.01 1619.37 1347.97 1617.54C1345.94 1615.71 1343.48 1614.4 1340.83 1613.72L1312.37 1606.49C1298.76 1603.05 1295.06 1585.51 1306.04 1576.85L1329.09 1558.66C1331.24 1556.96 1332.95 1554.77 1334.07 1552.26C1335.18 1549.76 1335.67 1547.02 1335.5 1544.28L1333.58 1514.98C1332.72 1500.98 1348.23 1492.02 1359.89 1499.8Z" fill="#C8F2FF"/>
<path d="M1416.96 1582.94C1417.9 1587.1 1414.53 1591.99 1410.86 1593.93C1408.41 1595.14 1405.82 1596.03 1403.14 1596.59C1399.27 1597.55 1396.31 1599.77 1393.49 1602.4C1390.8 1604.92 1387.99 1607.24 1384.04 1607.67C1375.79 1608.57 1369.71 1601.23 1372.28 1593.4C1373.52 1589.63 1375.34 1586.04 1375.79 1582.03C1376.1 1579.36 1376.21 1576.64 1377.06 1574.02C1378.99 1568.08 1384.07 1565.43 1390.1 1567.32C1392.21 1568.04 1394.25 1568.94 1396.19 1570.02C1399.69 1571.84 1403.53 1572.41 1407.36 1573.04C1411.37 1573.71 1414.12 1575.97 1416.08 1579.4C1416.73 1580.49 1416.75 1581.68 1416.96 1582.94Z" fill="white"/>
<path d="M1370.62 1572.92C1366.29 1573.39 1361.17 1570.29 1358.79 1565.73C1357.82 1563.88 1356.95 1561.96 1357.18 1559.8C1357.68 1555.14 1361.75 1552.53 1366.27 1553.9C1371.52 1555.49 1376.11 1560.77 1376.55 1565.72C1376.66 1566.58 1376.6 1567.46 1376.36 1568.31C1376.12 1569.15 1375.71 1569.93 1375.15 1570.61C1374.6 1571.28 1373.91 1571.84 1373.13 1572.23C1372.35 1572.63 1371.5 1572.86 1370.62 1572.92Z" fill="white"/>
<path d="M1393.9 1552.65C1394.13 1554.99 1393.82 1557.36 1392.99 1559.56C1391.58 1563.2 1388.08 1564.7 1384.44 1563.17C1377.37 1560.21 1375.74 1549.46 1379.57 1544.68C1382 1541.62 1384.85 1541.33 1388.38 1543.4C1391.9 1545.47 1393.28 1549.02 1393.9 1552.65Z" fill="white"/>
<path d="M1358.84 1575.4C1364.91 1574.76 1371.44 1580.73 1370.75 1586.31C1370.56 1587.77 1369.86 1589.11 1368.78 1590.11C1367.7 1591.11 1366.3 1591.7 1364.83 1591.77C1357.73 1592.01 1353.19 1586.64 1352.9 1582.12C1352.65 1578.2 1354.58 1575.85 1358.84 1575.4Z" fill="white"/>
<path d="M1398.27 1560.37C1397.69 1556.39 1398.81 1553.27 1401.82 1550.92C1402.76 1550.21 1403.89 1549.8 1405.07 1549.75C1406.24 1549.71 1407.41 1550.02 1408.4 1550.66C1413.44 1553.64 1414.46 1563.22 1410.1 1567.17C1406.7 1570.26 1402.01 1569.28 1399.61 1564.98C1398.8 1563.57 1398.34 1561.99 1398.27 1560.37Z" fill="white"/>
</g>
<g clip-path="url(#clip13_40_2586)">
<path d="M1359.89 2364.8L1384.31 2381.1C1386.59 2382.63 1389.2 2383.57 1391.93 2383.86C1394.66 2384.14 1397.41 2383.76 1399.96 2382.75L1427.23 2371.88C1440.25 2366.69 1453.56 2378.68 1449.74 2392.18L1441.78 2420.44C1441.04 2423.08 1440.95 2425.86 1441.51 2428.54C1442.08 2431.22 1443.29 2433.72 1445.04 2435.83L1463.82 2458.41C1472.78 2469.19 1465.49 2485.55 1451.49 2486.11L1422.15 2487.28C1419.41 2487.39 1416.74 2488.16 1414.37 2489.53C1412 2490.9 1409.99 2492.83 1408.53 2495.15L1392.84 2519.97C1385.36 2531.82 1367.54 2529.95 1362.69 2516.8L1352.52 2489.25C1351.57 2486.68 1350.01 2484.37 1347.97 2482.54C1345.94 2480.71 1343.48 2479.4 1340.83 2478.72L1312.37 2471.49C1298.76 2468.05 1295.06 2450.51 1306.04 2441.85L1329.09 2423.66C1331.24 2421.96 1332.95 2419.77 1334.07 2417.26C1335.18 2414.76 1335.67 2412.02 1335.5 2409.28L1333.58 2379.98C1332.72 2365.98 1348.23 2357.02 1359.89 2364.8Z" fill="#C8F2FF"/>
<path d="M1416.96 2447.94C1417.9 2452.1 1414.53 2456.99 1410.86 2458.93C1408.41 2460.14 1405.82 2461.03 1403.14 2461.59C1399.27 2462.55 1396.31 2464.77 1393.49 2467.4C1390.8 2469.92 1387.99 2472.24 1384.04 2472.67C1375.79 2473.57 1369.71 2466.23 1372.28 2458.4C1373.52 2454.63 1375.34 2451.04 1375.79 2447.03C1376.1 2444.36 1376.21 2441.64 1377.06 2439.02C1378.99 2433.08 1384.07 2430.43 1390.1 2432.32C1392.21 2433.04 1394.25 2433.94 1396.19 2435.02C1399.69 2436.84 1403.53 2437.41 1407.36 2438.04C1411.37 2438.71 1414.12 2440.97 1416.08 2444.4C1416.73 2445.49 1416.75 2446.68 1416.96 2447.94Z" fill="white"/>
<path d="M1370.62 2437.92C1366.29 2438.39 1361.17 2435.29 1358.79 2430.73C1357.82 2428.88 1356.95 2426.96 1357.18 2424.8C1357.68 2420.14 1361.75 2417.53 1366.27 2418.9C1371.52 2420.49 1376.11 2425.77 1376.55 2430.72C1376.66 2431.58 1376.6 2432.46 1376.36 2433.31C1376.12 2434.15 1375.71 2434.93 1375.15 2435.61C1374.6 2436.28 1373.91 2436.84 1373.13 2437.23C1372.35 2437.63 1371.5 2437.86 1370.62 2437.92Z" fill="white"/>
<path d="M1393.9 2417.65C1394.13 2419.99 1393.82 2422.36 1392.99 2424.56C1391.58 2428.2 1388.08 2429.7 1384.44 2428.17C1377.37 2425.21 1375.74 2414.46 1379.57 2409.68C1382 2406.62 1384.85 2406.33 1388.38 2408.4C1391.9 2410.47 1393.28 2414.02 1393.9 2417.65Z" fill="white"/>
<path d="M1358.84 2440.4C1364.91 2439.76 1371.44 2445.73 1370.75 2451.31C1370.56 2452.77 1369.86 2454.11 1368.78 2455.11C1367.7 2456.11 1366.3 2456.7 1364.83 2456.77C1357.73 2457.01 1353.19 2451.64 1352.9 2447.12C1352.65 2443.2 1354.58 2440.85 1358.84 2440.4Z" fill="white"/>
<path d="M1398.27 2425.37C1397.69 2421.39 1398.81 2418.27 1401.82 2415.92C1402.76 2415.21 1403.89 2414.8 1405.07 2414.75C1406.24 2414.71 1407.41 2415.02 1408.4 2415.66C1413.44 2418.64 1414.46 2428.22 1410.1 2432.17C1406.7 2435.26 1402.01 2434.28 1399.61 2429.98C1398.8 2428.57 1398.34 2426.99 1398.27 2425.37Z" fill="white"/>
</g>
<g clip-path="url(#clip14_40_2586)">
<path d="M1359.89 3275.8L1384.31 3292.1C1386.59 3293.63 1389.2 3294.57 1391.93 3294.86C1394.66 3295.14 1397.41 3294.76 1399.96 3293.75L1427.23 3282.88C1440.25 3277.69 1453.56 3289.68 1449.74 3303.18L1441.78 3331.44C1441.04 3334.08 1440.95 3336.86 1441.51 3339.54C1442.08 3342.22 1443.29 3344.72 1445.04 3346.83L1463.82 3369.41C1472.78 3380.19 1465.49 3396.55 1451.49 3397.11L1422.15 3398.28C1419.41 3398.39 1416.74 3399.16 1414.37 3400.53C1412 3401.9 1409.99 3403.83 1408.53 3406.15L1392.84 3430.97C1385.36 3442.82 1367.54 3440.95 1362.69 3427.8L1352.52 3400.25C1351.57 3397.68 1350.01 3395.37 1347.97 3393.54C1345.94 3391.71 1343.48 3390.4 1340.83 3389.72L1312.37 3382.49C1298.76 3379.05 1295.06 3361.51 1306.04 3352.85L1329.09 3334.66C1331.24 3332.96 1332.95 3330.77 1334.07 3328.26C1335.18 3325.76 1335.67 3323.02 1335.5 3320.28L1333.58 3290.98C1332.72 3276.98 1348.23 3268.02 1359.89 3275.8Z" fill="#C8F2FF"/>
<path d="M1416.96 3358.94C1417.9 3363.1 1414.53 3367.99 1410.86 3369.93C1408.41 3371.14 1405.82 3372.03 1403.14 3372.59C1399.27 3373.55 1396.31 3375.77 1393.49 3378.4C1390.8 3380.92 1387.99 3383.24 1384.04 3383.67C1375.79 3384.57 1369.71 3377.23 1372.28 3369.4C1373.52 3365.63 1375.34 3362.04 1375.79 3358.03C1376.1 3355.36 1376.21 3352.64 1377.06 3350.02C1378.99 3344.08 1384.07 3341.43 1390.1 3343.32C1392.21 3344.04 1394.25 3344.94 1396.19 3346.02C1399.69 3347.84 1403.53 3348.41 1407.36 3349.04C1411.37 3349.71 1414.12 3351.97 1416.08 3355.4C1416.73 3356.49 1416.75 3357.68 1416.96 3358.94Z" fill="white"/>
<path d="M1370.62 3348.92C1366.29 3349.39 1361.17 3346.29 1358.79 3341.73C1357.82 3339.88 1356.95 3337.96 1357.18 3335.8C1357.68 3331.14 1361.75 3328.53 1366.27 3329.9C1371.52 3331.49 1376.11 3336.77 1376.55 3341.72C1376.66 3342.58 1376.6 3343.46 1376.36 3344.31C1376.12 3345.15 1375.71 3345.93 1375.15 3346.61C1374.6 3347.28 1373.91 3347.84 1373.13 3348.23C1372.35 3348.63 1371.5 3348.86 1370.62 3348.92Z" fill="white"/>
<path d="M1393.9 3328.65C1394.13 3330.99 1393.82 3333.36 1392.99 3335.56C1391.58 3339.2 1388.08 3340.7 1384.44 3339.17C1377.37 3336.21 1375.74 3325.46 1379.57 3320.68C1382 3317.62 1384.85 3317.33 1388.38 3319.4C1391.9 3321.47 1393.28 3325.02 1393.9 3328.65Z" fill="white"/>
<path d="M1358.84 3351.4C1364.91 3350.76 1371.44 3356.73 1370.75 3362.31C1370.56 3363.77 1369.86 3365.11 1368.78 3366.11C1367.7 3367.11 1366.3 3367.7 1364.83 3367.77C1357.73 3368.01 1353.19 3362.64 1352.9 3358.12C1352.65 3354.2 1354.58 3351.85 1358.84 3351.4Z" fill="white"/>
<path d="M1398.27 3336.37C1397.69 3332.39 1398.81 3329.27 1401.82 3326.92C1402.76 3326.21 1403.89 3325.8 1405.07 3325.75C1406.24 3325.71 1407.41 3326.02 1408.4 3326.66C1413.44 3329.64 1414.46 3339.22 1410.1 3343.17C1406.7 3346.26 1402.01 3345.28 1399.61 3340.98C1398.8 3339.57 1398.34 3337.99 1398.27 3336.37Z" fill="white"/>
</g>
<g clip-path="url(#clip15_40_2586)">
<path d="M71.4126 2799.8L46.9954 2816.1C44.7151 2817.63 42.0988 2818.57 39.372 2818.86C36.6453 2819.14 33.8898 2818.76 31.3431 2817.75L4.06895 2806.88C-8.9484 2801.69 -22.2597 2813.68 -18.4371 2827.18L-10.4748 2855.44C-9.73398 2858.08 -9.64425 2860.86 -10.2134 2863.54C-10.7825 2866.22 -11.9935 2868.72 -13.7424 2870.83L-32.5159 2893.41C-41.4756 2904.19 -34.1868 2920.55 -20.1862 2921.11L9.151 2922.28C11.8891 2922.39 14.5597 2923.16 16.9329 2924.53C19.3061 2925.9 21.3107 2927.83 22.7742 2930.15L38.4575 2954.97C45.9402 2966.82 63.7568 2964.95 68.609 2951.8L78.7817 2924.25C79.731 2921.68 81.2916 2919.37 83.3289 2917.54C85.3662 2915.71 87.8191 2914.4 90.4758 2913.72L118.933 2906.49C132.536 2903.05 136.239 2885.51 125.258 2876.85L102.21 2858.66C100.057 2856.96 98.3488 2854.77 97.2332 2852.26C96.1177 2849.76 95.6279 2847.02 95.806 2844.28L97.7192 2814.98C98.5793 2800.98 83.0704 2792.02 71.4126 2799.8Z" fill="#C8F2FF"/>
<path d="M14.3391 2882.94C13.4007 2887.1 16.7741 2891.99 20.4405 2893.93C22.8913 2895.14 25.4848 2896.03 28.1593 2896.59C32.036 2897.55 34.9934 2899.77 37.8073 2902.4C40.5022 2904.92 43.3121 2907.24 47.2589 2907.67C55.5115 2908.57 61.5893 2901.23 59.0169 2893.4C57.7814 2889.63 55.9657 2886.04 55.5111 2882.03C55.2012 2879.36 55.0876 2876.64 54.24 2874.02C52.3109 2868.08 47.2286 2865.43 41.1973 2867.32C39.0917 2868.04 37.0549 2868.94 35.1117 2870.02C31.6121 2871.84 27.7687 2872.41 23.9447 2873.04C19.9351 2873.71 17.1788 2875.97 15.2213 2879.4C14.5666 2880.49 14.5471 2881.68 14.3391 2882.94Z" fill="white"/>
<path d="M60.6779 2872.92C65.0123 2873.39 70.1272 2870.29 72.5096 2865.73C73.4805 2863.88 74.3555 2861.96 74.1244 2859.8C73.6256 2855.14 69.5548 2852.53 65.0295 2853.9C59.7795 2855.49 55.1869 2860.77 54.7549 2865.72C54.6394 2866.58 54.7036 2867.46 54.9436 2868.31C55.1836 2869.15 55.5941 2869.93 56.1497 2870.61C56.7054 2871.28 57.3941 2871.84 58.1732 2872.23C58.9522 2872.63 59.8048 2872.86 60.6779 2872.92Z" fill="white"/>
<path d="M37.4033 2852.65C37.1678 2854.99 37.4775 2857.36 38.3084 2859.56C39.7255 2863.2 43.2192 2864.7 46.8618 2863.17C53.9264 2860.21 55.5662 2849.46 51.7289 2844.68C49.3046 2841.62 46.4536 2841.33 42.9262 2843.4C39.3989 2845.47 38.0238 2849.02 37.4033 2852.65Z" fill="white"/>
<path d="M72.4637 2875.4C66.3885 2874.76 59.8612 2880.73 60.5468 2886.31C60.7412 2887.77 61.44 2889.11 62.5221 2890.11C63.6043 2891.11 65.0014 2891.7 66.4713 2891.77C73.569 2892.01 78.1121 2886.64 78.3996 2882.12C78.6479 2878.2 76.725 2875.85 72.4637 2875.4Z" fill="white"/>
<path d="M33.0315 2860.37C33.6116 2856.39 32.4881 2853.27 29.4841 2850.92C28.5455 2850.21 27.4108 2849.8 26.2337 2849.75C25.0566 2849.71 23.8938 2850.02 22.9026 2850.66C17.8657 2853.64 16.8461 2863.22 21.197 2867.17C24.6042 2870.26 29.2864 2869.28 31.6891 2864.98C32.4982 2863.57 32.9585 2861.99 33.0315 2860.37Z" fill="white"/>
</g>
<g clip-path="url(#clip16_40_2586)">
<path d="M71.4126 3710.8L46.9954 3727.1C44.7151 3728.63 42.0988 3729.57 39.372 3729.86C36.6453 3730.14 33.8898 3729.76 31.3431 3728.75L4.06895 3717.88C-8.9484 3712.69 -22.2597 3724.68 -18.4371 3738.18L-10.4748 3766.44C-9.73398 3769.08 -9.64425 3771.86 -10.2134 3774.54C-10.7825 3777.22 -11.9935 3779.72 -13.7424 3781.83L-32.5159 3804.41C-41.4756 3815.19 -34.1868 3831.55 -20.1862 3832.11L9.151 3833.28C11.8891 3833.39 14.5597 3834.16 16.9329 3835.53C19.3061 3836.9 21.3107 3838.83 22.7742 3841.15L38.4575 3865.97C45.9402 3877.82 63.7568 3875.95 68.609 3862.8L78.7817 3835.25C79.731 3832.68 81.2916 3830.37 83.3289 3828.54C85.3662 3826.71 87.8191 3825.4 90.4758 3824.72L118.933 3817.49C132.536 3814.05 136.239 3796.51 125.258 3787.85L102.21 3769.66C100.057 3767.96 98.3488 3765.77 97.2332 3763.26C96.1177 3760.76 95.6279 3758.02 95.806 3755.28L97.7192 3725.98C98.5793 3711.98 83.0704 3703.02 71.4126 3710.8Z" fill="#C8F2FF"/>
<path d="M14.3391 3793.94C13.4007 3798.1 16.7741 3802.99 20.4405 3804.93C22.8913 3806.14 25.4848 3807.03 28.1593 3807.59C32.036 3808.55 34.9934 3810.77 37.8073 3813.4C40.5022 3815.92 43.3121 3818.24 47.2589 3818.67C55.5115 3819.57 61.5893 3812.23 59.0169 3804.4C57.7814 3800.63 55.9657 3797.04 55.5111 3793.03C55.2012 3790.36 55.0876 3787.64 54.24 3785.02C52.3109 3779.08 47.2286 3776.43 41.1973 3778.32C39.0917 3779.04 37.0549 3779.94 35.1117 3781.02C31.6121 3782.84 27.7687 3783.41 23.9447 3784.04C19.9351 3784.71 17.1788 3786.97 15.2213 3790.4C14.5666 3791.49 14.5471 3792.68 14.3391 3793.94Z" fill="white"/>
<path d="M60.6779 3783.92C65.0123 3784.39 70.1272 3781.29 72.5096 3776.73C73.4805 3774.88 74.3555 3772.96 74.1244 3770.8C73.6256 3766.14 69.5548 3763.53 65.0295 3764.9C59.7795 3766.49 55.1869 3771.77 54.7549 3776.72C54.6394 3777.58 54.7036 3778.46 54.9436 3779.31C55.1836 3780.15 55.5941 3780.93 56.1497 3781.61C56.7054 3782.28 57.3941 3782.84 58.1732 3783.23C58.9522 3783.63 59.8048 3783.86 60.6779 3783.92Z" fill="white"/>
<path d="M37.4033 3763.65C37.1678 3765.99 37.4775 3768.36 38.3084 3770.56C39.7255 3774.2 43.2192 3775.7 46.8618 3774.17C53.9264 3771.21 55.5662 3760.46 51.7289 3755.68C49.3046 3752.62 46.4536 3752.33 42.9262 3754.4C39.3989 3756.47 38.0238 3760.02 37.4033 3763.65Z" fill="white"/>
<path d="M72.4637 3786.4C66.3885 3785.76 59.8612 3791.73 60.5468 3797.31C60.7412 3798.77 61.44 3800.11 62.5221 3801.11C63.6043 3802.11 65.0014 3802.7 66.4713 3802.77C73.569 3803.01 78.1121 3797.64 78.3996 3793.12C78.6479 3789.2 76.725 3786.85 72.4637 3786.4Z" fill="white"/>
<path d="M33.0315 3771.37C33.6116 3767.39 32.4881 3764.27 29.4841 3761.92C28.5455 3761.21 27.4108 3760.8 26.2337 3760.75C25.0566 3760.71 23.8938 3761.02 22.9026 3761.66C17.8657 3764.64 16.8461 3774.22 21.197 3778.17C24.6042 3781.26 29.2864 3780.28 31.6891 3775.98C32.4982 3774.57 32.9585 3772.99 33.0315 3771.37Z" fill="white"/>
</g>
<g clip-path="url(#clip17_40_2586)">
<path d="M71.4126 1932.8L46.9954 1949.1C44.7151 1950.63 42.0988 1951.57 39.372 1951.86C36.6453 1952.14 33.8898 1951.76 31.3431 1950.75L4.06895 1939.88C-8.9484 1934.69 -22.2597 1946.68 -18.4371 1960.18L-10.4748 1988.44C-9.73398 1991.08 -9.64425 1993.86 -10.2134 1996.54C-10.7825 1999.22 -11.9935 2001.72 -13.7424 2003.83L-32.5159 2026.41C-41.4756 2037.19 -34.1868 2053.55 -20.1862 2054.11L9.151 2055.28C11.8891 2055.39 14.5597 2056.16 16.9329 2057.53C19.3061 2058.9 21.3107 2060.83 22.7742 2063.15L38.4575 2087.97C45.9402 2099.82 63.7568 2097.95 68.609 2084.8L78.7817 2057.25C79.731 2054.68 81.2916 2052.37 83.3289 2050.54C85.3662 2048.71 87.8191 2047.4 90.4758 2046.72L118.933 2039.49C132.536 2036.05 136.239 2018.51 125.258 2009.85L102.21 1991.66C100.057 1989.96 98.3488 1987.77 97.2332 1985.26C96.1177 1982.76 95.6279 1980.02 95.806 1977.28L97.7192 1947.98C98.5793 1933.98 83.0704 1925.02 71.4126 1932.8Z" fill="#C8F2FF"/>
<path d="M14.3391 2015.94C13.4007 2020.1 16.7741 2024.99 20.4405 2026.93C22.8913 2028.14 25.4848 2029.03 28.1593 2029.59C32.036 2030.55 34.9934 2032.77 37.8073 2035.4C40.5022 2037.92 43.3121 2040.24 47.2589 2040.67C55.5115 2041.57 61.5893 2034.23 59.0169 2026.4C57.7814 2022.63 55.9657 2019.04 55.5111 2015.03C55.2012 2012.36 55.0876 2009.64 54.24 2007.02C52.3109 2001.08 47.2286 1998.43 41.1973 2000.32C39.0917 2001.04 37.0549 2001.94 35.1117 2003.02C31.6121 2004.84 27.7687 2005.41 23.9447 2006.04C19.9351 2006.71 17.1788 2008.97 15.2213 2012.4C14.5666 2013.49 14.5471 2014.68 14.3391 2015.94Z" fill="white"/>
<path d="M60.6779 2005.92C65.0123 2006.39 70.1272 2003.29 72.5096 1998.73C73.4805 1996.88 74.3555 1994.96 74.1244 1992.8C73.6256 1988.14 69.5548 1985.53 65.0295 1986.9C59.7795 1988.49 55.1869 1993.77 54.7549 1998.72C54.6394 1999.58 54.7036 2000.46 54.9436 2001.31C55.1836 2002.15 55.5941 2002.93 56.1497 2003.61C56.7054 2004.28 57.3941 2004.84 58.1732 2005.23C58.9522 2005.63 59.8048 2005.86 60.6779 2005.92Z" fill="white"/>
<path d="M37.4033 1985.65C37.1678 1987.99 37.4775 1990.36 38.3084 1992.56C39.7255 1996.2 43.2192 1997.7 46.8618 1996.17C53.9264 1993.21 55.5662 1982.46 51.7289 1977.68C49.3046 1974.62 46.4536 1974.33 42.9262 1976.4C39.3989 1978.47 38.0238 1982.02 37.4033 1985.65Z" fill="white"/>
<path d="M72.4637 2008.4C66.3885 2007.76 59.8612 2013.73 60.5468 2019.31C60.7412 2020.77 61.44 2022.11 62.5221 2023.11C63.6043 2024.11 65.0014 2024.7 66.4713 2024.77C73.569 2025.01 78.1121 2019.64 78.3996 2015.12C78.6479 2011.2 76.725 2008.85 72.4637 2008.4Z" fill="white"/>
<path d="M33.0315 1993.37C33.6116 1989.39 32.4881 1986.27 29.4841 1983.92C28.5455 1983.21 27.4108 1982.8 26.2337 1982.75C25.0566 1982.71 23.8938 1983.02 22.9026 1983.66C17.8657 1986.64 16.8461 1996.22 21.197 2000.17C24.6042 2003.26 29.2864 2002.28 31.6891 1997.98C32.4982 1996.57 32.9585 1994.99 33.0315 1993.37Z" fill="white"/>
</g>
<defs>
<clipPath id="clip0_40_2586">
<rect width="357.459" height="343.465" fill="white" transform="translate(1096 178.73) rotate(-30)"/>
</clipPath>
<clipPath id="clip1_40_2586">
<rect width="357.459" height="343.465" fill="white" transform="matrix(-0.866025 -0.5 -0.5 0.866025 335.301 612.73)"/>
</clipPath>
<clipPath id="clip2_40_2586">
<rect width="357.459" height="343.465" fill="white" transform="translate(1096 1049.73) rotate(-30)"/>
</clipPath>
<clipPath id="clip3_40_2586">
<rect width="357.459" height="343.465" fill="white" transform="matrix(-0.866025 -0.5 -0.5 0.866025 335.301 1487.73)"/>
</clipPath>
<clipPath id="clip4_40_2586">
<rect width="357.459" height="343.465" fill="white" transform="matrix(-0.866025 -0.5 -0.5 0.866025 335.301 2352.73)"/>
</clipPath>
<clipPath id="clip5_40_2586">
<rect width="357.459" height="343.465" fill="white" transform="matrix(-0.866025 -0.5 -0.5 0.866025 335.301 3263.73)"/>
</clipPath>
<clipPath id="clip6_40_2586">
<rect width="357.459" height="343.465" fill="white" transform="translate(1094 1920.73) rotate(-30)"/>
</clipPath>
<clipPath id="clip7_40_2586">
<rect width="357.459" height="343.465" fill="white" transform="translate(1094 2787.73) rotate(-30)"/>
</clipPath>
<clipPath id="clip8_40_2586">
<rect width="357.459" height="343.465" fill="white" transform="translate(1094 3698.73) rotate(-30)"/>
</clipPath>
<clipPath id="clip9_40_2586">
<rect width="168.869" height="162.258" fill="white" transform="matrix(-0.866025 -0.5 -0.5 0.866025 162.374 232.435)"/>
</clipPath>
<clipPath id="clip10_40_2586">
<rect width="168.869" height="162.258" fill="white" transform="translate(1268.93 666.435) rotate(-30)"/>
</clipPath>
<clipPath id="clip11_40_2586">
<rect width="168.869" height="162.258" fill="white" transform="matrix(-0.866025 -0.5 -0.5 0.866025 162.374 1103.43)"/>
</clipPath>
<clipPath id="clip12_40_2586">
<rect width="168.869" height="162.258" fill="white" transform="translate(1268.93 1541.43) rotate(-30)"/>
</clipPath>
<clipPath id="clip13_40_2586">
<rect width="168.869" height="162.258" fill="white" transform="translate(1268.93 2406.43) rotate(-30)"/>
</clipPath>
<clipPath id="clip14_40_2586">
<rect width="168.869" height="162.258" fill="white" transform="translate(1268.93 3317.43) rotate(-30)"/>
</clipPath>
<clipPath id="clip15_40_2586">
<rect width="168.869" height="162.258" fill="white" transform="matrix(-0.866025 -0.5 -0.5 0.866025 162.374 2841.43)"/>
</clipPath>
<clipPath id="clip16_40_2586">
<rect width="168.869" height="162.258" fill="white" transform="matrix(-0.866025 -0.5 -0.5 0.866025 162.374 3752.43)"/>
</clipPath>
<clipPath id="clip17_40_2586">
<rect width="168.869" height="162.258" fill="white" transform="matrix(-0.866025 -0.5 -0.5 0.866025 162.374 1974.43)"/>
</clipPath>
</defs>
</svg>
